<svg xmlns="http://www.w3.org/2000/svg" xmlns:xlink="http://www.w3.org/1999/xlink" version="1.1" viewBox="0 0 128 96" height="96" width="128"><path style="opacity: 0.5;" d="M61.71 19.0C39.59 19.03 19.46 31.76 9.95 51.73C9.95 51.73 46.21 69.01 46.21 69.01C49.06 63.04 55.09 59.23 61.71 59.23C68.34 59.23 74.38 63.06 77.23 69.05C77.23 69.05 113.5 51.76 113.5 51.76C104.0 31.77 83.85 19.03 61.71 19.0C61.71 19.0 61.71 19.0 61.71 19.0"/><path d="M61.7 11.44C36.73 11.47 13.96 25.95 3.18 48.59C0.18 48.59 16.88 55.11 16.88 55.11C25.18 37.68 42.58 26.64 61.71 26.61C75.15 26.63 87.74 32.09 96.91 41.38C96.91 41.38 85.89 49.25 85.89 49.25C85.89 49.25 124.26 66.72 124.26 66.72C124.26 66.72 120.21 24.75 120.21 24.75C120.21 24.75 109.37 32.49 109.37 32.49C97.28 19.32 80.1 11.46 61.72 11.44C61.71 11.44 61.71 11.44 61.7 11.44C61.7 11.44 61.7 11.44 61.7 11.44M61.71 66.81C56.4 66.81 52.09 71.11 52.09 76.42C52.09 81.73 56.4 86.04 61.71 86.04C64.26 86.04 66.7 85.03 68.51 83.22C70.31 81.42 71.33 78.98 71.33 76.42C71.33 73.87 70.31 71.43 68.51 69.63C66.7 67.82 64.26 66.81 61.71 66.81C61.71 66.81 61.71 66.81 61.71 66.81"/></svg>