G04 #@! TF.GenerationSoftware,KiCad,Pcbnew,5.0.0-fee4fd1~66~ubuntu16.04.1*
G04 #@! TF.CreationDate,2018-08-14T17:57:09-07:00*
G04 #@! TF.ProjectId,powerstep01-breakout,706F7765727374657030312D62726561,rev?*
G04 #@! TF.SameCoordinates,Original*
G04 #@! TF.FileFunction,Soldermask,Top*
G04 #@! TF.FilePolarity,Negative*
%FSLAX46Y46*%
G04 Gerber Fmt 4.6, Leading zero omitted, Abs format (unit mm)*
G04 Created by KiCad (PCBNEW 5.0.0-fee4fd1~66~ubuntu16.04.1) date Tue Aug 14 17:57:09 2018*
%MOMM*%
%LPD*%
G01*
G04 APERTURE LIST*
%ADD10R,5.900000X5.080000*%
%ADD11R,2.700000X3.410000*%
%ADD12R,1.560000X1.600000*%
%ADD13R,0.600000X1.200000*%
%ADD14R,1.200000X0.600000*%
%ADD15R,2.540000X3.250000*%
%ADD16R,1.840000X1.120000*%
%ADD17R,1.140000X2.570000*%
%ADD18C,0.100000*%
%ADD19C,1.650000*%
%ADD20R,1.200000X1.300000*%
%ADD21C,3.600000*%
%ADD22R,2.100000X2.100000*%
%ADD23O,2.100000X2.100000*%
%ADD24C,1.275000*%
%ADD25R,2.910000X1.400000*%
%ADD26C,1.750000*%
%ADD27R,3.150000X3.150000*%
%ADD28C,3.150000*%
%ADD29C,1.375000*%
%ADD30R,2.800000X2.800000*%
%ADD31C,2.800000*%
G04 APERTURE END LIST*
D10*
G04 #@! TO.C,U1*
X133778000Y-86614000D03*
D11*
X135228000Y-90879000D03*
X132488000Y-90879000D03*
X135228000Y-82349000D03*
X132488000Y-82349000D03*
D12*
X135268000Y-93414000D03*
X132448000Y-93414000D03*
X135268000Y-79814000D03*
X132448000Y-79814000D03*
D13*
X134168000Y-79614000D03*
X133548000Y-79614000D03*
X131348000Y-79614000D03*
X136368000Y-79614000D03*
X134168000Y-93614000D03*
X133548000Y-93614000D03*
X131348000Y-93614000D03*
X136368000Y-93614000D03*
D14*
X139358000Y-86404000D03*
X139358000Y-86004000D03*
X139358000Y-85604000D03*
X139358000Y-85204000D03*
X139358000Y-84804000D03*
X139358000Y-84404000D03*
X139358000Y-83964000D03*
X139358000Y-83364000D03*
X139358000Y-86824000D03*
X139358000Y-87224000D03*
X139358000Y-87624000D03*
X139358000Y-88024000D03*
X139358000Y-88424000D03*
X139358000Y-88824000D03*
X139358000Y-89264000D03*
X139358000Y-89864000D03*
X128358000Y-86214000D03*
X128358000Y-86614000D03*
X128358000Y-85814000D03*
X128358000Y-85094000D03*
X128358000Y-84694000D03*
X128358000Y-83964000D03*
X128358000Y-83364000D03*
X128358000Y-87014000D03*
X128358000Y-87734000D03*
X128358000Y-88464000D03*
X128358000Y-88864000D03*
X128358000Y-89264000D03*
X128358000Y-89864000D03*
D15*
X137948000Y-81359000D03*
X129768000Y-81359000D03*
X129768000Y-91869000D03*
X137948000Y-91869000D03*
D16*
X129558000Y-79574000D03*
X138158000Y-79574000D03*
X129558000Y-93654000D03*
X138158000Y-93654000D03*
D17*
X128338000Y-81299000D03*
X128338000Y-91929000D03*
X139378000Y-91929000D03*
X139378000Y-81299000D03*
G04 #@! TD*
D18*
G04 #@! TO.C,C13*
G36*
X123967346Y-90114589D02*
X123999380Y-90119341D01*
X124030794Y-90127210D01*
X124061286Y-90138120D01*
X124090561Y-90151966D01*
X124118338Y-90168615D01*
X124144350Y-90187907D01*
X124168345Y-90209655D01*
X124190093Y-90233650D01*
X124209385Y-90259662D01*
X124226034Y-90287439D01*
X124239880Y-90316714D01*
X124250790Y-90347206D01*
X124258659Y-90378620D01*
X124263411Y-90410654D01*
X124265000Y-90443000D01*
X124265000Y-91433000D01*
X124263411Y-91465346D01*
X124258659Y-91497380D01*
X124250790Y-91528794D01*
X124239880Y-91559286D01*
X124226034Y-91588561D01*
X124209385Y-91616338D01*
X124190093Y-91642350D01*
X124168345Y-91666345D01*
X124144350Y-91688093D01*
X124118338Y-91707385D01*
X124090561Y-91724034D01*
X124061286Y-91737880D01*
X124030794Y-91748790D01*
X123999380Y-91756659D01*
X123967346Y-91761411D01*
X123935000Y-91763000D01*
X122445000Y-91763000D01*
X122412654Y-91761411D01*
X122380620Y-91756659D01*
X122349206Y-91748790D01*
X122318714Y-91737880D01*
X122289439Y-91724034D01*
X122261662Y-91707385D01*
X122235650Y-91688093D01*
X122211655Y-91666345D01*
X122189907Y-91642350D01*
X122170615Y-91616338D01*
X122153966Y-91588561D01*
X122140120Y-91559286D01*
X122129210Y-91528794D01*
X122121341Y-91497380D01*
X122116589Y-91465346D01*
X122115000Y-91433000D01*
X122115000Y-90443000D01*
X122116589Y-90410654D01*
X122121341Y-90378620D01*
X122129210Y-90347206D01*
X122140120Y-90316714D01*
X122153966Y-90287439D01*
X122170615Y-90259662D01*
X122189907Y-90233650D01*
X122211655Y-90209655D01*
X122235650Y-90187907D01*
X122261662Y-90168615D01*
X122289439Y-90151966D01*
X122318714Y-90138120D01*
X122349206Y-90127210D01*
X122380620Y-90119341D01*
X122412654Y-90114589D01*
X122445000Y-90113000D01*
X123935000Y-90113000D01*
X123967346Y-90114589D01*
X123967346Y-90114589D01*
G37*
D19*
X123190000Y-90938000D03*
D18*
G36*
X123967346Y-87314589D02*
X123999380Y-87319341D01*
X124030794Y-87327210D01*
X124061286Y-87338120D01*
X124090561Y-87351966D01*
X124118338Y-87368615D01*
X124144350Y-87387907D01*
X124168345Y-87409655D01*
X124190093Y-87433650D01*
X124209385Y-87459662D01*
X124226034Y-87487439D01*
X124239880Y-87516714D01*
X124250790Y-87547206D01*
X124258659Y-87578620D01*
X124263411Y-87610654D01*
X124265000Y-87643000D01*
X124265000Y-88633000D01*
X124263411Y-88665346D01*
X124258659Y-88697380D01*
X124250790Y-88728794D01*
X124239880Y-88759286D01*
X124226034Y-88788561D01*
X124209385Y-88816338D01*
X124190093Y-88842350D01*
X124168345Y-88866345D01*
X124144350Y-88888093D01*
X124118338Y-88907385D01*
X124090561Y-88924034D01*
X124061286Y-88937880D01*
X124030794Y-88948790D01*
X123999380Y-88956659D01*
X123967346Y-88961411D01*
X123935000Y-88963000D01*
X122445000Y-88963000D01*
X122412654Y-88961411D01*
X122380620Y-88956659D01*
X122349206Y-88948790D01*
X122318714Y-88937880D01*
X122289439Y-88924034D01*
X122261662Y-88907385D01*
X122235650Y-88888093D01*
X122211655Y-88866345D01*
X122189907Y-88842350D01*
X122170615Y-88816338D01*
X122153966Y-88788561D01*
X122140120Y-88759286D01*
X122129210Y-88728794D01*
X122121341Y-88697380D01*
X122116589Y-88665346D01*
X122115000Y-88633000D01*
X122115000Y-87643000D01*
X122116589Y-87610654D01*
X122121341Y-87578620D01*
X122129210Y-87547206D01*
X122140120Y-87516714D01*
X122153966Y-87487439D01*
X122170615Y-87459662D01*
X122189907Y-87433650D01*
X122211655Y-87409655D01*
X122235650Y-87387907D01*
X122261662Y-87368615D01*
X122289439Y-87351966D01*
X122318714Y-87338120D01*
X122349206Y-87327210D01*
X122380620Y-87319341D01*
X122412654Y-87314589D01*
X122445000Y-87313000D01*
X123935000Y-87313000D01*
X123967346Y-87314589D01*
X123967346Y-87314589D01*
G37*
D19*
X123190000Y-88138000D03*
G04 #@! TD*
D20*
G04 #@! TO.C,D1*
X122870000Y-81280000D03*
X120970000Y-81280000D03*
X121920000Y-83280000D03*
G04 #@! TD*
D21*
G04 #@! TO.C,REF\002A\002A*
X158750000Y-108458000D03*
G04 #@! TD*
D22*
G04 #@! TO.C,J4*
X160020000Y-74676000D03*
D23*
X160020000Y-77216000D03*
X160020000Y-79756000D03*
X160020000Y-82296000D03*
X160020000Y-84836000D03*
X160020000Y-87376000D03*
X160020000Y-89916000D03*
X160020000Y-92456000D03*
X160020000Y-94996000D03*
X160020000Y-97536000D03*
G04 #@! TD*
D18*
G04 #@! TO.C,C9*
G36*
X146958993Y-87464535D02*
X146989935Y-87469125D01*
X147020278Y-87476725D01*
X147049730Y-87487263D01*
X147078008Y-87500638D01*
X147104838Y-87516719D01*
X147129963Y-87535353D01*
X147153140Y-87556360D01*
X147174147Y-87579537D01*
X147192781Y-87604662D01*
X147208862Y-87631492D01*
X147222237Y-87659770D01*
X147232775Y-87689222D01*
X147240375Y-87719565D01*
X147244965Y-87750507D01*
X147246500Y-87781750D01*
X147246500Y-88494250D01*
X147244965Y-88525493D01*
X147240375Y-88556435D01*
X147232775Y-88586778D01*
X147222237Y-88616230D01*
X147208862Y-88644508D01*
X147192781Y-88671338D01*
X147174147Y-88696463D01*
X147153140Y-88719640D01*
X147129963Y-88740647D01*
X147104838Y-88759281D01*
X147078008Y-88775362D01*
X147049730Y-88788737D01*
X147020278Y-88799275D01*
X146989935Y-88806875D01*
X146958993Y-88811465D01*
X146927750Y-88813000D01*
X146290250Y-88813000D01*
X146259007Y-88811465D01*
X146228065Y-88806875D01*
X146197722Y-88799275D01*
X146168270Y-88788737D01*
X146139992Y-88775362D01*
X146113162Y-88759281D01*
X146088037Y-88740647D01*
X146064860Y-88719640D01*
X146043853Y-88696463D01*
X146025219Y-88671338D01*
X146009138Y-88644508D01*
X145995763Y-88616230D01*
X145985225Y-88586778D01*
X145977625Y-88556435D01*
X145973035Y-88525493D01*
X145971500Y-88494250D01*
X145971500Y-87781750D01*
X145973035Y-87750507D01*
X145977625Y-87719565D01*
X145985225Y-87689222D01*
X145995763Y-87659770D01*
X146009138Y-87631492D01*
X146025219Y-87604662D01*
X146043853Y-87579537D01*
X146064860Y-87556360D01*
X146088037Y-87535353D01*
X146113162Y-87516719D01*
X146139992Y-87500638D01*
X146168270Y-87487263D01*
X146197722Y-87476725D01*
X146228065Y-87469125D01*
X146259007Y-87464535D01*
X146290250Y-87463000D01*
X146927750Y-87463000D01*
X146958993Y-87464535D01*
X146958993Y-87464535D01*
G37*
D24*
X146609000Y-88138000D03*
D18*
G36*
X145383993Y-87464535D02*
X145414935Y-87469125D01*
X145445278Y-87476725D01*
X145474730Y-87487263D01*
X145503008Y-87500638D01*
X145529838Y-87516719D01*
X145554963Y-87535353D01*
X145578140Y-87556360D01*
X145599147Y-87579537D01*
X145617781Y-87604662D01*
X145633862Y-87631492D01*
X145647237Y-87659770D01*
X145657775Y-87689222D01*
X145665375Y-87719565D01*
X145669965Y-87750507D01*
X145671500Y-87781750D01*
X145671500Y-88494250D01*
X145669965Y-88525493D01*
X145665375Y-88556435D01*
X145657775Y-88586778D01*
X145647237Y-88616230D01*
X145633862Y-88644508D01*
X145617781Y-88671338D01*
X145599147Y-88696463D01*
X145578140Y-88719640D01*
X145554963Y-88740647D01*
X145529838Y-88759281D01*
X145503008Y-88775362D01*
X145474730Y-88788737D01*
X145445278Y-88799275D01*
X145414935Y-88806875D01*
X145383993Y-88811465D01*
X145352750Y-88813000D01*
X144715250Y-88813000D01*
X144684007Y-88811465D01*
X144653065Y-88806875D01*
X144622722Y-88799275D01*
X144593270Y-88788737D01*
X144564992Y-88775362D01*
X144538162Y-88759281D01*
X144513037Y-88740647D01*
X144489860Y-88719640D01*
X144468853Y-88696463D01*
X144450219Y-88671338D01*
X144434138Y-88644508D01*
X144420763Y-88616230D01*
X144410225Y-88586778D01*
X144402625Y-88556435D01*
X144398035Y-88525493D01*
X144396500Y-88494250D01*
X144396500Y-87781750D01*
X144398035Y-87750507D01*
X144402625Y-87719565D01*
X144410225Y-87689222D01*
X144420763Y-87659770D01*
X144434138Y-87631492D01*
X144450219Y-87604662D01*
X144468853Y-87579537D01*
X144489860Y-87556360D01*
X144513037Y-87535353D01*
X144538162Y-87516719D01*
X144564992Y-87500638D01*
X144593270Y-87487263D01*
X144622722Y-87476725D01*
X144653065Y-87469125D01*
X144684007Y-87464535D01*
X144715250Y-87463000D01*
X145352750Y-87463000D01*
X145383993Y-87464535D01*
X145383993Y-87464535D01*
G37*
D24*
X145034000Y-88138000D03*
G04 #@! TD*
D25*
G04 #@! TO.C,J3*
X114554000Y-93218000D03*
X114554000Y-88138000D03*
X114554000Y-83058000D03*
X114554000Y-77978000D03*
X111244000Y-90678000D03*
X111244000Y-85598000D03*
X111244000Y-80518000D03*
G04 #@! TD*
D18*
G04 #@! TO.C,R2*
G36*
X137472692Y-73802561D02*
X137504151Y-73807227D01*
X137535000Y-73814954D01*
X137564944Y-73825669D01*
X137593694Y-73839266D01*
X137620972Y-73855616D01*
X137646517Y-73874561D01*
X137670081Y-73895919D01*
X137691439Y-73919483D01*
X137710384Y-73945028D01*
X137726734Y-73972306D01*
X137740331Y-74001056D01*
X137751046Y-74031000D01*
X137758773Y-74061849D01*
X137763439Y-74093308D01*
X137765000Y-74125073D01*
X137765000Y-75226927D01*
X137763439Y-75258692D01*
X137758773Y-75290151D01*
X137751046Y-75321000D01*
X137740331Y-75350944D01*
X137726734Y-75379694D01*
X137710384Y-75406972D01*
X137691439Y-75432517D01*
X137670081Y-75456081D01*
X137646517Y-75477439D01*
X137620972Y-75496384D01*
X137593694Y-75512734D01*
X137564944Y-75526331D01*
X137535000Y-75537046D01*
X137504151Y-75544773D01*
X137472692Y-75549439D01*
X137440927Y-75551000D01*
X134339073Y-75551000D01*
X134307308Y-75549439D01*
X134275849Y-75544773D01*
X134245000Y-75537046D01*
X134215056Y-75526331D01*
X134186306Y-75512734D01*
X134159028Y-75496384D01*
X134133483Y-75477439D01*
X134109919Y-75456081D01*
X134088561Y-75432517D01*
X134069616Y-75406972D01*
X134053266Y-75379694D01*
X134039669Y-75350944D01*
X134028954Y-75321000D01*
X134021227Y-75290151D01*
X134016561Y-75258692D01*
X134015000Y-75226927D01*
X134015000Y-74125073D01*
X134016561Y-74093308D01*
X134021227Y-74061849D01*
X134028954Y-74031000D01*
X134039669Y-74001056D01*
X134053266Y-73972306D01*
X134069616Y-73945028D01*
X134088561Y-73919483D01*
X134109919Y-73895919D01*
X134133483Y-73874561D01*
X134159028Y-73855616D01*
X134186306Y-73839266D01*
X134215056Y-73825669D01*
X134245000Y-73814954D01*
X134275849Y-73807227D01*
X134307308Y-73802561D01*
X134339073Y-73801000D01*
X137440927Y-73801000D01*
X137472692Y-73802561D01*
X137472692Y-73802561D01*
G37*
D26*
X135890000Y-74676000D03*
D18*
G36*
X137472692Y-68002561D02*
X137504151Y-68007227D01*
X137535000Y-68014954D01*
X137564944Y-68025669D01*
X137593694Y-68039266D01*
X137620972Y-68055616D01*
X137646517Y-68074561D01*
X137670081Y-68095919D01*
X137691439Y-68119483D01*
X137710384Y-68145028D01*
X137726734Y-68172306D01*
X137740331Y-68201056D01*
X137751046Y-68231000D01*
X137758773Y-68261849D01*
X137763439Y-68293308D01*
X137765000Y-68325073D01*
X137765000Y-69426927D01*
X137763439Y-69458692D01*
X137758773Y-69490151D01*
X137751046Y-69521000D01*
X137740331Y-69550944D01*
X137726734Y-69579694D01*
X137710384Y-69606972D01*
X137691439Y-69632517D01*
X137670081Y-69656081D01*
X137646517Y-69677439D01*
X137620972Y-69696384D01*
X137593694Y-69712734D01*
X137564944Y-69726331D01*
X137535000Y-69737046D01*
X137504151Y-69744773D01*
X137472692Y-69749439D01*
X137440927Y-69751000D01*
X134339073Y-69751000D01*
X134307308Y-69749439D01*
X134275849Y-69744773D01*
X134245000Y-69737046D01*
X134215056Y-69726331D01*
X134186306Y-69712734D01*
X134159028Y-69696384D01*
X134133483Y-69677439D01*
X134109919Y-69656081D01*
X134088561Y-69632517D01*
X134069616Y-69606972D01*
X134053266Y-69579694D01*
X134039669Y-69550944D01*
X134028954Y-69521000D01*
X134021227Y-69490151D01*
X134016561Y-69458692D01*
X134015000Y-69426927D01*
X134015000Y-68325073D01*
X134016561Y-68293308D01*
X134021227Y-68261849D01*
X134028954Y-68231000D01*
X134039669Y-68201056D01*
X134053266Y-68172306D01*
X134069616Y-68145028D01*
X134088561Y-68119483D01*
X134109919Y-68095919D01*
X134133483Y-68074561D01*
X134159028Y-68055616D01*
X134186306Y-68039266D01*
X134215056Y-68025669D01*
X134245000Y-68014954D01*
X134275849Y-68007227D01*
X134307308Y-68002561D01*
X134339073Y-68001000D01*
X137440927Y-68001000D01*
X137472692Y-68002561D01*
X137472692Y-68002561D01*
G37*
D26*
X135890000Y-68876000D03*
G04 #@! TD*
D21*
G04 #@! TO.C,REF\002A\002A*
X102108000Y-108458000D03*
G04 #@! TD*
G04 #@! TO.C,REF\002A\002A*
X158750000Y-64262000D03*
G04 #@! TD*
D27*
G04 #@! TO.C,J1*
X101600000Y-92202000D03*
D28*
X101600000Y-88392000D03*
X101600000Y-84582000D03*
X101600000Y-80772000D03*
X101600000Y-76962000D03*
X101600000Y-73152000D03*
G04 #@! TD*
D18*
G04 #@! TO.C,R3*
G36*
X133408692Y-97678561D02*
X133440151Y-97683227D01*
X133471000Y-97690954D01*
X133500944Y-97701669D01*
X133529694Y-97715266D01*
X133556972Y-97731616D01*
X133582517Y-97750561D01*
X133606081Y-97771919D01*
X133627439Y-97795483D01*
X133646384Y-97821028D01*
X133662734Y-97848306D01*
X133676331Y-97877056D01*
X133687046Y-97907000D01*
X133694773Y-97937849D01*
X133699439Y-97969308D01*
X133701000Y-98001073D01*
X133701000Y-99102927D01*
X133699439Y-99134692D01*
X133694773Y-99166151D01*
X133687046Y-99197000D01*
X133676331Y-99226944D01*
X133662734Y-99255694D01*
X133646384Y-99282972D01*
X133627439Y-99308517D01*
X133606081Y-99332081D01*
X133582517Y-99353439D01*
X133556972Y-99372384D01*
X133529694Y-99388734D01*
X133500944Y-99402331D01*
X133471000Y-99413046D01*
X133440151Y-99420773D01*
X133408692Y-99425439D01*
X133376927Y-99427000D01*
X130275073Y-99427000D01*
X130243308Y-99425439D01*
X130211849Y-99420773D01*
X130181000Y-99413046D01*
X130151056Y-99402331D01*
X130122306Y-99388734D01*
X130095028Y-99372384D01*
X130069483Y-99353439D01*
X130045919Y-99332081D01*
X130024561Y-99308517D01*
X130005616Y-99282972D01*
X129989266Y-99255694D01*
X129975669Y-99226944D01*
X129964954Y-99197000D01*
X129957227Y-99166151D01*
X129952561Y-99134692D01*
X129951000Y-99102927D01*
X129951000Y-98001073D01*
X129952561Y-97969308D01*
X129957227Y-97937849D01*
X129964954Y-97907000D01*
X129975669Y-97877056D01*
X129989266Y-97848306D01*
X130005616Y-97821028D01*
X130024561Y-97795483D01*
X130045919Y-97771919D01*
X130069483Y-97750561D01*
X130095028Y-97731616D01*
X130122306Y-97715266D01*
X130151056Y-97701669D01*
X130181000Y-97690954D01*
X130211849Y-97683227D01*
X130243308Y-97678561D01*
X130275073Y-97677000D01*
X133376927Y-97677000D01*
X133408692Y-97678561D01*
X133408692Y-97678561D01*
G37*
D26*
X131826000Y-98552000D03*
D18*
G36*
X133408692Y-103478561D02*
X133440151Y-103483227D01*
X133471000Y-103490954D01*
X133500944Y-103501669D01*
X133529694Y-103515266D01*
X133556972Y-103531616D01*
X133582517Y-103550561D01*
X133606081Y-103571919D01*
X133627439Y-103595483D01*
X133646384Y-103621028D01*
X133662734Y-103648306D01*
X133676331Y-103677056D01*
X133687046Y-103707000D01*
X133694773Y-103737849D01*
X133699439Y-103769308D01*
X133701000Y-103801073D01*
X133701000Y-104902927D01*
X133699439Y-104934692D01*
X133694773Y-104966151D01*
X133687046Y-104997000D01*
X133676331Y-105026944D01*
X133662734Y-105055694D01*
X133646384Y-105082972D01*
X133627439Y-105108517D01*
X133606081Y-105132081D01*
X133582517Y-105153439D01*
X133556972Y-105172384D01*
X133529694Y-105188734D01*
X133500944Y-105202331D01*
X133471000Y-105213046D01*
X133440151Y-105220773D01*
X133408692Y-105225439D01*
X133376927Y-105227000D01*
X130275073Y-105227000D01*
X130243308Y-105225439D01*
X130211849Y-105220773D01*
X130181000Y-105213046D01*
X130151056Y-105202331D01*
X130122306Y-105188734D01*
X130095028Y-105172384D01*
X130069483Y-105153439D01*
X130045919Y-105132081D01*
X130024561Y-105108517D01*
X130005616Y-105082972D01*
X129989266Y-105055694D01*
X129975669Y-105026944D01*
X129964954Y-104997000D01*
X129957227Y-104966151D01*
X129952561Y-104934692D01*
X129951000Y-104902927D01*
X129951000Y-103801073D01*
X129952561Y-103769308D01*
X129957227Y-103737849D01*
X129964954Y-103707000D01*
X129975669Y-103677056D01*
X129989266Y-103648306D01*
X130005616Y-103621028D01*
X130024561Y-103595483D01*
X130045919Y-103571919D01*
X130069483Y-103550561D01*
X130095028Y-103531616D01*
X130122306Y-103515266D01*
X130151056Y-103501669D01*
X130181000Y-103490954D01*
X130211849Y-103483227D01*
X130243308Y-103478561D01*
X130275073Y-103477000D01*
X133376927Y-103477000D01*
X133408692Y-103478561D01*
X133408692Y-103478561D01*
G37*
D26*
X131826000Y-104352000D03*
G04 #@! TD*
D18*
G04 #@! TO.C,R1*
G36*
X133408692Y-68002561D02*
X133440151Y-68007227D01*
X133471000Y-68014954D01*
X133500944Y-68025669D01*
X133529694Y-68039266D01*
X133556972Y-68055616D01*
X133582517Y-68074561D01*
X133606081Y-68095919D01*
X133627439Y-68119483D01*
X133646384Y-68145028D01*
X133662734Y-68172306D01*
X133676331Y-68201056D01*
X133687046Y-68231000D01*
X133694773Y-68261849D01*
X133699439Y-68293308D01*
X133701000Y-68325073D01*
X133701000Y-69426927D01*
X133699439Y-69458692D01*
X133694773Y-69490151D01*
X133687046Y-69521000D01*
X133676331Y-69550944D01*
X133662734Y-69579694D01*
X133646384Y-69606972D01*
X133627439Y-69632517D01*
X133606081Y-69656081D01*
X133582517Y-69677439D01*
X133556972Y-69696384D01*
X133529694Y-69712734D01*
X133500944Y-69726331D01*
X133471000Y-69737046D01*
X133440151Y-69744773D01*
X133408692Y-69749439D01*
X133376927Y-69751000D01*
X130275073Y-69751000D01*
X130243308Y-69749439D01*
X130211849Y-69744773D01*
X130181000Y-69737046D01*
X130151056Y-69726331D01*
X130122306Y-69712734D01*
X130095028Y-69696384D01*
X130069483Y-69677439D01*
X130045919Y-69656081D01*
X130024561Y-69632517D01*
X130005616Y-69606972D01*
X129989266Y-69579694D01*
X129975669Y-69550944D01*
X129964954Y-69521000D01*
X129957227Y-69490151D01*
X129952561Y-69458692D01*
X129951000Y-69426927D01*
X129951000Y-68325073D01*
X129952561Y-68293308D01*
X129957227Y-68261849D01*
X129964954Y-68231000D01*
X129975669Y-68201056D01*
X129989266Y-68172306D01*
X130005616Y-68145028D01*
X130024561Y-68119483D01*
X130045919Y-68095919D01*
X130069483Y-68074561D01*
X130095028Y-68055616D01*
X130122306Y-68039266D01*
X130151056Y-68025669D01*
X130181000Y-68014954D01*
X130211849Y-68007227D01*
X130243308Y-68002561D01*
X130275073Y-68001000D01*
X133376927Y-68001000D01*
X133408692Y-68002561D01*
X133408692Y-68002561D01*
G37*
D26*
X131826000Y-68876000D03*
D18*
G36*
X133408692Y-73802561D02*
X133440151Y-73807227D01*
X133471000Y-73814954D01*
X133500944Y-73825669D01*
X133529694Y-73839266D01*
X133556972Y-73855616D01*
X133582517Y-73874561D01*
X133606081Y-73895919D01*
X133627439Y-73919483D01*
X133646384Y-73945028D01*
X133662734Y-73972306D01*
X133676331Y-74001056D01*
X133687046Y-74031000D01*
X133694773Y-74061849D01*
X133699439Y-74093308D01*
X133701000Y-74125073D01*
X133701000Y-75226927D01*
X133699439Y-75258692D01*
X133694773Y-75290151D01*
X133687046Y-75321000D01*
X133676331Y-75350944D01*
X133662734Y-75379694D01*
X133646384Y-75406972D01*
X133627439Y-75432517D01*
X133606081Y-75456081D01*
X133582517Y-75477439D01*
X133556972Y-75496384D01*
X133529694Y-75512734D01*
X133500944Y-75526331D01*
X133471000Y-75537046D01*
X133440151Y-75544773D01*
X133408692Y-75549439D01*
X133376927Y-75551000D01*
X130275073Y-75551000D01*
X130243308Y-75549439D01*
X130211849Y-75544773D01*
X130181000Y-75537046D01*
X130151056Y-75526331D01*
X130122306Y-75512734D01*
X130095028Y-75496384D01*
X130069483Y-75477439D01*
X130045919Y-75456081D01*
X130024561Y-75432517D01*
X130005616Y-75406972D01*
X129989266Y-75379694D01*
X129975669Y-75350944D01*
X129964954Y-75321000D01*
X129957227Y-75290151D01*
X129952561Y-75258692D01*
X129951000Y-75226927D01*
X129951000Y-74125073D01*
X129952561Y-74093308D01*
X129957227Y-74061849D01*
X129964954Y-74031000D01*
X129975669Y-74001056D01*
X129989266Y-73972306D01*
X130005616Y-73945028D01*
X130024561Y-73919483D01*
X130045919Y-73895919D01*
X130069483Y-73874561D01*
X130095028Y-73855616D01*
X130122306Y-73839266D01*
X130151056Y-73825669D01*
X130181000Y-73814954D01*
X130211849Y-73807227D01*
X130243308Y-73802561D01*
X130275073Y-73801000D01*
X133376927Y-73801000D01*
X133408692Y-73802561D01*
X133408692Y-73802561D01*
G37*
D26*
X131826000Y-74676000D03*
G04 #@! TD*
D22*
G04 #@! TO.C,J2*
X107696000Y-69850000D03*
D23*
X110236000Y-69850000D03*
X112776000Y-69850000D03*
X115316000Y-69850000D03*
G04 #@! TD*
D18*
G04 #@! TO.C,C6*
G36*
X123664443Y-84191655D02*
X123697812Y-84196605D01*
X123730535Y-84204802D01*
X123762297Y-84216166D01*
X123792793Y-84230590D01*
X123821727Y-84247932D01*
X123848823Y-84268028D01*
X123873818Y-84290682D01*
X123896472Y-84315677D01*
X123916568Y-84342773D01*
X123933910Y-84371707D01*
X123948334Y-84402203D01*
X123959698Y-84433965D01*
X123967895Y-84466688D01*
X123972845Y-84500057D01*
X123974500Y-84533750D01*
X123974500Y-85646250D01*
X123972845Y-85679943D01*
X123967895Y-85713312D01*
X123959698Y-85746035D01*
X123948334Y-85777797D01*
X123933910Y-85808293D01*
X123916568Y-85837227D01*
X123896472Y-85864323D01*
X123873818Y-85889318D01*
X123848823Y-85911972D01*
X123821727Y-85932068D01*
X123792793Y-85949410D01*
X123762297Y-85963834D01*
X123730535Y-85975198D01*
X123697812Y-85983395D01*
X123664443Y-85988345D01*
X123630750Y-85990000D01*
X122943250Y-85990000D01*
X122909557Y-85988345D01*
X122876188Y-85983395D01*
X122843465Y-85975198D01*
X122811703Y-85963834D01*
X122781207Y-85949410D01*
X122752273Y-85932068D01*
X122725177Y-85911972D01*
X122700182Y-85889318D01*
X122677528Y-85864323D01*
X122657432Y-85837227D01*
X122640090Y-85808293D01*
X122625666Y-85777797D01*
X122614302Y-85746035D01*
X122606105Y-85713312D01*
X122601155Y-85679943D01*
X122599500Y-85646250D01*
X122599500Y-84533750D01*
X122601155Y-84500057D01*
X122606105Y-84466688D01*
X122614302Y-84433965D01*
X122625666Y-84402203D01*
X122640090Y-84371707D01*
X122657432Y-84342773D01*
X122677528Y-84315677D01*
X122700182Y-84290682D01*
X122725177Y-84268028D01*
X122752273Y-84247932D01*
X122781207Y-84230590D01*
X122811703Y-84216166D01*
X122843465Y-84204802D01*
X122876188Y-84196605D01*
X122909557Y-84191655D01*
X122943250Y-84190000D01*
X123630750Y-84190000D01*
X123664443Y-84191655D01*
X123664443Y-84191655D01*
G37*
D29*
X123287000Y-85090000D03*
D18*
G36*
X121789443Y-84191655D02*
X121822812Y-84196605D01*
X121855535Y-84204802D01*
X121887297Y-84216166D01*
X121917793Y-84230590D01*
X121946727Y-84247932D01*
X121973823Y-84268028D01*
X121998818Y-84290682D01*
X122021472Y-84315677D01*
X122041568Y-84342773D01*
X122058910Y-84371707D01*
X122073334Y-84402203D01*
X122084698Y-84433965D01*
X122092895Y-84466688D01*
X122097845Y-84500057D01*
X122099500Y-84533750D01*
X122099500Y-85646250D01*
X122097845Y-85679943D01*
X122092895Y-85713312D01*
X122084698Y-85746035D01*
X122073334Y-85777797D01*
X122058910Y-85808293D01*
X122041568Y-85837227D01*
X122021472Y-85864323D01*
X121998818Y-85889318D01*
X121973823Y-85911972D01*
X121946727Y-85932068D01*
X121917793Y-85949410D01*
X121887297Y-85963834D01*
X121855535Y-85975198D01*
X121822812Y-85983395D01*
X121789443Y-85988345D01*
X121755750Y-85990000D01*
X121068250Y-85990000D01*
X121034557Y-85988345D01*
X121001188Y-85983395D01*
X120968465Y-85975198D01*
X120936703Y-85963834D01*
X120906207Y-85949410D01*
X120877273Y-85932068D01*
X120850177Y-85911972D01*
X120825182Y-85889318D01*
X120802528Y-85864323D01*
X120782432Y-85837227D01*
X120765090Y-85808293D01*
X120750666Y-85777797D01*
X120739302Y-85746035D01*
X120731105Y-85713312D01*
X120726155Y-85679943D01*
X120724500Y-85646250D01*
X120724500Y-84533750D01*
X120726155Y-84500057D01*
X120731105Y-84466688D01*
X120739302Y-84433965D01*
X120750666Y-84402203D01*
X120765090Y-84371707D01*
X120782432Y-84342773D01*
X120802528Y-84315677D01*
X120825182Y-84290682D01*
X120850177Y-84268028D01*
X120877273Y-84247932D01*
X120906207Y-84230590D01*
X120936703Y-84216166D01*
X120968465Y-84204802D01*
X121001188Y-84196605D01*
X121034557Y-84191655D01*
X121068250Y-84190000D01*
X121755750Y-84190000D01*
X121789443Y-84191655D01*
X121789443Y-84191655D01*
G37*
D29*
X121412000Y-85090000D03*
G04 #@! TD*
D30*
G04 #@! TO.C,C8*
X147574000Y-100450000D03*
D31*
X147574000Y-107950000D03*
G04 #@! TD*
D18*
G04 #@! TO.C,C3*
G36*
X145314443Y-92827655D02*
X145347812Y-92832605D01*
X145380535Y-92840802D01*
X145412297Y-92852166D01*
X145442793Y-92866590D01*
X145471727Y-92883932D01*
X145498823Y-92904028D01*
X145523818Y-92926682D01*
X145546472Y-92951677D01*
X145566568Y-92978773D01*
X145583910Y-93007707D01*
X145598334Y-93038203D01*
X145609698Y-93069965D01*
X145617895Y-93102688D01*
X145622845Y-93136057D01*
X145624500Y-93169750D01*
X145624500Y-94282250D01*
X145622845Y-94315943D01*
X145617895Y-94349312D01*
X145609698Y-94382035D01*
X145598334Y-94413797D01*
X145583910Y-94444293D01*
X145566568Y-94473227D01*
X145546472Y-94500323D01*
X145523818Y-94525318D01*
X145498823Y-94547972D01*
X145471727Y-94568068D01*
X145442793Y-94585410D01*
X145412297Y-94599834D01*
X145380535Y-94611198D01*
X145347812Y-94619395D01*
X145314443Y-94624345D01*
X145280750Y-94626000D01*
X144593250Y-94626000D01*
X144559557Y-94624345D01*
X144526188Y-94619395D01*
X144493465Y-94611198D01*
X144461703Y-94599834D01*
X144431207Y-94585410D01*
X144402273Y-94568068D01*
X144375177Y-94547972D01*
X144350182Y-94525318D01*
X144327528Y-94500323D01*
X144307432Y-94473227D01*
X144290090Y-94444293D01*
X144275666Y-94413797D01*
X144264302Y-94382035D01*
X144256105Y-94349312D01*
X144251155Y-94315943D01*
X144249500Y-94282250D01*
X144249500Y-93169750D01*
X144251155Y-93136057D01*
X144256105Y-93102688D01*
X144264302Y-93069965D01*
X144275666Y-93038203D01*
X144290090Y-93007707D01*
X144307432Y-92978773D01*
X144327528Y-92951677D01*
X144350182Y-92926682D01*
X144375177Y-92904028D01*
X144402273Y-92883932D01*
X144431207Y-92866590D01*
X144461703Y-92852166D01*
X144493465Y-92840802D01*
X144526188Y-92832605D01*
X144559557Y-92827655D01*
X144593250Y-92826000D01*
X145280750Y-92826000D01*
X145314443Y-92827655D01*
X145314443Y-92827655D01*
G37*
D29*
X144937000Y-93726000D03*
D18*
G36*
X147189443Y-92827655D02*
X147222812Y-92832605D01*
X147255535Y-92840802D01*
X147287297Y-92852166D01*
X147317793Y-92866590D01*
X147346727Y-92883932D01*
X147373823Y-92904028D01*
X147398818Y-92926682D01*
X147421472Y-92951677D01*
X147441568Y-92978773D01*
X147458910Y-93007707D01*
X147473334Y-93038203D01*
X147484698Y-93069965D01*
X147492895Y-93102688D01*
X147497845Y-93136057D01*
X147499500Y-93169750D01*
X147499500Y-94282250D01*
X147497845Y-94315943D01*
X147492895Y-94349312D01*
X147484698Y-94382035D01*
X147473334Y-94413797D01*
X147458910Y-94444293D01*
X147441568Y-94473227D01*
X147421472Y-94500323D01*
X147398818Y-94525318D01*
X147373823Y-94547972D01*
X147346727Y-94568068D01*
X147317793Y-94585410D01*
X147287297Y-94599834D01*
X147255535Y-94611198D01*
X147222812Y-94619395D01*
X147189443Y-94624345D01*
X147155750Y-94626000D01*
X146468250Y-94626000D01*
X146434557Y-94624345D01*
X146401188Y-94619395D01*
X146368465Y-94611198D01*
X146336703Y-94599834D01*
X146306207Y-94585410D01*
X146277273Y-94568068D01*
X146250177Y-94547972D01*
X146225182Y-94525318D01*
X146202528Y-94500323D01*
X146182432Y-94473227D01*
X146165090Y-94444293D01*
X146150666Y-94413797D01*
X146139302Y-94382035D01*
X146131105Y-94349312D01*
X146126155Y-94315943D01*
X146124500Y-94282250D01*
X146124500Y-93169750D01*
X146126155Y-93136057D01*
X146131105Y-93102688D01*
X146139302Y-93069965D01*
X146150666Y-93038203D01*
X146165090Y-93007707D01*
X146182432Y-92978773D01*
X146202528Y-92951677D01*
X146225182Y-92926682D01*
X146250177Y-92904028D01*
X146277273Y-92883932D01*
X146306207Y-92866590D01*
X146336703Y-92852166D01*
X146368465Y-92840802D01*
X146401188Y-92832605D01*
X146434557Y-92827655D01*
X146468250Y-92826000D01*
X147155750Y-92826000D01*
X147189443Y-92827655D01*
X147189443Y-92827655D01*
G37*
D29*
X146812000Y-93726000D03*
G04 #@! TD*
D18*
G04 #@! TO.C,C2*
G36*
X147032443Y-78857655D02*
X147065812Y-78862605D01*
X147098535Y-78870802D01*
X147130297Y-78882166D01*
X147160793Y-78896590D01*
X147189727Y-78913932D01*
X147216823Y-78934028D01*
X147241818Y-78956682D01*
X147264472Y-78981677D01*
X147284568Y-79008773D01*
X147301910Y-79037707D01*
X147316334Y-79068203D01*
X147327698Y-79099965D01*
X147335895Y-79132688D01*
X147340845Y-79166057D01*
X147342500Y-79199750D01*
X147342500Y-80312250D01*
X147340845Y-80345943D01*
X147335895Y-80379312D01*
X147327698Y-80412035D01*
X147316334Y-80443797D01*
X147301910Y-80474293D01*
X147284568Y-80503227D01*
X147264472Y-80530323D01*
X147241818Y-80555318D01*
X147216823Y-80577972D01*
X147189727Y-80598068D01*
X147160793Y-80615410D01*
X147130297Y-80629834D01*
X147098535Y-80641198D01*
X147065812Y-80649395D01*
X147032443Y-80654345D01*
X146998750Y-80656000D01*
X146311250Y-80656000D01*
X146277557Y-80654345D01*
X146244188Y-80649395D01*
X146211465Y-80641198D01*
X146179703Y-80629834D01*
X146149207Y-80615410D01*
X146120273Y-80598068D01*
X146093177Y-80577972D01*
X146068182Y-80555318D01*
X146045528Y-80530323D01*
X146025432Y-80503227D01*
X146008090Y-80474293D01*
X145993666Y-80443797D01*
X145982302Y-80412035D01*
X145974105Y-80379312D01*
X145969155Y-80345943D01*
X145967500Y-80312250D01*
X145967500Y-79199750D01*
X145969155Y-79166057D01*
X145974105Y-79132688D01*
X145982302Y-79099965D01*
X145993666Y-79068203D01*
X146008090Y-79037707D01*
X146025432Y-79008773D01*
X146045528Y-78981677D01*
X146068182Y-78956682D01*
X146093177Y-78934028D01*
X146120273Y-78913932D01*
X146149207Y-78896590D01*
X146179703Y-78882166D01*
X146211465Y-78870802D01*
X146244188Y-78862605D01*
X146277557Y-78857655D01*
X146311250Y-78856000D01*
X146998750Y-78856000D01*
X147032443Y-78857655D01*
X147032443Y-78857655D01*
G37*
D29*
X146655000Y-79756000D03*
D18*
G36*
X145157443Y-78857655D02*
X145190812Y-78862605D01*
X145223535Y-78870802D01*
X145255297Y-78882166D01*
X145285793Y-78896590D01*
X145314727Y-78913932D01*
X145341823Y-78934028D01*
X145366818Y-78956682D01*
X145389472Y-78981677D01*
X145409568Y-79008773D01*
X145426910Y-79037707D01*
X145441334Y-79068203D01*
X145452698Y-79099965D01*
X145460895Y-79132688D01*
X145465845Y-79166057D01*
X145467500Y-79199750D01*
X145467500Y-80312250D01*
X145465845Y-80345943D01*
X145460895Y-80379312D01*
X145452698Y-80412035D01*
X145441334Y-80443797D01*
X145426910Y-80474293D01*
X145409568Y-80503227D01*
X145389472Y-80530323D01*
X145366818Y-80555318D01*
X145341823Y-80577972D01*
X145314727Y-80598068D01*
X145285793Y-80615410D01*
X145255297Y-80629834D01*
X145223535Y-80641198D01*
X145190812Y-80649395D01*
X145157443Y-80654345D01*
X145123750Y-80656000D01*
X144436250Y-80656000D01*
X144402557Y-80654345D01*
X144369188Y-80649395D01*
X144336465Y-80641198D01*
X144304703Y-80629834D01*
X144274207Y-80615410D01*
X144245273Y-80598068D01*
X144218177Y-80577972D01*
X144193182Y-80555318D01*
X144170528Y-80530323D01*
X144150432Y-80503227D01*
X144133090Y-80474293D01*
X144118666Y-80443797D01*
X144107302Y-80412035D01*
X144099105Y-80379312D01*
X144094155Y-80345943D01*
X144092500Y-80312250D01*
X144092500Y-79199750D01*
X144094155Y-79166057D01*
X144099105Y-79132688D01*
X144107302Y-79099965D01*
X144118666Y-79068203D01*
X144133090Y-79037707D01*
X144150432Y-79008773D01*
X144170528Y-78981677D01*
X144193182Y-78956682D01*
X144218177Y-78934028D01*
X144245273Y-78913932D01*
X144274207Y-78896590D01*
X144304703Y-78882166D01*
X144336465Y-78870802D01*
X144369188Y-78862605D01*
X144402557Y-78857655D01*
X144436250Y-78856000D01*
X145123750Y-78856000D01*
X145157443Y-78857655D01*
X145157443Y-78857655D01*
G37*
D29*
X144780000Y-79756000D03*
G04 #@! TD*
D31*
G04 #@! TO.C,C7*
X147574000Y-64770000D03*
D30*
X147574000Y-72270000D03*
G04 #@! TD*
D18*
G04 #@! TO.C,R4*
G36*
X137472692Y-103478561D02*
X137504151Y-103483227D01*
X137535000Y-103490954D01*
X137564944Y-103501669D01*
X137593694Y-103515266D01*
X137620972Y-103531616D01*
X137646517Y-103550561D01*
X137670081Y-103571919D01*
X137691439Y-103595483D01*
X137710384Y-103621028D01*
X137726734Y-103648306D01*
X137740331Y-103677056D01*
X137751046Y-103707000D01*
X137758773Y-103737849D01*
X137763439Y-103769308D01*
X137765000Y-103801073D01*
X137765000Y-104902927D01*
X137763439Y-104934692D01*
X137758773Y-104966151D01*
X137751046Y-104997000D01*
X137740331Y-105026944D01*
X137726734Y-105055694D01*
X137710384Y-105082972D01*
X137691439Y-105108517D01*
X137670081Y-105132081D01*
X137646517Y-105153439D01*
X137620972Y-105172384D01*
X137593694Y-105188734D01*
X137564944Y-105202331D01*
X137535000Y-105213046D01*
X137504151Y-105220773D01*
X137472692Y-105225439D01*
X137440927Y-105227000D01*
X134339073Y-105227000D01*
X134307308Y-105225439D01*
X134275849Y-105220773D01*
X134245000Y-105213046D01*
X134215056Y-105202331D01*
X134186306Y-105188734D01*
X134159028Y-105172384D01*
X134133483Y-105153439D01*
X134109919Y-105132081D01*
X134088561Y-105108517D01*
X134069616Y-105082972D01*
X134053266Y-105055694D01*
X134039669Y-105026944D01*
X134028954Y-104997000D01*
X134021227Y-104966151D01*
X134016561Y-104934692D01*
X134015000Y-104902927D01*
X134015000Y-103801073D01*
X134016561Y-103769308D01*
X134021227Y-103737849D01*
X134028954Y-103707000D01*
X134039669Y-103677056D01*
X134053266Y-103648306D01*
X134069616Y-103621028D01*
X134088561Y-103595483D01*
X134109919Y-103571919D01*
X134133483Y-103550561D01*
X134159028Y-103531616D01*
X134186306Y-103515266D01*
X134215056Y-103501669D01*
X134245000Y-103490954D01*
X134275849Y-103483227D01*
X134307308Y-103478561D01*
X134339073Y-103477000D01*
X137440927Y-103477000D01*
X137472692Y-103478561D01*
X137472692Y-103478561D01*
G37*
D26*
X135890000Y-104352000D03*
D18*
G36*
X137472692Y-97678561D02*
X137504151Y-97683227D01*
X137535000Y-97690954D01*
X137564944Y-97701669D01*
X137593694Y-97715266D01*
X137620972Y-97731616D01*
X137646517Y-97750561D01*
X137670081Y-97771919D01*
X137691439Y-97795483D01*
X137710384Y-97821028D01*
X137726734Y-97848306D01*
X137740331Y-97877056D01*
X137751046Y-97907000D01*
X137758773Y-97937849D01*
X137763439Y-97969308D01*
X137765000Y-98001073D01*
X137765000Y-99102927D01*
X137763439Y-99134692D01*
X137758773Y-99166151D01*
X137751046Y-99197000D01*
X137740331Y-99226944D01*
X137726734Y-99255694D01*
X137710384Y-99282972D01*
X137691439Y-99308517D01*
X137670081Y-99332081D01*
X137646517Y-99353439D01*
X137620972Y-99372384D01*
X137593694Y-99388734D01*
X137564944Y-99402331D01*
X137535000Y-99413046D01*
X137504151Y-99420773D01*
X137472692Y-99425439D01*
X137440927Y-99427000D01*
X134339073Y-99427000D01*
X134307308Y-99425439D01*
X134275849Y-99420773D01*
X134245000Y-99413046D01*
X134215056Y-99402331D01*
X134186306Y-99388734D01*
X134159028Y-99372384D01*
X134133483Y-99353439D01*
X134109919Y-99332081D01*
X134088561Y-99308517D01*
X134069616Y-99282972D01*
X134053266Y-99255694D01*
X134039669Y-99226944D01*
X134028954Y-99197000D01*
X134021227Y-99166151D01*
X134016561Y-99134692D01*
X134015000Y-99102927D01*
X134015000Y-98001073D01*
X134016561Y-97969308D01*
X134021227Y-97937849D01*
X134028954Y-97907000D01*
X134039669Y-97877056D01*
X134053266Y-97848306D01*
X134069616Y-97821028D01*
X134088561Y-97795483D01*
X134109919Y-97771919D01*
X134133483Y-97750561D01*
X134159028Y-97731616D01*
X134186306Y-97715266D01*
X134215056Y-97701669D01*
X134245000Y-97690954D01*
X134275849Y-97683227D01*
X134307308Y-97678561D01*
X134339073Y-97677000D01*
X137440927Y-97677000D01*
X137472692Y-97678561D01*
X137472692Y-97678561D01*
G37*
D26*
X135890000Y-98552000D03*
G04 #@! TD*
D18*
G04 #@! TO.C,C1*
G36*
X128351943Y-71547155D02*
X128385312Y-71552105D01*
X128418035Y-71560302D01*
X128449797Y-71571666D01*
X128480293Y-71586090D01*
X128509227Y-71603432D01*
X128536323Y-71623528D01*
X128561318Y-71646182D01*
X128583972Y-71671177D01*
X128604068Y-71698273D01*
X128621410Y-71727207D01*
X128635834Y-71757703D01*
X128647198Y-71789465D01*
X128655395Y-71822188D01*
X128660345Y-71855557D01*
X128662000Y-71889250D01*
X128662000Y-72576750D01*
X128660345Y-72610443D01*
X128655395Y-72643812D01*
X128647198Y-72676535D01*
X128635834Y-72708297D01*
X128621410Y-72738793D01*
X128604068Y-72767727D01*
X128583972Y-72794823D01*
X128561318Y-72819818D01*
X128536323Y-72842472D01*
X128509227Y-72862568D01*
X128480293Y-72879910D01*
X128449797Y-72894334D01*
X128418035Y-72905698D01*
X128385312Y-72913895D01*
X128351943Y-72918845D01*
X128318250Y-72920500D01*
X127205750Y-72920500D01*
X127172057Y-72918845D01*
X127138688Y-72913895D01*
X127105965Y-72905698D01*
X127074203Y-72894334D01*
X127043707Y-72879910D01*
X127014773Y-72862568D01*
X126987677Y-72842472D01*
X126962682Y-72819818D01*
X126940028Y-72794823D01*
X126919932Y-72767727D01*
X126902590Y-72738793D01*
X126888166Y-72708297D01*
X126876802Y-72676535D01*
X126868605Y-72643812D01*
X126863655Y-72610443D01*
X126862000Y-72576750D01*
X126862000Y-71889250D01*
X126863655Y-71855557D01*
X126868605Y-71822188D01*
X126876802Y-71789465D01*
X126888166Y-71757703D01*
X126902590Y-71727207D01*
X126919932Y-71698273D01*
X126940028Y-71671177D01*
X126962682Y-71646182D01*
X126987677Y-71623528D01*
X127014773Y-71603432D01*
X127043707Y-71586090D01*
X127074203Y-71571666D01*
X127105965Y-71560302D01*
X127138688Y-71552105D01*
X127172057Y-71547155D01*
X127205750Y-71545500D01*
X128318250Y-71545500D01*
X128351943Y-71547155D01*
X128351943Y-71547155D01*
G37*
D29*
X127762000Y-72233000D03*
D18*
G36*
X128351943Y-69672155D02*
X128385312Y-69677105D01*
X128418035Y-69685302D01*
X128449797Y-69696666D01*
X128480293Y-69711090D01*
X128509227Y-69728432D01*
X128536323Y-69748528D01*
X128561318Y-69771182D01*
X128583972Y-69796177D01*
X128604068Y-69823273D01*
X128621410Y-69852207D01*
X128635834Y-69882703D01*
X128647198Y-69914465D01*
X128655395Y-69947188D01*
X128660345Y-69980557D01*
X128662000Y-70014250D01*
X128662000Y-70701750D01*
X128660345Y-70735443D01*
X128655395Y-70768812D01*
X128647198Y-70801535D01*
X128635834Y-70833297D01*
X128621410Y-70863793D01*
X128604068Y-70892727D01*
X128583972Y-70919823D01*
X128561318Y-70944818D01*
X128536323Y-70967472D01*
X128509227Y-70987568D01*
X128480293Y-71004910D01*
X128449797Y-71019334D01*
X128418035Y-71030698D01*
X128385312Y-71038895D01*
X128351943Y-71043845D01*
X128318250Y-71045500D01*
X127205750Y-71045500D01*
X127172057Y-71043845D01*
X127138688Y-71038895D01*
X127105965Y-71030698D01*
X127074203Y-71019334D01*
X127043707Y-71004910D01*
X127014773Y-70987568D01*
X126987677Y-70967472D01*
X126962682Y-70944818D01*
X126940028Y-70919823D01*
X126919932Y-70892727D01*
X126902590Y-70863793D01*
X126888166Y-70833297D01*
X126876802Y-70801535D01*
X126868605Y-70768812D01*
X126863655Y-70735443D01*
X126862000Y-70701750D01*
X126862000Y-70014250D01*
X126863655Y-69980557D01*
X126868605Y-69947188D01*
X126876802Y-69914465D01*
X126888166Y-69882703D01*
X126902590Y-69852207D01*
X126919932Y-69823273D01*
X126940028Y-69796177D01*
X126962682Y-69771182D01*
X126987677Y-69748528D01*
X127014773Y-69728432D01*
X127043707Y-69711090D01*
X127074203Y-69696666D01*
X127105965Y-69685302D01*
X127138688Y-69677105D01*
X127172057Y-69672155D01*
X127205750Y-69670500D01*
X128318250Y-69670500D01*
X128351943Y-69672155D01*
X128351943Y-69672155D01*
G37*
D29*
X127762000Y-70358000D03*
G04 #@! TD*
D18*
G04 #@! TO.C,C5*
G36*
X121347443Y-78603655D02*
X121380812Y-78608605D01*
X121413535Y-78616802D01*
X121445297Y-78628166D01*
X121475793Y-78642590D01*
X121504727Y-78659932D01*
X121531823Y-78680028D01*
X121556818Y-78702682D01*
X121579472Y-78727677D01*
X121599568Y-78754773D01*
X121616910Y-78783707D01*
X121631334Y-78814203D01*
X121642698Y-78845965D01*
X121650895Y-78878688D01*
X121655845Y-78912057D01*
X121657500Y-78945750D01*
X121657500Y-80058250D01*
X121655845Y-80091943D01*
X121650895Y-80125312D01*
X121642698Y-80158035D01*
X121631334Y-80189797D01*
X121616910Y-80220293D01*
X121599568Y-80249227D01*
X121579472Y-80276323D01*
X121556818Y-80301318D01*
X121531823Y-80323972D01*
X121504727Y-80344068D01*
X121475793Y-80361410D01*
X121445297Y-80375834D01*
X121413535Y-80387198D01*
X121380812Y-80395395D01*
X121347443Y-80400345D01*
X121313750Y-80402000D01*
X120626250Y-80402000D01*
X120592557Y-80400345D01*
X120559188Y-80395395D01*
X120526465Y-80387198D01*
X120494703Y-80375834D01*
X120464207Y-80361410D01*
X120435273Y-80344068D01*
X120408177Y-80323972D01*
X120383182Y-80301318D01*
X120360528Y-80276323D01*
X120340432Y-80249227D01*
X120323090Y-80220293D01*
X120308666Y-80189797D01*
X120297302Y-80158035D01*
X120289105Y-80125312D01*
X120284155Y-80091943D01*
X120282500Y-80058250D01*
X120282500Y-78945750D01*
X120284155Y-78912057D01*
X120289105Y-78878688D01*
X120297302Y-78845965D01*
X120308666Y-78814203D01*
X120323090Y-78783707D01*
X120340432Y-78754773D01*
X120360528Y-78727677D01*
X120383182Y-78702682D01*
X120408177Y-78680028D01*
X120435273Y-78659932D01*
X120464207Y-78642590D01*
X120494703Y-78628166D01*
X120526465Y-78616802D01*
X120559188Y-78608605D01*
X120592557Y-78603655D01*
X120626250Y-78602000D01*
X121313750Y-78602000D01*
X121347443Y-78603655D01*
X121347443Y-78603655D01*
G37*
D29*
X120970000Y-79502000D03*
D18*
G36*
X123222443Y-78603655D02*
X123255812Y-78608605D01*
X123288535Y-78616802D01*
X123320297Y-78628166D01*
X123350793Y-78642590D01*
X123379727Y-78659932D01*
X123406823Y-78680028D01*
X123431818Y-78702682D01*
X123454472Y-78727677D01*
X123474568Y-78754773D01*
X123491910Y-78783707D01*
X123506334Y-78814203D01*
X123517698Y-78845965D01*
X123525895Y-78878688D01*
X123530845Y-78912057D01*
X123532500Y-78945750D01*
X123532500Y-80058250D01*
X123530845Y-80091943D01*
X123525895Y-80125312D01*
X123517698Y-80158035D01*
X123506334Y-80189797D01*
X123491910Y-80220293D01*
X123474568Y-80249227D01*
X123454472Y-80276323D01*
X123431818Y-80301318D01*
X123406823Y-80323972D01*
X123379727Y-80344068D01*
X123350793Y-80361410D01*
X123320297Y-80375834D01*
X123288535Y-80387198D01*
X123255812Y-80395395D01*
X123222443Y-80400345D01*
X123188750Y-80402000D01*
X122501250Y-80402000D01*
X122467557Y-80400345D01*
X122434188Y-80395395D01*
X122401465Y-80387198D01*
X122369703Y-80375834D01*
X122339207Y-80361410D01*
X122310273Y-80344068D01*
X122283177Y-80323972D01*
X122258182Y-80301318D01*
X122235528Y-80276323D01*
X122215432Y-80249227D01*
X122198090Y-80220293D01*
X122183666Y-80189797D01*
X122172302Y-80158035D01*
X122164105Y-80125312D01*
X122159155Y-80091943D01*
X122157500Y-80058250D01*
X122157500Y-78945750D01*
X122159155Y-78912057D01*
X122164105Y-78878688D01*
X122172302Y-78845965D01*
X122183666Y-78814203D01*
X122198090Y-78783707D01*
X122215432Y-78754773D01*
X122235528Y-78727677D01*
X122258182Y-78702682D01*
X122283177Y-78680028D01*
X122310273Y-78659932D01*
X122339207Y-78642590D01*
X122369703Y-78628166D01*
X122401465Y-78616802D01*
X122434188Y-78608605D01*
X122467557Y-78603655D01*
X122501250Y-78602000D01*
X123188750Y-78602000D01*
X123222443Y-78603655D01*
X123222443Y-78603655D01*
G37*
D29*
X122845000Y-79502000D03*
G04 #@! TD*
D18*
G04 #@! TO.C,C4*
G36*
X128351943Y-102438155D02*
X128385312Y-102443105D01*
X128418035Y-102451302D01*
X128449797Y-102462666D01*
X128480293Y-102477090D01*
X128509227Y-102494432D01*
X128536323Y-102514528D01*
X128561318Y-102537182D01*
X128583972Y-102562177D01*
X128604068Y-102589273D01*
X128621410Y-102618207D01*
X128635834Y-102648703D01*
X128647198Y-102680465D01*
X128655395Y-102713188D01*
X128660345Y-102746557D01*
X128662000Y-102780250D01*
X128662000Y-103467750D01*
X128660345Y-103501443D01*
X128655395Y-103534812D01*
X128647198Y-103567535D01*
X128635834Y-103599297D01*
X128621410Y-103629793D01*
X128604068Y-103658727D01*
X128583972Y-103685823D01*
X128561318Y-103710818D01*
X128536323Y-103733472D01*
X128509227Y-103753568D01*
X128480293Y-103770910D01*
X128449797Y-103785334D01*
X128418035Y-103796698D01*
X128385312Y-103804895D01*
X128351943Y-103809845D01*
X128318250Y-103811500D01*
X127205750Y-103811500D01*
X127172057Y-103809845D01*
X127138688Y-103804895D01*
X127105965Y-103796698D01*
X127074203Y-103785334D01*
X127043707Y-103770910D01*
X127014773Y-103753568D01*
X126987677Y-103733472D01*
X126962682Y-103710818D01*
X126940028Y-103685823D01*
X126919932Y-103658727D01*
X126902590Y-103629793D01*
X126888166Y-103599297D01*
X126876802Y-103567535D01*
X126868605Y-103534812D01*
X126863655Y-103501443D01*
X126862000Y-103467750D01*
X126862000Y-102780250D01*
X126863655Y-102746557D01*
X126868605Y-102713188D01*
X126876802Y-102680465D01*
X126888166Y-102648703D01*
X126902590Y-102618207D01*
X126919932Y-102589273D01*
X126940028Y-102562177D01*
X126962682Y-102537182D01*
X126987677Y-102514528D01*
X127014773Y-102494432D01*
X127043707Y-102477090D01*
X127074203Y-102462666D01*
X127105965Y-102451302D01*
X127138688Y-102443105D01*
X127172057Y-102438155D01*
X127205750Y-102436500D01*
X128318250Y-102436500D01*
X128351943Y-102438155D01*
X128351943Y-102438155D01*
G37*
D29*
X127762000Y-103124000D03*
D18*
G36*
X128351943Y-100563155D02*
X128385312Y-100568105D01*
X128418035Y-100576302D01*
X128449797Y-100587666D01*
X128480293Y-100602090D01*
X128509227Y-100619432D01*
X128536323Y-100639528D01*
X128561318Y-100662182D01*
X128583972Y-100687177D01*
X128604068Y-100714273D01*
X128621410Y-100743207D01*
X128635834Y-100773703D01*
X128647198Y-100805465D01*
X128655395Y-100838188D01*
X128660345Y-100871557D01*
X128662000Y-100905250D01*
X128662000Y-101592750D01*
X128660345Y-101626443D01*
X128655395Y-101659812D01*
X128647198Y-101692535D01*
X128635834Y-101724297D01*
X128621410Y-101754793D01*
X128604068Y-101783727D01*
X128583972Y-101810823D01*
X128561318Y-101835818D01*
X128536323Y-101858472D01*
X128509227Y-101878568D01*
X128480293Y-101895910D01*
X128449797Y-101910334D01*
X128418035Y-101921698D01*
X128385312Y-101929895D01*
X128351943Y-101934845D01*
X128318250Y-101936500D01*
X127205750Y-101936500D01*
X127172057Y-101934845D01*
X127138688Y-101929895D01*
X127105965Y-101921698D01*
X127074203Y-101910334D01*
X127043707Y-101895910D01*
X127014773Y-101878568D01*
X126987677Y-101858472D01*
X126962682Y-101835818D01*
X126940028Y-101810823D01*
X126919932Y-101783727D01*
X126902590Y-101754793D01*
X126888166Y-101724297D01*
X126876802Y-101692535D01*
X126868605Y-101659812D01*
X126863655Y-101626443D01*
X126862000Y-101592750D01*
X126862000Y-100905250D01*
X126863655Y-100871557D01*
X126868605Y-100838188D01*
X126876802Y-100805465D01*
X126888166Y-100773703D01*
X126902590Y-100743207D01*
X126919932Y-100714273D01*
X126940028Y-100687177D01*
X126962682Y-100662182D01*
X126987677Y-100639528D01*
X127014773Y-100619432D01*
X127043707Y-100602090D01*
X127074203Y-100587666D01*
X127105965Y-100576302D01*
X127138688Y-100568105D01*
X127172057Y-100563155D01*
X127205750Y-100561500D01*
X128318250Y-100561500D01*
X128351943Y-100563155D01*
X128351943Y-100563155D01*
G37*
D29*
X127762000Y-101249000D03*
G04 #@! TD*
D18*
G04 #@! TO.C,C12*
G36*
X117735493Y-88010035D02*
X117766435Y-88014625D01*
X117796778Y-88022225D01*
X117826230Y-88032763D01*
X117854508Y-88046138D01*
X117881338Y-88062219D01*
X117906463Y-88080853D01*
X117929640Y-88101860D01*
X117950647Y-88125037D01*
X117969281Y-88150162D01*
X117985362Y-88176992D01*
X117998737Y-88205270D01*
X118009275Y-88234722D01*
X118016875Y-88265065D01*
X118021465Y-88296007D01*
X118023000Y-88327250D01*
X118023000Y-88964750D01*
X118021465Y-88995993D01*
X118016875Y-89026935D01*
X118009275Y-89057278D01*
X117998737Y-89086730D01*
X117985362Y-89115008D01*
X117969281Y-89141838D01*
X117950647Y-89166963D01*
X117929640Y-89190140D01*
X117906463Y-89211147D01*
X117881338Y-89229781D01*
X117854508Y-89245862D01*
X117826230Y-89259237D01*
X117796778Y-89269775D01*
X117766435Y-89277375D01*
X117735493Y-89281965D01*
X117704250Y-89283500D01*
X116991750Y-89283500D01*
X116960507Y-89281965D01*
X116929565Y-89277375D01*
X116899222Y-89269775D01*
X116869770Y-89259237D01*
X116841492Y-89245862D01*
X116814662Y-89229781D01*
X116789537Y-89211147D01*
X116766360Y-89190140D01*
X116745353Y-89166963D01*
X116726719Y-89141838D01*
X116710638Y-89115008D01*
X116697263Y-89086730D01*
X116686725Y-89057278D01*
X116679125Y-89026935D01*
X116674535Y-88995993D01*
X116673000Y-88964750D01*
X116673000Y-88327250D01*
X116674535Y-88296007D01*
X116679125Y-88265065D01*
X116686725Y-88234722D01*
X116697263Y-88205270D01*
X116710638Y-88176992D01*
X116726719Y-88150162D01*
X116745353Y-88125037D01*
X116766360Y-88101860D01*
X116789537Y-88080853D01*
X116814662Y-88062219D01*
X116841492Y-88046138D01*
X116869770Y-88032763D01*
X116899222Y-88022225D01*
X116929565Y-88014625D01*
X116960507Y-88010035D01*
X116991750Y-88008500D01*
X117704250Y-88008500D01*
X117735493Y-88010035D01*
X117735493Y-88010035D01*
G37*
D24*
X117348000Y-88646000D03*
D18*
G36*
X117735493Y-86435035D02*
X117766435Y-86439625D01*
X117796778Y-86447225D01*
X117826230Y-86457763D01*
X117854508Y-86471138D01*
X117881338Y-86487219D01*
X117906463Y-86505853D01*
X117929640Y-86526860D01*
X117950647Y-86550037D01*
X117969281Y-86575162D01*
X117985362Y-86601992D01*
X117998737Y-86630270D01*
X118009275Y-86659722D01*
X118016875Y-86690065D01*
X118021465Y-86721007D01*
X118023000Y-86752250D01*
X118023000Y-87389750D01*
X118021465Y-87420993D01*
X118016875Y-87451935D01*
X118009275Y-87482278D01*
X117998737Y-87511730D01*
X117985362Y-87540008D01*
X117969281Y-87566838D01*
X117950647Y-87591963D01*
X117929640Y-87615140D01*
X117906463Y-87636147D01*
X117881338Y-87654781D01*
X117854508Y-87670862D01*
X117826230Y-87684237D01*
X117796778Y-87694775D01*
X117766435Y-87702375D01*
X117735493Y-87706965D01*
X117704250Y-87708500D01*
X116991750Y-87708500D01*
X116960507Y-87706965D01*
X116929565Y-87702375D01*
X116899222Y-87694775D01*
X116869770Y-87684237D01*
X116841492Y-87670862D01*
X116814662Y-87654781D01*
X116789537Y-87636147D01*
X116766360Y-87615140D01*
X116745353Y-87591963D01*
X116726719Y-87566838D01*
X116710638Y-87540008D01*
X116697263Y-87511730D01*
X116686725Y-87482278D01*
X116679125Y-87451935D01*
X116674535Y-87420993D01*
X116673000Y-87389750D01*
X116673000Y-86752250D01*
X116674535Y-86721007D01*
X116679125Y-86690065D01*
X116686725Y-86659722D01*
X116697263Y-86630270D01*
X116710638Y-86601992D01*
X116726719Y-86575162D01*
X116745353Y-86550037D01*
X116766360Y-86526860D01*
X116789537Y-86505853D01*
X116814662Y-86487219D01*
X116841492Y-86471138D01*
X116869770Y-86457763D01*
X116899222Y-86447225D01*
X116929565Y-86439625D01*
X116960507Y-86435035D01*
X116991750Y-86433500D01*
X117704250Y-86433500D01*
X117735493Y-86435035D01*
X117735493Y-86435035D01*
G37*
D24*
X117348000Y-87071000D03*
G04 #@! TD*
D21*
G04 #@! TO.C,REF\002A\002A*
X102108000Y-64262000D03*
G04 #@! TD*
D18*
G04 #@! TO.C,C14*
G36*
X121681346Y-90108589D02*
X121713380Y-90113341D01*
X121744794Y-90121210D01*
X121775286Y-90132120D01*
X121804561Y-90145966D01*
X121832338Y-90162615D01*
X121858350Y-90181907D01*
X121882345Y-90203655D01*
X121904093Y-90227650D01*
X121923385Y-90253662D01*
X121940034Y-90281439D01*
X121953880Y-90310714D01*
X121964790Y-90341206D01*
X121972659Y-90372620D01*
X121977411Y-90404654D01*
X121979000Y-90437000D01*
X121979000Y-91427000D01*
X121977411Y-91459346D01*
X121972659Y-91491380D01*
X121964790Y-91522794D01*
X121953880Y-91553286D01*
X121940034Y-91582561D01*
X121923385Y-91610338D01*
X121904093Y-91636350D01*
X121882345Y-91660345D01*
X121858350Y-91682093D01*
X121832338Y-91701385D01*
X121804561Y-91718034D01*
X121775286Y-91731880D01*
X121744794Y-91742790D01*
X121713380Y-91750659D01*
X121681346Y-91755411D01*
X121649000Y-91757000D01*
X120159000Y-91757000D01*
X120126654Y-91755411D01*
X120094620Y-91750659D01*
X120063206Y-91742790D01*
X120032714Y-91731880D01*
X120003439Y-91718034D01*
X119975662Y-91701385D01*
X119949650Y-91682093D01*
X119925655Y-91660345D01*
X119903907Y-91636350D01*
X119884615Y-91610338D01*
X119867966Y-91582561D01*
X119854120Y-91553286D01*
X119843210Y-91522794D01*
X119835341Y-91491380D01*
X119830589Y-91459346D01*
X119829000Y-91427000D01*
X119829000Y-90437000D01*
X119830589Y-90404654D01*
X119835341Y-90372620D01*
X119843210Y-90341206D01*
X119854120Y-90310714D01*
X119867966Y-90281439D01*
X119884615Y-90253662D01*
X119903907Y-90227650D01*
X119925655Y-90203655D01*
X119949650Y-90181907D01*
X119975662Y-90162615D01*
X120003439Y-90145966D01*
X120032714Y-90132120D01*
X120063206Y-90121210D01*
X120094620Y-90113341D01*
X120126654Y-90108589D01*
X120159000Y-90107000D01*
X121649000Y-90107000D01*
X121681346Y-90108589D01*
X121681346Y-90108589D01*
G37*
D19*
X120904000Y-90932000D03*
D18*
G36*
X121681346Y-87308589D02*
X121713380Y-87313341D01*
X121744794Y-87321210D01*
X121775286Y-87332120D01*
X121804561Y-87345966D01*
X121832338Y-87362615D01*
X121858350Y-87381907D01*
X121882345Y-87403655D01*
X121904093Y-87427650D01*
X121923385Y-87453662D01*
X121940034Y-87481439D01*
X121953880Y-87510714D01*
X121964790Y-87541206D01*
X121972659Y-87572620D01*
X121977411Y-87604654D01*
X121979000Y-87637000D01*
X121979000Y-88627000D01*
X121977411Y-88659346D01*
X121972659Y-88691380D01*
X121964790Y-88722794D01*
X121953880Y-88753286D01*
X121940034Y-88782561D01*
X121923385Y-88810338D01*
X121904093Y-88836350D01*
X121882345Y-88860345D01*
X121858350Y-88882093D01*
X121832338Y-88901385D01*
X121804561Y-88918034D01*
X121775286Y-88931880D01*
X121744794Y-88942790D01*
X121713380Y-88950659D01*
X121681346Y-88955411D01*
X121649000Y-88957000D01*
X120159000Y-88957000D01*
X120126654Y-88955411D01*
X120094620Y-88950659D01*
X120063206Y-88942790D01*
X120032714Y-88931880D01*
X120003439Y-88918034D01*
X119975662Y-88901385D01*
X119949650Y-88882093D01*
X119925655Y-88860345D01*
X119903907Y-88836350D01*
X119884615Y-88810338D01*
X119867966Y-88782561D01*
X119854120Y-88753286D01*
X119843210Y-88722794D01*
X119835341Y-88691380D01*
X119830589Y-88659346D01*
X119829000Y-88627000D01*
X119829000Y-87637000D01*
X119830589Y-87604654D01*
X119835341Y-87572620D01*
X119843210Y-87541206D01*
X119854120Y-87510714D01*
X119867966Y-87481439D01*
X119884615Y-87453662D01*
X119903907Y-87427650D01*
X119925655Y-87403655D01*
X119949650Y-87381907D01*
X119975662Y-87362615D01*
X120003439Y-87345966D01*
X120032714Y-87332120D01*
X120063206Y-87321210D01*
X120094620Y-87313341D01*
X120126654Y-87308589D01*
X120159000Y-87307000D01*
X121649000Y-87307000D01*
X121681346Y-87308589D01*
X121681346Y-87308589D01*
G37*
D19*
X120904000Y-88132000D03*
G04 #@! TD*
D18*
G04 #@! TO.C,C10*
G36*
X119461943Y-82372155D02*
X119495312Y-82377105D01*
X119528035Y-82385302D01*
X119559797Y-82396666D01*
X119590293Y-82411090D01*
X119619227Y-82428432D01*
X119646323Y-82448528D01*
X119671318Y-82471182D01*
X119693972Y-82496177D01*
X119714068Y-82523273D01*
X119731410Y-82552207D01*
X119745834Y-82582703D01*
X119757198Y-82614465D01*
X119765395Y-82647188D01*
X119770345Y-82680557D01*
X119772000Y-82714250D01*
X119772000Y-83401750D01*
X119770345Y-83435443D01*
X119765395Y-83468812D01*
X119757198Y-83501535D01*
X119745834Y-83533297D01*
X119731410Y-83563793D01*
X119714068Y-83592727D01*
X119693972Y-83619823D01*
X119671318Y-83644818D01*
X119646323Y-83667472D01*
X119619227Y-83687568D01*
X119590293Y-83704910D01*
X119559797Y-83719334D01*
X119528035Y-83730698D01*
X119495312Y-83738895D01*
X119461943Y-83743845D01*
X119428250Y-83745500D01*
X118315750Y-83745500D01*
X118282057Y-83743845D01*
X118248688Y-83738895D01*
X118215965Y-83730698D01*
X118184203Y-83719334D01*
X118153707Y-83704910D01*
X118124773Y-83687568D01*
X118097677Y-83667472D01*
X118072682Y-83644818D01*
X118050028Y-83619823D01*
X118029932Y-83592727D01*
X118012590Y-83563793D01*
X117998166Y-83533297D01*
X117986802Y-83501535D01*
X117978605Y-83468812D01*
X117973655Y-83435443D01*
X117972000Y-83401750D01*
X117972000Y-82714250D01*
X117973655Y-82680557D01*
X117978605Y-82647188D01*
X117986802Y-82614465D01*
X117998166Y-82582703D01*
X118012590Y-82552207D01*
X118029932Y-82523273D01*
X118050028Y-82496177D01*
X118072682Y-82471182D01*
X118097677Y-82448528D01*
X118124773Y-82428432D01*
X118153707Y-82411090D01*
X118184203Y-82396666D01*
X118215965Y-82385302D01*
X118248688Y-82377105D01*
X118282057Y-82372155D01*
X118315750Y-82370500D01*
X119428250Y-82370500D01*
X119461943Y-82372155D01*
X119461943Y-82372155D01*
G37*
D29*
X118872000Y-83058000D03*
D18*
G36*
X119461943Y-84247155D02*
X119495312Y-84252105D01*
X119528035Y-84260302D01*
X119559797Y-84271666D01*
X119590293Y-84286090D01*
X119619227Y-84303432D01*
X119646323Y-84323528D01*
X119671318Y-84346182D01*
X119693972Y-84371177D01*
X119714068Y-84398273D01*
X119731410Y-84427207D01*
X119745834Y-84457703D01*
X119757198Y-84489465D01*
X119765395Y-84522188D01*
X119770345Y-84555557D01*
X119772000Y-84589250D01*
X119772000Y-85276750D01*
X119770345Y-85310443D01*
X119765395Y-85343812D01*
X119757198Y-85376535D01*
X119745834Y-85408297D01*
X119731410Y-85438793D01*
X119714068Y-85467727D01*
X119693972Y-85494823D01*
X119671318Y-85519818D01*
X119646323Y-85542472D01*
X119619227Y-85562568D01*
X119590293Y-85579910D01*
X119559797Y-85594334D01*
X119528035Y-85605698D01*
X119495312Y-85613895D01*
X119461943Y-85618845D01*
X119428250Y-85620500D01*
X118315750Y-85620500D01*
X118282057Y-85618845D01*
X118248688Y-85613895D01*
X118215965Y-85605698D01*
X118184203Y-85594334D01*
X118153707Y-85579910D01*
X118124773Y-85562568D01*
X118097677Y-85542472D01*
X118072682Y-85519818D01*
X118050028Y-85494823D01*
X118029932Y-85467727D01*
X118012590Y-85438793D01*
X117998166Y-85408297D01*
X117986802Y-85376535D01*
X117978605Y-85343812D01*
X117973655Y-85310443D01*
X117972000Y-85276750D01*
X117972000Y-84589250D01*
X117973655Y-84555557D01*
X117978605Y-84522188D01*
X117986802Y-84489465D01*
X117998166Y-84457703D01*
X118012590Y-84427207D01*
X118029932Y-84398273D01*
X118050028Y-84371177D01*
X118072682Y-84346182D01*
X118097677Y-84323528D01*
X118124773Y-84303432D01*
X118153707Y-84286090D01*
X118184203Y-84271666D01*
X118215965Y-84260302D01*
X118248688Y-84252105D01*
X118282057Y-84247155D01*
X118315750Y-84245500D01*
X119428250Y-84245500D01*
X119461943Y-84247155D01*
X119461943Y-84247155D01*
G37*
D29*
X118872000Y-84933000D03*
G04 #@! TD*
D18*
G04 #@! TO.C,C11*
G36*
X119259493Y-88010035D02*
X119290435Y-88014625D01*
X119320778Y-88022225D01*
X119350230Y-88032763D01*
X119378508Y-88046138D01*
X119405338Y-88062219D01*
X119430463Y-88080853D01*
X119453640Y-88101860D01*
X119474647Y-88125037D01*
X119493281Y-88150162D01*
X119509362Y-88176992D01*
X119522737Y-88205270D01*
X119533275Y-88234722D01*
X119540875Y-88265065D01*
X119545465Y-88296007D01*
X119547000Y-88327250D01*
X119547000Y-88964750D01*
X119545465Y-88995993D01*
X119540875Y-89026935D01*
X119533275Y-89057278D01*
X119522737Y-89086730D01*
X119509362Y-89115008D01*
X119493281Y-89141838D01*
X119474647Y-89166963D01*
X119453640Y-89190140D01*
X119430463Y-89211147D01*
X119405338Y-89229781D01*
X119378508Y-89245862D01*
X119350230Y-89259237D01*
X119320778Y-89269775D01*
X119290435Y-89277375D01*
X119259493Y-89281965D01*
X119228250Y-89283500D01*
X118515750Y-89283500D01*
X118484507Y-89281965D01*
X118453565Y-89277375D01*
X118423222Y-89269775D01*
X118393770Y-89259237D01*
X118365492Y-89245862D01*
X118338662Y-89229781D01*
X118313537Y-89211147D01*
X118290360Y-89190140D01*
X118269353Y-89166963D01*
X118250719Y-89141838D01*
X118234638Y-89115008D01*
X118221263Y-89086730D01*
X118210725Y-89057278D01*
X118203125Y-89026935D01*
X118198535Y-88995993D01*
X118197000Y-88964750D01*
X118197000Y-88327250D01*
X118198535Y-88296007D01*
X118203125Y-88265065D01*
X118210725Y-88234722D01*
X118221263Y-88205270D01*
X118234638Y-88176992D01*
X118250719Y-88150162D01*
X118269353Y-88125037D01*
X118290360Y-88101860D01*
X118313537Y-88080853D01*
X118338662Y-88062219D01*
X118365492Y-88046138D01*
X118393770Y-88032763D01*
X118423222Y-88022225D01*
X118453565Y-88014625D01*
X118484507Y-88010035D01*
X118515750Y-88008500D01*
X119228250Y-88008500D01*
X119259493Y-88010035D01*
X119259493Y-88010035D01*
G37*
D24*
X118872000Y-88646000D03*
D18*
G36*
X119259493Y-86435035D02*
X119290435Y-86439625D01*
X119320778Y-86447225D01*
X119350230Y-86457763D01*
X119378508Y-86471138D01*
X119405338Y-86487219D01*
X119430463Y-86505853D01*
X119453640Y-86526860D01*
X119474647Y-86550037D01*
X119493281Y-86575162D01*
X119509362Y-86601992D01*
X119522737Y-86630270D01*
X119533275Y-86659722D01*
X119540875Y-86690065D01*
X119545465Y-86721007D01*
X119547000Y-86752250D01*
X119547000Y-87389750D01*
X119545465Y-87420993D01*
X119540875Y-87451935D01*
X119533275Y-87482278D01*
X119522737Y-87511730D01*
X119509362Y-87540008D01*
X119493281Y-87566838D01*
X119474647Y-87591963D01*
X119453640Y-87615140D01*
X119430463Y-87636147D01*
X119405338Y-87654781D01*
X119378508Y-87670862D01*
X119350230Y-87684237D01*
X119320778Y-87694775D01*
X119290435Y-87702375D01*
X119259493Y-87706965D01*
X119228250Y-87708500D01*
X118515750Y-87708500D01*
X118484507Y-87706965D01*
X118453565Y-87702375D01*
X118423222Y-87694775D01*
X118393770Y-87684237D01*
X118365492Y-87670862D01*
X118338662Y-87654781D01*
X118313537Y-87636147D01*
X118290360Y-87615140D01*
X118269353Y-87591963D01*
X118250719Y-87566838D01*
X118234638Y-87540008D01*
X118221263Y-87511730D01*
X118210725Y-87482278D01*
X118203125Y-87451935D01*
X118198535Y-87420993D01*
X118197000Y-87389750D01*
X118197000Y-86752250D01*
X118198535Y-86721007D01*
X118203125Y-86690065D01*
X118210725Y-86659722D01*
X118221263Y-86630270D01*
X118234638Y-86601992D01*
X118250719Y-86575162D01*
X118269353Y-86550037D01*
X118290360Y-86526860D01*
X118313537Y-86505853D01*
X118338662Y-86487219D01*
X118365492Y-86471138D01*
X118393770Y-86457763D01*
X118423222Y-86447225D01*
X118453565Y-86439625D01*
X118484507Y-86435035D01*
X118515750Y-86433500D01*
X119228250Y-86433500D01*
X119259493Y-86435035D01*
X119259493Y-86435035D01*
G37*
D24*
X118872000Y-87071000D03*
G04 #@! TD*
M02*
