G04 #@! TF.GenerationSoftware,KiCad,Pcbnew,5.0.0-fee4fd1~66~ubuntu16.04.1*
G04 #@! TF.CreationDate,2018-08-14T17:57:09-07:00*
G04 #@! TF.ProjectId,powerstep01-breakout,706F7765727374657030312D62726561,rev?*
G04 #@! TF.SameCoordinates,Original*
G04 #@! TF.FileFunction,Copper,L1,Top,Signal*
G04 #@! TF.FilePolarity,Positive*
%FSLAX46Y46*%
G04 Gerber Fmt 4.6, Leading zero omitted, Abs format (unit mm)*
G04 Created by KiCad (PCBNEW 5.0.0-fee4fd1~66~ubuntu16.04.1) date Tue Aug 14 17:57:09 2018*
%MOMM*%
%LPD*%
G01*
G04 APERTURE LIST*
G04 #@! TA.AperFunction,SMDPad,CuDef*
%ADD10R,5.500000X4.680000*%
G04 #@! TD*
G04 #@! TA.AperFunction,SMDPad,CuDef*
%ADD11R,2.300000X3.010000*%
G04 #@! TD*
G04 #@! TA.AperFunction,SMDPad,CuDef*
%ADD12R,1.160000X1.200000*%
G04 #@! TD*
G04 #@! TA.AperFunction,SMDPad,CuDef*
%ADD13R,0.200000X0.800000*%
G04 #@! TD*
G04 #@! TA.AperFunction,SMDPad,CuDef*
%ADD14R,0.800000X0.200000*%
G04 #@! TD*
G04 #@! TA.AperFunction,SMDPad,CuDef*
%ADD15R,2.140000X2.850000*%
G04 #@! TD*
G04 #@! TA.AperFunction,SMDPad,CuDef*
%ADD16R,1.440000X0.720000*%
G04 #@! TD*
G04 #@! TA.AperFunction,SMDPad,CuDef*
%ADD17R,0.740000X2.170000*%
G04 #@! TD*
G04 #@! TA.AperFunction,Conductor*
%ADD18C,0.100000*%
G04 #@! TD*
G04 #@! TA.AperFunction,SMDPad,CuDef*
%ADD19C,1.250000*%
G04 #@! TD*
G04 #@! TA.AperFunction,SMDPad,CuDef*
%ADD20R,0.800000X0.900000*%
G04 #@! TD*
G04 #@! TA.AperFunction,ComponentPad*
%ADD21R,1.700000X1.700000*%
G04 #@! TD*
G04 #@! TA.AperFunction,ComponentPad*
%ADD22O,1.700000X1.700000*%
G04 #@! TD*
G04 #@! TA.AperFunction,SMDPad,CuDef*
%ADD23C,0.875000*%
G04 #@! TD*
G04 #@! TA.AperFunction,SMDPad,CuDef*
%ADD24R,2.510000X1.000000*%
G04 #@! TD*
G04 #@! TA.AperFunction,SMDPad,CuDef*
%ADD25C,1.350000*%
G04 #@! TD*
G04 #@! TA.AperFunction,ComponentPad*
%ADD26R,2.750000X2.750000*%
G04 #@! TD*
G04 #@! TA.AperFunction,ComponentPad*
%ADD27C,2.750000*%
G04 #@! TD*
G04 #@! TA.AperFunction,SMDPad,CuDef*
%ADD28C,0.975000*%
G04 #@! TD*
G04 #@! TA.AperFunction,ComponentPad*
%ADD29R,2.400000X2.400000*%
G04 #@! TD*
G04 #@! TA.AperFunction,ComponentPad*
%ADD30C,2.400000*%
G04 #@! TD*
G04 #@! TA.AperFunction,ViaPad*
%ADD31C,0.800000*%
G04 #@! TD*
G04 #@! TA.AperFunction,Conductor*
%ADD32C,0.500000*%
G04 #@! TD*
G04 #@! TA.AperFunction,Conductor*
%ADD33C,0.200000*%
G04 #@! TD*
G04 #@! TA.AperFunction,Conductor*
%ADD34C,1.000000*%
G04 #@! TD*
G04 #@! TA.AperFunction,Conductor*
%ADD35C,0.400000*%
G04 #@! TD*
G04 #@! TA.AperFunction,Conductor*
%ADD36C,0.250000*%
G04 #@! TD*
G04 APERTURE END LIST*
D10*
G04 #@! TO.P,U1,E9*
G04 #@! TO.N,GND*
X133778000Y-86614000D03*
D11*
G04 #@! TO.P,U1,E8*
G04 #@! TO.N,OUTB2*
X135228000Y-90879000D03*
G04 #@! TO.P,U1,E7*
G04 #@! TO.N,OUTB1*
X132488000Y-90879000D03*
G04 #@! TO.P,U1,E3*
G04 #@! TO.N,OUTA2*
X135228000Y-82349000D03*
G04 #@! TO.P,U1,E4*
G04 #@! TO.N,OUTA1*
X132488000Y-82349000D03*
D12*
G04 #@! TO.P,U1,E13*
G04 #@! TO.N,Net-(R3-Pad1)*
X135268000Y-93414000D03*
G04 #@! TO.P,U1,E12*
X132448000Y-93414000D03*
G04 #@! TO.P,U1,E10*
G04 #@! TO.N,Net-(R1-Pad1)*
X135268000Y-79814000D03*
G04 #@! TO.P,U1,E11*
X132448000Y-79814000D03*
D13*
G04 #@! TO.P,U1,37*
G04 #@! TO.N,OUTA2*
X134168000Y-79614000D03*
G04 #@! TO.P,U1,38*
G04 #@! TO.N,OUTA1*
X133548000Y-79614000D03*
G04 #@! TO.P,U1,42*
X131348000Y-79614000D03*
G04 #@! TO.P,U1,33*
G04 #@! TO.N,OUTA2*
X136368000Y-79614000D03*
G04 #@! TO.P,U1,81*
G04 #@! TO.N,OUTB2*
X134168000Y-93614000D03*
G04 #@! TO.P,U1,80*
G04 #@! TO.N,OUTB1*
X133548000Y-93614000D03*
G04 #@! TO.P,U1,76*
X131348000Y-93614000D03*
G04 #@! TO.P,U1,85*
G04 #@! TO.N,OUTB2*
X136368000Y-93614000D03*
D14*
G04 #@! TO.P,U1,15*
G04 #@! TO.N,BUSY_SYNC*
X139358000Y-86404000D03*
G04 #@! TO.P,U1,16*
G04 #@! TO.N,FLAG*
X139358000Y-86004000D03*
G04 #@! TO.P,U1,17*
G04 #@! TO.N,STCK*
X139358000Y-85604000D03*
G04 #@! TO.P,U1,18*
G04 #@! TO.N,SW*
X139358000Y-85204000D03*
G04 #@! TO.P,U1,19*
G04 #@! TO.N,STBY_RESET*
X139358000Y-84804000D03*
G04 #@! TO.P,U1,20*
G04 #@! TO.N,Net-(R1-Pad1)*
X139358000Y-84404000D03*
G04 #@! TO.P,U1,21*
G04 #@! TO.N,GND*
X139358000Y-83964000D03*
G04 #@! TO.P,U1,22*
G04 #@! TO.N,OUTA2*
X139358000Y-83364000D03*
G04 #@! TO.P,U1,14*
G04 #@! TO.N,SDO*
X139358000Y-86824000D03*
G04 #@! TO.P,U1,13*
G04 #@! TO.N,VDDIO*
X139358000Y-87224000D03*
G04 #@! TO.P,U1,12*
G04 #@! TO.N,SDI*
X139358000Y-87624000D03*
G04 #@! TO.P,U1,11*
G04 #@! TO.N,CK*
X139358000Y-88024000D03*
G04 #@! TO.P,U1,10*
G04 #@! TO.N,CS*
X139358000Y-88424000D03*
G04 #@! TO.P,U1,9*
G04 #@! TO.N,Net-(R3-Pad1)*
X139358000Y-88824000D03*
G04 #@! TO.P,U1,8*
G04 #@! TO.N,GND*
X139358000Y-89264000D03*
G04 #@! TO.P,U1,7*
G04 #@! TO.N,OUTB2*
X139358000Y-89864000D03*
G04 #@! TO.P,U1,58*
G04 #@! TO.N,VCC*
X128358000Y-86214000D03*
G04 #@! TO.P,U1,59*
G04 #@! TO.N,GND*
X128358000Y-86614000D03*
G04 #@! TO.P,U1,57*
G04 #@! TO.N,Net-(C6-Pad1)*
X128358000Y-85814000D03*
G04 #@! TO.P,U1,56*
G04 #@! TO.N,Net-(C5-Pad2)*
X128358000Y-85094000D03*
G04 #@! TO.P,U1,55*
G04 #@! TO.N,VIN*
X128358000Y-84694000D03*
G04 #@! TO.P,U1,54*
G04 #@! TO.N,ADCIN*
X128358000Y-83964000D03*
G04 #@! TO.P,U1,53*
G04 #@! TO.N,OUTA1*
X128358000Y-83364000D03*
G04 #@! TO.P,U1,60*
G04 #@! TO.N,VCCREG*
X128358000Y-87014000D03*
G04 #@! TO.P,U1,61*
G04 #@! TO.N,VSREG*
X128358000Y-87734000D03*
G04 #@! TO.P,U1,62*
G04 #@! TO.N,VREG*
X128358000Y-88464000D03*
G04 #@! TO.P,U1,63*
G04 #@! TO.N,OSCIN*
X128358000Y-88864000D03*
G04 #@! TO.P,U1,64*
G04 #@! TO.N,OSCOUT*
X128358000Y-89264000D03*
G04 #@! TO.P,U1,65*
G04 #@! TO.N,OUTB1*
X128358000Y-89864000D03*
D15*
G04 #@! TO.P,U1,E2*
G04 #@! TO.N,VIN*
X137948000Y-81359000D03*
G04 #@! TO.P,U1,E5*
X129768000Y-81359000D03*
G04 #@! TO.P,U1,E6*
X129768000Y-91869000D03*
G04 #@! TO.P,U1,E1*
X137948000Y-91869000D03*
D16*
G04 #@! TO.P,U1,E5*
X129558000Y-79574000D03*
G04 #@! TO.P,U1,E2*
X138158000Y-79574000D03*
G04 #@! TO.P,U1,E6*
X129558000Y-93654000D03*
G04 #@! TO.P,U1,E1*
X138158000Y-93654000D03*
D17*
G04 #@! TO.P,U1,E5*
X128338000Y-81299000D03*
G04 #@! TO.P,U1,E6*
X128338000Y-91929000D03*
G04 #@! TO.P,U1,E1*
X139378000Y-91929000D03*
G04 #@! TO.P,U1,E2*
X139378000Y-81299000D03*
G04 #@! TD*
D18*
G04 #@! TO.N,VREG*
G04 #@! TO.C,C13*
G36*
X123839504Y-90314204D02*
X123863773Y-90317804D01*
X123887571Y-90323765D01*
X123910671Y-90332030D01*
X123932849Y-90342520D01*
X123953893Y-90355133D01*
X123973598Y-90369747D01*
X123991777Y-90386223D01*
X124008253Y-90404402D01*
X124022867Y-90424107D01*
X124035480Y-90445151D01*
X124045970Y-90467329D01*
X124054235Y-90490429D01*
X124060196Y-90514227D01*
X124063796Y-90538496D01*
X124065000Y-90563000D01*
X124065000Y-91313000D01*
X124063796Y-91337504D01*
X124060196Y-91361773D01*
X124054235Y-91385571D01*
X124045970Y-91408671D01*
X124035480Y-91430849D01*
X124022867Y-91451893D01*
X124008253Y-91471598D01*
X123991777Y-91489777D01*
X123973598Y-91506253D01*
X123953893Y-91520867D01*
X123932849Y-91533480D01*
X123910671Y-91543970D01*
X123887571Y-91552235D01*
X123863773Y-91558196D01*
X123839504Y-91561796D01*
X123815000Y-91563000D01*
X122565000Y-91563000D01*
X122540496Y-91561796D01*
X122516227Y-91558196D01*
X122492429Y-91552235D01*
X122469329Y-91543970D01*
X122447151Y-91533480D01*
X122426107Y-91520867D01*
X122406402Y-91506253D01*
X122388223Y-91489777D01*
X122371747Y-91471598D01*
X122357133Y-91451893D01*
X122344520Y-91430849D01*
X122334030Y-91408671D01*
X122325765Y-91385571D01*
X122319804Y-91361773D01*
X122316204Y-91337504D01*
X122315000Y-91313000D01*
X122315000Y-90563000D01*
X122316204Y-90538496D01*
X122319804Y-90514227D01*
X122325765Y-90490429D01*
X122334030Y-90467329D01*
X122344520Y-90445151D01*
X122357133Y-90424107D01*
X122371747Y-90404402D01*
X122388223Y-90386223D01*
X122406402Y-90369747D01*
X122426107Y-90355133D01*
X122447151Y-90342520D01*
X122469329Y-90332030D01*
X122492429Y-90323765D01*
X122516227Y-90317804D01*
X122540496Y-90314204D01*
X122565000Y-90313000D01*
X123815000Y-90313000D01*
X123839504Y-90314204D01*
X123839504Y-90314204D01*
G37*
D19*
G04 #@! TD*
G04 #@! TO.P,C13,1*
G04 #@! TO.N,VREG*
X123190000Y-90938000D03*
D18*
G04 #@! TO.N,GND*
G04 #@! TO.C,C13*
G36*
X123839504Y-87514204D02*
X123863773Y-87517804D01*
X123887571Y-87523765D01*
X123910671Y-87532030D01*
X123932849Y-87542520D01*
X123953893Y-87555133D01*
X123973598Y-87569747D01*
X123991777Y-87586223D01*
X124008253Y-87604402D01*
X124022867Y-87624107D01*
X124035480Y-87645151D01*
X124045970Y-87667329D01*
X124054235Y-87690429D01*
X124060196Y-87714227D01*
X124063796Y-87738496D01*
X124065000Y-87763000D01*
X124065000Y-88513000D01*
X124063796Y-88537504D01*
X124060196Y-88561773D01*
X124054235Y-88585571D01*
X124045970Y-88608671D01*
X124035480Y-88630849D01*
X124022867Y-88651893D01*
X124008253Y-88671598D01*
X123991777Y-88689777D01*
X123973598Y-88706253D01*
X123953893Y-88720867D01*
X123932849Y-88733480D01*
X123910671Y-88743970D01*
X123887571Y-88752235D01*
X123863773Y-88758196D01*
X123839504Y-88761796D01*
X123815000Y-88763000D01*
X122565000Y-88763000D01*
X122540496Y-88761796D01*
X122516227Y-88758196D01*
X122492429Y-88752235D01*
X122469329Y-88743970D01*
X122447151Y-88733480D01*
X122426107Y-88720867D01*
X122406402Y-88706253D01*
X122388223Y-88689777D01*
X122371747Y-88671598D01*
X122357133Y-88651893D01*
X122344520Y-88630849D01*
X122334030Y-88608671D01*
X122325765Y-88585571D01*
X122319804Y-88561773D01*
X122316204Y-88537504D01*
X122315000Y-88513000D01*
X122315000Y-87763000D01*
X122316204Y-87738496D01*
X122319804Y-87714227D01*
X122325765Y-87690429D01*
X122334030Y-87667329D01*
X122344520Y-87645151D01*
X122357133Y-87624107D01*
X122371747Y-87604402D01*
X122388223Y-87586223D01*
X122406402Y-87569747D01*
X122426107Y-87555133D01*
X122447151Y-87542520D01*
X122469329Y-87532030D01*
X122492429Y-87523765D01*
X122516227Y-87517804D01*
X122540496Y-87514204D01*
X122565000Y-87513000D01*
X123815000Y-87513000D01*
X123839504Y-87514204D01*
X123839504Y-87514204D01*
G37*
D19*
G04 #@! TD*
G04 #@! TO.P,C13,2*
G04 #@! TO.N,GND*
X123190000Y-88138000D03*
D20*
G04 #@! TO.P,D1,1*
G04 #@! TO.N,VIN*
X122870000Y-81280000D03*
G04 #@! TO.P,D1,2*
G04 #@! TO.N,Net-(C5-Pad2)*
X120970000Y-81280000D03*
G04 #@! TO.P,D1,3*
G04 #@! TO.N,Net-(C6-Pad2)*
X121920000Y-83280000D03*
G04 #@! TD*
D21*
G04 #@! TO.P,J4,1*
G04 #@! TO.N,STBY_RESET*
X160020000Y-74676000D03*
D22*
G04 #@! TO.P,J4,2*
G04 #@! TO.N,SW*
X160020000Y-77216000D03*
G04 #@! TO.P,J4,3*
G04 #@! TO.N,STCK*
X160020000Y-79756000D03*
G04 #@! TO.P,J4,4*
G04 #@! TO.N,FLAG*
X160020000Y-82296000D03*
G04 #@! TO.P,J4,5*
G04 #@! TO.N,BUSY_SYNC*
X160020000Y-84836000D03*
G04 #@! TO.P,J4,6*
G04 #@! TO.N,SDO*
X160020000Y-87376000D03*
G04 #@! TO.P,J4,7*
G04 #@! TO.N,VDDIO*
X160020000Y-89916000D03*
G04 #@! TO.P,J4,8*
G04 #@! TO.N,SDI*
X160020000Y-92456000D03*
G04 #@! TO.P,J4,9*
G04 #@! TO.N,CK*
X160020000Y-94996000D03*
G04 #@! TO.P,J4,10*
G04 #@! TO.N,CS*
X160020000Y-97536000D03*
G04 #@! TD*
D18*
G04 #@! TO.N,GND*
G04 #@! TO.C,C9*
G36*
X146849191Y-87664053D02*
X146870426Y-87667203D01*
X146891250Y-87672419D01*
X146911462Y-87679651D01*
X146930868Y-87688830D01*
X146949281Y-87699866D01*
X146966524Y-87712654D01*
X146982430Y-87727070D01*
X146996846Y-87742976D01*
X147009634Y-87760219D01*
X147020670Y-87778632D01*
X147029849Y-87798038D01*
X147037081Y-87818250D01*
X147042297Y-87839074D01*
X147045447Y-87860309D01*
X147046500Y-87881750D01*
X147046500Y-88394250D01*
X147045447Y-88415691D01*
X147042297Y-88436926D01*
X147037081Y-88457750D01*
X147029849Y-88477962D01*
X147020670Y-88497368D01*
X147009634Y-88515781D01*
X146996846Y-88533024D01*
X146982430Y-88548930D01*
X146966524Y-88563346D01*
X146949281Y-88576134D01*
X146930868Y-88587170D01*
X146911462Y-88596349D01*
X146891250Y-88603581D01*
X146870426Y-88608797D01*
X146849191Y-88611947D01*
X146827750Y-88613000D01*
X146390250Y-88613000D01*
X146368809Y-88611947D01*
X146347574Y-88608797D01*
X146326750Y-88603581D01*
X146306538Y-88596349D01*
X146287132Y-88587170D01*
X146268719Y-88576134D01*
X146251476Y-88563346D01*
X146235570Y-88548930D01*
X146221154Y-88533024D01*
X146208366Y-88515781D01*
X146197330Y-88497368D01*
X146188151Y-88477962D01*
X146180919Y-88457750D01*
X146175703Y-88436926D01*
X146172553Y-88415691D01*
X146171500Y-88394250D01*
X146171500Y-87881750D01*
X146172553Y-87860309D01*
X146175703Y-87839074D01*
X146180919Y-87818250D01*
X146188151Y-87798038D01*
X146197330Y-87778632D01*
X146208366Y-87760219D01*
X146221154Y-87742976D01*
X146235570Y-87727070D01*
X146251476Y-87712654D01*
X146268719Y-87699866D01*
X146287132Y-87688830D01*
X146306538Y-87679651D01*
X146326750Y-87672419D01*
X146347574Y-87667203D01*
X146368809Y-87664053D01*
X146390250Y-87663000D01*
X146827750Y-87663000D01*
X146849191Y-87664053D01*
X146849191Y-87664053D01*
G37*
D23*
G04 #@! TD*
G04 #@! TO.P,C9,2*
G04 #@! TO.N,GND*
X146609000Y-88138000D03*
D18*
G04 #@! TO.N,VDDIO*
G04 #@! TO.C,C9*
G36*
X145274191Y-87664053D02*
X145295426Y-87667203D01*
X145316250Y-87672419D01*
X145336462Y-87679651D01*
X145355868Y-87688830D01*
X145374281Y-87699866D01*
X145391524Y-87712654D01*
X145407430Y-87727070D01*
X145421846Y-87742976D01*
X145434634Y-87760219D01*
X145445670Y-87778632D01*
X145454849Y-87798038D01*
X145462081Y-87818250D01*
X145467297Y-87839074D01*
X145470447Y-87860309D01*
X145471500Y-87881750D01*
X145471500Y-88394250D01*
X145470447Y-88415691D01*
X145467297Y-88436926D01*
X145462081Y-88457750D01*
X145454849Y-88477962D01*
X145445670Y-88497368D01*
X145434634Y-88515781D01*
X145421846Y-88533024D01*
X145407430Y-88548930D01*
X145391524Y-88563346D01*
X145374281Y-88576134D01*
X145355868Y-88587170D01*
X145336462Y-88596349D01*
X145316250Y-88603581D01*
X145295426Y-88608797D01*
X145274191Y-88611947D01*
X145252750Y-88613000D01*
X144815250Y-88613000D01*
X144793809Y-88611947D01*
X144772574Y-88608797D01*
X144751750Y-88603581D01*
X144731538Y-88596349D01*
X144712132Y-88587170D01*
X144693719Y-88576134D01*
X144676476Y-88563346D01*
X144660570Y-88548930D01*
X144646154Y-88533024D01*
X144633366Y-88515781D01*
X144622330Y-88497368D01*
X144613151Y-88477962D01*
X144605919Y-88457750D01*
X144600703Y-88436926D01*
X144597553Y-88415691D01*
X144596500Y-88394250D01*
X144596500Y-87881750D01*
X144597553Y-87860309D01*
X144600703Y-87839074D01*
X144605919Y-87818250D01*
X144613151Y-87798038D01*
X144622330Y-87778632D01*
X144633366Y-87760219D01*
X144646154Y-87742976D01*
X144660570Y-87727070D01*
X144676476Y-87712654D01*
X144693719Y-87699866D01*
X144712132Y-87688830D01*
X144731538Y-87679651D01*
X144751750Y-87672419D01*
X144772574Y-87667203D01*
X144793809Y-87664053D01*
X144815250Y-87663000D01*
X145252750Y-87663000D01*
X145274191Y-87664053D01*
X145274191Y-87664053D01*
G37*
D23*
G04 #@! TD*
G04 #@! TO.P,C9,1*
G04 #@! TO.N,VDDIO*
X145034000Y-88138000D03*
D24*
G04 #@! TO.P,J3,1*
G04 #@! TO.N,OSCOUT*
X114554000Y-93218000D03*
G04 #@! TO.P,J3,3*
G04 #@! TO.N,VSREG*
X114554000Y-88138000D03*
G04 #@! TO.P,J3,5*
G04 #@! TO.N,VCCREG*
X114554000Y-83058000D03*
G04 #@! TO.P,J3,7*
G04 #@! TO.N,ADCIN*
X114554000Y-77978000D03*
G04 #@! TO.P,J3,2*
G04 #@! TO.N,OSCIN*
X111244000Y-90678000D03*
G04 #@! TO.P,J3,4*
G04 #@! TO.N,VREG*
X111244000Y-85598000D03*
G04 #@! TO.P,J3,6*
G04 #@! TO.N,VCC*
X111244000Y-80518000D03*
G04 #@! TD*
D18*
G04 #@! TO.N,Net-(R1-Pad1)*
G04 #@! TO.C,R2*
G36*
X137339505Y-74002204D02*
X137363773Y-74005804D01*
X137387572Y-74011765D01*
X137410671Y-74020030D01*
X137432850Y-74030520D01*
X137453893Y-74043132D01*
X137473599Y-74057747D01*
X137491777Y-74074223D01*
X137508253Y-74092401D01*
X137522868Y-74112107D01*
X137535480Y-74133150D01*
X137545970Y-74155329D01*
X137554235Y-74178428D01*
X137560196Y-74202227D01*
X137563796Y-74226495D01*
X137565000Y-74250999D01*
X137565000Y-75101001D01*
X137563796Y-75125505D01*
X137560196Y-75149773D01*
X137554235Y-75173572D01*
X137545970Y-75196671D01*
X137535480Y-75218850D01*
X137522868Y-75239893D01*
X137508253Y-75259599D01*
X137491777Y-75277777D01*
X137473599Y-75294253D01*
X137453893Y-75308868D01*
X137432850Y-75321480D01*
X137410671Y-75331970D01*
X137387572Y-75340235D01*
X137363773Y-75346196D01*
X137339505Y-75349796D01*
X137315001Y-75351000D01*
X134464999Y-75351000D01*
X134440495Y-75349796D01*
X134416227Y-75346196D01*
X134392428Y-75340235D01*
X134369329Y-75331970D01*
X134347150Y-75321480D01*
X134326107Y-75308868D01*
X134306401Y-75294253D01*
X134288223Y-75277777D01*
X134271747Y-75259599D01*
X134257132Y-75239893D01*
X134244520Y-75218850D01*
X134234030Y-75196671D01*
X134225765Y-75173572D01*
X134219804Y-75149773D01*
X134216204Y-75125505D01*
X134215000Y-75101001D01*
X134215000Y-74250999D01*
X134216204Y-74226495D01*
X134219804Y-74202227D01*
X134225765Y-74178428D01*
X134234030Y-74155329D01*
X134244520Y-74133150D01*
X134257132Y-74112107D01*
X134271747Y-74092401D01*
X134288223Y-74074223D01*
X134306401Y-74057747D01*
X134326107Y-74043132D01*
X134347150Y-74030520D01*
X134369329Y-74020030D01*
X134392428Y-74011765D01*
X134416227Y-74005804D01*
X134440495Y-74002204D01*
X134464999Y-74001000D01*
X137315001Y-74001000D01*
X137339505Y-74002204D01*
X137339505Y-74002204D01*
G37*
D25*
G04 #@! TD*
G04 #@! TO.P,R2,1*
G04 #@! TO.N,Net-(R1-Pad1)*
X135890000Y-74676000D03*
D18*
G04 #@! TO.N,GND*
G04 #@! TO.C,R2*
G36*
X137339505Y-68202204D02*
X137363773Y-68205804D01*
X137387572Y-68211765D01*
X137410671Y-68220030D01*
X137432850Y-68230520D01*
X137453893Y-68243132D01*
X137473599Y-68257747D01*
X137491777Y-68274223D01*
X137508253Y-68292401D01*
X137522868Y-68312107D01*
X137535480Y-68333150D01*
X137545970Y-68355329D01*
X137554235Y-68378428D01*
X137560196Y-68402227D01*
X137563796Y-68426495D01*
X137565000Y-68450999D01*
X137565000Y-69301001D01*
X137563796Y-69325505D01*
X137560196Y-69349773D01*
X137554235Y-69373572D01*
X137545970Y-69396671D01*
X137535480Y-69418850D01*
X137522868Y-69439893D01*
X137508253Y-69459599D01*
X137491777Y-69477777D01*
X137473599Y-69494253D01*
X137453893Y-69508868D01*
X137432850Y-69521480D01*
X137410671Y-69531970D01*
X137387572Y-69540235D01*
X137363773Y-69546196D01*
X137339505Y-69549796D01*
X137315001Y-69551000D01*
X134464999Y-69551000D01*
X134440495Y-69549796D01*
X134416227Y-69546196D01*
X134392428Y-69540235D01*
X134369329Y-69531970D01*
X134347150Y-69521480D01*
X134326107Y-69508868D01*
X134306401Y-69494253D01*
X134288223Y-69477777D01*
X134271747Y-69459599D01*
X134257132Y-69439893D01*
X134244520Y-69418850D01*
X134234030Y-69396671D01*
X134225765Y-69373572D01*
X134219804Y-69349773D01*
X134216204Y-69325505D01*
X134215000Y-69301001D01*
X134215000Y-68450999D01*
X134216204Y-68426495D01*
X134219804Y-68402227D01*
X134225765Y-68378428D01*
X134234030Y-68355329D01*
X134244520Y-68333150D01*
X134257132Y-68312107D01*
X134271747Y-68292401D01*
X134288223Y-68274223D01*
X134306401Y-68257747D01*
X134326107Y-68243132D01*
X134347150Y-68230520D01*
X134369329Y-68220030D01*
X134392428Y-68211765D01*
X134416227Y-68205804D01*
X134440495Y-68202204D01*
X134464999Y-68201000D01*
X137315001Y-68201000D01*
X137339505Y-68202204D01*
X137339505Y-68202204D01*
G37*
D25*
G04 #@! TD*
G04 #@! TO.P,R2,2*
G04 #@! TO.N,GND*
X135890000Y-68876000D03*
D26*
G04 #@! TO.P,J1,1*
G04 #@! TO.N,OUTB2*
X101600000Y-92202000D03*
D27*
G04 #@! TO.P,J1,2*
G04 #@! TO.N,OUTB1*
X101600000Y-88392000D03*
G04 #@! TO.P,J1,3*
G04 #@! TO.N,OUTA1*
X101600000Y-84582000D03*
G04 #@! TO.P,J1,4*
G04 #@! TO.N,OUTA2*
X101600000Y-80772000D03*
G04 #@! TO.P,J1,5*
G04 #@! TO.N,GND*
X101600000Y-76962000D03*
G04 #@! TO.P,J1,6*
G04 #@! TO.N,VIN*
X101600000Y-73152000D03*
G04 #@! TD*
D18*
G04 #@! TO.N,Net-(R3-Pad1)*
G04 #@! TO.C,R3*
G36*
X133275505Y-97878204D02*
X133299773Y-97881804D01*
X133323572Y-97887765D01*
X133346671Y-97896030D01*
X133368850Y-97906520D01*
X133389893Y-97919132D01*
X133409599Y-97933747D01*
X133427777Y-97950223D01*
X133444253Y-97968401D01*
X133458868Y-97988107D01*
X133471480Y-98009150D01*
X133481970Y-98031329D01*
X133490235Y-98054428D01*
X133496196Y-98078227D01*
X133499796Y-98102495D01*
X133501000Y-98126999D01*
X133501000Y-98977001D01*
X133499796Y-99001505D01*
X133496196Y-99025773D01*
X133490235Y-99049572D01*
X133481970Y-99072671D01*
X133471480Y-99094850D01*
X133458868Y-99115893D01*
X133444253Y-99135599D01*
X133427777Y-99153777D01*
X133409599Y-99170253D01*
X133389893Y-99184868D01*
X133368850Y-99197480D01*
X133346671Y-99207970D01*
X133323572Y-99216235D01*
X133299773Y-99222196D01*
X133275505Y-99225796D01*
X133251001Y-99227000D01*
X130400999Y-99227000D01*
X130376495Y-99225796D01*
X130352227Y-99222196D01*
X130328428Y-99216235D01*
X130305329Y-99207970D01*
X130283150Y-99197480D01*
X130262107Y-99184868D01*
X130242401Y-99170253D01*
X130224223Y-99153777D01*
X130207747Y-99135599D01*
X130193132Y-99115893D01*
X130180520Y-99094850D01*
X130170030Y-99072671D01*
X130161765Y-99049572D01*
X130155804Y-99025773D01*
X130152204Y-99001505D01*
X130151000Y-98977001D01*
X130151000Y-98126999D01*
X130152204Y-98102495D01*
X130155804Y-98078227D01*
X130161765Y-98054428D01*
X130170030Y-98031329D01*
X130180520Y-98009150D01*
X130193132Y-97988107D01*
X130207747Y-97968401D01*
X130224223Y-97950223D01*
X130242401Y-97933747D01*
X130262107Y-97919132D01*
X130283150Y-97906520D01*
X130305329Y-97896030D01*
X130328428Y-97887765D01*
X130352227Y-97881804D01*
X130376495Y-97878204D01*
X130400999Y-97877000D01*
X133251001Y-97877000D01*
X133275505Y-97878204D01*
X133275505Y-97878204D01*
G37*
D25*
G04 #@! TD*
G04 #@! TO.P,R3,1*
G04 #@! TO.N,Net-(R3-Pad1)*
X131826000Y-98552000D03*
D18*
G04 #@! TO.N,GND*
G04 #@! TO.C,R3*
G36*
X133275505Y-103678204D02*
X133299773Y-103681804D01*
X133323572Y-103687765D01*
X133346671Y-103696030D01*
X133368850Y-103706520D01*
X133389893Y-103719132D01*
X133409599Y-103733747D01*
X133427777Y-103750223D01*
X133444253Y-103768401D01*
X133458868Y-103788107D01*
X133471480Y-103809150D01*
X133481970Y-103831329D01*
X133490235Y-103854428D01*
X133496196Y-103878227D01*
X133499796Y-103902495D01*
X133501000Y-103926999D01*
X133501000Y-104777001D01*
X133499796Y-104801505D01*
X133496196Y-104825773D01*
X133490235Y-104849572D01*
X133481970Y-104872671D01*
X133471480Y-104894850D01*
X133458868Y-104915893D01*
X133444253Y-104935599D01*
X133427777Y-104953777D01*
X133409599Y-104970253D01*
X133389893Y-104984868D01*
X133368850Y-104997480D01*
X133346671Y-105007970D01*
X133323572Y-105016235D01*
X133299773Y-105022196D01*
X133275505Y-105025796D01*
X133251001Y-105027000D01*
X130400999Y-105027000D01*
X130376495Y-105025796D01*
X130352227Y-105022196D01*
X130328428Y-105016235D01*
X130305329Y-105007970D01*
X130283150Y-104997480D01*
X130262107Y-104984868D01*
X130242401Y-104970253D01*
X130224223Y-104953777D01*
X130207747Y-104935599D01*
X130193132Y-104915893D01*
X130180520Y-104894850D01*
X130170030Y-104872671D01*
X130161765Y-104849572D01*
X130155804Y-104825773D01*
X130152204Y-104801505D01*
X130151000Y-104777001D01*
X130151000Y-103926999D01*
X130152204Y-103902495D01*
X130155804Y-103878227D01*
X130161765Y-103854428D01*
X130170030Y-103831329D01*
X130180520Y-103809150D01*
X130193132Y-103788107D01*
X130207747Y-103768401D01*
X130224223Y-103750223D01*
X130242401Y-103733747D01*
X130262107Y-103719132D01*
X130283150Y-103706520D01*
X130305329Y-103696030D01*
X130328428Y-103687765D01*
X130352227Y-103681804D01*
X130376495Y-103678204D01*
X130400999Y-103677000D01*
X133251001Y-103677000D01*
X133275505Y-103678204D01*
X133275505Y-103678204D01*
G37*
D25*
G04 #@! TD*
G04 #@! TO.P,R3,2*
G04 #@! TO.N,GND*
X131826000Y-104352000D03*
D18*
G04 #@! TO.N,GND*
G04 #@! TO.C,R1*
G36*
X133275505Y-68202204D02*
X133299773Y-68205804D01*
X133323572Y-68211765D01*
X133346671Y-68220030D01*
X133368850Y-68230520D01*
X133389893Y-68243132D01*
X133409599Y-68257747D01*
X133427777Y-68274223D01*
X133444253Y-68292401D01*
X133458868Y-68312107D01*
X133471480Y-68333150D01*
X133481970Y-68355329D01*
X133490235Y-68378428D01*
X133496196Y-68402227D01*
X133499796Y-68426495D01*
X133501000Y-68450999D01*
X133501000Y-69301001D01*
X133499796Y-69325505D01*
X133496196Y-69349773D01*
X133490235Y-69373572D01*
X133481970Y-69396671D01*
X133471480Y-69418850D01*
X133458868Y-69439893D01*
X133444253Y-69459599D01*
X133427777Y-69477777D01*
X133409599Y-69494253D01*
X133389893Y-69508868D01*
X133368850Y-69521480D01*
X133346671Y-69531970D01*
X133323572Y-69540235D01*
X133299773Y-69546196D01*
X133275505Y-69549796D01*
X133251001Y-69551000D01*
X130400999Y-69551000D01*
X130376495Y-69549796D01*
X130352227Y-69546196D01*
X130328428Y-69540235D01*
X130305329Y-69531970D01*
X130283150Y-69521480D01*
X130262107Y-69508868D01*
X130242401Y-69494253D01*
X130224223Y-69477777D01*
X130207747Y-69459599D01*
X130193132Y-69439893D01*
X130180520Y-69418850D01*
X130170030Y-69396671D01*
X130161765Y-69373572D01*
X130155804Y-69349773D01*
X130152204Y-69325505D01*
X130151000Y-69301001D01*
X130151000Y-68450999D01*
X130152204Y-68426495D01*
X130155804Y-68402227D01*
X130161765Y-68378428D01*
X130170030Y-68355329D01*
X130180520Y-68333150D01*
X130193132Y-68312107D01*
X130207747Y-68292401D01*
X130224223Y-68274223D01*
X130242401Y-68257747D01*
X130262107Y-68243132D01*
X130283150Y-68230520D01*
X130305329Y-68220030D01*
X130328428Y-68211765D01*
X130352227Y-68205804D01*
X130376495Y-68202204D01*
X130400999Y-68201000D01*
X133251001Y-68201000D01*
X133275505Y-68202204D01*
X133275505Y-68202204D01*
G37*
D25*
G04 #@! TD*
G04 #@! TO.P,R1,2*
G04 #@! TO.N,GND*
X131826000Y-68876000D03*
D18*
G04 #@! TO.N,Net-(R1-Pad1)*
G04 #@! TO.C,R1*
G36*
X133275505Y-74002204D02*
X133299773Y-74005804D01*
X133323572Y-74011765D01*
X133346671Y-74020030D01*
X133368850Y-74030520D01*
X133389893Y-74043132D01*
X133409599Y-74057747D01*
X133427777Y-74074223D01*
X133444253Y-74092401D01*
X133458868Y-74112107D01*
X133471480Y-74133150D01*
X133481970Y-74155329D01*
X133490235Y-74178428D01*
X133496196Y-74202227D01*
X133499796Y-74226495D01*
X133501000Y-74250999D01*
X133501000Y-75101001D01*
X133499796Y-75125505D01*
X133496196Y-75149773D01*
X133490235Y-75173572D01*
X133481970Y-75196671D01*
X133471480Y-75218850D01*
X133458868Y-75239893D01*
X133444253Y-75259599D01*
X133427777Y-75277777D01*
X133409599Y-75294253D01*
X133389893Y-75308868D01*
X133368850Y-75321480D01*
X133346671Y-75331970D01*
X133323572Y-75340235D01*
X133299773Y-75346196D01*
X133275505Y-75349796D01*
X133251001Y-75351000D01*
X130400999Y-75351000D01*
X130376495Y-75349796D01*
X130352227Y-75346196D01*
X130328428Y-75340235D01*
X130305329Y-75331970D01*
X130283150Y-75321480D01*
X130262107Y-75308868D01*
X130242401Y-75294253D01*
X130224223Y-75277777D01*
X130207747Y-75259599D01*
X130193132Y-75239893D01*
X130180520Y-75218850D01*
X130170030Y-75196671D01*
X130161765Y-75173572D01*
X130155804Y-75149773D01*
X130152204Y-75125505D01*
X130151000Y-75101001D01*
X130151000Y-74250999D01*
X130152204Y-74226495D01*
X130155804Y-74202227D01*
X130161765Y-74178428D01*
X130170030Y-74155329D01*
X130180520Y-74133150D01*
X130193132Y-74112107D01*
X130207747Y-74092401D01*
X130224223Y-74074223D01*
X130242401Y-74057747D01*
X130262107Y-74043132D01*
X130283150Y-74030520D01*
X130305329Y-74020030D01*
X130328428Y-74011765D01*
X130352227Y-74005804D01*
X130376495Y-74002204D01*
X130400999Y-74001000D01*
X133251001Y-74001000D01*
X133275505Y-74002204D01*
X133275505Y-74002204D01*
G37*
D25*
G04 #@! TD*
G04 #@! TO.P,R1,1*
G04 #@! TO.N,Net-(R1-Pad1)*
X131826000Y-74676000D03*
D21*
G04 #@! TO.P,J2,1*
G04 #@! TO.N,VIN*
X107696000Y-69850000D03*
D22*
G04 #@! TO.P,J2,2*
X110236000Y-69850000D03*
G04 #@! TO.P,J2,3*
G04 #@! TO.N,GND*
X112776000Y-69850000D03*
G04 #@! TO.P,J2,4*
X115316000Y-69850000D03*
G04 #@! TD*
D18*
G04 #@! TO.N,Net-(C6-Pad1)*
G04 #@! TO.C,C6*
G36*
X123554642Y-84391174D02*
X123578303Y-84394684D01*
X123601507Y-84400496D01*
X123624029Y-84408554D01*
X123645653Y-84418782D01*
X123666170Y-84431079D01*
X123685383Y-84445329D01*
X123703107Y-84461393D01*
X123719171Y-84479117D01*
X123733421Y-84498330D01*
X123745718Y-84518847D01*
X123755946Y-84540471D01*
X123764004Y-84562993D01*
X123769816Y-84586197D01*
X123773326Y-84609858D01*
X123774500Y-84633750D01*
X123774500Y-85546250D01*
X123773326Y-85570142D01*
X123769816Y-85593803D01*
X123764004Y-85617007D01*
X123755946Y-85639529D01*
X123745718Y-85661153D01*
X123733421Y-85681670D01*
X123719171Y-85700883D01*
X123703107Y-85718607D01*
X123685383Y-85734671D01*
X123666170Y-85748921D01*
X123645653Y-85761218D01*
X123624029Y-85771446D01*
X123601507Y-85779504D01*
X123578303Y-85785316D01*
X123554642Y-85788826D01*
X123530750Y-85790000D01*
X123043250Y-85790000D01*
X123019358Y-85788826D01*
X122995697Y-85785316D01*
X122972493Y-85779504D01*
X122949971Y-85771446D01*
X122928347Y-85761218D01*
X122907830Y-85748921D01*
X122888617Y-85734671D01*
X122870893Y-85718607D01*
X122854829Y-85700883D01*
X122840579Y-85681670D01*
X122828282Y-85661153D01*
X122818054Y-85639529D01*
X122809996Y-85617007D01*
X122804184Y-85593803D01*
X122800674Y-85570142D01*
X122799500Y-85546250D01*
X122799500Y-84633750D01*
X122800674Y-84609858D01*
X122804184Y-84586197D01*
X122809996Y-84562993D01*
X122818054Y-84540471D01*
X122828282Y-84518847D01*
X122840579Y-84498330D01*
X122854829Y-84479117D01*
X122870893Y-84461393D01*
X122888617Y-84445329D01*
X122907830Y-84431079D01*
X122928347Y-84418782D01*
X122949971Y-84408554D01*
X122972493Y-84400496D01*
X122995697Y-84394684D01*
X123019358Y-84391174D01*
X123043250Y-84390000D01*
X123530750Y-84390000D01*
X123554642Y-84391174D01*
X123554642Y-84391174D01*
G37*
D28*
G04 #@! TD*
G04 #@! TO.P,C6,1*
G04 #@! TO.N,Net-(C6-Pad1)*
X123287000Y-85090000D03*
D18*
G04 #@! TO.N,Net-(C6-Pad2)*
G04 #@! TO.C,C6*
G36*
X121679642Y-84391174D02*
X121703303Y-84394684D01*
X121726507Y-84400496D01*
X121749029Y-84408554D01*
X121770653Y-84418782D01*
X121791170Y-84431079D01*
X121810383Y-84445329D01*
X121828107Y-84461393D01*
X121844171Y-84479117D01*
X121858421Y-84498330D01*
X121870718Y-84518847D01*
X121880946Y-84540471D01*
X121889004Y-84562993D01*
X121894816Y-84586197D01*
X121898326Y-84609858D01*
X121899500Y-84633750D01*
X121899500Y-85546250D01*
X121898326Y-85570142D01*
X121894816Y-85593803D01*
X121889004Y-85617007D01*
X121880946Y-85639529D01*
X121870718Y-85661153D01*
X121858421Y-85681670D01*
X121844171Y-85700883D01*
X121828107Y-85718607D01*
X121810383Y-85734671D01*
X121791170Y-85748921D01*
X121770653Y-85761218D01*
X121749029Y-85771446D01*
X121726507Y-85779504D01*
X121703303Y-85785316D01*
X121679642Y-85788826D01*
X121655750Y-85790000D01*
X121168250Y-85790000D01*
X121144358Y-85788826D01*
X121120697Y-85785316D01*
X121097493Y-85779504D01*
X121074971Y-85771446D01*
X121053347Y-85761218D01*
X121032830Y-85748921D01*
X121013617Y-85734671D01*
X120995893Y-85718607D01*
X120979829Y-85700883D01*
X120965579Y-85681670D01*
X120953282Y-85661153D01*
X120943054Y-85639529D01*
X120934996Y-85617007D01*
X120929184Y-85593803D01*
X120925674Y-85570142D01*
X120924500Y-85546250D01*
X120924500Y-84633750D01*
X120925674Y-84609858D01*
X120929184Y-84586197D01*
X120934996Y-84562993D01*
X120943054Y-84540471D01*
X120953282Y-84518847D01*
X120965579Y-84498330D01*
X120979829Y-84479117D01*
X120995893Y-84461393D01*
X121013617Y-84445329D01*
X121032830Y-84431079D01*
X121053347Y-84418782D01*
X121074971Y-84408554D01*
X121097493Y-84400496D01*
X121120697Y-84394684D01*
X121144358Y-84391174D01*
X121168250Y-84390000D01*
X121655750Y-84390000D01*
X121679642Y-84391174D01*
X121679642Y-84391174D01*
G37*
D28*
G04 #@! TD*
G04 #@! TO.P,C6,2*
G04 #@! TO.N,Net-(C6-Pad2)*
X121412000Y-85090000D03*
D29*
G04 #@! TO.P,C8,1*
G04 #@! TO.N,VIN*
X147574000Y-100450000D03*
D30*
G04 #@! TO.P,C8,2*
G04 #@! TO.N,GND*
X147574000Y-107950000D03*
G04 #@! TD*
D18*
G04 #@! TO.N,VIN*
G04 #@! TO.C,C3*
G36*
X145204642Y-93027174D02*
X145228303Y-93030684D01*
X145251507Y-93036496D01*
X145274029Y-93044554D01*
X145295653Y-93054782D01*
X145316170Y-93067079D01*
X145335383Y-93081329D01*
X145353107Y-93097393D01*
X145369171Y-93115117D01*
X145383421Y-93134330D01*
X145395718Y-93154847D01*
X145405946Y-93176471D01*
X145414004Y-93198993D01*
X145419816Y-93222197D01*
X145423326Y-93245858D01*
X145424500Y-93269750D01*
X145424500Y-94182250D01*
X145423326Y-94206142D01*
X145419816Y-94229803D01*
X145414004Y-94253007D01*
X145405946Y-94275529D01*
X145395718Y-94297153D01*
X145383421Y-94317670D01*
X145369171Y-94336883D01*
X145353107Y-94354607D01*
X145335383Y-94370671D01*
X145316170Y-94384921D01*
X145295653Y-94397218D01*
X145274029Y-94407446D01*
X145251507Y-94415504D01*
X145228303Y-94421316D01*
X145204642Y-94424826D01*
X145180750Y-94426000D01*
X144693250Y-94426000D01*
X144669358Y-94424826D01*
X144645697Y-94421316D01*
X144622493Y-94415504D01*
X144599971Y-94407446D01*
X144578347Y-94397218D01*
X144557830Y-94384921D01*
X144538617Y-94370671D01*
X144520893Y-94354607D01*
X144504829Y-94336883D01*
X144490579Y-94317670D01*
X144478282Y-94297153D01*
X144468054Y-94275529D01*
X144459996Y-94253007D01*
X144454184Y-94229803D01*
X144450674Y-94206142D01*
X144449500Y-94182250D01*
X144449500Y-93269750D01*
X144450674Y-93245858D01*
X144454184Y-93222197D01*
X144459996Y-93198993D01*
X144468054Y-93176471D01*
X144478282Y-93154847D01*
X144490579Y-93134330D01*
X144504829Y-93115117D01*
X144520893Y-93097393D01*
X144538617Y-93081329D01*
X144557830Y-93067079D01*
X144578347Y-93054782D01*
X144599971Y-93044554D01*
X144622493Y-93036496D01*
X144645697Y-93030684D01*
X144669358Y-93027174D01*
X144693250Y-93026000D01*
X145180750Y-93026000D01*
X145204642Y-93027174D01*
X145204642Y-93027174D01*
G37*
D28*
G04 #@! TD*
G04 #@! TO.P,C3,1*
G04 #@! TO.N,VIN*
X144937000Y-93726000D03*
D18*
G04 #@! TO.N,GND*
G04 #@! TO.C,C3*
G36*
X147079642Y-93027174D02*
X147103303Y-93030684D01*
X147126507Y-93036496D01*
X147149029Y-93044554D01*
X147170653Y-93054782D01*
X147191170Y-93067079D01*
X147210383Y-93081329D01*
X147228107Y-93097393D01*
X147244171Y-93115117D01*
X147258421Y-93134330D01*
X147270718Y-93154847D01*
X147280946Y-93176471D01*
X147289004Y-93198993D01*
X147294816Y-93222197D01*
X147298326Y-93245858D01*
X147299500Y-93269750D01*
X147299500Y-94182250D01*
X147298326Y-94206142D01*
X147294816Y-94229803D01*
X147289004Y-94253007D01*
X147280946Y-94275529D01*
X147270718Y-94297153D01*
X147258421Y-94317670D01*
X147244171Y-94336883D01*
X147228107Y-94354607D01*
X147210383Y-94370671D01*
X147191170Y-94384921D01*
X147170653Y-94397218D01*
X147149029Y-94407446D01*
X147126507Y-94415504D01*
X147103303Y-94421316D01*
X147079642Y-94424826D01*
X147055750Y-94426000D01*
X146568250Y-94426000D01*
X146544358Y-94424826D01*
X146520697Y-94421316D01*
X146497493Y-94415504D01*
X146474971Y-94407446D01*
X146453347Y-94397218D01*
X146432830Y-94384921D01*
X146413617Y-94370671D01*
X146395893Y-94354607D01*
X146379829Y-94336883D01*
X146365579Y-94317670D01*
X146353282Y-94297153D01*
X146343054Y-94275529D01*
X146334996Y-94253007D01*
X146329184Y-94229803D01*
X146325674Y-94206142D01*
X146324500Y-94182250D01*
X146324500Y-93269750D01*
X146325674Y-93245858D01*
X146329184Y-93222197D01*
X146334996Y-93198993D01*
X146343054Y-93176471D01*
X146353282Y-93154847D01*
X146365579Y-93134330D01*
X146379829Y-93115117D01*
X146395893Y-93097393D01*
X146413617Y-93081329D01*
X146432830Y-93067079D01*
X146453347Y-93054782D01*
X146474971Y-93044554D01*
X146497493Y-93036496D01*
X146520697Y-93030684D01*
X146544358Y-93027174D01*
X146568250Y-93026000D01*
X147055750Y-93026000D01*
X147079642Y-93027174D01*
X147079642Y-93027174D01*
G37*
D28*
G04 #@! TD*
G04 #@! TO.P,C3,2*
G04 #@! TO.N,GND*
X146812000Y-93726000D03*
D18*
G04 #@! TO.N,GND*
G04 #@! TO.C,C2*
G36*
X146922642Y-79057174D02*
X146946303Y-79060684D01*
X146969507Y-79066496D01*
X146992029Y-79074554D01*
X147013653Y-79084782D01*
X147034170Y-79097079D01*
X147053383Y-79111329D01*
X147071107Y-79127393D01*
X147087171Y-79145117D01*
X147101421Y-79164330D01*
X147113718Y-79184847D01*
X147123946Y-79206471D01*
X147132004Y-79228993D01*
X147137816Y-79252197D01*
X147141326Y-79275858D01*
X147142500Y-79299750D01*
X147142500Y-80212250D01*
X147141326Y-80236142D01*
X147137816Y-80259803D01*
X147132004Y-80283007D01*
X147123946Y-80305529D01*
X147113718Y-80327153D01*
X147101421Y-80347670D01*
X147087171Y-80366883D01*
X147071107Y-80384607D01*
X147053383Y-80400671D01*
X147034170Y-80414921D01*
X147013653Y-80427218D01*
X146992029Y-80437446D01*
X146969507Y-80445504D01*
X146946303Y-80451316D01*
X146922642Y-80454826D01*
X146898750Y-80456000D01*
X146411250Y-80456000D01*
X146387358Y-80454826D01*
X146363697Y-80451316D01*
X146340493Y-80445504D01*
X146317971Y-80437446D01*
X146296347Y-80427218D01*
X146275830Y-80414921D01*
X146256617Y-80400671D01*
X146238893Y-80384607D01*
X146222829Y-80366883D01*
X146208579Y-80347670D01*
X146196282Y-80327153D01*
X146186054Y-80305529D01*
X146177996Y-80283007D01*
X146172184Y-80259803D01*
X146168674Y-80236142D01*
X146167500Y-80212250D01*
X146167500Y-79299750D01*
X146168674Y-79275858D01*
X146172184Y-79252197D01*
X146177996Y-79228993D01*
X146186054Y-79206471D01*
X146196282Y-79184847D01*
X146208579Y-79164330D01*
X146222829Y-79145117D01*
X146238893Y-79127393D01*
X146256617Y-79111329D01*
X146275830Y-79097079D01*
X146296347Y-79084782D01*
X146317971Y-79074554D01*
X146340493Y-79066496D01*
X146363697Y-79060684D01*
X146387358Y-79057174D01*
X146411250Y-79056000D01*
X146898750Y-79056000D01*
X146922642Y-79057174D01*
X146922642Y-79057174D01*
G37*
D28*
G04 #@! TD*
G04 #@! TO.P,C2,2*
G04 #@! TO.N,GND*
X146655000Y-79756000D03*
D18*
G04 #@! TO.N,VIN*
G04 #@! TO.C,C2*
G36*
X145047642Y-79057174D02*
X145071303Y-79060684D01*
X145094507Y-79066496D01*
X145117029Y-79074554D01*
X145138653Y-79084782D01*
X145159170Y-79097079D01*
X145178383Y-79111329D01*
X145196107Y-79127393D01*
X145212171Y-79145117D01*
X145226421Y-79164330D01*
X145238718Y-79184847D01*
X145248946Y-79206471D01*
X145257004Y-79228993D01*
X145262816Y-79252197D01*
X145266326Y-79275858D01*
X145267500Y-79299750D01*
X145267500Y-80212250D01*
X145266326Y-80236142D01*
X145262816Y-80259803D01*
X145257004Y-80283007D01*
X145248946Y-80305529D01*
X145238718Y-80327153D01*
X145226421Y-80347670D01*
X145212171Y-80366883D01*
X145196107Y-80384607D01*
X145178383Y-80400671D01*
X145159170Y-80414921D01*
X145138653Y-80427218D01*
X145117029Y-80437446D01*
X145094507Y-80445504D01*
X145071303Y-80451316D01*
X145047642Y-80454826D01*
X145023750Y-80456000D01*
X144536250Y-80456000D01*
X144512358Y-80454826D01*
X144488697Y-80451316D01*
X144465493Y-80445504D01*
X144442971Y-80437446D01*
X144421347Y-80427218D01*
X144400830Y-80414921D01*
X144381617Y-80400671D01*
X144363893Y-80384607D01*
X144347829Y-80366883D01*
X144333579Y-80347670D01*
X144321282Y-80327153D01*
X144311054Y-80305529D01*
X144302996Y-80283007D01*
X144297184Y-80259803D01*
X144293674Y-80236142D01*
X144292500Y-80212250D01*
X144292500Y-79299750D01*
X144293674Y-79275858D01*
X144297184Y-79252197D01*
X144302996Y-79228993D01*
X144311054Y-79206471D01*
X144321282Y-79184847D01*
X144333579Y-79164330D01*
X144347829Y-79145117D01*
X144363893Y-79127393D01*
X144381617Y-79111329D01*
X144400830Y-79097079D01*
X144421347Y-79084782D01*
X144442971Y-79074554D01*
X144465493Y-79066496D01*
X144488697Y-79060684D01*
X144512358Y-79057174D01*
X144536250Y-79056000D01*
X145023750Y-79056000D01*
X145047642Y-79057174D01*
X145047642Y-79057174D01*
G37*
D28*
G04 #@! TD*
G04 #@! TO.P,C2,1*
G04 #@! TO.N,VIN*
X144780000Y-79756000D03*
D30*
G04 #@! TO.P,C7,2*
G04 #@! TO.N,GND*
X147574000Y-64770000D03*
D29*
G04 #@! TO.P,C7,1*
G04 #@! TO.N,VIN*
X147574000Y-72270000D03*
G04 #@! TD*
D18*
G04 #@! TO.N,GND*
G04 #@! TO.C,R4*
G36*
X137339505Y-103678204D02*
X137363773Y-103681804D01*
X137387572Y-103687765D01*
X137410671Y-103696030D01*
X137432850Y-103706520D01*
X137453893Y-103719132D01*
X137473599Y-103733747D01*
X137491777Y-103750223D01*
X137508253Y-103768401D01*
X137522868Y-103788107D01*
X137535480Y-103809150D01*
X137545970Y-103831329D01*
X137554235Y-103854428D01*
X137560196Y-103878227D01*
X137563796Y-103902495D01*
X137565000Y-103926999D01*
X137565000Y-104777001D01*
X137563796Y-104801505D01*
X137560196Y-104825773D01*
X137554235Y-104849572D01*
X137545970Y-104872671D01*
X137535480Y-104894850D01*
X137522868Y-104915893D01*
X137508253Y-104935599D01*
X137491777Y-104953777D01*
X137473599Y-104970253D01*
X137453893Y-104984868D01*
X137432850Y-104997480D01*
X137410671Y-105007970D01*
X137387572Y-105016235D01*
X137363773Y-105022196D01*
X137339505Y-105025796D01*
X137315001Y-105027000D01*
X134464999Y-105027000D01*
X134440495Y-105025796D01*
X134416227Y-105022196D01*
X134392428Y-105016235D01*
X134369329Y-105007970D01*
X134347150Y-104997480D01*
X134326107Y-104984868D01*
X134306401Y-104970253D01*
X134288223Y-104953777D01*
X134271747Y-104935599D01*
X134257132Y-104915893D01*
X134244520Y-104894850D01*
X134234030Y-104872671D01*
X134225765Y-104849572D01*
X134219804Y-104825773D01*
X134216204Y-104801505D01*
X134215000Y-104777001D01*
X134215000Y-103926999D01*
X134216204Y-103902495D01*
X134219804Y-103878227D01*
X134225765Y-103854428D01*
X134234030Y-103831329D01*
X134244520Y-103809150D01*
X134257132Y-103788107D01*
X134271747Y-103768401D01*
X134288223Y-103750223D01*
X134306401Y-103733747D01*
X134326107Y-103719132D01*
X134347150Y-103706520D01*
X134369329Y-103696030D01*
X134392428Y-103687765D01*
X134416227Y-103681804D01*
X134440495Y-103678204D01*
X134464999Y-103677000D01*
X137315001Y-103677000D01*
X137339505Y-103678204D01*
X137339505Y-103678204D01*
G37*
D25*
G04 #@! TD*
G04 #@! TO.P,R4,2*
G04 #@! TO.N,GND*
X135890000Y-104352000D03*
D18*
G04 #@! TO.N,Net-(R3-Pad1)*
G04 #@! TO.C,R4*
G36*
X137339505Y-97878204D02*
X137363773Y-97881804D01*
X137387572Y-97887765D01*
X137410671Y-97896030D01*
X137432850Y-97906520D01*
X137453893Y-97919132D01*
X137473599Y-97933747D01*
X137491777Y-97950223D01*
X137508253Y-97968401D01*
X137522868Y-97988107D01*
X137535480Y-98009150D01*
X137545970Y-98031329D01*
X137554235Y-98054428D01*
X137560196Y-98078227D01*
X137563796Y-98102495D01*
X137565000Y-98126999D01*
X137565000Y-98977001D01*
X137563796Y-99001505D01*
X137560196Y-99025773D01*
X137554235Y-99049572D01*
X137545970Y-99072671D01*
X137535480Y-99094850D01*
X137522868Y-99115893D01*
X137508253Y-99135599D01*
X137491777Y-99153777D01*
X137473599Y-99170253D01*
X137453893Y-99184868D01*
X137432850Y-99197480D01*
X137410671Y-99207970D01*
X137387572Y-99216235D01*
X137363773Y-99222196D01*
X137339505Y-99225796D01*
X137315001Y-99227000D01*
X134464999Y-99227000D01*
X134440495Y-99225796D01*
X134416227Y-99222196D01*
X134392428Y-99216235D01*
X134369329Y-99207970D01*
X134347150Y-99197480D01*
X134326107Y-99184868D01*
X134306401Y-99170253D01*
X134288223Y-99153777D01*
X134271747Y-99135599D01*
X134257132Y-99115893D01*
X134244520Y-99094850D01*
X134234030Y-99072671D01*
X134225765Y-99049572D01*
X134219804Y-99025773D01*
X134216204Y-99001505D01*
X134215000Y-98977001D01*
X134215000Y-98126999D01*
X134216204Y-98102495D01*
X134219804Y-98078227D01*
X134225765Y-98054428D01*
X134234030Y-98031329D01*
X134244520Y-98009150D01*
X134257132Y-97988107D01*
X134271747Y-97968401D01*
X134288223Y-97950223D01*
X134306401Y-97933747D01*
X134326107Y-97919132D01*
X134347150Y-97906520D01*
X134369329Y-97896030D01*
X134392428Y-97887765D01*
X134416227Y-97881804D01*
X134440495Y-97878204D01*
X134464999Y-97877000D01*
X137315001Y-97877000D01*
X137339505Y-97878204D01*
X137339505Y-97878204D01*
G37*
D25*
G04 #@! TD*
G04 #@! TO.P,R4,1*
G04 #@! TO.N,Net-(R3-Pad1)*
X135890000Y-98552000D03*
D18*
G04 #@! TO.N,VIN*
G04 #@! TO.C,C1*
G36*
X128242142Y-71746674D02*
X128265803Y-71750184D01*
X128289007Y-71755996D01*
X128311529Y-71764054D01*
X128333153Y-71774282D01*
X128353670Y-71786579D01*
X128372883Y-71800829D01*
X128390607Y-71816893D01*
X128406671Y-71834617D01*
X128420921Y-71853830D01*
X128433218Y-71874347D01*
X128443446Y-71895971D01*
X128451504Y-71918493D01*
X128457316Y-71941697D01*
X128460826Y-71965358D01*
X128462000Y-71989250D01*
X128462000Y-72476750D01*
X128460826Y-72500642D01*
X128457316Y-72524303D01*
X128451504Y-72547507D01*
X128443446Y-72570029D01*
X128433218Y-72591653D01*
X128420921Y-72612170D01*
X128406671Y-72631383D01*
X128390607Y-72649107D01*
X128372883Y-72665171D01*
X128353670Y-72679421D01*
X128333153Y-72691718D01*
X128311529Y-72701946D01*
X128289007Y-72710004D01*
X128265803Y-72715816D01*
X128242142Y-72719326D01*
X128218250Y-72720500D01*
X127305750Y-72720500D01*
X127281858Y-72719326D01*
X127258197Y-72715816D01*
X127234993Y-72710004D01*
X127212471Y-72701946D01*
X127190847Y-72691718D01*
X127170330Y-72679421D01*
X127151117Y-72665171D01*
X127133393Y-72649107D01*
X127117329Y-72631383D01*
X127103079Y-72612170D01*
X127090782Y-72591653D01*
X127080554Y-72570029D01*
X127072496Y-72547507D01*
X127066684Y-72524303D01*
X127063174Y-72500642D01*
X127062000Y-72476750D01*
X127062000Y-71989250D01*
X127063174Y-71965358D01*
X127066684Y-71941697D01*
X127072496Y-71918493D01*
X127080554Y-71895971D01*
X127090782Y-71874347D01*
X127103079Y-71853830D01*
X127117329Y-71834617D01*
X127133393Y-71816893D01*
X127151117Y-71800829D01*
X127170330Y-71786579D01*
X127190847Y-71774282D01*
X127212471Y-71764054D01*
X127234993Y-71755996D01*
X127258197Y-71750184D01*
X127281858Y-71746674D01*
X127305750Y-71745500D01*
X128218250Y-71745500D01*
X128242142Y-71746674D01*
X128242142Y-71746674D01*
G37*
D28*
G04 #@! TD*
G04 #@! TO.P,C1,1*
G04 #@! TO.N,VIN*
X127762000Y-72233000D03*
D18*
G04 #@! TO.N,GND*
G04 #@! TO.C,C1*
G36*
X128242142Y-69871674D02*
X128265803Y-69875184D01*
X128289007Y-69880996D01*
X128311529Y-69889054D01*
X128333153Y-69899282D01*
X128353670Y-69911579D01*
X128372883Y-69925829D01*
X128390607Y-69941893D01*
X128406671Y-69959617D01*
X128420921Y-69978830D01*
X128433218Y-69999347D01*
X128443446Y-70020971D01*
X128451504Y-70043493D01*
X128457316Y-70066697D01*
X128460826Y-70090358D01*
X128462000Y-70114250D01*
X128462000Y-70601750D01*
X128460826Y-70625642D01*
X128457316Y-70649303D01*
X128451504Y-70672507D01*
X128443446Y-70695029D01*
X128433218Y-70716653D01*
X128420921Y-70737170D01*
X128406671Y-70756383D01*
X128390607Y-70774107D01*
X128372883Y-70790171D01*
X128353670Y-70804421D01*
X128333153Y-70816718D01*
X128311529Y-70826946D01*
X128289007Y-70835004D01*
X128265803Y-70840816D01*
X128242142Y-70844326D01*
X128218250Y-70845500D01*
X127305750Y-70845500D01*
X127281858Y-70844326D01*
X127258197Y-70840816D01*
X127234993Y-70835004D01*
X127212471Y-70826946D01*
X127190847Y-70816718D01*
X127170330Y-70804421D01*
X127151117Y-70790171D01*
X127133393Y-70774107D01*
X127117329Y-70756383D01*
X127103079Y-70737170D01*
X127090782Y-70716653D01*
X127080554Y-70695029D01*
X127072496Y-70672507D01*
X127066684Y-70649303D01*
X127063174Y-70625642D01*
X127062000Y-70601750D01*
X127062000Y-70114250D01*
X127063174Y-70090358D01*
X127066684Y-70066697D01*
X127072496Y-70043493D01*
X127080554Y-70020971D01*
X127090782Y-69999347D01*
X127103079Y-69978830D01*
X127117329Y-69959617D01*
X127133393Y-69941893D01*
X127151117Y-69925829D01*
X127170330Y-69911579D01*
X127190847Y-69899282D01*
X127212471Y-69889054D01*
X127234993Y-69880996D01*
X127258197Y-69875184D01*
X127281858Y-69871674D01*
X127305750Y-69870500D01*
X128218250Y-69870500D01*
X128242142Y-69871674D01*
X128242142Y-69871674D01*
G37*
D28*
G04 #@! TD*
G04 #@! TO.P,C1,2*
G04 #@! TO.N,GND*
X127762000Y-70358000D03*
D18*
G04 #@! TO.N,Net-(C5-Pad2)*
G04 #@! TO.C,C5*
G36*
X121237642Y-78803174D02*
X121261303Y-78806684D01*
X121284507Y-78812496D01*
X121307029Y-78820554D01*
X121328653Y-78830782D01*
X121349170Y-78843079D01*
X121368383Y-78857329D01*
X121386107Y-78873393D01*
X121402171Y-78891117D01*
X121416421Y-78910330D01*
X121428718Y-78930847D01*
X121438946Y-78952471D01*
X121447004Y-78974993D01*
X121452816Y-78998197D01*
X121456326Y-79021858D01*
X121457500Y-79045750D01*
X121457500Y-79958250D01*
X121456326Y-79982142D01*
X121452816Y-80005803D01*
X121447004Y-80029007D01*
X121438946Y-80051529D01*
X121428718Y-80073153D01*
X121416421Y-80093670D01*
X121402171Y-80112883D01*
X121386107Y-80130607D01*
X121368383Y-80146671D01*
X121349170Y-80160921D01*
X121328653Y-80173218D01*
X121307029Y-80183446D01*
X121284507Y-80191504D01*
X121261303Y-80197316D01*
X121237642Y-80200826D01*
X121213750Y-80202000D01*
X120726250Y-80202000D01*
X120702358Y-80200826D01*
X120678697Y-80197316D01*
X120655493Y-80191504D01*
X120632971Y-80183446D01*
X120611347Y-80173218D01*
X120590830Y-80160921D01*
X120571617Y-80146671D01*
X120553893Y-80130607D01*
X120537829Y-80112883D01*
X120523579Y-80093670D01*
X120511282Y-80073153D01*
X120501054Y-80051529D01*
X120492996Y-80029007D01*
X120487184Y-80005803D01*
X120483674Y-79982142D01*
X120482500Y-79958250D01*
X120482500Y-79045750D01*
X120483674Y-79021858D01*
X120487184Y-78998197D01*
X120492996Y-78974993D01*
X120501054Y-78952471D01*
X120511282Y-78930847D01*
X120523579Y-78910330D01*
X120537829Y-78891117D01*
X120553893Y-78873393D01*
X120571617Y-78857329D01*
X120590830Y-78843079D01*
X120611347Y-78830782D01*
X120632971Y-78820554D01*
X120655493Y-78812496D01*
X120678697Y-78806684D01*
X120702358Y-78803174D01*
X120726250Y-78802000D01*
X121213750Y-78802000D01*
X121237642Y-78803174D01*
X121237642Y-78803174D01*
G37*
D28*
G04 #@! TD*
G04 #@! TO.P,C5,2*
G04 #@! TO.N,Net-(C5-Pad2)*
X120970000Y-79502000D03*
D18*
G04 #@! TO.N,VIN*
G04 #@! TO.C,C5*
G36*
X123112642Y-78803174D02*
X123136303Y-78806684D01*
X123159507Y-78812496D01*
X123182029Y-78820554D01*
X123203653Y-78830782D01*
X123224170Y-78843079D01*
X123243383Y-78857329D01*
X123261107Y-78873393D01*
X123277171Y-78891117D01*
X123291421Y-78910330D01*
X123303718Y-78930847D01*
X123313946Y-78952471D01*
X123322004Y-78974993D01*
X123327816Y-78998197D01*
X123331326Y-79021858D01*
X123332500Y-79045750D01*
X123332500Y-79958250D01*
X123331326Y-79982142D01*
X123327816Y-80005803D01*
X123322004Y-80029007D01*
X123313946Y-80051529D01*
X123303718Y-80073153D01*
X123291421Y-80093670D01*
X123277171Y-80112883D01*
X123261107Y-80130607D01*
X123243383Y-80146671D01*
X123224170Y-80160921D01*
X123203653Y-80173218D01*
X123182029Y-80183446D01*
X123159507Y-80191504D01*
X123136303Y-80197316D01*
X123112642Y-80200826D01*
X123088750Y-80202000D01*
X122601250Y-80202000D01*
X122577358Y-80200826D01*
X122553697Y-80197316D01*
X122530493Y-80191504D01*
X122507971Y-80183446D01*
X122486347Y-80173218D01*
X122465830Y-80160921D01*
X122446617Y-80146671D01*
X122428893Y-80130607D01*
X122412829Y-80112883D01*
X122398579Y-80093670D01*
X122386282Y-80073153D01*
X122376054Y-80051529D01*
X122367996Y-80029007D01*
X122362184Y-80005803D01*
X122358674Y-79982142D01*
X122357500Y-79958250D01*
X122357500Y-79045750D01*
X122358674Y-79021858D01*
X122362184Y-78998197D01*
X122367996Y-78974993D01*
X122376054Y-78952471D01*
X122386282Y-78930847D01*
X122398579Y-78910330D01*
X122412829Y-78891117D01*
X122428893Y-78873393D01*
X122446617Y-78857329D01*
X122465830Y-78843079D01*
X122486347Y-78830782D01*
X122507971Y-78820554D01*
X122530493Y-78812496D01*
X122553697Y-78806684D01*
X122577358Y-78803174D01*
X122601250Y-78802000D01*
X123088750Y-78802000D01*
X123112642Y-78803174D01*
X123112642Y-78803174D01*
G37*
D28*
G04 #@! TD*
G04 #@! TO.P,C5,1*
G04 #@! TO.N,VIN*
X122845000Y-79502000D03*
D18*
G04 #@! TO.N,GND*
G04 #@! TO.C,C4*
G36*
X128242142Y-102637674D02*
X128265803Y-102641184D01*
X128289007Y-102646996D01*
X128311529Y-102655054D01*
X128333153Y-102665282D01*
X128353670Y-102677579D01*
X128372883Y-102691829D01*
X128390607Y-102707893D01*
X128406671Y-102725617D01*
X128420921Y-102744830D01*
X128433218Y-102765347D01*
X128443446Y-102786971D01*
X128451504Y-102809493D01*
X128457316Y-102832697D01*
X128460826Y-102856358D01*
X128462000Y-102880250D01*
X128462000Y-103367750D01*
X128460826Y-103391642D01*
X128457316Y-103415303D01*
X128451504Y-103438507D01*
X128443446Y-103461029D01*
X128433218Y-103482653D01*
X128420921Y-103503170D01*
X128406671Y-103522383D01*
X128390607Y-103540107D01*
X128372883Y-103556171D01*
X128353670Y-103570421D01*
X128333153Y-103582718D01*
X128311529Y-103592946D01*
X128289007Y-103601004D01*
X128265803Y-103606816D01*
X128242142Y-103610326D01*
X128218250Y-103611500D01*
X127305750Y-103611500D01*
X127281858Y-103610326D01*
X127258197Y-103606816D01*
X127234993Y-103601004D01*
X127212471Y-103592946D01*
X127190847Y-103582718D01*
X127170330Y-103570421D01*
X127151117Y-103556171D01*
X127133393Y-103540107D01*
X127117329Y-103522383D01*
X127103079Y-103503170D01*
X127090782Y-103482653D01*
X127080554Y-103461029D01*
X127072496Y-103438507D01*
X127066684Y-103415303D01*
X127063174Y-103391642D01*
X127062000Y-103367750D01*
X127062000Y-102880250D01*
X127063174Y-102856358D01*
X127066684Y-102832697D01*
X127072496Y-102809493D01*
X127080554Y-102786971D01*
X127090782Y-102765347D01*
X127103079Y-102744830D01*
X127117329Y-102725617D01*
X127133393Y-102707893D01*
X127151117Y-102691829D01*
X127170330Y-102677579D01*
X127190847Y-102665282D01*
X127212471Y-102655054D01*
X127234993Y-102646996D01*
X127258197Y-102641184D01*
X127281858Y-102637674D01*
X127305750Y-102636500D01*
X128218250Y-102636500D01*
X128242142Y-102637674D01*
X128242142Y-102637674D01*
G37*
D28*
G04 #@! TD*
G04 #@! TO.P,C4,2*
G04 #@! TO.N,GND*
X127762000Y-103124000D03*
D18*
G04 #@! TO.N,VIN*
G04 #@! TO.C,C4*
G36*
X128242142Y-100762674D02*
X128265803Y-100766184D01*
X128289007Y-100771996D01*
X128311529Y-100780054D01*
X128333153Y-100790282D01*
X128353670Y-100802579D01*
X128372883Y-100816829D01*
X128390607Y-100832893D01*
X128406671Y-100850617D01*
X128420921Y-100869830D01*
X128433218Y-100890347D01*
X128443446Y-100911971D01*
X128451504Y-100934493D01*
X128457316Y-100957697D01*
X128460826Y-100981358D01*
X128462000Y-101005250D01*
X128462000Y-101492750D01*
X128460826Y-101516642D01*
X128457316Y-101540303D01*
X128451504Y-101563507D01*
X128443446Y-101586029D01*
X128433218Y-101607653D01*
X128420921Y-101628170D01*
X128406671Y-101647383D01*
X128390607Y-101665107D01*
X128372883Y-101681171D01*
X128353670Y-101695421D01*
X128333153Y-101707718D01*
X128311529Y-101717946D01*
X128289007Y-101726004D01*
X128265803Y-101731816D01*
X128242142Y-101735326D01*
X128218250Y-101736500D01*
X127305750Y-101736500D01*
X127281858Y-101735326D01*
X127258197Y-101731816D01*
X127234993Y-101726004D01*
X127212471Y-101717946D01*
X127190847Y-101707718D01*
X127170330Y-101695421D01*
X127151117Y-101681171D01*
X127133393Y-101665107D01*
X127117329Y-101647383D01*
X127103079Y-101628170D01*
X127090782Y-101607653D01*
X127080554Y-101586029D01*
X127072496Y-101563507D01*
X127066684Y-101540303D01*
X127063174Y-101516642D01*
X127062000Y-101492750D01*
X127062000Y-101005250D01*
X127063174Y-100981358D01*
X127066684Y-100957697D01*
X127072496Y-100934493D01*
X127080554Y-100911971D01*
X127090782Y-100890347D01*
X127103079Y-100869830D01*
X127117329Y-100850617D01*
X127133393Y-100832893D01*
X127151117Y-100816829D01*
X127170330Y-100802579D01*
X127190847Y-100790282D01*
X127212471Y-100780054D01*
X127234993Y-100771996D01*
X127258197Y-100766184D01*
X127281858Y-100762674D01*
X127305750Y-100761500D01*
X128218250Y-100761500D01*
X128242142Y-100762674D01*
X128242142Y-100762674D01*
G37*
D28*
G04 #@! TD*
G04 #@! TO.P,C4,1*
G04 #@! TO.N,VIN*
X127762000Y-101249000D03*
D18*
G04 #@! TO.N,VSREG*
G04 #@! TO.C,C12*
G36*
X117625691Y-88209553D02*
X117646926Y-88212703D01*
X117667750Y-88217919D01*
X117687962Y-88225151D01*
X117707368Y-88234330D01*
X117725781Y-88245366D01*
X117743024Y-88258154D01*
X117758930Y-88272570D01*
X117773346Y-88288476D01*
X117786134Y-88305719D01*
X117797170Y-88324132D01*
X117806349Y-88343538D01*
X117813581Y-88363750D01*
X117818797Y-88384574D01*
X117821947Y-88405809D01*
X117823000Y-88427250D01*
X117823000Y-88864750D01*
X117821947Y-88886191D01*
X117818797Y-88907426D01*
X117813581Y-88928250D01*
X117806349Y-88948462D01*
X117797170Y-88967868D01*
X117786134Y-88986281D01*
X117773346Y-89003524D01*
X117758930Y-89019430D01*
X117743024Y-89033846D01*
X117725781Y-89046634D01*
X117707368Y-89057670D01*
X117687962Y-89066849D01*
X117667750Y-89074081D01*
X117646926Y-89079297D01*
X117625691Y-89082447D01*
X117604250Y-89083500D01*
X117091750Y-89083500D01*
X117070309Y-89082447D01*
X117049074Y-89079297D01*
X117028250Y-89074081D01*
X117008038Y-89066849D01*
X116988632Y-89057670D01*
X116970219Y-89046634D01*
X116952976Y-89033846D01*
X116937070Y-89019430D01*
X116922654Y-89003524D01*
X116909866Y-88986281D01*
X116898830Y-88967868D01*
X116889651Y-88948462D01*
X116882419Y-88928250D01*
X116877203Y-88907426D01*
X116874053Y-88886191D01*
X116873000Y-88864750D01*
X116873000Y-88427250D01*
X116874053Y-88405809D01*
X116877203Y-88384574D01*
X116882419Y-88363750D01*
X116889651Y-88343538D01*
X116898830Y-88324132D01*
X116909866Y-88305719D01*
X116922654Y-88288476D01*
X116937070Y-88272570D01*
X116952976Y-88258154D01*
X116970219Y-88245366D01*
X116988632Y-88234330D01*
X117008038Y-88225151D01*
X117028250Y-88217919D01*
X117049074Y-88212703D01*
X117070309Y-88209553D01*
X117091750Y-88208500D01*
X117604250Y-88208500D01*
X117625691Y-88209553D01*
X117625691Y-88209553D01*
G37*
D23*
G04 #@! TD*
G04 #@! TO.P,C12,1*
G04 #@! TO.N,VSREG*
X117348000Y-88646000D03*
D18*
G04 #@! TO.N,GND*
G04 #@! TO.C,C12*
G36*
X117625691Y-86634553D02*
X117646926Y-86637703D01*
X117667750Y-86642919D01*
X117687962Y-86650151D01*
X117707368Y-86659330D01*
X117725781Y-86670366D01*
X117743024Y-86683154D01*
X117758930Y-86697570D01*
X117773346Y-86713476D01*
X117786134Y-86730719D01*
X117797170Y-86749132D01*
X117806349Y-86768538D01*
X117813581Y-86788750D01*
X117818797Y-86809574D01*
X117821947Y-86830809D01*
X117823000Y-86852250D01*
X117823000Y-87289750D01*
X117821947Y-87311191D01*
X117818797Y-87332426D01*
X117813581Y-87353250D01*
X117806349Y-87373462D01*
X117797170Y-87392868D01*
X117786134Y-87411281D01*
X117773346Y-87428524D01*
X117758930Y-87444430D01*
X117743024Y-87458846D01*
X117725781Y-87471634D01*
X117707368Y-87482670D01*
X117687962Y-87491849D01*
X117667750Y-87499081D01*
X117646926Y-87504297D01*
X117625691Y-87507447D01*
X117604250Y-87508500D01*
X117091750Y-87508500D01*
X117070309Y-87507447D01*
X117049074Y-87504297D01*
X117028250Y-87499081D01*
X117008038Y-87491849D01*
X116988632Y-87482670D01*
X116970219Y-87471634D01*
X116952976Y-87458846D01*
X116937070Y-87444430D01*
X116922654Y-87428524D01*
X116909866Y-87411281D01*
X116898830Y-87392868D01*
X116889651Y-87373462D01*
X116882419Y-87353250D01*
X116877203Y-87332426D01*
X116874053Y-87311191D01*
X116873000Y-87289750D01*
X116873000Y-86852250D01*
X116874053Y-86830809D01*
X116877203Y-86809574D01*
X116882419Y-86788750D01*
X116889651Y-86768538D01*
X116898830Y-86749132D01*
X116909866Y-86730719D01*
X116922654Y-86713476D01*
X116937070Y-86697570D01*
X116952976Y-86683154D01*
X116970219Y-86670366D01*
X116988632Y-86659330D01*
X117008038Y-86650151D01*
X117028250Y-86642919D01*
X117049074Y-86637703D01*
X117070309Y-86634553D01*
X117091750Y-86633500D01*
X117604250Y-86633500D01*
X117625691Y-86634553D01*
X117625691Y-86634553D01*
G37*
D23*
G04 #@! TD*
G04 #@! TO.P,C12,2*
G04 #@! TO.N,GND*
X117348000Y-87071000D03*
D18*
G04 #@! TO.N,VREG*
G04 #@! TO.C,C14*
G36*
X121553504Y-90308204D02*
X121577773Y-90311804D01*
X121601571Y-90317765D01*
X121624671Y-90326030D01*
X121646849Y-90336520D01*
X121667893Y-90349133D01*
X121687598Y-90363747D01*
X121705777Y-90380223D01*
X121722253Y-90398402D01*
X121736867Y-90418107D01*
X121749480Y-90439151D01*
X121759970Y-90461329D01*
X121768235Y-90484429D01*
X121774196Y-90508227D01*
X121777796Y-90532496D01*
X121779000Y-90557000D01*
X121779000Y-91307000D01*
X121777796Y-91331504D01*
X121774196Y-91355773D01*
X121768235Y-91379571D01*
X121759970Y-91402671D01*
X121749480Y-91424849D01*
X121736867Y-91445893D01*
X121722253Y-91465598D01*
X121705777Y-91483777D01*
X121687598Y-91500253D01*
X121667893Y-91514867D01*
X121646849Y-91527480D01*
X121624671Y-91537970D01*
X121601571Y-91546235D01*
X121577773Y-91552196D01*
X121553504Y-91555796D01*
X121529000Y-91557000D01*
X120279000Y-91557000D01*
X120254496Y-91555796D01*
X120230227Y-91552196D01*
X120206429Y-91546235D01*
X120183329Y-91537970D01*
X120161151Y-91527480D01*
X120140107Y-91514867D01*
X120120402Y-91500253D01*
X120102223Y-91483777D01*
X120085747Y-91465598D01*
X120071133Y-91445893D01*
X120058520Y-91424849D01*
X120048030Y-91402671D01*
X120039765Y-91379571D01*
X120033804Y-91355773D01*
X120030204Y-91331504D01*
X120029000Y-91307000D01*
X120029000Y-90557000D01*
X120030204Y-90532496D01*
X120033804Y-90508227D01*
X120039765Y-90484429D01*
X120048030Y-90461329D01*
X120058520Y-90439151D01*
X120071133Y-90418107D01*
X120085747Y-90398402D01*
X120102223Y-90380223D01*
X120120402Y-90363747D01*
X120140107Y-90349133D01*
X120161151Y-90336520D01*
X120183329Y-90326030D01*
X120206429Y-90317765D01*
X120230227Y-90311804D01*
X120254496Y-90308204D01*
X120279000Y-90307000D01*
X121529000Y-90307000D01*
X121553504Y-90308204D01*
X121553504Y-90308204D01*
G37*
D19*
G04 #@! TD*
G04 #@! TO.P,C14,1*
G04 #@! TO.N,VREG*
X120904000Y-90932000D03*
D18*
G04 #@! TO.N,GND*
G04 #@! TO.C,C14*
G36*
X121553504Y-87508204D02*
X121577773Y-87511804D01*
X121601571Y-87517765D01*
X121624671Y-87526030D01*
X121646849Y-87536520D01*
X121667893Y-87549133D01*
X121687598Y-87563747D01*
X121705777Y-87580223D01*
X121722253Y-87598402D01*
X121736867Y-87618107D01*
X121749480Y-87639151D01*
X121759970Y-87661329D01*
X121768235Y-87684429D01*
X121774196Y-87708227D01*
X121777796Y-87732496D01*
X121779000Y-87757000D01*
X121779000Y-88507000D01*
X121777796Y-88531504D01*
X121774196Y-88555773D01*
X121768235Y-88579571D01*
X121759970Y-88602671D01*
X121749480Y-88624849D01*
X121736867Y-88645893D01*
X121722253Y-88665598D01*
X121705777Y-88683777D01*
X121687598Y-88700253D01*
X121667893Y-88714867D01*
X121646849Y-88727480D01*
X121624671Y-88737970D01*
X121601571Y-88746235D01*
X121577773Y-88752196D01*
X121553504Y-88755796D01*
X121529000Y-88757000D01*
X120279000Y-88757000D01*
X120254496Y-88755796D01*
X120230227Y-88752196D01*
X120206429Y-88746235D01*
X120183329Y-88737970D01*
X120161151Y-88727480D01*
X120140107Y-88714867D01*
X120120402Y-88700253D01*
X120102223Y-88683777D01*
X120085747Y-88665598D01*
X120071133Y-88645893D01*
X120058520Y-88624849D01*
X120048030Y-88602671D01*
X120039765Y-88579571D01*
X120033804Y-88555773D01*
X120030204Y-88531504D01*
X120029000Y-88507000D01*
X120029000Y-87757000D01*
X120030204Y-87732496D01*
X120033804Y-87708227D01*
X120039765Y-87684429D01*
X120048030Y-87661329D01*
X120058520Y-87639151D01*
X120071133Y-87618107D01*
X120085747Y-87598402D01*
X120102223Y-87580223D01*
X120120402Y-87563747D01*
X120140107Y-87549133D01*
X120161151Y-87536520D01*
X120183329Y-87526030D01*
X120206429Y-87517765D01*
X120230227Y-87511804D01*
X120254496Y-87508204D01*
X120279000Y-87507000D01*
X121529000Y-87507000D01*
X121553504Y-87508204D01*
X121553504Y-87508204D01*
G37*
D19*
G04 #@! TD*
G04 #@! TO.P,C14,2*
G04 #@! TO.N,GND*
X120904000Y-88132000D03*
D18*
G04 #@! TO.N,VCC*
G04 #@! TO.C,C10*
G36*
X119352142Y-82571674D02*
X119375803Y-82575184D01*
X119399007Y-82580996D01*
X119421529Y-82589054D01*
X119443153Y-82599282D01*
X119463670Y-82611579D01*
X119482883Y-82625829D01*
X119500607Y-82641893D01*
X119516671Y-82659617D01*
X119530921Y-82678830D01*
X119543218Y-82699347D01*
X119553446Y-82720971D01*
X119561504Y-82743493D01*
X119567316Y-82766697D01*
X119570826Y-82790358D01*
X119572000Y-82814250D01*
X119572000Y-83301750D01*
X119570826Y-83325642D01*
X119567316Y-83349303D01*
X119561504Y-83372507D01*
X119553446Y-83395029D01*
X119543218Y-83416653D01*
X119530921Y-83437170D01*
X119516671Y-83456383D01*
X119500607Y-83474107D01*
X119482883Y-83490171D01*
X119463670Y-83504421D01*
X119443153Y-83516718D01*
X119421529Y-83526946D01*
X119399007Y-83535004D01*
X119375803Y-83540816D01*
X119352142Y-83544326D01*
X119328250Y-83545500D01*
X118415750Y-83545500D01*
X118391858Y-83544326D01*
X118368197Y-83540816D01*
X118344993Y-83535004D01*
X118322471Y-83526946D01*
X118300847Y-83516718D01*
X118280330Y-83504421D01*
X118261117Y-83490171D01*
X118243393Y-83474107D01*
X118227329Y-83456383D01*
X118213079Y-83437170D01*
X118200782Y-83416653D01*
X118190554Y-83395029D01*
X118182496Y-83372507D01*
X118176684Y-83349303D01*
X118173174Y-83325642D01*
X118172000Y-83301750D01*
X118172000Y-82814250D01*
X118173174Y-82790358D01*
X118176684Y-82766697D01*
X118182496Y-82743493D01*
X118190554Y-82720971D01*
X118200782Y-82699347D01*
X118213079Y-82678830D01*
X118227329Y-82659617D01*
X118243393Y-82641893D01*
X118261117Y-82625829D01*
X118280330Y-82611579D01*
X118300847Y-82599282D01*
X118322471Y-82589054D01*
X118344993Y-82580996D01*
X118368197Y-82575184D01*
X118391858Y-82571674D01*
X118415750Y-82570500D01*
X119328250Y-82570500D01*
X119352142Y-82571674D01*
X119352142Y-82571674D01*
G37*
D28*
G04 #@! TD*
G04 #@! TO.P,C10,1*
G04 #@! TO.N,VCC*
X118872000Y-83058000D03*
D18*
G04 #@! TO.N,GND*
G04 #@! TO.C,C10*
G36*
X119352142Y-84446674D02*
X119375803Y-84450184D01*
X119399007Y-84455996D01*
X119421529Y-84464054D01*
X119443153Y-84474282D01*
X119463670Y-84486579D01*
X119482883Y-84500829D01*
X119500607Y-84516893D01*
X119516671Y-84534617D01*
X119530921Y-84553830D01*
X119543218Y-84574347D01*
X119553446Y-84595971D01*
X119561504Y-84618493D01*
X119567316Y-84641697D01*
X119570826Y-84665358D01*
X119572000Y-84689250D01*
X119572000Y-85176750D01*
X119570826Y-85200642D01*
X119567316Y-85224303D01*
X119561504Y-85247507D01*
X119553446Y-85270029D01*
X119543218Y-85291653D01*
X119530921Y-85312170D01*
X119516671Y-85331383D01*
X119500607Y-85349107D01*
X119482883Y-85365171D01*
X119463670Y-85379421D01*
X119443153Y-85391718D01*
X119421529Y-85401946D01*
X119399007Y-85410004D01*
X119375803Y-85415816D01*
X119352142Y-85419326D01*
X119328250Y-85420500D01*
X118415750Y-85420500D01*
X118391858Y-85419326D01*
X118368197Y-85415816D01*
X118344993Y-85410004D01*
X118322471Y-85401946D01*
X118300847Y-85391718D01*
X118280330Y-85379421D01*
X118261117Y-85365171D01*
X118243393Y-85349107D01*
X118227329Y-85331383D01*
X118213079Y-85312170D01*
X118200782Y-85291653D01*
X118190554Y-85270029D01*
X118182496Y-85247507D01*
X118176684Y-85224303D01*
X118173174Y-85200642D01*
X118172000Y-85176750D01*
X118172000Y-84689250D01*
X118173174Y-84665358D01*
X118176684Y-84641697D01*
X118182496Y-84618493D01*
X118190554Y-84595971D01*
X118200782Y-84574347D01*
X118213079Y-84553830D01*
X118227329Y-84534617D01*
X118243393Y-84516893D01*
X118261117Y-84500829D01*
X118280330Y-84486579D01*
X118300847Y-84474282D01*
X118322471Y-84464054D01*
X118344993Y-84455996D01*
X118368197Y-84450184D01*
X118391858Y-84446674D01*
X118415750Y-84445500D01*
X119328250Y-84445500D01*
X119352142Y-84446674D01*
X119352142Y-84446674D01*
G37*
D28*
G04 #@! TD*
G04 #@! TO.P,C10,2*
G04 #@! TO.N,GND*
X118872000Y-84933000D03*
D18*
G04 #@! TO.N,VCCREG*
G04 #@! TO.C,C11*
G36*
X119149691Y-88209553D02*
X119170926Y-88212703D01*
X119191750Y-88217919D01*
X119211962Y-88225151D01*
X119231368Y-88234330D01*
X119249781Y-88245366D01*
X119267024Y-88258154D01*
X119282930Y-88272570D01*
X119297346Y-88288476D01*
X119310134Y-88305719D01*
X119321170Y-88324132D01*
X119330349Y-88343538D01*
X119337581Y-88363750D01*
X119342797Y-88384574D01*
X119345947Y-88405809D01*
X119347000Y-88427250D01*
X119347000Y-88864750D01*
X119345947Y-88886191D01*
X119342797Y-88907426D01*
X119337581Y-88928250D01*
X119330349Y-88948462D01*
X119321170Y-88967868D01*
X119310134Y-88986281D01*
X119297346Y-89003524D01*
X119282930Y-89019430D01*
X119267024Y-89033846D01*
X119249781Y-89046634D01*
X119231368Y-89057670D01*
X119211962Y-89066849D01*
X119191750Y-89074081D01*
X119170926Y-89079297D01*
X119149691Y-89082447D01*
X119128250Y-89083500D01*
X118615750Y-89083500D01*
X118594309Y-89082447D01*
X118573074Y-89079297D01*
X118552250Y-89074081D01*
X118532038Y-89066849D01*
X118512632Y-89057670D01*
X118494219Y-89046634D01*
X118476976Y-89033846D01*
X118461070Y-89019430D01*
X118446654Y-89003524D01*
X118433866Y-88986281D01*
X118422830Y-88967868D01*
X118413651Y-88948462D01*
X118406419Y-88928250D01*
X118401203Y-88907426D01*
X118398053Y-88886191D01*
X118397000Y-88864750D01*
X118397000Y-88427250D01*
X118398053Y-88405809D01*
X118401203Y-88384574D01*
X118406419Y-88363750D01*
X118413651Y-88343538D01*
X118422830Y-88324132D01*
X118433866Y-88305719D01*
X118446654Y-88288476D01*
X118461070Y-88272570D01*
X118476976Y-88258154D01*
X118494219Y-88245366D01*
X118512632Y-88234330D01*
X118532038Y-88225151D01*
X118552250Y-88217919D01*
X118573074Y-88212703D01*
X118594309Y-88209553D01*
X118615750Y-88208500D01*
X119128250Y-88208500D01*
X119149691Y-88209553D01*
X119149691Y-88209553D01*
G37*
D23*
G04 #@! TD*
G04 #@! TO.P,C11,1*
G04 #@! TO.N,VCCREG*
X118872000Y-88646000D03*
D18*
G04 #@! TO.N,GND*
G04 #@! TO.C,C11*
G36*
X119149691Y-86634553D02*
X119170926Y-86637703D01*
X119191750Y-86642919D01*
X119211962Y-86650151D01*
X119231368Y-86659330D01*
X119249781Y-86670366D01*
X119267024Y-86683154D01*
X119282930Y-86697570D01*
X119297346Y-86713476D01*
X119310134Y-86730719D01*
X119321170Y-86749132D01*
X119330349Y-86768538D01*
X119337581Y-86788750D01*
X119342797Y-86809574D01*
X119345947Y-86830809D01*
X119347000Y-86852250D01*
X119347000Y-87289750D01*
X119345947Y-87311191D01*
X119342797Y-87332426D01*
X119337581Y-87353250D01*
X119330349Y-87373462D01*
X119321170Y-87392868D01*
X119310134Y-87411281D01*
X119297346Y-87428524D01*
X119282930Y-87444430D01*
X119267024Y-87458846D01*
X119249781Y-87471634D01*
X119231368Y-87482670D01*
X119211962Y-87491849D01*
X119191750Y-87499081D01*
X119170926Y-87504297D01*
X119149691Y-87507447D01*
X119128250Y-87508500D01*
X118615750Y-87508500D01*
X118594309Y-87507447D01*
X118573074Y-87504297D01*
X118552250Y-87499081D01*
X118532038Y-87491849D01*
X118512632Y-87482670D01*
X118494219Y-87471634D01*
X118476976Y-87458846D01*
X118461070Y-87444430D01*
X118446654Y-87428524D01*
X118433866Y-87411281D01*
X118422830Y-87392868D01*
X118413651Y-87373462D01*
X118406419Y-87353250D01*
X118401203Y-87332426D01*
X118398053Y-87311191D01*
X118397000Y-87289750D01*
X118397000Y-86852250D01*
X118398053Y-86830809D01*
X118401203Y-86809574D01*
X118406419Y-86788750D01*
X118413651Y-86768538D01*
X118422830Y-86749132D01*
X118433866Y-86730719D01*
X118446654Y-86713476D01*
X118461070Y-86697570D01*
X118476976Y-86683154D01*
X118494219Y-86670366D01*
X118512632Y-86659330D01*
X118532038Y-86650151D01*
X118552250Y-86642919D01*
X118573074Y-86637703D01*
X118594309Y-86634553D01*
X118615750Y-86633500D01*
X119128250Y-86633500D01*
X119149691Y-86634553D01*
X119149691Y-86634553D01*
G37*
D23*
G04 #@! TD*
G04 #@! TO.P,C11,2*
G04 #@! TO.N,GND*
X118872000Y-87071000D03*
D31*
G04 #@! TO.N,VIN*
X139954000Y-97536000D03*
X140208000Y-95250000D03*
X127000000Y-98298000D03*
X125476000Y-75184000D03*
X128270000Y-98298000D03*
X125984000Y-99568000D03*
X127254000Y-99568000D03*
X125476000Y-98298000D03*
X127508000Y-73914000D03*
X138684000Y-77216000D03*
X139192000Y-98806000D03*
X138684000Y-97536000D03*
X140716000Y-78232000D03*
X139192000Y-75946000D03*
X128524000Y-99568000D03*
X139954000Y-74930000D03*
X128778000Y-73914000D03*
X139954000Y-77216000D03*
X126238000Y-73914000D03*
X138176000Y-96266000D03*
X139446000Y-78232000D03*
X128524000Y-75184000D03*
X140462000Y-75946000D03*
X127000000Y-75184000D03*
X139446000Y-96266000D03*
X138938000Y-95250000D03*
G04 #@! TO.N,GND*
X129286000Y-67056000D03*
X155194000Y-66802000D03*
X101346000Y-69596000D03*
X131318000Y-110236000D03*
X134366000Y-66802000D03*
X118364000Y-69850000D03*
X106934000Y-63246000D03*
X148082000Y-88138000D03*
X138938000Y-106934000D03*
X99568000Y-104394000D03*
X105410000Y-100076000D03*
X104648000Y-103886000D03*
X146558000Y-92202002D03*
X131064000Y-70612000D03*
X131572000Y-88392000D03*
X125476000Y-63246000D03*
X109728000Y-110236000D03*
X161544000Y-67818000D03*
X132588000Y-87630000D03*
X124714000Y-70104000D03*
X133858000Y-86614000D03*
X132588000Y-85598000D03*
X131572000Y-84836000D03*
X145034000Y-63246000D03*
X146558000Y-81280002D03*
X131064000Y-102616000D03*
X125730000Y-86614000D03*
X133858000Y-84836000D03*
X120142000Y-86614000D03*
X100584000Y-95504000D03*
X115316000Y-67056000D03*
X152146000Y-106934000D03*
X152400000Y-62992000D03*
X139954000Y-69850000D03*
X135890000Y-86614000D03*
X122936000Y-67056000D03*
X131572000Y-86614000D03*
X155956000Y-61214000D03*
X132588000Y-70612000D03*
X131826000Y-63246000D03*
X129540000Y-107442000D03*
X136652000Y-102616000D03*
X112522000Y-103886000D03*
X142240000Y-109982000D03*
X135890000Y-88392000D03*
X136398000Y-109982000D03*
X153670000Y-109982000D03*
X123190000Y-106172000D03*
X147828000Y-111252000D03*
X134874000Y-87630000D03*
X144272000Y-106934000D03*
X141478000Y-66802000D03*
X119380000Y-63246000D03*
X136652000Y-70612000D03*
X126238000Y-110236000D03*
X101346000Y-100584000D03*
X150114000Y-66802000D03*
X135890000Y-84836000D03*
X142494000Y-81788000D03*
X112522000Y-63500000D03*
X142494000Y-91440000D03*
X108712000Y-101092000D03*
X135128000Y-102616000D03*
X126238000Y-103886000D03*
X114300000Y-110236000D03*
X133858000Y-88392000D03*
X134874000Y-85598000D03*
X138176000Y-63246000D03*
X116840000Y-106680000D03*
X109982000Y-66802000D03*
X132588000Y-102616000D03*
X106680000Y-108712000D03*
X135128000Y-70612000D03*
X119888000Y-103886000D03*
X109728000Y-105664000D03*
X120650000Y-110236000D03*
G04 #@! TO.N,OUTA1*
X131826000Y-81280000D03*
X132488000Y-82349000D03*
X127254000Y-83058000D03*
X133096000Y-83312000D03*
X133096000Y-81280000D03*
X131826000Y-83312000D03*
G04 #@! TO.N,OUTA2*
X135890000Y-81280000D03*
X134620000Y-83312000D03*
X140468454Y-83263990D03*
X134620000Y-81280000D03*
X135228000Y-82349000D03*
X135890000Y-83312000D03*
G04 #@! TO.N,OUTB1*
X133096000Y-89916000D03*
X133096000Y-91948000D03*
X132488000Y-90879000D03*
X131826000Y-91948000D03*
X127254000Y-90170000D03*
X131826000Y-89916000D03*
G04 #@! TO.N,OUTB2*
X140468454Y-89964010D03*
X135890000Y-89916000D03*
X134620000Y-91948000D03*
X135228000Y-90879000D03*
X134620000Y-89916000D03*
X135890000Y-91948000D03*
G04 #@! TO.N,Net-(R1-Pad1)*
X135763000Y-76962000D03*
X141986000Y-83566000D03*
G04 #@! TO.N,Net-(R3-Pad1)*
X135636000Y-96393000D03*
X141986000Y-89662000D03*
G04 #@! TD*
D32*
G04 #@! TO.N,VIN*
X122870000Y-81280000D02*
X122870000Y-79527000D01*
X122845000Y-78649000D02*
X122174000Y-77978000D01*
X122174000Y-77978000D02*
X117602000Y-77978000D01*
X117602000Y-77978000D02*
X116332000Y-79248000D01*
D33*
X128968400Y-84683600D02*
X129768000Y-84683600D01*
D32*
X122845000Y-79502000D02*
X122845000Y-78649000D01*
D33*
X128958000Y-84694000D02*
X128968400Y-84683600D01*
X128358000Y-84694000D02*
X128958000Y-84694000D01*
D34*
X129768000Y-84683600D02*
X129768000Y-91869000D01*
D32*
X122870000Y-79527000D02*
X122845000Y-79502000D01*
X116332000Y-79248000D02*
X108458000Y-79248000D01*
D34*
X137948000Y-81359000D02*
X137948000Y-91869000D01*
X129768000Y-81359000D02*
X129768000Y-84683600D01*
D32*
G04 #@! TO.N,GND*
X118872000Y-85344000D02*
X120142000Y-86614000D01*
X120142000Y-86614000D02*
X119329000Y-86614000D01*
X118872000Y-84933000D02*
X118872000Y-85344000D01*
D33*
X140826000Y-83964000D02*
X141224000Y-83566000D01*
D32*
X120904000Y-87376000D02*
X120142000Y-86614000D01*
D33*
X139358000Y-83964000D02*
X140826000Y-83964000D01*
D32*
X146812000Y-93726000D02*
X146812000Y-92456002D01*
D33*
X141224000Y-90170000D02*
X142094001Y-91040001D01*
D32*
X146655000Y-81183002D02*
X146558000Y-81280002D01*
D33*
X128358000Y-86614000D02*
X125730000Y-86614000D01*
X139358000Y-89264000D02*
X140826000Y-89264000D01*
X141224000Y-83058000D02*
X142494000Y-81788000D01*
D32*
X117348000Y-87071000D02*
X118872000Y-87071000D01*
D33*
X141224000Y-83566000D02*
X141224000Y-83058000D01*
D32*
X120910000Y-88138000D02*
X120904000Y-88132000D01*
D33*
X141224000Y-89662000D02*
X141224000Y-90170000D01*
D32*
X120904000Y-88132000D02*
X120904000Y-87376000D01*
X123190000Y-88138000D02*
X120910000Y-88138000D01*
D33*
X142094001Y-91040001D02*
X142494000Y-91440000D01*
X140826000Y-89264000D02*
X141224000Y-89662000D01*
D32*
X146812000Y-92456002D02*
X146558000Y-92202002D01*
X146655000Y-79756000D02*
X146655000Y-81183002D01*
D33*
X146609000Y-88138000D02*
X148082000Y-88138000D01*
D32*
X119329000Y-86614000D02*
X118872000Y-87071000D01*
G04 #@! TO.N,Net-(C5-Pad2)*
X120970000Y-81280000D02*
X120970000Y-79502000D01*
D33*
X128358000Y-85094000D02*
X127258000Y-85094000D01*
D32*
X120970000Y-81330000D02*
X121910600Y-82270600D01*
X121910600Y-82270600D02*
X124434600Y-82270600D01*
X120970000Y-81280000D02*
X120970000Y-81330000D01*
X126575999Y-84411999D02*
X127254000Y-85090000D01*
X124434600Y-82270600D02*
X126575999Y-84411999D01*
D33*
X127258000Y-85094000D02*
X127254000Y-85090000D01*
G04 #@! TO.N,Net-(C6-Pad1)*
X126962000Y-85814000D02*
X126746000Y-85598000D01*
X128358000Y-85814000D02*
X126962000Y-85814000D01*
D32*
X126746000Y-85598000D02*
X126238000Y-85090000D01*
X126238000Y-85090000D02*
X123287000Y-85090000D01*
G04 #@! TO.N,Net-(C6-Pad2)*
X121412000Y-85090000D02*
X121412000Y-83788000D01*
X121412000Y-83788000D02*
X121920000Y-83280000D01*
G04 #@! TO.N,OUTA1*
X128358000Y-83364000D02*
X127560000Y-83364000D01*
X127560000Y-83364000D02*
X127254000Y-83058000D01*
D35*
X133548000Y-79614000D02*
X133548000Y-81289000D01*
X133548000Y-81289000D02*
X132488000Y-82349000D01*
X131348000Y-81209000D02*
X132488000Y-82349000D01*
X131348000Y-79614000D02*
X131348000Y-81209000D01*
G04 #@! TO.N,OUTA2*
X134168000Y-79614000D02*
X134168000Y-81289000D01*
D32*
X140368444Y-83364000D02*
X140468454Y-83263990D01*
X139358000Y-83364000D02*
X140368444Y-83364000D01*
D35*
X134168000Y-81289000D02*
X135228000Y-82349000D01*
X136368000Y-79614000D02*
X136368000Y-81209000D01*
X136368000Y-81209000D02*
X135228000Y-82349000D01*
G04 #@! TO.N,OUTB1*
X133548000Y-93614000D02*
X133548000Y-91939000D01*
X131348000Y-93614000D02*
X131348000Y-92019000D01*
X131348000Y-92019000D02*
X132488000Y-90879000D01*
X133548000Y-91939000D02*
X132488000Y-90879000D01*
D32*
X128358000Y-89864000D02*
X127560000Y-89864000D01*
X127560000Y-89864000D02*
X127254000Y-90170000D01*
D35*
G04 #@! TO.N,OUTB2*
X136368000Y-93614000D02*
X136368000Y-92019000D01*
X136368000Y-92019000D02*
X135228000Y-90879000D01*
X134168000Y-93614000D02*
X134168000Y-91939000D01*
X134168000Y-91939000D02*
X135228000Y-90879000D01*
D32*
X140368444Y-89864000D02*
X140468454Y-89964010D01*
X139358000Y-89864000D02*
X140368444Y-89864000D01*
D33*
G04 #@! TO.N,OSCOUT*
X114554000Y-93218000D02*
X114808000Y-92964000D01*
X124460000Y-92964000D02*
X125476000Y-91948000D01*
X125476000Y-90932000D02*
X127144000Y-89264000D01*
X127144000Y-89264000D02*
X128358000Y-89264000D01*
X125476000Y-91948000D02*
X125476000Y-90932000D01*
X114808000Y-92964000D02*
X124460000Y-92964000D01*
G04 #@! TO.N,OSCIN*
X124206000Y-92456000D02*
X124968000Y-91694000D01*
X124968000Y-90678000D02*
X126782000Y-88864000D01*
X111244000Y-90678000D02*
X115832000Y-90678000D01*
X115832000Y-90678000D02*
X117610000Y-92456000D01*
X117610000Y-92456000D02*
X124206000Y-92456000D01*
X126782000Y-88864000D02*
X128358000Y-88864000D01*
X124968000Y-91694000D02*
X124968000Y-90678000D01*
G04 #@! TO.N,VREG*
X111244000Y-87123002D02*
X114036998Y-89916000D01*
X114036998Y-89916000D02*
X117348000Y-89916000D01*
X123196000Y-90932000D02*
X123952000Y-90932000D01*
X120904000Y-90932000D02*
X123184000Y-90932000D01*
X111244000Y-85598000D02*
X111244000Y-87123002D01*
X126420000Y-88464000D02*
X127758000Y-88464000D01*
X123190000Y-90938000D02*
X123196000Y-90932000D01*
X118364000Y-90932000D02*
X120904000Y-90932000D01*
X123952000Y-90932000D02*
X126420000Y-88464000D01*
X127758000Y-88464000D02*
X128358000Y-88464000D01*
X117348000Y-89916000D02*
X118364000Y-90932000D01*
X123184000Y-90932000D02*
X123190000Y-90938000D01*
G04 #@! TO.N,VSREG*
X116517000Y-88646000D02*
X116773000Y-88646000D01*
X118408411Y-89706411D02*
X117809612Y-89107612D01*
X116009000Y-88138000D02*
X116517000Y-88646000D01*
X124219289Y-89706411D02*
X118408411Y-89706411D01*
X128358000Y-87734000D02*
X126191700Y-87734000D01*
X117809612Y-89107612D02*
X117348000Y-88646000D01*
X116773000Y-88646000D02*
X117348000Y-88646000D01*
X114554000Y-88138000D02*
X116009000Y-88138000D01*
X126191700Y-87734000D02*
X124219289Y-89706411D01*
G04 #@! TO.N,VCCREG*
X119532400Y-89306400D02*
X118872000Y-88646000D01*
X124053600Y-89306400D02*
X119532400Y-89306400D01*
X114554000Y-83758000D02*
X114554000Y-83058000D01*
X116662200Y-87858600D02*
X114554000Y-85750400D01*
X128358000Y-87014000D02*
X126346000Y-87014000D01*
X114554000Y-85750400D02*
X114554000Y-83758000D01*
X126346000Y-87014000D02*
X124053600Y-89306400D01*
X118872000Y-88646000D02*
X118084600Y-87858600D01*
X118084600Y-87858600D02*
X116662200Y-87858600D01*
G04 #@! TO.N,VCC*
X126366002Y-86214000D02*
X128358000Y-86214000D01*
X118872000Y-82296000D02*
X117094000Y-80518000D01*
X118872000Y-83058000D02*
X118872000Y-82296000D01*
X118872000Y-83058000D02*
X119126000Y-83058000D01*
X120142000Y-85598000D02*
X121412000Y-86868000D01*
X125414001Y-85913999D02*
X126066001Y-85913999D01*
X124460000Y-86868000D02*
X125414001Y-85913999D01*
X117094000Y-80518000D02*
X111244000Y-80518000D01*
X120142000Y-84074000D02*
X120142000Y-85598000D01*
X126066001Y-85913999D02*
X126366002Y-86214000D01*
X119126000Y-83058000D02*
X120142000Y-84074000D01*
X121412000Y-86868000D02*
X124460000Y-86868000D01*
G04 #@! TO.N,ADCIN*
X124460000Y-78994000D02*
X124460000Y-81280000D01*
X114554000Y-77978000D02*
X115570000Y-76962000D01*
X124460000Y-81280000D02*
X127144000Y-83964000D01*
X115570000Y-76962000D02*
X122428000Y-76962000D01*
X127144000Y-83964000D02*
X128358000Y-83964000D01*
X122428000Y-76962000D02*
X124460000Y-78994000D01*
G04 #@! TO.N,STBY_RESET*
X156210000Y-75692000D02*
X156210000Y-79248000D01*
X157226000Y-74676000D02*
X156210000Y-75692000D01*
X160020000Y-74676000D02*
X157226000Y-74676000D01*
X150654000Y-84804000D02*
X139358000Y-84804000D01*
X156210000Y-79248000D02*
X150654000Y-84804000D01*
G04 #@! TO.N,SW*
X156718000Y-77724000D02*
X156718000Y-79502000D01*
X157226000Y-77216000D02*
X156718000Y-77724000D01*
X160020000Y-77216000D02*
X157226000Y-77216000D01*
X151016000Y-85204000D02*
X139358000Y-85204000D01*
X156718000Y-79502000D02*
X151016000Y-85204000D01*
G04 #@! TO.N,STCK*
X160020000Y-79756000D02*
X157226000Y-79756000D01*
X151378000Y-85604000D02*
X139358000Y-85604000D01*
X157226000Y-79756000D02*
X151378000Y-85604000D01*
G04 #@! TO.N,FLAG*
X153518000Y-86004000D02*
X139358000Y-86004000D01*
X160020000Y-82296000D02*
X157226000Y-82296000D01*
X157226000Y-82296000D02*
X153518000Y-86004000D01*
G04 #@! TO.N,BUSY_SYNC*
X160020000Y-84836000D02*
X157226000Y-84836000D01*
X157226000Y-84836000D02*
X155658000Y-86404000D01*
X155658000Y-86404000D02*
X139358000Y-86404000D01*
G04 #@! TO.N,SDO*
X156718000Y-87376000D02*
X156166000Y-86824000D01*
X156166000Y-86824000D02*
X139358000Y-86824000D01*
X160020000Y-87376000D02*
X156718000Y-87376000D01*
G04 #@! TO.N,VDDIO*
X145034000Y-88138000D02*
X144120000Y-87224000D01*
X154534000Y-87224000D02*
X157226000Y-89916000D01*
X157226000Y-89916000D02*
X160020000Y-89916000D01*
X144120000Y-87224000D02*
X139358000Y-87224000D01*
X145948000Y-87224000D02*
X154534000Y-87224000D01*
X145034000Y-88138000D02*
X145948000Y-87224000D01*
G04 #@! TO.N,SDI*
X142742000Y-87624000D02*
X144272000Y-89154000D01*
X153924000Y-89154000D02*
X157226000Y-92456000D01*
X139358000Y-87624000D02*
X142742000Y-87624000D01*
X144272000Y-89154000D02*
X153924000Y-89154000D01*
X157226000Y-92456000D02*
X160020000Y-92456000D01*
G04 #@! TO.N,CK*
X157226000Y-94996000D02*
X160020000Y-94996000D01*
X156718000Y-92710000D02*
X156718000Y-94488000D01*
X153670000Y-89662000D02*
X156718000Y-92710000D01*
X142380000Y-88024000D02*
X144018000Y-89662000D01*
X144018000Y-89662000D02*
X153670000Y-89662000D01*
X139358000Y-88024000D02*
X142380000Y-88024000D01*
X156718000Y-94488000D02*
X157226000Y-94996000D01*
G04 #@! TO.N,CS*
X156210000Y-92964000D02*
X156210000Y-96520000D01*
X156210000Y-96520000D02*
X157226000Y-97536000D01*
X153416000Y-90170000D02*
X156210000Y-92964000D01*
X139358000Y-88424000D02*
X142018000Y-88424000D01*
X143764000Y-90170000D02*
X153416000Y-90170000D01*
X142018000Y-88424000D02*
X143764000Y-90170000D01*
X157226000Y-97536000D02*
X160020000Y-97536000D01*
G04 #@! TO.N,Net-(R1-Pad1)*
X139104000Y-84404000D02*
X141148000Y-84404000D01*
X141148000Y-84404000D02*
X141986000Y-83566000D01*
G04 #@! TO.N,Net-(R3-Pad1)*
X141148000Y-88824000D02*
X141586001Y-89262001D01*
X139104000Y-88824000D02*
X141148000Y-88824000D01*
X141586001Y-89262001D02*
X141986000Y-89662000D01*
G04 #@! TD*
G04 #@! TO.N,Net-(C6-Pad1)*
G36*
X126951661Y-85577455D02*
X127035522Y-85650834D01*
X127063297Y-85668045D01*
X127122910Y-85692592D01*
X127154748Y-85699929D01*
X127500757Y-85721555D01*
X127517552Y-85725619D01*
X127609300Y-85765758D01*
X127625602Y-85790684D01*
X127603213Y-85814000D01*
X126782378Y-85814000D01*
X126735625Y-85776598D01*
X126734445Y-85716637D01*
X126895194Y-85577322D01*
X126951661Y-85577455D01*
X126951661Y-85577455D01*
G37*
X126951661Y-85577455D02*
X127035522Y-85650834D01*
X127063297Y-85668045D01*
X127122910Y-85692592D01*
X127154748Y-85699929D01*
X127500757Y-85721555D01*
X127517552Y-85725619D01*
X127609300Y-85765758D01*
X127625602Y-85790684D01*
X127603213Y-85814000D01*
X126782378Y-85814000D01*
X126735625Y-85776598D01*
X126734445Y-85716637D01*
X126895194Y-85577322D01*
X126951661Y-85577455D01*
D36*
G04 #@! TO.N,VIN*
G36*
X106221000Y-68875680D02*
X106221000Y-69268750D01*
X106377250Y-69425000D01*
X107271000Y-69425000D01*
X107271000Y-69000000D01*
X108121000Y-69000000D01*
X108121000Y-69425000D01*
X109811000Y-69425000D01*
X109811000Y-69000000D01*
X110661000Y-69000000D01*
X110661000Y-69425000D01*
X111086000Y-69425000D01*
X111086000Y-70275000D01*
X110661000Y-70275000D01*
X110661000Y-71098390D01*
X110876723Y-71178571D01*
X111127000Y-71011368D01*
X111127000Y-71428000D01*
X111136515Y-71475836D01*
X111195094Y-71617257D01*
X111222191Y-71657810D01*
X111262743Y-71684906D01*
X111404164Y-71743485D01*
X111452000Y-71753000D01*
X126437000Y-71753000D01*
X126437000Y-71833000D01*
X126593250Y-71989250D01*
X127412000Y-71989250D01*
X127412000Y-71753000D01*
X128112000Y-71753000D01*
X128112000Y-71989250D01*
X128930750Y-71989250D01*
X128946612Y-71973388D01*
X129375451Y-72402227D01*
X129415000Y-72497707D01*
X129415000Y-75418196D01*
X129415608Y-75430514D01*
X129419492Y-75469737D01*
X129421311Y-75481934D01*
X130047978Y-78615272D01*
X129918000Y-78745250D01*
X129918000Y-79394000D01*
X130177000Y-79394000D01*
X130177000Y-79754000D01*
X129918000Y-79754000D01*
X129918000Y-80402750D01*
X130074250Y-80559000D01*
X130177000Y-80559000D01*
X130177000Y-82071135D01*
X130147750Y-82141750D01*
X130077135Y-82171000D01*
X129333000Y-82171000D01*
X129333000Y-81997750D01*
X129176750Y-81841500D01*
X128523000Y-81841500D01*
X128523000Y-82071500D01*
X128229250Y-82071500D01*
X128153000Y-82147750D01*
X128153000Y-81841500D01*
X127499250Y-81841500D01*
X127343000Y-81997750D01*
X127343000Y-82033000D01*
X127050115Y-82033000D01*
X126840450Y-82119846D01*
X126795547Y-82089911D01*
X125962118Y-80089680D01*
X127343000Y-80089680D01*
X127343000Y-80600250D01*
X127499250Y-80756500D01*
X128153000Y-80756500D01*
X128153000Y-80570250D01*
X128229250Y-80646500D01*
X128523000Y-80646500D01*
X128523000Y-80756500D01*
X129176750Y-80756500D01*
X129333000Y-80600250D01*
X129333000Y-80089680D01*
X129237849Y-79859966D01*
X129233000Y-79855117D01*
X129233000Y-79465250D01*
X129161750Y-79394000D01*
X129198000Y-79394000D01*
X129198000Y-78745250D01*
X129041750Y-78589000D01*
X128713680Y-78589000D01*
X128483966Y-78684150D01*
X128469118Y-78698998D01*
X128213000Y-78698998D01*
X128213000Y-79535117D01*
X128168151Y-79579966D01*
X128164409Y-79589000D01*
X127462998Y-79589000D01*
X127462998Y-79835119D01*
X127438151Y-79859966D01*
X127343000Y-80089680D01*
X125962118Y-80089680D01*
X124372667Y-76275000D01*
X124326620Y-76219071D01*
X124142005Y-76095994D01*
X124072667Y-76075000D01*
X115586553Y-76075000D01*
X115576244Y-76075426D01*
X115543364Y-76078147D01*
X115533123Y-76079422D01*
X109620570Y-77064848D01*
X109579384Y-77079456D01*
X109459660Y-77147459D01*
X109422765Y-77179358D01*
X109404035Y-77213122D01*
X109356639Y-77342397D01*
X109349000Y-77385425D01*
X109349000Y-93820354D01*
X109358515Y-93868189D01*
X109376307Y-93898335D01*
X109531983Y-94093362D01*
X109569262Y-94124812D01*
X109601973Y-94137273D01*
X120600414Y-96636919D01*
X120614180Y-96639248D01*
X120658504Y-96644221D01*
X120672441Y-96645000D01*
X124325730Y-96645000D01*
X124373565Y-96635485D01*
X124395404Y-96623781D01*
X124580513Y-96499508D01*
X124614925Y-96464946D01*
X124626532Y-96443056D01*
X126187338Y-92627750D01*
X127343000Y-92627750D01*
X127343000Y-93138320D01*
X127438151Y-93368034D01*
X127462998Y-93392881D01*
X127462998Y-93639000D01*
X128164409Y-93639000D01*
X128168151Y-93648034D01*
X128213000Y-93692883D01*
X128213000Y-94529002D01*
X128469118Y-94529002D01*
X128483966Y-94543850D01*
X128713680Y-94639000D01*
X129041750Y-94639000D01*
X129198000Y-94482750D01*
X129198000Y-93834000D01*
X129161750Y-93834000D01*
X129233000Y-93762750D01*
X129233000Y-93372883D01*
X129237849Y-93368034D01*
X129333000Y-93138320D01*
X129333000Y-92627750D01*
X129176750Y-92471500D01*
X128523000Y-92471500D01*
X128523000Y-92581500D01*
X128229250Y-92581500D01*
X128153000Y-92657750D01*
X128153000Y-92471500D01*
X127499250Y-92471500D01*
X127343000Y-92627750D01*
X126187338Y-92627750D01*
X126796440Y-91138836D01*
X126841496Y-91108587D01*
X127050115Y-91195000D01*
X127343000Y-91195000D01*
X127343000Y-91230250D01*
X127499250Y-91386500D01*
X128153000Y-91386500D01*
X128153000Y-91080250D01*
X128229250Y-91156500D01*
X128523000Y-91156500D01*
X128523000Y-91386500D01*
X129176750Y-91386500D01*
X129333000Y-91230250D01*
X129333000Y-91057000D01*
X130077135Y-91057000D01*
X130147750Y-91086250D01*
X130177000Y-91156865D01*
X130177000Y-92669000D01*
X130074250Y-92669000D01*
X129918000Y-92825250D01*
X129918000Y-93474000D01*
X130177000Y-93474000D01*
X130177000Y-93834000D01*
X129918000Y-93834000D01*
X129918000Y-94482750D01*
X130013183Y-94577933D01*
X129171974Y-97732468D01*
X129168813Y-97748435D01*
X129162060Y-97799968D01*
X129161000Y-97816209D01*
X129161000Y-101238293D01*
X129121451Y-101333773D01*
X128946612Y-101508612D01*
X128930750Y-101492750D01*
X128112000Y-101492750D01*
X128112000Y-101729000D01*
X127412000Y-101729000D01*
X127412000Y-101492750D01*
X126593250Y-101492750D01*
X126437000Y-101649000D01*
X126437000Y-101729000D01*
X118146105Y-101729000D01*
X118109023Y-101723894D01*
X114237605Y-100637180D01*
X126437000Y-100637180D01*
X126437000Y-100849000D01*
X126593250Y-101005250D01*
X127412000Y-101005250D01*
X127412000Y-100292750D01*
X128112000Y-100292750D01*
X128112000Y-101005250D01*
X128930750Y-101005250D01*
X129087000Y-100849000D01*
X129087000Y-100637180D01*
X128991850Y-100407466D01*
X128816034Y-100231651D01*
X128586320Y-100136500D01*
X128268250Y-100136500D01*
X128112000Y-100292750D01*
X127412000Y-100292750D01*
X127255750Y-100136500D01*
X126937680Y-100136500D01*
X126707966Y-100231651D01*
X126532150Y-100407466D01*
X126437000Y-100637180D01*
X114237605Y-100637180D01*
X103852187Y-97721975D01*
X103757000Y-97596390D01*
X103757000Y-75344434D01*
X103747485Y-75296599D01*
X103729505Y-75266218D01*
X103572891Y-75070981D01*
X103535537Y-75039621D01*
X103502502Y-75027174D01*
X102217303Y-74741574D01*
X101600000Y-74124272D01*
X101471000Y-74253272D01*
X101471000Y-73152000D01*
X102572272Y-73152000D01*
X103325647Y-73905376D01*
X103557248Y-73724226D01*
X103627242Y-72931662D01*
X103567836Y-72633000D01*
X126437000Y-72633000D01*
X126437000Y-72844820D01*
X126532150Y-73074534D01*
X126707966Y-73250349D01*
X126937680Y-73345500D01*
X127255750Y-73345500D01*
X127412000Y-73189250D01*
X127412000Y-72476750D01*
X128112000Y-72476750D01*
X128112000Y-73189250D01*
X128268250Y-73345500D01*
X128586320Y-73345500D01*
X128816034Y-73250349D01*
X128991850Y-73074534D01*
X129087000Y-72844820D01*
X129087000Y-72633000D01*
X128930750Y-72476750D01*
X128112000Y-72476750D01*
X127412000Y-72476750D01*
X126593250Y-72476750D01*
X126437000Y-72633000D01*
X103567836Y-72633000D01*
X103557248Y-72579774D01*
X103325647Y-72398624D01*
X102572272Y-73152000D01*
X101471000Y-73152000D01*
X101471000Y-72050728D01*
X101600000Y-72179728D01*
X102353376Y-71426353D01*
X102216563Y-71251436D01*
X103583539Y-70431250D01*
X106221000Y-70431250D01*
X106221000Y-70824320D01*
X106316150Y-71054034D01*
X106491966Y-71229849D01*
X106721680Y-71325000D01*
X107114750Y-71325000D01*
X107271000Y-71168750D01*
X107271000Y-70275000D01*
X108121000Y-70275000D01*
X108121000Y-71168750D01*
X108277250Y-71325000D01*
X108670320Y-71325000D01*
X108900034Y-71229849D01*
X109075850Y-71054034D01*
X109166651Y-70834820D01*
X109253726Y-70950390D01*
X109595277Y-71178571D01*
X109811000Y-71098390D01*
X109811000Y-70275000D01*
X108121000Y-70275000D01*
X107271000Y-70275000D01*
X106377250Y-70275000D01*
X106221000Y-70431250D01*
X103583539Y-70431250D01*
X106235831Y-68839875D01*
X106221000Y-68875680D01*
X106221000Y-68875680D01*
G37*
X106221000Y-68875680D02*
X106221000Y-69268750D01*
X106377250Y-69425000D01*
X107271000Y-69425000D01*
X107271000Y-69000000D01*
X108121000Y-69000000D01*
X108121000Y-69425000D01*
X109811000Y-69425000D01*
X109811000Y-69000000D01*
X110661000Y-69000000D01*
X110661000Y-69425000D01*
X111086000Y-69425000D01*
X111086000Y-70275000D01*
X110661000Y-70275000D01*
X110661000Y-71098390D01*
X110876723Y-71178571D01*
X111127000Y-71011368D01*
X111127000Y-71428000D01*
X111136515Y-71475836D01*
X111195094Y-71617257D01*
X111222191Y-71657810D01*
X111262743Y-71684906D01*
X111404164Y-71743485D01*
X111452000Y-71753000D01*
X126437000Y-71753000D01*
X126437000Y-71833000D01*
X126593250Y-71989250D01*
X127412000Y-71989250D01*
X127412000Y-71753000D01*
X128112000Y-71753000D01*
X128112000Y-71989250D01*
X128930750Y-71989250D01*
X128946612Y-71973388D01*
X129375451Y-72402227D01*
X129415000Y-72497707D01*
X129415000Y-75418196D01*
X129415608Y-75430514D01*
X129419492Y-75469737D01*
X129421311Y-75481934D01*
X130047978Y-78615272D01*
X129918000Y-78745250D01*
X129918000Y-79394000D01*
X130177000Y-79394000D01*
X130177000Y-79754000D01*
X129918000Y-79754000D01*
X129918000Y-80402750D01*
X130074250Y-80559000D01*
X130177000Y-80559000D01*
X130177000Y-82071135D01*
X130147750Y-82141750D01*
X130077135Y-82171000D01*
X129333000Y-82171000D01*
X129333000Y-81997750D01*
X129176750Y-81841500D01*
X128523000Y-81841500D01*
X128523000Y-82071500D01*
X128229250Y-82071500D01*
X128153000Y-82147750D01*
X128153000Y-81841500D01*
X127499250Y-81841500D01*
X127343000Y-81997750D01*
X127343000Y-82033000D01*
X127050115Y-82033000D01*
X126840450Y-82119846D01*
X126795547Y-82089911D01*
X125962118Y-80089680D01*
X127343000Y-80089680D01*
X127343000Y-80600250D01*
X127499250Y-80756500D01*
X128153000Y-80756500D01*
X128153000Y-80570250D01*
X128229250Y-80646500D01*
X128523000Y-80646500D01*
X128523000Y-80756500D01*
X129176750Y-80756500D01*
X129333000Y-80600250D01*
X129333000Y-80089680D01*
X129237849Y-79859966D01*
X129233000Y-79855117D01*
X129233000Y-79465250D01*
X129161750Y-79394000D01*
X129198000Y-79394000D01*
X129198000Y-78745250D01*
X129041750Y-78589000D01*
X128713680Y-78589000D01*
X128483966Y-78684150D01*
X128469118Y-78698998D01*
X128213000Y-78698998D01*
X128213000Y-79535117D01*
X128168151Y-79579966D01*
X128164409Y-79589000D01*
X127462998Y-79589000D01*
X127462998Y-79835119D01*
X127438151Y-79859966D01*
X127343000Y-80089680D01*
X125962118Y-80089680D01*
X124372667Y-76275000D01*
X124326620Y-76219071D01*
X124142005Y-76095994D01*
X124072667Y-76075000D01*
X115586553Y-76075000D01*
X115576244Y-76075426D01*
X115543364Y-76078147D01*
X115533123Y-76079422D01*
X109620570Y-77064848D01*
X109579384Y-77079456D01*
X109459660Y-77147459D01*
X109422765Y-77179358D01*
X109404035Y-77213122D01*
X109356639Y-77342397D01*
X109349000Y-77385425D01*
X109349000Y-93820354D01*
X109358515Y-93868189D01*
X109376307Y-93898335D01*
X109531983Y-94093362D01*
X109569262Y-94124812D01*
X109601973Y-94137273D01*
X120600414Y-96636919D01*
X120614180Y-96639248D01*
X120658504Y-96644221D01*
X120672441Y-96645000D01*
X124325730Y-96645000D01*
X124373565Y-96635485D01*
X124395404Y-96623781D01*
X124580513Y-96499508D01*
X124614925Y-96464946D01*
X124626532Y-96443056D01*
X126187338Y-92627750D01*
X127343000Y-92627750D01*
X127343000Y-93138320D01*
X127438151Y-93368034D01*
X127462998Y-93392881D01*
X127462998Y-93639000D01*
X128164409Y-93639000D01*
X128168151Y-93648034D01*
X128213000Y-93692883D01*
X128213000Y-94529002D01*
X128469118Y-94529002D01*
X128483966Y-94543850D01*
X128713680Y-94639000D01*
X129041750Y-94639000D01*
X129198000Y-94482750D01*
X129198000Y-93834000D01*
X129161750Y-93834000D01*
X129233000Y-93762750D01*
X129233000Y-93372883D01*
X129237849Y-93368034D01*
X129333000Y-93138320D01*
X129333000Y-92627750D01*
X129176750Y-92471500D01*
X128523000Y-92471500D01*
X128523000Y-92581500D01*
X128229250Y-92581500D01*
X128153000Y-92657750D01*
X128153000Y-92471500D01*
X127499250Y-92471500D01*
X127343000Y-92627750D01*
X126187338Y-92627750D01*
X126796440Y-91138836D01*
X126841496Y-91108587D01*
X127050115Y-91195000D01*
X127343000Y-91195000D01*
X127343000Y-91230250D01*
X127499250Y-91386500D01*
X128153000Y-91386500D01*
X128153000Y-91080250D01*
X128229250Y-91156500D01*
X128523000Y-91156500D01*
X128523000Y-91386500D01*
X129176750Y-91386500D01*
X129333000Y-91230250D01*
X129333000Y-91057000D01*
X130077135Y-91057000D01*
X130147750Y-91086250D01*
X130177000Y-91156865D01*
X130177000Y-92669000D01*
X130074250Y-92669000D01*
X129918000Y-92825250D01*
X129918000Y-93474000D01*
X130177000Y-93474000D01*
X130177000Y-93834000D01*
X129918000Y-93834000D01*
X129918000Y-94482750D01*
X130013183Y-94577933D01*
X129171974Y-97732468D01*
X129168813Y-97748435D01*
X129162060Y-97799968D01*
X129161000Y-97816209D01*
X129161000Y-101238293D01*
X129121451Y-101333773D01*
X128946612Y-101508612D01*
X128930750Y-101492750D01*
X128112000Y-101492750D01*
X128112000Y-101729000D01*
X127412000Y-101729000D01*
X127412000Y-101492750D01*
X126593250Y-101492750D01*
X126437000Y-101649000D01*
X126437000Y-101729000D01*
X118146105Y-101729000D01*
X118109023Y-101723894D01*
X114237605Y-100637180D01*
X126437000Y-100637180D01*
X126437000Y-100849000D01*
X126593250Y-101005250D01*
X127412000Y-101005250D01*
X127412000Y-100292750D01*
X128112000Y-100292750D01*
X128112000Y-101005250D01*
X128930750Y-101005250D01*
X129087000Y-100849000D01*
X129087000Y-100637180D01*
X128991850Y-100407466D01*
X128816034Y-100231651D01*
X128586320Y-100136500D01*
X128268250Y-100136500D01*
X128112000Y-100292750D01*
X127412000Y-100292750D01*
X127255750Y-100136500D01*
X126937680Y-100136500D01*
X126707966Y-100231651D01*
X126532150Y-100407466D01*
X126437000Y-100637180D01*
X114237605Y-100637180D01*
X103852187Y-97721975D01*
X103757000Y-97596390D01*
X103757000Y-75344434D01*
X103747485Y-75296599D01*
X103729505Y-75266218D01*
X103572891Y-75070981D01*
X103535537Y-75039621D01*
X103502502Y-75027174D01*
X102217303Y-74741574D01*
X101600000Y-74124272D01*
X101471000Y-74253272D01*
X101471000Y-73152000D01*
X102572272Y-73152000D01*
X103325647Y-73905376D01*
X103557248Y-73724226D01*
X103627242Y-72931662D01*
X103567836Y-72633000D01*
X126437000Y-72633000D01*
X126437000Y-72844820D01*
X126532150Y-73074534D01*
X126707966Y-73250349D01*
X126937680Y-73345500D01*
X127255750Y-73345500D01*
X127412000Y-73189250D01*
X127412000Y-72476750D01*
X128112000Y-72476750D01*
X128112000Y-73189250D01*
X128268250Y-73345500D01*
X128586320Y-73345500D01*
X128816034Y-73250349D01*
X128991850Y-73074534D01*
X129087000Y-72844820D01*
X129087000Y-72633000D01*
X128930750Y-72476750D01*
X128112000Y-72476750D01*
X127412000Y-72476750D01*
X126593250Y-72476750D01*
X126437000Y-72633000D01*
X103567836Y-72633000D01*
X103557248Y-72579774D01*
X103325647Y-72398624D01*
X102572272Y-73152000D01*
X101471000Y-73152000D01*
X101471000Y-72050728D01*
X101600000Y-72179728D01*
X102353376Y-71426353D01*
X102216563Y-71251436D01*
X103583539Y-70431250D01*
X106221000Y-70431250D01*
X106221000Y-70824320D01*
X106316150Y-71054034D01*
X106491966Y-71229849D01*
X106721680Y-71325000D01*
X107114750Y-71325000D01*
X107271000Y-71168750D01*
X107271000Y-70275000D01*
X108121000Y-70275000D01*
X108121000Y-71168750D01*
X108277250Y-71325000D01*
X108670320Y-71325000D01*
X108900034Y-71229849D01*
X109075850Y-71054034D01*
X109166651Y-70834820D01*
X109253726Y-70950390D01*
X109595277Y-71178571D01*
X109811000Y-71098390D01*
X109811000Y-70275000D01*
X108121000Y-70275000D01*
X107271000Y-70275000D01*
X106377250Y-70275000D01*
X106221000Y-70431250D01*
X103583539Y-70431250D01*
X106235831Y-68839875D01*
X106221000Y-68875680D01*
G36*
X150213750Y-70004250D02*
X150243000Y-70074865D01*
X150243000Y-77753135D01*
X150213750Y-77823750D01*
X150143135Y-77853000D01*
X145615000Y-77853000D01*
X145567164Y-77862515D01*
X145425743Y-77921094D01*
X145385190Y-77948191D01*
X145358094Y-77988743D01*
X145299515Y-78130164D01*
X145290000Y-78178000D01*
X145290000Y-78431000D01*
X145180000Y-78431000D01*
X145023750Y-78587250D01*
X145023750Y-79406000D01*
X145267500Y-79406000D01*
X145267500Y-80106000D01*
X145023750Y-80106000D01*
X145023750Y-80393000D01*
X144536250Y-80393000D01*
X144536250Y-80106000D01*
X143823750Y-80106000D01*
X143667500Y-80262250D01*
X143667500Y-80393000D01*
X142802070Y-80393000D01*
X142769448Y-80397332D01*
X142668674Y-80424576D01*
X142638312Y-80437272D01*
X140222023Y-81846773D01*
X140216750Y-81841500D01*
X139563000Y-81841500D01*
X139563000Y-82147750D01*
X139486750Y-82071500D01*
X139193000Y-82071500D01*
X139193000Y-81841500D01*
X138539250Y-81841500D01*
X138383000Y-81997750D01*
X138383000Y-82171000D01*
X137638865Y-82171000D01*
X137568250Y-82141750D01*
X137539000Y-82071135D01*
X137539000Y-80559000D01*
X137641750Y-80559000D01*
X137798000Y-80402750D01*
X137798000Y-80089680D01*
X138383000Y-80089680D01*
X138383000Y-80600250D01*
X138539250Y-80756500D01*
X139193000Y-80756500D01*
X139193000Y-80646500D01*
X139486750Y-80646500D01*
X139563000Y-80570250D01*
X139563000Y-80756500D01*
X140216750Y-80756500D01*
X140373000Y-80600250D01*
X140373000Y-80089680D01*
X140277849Y-79859966D01*
X140253002Y-79835119D01*
X140253002Y-79589000D01*
X139551591Y-79589000D01*
X139547849Y-79579966D01*
X139503000Y-79535117D01*
X139503000Y-78931680D01*
X143667500Y-78931680D01*
X143667500Y-79249750D01*
X143823750Y-79406000D01*
X144536250Y-79406000D01*
X144536250Y-78587250D01*
X144380000Y-78431000D01*
X144168180Y-78431000D01*
X143938466Y-78526150D01*
X143762651Y-78701966D01*
X143667500Y-78931680D01*
X139503000Y-78931680D01*
X139503000Y-78698998D01*
X139246882Y-78698998D01*
X139232034Y-78684150D01*
X139002320Y-78589000D01*
X138674250Y-78589000D01*
X138518000Y-78745250D01*
X138518000Y-79394000D01*
X138554250Y-79394000D01*
X138483000Y-79465250D01*
X138483000Y-79855117D01*
X138478151Y-79859966D01*
X138383000Y-80089680D01*
X137798000Y-80089680D01*
X137798000Y-79754000D01*
X137539000Y-79754000D01*
X137539000Y-79394000D01*
X137798000Y-79394000D01*
X137798000Y-78745250D01*
X137641750Y-78589000D01*
X137539000Y-78589000D01*
X137539000Y-77306836D01*
X137568382Y-77222503D01*
X140896445Y-73026250D01*
X145749000Y-73026250D01*
X145749000Y-73594320D01*
X145844150Y-73824034D01*
X146019966Y-73999849D01*
X146249680Y-74095000D01*
X146817750Y-74095000D01*
X146974000Y-73938750D01*
X146974000Y-72870000D01*
X148174000Y-72870000D01*
X148174000Y-73938750D01*
X148330250Y-74095000D01*
X148898320Y-74095000D01*
X149128034Y-73999849D01*
X149303850Y-73824034D01*
X149399000Y-73594320D01*
X149399000Y-73026250D01*
X149242750Y-72870000D01*
X148174000Y-72870000D01*
X146974000Y-72870000D01*
X145905250Y-72870000D01*
X145749000Y-73026250D01*
X140896445Y-73026250D01*
X142546552Y-70945680D01*
X145749000Y-70945680D01*
X145749000Y-71513750D01*
X145905250Y-71670000D01*
X146974000Y-71670000D01*
X146974000Y-70601250D01*
X148174000Y-70601250D01*
X148174000Y-71670000D01*
X149242750Y-71670000D01*
X149399000Y-71513750D01*
X149399000Y-70945680D01*
X149303850Y-70715966D01*
X149128034Y-70540151D01*
X148898320Y-70445000D01*
X148330250Y-70445000D01*
X148174000Y-70601250D01*
X146974000Y-70601250D01*
X146817750Y-70445000D01*
X146249680Y-70445000D01*
X146019966Y-70540151D01*
X145844150Y-70715966D01*
X145749000Y-70945680D01*
X142546552Y-70945680D01*
X143276099Y-70025817D01*
X143381262Y-69975000D01*
X150143135Y-69975000D01*
X150213750Y-70004250D01*
X150213750Y-70004250D01*
G37*
X150213750Y-70004250D02*
X150243000Y-70074865D01*
X150243000Y-77753135D01*
X150213750Y-77823750D01*
X150143135Y-77853000D01*
X145615000Y-77853000D01*
X145567164Y-77862515D01*
X145425743Y-77921094D01*
X145385190Y-77948191D01*
X145358094Y-77988743D01*
X145299515Y-78130164D01*
X145290000Y-78178000D01*
X145290000Y-78431000D01*
X145180000Y-78431000D01*
X145023750Y-78587250D01*
X145023750Y-79406000D01*
X145267500Y-79406000D01*
X145267500Y-80106000D01*
X145023750Y-80106000D01*
X145023750Y-80393000D01*
X144536250Y-80393000D01*
X144536250Y-80106000D01*
X143823750Y-80106000D01*
X143667500Y-80262250D01*
X143667500Y-80393000D01*
X142802070Y-80393000D01*
X142769448Y-80397332D01*
X142668674Y-80424576D01*
X142638312Y-80437272D01*
X140222023Y-81846773D01*
X140216750Y-81841500D01*
X139563000Y-81841500D01*
X139563000Y-82147750D01*
X139486750Y-82071500D01*
X139193000Y-82071500D01*
X139193000Y-81841500D01*
X138539250Y-81841500D01*
X138383000Y-81997750D01*
X138383000Y-82171000D01*
X137638865Y-82171000D01*
X137568250Y-82141750D01*
X137539000Y-82071135D01*
X137539000Y-80559000D01*
X137641750Y-80559000D01*
X137798000Y-80402750D01*
X137798000Y-80089680D01*
X138383000Y-80089680D01*
X138383000Y-80600250D01*
X138539250Y-80756500D01*
X139193000Y-80756500D01*
X139193000Y-80646500D01*
X139486750Y-80646500D01*
X139563000Y-80570250D01*
X139563000Y-80756500D01*
X140216750Y-80756500D01*
X140373000Y-80600250D01*
X140373000Y-80089680D01*
X140277849Y-79859966D01*
X140253002Y-79835119D01*
X140253002Y-79589000D01*
X139551591Y-79589000D01*
X139547849Y-79579966D01*
X139503000Y-79535117D01*
X139503000Y-78931680D01*
X143667500Y-78931680D01*
X143667500Y-79249750D01*
X143823750Y-79406000D01*
X144536250Y-79406000D01*
X144536250Y-78587250D01*
X144380000Y-78431000D01*
X144168180Y-78431000D01*
X143938466Y-78526150D01*
X143762651Y-78701966D01*
X143667500Y-78931680D01*
X139503000Y-78931680D01*
X139503000Y-78698998D01*
X139246882Y-78698998D01*
X139232034Y-78684150D01*
X139002320Y-78589000D01*
X138674250Y-78589000D01*
X138518000Y-78745250D01*
X138518000Y-79394000D01*
X138554250Y-79394000D01*
X138483000Y-79465250D01*
X138483000Y-79855117D01*
X138478151Y-79859966D01*
X138383000Y-80089680D01*
X137798000Y-80089680D01*
X137798000Y-79754000D01*
X137539000Y-79754000D01*
X137539000Y-79394000D01*
X137798000Y-79394000D01*
X137798000Y-78745250D01*
X137641750Y-78589000D01*
X137539000Y-78589000D01*
X137539000Y-77306836D01*
X137568382Y-77222503D01*
X140896445Y-73026250D01*
X145749000Y-73026250D01*
X145749000Y-73594320D01*
X145844150Y-73824034D01*
X146019966Y-73999849D01*
X146249680Y-74095000D01*
X146817750Y-74095000D01*
X146974000Y-73938750D01*
X146974000Y-72870000D01*
X148174000Y-72870000D01*
X148174000Y-73938750D01*
X148330250Y-74095000D01*
X148898320Y-74095000D01*
X149128034Y-73999849D01*
X149303850Y-73824034D01*
X149399000Y-73594320D01*
X149399000Y-73026250D01*
X149242750Y-72870000D01*
X148174000Y-72870000D01*
X146974000Y-72870000D01*
X145905250Y-72870000D01*
X145749000Y-73026250D01*
X140896445Y-73026250D01*
X142546552Y-70945680D01*
X145749000Y-70945680D01*
X145749000Y-71513750D01*
X145905250Y-71670000D01*
X146974000Y-71670000D01*
X146974000Y-70601250D01*
X148174000Y-70601250D01*
X148174000Y-71670000D01*
X149242750Y-71670000D01*
X149399000Y-71513750D01*
X149399000Y-70945680D01*
X149303850Y-70715966D01*
X149128034Y-70540151D01*
X148898320Y-70445000D01*
X148330250Y-70445000D01*
X148174000Y-70601250D01*
X146974000Y-70601250D01*
X146817750Y-70445000D01*
X146249680Y-70445000D01*
X146019966Y-70540151D01*
X145844150Y-70715966D01*
X145749000Y-70945680D01*
X142546552Y-70945680D01*
X143276099Y-70025817D01*
X143381262Y-69975000D01*
X150143135Y-69975000D01*
X150213750Y-70004250D01*
D33*
G04 #@! TO.N,Net-(C5-Pad2)*
G36*
X127634423Y-85042520D02*
X127662000Y-85084342D01*
X127662000Y-85101388D01*
X127636591Y-85142501D01*
X127440846Y-85240373D01*
X127420975Y-85245544D01*
X127234674Y-85254012D01*
X127200054Y-85241442D01*
X127185161Y-85227790D01*
X127178948Y-85171581D01*
X127332630Y-84951080D01*
X127385665Y-84935910D01*
X127634423Y-85042520D01*
X127634423Y-85042520D01*
G37*
X127634423Y-85042520D02*
X127662000Y-85084342D01*
X127662000Y-85101388D01*
X127636591Y-85142501D01*
X127440846Y-85240373D01*
X127420975Y-85245544D01*
X127234674Y-85254012D01*
X127200054Y-85241442D01*
X127185161Y-85227790D01*
X127178948Y-85171581D01*
X127332630Y-84951080D01*
X127385665Y-84935910D01*
X127634423Y-85042520D01*
D36*
G04 #@! TO.N,VIN*
G36*
X138383000Y-91230250D02*
X138539250Y-91386500D01*
X139193000Y-91386500D01*
X139193000Y-91156500D01*
X139486750Y-91156500D01*
X139563000Y-91080250D01*
X139563000Y-91386500D01*
X140216750Y-91386500D01*
X140222023Y-91381227D01*
X142638312Y-92790728D01*
X142668674Y-92803424D01*
X142769448Y-92830668D01*
X142802070Y-92835000D01*
X143852120Y-92835000D01*
X143824500Y-92901680D01*
X143824500Y-93219750D01*
X143980750Y-93376000D01*
X144693250Y-93376000D01*
X144693250Y-93026000D01*
X145180750Y-93026000D01*
X145180750Y-93376000D01*
X145290000Y-93376000D01*
X145290000Y-94076000D01*
X145180750Y-94076000D01*
X145180750Y-94894750D01*
X145290000Y-95004000D01*
X145290000Y-95050000D01*
X145299515Y-95097836D01*
X145358094Y-95239257D01*
X145385191Y-95279810D01*
X145425743Y-95306906D01*
X145567164Y-95365485D01*
X145615000Y-95375000D01*
X150397135Y-95375000D01*
X150467750Y-95404250D01*
X150497000Y-95474865D01*
X150497000Y-103407135D01*
X150467750Y-103477750D01*
X150397135Y-103507000D01*
X140635741Y-103507000D01*
X140513534Y-103424263D01*
X139626330Y-101206250D01*
X145749000Y-101206250D01*
X145749000Y-101774320D01*
X145844150Y-102004034D01*
X146019966Y-102179849D01*
X146249680Y-102275000D01*
X146817750Y-102275000D01*
X146974000Y-102118750D01*
X146974000Y-101050000D01*
X148174000Y-101050000D01*
X148174000Y-102118750D01*
X148330250Y-102275000D01*
X148898320Y-102275000D01*
X149128034Y-102179849D01*
X149303850Y-102004034D01*
X149399000Y-101774320D01*
X149399000Y-101206250D01*
X149242750Y-101050000D01*
X148174000Y-101050000D01*
X146974000Y-101050000D01*
X145905250Y-101050000D01*
X145749000Y-101206250D01*
X139626330Y-101206250D01*
X138794103Y-99125680D01*
X145749000Y-99125680D01*
X145749000Y-99693750D01*
X145905250Y-99850000D01*
X146974000Y-99850000D01*
X146974000Y-98781250D01*
X148174000Y-98781250D01*
X148174000Y-99850000D01*
X149242750Y-99850000D01*
X149399000Y-99693750D01*
X149399000Y-99125680D01*
X149303850Y-98895966D01*
X149128034Y-98720151D01*
X148898320Y-98625000D01*
X148330250Y-98625000D01*
X148174000Y-98781250D01*
X146974000Y-98781250D01*
X146817750Y-98625000D01*
X146249680Y-98625000D01*
X146019966Y-98720151D01*
X145844150Y-98895966D01*
X145749000Y-99125680D01*
X138794103Y-99125680D01*
X137548793Y-96012407D01*
X137539000Y-95961559D01*
X137539000Y-94639000D01*
X137641750Y-94639000D01*
X137798000Y-94482750D01*
X137798000Y-93834000D01*
X137539000Y-93834000D01*
X137539000Y-93474000D01*
X137798000Y-93474000D01*
X137798000Y-92825250D01*
X137641750Y-92669000D01*
X137539000Y-92669000D01*
X137539000Y-92627750D01*
X138383000Y-92627750D01*
X138383000Y-93138320D01*
X138478151Y-93368034D01*
X138483000Y-93372883D01*
X138483000Y-93762750D01*
X138554250Y-93834000D01*
X138518000Y-93834000D01*
X138518000Y-94482750D01*
X138674250Y-94639000D01*
X139002320Y-94639000D01*
X139232034Y-94543850D01*
X139246882Y-94529002D01*
X139503000Y-94529002D01*
X139503000Y-94232250D01*
X143824500Y-94232250D01*
X143824500Y-94550320D01*
X143919651Y-94780034D01*
X144095466Y-94955850D01*
X144325180Y-95051000D01*
X144537000Y-95051000D01*
X144693250Y-94894750D01*
X144693250Y-94076000D01*
X143980750Y-94076000D01*
X143824500Y-94232250D01*
X139503000Y-94232250D01*
X139503000Y-93692883D01*
X139547849Y-93648034D01*
X139551591Y-93639000D01*
X140253002Y-93639000D01*
X140253002Y-93392881D01*
X140277849Y-93368034D01*
X140373000Y-93138320D01*
X140373000Y-92627750D01*
X140216750Y-92471500D01*
X139563000Y-92471500D01*
X139563000Y-92657750D01*
X139486750Y-92581500D01*
X139193000Y-92581500D01*
X139193000Y-92471500D01*
X138539250Y-92471500D01*
X138383000Y-92627750D01*
X137539000Y-92627750D01*
X137539000Y-91156865D01*
X137568250Y-91086250D01*
X137638865Y-91057000D01*
X138383000Y-91057000D01*
X138383000Y-91230250D01*
X138383000Y-91230250D01*
G37*
X138383000Y-91230250D02*
X138539250Y-91386500D01*
X139193000Y-91386500D01*
X139193000Y-91156500D01*
X139486750Y-91156500D01*
X139563000Y-91080250D01*
X139563000Y-91386500D01*
X140216750Y-91386500D01*
X140222023Y-91381227D01*
X142638312Y-92790728D01*
X142668674Y-92803424D01*
X142769448Y-92830668D01*
X142802070Y-92835000D01*
X143852120Y-92835000D01*
X143824500Y-92901680D01*
X143824500Y-93219750D01*
X143980750Y-93376000D01*
X144693250Y-93376000D01*
X144693250Y-93026000D01*
X145180750Y-93026000D01*
X145180750Y-93376000D01*
X145290000Y-93376000D01*
X145290000Y-94076000D01*
X145180750Y-94076000D01*
X145180750Y-94894750D01*
X145290000Y-95004000D01*
X145290000Y-95050000D01*
X145299515Y-95097836D01*
X145358094Y-95239257D01*
X145385191Y-95279810D01*
X145425743Y-95306906D01*
X145567164Y-95365485D01*
X145615000Y-95375000D01*
X150397135Y-95375000D01*
X150467750Y-95404250D01*
X150497000Y-95474865D01*
X150497000Y-103407135D01*
X150467750Y-103477750D01*
X150397135Y-103507000D01*
X140635741Y-103507000D01*
X140513534Y-103424263D01*
X139626330Y-101206250D01*
X145749000Y-101206250D01*
X145749000Y-101774320D01*
X145844150Y-102004034D01*
X146019966Y-102179849D01*
X146249680Y-102275000D01*
X146817750Y-102275000D01*
X146974000Y-102118750D01*
X146974000Y-101050000D01*
X148174000Y-101050000D01*
X148174000Y-102118750D01*
X148330250Y-102275000D01*
X148898320Y-102275000D01*
X149128034Y-102179849D01*
X149303850Y-102004034D01*
X149399000Y-101774320D01*
X149399000Y-101206250D01*
X149242750Y-101050000D01*
X148174000Y-101050000D01*
X146974000Y-101050000D01*
X145905250Y-101050000D01*
X145749000Y-101206250D01*
X139626330Y-101206250D01*
X138794103Y-99125680D01*
X145749000Y-99125680D01*
X145749000Y-99693750D01*
X145905250Y-99850000D01*
X146974000Y-99850000D01*
X146974000Y-98781250D01*
X148174000Y-98781250D01*
X148174000Y-99850000D01*
X149242750Y-99850000D01*
X149399000Y-99693750D01*
X149399000Y-99125680D01*
X149303850Y-98895966D01*
X149128034Y-98720151D01*
X148898320Y-98625000D01*
X148330250Y-98625000D01*
X148174000Y-98781250D01*
X146974000Y-98781250D01*
X146817750Y-98625000D01*
X146249680Y-98625000D01*
X146019966Y-98720151D01*
X145844150Y-98895966D01*
X145749000Y-99125680D01*
X138794103Y-99125680D01*
X137548793Y-96012407D01*
X137539000Y-95961559D01*
X137539000Y-94639000D01*
X137641750Y-94639000D01*
X137798000Y-94482750D01*
X137798000Y-93834000D01*
X137539000Y-93834000D01*
X137539000Y-93474000D01*
X137798000Y-93474000D01*
X137798000Y-92825250D01*
X137641750Y-92669000D01*
X137539000Y-92669000D01*
X137539000Y-92627750D01*
X138383000Y-92627750D01*
X138383000Y-93138320D01*
X138478151Y-93368034D01*
X138483000Y-93372883D01*
X138483000Y-93762750D01*
X138554250Y-93834000D01*
X138518000Y-93834000D01*
X138518000Y-94482750D01*
X138674250Y-94639000D01*
X139002320Y-94639000D01*
X139232034Y-94543850D01*
X139246882Y-94529002D01*
X139503000Y-94529002D01*
X139503000Y-94232250D01*
X143824500Y-94232250D01*
X143824500Y-94550320D01*
X143919651Y-94780034D01*
X144095466Y-94955850D01*
X144325180Y-95051000D01*
X144537000Y-95051000D01*
X144693250Y-94894750D01*
X144693250Y-94076000D01*
X143980750Y-94076000D01*
X143824500Y-94232250D01*
X139503000Y-94232250D01*
X139503000Y-93692883D01*
X139547849Y-93648034D01*
X139551591Y-93639000D01*
X140253002Y-93639000D01*
X140253002Y-93392881D01*
X140277849Y-93368034D01*
X140373000Y-93138320D01*
X140373000Y-92627750D01*
X140216750Y-92471500D01*
X139563000Y-92471500D01*
X139563000Y-92657750D01*
X139486750Y-92581500D01*
X139193000Y-92581500D01*
X139193000Y-92471500D01*
X138539250Y-92471500D01*
X138383000Y-92627750D01*
X137539000Y-92627750D01*
X137539000Y-91156865D01*
X137568250Y-91086250D01*
X137638865Y-91057000D01*
X138383000Y-91057000D01*
X138383000Y-91230250D01*
G04 #@! TO.N,Net-(R1-Pad1)*
G36*
X132451000Y-74338500D02*
X135265000Y-74338500D01*
X135265000Y-74039000D01*
X136515000Y-74039000D01*
X136515000Y-74338500D01*
X136535000Y-74338500D01*
X136535000Y-75013500D01*
X136515000Y-75013500D01*
X136515000Y-75819750D01*
X136671250Y-75976000D01*
X137160459Y-75976000D01*
X135941058Y-78589000D01*
X135714250Y-78589000D01*
X135558000Y-78745250D01*
X135558000Y-79457340D01*
X135543000Y-79532750D01*
X135543000Y-80206756D01*
X134993000Y-80206756D01*
X134993000Y-79532749D01*
X134978000Y-79457339D01*
X134978000Y-78745250D01*
X134821750Y-78589000D01*
X134563680Y-78589000D01*
X134487724Y-78620462D01*
X134268000Y-78576756D01*
X134219481Y-78576756D01*
X134038278Y-78455954D01*
X133968940Y-78434960D01*
X133747060Y-78434960D01*
X133677722Y-78455954D01*
X133496519Y-78576756D01*
X133448000Y-78576756D01*
X133228276Y-78620462D01*
X133152320Y-78589000D01*
X132894250Y-78589000D01*
X132738000Y-78745250D01*
X132738000Y-79457340D01*
X132723000Y-79532750D01*
X132723000Y-80206756D01*
X132173000Y-80206756D01*
X132173000Y-79532749D01*
X132158000Y-79457339D01*
X132158000Y-78745250D01*
X132001750Y-78589000D01*
X131774942Y-78589000D01*
X130555541Y-75976000D01*
X131044750Y-75976000D01*
X131201000Y-75819750D01*
X131201000Y-75013500D01*
X132451000Y-75013500D01*
X132451000Y-75819750D01*
X132607250Y-75976000D01*
X133625320Y-75976000D01*
X133855034Y-75880849D01*
X133858000Y-75877883D01*
X133860966Y-75880849D01*
X134090680Y-75976000D01*
X135108750Y-75976000D01*
X135265000Y-75819750D01*
X135265000Y-75013500D01*
X132451000Y-75013500D01*
X131201000Y-75013500D01*
X131181000Y-75013500D01*
X131181000Y-74338500D01*
X131201000Y-74338500D01*
X131201000Y-74039000D01*
X132451000Y-74039000D01*
X132451000Y-74338500D01*
X132451000Y-74338500D01*
G37*
X132451000Y-74338500D02*
X135265000Y-74338500D01*
X135265000Y-74039000D01*
X136515000Y-74039000D01*
X136515000Y-74338500D01*
X136535000Y-74338500D01*
X136535000Y-75013500D01*
X136515000Y-75013500D01*
X136515000Y-75819750D01*
X136671250Y-75976000D01*
X137160459Y-75976000D01*
X135941058Y-78589000D01*
X135714250Y-78589000D01*
X135558000Y-78745250D01*
X135558000Y-79457340D01*
X135543000Y-79532750D01*
X135543000Y-80206756D01*
X134993000Y-80206756D01*
X134993000Y-79532749D01*
X134978000Y-79457339D01*
X134978000Y-78745250D01*
X134821750Y-78589000D01*
X134563680Y-78589000D01*
X134487724Y-78620462D01*
X134268000Y-78576756D01*
X134219481Y-78576756D01*
X134038278Y-78455954D01*
X133968940Y-78434960D01*
X133747060Y-78434960D01*
X133677722Y-78455954D01*
X133496519Y-78576756D01*
X133448000Y-78576756D01*
X133228276Y-78620462D01*
X133152320Y-78589000D01*
X132894250Y-78589000D01*
X132738000Y-78745250D01*
X132738000Y-79457340D01*
X132723000Y-79532750D01*
X132723000Y-80206756D01*
X132173000Y-80206756D01*
X132173000Y-79532749D01*
X132158000Y-79457339D01*
X132158000Y-78745250D01*
X132001750Y-78589000D01*
X131774942Y-78589000D01*
X130555541Y-75976000D01*
X131044750Y-75976000D01*
X131201000Y-75819750D01*
X131201000Y-75013500D01*
X132451000Y-75013500D01*
X132451000Y-75819750D01*
X132607250Y-75976000D01*
X133625320Y-75976000D01*
X133855034Y-75880849D01*
X133858000Y-75877883D01*
X133860966Y-75880849D01*
X134090680Y-75976000D01*
X135108750Y-75976000D01*
X135265000Y-75819750D01*
X135265000Y-75013500D01*
X132451000Y-75013500D01*
X131201000Y-75013500D01*
X131181000Y-75013500D01*
X131181000Y-74338500D01*
X131201000Y-74338500D01*
X131201000Y-74039000D01*
X132451000Y-74039000D01*
X132451000Y-74338500D01*
G04 #@! TO.N,GND*
G36*
X162368000Y-61249949D02*
X162368000Y-68963000D01*
X142592835Y-68963000D01*
X142537456Y-68975937D01*
X142378584Y-69054447D01*
X142334668Y-69090579D01*
X139170480Y-73228364D01*
X139063965Y-73281000D01*
X130272865Y-73281000D01*
X130202250Y-73251750D01*
X130173000Y-73181135D01*
X130173000Y-72218843D01*
X130163485Y-72171008D01*
X130104906Y-72029586D01*
X130077809Y-71989033D01*
X129178967Y-71090191D01*
X129138414Y-71063094D01*
X129061552Y-71031257D01*
X129087000Y-70969820D01*
X129087000Y-70758000D01*
X128930750Y-70601750D01*
X128112000Y-70601750D01*
X128112000Y-70753000D01*
X127412000Y-70753000D01*
X127412000Y-70601750D01*
X126593250Y-70601750D01*
X126437000Y-70758000D01*
X126437000Y-70969820D01*
X126447430Y-70995000D01*
X116216843Y-70995000D01*
X116336409Y-70915118D01*
X116666338Y-70443547D01*
X116586314Y-70225000D01*
X115691000Y-70225000D01*
X115691000Y-70245000D01*
X114941000Y-70245000D01*
X114941000Y-70225000D01*
X113151000Y-70225000D01*
X113151000Y-70245000D01*
X112401000Y-70245000D01*
X112401000Y-70225000D01*
X112381000Y-70225000D01*
X112381000Y-69746180D01*
X126437000Y-69746180D01*
X126437000Y-69958000D01*
X126593250Y-70114250D01*
X127412000Y-70114250D01*
X127412000Y-69401750D01*
X128112000Y-69401750D01*
X128112000Y-70114250D01*
X128930750Y-70114250D01*
X129087000Y-69958000D01*
X129087000Y-69746180D01*
X128991850Y-69516466D01*
X128845134Y-69369750D01*
X129526000Y-69369750D01*
X129526000Y-69675320D01*
X129621150Y-69905034D01*
X129796966Y-70080849D01*
X130026680Y-70176000D01*
X131294750Y-70176000D01*
X131451000Y-70019750D01*
X131451000Y-69213500D01*
X132201000Y-69213500D01*
X132201000Y-70019750D01*
X132357250Y-70176000D01*
X133625320Y-70176000D01*
X133855034Y-70080849D01*
X133858000Y-70077883D01*
X133860966Y-70080849D01*
X134090680Y-70176000D01*
X135358750Y-70176000D01*
X135515000Y-70019750D01*
X135515000Y-69213500D01*
X136265000Y-69213500D01*
X136265000Y-70019750D01*
X136421250Y-70176000D01*
X137689320Y-70176000D01*
X137919034Y-70080849D01*
X138094850Y-69905034D01*
X138190000Y-69675320D01*
X138190000Y-69369750D01*
X138033750Y-69213500D01*
X136265000Y-69213500D01*
X135515000Y-69213500D01*
X132201000Y-69213500D01*
X131451000Y-69213500D01*
X129682250Y-69213500D01*
X129526000Y-69369750D01*
X128845134Y-69369750D01*
X128816034Y-69340651D01*
X128586320Y-69245500D01*
X128268250Y-69245500D01*
X128112000Y-69401750D01*
X127412000Y-69401750D01*
X127255750Y-69245500D01*
X126937680Y-69245500D01*
X126707966Y-69340651D01*
X126532150Y-69516466D01*
X126437000Y-69746180D01*
X112381000Y-69746180D01*
X112381000Y-69475000D01*
X112401000Y-69475000D01*
X112401000Y-68585691D01*
X113151000Y-68585691D01*
X113151000Y-69475000D01*
X114941000Y-69475000D01*
X114941000Y-68585691D01*
X115691000Y-68585691D01*
X115691000Y-69475000D01*
X116586314Y-69475000D01*
X116666338Y-69256453D01*
X116336409Y-68784882D01*
X115909542Y-68499692D01*
X115691000Y-68585691D01*
X114941000Y-68585691D01*
X114722458Y-68499692D01*
X114295591Y-68784882D01*
X114046000Y-69141625D01*
X113796409Y-68784882D01*
X113369542Y-68499692D01*
X113151000Y-68585691D01*
X112401000Y-68585691D01*
X112182458Y-68499692D01*
X111885000Y-68698424D01*
X111885000Y-68272000D01*
X111875485Y-68224164D01*
X111816906Y-68082743D01*
X111812855Y-68076680D01*
X129526000Y-68076680D01*
X129526000Y-68382250D01*
X129682250Y-68538500D01*
X131451000Y-68538500D01*
X131451000Y-67732250D01*
X132201000Y-67732250D01*
X132201000Y-68538500D01*
X135515000Y-68538500D01*
X135515000Y-67732250D01*
X136265000Y-67732250D01*
X136265000Y-68538500D01*
X138033750Y-68538500D01*
X138190000Y-68382250D01*
X138190000Y-68076680D01*
X138094850Y-67846966D01*
X137919034Y-67671151D01*
X137689320Y-67576000D01*
X136421250Y-67576000D01*
X136265000Y-67732250D01*
X135515000Y-67732250D01*
X135358750Y-67576000D01*
X134090680Y-67576000D01*
X133860966Y-67671151D01*
X133858000Y-67674117D01*
X133855034Y-67671151D01*
X133625320Y-67576000D01*
X132357250Y-67576000D01*
X132201000Y-67732250D01*
X131451000Y-67732250D01*
X131294750Y-67576000D01*
X130026680Y-67576000D01*
X129796966Y-67671151D01*
X129621150Y-67846966D01*
X129526000Y-68076680D01*
X111812855Y-68076680D01*
X111789809Y-68042190D01*
X111749257Y-68015094D01*
X111607836Y-67956515D01*
X111560000Y-67947000D01*
X105721359Y-67947000D01*
X105686899Y-67951844D01*
X105580899Y-67982244D01*
X105549109Y-67996400D01*
X99595750Y-71717250D01*
X99552670Y-71762654D01*
X99458670Y-71932254D01*
X99443000Y-71992850D01*
X99443000Y-74531848D01*
X99452515Y-74579683D01*
X99466595Y-74604937D01*
X99603349Y-74794674D01*
X99639037Y-74827916D01*
X99665226Y-74840170D01*
X100688169Y-75181151D01*
X100560403Y-75392073D01*
X101600000Y-76431670D01*
X101614143Y-76417528D01*
X101729000Y-76532385D01*
X101729000Y-77391615D01*
X101614143Y-77506473D01*
X101600000Y-77492330D01*
X100560403Y-78531927D01*
X100688169Y-78742849D01*
X99665226Y-79083830D01*
X99622854Y-79107983D01*
X99603349Y-79129326D01*
X99466595Y-79319063D01*
X99446344Y-79363433D01*
X99443000Y-79392152D01*
X99443000Y-94034000D01*
X99452515Y-94081836D01*
X99511094Y-94223257D01*
X99538191Y-94263810D01*
X99578743Y-94290906D01*
X99720164Y-94349485D01*
X99768000Y-94359000D01*
X102899135Y-94359000D01*
X102969750Y-94388250D01*
X102999000Y-94458865D01*
X102999000Y-98146410D01*
X103008515Y-98194245D01*
X103024381Y-98221916D01*
X103170330Y-98414474D01*
X103206808Y-98446849D01*
X103236167Y-98459317D01*
X117541705Y-102474907D01*
X117558437Y-102478390D01*
X117612488Y-102485832D01*
X117629538Y-102487000D01*
X126447430Y-102487000D01*
X126437000Y-102512180D01*
X126437000Y-102724000D01*
X126593250Y-102880250D01*
X127412000Y-102880250D01*
X127412000Y-102729000D01*
X128112000Y-102729000D01*
X128112000Y-102880250D01*
X128930750Y-102880250D01*
X129087000Y-102724000D01*
X129087000Y-102512180D01*
X129061552Y-102450743D01*
X129138414Y-102418906D01*
X129178967Y-102391809D01*
X129823809Y-101746967D01*
X129850906Y-101706414D01*
X129909485Y-101564992D01*
X129919000Y-101517157D01*
X129919000Y-100046865D01*
X129948250Y-99976250D01*
X130018865Y-99947000D01*
X138002259Y-99947000D01*
X138124466Y-100029737D01*
X140041651Y-104822702D01*
X140068252Y-104863582D01*
X140087633Y-104879786D01*
X140273329Y-105005508D01*
X140318274Y-105024447D01*
X140343407Y-105027000D01*
X162368001Y-105027000D01*
X162368001Y-111470050D01*
X161762052Y-112076000D01*
X99095949Y-112076000D01*
X98490000Y-111470052D01*
X98490000Y-108015420D01*
X99883000Y-108015420D01*
X99883000Y-108900580D01*
X100221736Y-109718361D01*
X100847639Y-110344264D01*
X101665420Y-110683000D01*
X102550580Y-110683000D01*
X103368361Y-110344264D01*
X103994264Y-109718361D01*
X104129902Y-109390900D01*
X146663430Y-109390900D01*
X146806099Y-109644914D01*
X147513168Y-109809759D01*
X148229496Y-109691472D01*
X148341901Y-109644914D01*
X148484570Y-109390900D01*
X147574000Y-108480330D01*
X146663430Y-109390900D01*
X104129902Y-109390900D01*
X104333000Y-108900580D01*
X104333000Y-108015420D01*
X104280705Y-107889168D01*
X145714241Y-107889168D01*
X145832528Y-108605496D01*
X145879086Y-108717901D01*
X146133100Y-108860570D01*
X147043670Y-107950000D01*
X148104330Y-107950000D01*
X149014900Y-108860570D01*
X149268914Y-108717901D01*
X149432689Y-108015420D01*
X156525000Y-108015420D01*
X156525000Y-108900580D01*
X156863736Y-109718361D01*
X157489639Y-110344264D01*
X158307420Y-110683000D01*
X159192580Y-110683000D01*
X160010361Y-110344264D01*
X160636264Y-109718361D01*
X160975000Y-108900580D01*
X160975000Y-108015420D01*
X160636264Y-107197639D01*
X160010361Y-106571736D01*
X159192580Y-106233000D01*
X158307420Y-106233000D01*
X157489639Y-106571736D01*
X156863736Y-107197639D01*
X156525000Y-108015420D01*
X149432689Y-108015420D01*
X149433759Y-108010832D01*
X149315472Y-107294504D01*
X149268914Y-107182099D01*
X149014900Y-107039430D01*
X148104330Y-107950000D01*
X147043670Y-107950000D01*
X146133100Y-107039430D01*
X145879086Y-107182099D01*
X145714241Y-107889168D01*
X104280705Y-107889168D01*
X103994264Y-107197639D01*
X103368361Y-106571736D01*
X103217145Y-106509100D01*
X146663430Y-106509100D01*
X147574000Y-107419670D01*
X148484570Y-106509100D01*
X148341901Y-106255086D01*
X147634832Y-106090241D01*
X146918504Y-106208528D01*
X146806099Y-106255086D01*
X146663430Y-106509100D01*
X103217145Y-106509100D01*
X102550580Y-106233000D01*
X101665420Y-106233000D01*
X100847639Y-106571736D01*
X100221736Y-107197639D01*
X99883000Y-108015420D01*
X98490000Y-108015420D01*
X98490000Y-104845750D01*
X129526000Y-104845750D01*
X129526000Y-105151320D01*
X129621150Y-105381034D01*
X129796966Y-105556849D01*
X130026680Y-105652000D01*
X131294750Y-105652000D01*
X131451000Y-105495750D01*
X131451000Y-104689500D01*
X132201000Y-104689500D01*
X132201000Y-105495750D01*
X132357250Y-105652000D01*
X133625320Y-105652000D01*
X133855034Y-105556849D01*
X133858000Y-105553883D01*
X133860966Y-105556849D01*
X134090680Y-105652000D01*
X135358750Y-105652000D01*
X135515000Y-105495750D01*
X135515000Y-104689500D01*
X136265000Y-104689500D01*
X136265000Y-105495750D01*
X136421250Y-105652000D01*
X137689320Y-105652000D01*
X137919034Y-105556849D01*
X138094850Y-105381034D01*
X138190000Y-105151320D01*
X138190000Y-104845750D01*
X138033750Y-104689500D01*
X136265000Y-104689500D01*
X135515000Y-104689500D01*
X132201000Y-104689500D01*
X131451000Y-104689500D01*
X129682250Y-104689500D01*
X129526000Y-104845750D01*
X98490000Y-104845750D01*
X98490000Y-103524000D01*
X126437000Y-103524000D01*
X126437000Y-103735820D01*
X126532150Y-103965534D01*
X126707966Y-104141349D01*
X126937680Y-104236500D01*
X127255750Y-104236500D01*
X127412000Y-104080250D01*
X127412000Y-103367750D01*
X128112000Y-103367750D01*
X128112000Y-104080250D01*
X128268250Y-104236500D01*
X128586320Y-104236500D01*
X128816034Y-104141349D01*
X128991850Y-103965534D01*
X129087000Y-103735820D01*
X129087000Y-103552680D01*
X129526000Y-103552680D01*
X129526000Y-103858250D01*
X129682250Y-104014500D01*
X131451000Y-104014500D01*
X131451000Y-103208250D01*
X132201000Y-103208250D01*
X132201000Y-104014500D01*
X135515000Y-104014500D01*
X135515000Y-103208250D01*
X136265000Y-103208250D01*
X136265000Y-104014500D01*
X138033750Y-104014500D01*
X138190000Y-103858250D01*
X138190000Y-103552680D01*
X138094850Y-103322966D01*
X137919034Y-103147151D01*
X137689320Y-103052000D01*
X136421250Y-103052000D01*
X136265000Y-103208250D01*
X135515000Y-103208250D01*
X135358750Y-103052000D01*
X134090680Y-103052000D01*
X133860966Y-103147151D01*
X133858000Y-103150117D01*
X133855034Y-103147151D01*
X133625320Y-103052000D01*
X132357250Y-103052000D01*
X132201000Y-103208250D01*
X131451000Y-103208250D01*
X131294750Y-103052000D01*
X130026680Y-103052000D01*
X129796966Y-103147151D01*
X129621150Y-103322966D01*
X129526000Y-103552680D01*
X129087000Y-103552680D01*
X129087000Y-103524000D01*
X128930750Y-103367750D01*
X128112000Y-103367750D01*
X127412000Y-103367750D01*
X126593250Y-103367750D01*
X126437000Y-103524000D01*
X98490000Y-103524000D01*
X98490000Y-76858719D01*
X99563434Y-76858719D01*
X99678934Y-77645941D01*
X99757983Y-77836779D01*
X100030073Y-78001597D01*
X101069670Y-76962000D01*
X100030073Y-75922403D01*
X99757983Y-76087221D01*
X99563434Y-76858719D01*
X98490000Y-76858719D01*
X98490000Y-63819420D01*
X99883000Y-63819420D01*
X99883000Y-64704580D01*
X100221736Y-65522361D01*
X100847639Y-66148264D01*
X101665420Y-66487000D01*
X102550580Y-66487000D01*
X103217144Y-66210900D01*
X146663430Y-66210900D01*
X146806099Y-66464914D01*
X147513168Y-66629759D01*
X148229496Y-66511472D01*
X148341901Y-66464914D01*
X148484570Y-66210900D01*
X147574000Y-65300330D01*
X146663430Y-66210900D01*
X103217144Y-66210900D01*
X103368361Y-66148264D01*
X103994264Y-65522361D01*
X104331099Y-64709168D01*
X145714241Y-64709168D01*
X145832528Y-65425496D01*
X145879086Y-65537901D01*
X146133100Y-65680570D01*
X147043670Y-64770000D01*
X148104330Y-64770000D01*
X149014900Y-65680570D01*
X149268914Y-65537901D01*
X149433759Y-64830832D01*
X149315472Y-64114504D01*
X149268914Y-64002099D01*
X149014900Y-63859430D01*
X148104330Y-64770000D01*
X147043670Y-64770000D01*
X146133100Y-63859430D01*
X145879086Y-64002099D01*
X145714241Y-64709168D01*
X104331099Y-64709168D01*
X104333000Y-64704580D01*
X104333000Y-63819420D01*
X104129903Y-63329100D01*
X146663430Y-63329100D01*
X147574000Y-64239670D01*
X147994250Y-63819420D01*
X156525000Y-63819420D01*
X156525000Y-64704580D01*
X156863736Y-65522361D01*
X157489639Y-66148264D01*
X158307420Y-66487000D01*
X159192580Y-66487000D01*
X160010361Y-66148264D01*
X160636264Y-65522361D01*
X160975000Y-64704580D01*
X160975000Y-63819420D01*
X160636264Y-63001639D01*
X160010361Y-62375736D01*
X159192580Y-62037000D01*
X158307420Y-62037000D01*
X157489639Y-62375736D01*
X156863736Y-63001639D01*
X156525000Y-63819420D01*
X147994250Y-63819420D01*
X148484570Y-63329100D01*
X148341901Y-63075086D01*
X147634832Y-62910241D01*
X146918504Y-63028528D01*
X146806099Y-63075086D01*
X146663430Y-63329100D01*
X104129903Y-63329100D01*
X103994264Y-63001639D01*
X103368361Y-62375736D01*
X102550580Y-62037000D01*
X101665420Y-62037000D01*
X100847639Y-62375736D01*
X100221736Y-63001639D01*
X99883000Y-63819420D01*
X98490000Y-63819420D01*
X98490000Y-61249948D01*
X99095949Y-60644000D01*
X161762052Y-60644000D01*
X162368000Y-61249949D01*
X162368000Y-61249949D01*
G37*
X162368000Y-61249949D02*
X162368000Y-68963000D01*
X142592835Y-68963000D01*
X142537456Y-68975937D01*
X142378584Y-69054447D01*
X142334668Y-69090579D01*
X139170480Y-73228364D01*
X139063965Y-73281000D01*
X130272865Y-73281000D01*
X130202250Y-73251750D01*
X130173000Y-73181135D01*
X130173000Y-72218843D01*
X130163485Y-72171008D01*
X130104906Y-72029586D01*
X130077809Y-71989033D01*
X129178967Y-71090191D01*
X129138414Y-71063094D01*
X129061552Y-71031257D01*
X129087000Y-70969820D01*
X129087000Y-70758000D01*
X128930750Y-70601750D01*
X128112000Y-70601750D01*
X128112000Y-70753000D01*
X127412000Y-70753000D01*
X127412000Y-70601750D01*
X126593250Y-70601750D01*
X126437000Y-70758000D01*
X126437000Y-70969820D01*
X126447430Y-70995000D01*
X116216843Y-70995000D01*
X116336409Y-70915118D01*
X116666338Y-70443547D01*
X116586314Y-70225000D01*
X115691000Y-70225000D01*
X115691000Y-70245000D01*
X114941000Y-70245000D01*
X114941000Y-70225000D01*
X113151000Y-70225000D01*
X113151000Y-70245000D01*
X112401000Y-70245000D01*
X112401000Y-70225000D01*
X112381000Y-70225000D01*
X112381000Y-69746180D01*
X126437000Y-69746180D01*
X126437000Y-69958000D01*
X126593250Y-70114250D01*
X127412000Y-70114250D01*
X127412000Y-69401750D01*
X128112000Y-69401750D01*
X128112000Y-70114250D01*
X128930750Y-70114250D01*
X129087000Y-69958000D01*
X129087000Y-69746180D01*
X128991850Y-69516466D01*
X128845134Y-69369750D01*
X129526000Y-69369750D01*
X129526000Y-69675320D01*
X129621150Y-69905034D01*
X129796966Y-70080849D01*
X130026680Y-70176000D01*
X131294750Y-70176000D01*
X131451000Y-70019750D01*
X131451000Y-69213500D01*
X132201000Y-69213500D01*
X132201000Y-70019750D01*
X132357250Y-70176000D01*
X133625320Y-70176000D01*
X133855034Y-70080849D01*
X133858000Y-70077883D01*
X133860966Y-70080849D01*
X134090680Y-70176000D01*
X135358750Y-70176000D01*
X135515000Y-70019750D01*
X135515000Y-69213500D01*
X136265000Y-69213500D01*
X136265000Y-70019750D01*
X136421250Y-70176000D01*
X137689320Y-70176000D01*
X137919034Y-70080849D01*
X138094850Y-69905034D01*
X138190000Y-69675320D01*
X138190000Y-69369750D01*
X138033750Y-69213500D01*
X136265000Y-69213500D01*
X135515000Y-69213500D01*
X132201000Y-69213500D01*
X131451000Y-69213500D01*
X129682250Y-69213500D01*
X129526000Y-69369750D01*
X128845134Y-69369750D01*
X128816034Y-69340651D01*
X128586320Y-69245500D01*
X128268250Y-69245500D01*
X128112000Y-69401750D01*
X127412000Y-69401750D01*
X127255750Y-69245500D01*
X126937680Y-69245500D01*
X126707966Y-69340651D01*
X126532150Y-69516466D01*
X126437000Y-69746180D01*
X112381000Y-69746180D01*
X112381000Y-69475000D01*
X112401000Y-69475000D01*
X112401000Y-68585691D01*
X113151000Y-68585691D01*
X113151000Y-69475000D01*
X114941000Y-69475000D01*
X114941000Y-68585691D01*
X115691000Y-68585691D01*
X115691000Y-69475000D01*
X116586314Y-69475000D01*
X116666338Y-69256453D01*
X116336409Y-68784882D01*
X115909542Y-68499692D01*
X115691000Y-68585691D01*
X114941000Y-68585691D01*
X114722458Y-68499692D01*
X114295591Y-68784882D01*
X114046000Y-69141625D01*
X113796409Y-68784882D01*
X113369542Y-68499692D01*
X113151000Y-68585691D01*
X112401000Y-68585691D01*
X112182458Y-68499692D01*
X111885000Y-68698424D01*
X111885000Y-68272000D01*
X111875485Y-68224164D01*
X111816906Y-68082743D01*
X111812855Y-68076680D01*
X129526000Y-68076680D01*
X129526000Y-68382250D01*
X129682250Y-68538500D01*
X131451000Y-68538500D01*
X131451000Y-67732250D01*
X132201000Y-67732250D01*
X132201000Y-68538500D01*
X135515000Y-68538500D01*
X135515000Y-67732250D01*
X136265000Y-67732250D01*
X136265000Y-68538500D01*
X138033750Y-68538500D01*
X138190000Y-68382250D01*
X138190000Y-68076680D01*
X138094850Y-67846966D01*
X137919034Y-67671151D01*
X137689320Y-67576000D01*
X136421250Y-67576000D01*
X136265000Y-67732250D01*
X135515000Y-67732250D01*
X135358750Y-67576000D01*
X134090680Y-67576000D01*
X133860966Y-67671151D01*
X133858000Y-67674117D01*
X133855034Y-67671151D01*
X133625320Y-67576000D01*
X132357250Y-67576000D01*
X132201000Y-67732250D01*
X131451000Y-67732250D01*
X131294750Y-67576000D01*
X130026680Y-67576000D01*
X129796966Y-67671151D01*
X129621150Y-67846966D01*
X129526000Y-68076680D01*
X111812855Y-68076680D01*
X111789809Y-68042190D01*
X111749257Y-68015094D01*
X111607836Y-67956515D01*
X111560000Y-67947000D01*
X105721359Y-67947000D01*
X105686899Y-67951844D01*
X105580899Y-67982244D01*
X105549109Y-67996400D01*
X99595750Y-71717250D01*
X99552670Y-71762654D01*
X99458670Y-71932254D01*
X99443000Y-71992850D01*
X99443000Y-74531848D01*
X99452515Y-74579683D01*
X99466595Y-74604937D01*
X99603349Y-74794674D01*
X99639037Y-74827916D01*
X99665226Y-74840170D01*
X100688169Y-75181151D01*
X100560403Y-75392073D01*
X101600000Y-76431670D01*
X101614143Y-76417528D01*
X101729000Y-76532385D01*
X101729000Y-77391615D01*
X101614143Y-77506473D01*
X101600000Y-77492330D01*
X100560403Y-78531927D01*
X100688169Y-78742849D01*
X99665226Y-79083830D01*
X99622854Y-79107983D01*
X99603349Y-79129326D01*
X99466595Y-79319063D01*
X99446344Y-79363433D01*
X99443000Y-79392152D01*
X99443000Y-94034000D01*
X99452515Y-94081836D01*
X99511094Y-94223257D01*
X99538191Y-94263810D01*
X99578743Y-94290906D01*
X99720164Y-94349485D01*
X99768000Y-94359000D01*
X102899135Y-94359000D01*
X102969750Y-94388250D01*
X102999000Y-94458865D01*
X102999000Y-98146410D01*
X103008515Y-98194245D01*
X103024381Y-98221916D01*
X103170330Y-98414474D01*
X103206808Y-98446849D01*
X103236167Y-98459317D01*
X117541705Y-102474907D01*
X117558437Y-102478390D01*
X117612488Y-102485832D01*
X117629538Y-102487000D01*
X126447430Y-102487000D01*
X126437000Y-102512180D01*
X126437000Y-102724000D01*
X126593250Y-102880250D01*
X127412000Y-102880250D01*
X127412000Y-102729000D01*
X128112000Y-102729000D01*
X128112000Y-102880250D01*
X128930750Y-102880250D01*
X129087000Y-102724000D01*
X129087000Y-102512180D01*
X129061552Y-102450743D01*
X129138414Y-102418906D01*
X129178967Y-102391809D01*
X129823809Y-101746967D01*
X129850906Y-101706414D01*
X129909485Y-101564992D01*
X129919000Y-101517157D01*
X129919000Y-100046865D01*
X129948250Y-99976250D01*
X130018865Y-99947000D01*
X138002259Y-99947000D01*
X138124466Y-100029737D01*
X140041651Y-104822702D01*
X140068252Y-104863582D01*
X140087633Y-104879786D01*
X140273329Y-105005508D01*
X140318274Y-105024447D01*
X140343407Y-105027000D01*
X162368001Y-105027000D01*
X162368001Y-111470050D01*
X161762052Y-112076000D01*
X99095949Y-112076000D01*
X98490000Y-111470052D01*
X98490000Y-108015420D01*
X99883000Y-108015420D01*
X99883000Y-108900580D01*
X100221736Y-109718361D01*
X100847639Y-110344264D01*
X101665420Y-110683000D01*
X102550580Y-110683000D01*
X103368361Y-110344264D01*
X103994264Y-109718361D01*
X104129902Y-109390900D01*
X146663430Y-109390900D01*
X146806099Y-109644914D01*
X147513168Y-109809759D01*
X148229496Y-109691472D01*
X148341901Y-109644914D01*
X148484570Y-109390900D01*
X147574000Y-108480330D01*
X146663430Y-109390900D01*
X104129902Y-109390900D01*
X104333000Y-108900580D01*
X104333000Y-108015420D01*
X104280705Y-107889168D01*
X145714241Y-107889168D01*
X145832528Y-108605496D01*
X145879086Y-108717901D01*
X146133100Y-108860570D01*
X147043670Y-107950000D01*
X148104330Y-107950000D01*
X149014900Y-108860570D01*
X149268914Y-108717901D01*
X149432689Y-108015420D01*
X156525000Y-108015420D01*
X156525000Y-108900580D01*
X156863736Y-109718361D01*
X157489639Y-110344264D01*
X158307420Y-110683000D01*
X159192580Y-110683000D01*
X160010361Y-110344264D01*
X160636264Y-109718361D01*
X160975000Y-108900580D01*
X160975000Y-108015420D01*
X160636264Y-107197639D01*
X160010361Y-106571736D01*
X159192580Y-106233000D01*
X158307420Y-106233000D01*
X157489639Y-106571736D01*
X156863736Y-107197639D01*
X156525000Y-108015420D01*
X149432689Y-108015420D01*
X149433759Y-108010832D01*
X149315472Y-107294504D01*
X149268914Y-107182099D01*
X149014900Y-107039430D01*
X148104330Y-107950000D01*
X147043670Y-107950000D01*
X146133100Y-107039430D01*
X145879086Y-107182099D01*
X145714241Y-107889168D01*
X104280705Y-107889168D01*
X103994264Y-107197639D01*
X103368361Y-106571736D01*
X103217145Y-106509100D01*
X146663430Y-106509100D01*
X147574000Y-107419670D01*
X148484570Y-106509100D01*
X148341901Y-106255086D01*
X147634832Y-106090241D01*
X146918504Y-106208528D01*
X146806099Y-106255086D01*
X146663430Y-106509100D01*
X103217145Y-106509100D01*
X102550580Y-106233000D01*
X101665420Y-106233000D01*
X100847639Y-106571736D01*
X100221736Y-107197639D01*
X99883000Y-108015420D01*
X98490000Y-108015420D01*
X98490000Y-104845750D01*
X129526000Y-104845750D01*
X129526000Y-105151320D01*
X129621150Y-105381034D01*
X129796966Y-105556849D01*
X130026680Y-105652000D01*
X131294750Y-105652000D01*
X131451000Y-105495750D01*
X131451000Y-104689500D01*
X132201000Y-104689500D01*
X132201000Y-105495750D01*
X132357250Y-105652000D01*
X133625320Y-105652000D01*
X133855034Y-105556849D01*
X133858000Y-105553883D01*
X133860966Y-105556849D01*
X134090680Y-105652000D01*
X135358750Y-105652000D01*
X135515000Y-105495750D01*
X135515000Y-104689500D01*
X136265000Y-104689500D01*
X136265000Y-105495750D01*
X136421250Y-105652000D01*
X137689320Y-105652000D01*
X137919034Y-105556849D01*
X138094850Y-105381034D01*
X138190000Y-105151320D01*
X138190000Y-104845750D01*
X138033750Y-104689500D01*
X136265000Y-104689500D01*
X135515000Y-104689500D01*
X132201000Y-104689500D01*
X131451000Y-104689500D01*
X129682250Y-104689500D01*
X129526000Y-104845750D01*
X98490000Y-104845750D01*
X98490000Y-103524000D01*
X126437000Y-103524000D01*
X126437000Y-103735820D01*
X126532150Y-103965534D01*
X126707966Y-104141349D01*
X126937680Y-104236500D01*
X127255750Y-104236500D01*
X127412000Y-104080250D01*
X127412000Y-103367750D01*
X128112000Y-103367750D01*
X128112000Y-104080250D01*
X128268250Y-104236500D01*
X128586320Y-104236500D01*
X128816034Y-104141349D01*
X128991850Y-103965534D01*
X129087000Y-103735820D01*
X129087000Y-103552680D01*
X129526000Y-103552680D01*
X129526000Y-103858250D01*
X129682250Y-104014500D01*
X131451000Y-104014500D01*
X131451000Y-103208250D01*
X132201000Y-103208250D01*
X132201000Y-104014500D01*
X135515000Y-104014500D01*
X135515000Y-103208250D01*
X136265000Y-103208250D01*
X136265000Y-104014500D01*
X138033750Y-104014500D01*
X138190000Y-103858250D01*
X138190000Y-103552680D01*
X138094850Y-103322966D01*
X137919034Y-103147151D01*
X137689320Y-103052000D01*
X136421250Y-103052000D01*
X136265000Y-103208250D01*
X135515000Y-103208250D01*
X135358750Y-103052000D01*
X134090680Y-103052000D01*
X133860966Y-103147151D01*
X133858000Y-103150117D01*
X133855034Y-103147151D01*
X133625320Y-103052000D01*
X132357250Y-103052000D01*
X132201000Y-103208250D01*
X131451000Y-103208250D01*
X131294750Y-103052000D01*
X130026680Y-103052000D01*
X129796966Y-103147151D01*
X129621150Y-103322966D01*
X129526000Y-103552680D01*
X129087000Y-103552680D01*
X129087000Y-103524000D01*
X128930750Y-103367750D01*
X128112000Y-103367750D01*
X127412000Y-103367750D01*
X126593250Y-103367750D01*
X126437000Y-103524000D01*
X98490000Y-103524000D01*
X98490000Y-76858719D01*
X99563434Y-76858719D01*
X99678934Y-77645941D01*
X99757983Y-77836779D01*
X100030073Y-78001597D01*
X101069670Y-76962000D01*
X100030073Y-75922403D01*
X99757983Y-76087221D01*
X99563434Y-76858719D01*
X98490000Y-76858719D01*
X98490000Y-63819420D01*
X99883000Y-63819420D01*
X99883000Y-64704580D01*
X100221736Y-65522361D01*
X100847639Y-66148264D01*
X101665420Y-66487000D01*
X102550580Y-66487000D01*
X103217144Y-66210900D01*
X146663430Y-66210900D01*
X146806099Y-66464914D01*
X147513168Y-66629759D01*
X148229496Y-66511472D01*
X148341901Y-66464914D01*
X148484570Y-66210900D01*
X147574000Y-65300330D01*
X146663430Y-66210900D01*
X103217144Y-66210900D01*
X103368361Y-66148264D01*
X103994264Y-65522361D01*
X104331099Y-64709168D01*
X145714241Y-64709168D01*
X145832528Y-65425496D01*
X145879086Y-65537901D01*
X146133100Y-65680570D01*
X147043670Y-64770000D01*
X148104330Y-64770000D01*
X149014900Y-65680570D01*
X149268914Y-65537901D01*
X149433759Y-64830832D01*
X149315472Y-64114504D01*
X149268914Y-64002099D01*
X149014900Y-63859430D01*
X148104330Y-64770000D01*
X147043670Y-64770000D01*
X146133100Y-63859430D01*
X145879086Y-64002099D01*
X145714241Y-64709168D01*
X104331099Y-64709168D01*
X104333000Y-64704580D01*
X104333000Y-63819420D01*
X104129903Y-63329100D01*
X146663430Y-63329100D01*
X147574000Y-64239670D01*
X147994250Y-63819420D01*
X156525000Y-63819420D01*
X156525000Y-64704580D01*
X156863736Y-65522361D01*
X157489639Y-66148264D01*
X158307420Y-66487000D01*
X159192580Y-66487000D01*
X160010361Y-66148264D01*
X160636264Y-65522361D01*
X160975000Y-64704580D01*
X160975000Y-63819420D01*
X160636264Y-63001639D01*
X160010361Y-62375736D01*
X159192580Y-62037000D01*
X158307420Y-62037000D01*
X157489639Y-62375736D01*
X156863736Y-63001639D01*
X156525000Y-63819420D01*
X147994250Y-63819420D01*
X148484570Y-63329100D01*
X148341901Y-63075086D01*
X147634832Y-62910241D01*
X146918504Y-63028528D01*
X146806099Y-63075086D01*
X146663430Y-63329100D01*
X104129903Y-63329100D01*
X103994264Y-63001639D01*
X103368361Y-62375736D01*
X102550580Y-62037000D01*
X101665420Y-62037000D01*
X100847639Y-62375736D01*
X100221736Y-63001639D01*
X99883000Y-63819420D01*
X98490000Y-63819420D01*
X98490000Y-61249948D01*
X99095949Y-60644000D01*
X161762052Y-60644000D01*
X162368000Y-61249949D01*
G04 #@! TO.N,Net-(R3-Pad1)*
G36*
X132723000Y-93695250D02*
X132738000Y-93770660D01*
X132738000Y-94482750D01*
X132894250Y-94639000D01*
X133152320Y-94639000D01*
X133228276Y-94607538D01*
X133448000Y-94651244D01*
X133496519Y-94651244D01*
X133677722Y-94772046D01*
X133747060Y-94793040D01*
X133968940Y-94793040D01*
X134038278Y-94772046D01*
X134219481Y-94651244D01*
X134268000Y-94651244D01*
X134487724Y-94607538D01*
X134563680Y-94639000D01*
X134821750Y-94639000D01*
X134978000Y-94482750D01*
X134978000Y-93770661D01*
X134993000Y-93695251D01*
X134993000Y-93021244D01*
X135543000Y-93021244D01*
X135543000Y-93695250D01*
X135558000Y-93770660D01*
X135558000Y-94482750D01*
X135714250Y-94639000D01*
X135941058Y-94639000D01*
X137160459Y-97252000D01*
X136671250Y-97252000D01*
X136515000Y-97408250D01*
X136515000Y-98214500D01*
X136535000Y-98214500D01*
X136535000Y-98889500D01*
X136515000Y-98889500D01*
X136515000Y-99189000D01*
X135265000Y-99189000D01*
X135265000Y-98889500D01*
X132451000Y-98889500D01*
X132451000Y-99189000D01*
X131201000Y-99189000D01*
X131201000Y-98889500D01*
X131181000Y-98889500D01*
X131181000Y-98214500D01*
X131201000Y-98214500D01*
X131201000Y-97408250D01*
X132451000Y-97408250D01*
X132451000Y-98214500D01*
X135265000Y-98214500D01*
X135265000Y-97408250D01*
X135108750Y-97252000D01*
X134090680Y-97252000D01*
X133860966Y-97347151D01*
X133858000Y-97350117D01*
X133855034Y-97347151D01*
X133625320Y-97252000D01*
X132607250Y-97252000D01*
X132451000Y-97408250D01*
X131201000Y-97408250D01*
X131044750Y-97252000D01*
X130555541Y-97252000D01*
X131774942Y-94639000D01*
X132001750Y-94639000D01*
X132158000Y-94482750D01*
X132158000Y-93770661D01*
X132173000Y-93695251D01*
X132173000Y-93021244D01*
X132723000Y-93021244D01*
X132723000Y-93695250D01*
X132723000Y-93695250D01*
G37*
X132723000Y-93695250D02*
X132738000Y-93770660D01*
X132738000Y-94482750D01*
X132894250Y-94639000D01*
X133152320Y-94639000D01*
X133228276Y-94607538D01*
X133448000Y-94651244D01*
X133496519Y-94651244D01*
X133677722Y-94772046D01*
X133747060Y-94793040D01*
X133968940Y-94793040D01*
X134038278Y-94772046D01*
X134219481Y-94651244D01*
X134268000Y-94651244D01*
X134487724Y-94607538D01*
X134563680Y-94639000D01*
X134821750Y-94639000D01*
X134978000Y-94482750D01*
X134978000Y-93770661D01*
X134993000Y-93695251D01*
X134993000Y-93021244D01*
X135543000Y-93021244D01*
X135543000Y-93695250D01*
X135558000Y-93770660D01*
X135558000Y-94482750D01*
X135714250Y-94639000D01*
X135941058Y-94639000D01*
X137160459Y-97252000D01*
X136671250Y-97252000D01*
X136515000Y-97408250D01*
X136515000Y-98214500D01*
X136535000Y-98214500D01*
X136535000Y-98889500D01*
X136515000Y-98889500D01*
X136515000Y-99189000D01*
X135265000Y-99189000D01*
X135265000Y-98889500D01*
X132451000Y-98889500D01*
X132451000Y-99189000D01*
X131201000Y-99189000D01*
X131201000Y-98889500D01*
X131181000Y-98889500D01*
X131181000Y-98214500D01*
X131201000Y-98214500D01*
X131201000Y-97408250D01*
X132451000Y-97408250D01*
X132451000Y-98214500D01*
X135265000Y-98214500D01*
X135265000Y-97408250D01*
X135108750Y-97252000D01*
X134090680Y-97252000D01*
X133860966Y-97347151D01*
X133858000Y-97350117D01*
X133855034Y-97347151D01*
X133625320Y-97252000D01*
X132607250Y-97252000D01*
X132451000Y-97408250D01*
X131201000Y-97408250D01*
X131044750Y-97252000D01*
X130555541Y-97252000D01*
X131774942Y-94639000D01*
X132001750Y-94639000D01*
X132158000Y-94482750D01*
X132158000Y-93770661D01*
X132173000Y-93695251D01*
X132173000Y-93021244D01*
X132723000Y-93021244D01*
X132723000Y-93695250D01*
G04 #@! TD*
M02*
