G04 #@! TF.GenerationSoftware,KiCad,Pcbnew,5.0.0-fee4fd1~66~ubuntu16.04.1*
G04 #@! TF.CreationDate,2018-08-14T17:57:09-07:00*
G04 #@! TF.ProjectId,powerstep01-breakout,706F7765727374657030312D62726561,rev?*
G04 #@! TF.SameCoordinates,Original*
G04 #@! TF.FileFunction,Paste,Top*
G04 #@! TF.FilePolarity,Positive*
%FSLAX46Y46*%
G04 Gerber Fmt 4.6, Leading zero omitted, Abs format (unit mm)*
G04 Created by KiCad (PCBNEW 5.0.0-fee4fd1~66~ubuntu16.04.1) date Tue Aug 14 17:57:09 2018*
%MOMM*%
%LPD*%
G01*
G04 APERTURE LIST*
%ADD10R,5.500000X4.680000*%
%ADD11R,2.300000X3.010000*%
%ADD12R,1.160000X1.200000*%
%ADD13R,0.200000X0.800000*%
%ADD14R,0.800000X0.200000*%
%ADD15R,2.140000X2.850000*%
%ADD16R,1.440000X0.720000*%
%ADD17R,0.740000X2.170000*%
%ADD18C,0.100000*%
%ADD19C,1.250000*%
%ADD20R,0.800000X0.900000*%
%ADD21C,0.875000*%
%ADD22R,2.510000X1.000000*%
%ADD23C,1.350000*%
%ADD24C,0.975000*%
G04 APERTURE END LIST*
D10*
G04 #@! TO.C,U1*
X133778000Y-86614000D03*
D11*
X135228000Y-90879000D03*
X132488000Y-90879000D03*
X135228000Y-82349000D03*
X132488000Y-82349000D03*
D12*
X135268000Y-93414000D03*
X132448000Y-93414000D03*
X135268000Y-79814000D03*
X132448000Y-79814000D03*
D13*
X134168000Y-79614000D03*
X133548000Y-79614000D03*
X131348000Y-79614000D03*
X136368000Y-79614000D03*
X134168000Y-93614000D03*
X133548000Y-93614000D03*
X131348000Y-93614000D03*
X136368000Y-93614000D03*
D14*
X139358000Y-86404000D03*
X139358000Y-86004000D03*
X139358000Y-85604000D03*
X139358000Y-85204000D03*
X139358000Y-84804000D03*
X139358000Y-84404000D03*
X139358000Y-83964000D03*
X139358000Y-83364000D03*
X139358000Y-86824000D03*
X139358000Y-87224000D03*
X139358000Y-87624000D03*
X139358000Y-88024000D03*
X139358000Y-88424000D03*
X139358000Y-88824000D03*
X139358000Y-89264000D03*
X139358000Y-89864000D03*
X128358000Y-86214000D03*
X128358000Y-86614000D03*
X128358000Y-85814000D03*
X128358000Y-85094000D03*
X128358000Y-84694000D03*
X128358000Y-83964000D03*
X128358000Y-83364000D03*
X128358000Y-87014000D03*
X128358000Y-87734000D03*
X128358000Y-88464000D03*
X128358000Y-88864000D03*
X128358000Y-89264000D03*
X128358000Y-89864000D03*
D15*
X137948000Y-81359000D03*
X129768000Y-81359000D03*
X129768000Y-91869000D03*
X137948000Y-91869000D03*
D16*
X129558000Y-79574000D03*
X138158000Y-79574000D03*
X129558000Y-93654000D03*
X138158000Y-93654000D03*
D17*
X128338000Y-81299000D03*
X128338000Y-91929000D03*
X139378000Y-91929000D03*
X139378000Y-81299000D03*
G04 #@! TD*
D18*
G04 #@! TO.C,C13*
G36*
X123839504Y-90314204D02*
X123863773Y-90317804D01*
X123887571Y-90323765D01*
X123910671Y-90332030D01*
X123932849Y-90342520D01*
X123953893Y-90355133D01*
X123973598Y-90369747D01*
X123991777Y-90386223D01*
X124008253Y-90404402D01*
X124022867Y-90424107D01*
X124035480Y-90445151D01*
X124045970Y-90467329D01*
X124054235Y-90490429D01*
X124060196Y-90514227D01*
X124063796Y-90538496D01*
X124065000Y-90563000D01*
X124065000Y-91313000D01*
X124063796Y-91337504D01*
X124060196Y-91361773D01*
X124054235Y-91385571D01*
X124045970Y-91408671D01*
X124035480Y-91430849D01*
X124022867Y-91451893D01*
X124008253Y-91471598D01*
X123991777Y-91489777D01*
X123973598Y-91506253D01*
X123953893Y-91520867D01*
X123932849Y-91533480D01*
X123910671Y-91543970D01*
X123887571Y-91552235D01*
X123863773Y-91558196D01*
X123839504Y-91561796D01*
X123815000Y-91563000D01*
X122565000Y-91563000D01*
X122540496Y-91561796D01*
X122516227Y-91558196D01*
X122492429Y-91552235D01*
X122469329Y-91543970D01*
X122447151Y-91533480D01*
X122426107Y-91520867D01*
X122406402Y-91506253D01*
X122388223Y-91489777D01*
X122371747Y-91471598D01*
X122357133Y-91451893D01*
X122344520Y-91430849D01*
X122334030Y-91408671D01*
X122325765Y-91385571D01*
X122319804Y-91361773D01*
X122316204Y-91337504D01*
X122315000Y-91313000D01*
X122315000Y-90563000D01*
X122316204Y-90538496D01*
X122319804Y-90514227D01*
X122325765Y-90490429D01*
X122334030Y-90467329D01*
X122344520Y-90445151D01*
X122357133Y-90424107D01*
X122371747Y-90404402D01*
X122388223Y-90386223D01*
X122406402Y-90369747D01*
X122426107Y-90355133D01*
X122447151Y-90342520D01*
X122469329Y-90332030D01*
X122492429Y-90323765D01*
X122516227Y-90317804D01*
X122540496Y-90314204D01*
X122565000Y-90313000D01*
X123815000Y-90313000D01*
X123839504Y-90314204D01*
X123839504Y-90314204D01*
G37*
D19*
X123190000Y-90938000D03*
D18*
G36*
X123839504Y-87514204D02*
X123863773Y-87517804D01*
X123887571Y-87523765D01*
X123910671Y-87532030D01*
X123932849Y-87542520D01*
X123953893Y-87555133D01*
X123973598Y-87569747D01*
X123991777Y-87586223D01*
X124008253Y-87604402D01*
X124022867Y-87624107D01*
X124035480Y-87645151D01*
X124045970Y-87667329D01*
X124054235Y-87690429D01*
X124060196Y-87714227D01*
X124063796Y-87738496D01*
X124065000Y-87763000D01*
X124065000Y-88513000D01*
X124063796Y-88537504D01*
X124060196Y-88561773D01*
X124054235Y-88585571D01*
X124045970Y-88608671D01*
X124035480Y-88630849D01*
X124022867Y-88651893D01*
X124008253Y-88671598D01*
X123991777Y-88689777D01*
X123973598Y-88706253D01*
X123953893Y-88720867D01*
X123932849Y-88733480D01*
X123910671Y-88743970D01*
X123887571Y-88752235D01*
X123863773Y-88758196D01*
X123839504Y-88761796D01*
X123815000Y-88763000D01*
X122565000Y-88763000D01*
X122540496Y-88761796D01*
X122516227Y-88758196D01*
X122492429Y-88752235D01*
X122469329Y-88743970D01*
X122447151Y-88733480D01*
X122426107Y-88720867D01*
X122406402Y-88706253D01*
X122388223Y-88689777D01*
X122371747Y-88671598D01*
X122357133Y-88651893D01*
X122344520Y-88630849D01*
X122334030Y-88608671D01*
X122325765Y-88585571D01*
X122319804Y-88561773D01*
X122316204Y-88537504D01*
X122315000Y-88513000D01*
X122315000Y-87763000D01*
X122316204Y-87738496D01*
X122319804Y-87714227D01*
X122325765Y-87690429D01*
X122334030Y-87667329D01*
X122344520Y-87645151D01*
X122357133Y-87624107D01*
X122371747Y-87604402D01*
X122388223Y-87586223D01*
X122406402Y-87569747D01*
X122426107Y-87555133D01*
X122447151Y-87542520D01*
X122469329Y-87532030D01*
X122492429Y-87523765D01*
X122516227Y-87517804D01*
X122540496Y-87514204D01*
X122565000Y-87513000D01*
X123815000Y-87513000D01*
X123839504Y-87514204D01*
X123839504Y-87514204D01*
G37*
D19*
X123190000Y-88138000D03*
G04 #@! TD*
D20*
G04 #@! TO.C,D1*
X122870000Y-81280000D03*
X120970000Y-81280000D03*
X121920000Y-83280000D03*
G04 #@! TD*
D18*
G04 #@! TO.C,C9*
G36*
X146849191Y-87664053D02*
X146870426Y-87667203D01*
X146891250Y-87672419D01*
X146911462Y-87679651D01*
X146930868Y-87688830D01*
X146949281Y-87699866D01*
X146966524Y-87712654D01*
X146982430Y-87727070D01*
X146996846Y-87742976D01*
X147009634Y-87760219D01*
X147020670Y-87778632D01*
X147029849Y-87798038D01*
X147037081Y-87818250D01*
X147042297Y-87839074D01*
X147045447Y-87860309D01*
X147046500Y-87881750D01*
X147046500Y-88394250D01*
X147045447Y-88415691D01*
X147042297Y-88436926D01*
X147037081Y-88457750D01*
X147029849Y-88477962D01*
X147020670Y-88497368D01*
X147009634Y-88515781D01*
X146996846Y-88533024D01*
X146982430Y-88548930D01*
X146966524Y-88563346D01*
X146949281Y-88576134D01*
X146930868Y-88587170D01*
X146911462Y-88596349D01*
X146891250Y-88603581D01*
X146870426Y-88608797D01*
X146849191Y-88611947D01*
X146827750Y-88613000D01*
X146390250Y-88613000D01*
X146368809Y-88611947D01*
X146347574Y-88608797D01*
X146326750Y-88603581D01*
X146306538Y-88596349D01*
X146287132Y-88587170D01*
X146268719Y-88576134D01*
X146251476Y-88563346D01*
X146235570Y-88548930D01*
X146221154Y-88533024D01*
X146208366Y-88515781D01*
X146197330Y-88497368D01*
X146188151Y-88477962D01*
X146180919Y-88457750D01*
X146175703Y-88436926D01*
X146172553Y-88415691D01*
X146171500Y-88394250D01*
X146171500Y-87881750D01*
X146172553Y-87860309D01*
X146175703Y-87839074D01*
X146180919Y-87818250D01*
X146188151Y-87798038D01*
X146197330Y-87778632D01*
X146208366Y-87760219D01*
X146221154Y-87742976D01*
X146235570Y-87727070D01*
X146251476Y-87712654D01*
X146268719Y-87699866D01*
X146287132Y-87688830D01*
X146306538Y-87679651D01*
X146326750Y-87672419D01*
X146347574Y-87667203D01*
X146368809Y-87664053D01*
X146390250Y-87663000D01*
X146827750Y-87663000D01*
X146849191Y-87664053D01*
X146849191Y-87664053D01*
G37*
D21*
X146609000Y-88138000D03*
D18*
G36*
X145274191Y-87664053D02*
X145295426Y-87667203D01*
X145316250Y-87672419D01*
X145336462Y-87679651D01*
X145355868Y-87688830D01*
X145374281Y-87699866D01*
X145391524Y-87712654D01*
X145407430Y-87727070D01*
X145421846Y-87742976D01*
X145434634Y-87760219D01*
X145445670Y-87778632D01*
X145454849Y-87798038D01*
X145462081Y-87818250D01*
X145467297Y-87839074D01*
X145470447Y-87860309D01*
X145471500Y-87881750D01*
X145471500Y-88394250D01*
X145470447Y-88415691D01*
X145467297Y-88436926D01*
X145462081Y-88457750D01*
X145454849Y-88477962D01*
X145445670Y-88497368D01*
X145434634Y-88515781D01*
X145421846Y-88533024D01*
X145407430Y-88548930D01*
X145391524Y-88563346D01*
X145374281Y-88576134D01*
X145355868Y-88587170D01*
X145336462Y-88596349D01*
X145316250Y-88603581D01*
X145295426Y-88608797D01*
X145274191Y-88611947D01*
X145252750Y-88613000D01*
X144815250Y-88613000D01*
X144793809Y-88611947D01*
X144772574Y-88608797D01*
X144751750Y-88603581D01*
X144731538Y-88596349D01*
X144712132Y-88587170D01*
X144693719Y-88576134D01*
X144676476Y-88563346D01*
X144660570Y-88548930D01*
X144646154Y-88533024D01*
X144633366Y-88515781D01*
X144622330Y-88497368D01*
X144613151Y-88477962D01*
X144605919Y-88457750D01*
X144600703Y-88436926D01*
X144597553Y-88415691D01*
X144596500Y-88394250D01*
X144596500Y-87881750D01*
X144597553Y-87860309D01*
X144600703Y-87839074D01*
X144605919Y-87818250D01*
X144613151Y-87798038D01*
X144622330Y-87778632D01*
X144633366Y-87760219D01*
X144646154Y-87742976D01*
X144660570Y-87727070D01*
X144676476Y-87712654D01*
X144693719Y-87699866D01*
X144712132Y-87688830D01*
X144731538Y-87679651D01*
X144751750Y-87672419D01*
X144772574Y-87667203D01*
X144793809Y-87664053D01*
X144815250Y-87663000D01*
X145252750Y-87663000D01*
X145274191Y-87664053D01*
X145274191Y-87664053D01*
G37*
D21*
X145034000Y-88138000D03*
G04 #@! TD*
D22*
G04 #@! TO.C,J3*
X114554000Y-93218000D03*
G04 #@! TD*
D18*
G04 #@! TO.C,R2*
G36*
X137339505Y-74002204D02*
X137363773Y-74005804D01*
X137387572Y-74011765D01*
X137410671Y-74020030D01*
X137432850Y-74030520D01*
X137453893Y-74043132D01*
X137473599Y-74057747D01*
X137491777Y-74074223D01*
X137508253Y-74092401D01*
X137522868Y-74112107D01*
X137535480Y-74133150D01*
X137545970Y-74155329D01*
X137554235Y-74178428D01*
X137560196Y-74202227D01*
X137563796Y-74226495D01*
X137565000Y-74250999D01*
X137565000Y-75101001D01*
X137563796Y-75125505D01*
X137560196Y-75149773D01*
X137554235Y-75173572D01*
X137545970Y-75196671D01*
X137535480Y-75218850D01*
X137522868Y-75239893D01*
X137508253Y-75259599D01*
X137491777Y-75277777D01*
X137473599Y-75294253D01*
X137453893Y-75308868D01*
X137432850Y-75321480D01*
X137410671Y-75331970D01*
X137387572Y-75340235D01*
X137363773Y-75346196D01*
X137339505Y-75349796D01*
X137315001Y-75351000D01*
X134464999Y-75351000D01*
X134440495Y-75349796D01*
X134416227Y-75346196D01*
X134392428Y-75340235D01*
X134369329Y-75331970D01*
X134347150Y-75321480D01*
X134326107Y-75308868D01*
X134306401Y-75294253D01*
X134288223Y-75277777D01*
X134271747Y-75259599D01*
X134257132Y-75239893D01*
X134244520Y-75218850D01*
X134234030Y-75196671D01*
X134225765Y-75173572D01*
X134219804Y-75149773D01*
X134216204Y-75125505D01*
X134215000Y-75101001D01*
X134215000Y-74250999D01*
X134216204Y-74226495D01*
X134219804Y-74202227D01*
X134225765Y-74178428D01*
X134234030Y-74155329D01*
X134244520Y-74133150D01*
X134257132Y-74112107D01*
X134271747Y-74092401D01*
X134288223Y-74074223D01*
X134306401Y-74057747D01*
X134326107Y-74043132D01*
X134347150Y-74030520D01*
X134369329Y-74020030D01*
X134392428Y-74011765D01*
X134416227Y-74005804D01*
X134440495Y-74002204D01*
X134464999Y-74001000D01*
X137315001Y-74001000D01*
X137339505Y-74002204D01*
X137339505Y-74002204D01*
G37*
D23*
X135890000Y-74676000D03*
D18*
G36*
X137339505Y-68202204D02*
X137363773Y-68205804D01*
X137387572Y-68211765D01*
X137410671Y-68220030D01*
X137432850Y-68230520D01*
X137453893Y-68243132D01*
X137473599Y-68257747D01*
X137491777Y-68274223D01*
X137508253Y-68292401D01*
X137522868Y-68312107D01*
X137535480Y-68333150D01*
X137545970Y-68355329D01*
X137554235Y-68378428D01*
X137560196Y-68402227D01*
X137563796Y-68426495D01*
X137565000Y-68450999D01*
X137565000Y-69301001D01*
X137563796Y-69325505D01*
X137560196Y-69349773D01*
X137554235Y-69373572D01*
X137545970Y-69396671D01*
X137535480Y-69418850D01*
X137522868Y-69439893D01*
X137508253Y-69459599D01*
X137491777Y-69477777D01*
X137473599Y-69494253D01*
X137453893Y-69508868D01*
X137432850Y-69521480D01*
X137410671Y-69531970D01*
X137387572Y-69540235D01*
X137363773Y-69546196D01*
X137339505Y-69549796D01*
X137315001Y-69551000D01*
X134464999Y-69551000D01*
X134440495Y-69549796D01*
X134416227Y-69546196D01*
X134392428Y-69540235D01*
X134369329Y-69531970D01*
X134347150Y-69521480D01*
X134326107Y-69508868D01*
X134306401Y-69494253D01*
X134288223Y-69477777D01*
X134271747Y-69459599D01*
X134257132Y-69439893D01*
X134244520Y-69418850D01*
X134234030Y-69396671D01*
X134225765Y-69373572D01*
X134219804Y-69349773D01*
X134216204Y-69325505D01*
X134215000Y-69301001D01*
X134215000Y-68450999D01*
X134216204Y-68426495D01*
X134219804Y-68402227D01*
X134225765Y-68378428D01*
X134234030Y-68355329D01*
X134244520Y-68333150D01*
X134257132Y-68312107D01*
X134271747Y-68292401D01*
X134288223Y-68274223D01*
X134306401Y-68257747D01*
X134326107Y-68243132D01*
X134347150Y-68230520D01*
X134369329Y-68220030D01*
X134392428Y-68211765D01*
X134416227Y-68205804D01*
X134440495Y-68202204D01*
X134464999Y-68201000D01*
X137315001Y-68201000D01*
X137339505Y-68202204D01*
X137339505Y-68202204D01*
G37*
D23*
X135890000Y-68876000D03*
G04 #@! TD*
D18*
G04 #@! TO.C,R3*
G36*
X133275505Y-97878204D02*
X133299773Y-97881804D01*
X133323572Y-97887765D01*
X133346671Y-97896030D01*
X133368850Y-97906520D01*
X133389893Y-97919132D01*
X133409599Y-97933747D01*
X133427777Y-97950223D01*
X133444253Y-97968401D01*
X133458868Y-97988107D01*
X133471480Y-98009150D01*
X133481970Y-98031329D01*
X133490235Y-98054428D01*
X133496196Y-98078227D01*
X133499796Y-98102495D01*
X133501000Y-98126999D01*
X133501000Y-98977001D01*
X133499796Y-99001505D01*
X133496196Y-99025773D01*
X133490235Y-99049572D01*
X133481970Y-99072671D01*
X133471480Y-99094850D01*
X133458868Y-99115893D01*
X133444253Y-99135599D01*
X133427777Y-99153777D01*
X133409599Y-99170253D01*
X133389893Y-99184868D01*
X133368850Y-99197480D01*
X133346671Y-99207970D01*
X133323572Y-99216235D01*
X133299773Y-99222196D01*
X133275505Y-99225796D01*
X133251001Y-99227000D01*
X130400999Y-99227000D01*
X130376495Y-99225796D01*
X130352227Y-99222196D01*
X130328428Y-99216235D01*
X130305329Y-99207970D01*
X130283150Y-99197480D01*
X130262107Y-99184868D01*
X130242401Y-99170253D01*
X130224223Y-99153777D01*
X130207747Y-99135599D01*
X130193132Y-99115893D01*
X130180520Y-99094850D01*
X130170030Y-99072671D01*
X130161765Y-99049572D01*
X130155804Y-99025773D01*
X130152204Y-99001505D01*
X130151000Y-98977001D01*
X130151000Y-98126999D01*
X130152204Y-98102495D01*
X130155804Y-98078227D01*
X130161765Y-98054428D01*
X130170030Y-98031329D01*
X130180520Y-98009150D01*
X130193132Y-97988107D01*
X130207747Y-97968401D01*
X130224223Y-97950223D01*
X130242401Y-97933747D01*
X130262107Y-97919132D01*
X130283150Y-97906520D01*
X130305329Y-97896030D01*
X130328428Y-97887765D01*
X130352227Y-97881804D01*
X130376495Y-97878204D01*
X130400999Y-97877000D01*
X133251001Y-97877000D01*
X133275505Y-97878204D01*
X133275505Y-97878204D01*
G37*
D23*
X131826000Y-98552000D03*
D18*
G36*
X133275505Y-103678204D02*
X133299773Y-103681804D01*
X133323572Y-103687765D01*
X133346671Y-103696030D01*
X133368850Y-103706520D01*
X133389893Y-103719132D01*
X133409599Y-103733747D01*
X133427777Y-103750223D01*
X133444253Y-103768401D01*
X133458868Y-103788107D01*
X133471480Y-103809150D01*
X133481970Y-103831329D01*
X133490235Y-103854428D01*
X133496196Y-103878227D01*
X133499796Y-103902495D01*
X133501000Y-103926999D01*
X133501000Y-104777001D01*
X133499796Y-104801505D01*
X133496196Y-104825773D01*
X133490235Y-104849572D01*
X133481970Y-104872671D01*
X133471480Y-104894850D01*
X133458868Y-104915893D01*
X133444253Y-104935599D01*
X133427777Y-104953777D01*
X133409599Y-104970253D01*
X133389893Y-104984868D01*
X133368850Y-104997480D01*
X133346671Y-105007970D01*
X133323572Y-105016235D01*
X133299773Y-105022196D01*
X133275505Y-105025796D01*
X133251001Y-105027000D01*
X130400999Y-105027000D01*
X130376495Y-105025796D01*
X130352227Y-105022196D01*
X130328428Y-105016235D01*
X130305329Y-105007970D01*
X130283150Y-104997480D01*
X130262107Y-104984868D01*
X130242401Y-104970253D01*
X130224223Y-104953777D01*
X130207747Y-104935599D01*
X130193132Y-104915893D01*
X130180520Y-104894850D01*
X130170030Y-104872671D01*
X130161765Y-104849572D01*
X130155804Y-104825773D01*
X130152204Y-104801505D01*
X130151000Y-104777001D01*
X130151000Y-103926999D01*
X130152204Y-103902495D01*
X130155804Y-103878227D01*
X130161765Y-103854428D01*
X130170030Y-103831329D01*
X130180520Y-103809150D01*
X130193132Y-103788107D01*
X130207747Y-103768401D01*
X130224223Y-103750223D01*
X130242401Y-103733747D01*
X130262107Y-103719132D01*
X130283150Y-103706520D01*
X130305329Y-103696030D01*
X130328428Y-103687765D01*
X130352227Y-103681804D01*
X130376495Y-103678204D01*
X130400999Y-103677000D01*
X133251001Y-103677000D01*
X133275505Y-103678204D01*
X133275505Y-103678204D01*
G37*
D23*
X131826000Y-104352000D03*
G04 #@! TD*
D18*
G04 #@! TO.C,R1*
G36*
X133275505Y-68202204D02*
X133299773Y-68205804D01*
X133323572Y-68211765D01*
X133346671Y-68220030D01*
X133368850Y-68230520D01*
X133389893Y-68243132D01*
X133409599Y-68257747D01*
X133427777Y-68274223D01*
X133444253Y-68292401D01*
X133458868Y-68312107D01*
X133471480Y-68333150D01*
X133481970Y-68355329D01*
X133490235Y-68378428D01*
X133496196Y-68402227D01*
X133499796Y-68426495D01*
X133501000Y-68450999D01*
X133501000Y-69301001D01*
X133499796Y-69325505D01*
X133496196Y-69349773D01*
X133490235Y-69373572D01*
X133481970Y-69396671D01*
X133471480Y-69418850D01*
X133458868Y-69439893D01*
X133444253Y-69459599D01*
X133427777Y-69477777D01*
X133409599Y-69494253D01*
X133389893Y-69508868D01*
X133368850Y-69521480D01*
X133346671Y-69531970D01*
X133323572Y-69540235D01*
X133299773Y-69546196D01*
X133275505Y-69549796D01*
X133251001Y-69551000D01*
X130400999Y-69551000D01*
X130376495Y-69549796D01*
X130352227Y-69546196D01*
X130328428Y-69540235D01*
X130305329Y-69531970D01*
X130283150Y-69521480D01*
X130262107Y-69508868D01*
X130242401Y-69494253D01*
X130224223Y-69477777D01*
X130207747Y-69459599D01*
X130193132Y-69439893D01*
X130180520Y-69418850D01*
X130170030Y-69396671D01*
X130161765Y-69373572D01*
X130155804Y-69349773D01*
X130152204Y-69325505D01*
X130151000Y-69301001D01*
X130151000Y-68450999D01*
X130152204Y-68426495D01*
X130155804Y-68402227D01*
X130161765Y-68378428D01*
X130170030Y-68355329D01*
X130180520Y-68333150D01*
X130193132Y-68312107D01*
X130207747Y-68292401D01*
X130224223Y-68274223D01*
X130242401Y-68257747D01*
X130262107Y-68243132D01*
X130283150Y-68230520D01*
X130305329Y-68220030D01*
X130328428Y-68211765D01*
X130352227Y-68205804D01*
X130376495Y-68202204D01*
X130400999Y-68201000D01*
X133251001Y-68201000D01*
X133275505Y-68202204D01*
X133275505Y-68202204D01*
G37*
D23*
X131826000Y-68876000D03*
D18*
G36*
X133275505Y-74002204D02*
X133299773Y-74005804D01*
X133323572Y-74011765D01*
X133346671Y-74020030D01*
X133368850Y-74030520D01*
X133389893Y-74043132D01*
X133409599Y-74057747D01*
X133427777Y-74074223D01*
X133444253Y-74092401D01*
X133458868Y-74112107D01*
X133471480Y-74133150D01*
X133481970Y-74155329D01*
X133490235Y-74178428D01*
X133496196Y-74202227D01*
X133499796Y-74226495D01*
X133501000Y-74250999D01*
X133501000Y-75101001D01*
X133499796Y-75125505D01*
X133496196Y-75149773D01*
X133490235Y-75173572D01*
X133481970Y-75196671D01*
X133471480Y-75218850D01*
X133458868Y-75239893D01*
X133444253Y-75259599D01*
X133427777Y-75277777D01*
X133409599Y-75294253D01*
X133389893Y-75308868D01*
X133368850Y-75321480D01*
X133346671Y-75331970D01*
X133323572Y-75340235D01*
X133299773Y-75346196D01*
X133275505Y-75349796D01*
X133251001Y-75351000D01*
X130400999Y-75351000D01*
X130376495Y-75349796D01*
X130352227Y-75346196D01*
X130328428Y-75340235D01*
X130305329Y-75331970D01*
X130283150Y-75321480D01*
X130262107Y-75308868D01*
X130242401Y-75294253D01*
X130224223Y-75277777D01*
X130207747Y-75259599D01*
X130193132Y-75239893D01*
X130180520Y-75218850D01*
X130170030Y-75196671D01*
X130161765Y-75173572D01*
X130155804Y-75149773D01*
X130152204Y-75125505D01*
X130151000Y-75101001D01*
X130151000Y-74250999D01*
X130152204Y-74226495D01*
X130155804Y-74202227D01*
X130161765Y-74178428D01*
X130170030Y-74155329D01*
X130180520Y-74133150D01*
X130193132Y-74112107D01*
X130207747Y-74092401D01*
X130224223Y-74074223D01*
X130242401Y-74057747D01*
X130262107Y-74043132D01*
X130283150Y-74030520D01*
X130305329Y-74020030D01*
X130328428Y-74011765D01*
X130352227Y-74005804D01*
X130376495Y-74002204D01*
X130400999Y-74001000D01*
X133251001Y-74001000D01*
X133275505Y-74002204D01*
X133275505Y-74002204D01*
G37*
D23*
X131826000Y-74676000D03*
G04 #@! TD*
D18*
G04 #@! TO.C,C6*
G36*
X123554642Y-84391174D02*
X123578303Y-84394684D01*
X123601507Y-84400496D01*
X123624029Y-84408554D01*
X123645653Y-84418782D01*
X123666170Y-84431079D01*
X123685383Y-84445329D01*
X123703107Y-84461393D01*
X123719171Y-84479117D01*
X123733421Y-84498330D01*
X123745718Y-84518847D01*
X123755946Y-84540471D01*
X123764004Y-84562993D01*
X123769816Y-84586197D01*
X123773326Y-84609858D01*
X123774500Y-84633750D01*
X123774500Y-85546250D01*
X123773326Y-85570142D01*
X123769816Y-85593803D01*
X123764004Y-85617007D01*
X123755946Y-85639529D01*
X123745718Y-85661153D01*
X123733421Y-85681670D01*
X123719171Y-85700883D01*
X123703107Y-85718607D01*
X123685383Y-85734671D01*
X123666170Y-85748921D01*
X123645653Y-85761218D01*
X123624029Y-85771446D01*
X123601507Y-85779504D01*
X123578303Y-85785316D01*
X123554642Y-85788826D01*
X123530750Y-85790000D01*
X123043250Y-85790000D01*
X123019358Y-85788826D01*
X122995697Y-85785316D01*
X122972493Y-85779504D01*
X122949971Y-85771446D01*
X122928347Y-85761218D01*
X122907830Y-85748921D01*
X122888617Y-85734671D01*
X122870893Y-85718607D01*
X122854829Y-85700883D01*
X122840579Y-85681670D01*
X122828282Y-85661153D01*
X122818054Y-85639529D01*
X122809996Y-85617007D01*
X122804184Y-85593803D01*
X122800674Y-85570142D01*
X122799500Y-85546250D01*
X122799500Y-84633750D01*
X122800674Y-84609858D01*
X122804184Y-84586197D01*
X122809996Y-84562993D01*
X122818054Y-84540471D01*
X122828282Y-84518847D01*
X122840579Y-84498330D01*
X122854829Y-84479117D01*
X122870893Y-84461393D01*
X122888617Y-84445329D01*
X122907830Y-84431079D01*
X122928347Y-84418782D01*
X122949971Y-84408554D01*
X122972493Y-84400496D01*
X122995697Y-84394684D01*
X123019358Y-84391174D01*
X123043250Y-84390000D01*
X123530750Y-84390000D01*
X123554642Y-84391174D01*
X123554642Y-84391174D01*
G37*
D24*
X123287000Y-85090000D03*
D18*
G36*
X121679642Y-84391174D02*
X121703303Y-84394684D01*
X121726507Y-84400496D01*
X121749029Y-84408554D01*
X121770653Y-84418782D01*
X121791170Y-84431079D01*
X121810383Y-84445329D01*
X121828107Y-84461393D01*
X121844171Y-84479117D01*
X121858421Y-84498330D01*
X121870718Y-84518847D01*
X121880946Y-84540471D01*
X121889004Y-84562993D01*
X121894816Y-84586197D01*
X121898326Y-84609858D01*
X121899500Y-84633750D01*
X121899500Y-85546250D01*
X121898326Y-85570142D01*
X121894816Y-85593803D01*
X121889004Y-85617007D01*
X121880946Y-85639529D01*
X121870718Y-85661153D01*
X121858421Y-85681670D01*
X121844171Y-85700883D01*
X121828107Y-85718607D01*
X121810383Y-85734671D01*
X121791170Y-85748921D01*
X121770653Y-85761218D01*
X121749029Y-85771446D01*
X121726507Y-85779504D01*
X121703303Y-85785316D01*
X121679642Y-85788826D01*
X121655750Y-85790000D01*
X121168250Y-85790000D01*
X121144358Y-85788826D01*
X121120697Y-85785316D01*
X121097493Y-85779504D01*
X121074971Y-85771446D01*
X121053347Y-85761218D01*
X121032830Y-85748921D01*
X121013617Y-85734671D01*
X120995893Y-85718607D01*
X120979829Y-85700883D01*
X120965579Y-85681670D01*
X120953282Y-85661153D01*
X120943054Y-85639529D01*
X120934996Y-85617007D01*
X120929184Y-85593803D01*
X120925674Y-85570142D01*
X120924500Y-85546250D01*
X120924500Y-84633750D01*
X120925674Y-84609858D01*
X120929184Y-84586197D01*
X120934996Y-84562993D01*
X120943054Y-84540471D01*
X120953282Y-84518847D01*
X120965579Y-84498330D01*
X120979829Y-84479117D01*
X120995893Y-84461393D01*
X121013617Y-84445329D01*
X121032830Y-84431079D01*
X121053347Y-84418782D01*
X121074971Y-84408554D01*
X121097493Y-84400496D01*
X121120697Y-84394684D01*
X121144358Y-84391174D01*
X121168250Y-84390000D01*
X121655750Y-84390000D01*
X121679642Y-84391174D01*
X121679642Y-84391174D01*
G37*
D24*
X121412000Y-85090000D03*
G04 #@! TD*
D18*
G04 #@! TO.C,C3*
G36*
X145204642Y-93027174D02*
X145228303Y-93030684D01*
X145251507Y-93036496D01*
X145274029Y-93044554D01*
X145295653Y-93054782D01*
X145316170Y-93067079D01*
X145335383Y-93081329D01*
X145353107Y-93097393D01*
X145369171Y-93115117D01*
X145383421Y-93134330D01*
X145395718Y-93154847D01*
X145405946Y-93176471D01*
X145414004Y-93198993D01*
X145419816Y-93222197D01*
X145423326Y-93245858D01*
X145424500Y-93269750D01*
X145424500Y-94182250D01*
X145423326Y-94206142D01*
X145419816Y-94229803D01*
X145414004Y-94253007D01*
X145405946Y-94275529D01*
X145395718Y-94297153D01*
X145383421Y-94317670D01*
X145369171Y-94336883D01*
X145353107Y-94354607D01*
X145335383Y-94370671D01*
X145316170Y-94384921D01*
X145295653Y-94397218D01*
X145274029Y-94407446D01*
X145251507Y-94415504D01*
X145228303Y-94421316D01*
X145204642Y-94424826D01*
X145180750Y-94426000D01*
X144693250Y-94426000D01*
X144669358Y-94424826D01*
X144645697Y-94421316D01*
X144622493Y-94415504D01*
X144599971Y-94407446D01*
X144578347Y-94397218D01*
X144557830Y-94384921D01*
X144538617Y-94370671D01*
X144520893Y-94354607D01*
X144504829Y-94336883D01*
X144490579Y-94317670D01*
X144478282Y-94297153D01*
X144468054Y-94275529D01*
X144459996Y-94253007D01*
X144454184Y-94229803D01*
X144450674Y-94206142D01*
X144449500Y-94182250D01*
X144449500Y-93269750D01*
X144450674Y-93245858D01*
X144454184Y-93222197D01*
X144459996Y-93198993D01*
X144468054Y-93176471D01*
X144478282Y-93154847D01*
X144490579Y-93134330D01*
X144504829Y-93115117D01*
X144520893Y-93097393D01*
X144538617Y-93081329D01*
X144557830Y-93067079D01*
X144578347Y-93054782D01*
X144599971Y-93044554D01*
X144622493Y-93036496D01*
X144645697Y-93030684D01*
X144669358Y-93027174D01*
X144693250Y-93026000D01*
X145180750Y-93026000D01*
X145204642Y-93027174D01*
X145204642Y-93027174D01*
G37*
D24*
X144937000Y-93726000D03*
D18*
G36*
X147079642Y-93027174D02*
X147103303Y-93030684D01*
X147126507Y-93036496D01*
X147149029Y-93044554D01*
X147170653Y-93054782D01*
X147191170Y-93067079D01*
X147210383Y-93081329D01*
X147228107Y-93097393D01*
X147244171Y-93115117D01*
X147258421Y-93134330D01*
X147270718Y-93154847D01*
X147280946Y-93176471D01*
X147289004Y-93198993D01*
X147294816Y-93222197D01*
X147298326Y-93245858D01*
X147299500Y-93269750D01*
X147299500Y-94182250D01*
X147298326Y-94206142D01*
X147294816Y-94229803D01*
X147289004Y-94253007D01*
X147280946Y-94275529D01*
X147270718Y-94297153D01*
X147258421Y-94317670D01*
X147244171Y-94336883D01*
X147228107Y-94354607D01*
X147210383Y-94370671D01*
X147191170Y-94384921D01*
X147170653Y-94397218D01*
X147149029Y-94407446D01*
X147126507Y-94415504D01*
X147103303Y-94421316D01*
X147079642Y-94424826D01*
X147055750Y-94426000D01*
X146568250Y-94426000D01*
X146544358Y-94424826D01*
X146520697Y-94421316D01*
X146497493Y-94415504D01*
X146474971Y-94407446D01*
X146453347Y-94397218D01*
X146432830Y-94384921D01*
X146413617Y-94370671D01*
X146395893Y-94354607D01*
X146379829Y-94336883D01*
X146365579Y-94317670D01*
X146353282Y-94297153D01*
X146343054Y-94275529D01*
X146334996Y-94253007D01*
X146329184Y-94229803D01*
X146325674Y-94206142D01*
X146324500Y-94182250D01*
X146324500Y-93269750D01*
X146325674Y-93245858D01*
X146329184Y-93222197D01*
X146334996Y-93198993D01*
X146343054Y-93176471D01*
X146353282Y-93154847D01*
X146365579Y-93134330D01*
X146379829Y-93115117D01*
X146395893Y-93097393D01*
X146413617Y-93081329D01*
X146432830Y-93067079D01*
X146453347Y-93054782D01*
X146474971Y-93044554D01*
X146497493Y-93036496D01*
X146520697Y-93030684D01*
X146544358Y-93027174D01*
X146568250Y-93026000D01*
X147055750Y-93026000D01*
X147079642Y-93027174D01*
X147079642Y-93027174D01*
G37*
D24*
X146812000Y-93726000D03*
G04 #@! TD*
D18*
G04 #@! TO.C,C2*
G36*
X146922642Y-79057174D02*
X146946303Y-79060684D01*
X146969507Y-79066496D01*
X146992029Y-79074554D01*
X147013653Y-79084782D01*
X147034170Y-79097079D01*
X147053383Y-79111329D01*
X147071107Y-79127393D01*
X147087171Y-79145117D01*
X147101421Y-79164330D01*
X147113718Y-79184847D01*
X147123946Y-79206471D01*
X147132004Y-79228993D01*
X147137816Y-79252197D01*
X147141326Y-79275858D01*
X147142500Y-79299750D01*
X147142500Y-80212250D01*
X147141326Y-80236142D01*
X147137816Y-80259803D01*
X147132004Y-80283007D01*
X147123946Y-80305529D01*
X147113718Y-80327153D01*
X147101421Y-80347670D01*
X147087171Y-80366883D01*
X147071107Y-80384607D01*
X147053383Y-80400671D01*
X147034170Y-80414921D01*
X147013653Y-80427218D01*
X146992029Y-80437446D01*
X146969507Y-80445504D01*
X146946303Y-80451316D01*
X146922642Y-80454826D01*
X146898750Y-80456000D01*
X146411250Y-80456000D01*
X146387358Y-80454826D01*
X146363697Y-80451316D01*
X146340493Y-80445504D01*
X146317971Y-80437446D01*
X146296347Y-80427218D01*
X146275830Y-80414921D01*
X146256617Y-80400671D01*
X146238893Y-80384607D01*
X146222829Y-80366883D01*
X146208579Y-80347670D01*
X146196282Y-80327153D01*
X146186054Y-80305529D01*
X146177996Y-80283007D01*
X146172184Y-80259803D01*
X146168674Y-80236142D01*
X146167500Y-80212250D01*
X146167500Y-79299750D01*
X146168674Y-79275858D01*
X146172184Y-79252197D01*
X146177996Y-79228993D01*
X146186054Y-79206471D01*
X146196282Y-79184847D01*
X146208579Y-79164330D01*
X146222829Y-79145117D01*
X146238893Y-79127393D01*
X146256617Y-79111329D01*
X146275830Y-79097079D01*
X146296347Y-79084782D01*
X146317971Y-79074554D01*
X146340493Y-79066496D01*
X146363697Y-79060684D01*
X146387358Y-79057174D01*
X146411250Y-79056000D01*
X146898750Y-79056000D01*
X146922642Y-79057174D01*
X146922642Y-79057174D01*
G37*
D24*
X146655000Y-79756000D03*
D18*
G36*
X145047642Y-79057174D02*
X145071303Y-79060684D01*
X145094507Y-79066496D01*
X145117029Y-79074554D01*
X145138653Y-79084782D01*
X145159170Y-79097079D01*
X145178383Y-79111329D01*
X145196107Y-79127393D01*
X145212171Y-79145117D01*
X145226421Y-79164330D01*
X145238718Y-79184847D01*
X145248946Y-79206471D01*
X145257004Y-79228993D01*
X145262816Y-79252197D01*
X145266326Y-79275858D01*
X145267500Y-79299750D01*
X145267500Y-80212250D01*
X145266326Y-80236142D01*
X145262816Y-80259803D01*
X145257004Y-80283007D01*
X145248946Y-80305529D01*
X145238718Y-80327153D01*
X145226421Y-80347670D01*
X145212171Y-80366883D01*
X145196107Y-80384607D01*
X145178383Y-80400671D01*
X145159170Y-80414921D01*
X145138653Y-80427218D01*
X145117029Y-80437446D01*
X145094507Y-80445504D01*
X145071303Y-80451316D01*
X145047642Y-80454826D01*
X145023750Y-80456000D01*
X144536250Y-80456000D01*
X144512358Y-80454826D01*
X144488697Y-80451316D01*
X144465493Y-80445504D01*
X144442971Y-80437446D01*
X144421347Y-80427218D01*
X144400830Y-80414921D01*
X144381617Y-80400671D01*
X144363893Y-80384607D01*
X144347829Y-80366883D01*
X144333579Y-80347670D01*
X144321282Y-80327153D01*
X144311054Y-80305529D01*
X144302996Y-80283007D01*
X144297184Y-80259803D01*
X144293674Y-80236142D01*
X144292500Y-80212250D01*
X144292500Y-79299750D01*
X144293674Y-79275858D01*
X144297184Y-79252197D01*
X144302996Y-79228993D01*
X144311054Y-79206471D01*
X144321282Y-79184847D01*
X144333579Y-79164330D01*
X144347829Y-79145117D01*
X144363893Y-79127393D01*
X144381617Y-79111329D01*
X144400830Y-79097079D01*
X144421347Y-79084782D01*
X144442971Y-79074554D01*
X144465493Y-79066496D01*
X144488697Y-79060684D01*
X144512358Y-79057174D01*
X144536250Y-79056000D01*
X145023750Y-79056000D01*
X145047642Y-79057174D01*
X145047642Y-79057174D01*
G37*
D24*
X144780000Y-79756000D03*
G04 #@! TD*
D18*
G04 #@! TO.C,R4*
G36*
X137339505Y-103678204D02*
X137363773Y-103681804D01*
X137387572Y-103687765D01*
X137410671Y-103696030D01*
X137432850Y-103706520D01*
X137453893Y-103719132D01*
X137473599Y-103733747D01*
X137491777Y-103750223D01*
X137508253Y-103768401D01*
X137522868Y-103788107D01*
X137535480Y-103809150D01*
X137545970Y-103831329D01*
X137554235Y-103854428D01*
X137560196Y-103878227D01*
X137563796Y-103902495D01*
X137565000Y-103926999D01*
X137565000Y-104777001D01*
X137563796Y-104801505D01*
X137560196Y-104825773D01*
X137554235Y-104849572D01*
X137545970Y-104872671D01*
X137535480Y-104894850D01*
X137522868Y-104915893D01*
X137508253Y-104935599D01*
X137491777Y-104953777D01*
X137473599Y-104970253D01*
X137453893Y-104984868D01*
X137432850Y-104997480D01*
X137410671Y-105007970D01*
X137387572Y-105016235D01*
X137363773Y-105022196D01*
X137339505Y-105025796D01*
X137315001Y-105027000D01*
X134464999Y-105027000D01*
X134440495Y-105025796D01*
X134416227Y-105022196D01*
X134392428Y-105016235D01*
X134369329Y-105007970D01*
X134347150Y-104997480D01*
X134326107Y-104984868D01*
X134306401Y-104970253D01*
X134288223Y-104953777D01*
X134271747Y-104935599D01*
X134257132Y-104915893D01*
X134244520Y-104894850D01*
X134234030Y-104872671D01*
X134225765Y-104849572D01*
X134219804Y-104825773D01*
X134216204Y-104801505D01*
X134215000Y-104777001D01*
X134215000Y-103926999D01*
X134216204Y-103902495D01*
X134219804Y-103878227D01*
X134225765Y-103854428D01*
X134234030Y-103831329D01*
X134244520Y-103809150D01*
X134257132Y-103788107D01*
X134271747Y-103768401D01*
X134288223Y-103750223D01*
X134306401Y-103733747D01*
X134326107Y-103719132D01*
X134347150Y-103706520D01*
X134369329Y-103696030D01*
X134392428Y-103687765D01*
X134416227Y-103681804D01*
X134440495Y-103678204D01*
X134464999Y-103677000D01*
X137315001Y-103677000D01*
X137339505Y-103678204D01*
X137339505Y-103678204D01*
G37*
D23*
X135890000Y-104352000D03*
D18*
G36*
X137339505Y-97878204D02*
X137363773Y-97881804D01*
X137387572Y-97887765D01*
X137410671Y-97896030D01*
X137432850Y-97906520D01*
X137453893Y-97919132D01*
X137473599Y-97933747D01*
X137491777Y-97950223D01*
X137508253Y-97968401D01*
X137522868Y-97988107D01*
X137535480Y-98009150D01*
X137545970Y-98031329D01*
X137554235Y-98054428D01*
X137560196Y-98078227D01*
X137563796Y-98102495D01*
X137565000Y-98126999D01*
X137565000Y-98977001D01*
X137563796Y-99001505D01*
X137560196Y-99025773D01*
X137554235Y-99049572D01*
X137545970Y-99072671D01*
X137535480Y-99094850D01*
X137522868Y-99115893D01*
X137508253Y-99135599D01*
X137491777Y-99153777D01*
X137473599Y-99170253D01*
X137453893Y-99184868D01*
X137432850Y-99197480D01*
X137410671Y-99207970D01*
X137387572Y-99216235D01*
X137363773Y-99222196D01*
X137339505Y-99225796D01*
X137315001Y-99227000D01*
X134464999Y-99227000D01*
X134440495Y-99225796D01*
X134416227Y-99222196D01*
X134392428Y-99216235D01*
X134369329Y-99207970D01*
X134347150Y-99197480D01*
X134326107Y-99184868D01*
X134306401Y-99170253D01*
X134288223Y-99153777D01*
X134271747Y-99135599D01*
X134257132Y-99115893D01*
X134244520Y-99094850D01*
X134234030Y-99072671D01*
X134225765Y-99049572D01*
X134219804Y-99025773D01*
X134216204Y-99001505D01*
X134215000Y-98977001D01*
X134215000Y-98126999D01*
X134216204Y-98102495D01*
X134219804Y-98078227D01*
X134225765Y-98054428D01*
X134234030Y-98031329D01*
X134244520Y-98009150D01*
X134257132Y-97988107D01*
X134271747Y-97968401D01*
X134288223Y-97950223D01*
X134306401Y-97933747D01*
X134326107Y-97919132D01*
X134347150Y-97906520D01*
X134369329Y-97896030D01*
X134392428Y-97887765D01*
X134416227Y-97881804D01*
X134440495Y-97878204D01*
X134464999Y-97877000D01*
X137315001Y-97877000D01*
X137339505Y-97878204D01*
X137339505Y-97878204D01*
G37*
D23*
X135890000Y-98552000D03*
G04 #@! TD*
D18*
G04 #@! TO.C,C1*
G36*
X128242142Y-71746674D02*
X128265803Y-71750184D01*
X128289007Y-71755996D01*
X128311529Y-71764054D01*
X128333153Y-71774282D01*
X128353670Y-71786579D01*
X128372883Y-71800829D01*
X128390607Y-71816893D01*
X128406671Y-71834617D01*
X128420921Y-71853830D01*
X128433218Y-71874347D01*
X128443446Y-71895971D01*
X128451504Y-71918493D01*
X128457316Y-71941697D01*
X128460826Y-71965358D01*
X128462000Y-71989250D01*
X128462000Y-72476750D01*
X128460826Y-72500642D01*
X128457316Y-72524303D01*
X128451504Y-72547507D01*
X128443446Y-72570029D01*
X128433218Y-72591653D01*
X128420921Y-72612170D01*
X128406671Y-72631383D01*
X128390607Y-72649107D01*
X128372883Y-72665171D01*
X128353670Y-72679421D01*
X128333153Y-72691718D01*
X128311529Y-72701946D01*
X128289007Y-72710004D01*
X128265803Y-72715816D01*
X128242142Y-72719326D01*
X128218250Y-72720500D01*
X127305750Y-72720500D01*
X127281858Y-72719326D01*
X127258197Y-72715816D01*
X127234993Y-72710004D01*
X127212471Y-72701946D01*
X127190847Y-72691718D01*
X127170330Y-72679421D01*
X127151117Y-72665171D01*
X127133393Y-72649107D01*
X127117329Y-72631383D01*
X127103079Y-72612170D01*
X127090782Y-72591653D01*
X127080554Y-72570029D01*
X127072496Y-72547507D01*
X127066684Y-72524303D01*
X127063174Y-72500642D01*
X127062000Y-72476750D01*
X127062000Y-71989250D01*
X127063174Y-71965358D01*
X127066684Y-71941697D01*
X127072496Y-71918493D01*
X127080554Y-71895971D01*
X127090782Y-71874347D01*
X127103079Y-71853830D01*
X127117329Y-71834617D01*
X127133393Y-71816893D01*
X127151117Y-71800829D01*
X127170330Y-71786579D01*
X127190847Y-71774282D01*
X127212471Y-71764054D01*
X127234993Y-71755996D01*
X127258197Y-71750184D01*
X127281858Y-71746674D01*
X127305750Y-71745500D01*
X128218250Y-71745500D01*
X128242142Y-71746674D01*
X128242142Y-71746674D01*
G37*
D24*
X127762000Y-72233000D03*
D18*
G36*
X128242142Y-69871674D02*
X128265803Y-69875184D01*
X128289007Y-69880996D01*
X128311529Y-69889054D01*
X128333153Y-69899282D01*
X128353670Y-69911579D01*
X128372883Y-69925829D01*
X128390607Y-69941893D01*
X128406671Y-69959617D01*
X128420921Y-69978830D01*
X128433218Y-69999347D01*
X128443446Y-70020971D01*
X128451504Y-70043493D01*
X128457316Y-70066697D01*
X128460826Y-70090358D01*
X128462000Y-70114250D01*
X128462000Y-70601750D01*
X128460826Y-70625642D01*
X128457316Y-70649303D01*
X128451504Y-70672507D01*
X128443446Y-70695029D01*
X128433218Y-70716653D01*
X128420921Y-70737170D01*
X128406671Y-70756383D01*
X128390607Y-70774107D01*
X128372883Y-70790171D01*
X128353670Y-70804421D01*
X128333153Y-70816718D01*
X128311529Y-70826946D01*
X128289007Y-70835004D01*
X128265803Y-70840816D01*
X128242142Y-70844326D01*
X128218250Y-70845500D01*
X127305750Y-70845500D01*
X127281858Y-70844326D01*
X127258197Y-70840816D01*
X127234993Y-70835004D01*
X127212471Y-70826946D01*
X127190847Y-70816718D01*
X127170330Y-70804421D01*
X127151117Y-70790171D01*
X127133393Y-70774107D01*
X127117329Y-70756383D01*
X127103079Y-70737170D01*
X127090782Y-70716653D01*
X127080554Y-70695029D01*
X127072496Y-70672507D01*
X127066684Y-70649303D01*
X127063174Y-70625642D01*
X127062000Y-70601750D01*
X127062000Y-70114250D01*
X127063174Y-70090358D01*
X127066684Y-70066697D01*
X127072496Y-70043493D01*
X127080554Y-70020971D01*
X127090782Y-69999347D01*
X127103079Y-69978830D01*
X127117329Y-69959617D01*
X127133393Y-69941893D01*
X127151117Y-69925829D01*
X127170330Y-69911579D01*
X127190847Y-69899282D01*
X127212471Y-69889054D01*
X127234993Y-69880996D01*
X127258197Y-69875184D01*
X127281858Y-69871674D01*
X127305750Y-69870500D01*
X128218250Y-69870500D01*
X128242142Y-69871674D01*
X128242142Y-69871674D01*
G37*
D24*
X127762000Y-70358000D03*
G04 #@! TD*
D18*
G04 #@! TO.C,C5*
G36*
X121237642Y-78803174D02*
X121261303Y-78806684D01*
X121284507Y-78812496D01*
X121307029Y-78820554D01*
X121328653Y-78830782D01*
X121349170Y-78843079D01*
X121368383Y-78857329D01*
X121386107Y-78873393D01*
X121402171Y-78891117D01*
X121416421Y-78910330D01*
X121428718Y-78930847D01*
X121438946Y-78952471D01*
X121447004Y-78974993D01*
X121452816Y-78998197D01*
X121456326Y-79021858D01*
X121457500Y-79045750D01*
X121457500Y-79958250D01*
X121456326Y-79982142D01*
X121452816Y-80005803D01*
X121447004Y-80029007D01*
X121438946Y-80051529D01*
X121428718Y-80073153D01*
X121416421Y-80093670D01*
X121402171Y-80112883D01*
X121386107Y-80130607D01*
X121368383Y-80146671D01*
X121349170Y-80160921D01*
X121328653Y-80173218D01*
X121307029Y-80183446D01*
X121284507Y-80191504D01*
X121261303Y-80197316D01*
X121237642Y-80200826D01*
X121213750Y-80202000D01*
X120726250Y-80202000D01*
X120702358Y-80200826D01*
X120678697Y-80197316D01*
X120655493Y-80191504D01*
X120632971Y-80183446D01*
X120611347Y-80173218D01*
X120590830Y-80160921D01*
X120571617Y-80146671D01*
X120553893Y-80130607D01*
X120537829Y-80112883D01*
X120523579Y-80093670D01*
X120511282Y-80073153D01*
X120501054Y-80051529D01*
X120492996Y-80029007D01*
X120487184Y-80005803D01*
X120483674Y-79982142D01*
X120482500Y-79958250D01*
X120482500Y-79045750D01*
X120483674Y-79021858D01*
X120487184Y-78998197D01*
X120492996Y-78974993D01*
X120501054Y-78952471D01*
X120511282Y-78930847D01*
X120523579Y-78910330D01*
X120537829Y-78891117D01*
X120553893Y-78873393D01*
X120571617Y-78857329D01*
X120590830Y-78843079D01*
X120611347Y-78830782D01*
X120632971Y-78820554D01*
X120655493Y-78812496D01*
X120678697Y-78806684D01*
X120702358Y-78803174D01*
X120726250Y-78802000D01*
X121213750Y-78802000D01*
X121237642Y-78803174D01*
X121237642Y-78803174D01*
G37*
D24*
X120970000Y-79502000D03*
D18*
G36*
X123112642Y-78803174D02*
X123136303Y-78806684D01*
X123159507Y-78812496D01*
X123182029Y-78820554D01*
X123203653Y-78830782D01*
X123224170Y-78843079D01*
X123243383Y-78857329D01*
X123261107Y-78873393D01*
X123277171Y-78891117D01*
X123291421Y-78910330D01*
X123303718Y-78930847D01*
X123313946Y-78952471D01*
X123322004Y-78974993D01*
X123327816Y-78998197D01*
X123331326Y-79021858D01*
X123332500Y-79045750D01*
X123332500Y-79958250D01*
X123331326Y-79982142D01*
X123327816Y-80005803D01*
X123322004Y-80029007D01*
X123313946Y-80051529D01*
X123303718Y-80073153D01*
X123291421Y-80093670D01*
X123277171Y-80112883D01*
X123261107Y-80130607D01*
X123243383Y-80146671D01*
X123224170Y-80160921D01*
X123203653Y-80173218D01*
X123182029Y-80183446D01*
X123159507Y-80191504D01*
X123136303Y-80197316D01*
X123112642Y-80200826D01*
X123088750Y-80202000D01*
X122601250Y-80202000D01*
X122577358Y-80200826D01*
X122553697Y-80197316D01*
X122530493Y-80191504D01*
X122507971Y-80183446D01*
X122486347Y-80173218D01*
X122465830Y-80160921D01*
X122446617Y-80146671D01*
X122428893Y-80130607D01*
X122412829Y-80112883D01*
X122398579Y-80093670D01*
X122386282Y-80073153D01*
X122376054Y-80051529D01*
X122367996Y-80029007D01*
X122362184Y-80005803D01*
X122358674Y-79982142D01*
X122357500Y-79958250D01*
X122357500Y-79045750D01*
X122358674Y-79021858D01*
X122362184Y-78998197D01*
X122367996Y-78974993D01*
X122376054Y-78952471D01*
X122386282Y-78930847D01*
X122398579Y-78910330D01*
X122412829Y-78891117D01*
X122428893Y-78873393D01*
X122446617Y-78857329D01*
X122465830Y-78843079D01*
X122486347Y-78830782D01*
X122507971Y-78820554D01*
X122530493Y-78812496D01*
X122553697Y-78806684D01*
X122577358Y-78803174D01*
X122601250Y-78802000D01*
X123088750Y-78802000D01*
X123112642Y-78803174D01*
X123112642Y-78803174D01*
G37*
D24*
X122845000Y-79502000D03*
G04 #@! TD*
D18*
G04 #@! TO.C,C4*
G36*
X128242142Y-102637674D02*
X128265803Y-102641184D01*
X128289007Y-102646996D01*
X128311529Y-102655054D01*
X128333153Y-102665282D01*
X128353670Y-102677579D01*
X128372883Y-102691829D01*
X128390607Y-102707893D01*
X128406671Y-102725617D01*
X128420921Y-102744830D01*
X128433218Y-102765347D01*
X128443446Y-102786971D01*
X128451504Y-102809493D01*
X128457316Y-102832697D01*
X128460826Y-102856358D01*
X128462000Y-102880250D01*
X128462000Y-103367750D01*
X128460826Y-103391642D01*
X128457316Y-103415303D01*
X128451504Y-103438507D01*
X128443446Y-103461029D01*
X128433218Y-103482653D01*
X128420921Y-103503170D01*
X128406671Y-103522383D01*
X128390607Y-103540107D01*
X128372883Y-103556171D01*
X128353670Y-103570421D01*
X128333153Y-103582718D01*
X128311529Y-103592946D01*
X128289007Y-103601004D01*
X128265803Y-103606816D01*
X128242142Y-103610326D01*
X128218250Y-103611500D01*
X127305750Y-103611500D01*
X127281858Y-103610326D01*
X127258197Y-103606816D01*
X127234993Y-103601004D01*
X127212471Y-103592946D01*
X127190847Y-103582718D01*
X127170330Y-103570421D01*
X127151117Y-103556171D01*
X127133393Y-103540107D01*
X127117329Y-103522383D01*
X127103079Y-103503170D01*
X127090782Y-103482653D01*
X127080554Y-103461029D01*
X127072496Y-103438507D01*
X127066684Y-103415303D01*
X127063174Y-103391642D01*
X127062000Y-103367750D01*
X127062000Y-102880250D01*
X127063174Y-102856358D01*
X127066684Y-102832697D01*
X127072496Y-102809493D01*
X127080554Y-102786971D01*
X127090782Y-102765347D01*
X127103079Y-102744830D01*
X127117329Y-102725617D01*
X127133393Y-102707893D01*
X127151117Y-102691829D01*
X127170330Y-102677579D01*
X127190847Y-102665282D01*
X127212471Y-102655054D01*
X127234993Y-102646996D01*
X127258197Y-102641184D01*
X127281858Y-102637674D01*
X127305750Y-102636500D01*
X128218250Y-102636500D01*
X128242142Y-102637674D01*
X128242142Y-102637674D01*
G37*
D24*
X127762000Y-103124000D03*
D18*
G36*
X128242142Y-100762674D02*
X128265803Y-100766184D01*
X128289007Y-100771996D01*
X128311529Y-100780054D01*
X128333153Y-100790282D01*
X128353670Y-100802579D01*
X128372883Y-100816829D01*
X128390607Y-100832893D01*
X128406671Y-100850617D01*
X128420921Y-100869830D01*
X128433218Y-100890347D01*
X128443446Y-100911971D01*
X128451504Y-100934493D01*
X128457316Y-100957697D01*
X128460826Y-100981358D01*
X128462000Y-101005250D01*
X128462000Y-101492750D01*
X128460826Y-101516642D01*
X128457316Y-101540303D01*
X128451504Y-101563507D01*
X128443446Y-101586029D01*
X128433218Y-101607653D01*
X128420921Y-101628170D01*
X128406671Y-101647383D01*
X128390607Y-101665107D01*
X128372883Y-101681171D01*
X128353670Y-101695421D01*
X128333153Y-101707718D01*
X128311529Y-101717946D01*
X128289007Y-101726004D01*
X128265803Y-101731816D01*
X128242142Y-101735326D01*
X128218250Y-101736500D01*
X127305750Y-101736500D01*
X127281858Y-101735326D01*
X127258197Y-101731816D01*
X127234993Y-101726004D01*
X127212471Y-101717946D01*
X127190847Y-101707718D01*
X127170330Y-101695421D01*
X127151117Y-101681171D01*
X127133393Y-101665107D01*
X127117329Y-101647383D01*
X127103079Y-101628170D01*
X127090782Y-101607653D01*
X127080554Y-101586029D01*
X127072496Y-101563507D01*
X127066684Y-101540303D01*
X127063174Y-101516642D01*
X127062000Y-101492750D01*
X127062000Y-101005250D01*
X127063174Y-100981358D01*
X127066684Y-100957697D01*
X127072496Y-100934493D01*
X127080554Y-100911971D01*
X127090782Y-100890347D01*
X127103079Y-100869830D01*
X127117329Y-100850617D01*
X127133393Y-100832893D01*
X127151117Y-100816829D01*
X127170330Y-100802579D01*
X127190847Y-100790282D01*
X127212471Y-100780054D01*
X127234993Y-100771996D01*
X127258197Y-100766184D01*
X127281858Y-100762674D01*
X127305750Y-100761500D01*
X128218250Y-100761500D01*
X128242142Y-100762674D01*
X128242142Y-100762674D01*
G37*
D24*
X127762000Y-101249000D03*
G04 #@! TD*
D18*
G04 #@! TO.C,C12*
G36*
X117625691Y-88209553D02*
X117646926Y-88212703D01*
X117667750Y-88217919D01*
X117687962Y-88225151D01*
X117707368Y-88234330D01*
X117725781Y-88245366D01*
X117743024Y-88258154D01*
X117758930Y-88272570D01*
X117773346Y-88288476D01*
X117786134Y-88305719D01*
X117797170Y-88324132D01*
X117806349Y-88343538D01*
X117813581Y-88363750D01*
X117818797Y-88384574D01*
X117821947Y-88405809D01*
X117823000Y-88427250D01*
X117823000Y-88864750D01*
X117821947Y-88886191D01*
X117818797Y-88907426D01*
X117813581Y-88928250D01*
X117806349Y-88948462D01*
X117797170Y-88967868D01*
X117786134Y-88986281D01*
X117773346Y-89003524D01*
X117758930Y-89019430D01*
X117743024Y-89033846D01*
X117725781Y-89046634D01*
X117707368Y-89057670D01*
X117687962Y-89066849D01*
X117667750Y-89074081D01*
X117646926Y-89079297D01*
X117625691Y-89082447D01*
X117604250Y-89083500D01*
X117091750Y-89083500D01*
X117070309Y-89082447D01*
X117049074Y-89079297D01*
X117028250Y-89074081D01*
X117008038Y-89066849D01*
X116988632Y-89057670D01*
X116970219Y-89046634D01*
X116952976Y-89033846D01*
X116937070Y-89019430D01*
X116922654Y-89003524D01*
X116909866Y-88986281D01*
X116898830Y-88967868D01*
X116889651Y-88948462D01*
X116882419Y-88928250D01*
X116877203Y-88907426D01*
X116874053Y-88886191D01*
X116873000Y-88864750D01*
X116873000Y-88427250D01*
X116874053Y-88405809D01*
X116877203Y-88384574D01*
X116882419Y-88363750D01*
X116889651Y-88343538D01*
X116898830Y-88324132D01*
X116909866Y-88305719D01*
X116922654Y-88288476D01*
X116937070Y-88272570D01*
X116952976Y-88258154D01*
X116970219Y-88245366D01*
X116988632Y-88234330D01*
X117008038Y-88225151D01*
X117028250Y-88217919D01*
X117049074Y-88212703D01*
X117070309Y-88209553D01*
X117091750Y-88208500D01*
X117604250Y-88208500D01*
X117625691Y-88209553D01*
X117625691Y-88209553D01*
G37*
D21*
X117348000Y-88646000D03*
D18*
G36*
X117625691Y-86634553D02*
X117646926Y-86637703D01*
X117667750Y-86642919D01*
X117687962Y-86650151D01*
X117707368Y-86659330D01*
X117725781Y-86670366D01*
X117743024Y-86683154D01*
X117758930Y-86697570D01*
X117773346Y-86713476D01*
X117786134Y-86730719D01*
X117797170Y-86749132D01*
X117806349Y-86768538D01*
X117813581Y-86788750D01*
X117818797Y-86809574D01*
X117821947Y-86830809D01*
X117823000Y-86852250D01*
X117823000Y-87289750D01*
X117821947Y-87311191D01*
X117818797Y-87332426D01*
X117813581Y-87353250D01*
X117806349Y-87373462D01*
X117797170Y-87392868D01*
X117786134Y-87411281D01*
X117773346Y-87428524D01*
X117758930Y-87444430D01*
X117743024Y-87458846D01*
X117725781Y-87471634D01*
X117707368Y-87482670D01*
X117687962Y-87491849D01*
X117667750Y-87499081D01*
X117646926Y-87504297D01*
X117625691Y-87507447D01*
X117604250Y-87508500D01*
X117091750Y-87508500D01*
X117070309Y-87507447D01*
X117049074Y-87504297D01*
X117028250Y-87499081D01*
X117008038Y-87491849D01*
X116988632Y-87482670D01*
X116970219Y-87471634D01*
X116952976Y-87458846D01*
X116937070Y-87444430D01*
X116922654Y-87428524D01*
X116909866Y-87411281D01*
X116898830Y-87392868D01*
X116889651Y-87373462D01*
X116882419Y-87353250D01*
X116877203Y-87332426D01*
X116874053Y-87311191D01*
X116873000Y-87289750D01*
X116873000Y-86852250D01*
X116874053Y-86830809D01*
X116877203Y-86809574D01*
X116882419Y-86788750D01*
X116889651Y-86768538D01*
X116898830Y-86749132D01*
X116909866Y-86730719D01*
X116922654Y-86713476D01*
X116937070Y-86697570D01*
X116952976Y-86683154D01*
X116970219Y-86670366D01*
X116988632Y-86659330D01*
X117008038Y-86650151D01*
X117028250Y-86642919D01*
X117049074Y-86637703D01*
X117070309Y-86634553D01*
X117091750Y-86633500D01*
X117604250Y-86633500D01*
X117625691Y-86634553D01*
X117625691Y-86634553D01*
G37*
D21*
X117348000Y-87071000D03*
G04 #@! TD*
D18*
G04 #@! TO.C,C14*
G36*
X121553504Y-90308204D02*
X121577773Y-90311804D01*
X121601571Y-90317765D01*
X121624671Y-90326030D01*
X121646849Y-90336520D01*
X121667893Y-90349133D01*
X121687598Y-90363747D01*
X121705777Y-90380223D01*
X121722253Y-90398402D01*
X121736867Y-90418107D01*
X121749480Y-90439151D01*
X121759970Y-90461329D01*
X121768235Y-90484429D01*
X121774196Y-90508227D01*
X121777796Y-90532496D01*
X121779000Y-90557000D01*
X121779000Y-91307000D01*
X121777796Y-91331504D01*
X121774196Y-91355773D01*
X121768235Y-91379571D01*
X121759970Y-91402671D01*
X121749480Y-91424849D01*
X121736867Y-91445893D01*
X121722253Y-91465598D01*
X121705777Y-91483777D01*
X121687598Y-91500253D01*
X121667893Y-91514867D01*
X121646849Y-91527480D01*
X121624671Y-91537970D01*
X121601571Y-91546235D01*
X121577773Y-91552196D01*
X121553504Y-91555796D01*
X121529000Y-91557000D01*
X120279000Y-91557000D01*
X120254496Y-91555796D01*
X120230227Y-91552196D01*
X120206429Y-91546235D01*
X120183329Y-91537970D01*
X120161151Y-91527480D01*
X120140107Y-91514867D01*
X120120402Y-91500253D01*
X120102223Y-91483777D01*
X120085747Y-91465598D01*
X120071133Y-91445893D01*
X120058520Y-91424849D01*
X120048030Y-91402671D01*
X120039765Y-91379571D01*
X120033804Y-91355773D01*
X120030204Y-91331504D01*
X120029000Y-91307000D01*
X120029000Y-90557000D01*
X120030204Y-90532496D01*
X120033804Y-90508227D01*
X120039765Y-90484429D01*
X120048030Y-90461329D01*
X120058520Y-90439151D01*
X120071133Y-90418107D01*
X120085747Y-90398402D01*
X120102223Y-90380223D01*
X120120402Y-90363747D01*
X120140107Y-90349133D01*
X120161151Y-90336520D01*
X120183329Y-90326030D01*
X120206429Y-90317765D01*
X120230227Y-90311804D01*
X120254496Y-90308204D01*
X120279000Y-90307000D01*
X121529000Y-90307000D01*
X121553504Y-90308204D01*
X121553504Y-90308204D01*
G37*
D19*
X120904000Y-90932000D03*
D18*
G36*
X121553504Y-87508204D02*
X121577773Y-87511804D01*
X121601571Y-87517765D01*
X121624671Y-87526030D01*
X121646849Y-87536520D01*
X121667893Y-87549133D01*
X121687598Y-87563747D01*
X121705777Y-87580223D01*
X121722253Y-87598402D01*
X121736867Y-87618107D01*
X121749480Y-87639151D01*
X121759970Y-87661329D01*
X121768235Y-87684429D01*
X121774196Y-87708227D01*
X121777796Y-87732496D01*
X121779000Y-87757000D01*
X121779000Y-88507000D01*
X121777796Y-88531504D01*
X121774196Y-88555773D01*
X121768235Y-88579571D01*
X121759970Y-88602671D01*
X121749480Y-88624849D01*
X121736867Y-88645893D01*
X121722253Y-88665598D01*
X121705777Y-88683777D01*
X121687598Y-88700253D01*
X121667893Y-88714867D01*
X121646849Y-88727480D01*
X121624671Y-88737970D01*
X121601571Y-88746235D01*
X121577773Y-88752196D01*
X121553504Y-88755796D01*
X121529000Y-88757000D01*
X120279000Y-88757000D01*
X120254496Y-88755796D01*
X120230227Y-88752196D01*
X120206429Y-88746235D01*
X120183329Y-88737970D01*
X120161151Y-88727480D01*
X120140107Y-88714867D01*
X120120402Y-88700253D01*
X120102223Y-88683777D01*
X120085747Y-88665598D01*
X120071133Y-88645893D01*
X120058520Y-88624849D01*
X120048030Y-88602671D01*
X120039765Y-88579571D01*
X120033804Y-88555773D01*
X120030204Y-88531504D01*
X120029000Y-88507000D01*
X120029000Y-87757000D01*
X120030204Y-87732496D01*
X120033804Y-87708227D01*
X120039765Y-87684429D01*
X120048030Y-87661329D01*
X120058520Y-87639151D01*
X120071133Y-87618107D01*
X120085747Y-87598402D01*
X120102223Y-87580223D01*
X120120402Y-87563747D01*
X120140107Y-87549133D01*
X120161151Y-87536520D01*
X120183329Y-87526030D01*
X120206429Y-87517765D01*
X120230227Y-87511804D01*
X120254496Y-87508204D01*
X120279000Y-87507000D01*
X121529000Y-87507000D01*
X121553504Y-87508204D01*
X121553504Y-87508204D01*
G37*
D19*
X120904000Y-88132000D03*
G04 #@! TD*
D18*
G04 #@! TO.C,C10*
G36*
X119352142Y-82571674D02*
X119375803Y-82575184D01*
X119399007Y-82580996D01*
X119421529Y-82589054D01*
X119443153Y-82599282D01*
X119463670Y-82611579D01*
X119482883Y-82625829D01*
X119500607Y-82641893D01*
X119516671Y-82659617D01*
X119530921Y-82678830D01*
X119543218Y-82699347D01*
X119553446Y-82720971D01*
X119561504Y-82743493D01*
X119567316Y-82766697D01*
X119570826Y-82790358D01*
X119572000Y-82814250D01*
X119572000Y-83301750D01*
X119570826Y-83325642D01*
X119567316Y-83349303D01*
X119561504Y-83372507D01*
X119553446Y-83395029D01*
X119543218Y-83416653D01*
X119530921Y-83437170D01*
X119516671Y-83456383D01*
X119500607Y-83474107D01*
X119482883Y-83490171D01*
X119463670Y-83504421D01*
X119443153Y-83516718D01*
X119421529Y-83526946D01*
X119399007Y-83535004D01*
X119375803Y-83540816D01*
X119352142Y-83544326D01*
X119328250Y-83545500D01*
X118415750Y-83545500D01*
X118391858Y-83544326D01*
X118368197Y-83540816D01*
X118344993Y-83535004D01*
X118322471Y-83526946D01*
X118300847Y-83516718D01*
X118280330Y-83504421D01*
X118261117Y-83490171D01*
X118243393Y-83474107D01*
X118227329Y-83456383D01*
X118213079Y-83437170D01*
X118200782Y-83416653D01*
X118190554Y-83395029D01*
X118182496Y-83372507D01*
X118176684Y-83349303D01*
X118173174Y-83325642D01*
X118172000Y-83301750D01*
X118172000Y-82814250D01*
X118173174Y-82790358D01*
X118176684Y-82766697D01*
X118182496Y-82743493D01*
X118190554Y-82720971D01*
X118200782Y-82699347D01*
X118213079Y-82678830D01*
X118227329Y-82659617D01*
X118243393Y-82641893D01*
X118261117Y-82625829D01*
X118280330Y-82611579D01*
X118300847Y-82599282D01*
X118322471Y-82589054D01*
X118344993Y-82580996D01*
X118368197Y-82575184D01*
X118391858Y-82571674D01*
X118415750Y-82570500D01*
X119328250Y-82570500D01*
X119352142Y-82571674D01*
X119352142Y-82571674D01*
G37*
D24*
X118872000Y-83058000D03*
D18*
G36*
X119352142Y-84446674D02*
X119375803Y-84450184D01*
X119399007Y-84455996D01*
X119421529Y-84464054D01*
X119443153Y-84474282D01*
X119463670Y-84486579D01*
X119482883Y-84500829D01*
X119500607Y-84516893D01*
X119516671Y-84534617D01*
X119530921Y-84553830D01*
X119543218Y-84574347D01*
X119553446Y-84595971D01*
X119561504Y-84618493D01*
X119567316Y-84641697D01*
X119570826Y-84665358D01*
X119572000Y-84689250D01*
X119572000Y-85176750D01*
X119570826Y-85200642D01*
X119567316Y-85224303D01*
X119561504Y-85247507D01*
X119553446Y-85270029D01*
X119543218Y-85291653D01*
X119530921Y-85312170D01*
X119516671Y-85331383D01*
X119500607Y-85349107D01*
X119482883Y-85365171D01*
X119463670Y-85379421D01*
X119443153Y-85391718D01*
X119421529Y-85401946D01*
X119399007Y-85410004D01*
X119375803Y-85415816D01*
X119352142Y-85419326D01*
X119328250Y-85420500D01*
X118415750Y-85420500D01*
X118391858Y-85419326D01*
X118368197Y-85415816D01*
X118344993Y-85410004D01*
X118322471Y-85401946D01*
X118300847Y-85391718D01*
X118280330Y-85379421D01*
X118261117Y-85365171D01*
X118243393Y-85349107D01*
X118227329Y-85331383D01*
X118213079Y-85312170D01*
X118200782Y-85291653D01*
X118190554Y-85270029D01*
X118182496Y-85247507D01*
X118176684Y-85224303D01*
X118173174Y-85200642D01*
X118172000Y-85176750D01*
X118172000Y-84689250D01*
X118173174Y-84665358D01*
X118176684Y-84641697D01*
X118182496Y-84618493D01*
X118190554Y-84595971D01*
X118200782Y-84574347D01*
X118213079Y-84553830D01*
X118227329Y-84534617D01*
X118243393Y-84516893D01*
X118261117Y-84500829D01*
X118280330Y-84486579D01*
X118300847Y-84474282D01*
X118322471Y-84464054D01*
X118344993Y-84455996D01*
X118368197Y-84450184D01*
X118391858Y-84446674D01*
X118415750Y-84445500D01*
X119328250Y-84445500D01*
X119352142Y-84446674D01*
X119352142Y-84446674D01*
G37*
D24*
X118872000Y-84933000D03*
G04 #@! TD*
D18*
G04 #@! TO.C,C11*
G36*
X119149691Y-88209553D02*
X119170926Y-88212703D01*
X119191750Y-88217919D01*
X119211962Y-88225151D01*
X119231368Y-88234330D01*
X119249781Y-88245366D01*
X119267024Y-88258154D01*
X119282930Y-88272570D01*
X119297346Y-88288476D01*
X119310134Y-88305719D01*
X119321170Y-88324132D01*
X119330349Y-88343538D01*
X119337581Y-88363750D01*
X119342797Y-88384574D01*
X119345947Y-88405809D01*
X119347000Y-88427250D01*
X119347000Y-88864750D01*
X119345947Y-88886191D01*
X119342797Y-88907426D01*
X119337581Y-88928250D01*
X119330349Y-88948462D01*
X119321170Y-88967868D01*
X119310134Y-88986281D01*
X119297346Y-89003524D01*
X119282930Y-89019430D01*
X119267024Y-89033846D01*
X119249781Y-89046634D01*
X119231368Y-89057670D01*
X119211962Y-89066849D01*
X119191750Y-89074081D01*
X119170926Y-89079297D01*
X119149691Y-89082447D01*
X119128250Y-89083500D01*
X118615750Y-89083500D01*
X118594309Y-89082447D01*
X118573074Y-89079297D01*
X118552250Y-89074081D01*
X118532038Y-89066849D01*
X118512632Y-89057670D01*
X118494219Y-89046634D01*
X118476976Y-89033846D01*
X118461070Y-89019430D01*
X118446654Y-89003524D01*
X118433866Y-88986281D01*
X118422830Y-88967868D01*
X118413651Y-88948462D01*
X118406419Y-88928250D01*
X118401203Y-88907426D01*
X118398053Y-88886191D01*
X118397000Y-88864750D01*
X118397000Y-88427250D01*
X118398053Y-88405809D01*
X118401203Y-88384574D01*
X118406419Y-88363750D01*
X118413651Y-88343538D01*
X118422830Y-88324132D01*
X118433866Y-88305719D01*
X118446654Y-88288476D01*
X118461070Y-88272570D01*
X118476976Y-88258154D01*
X118494219Y-88245366D01*
X118512632Y-88234330D01*
X118532038Y-88225151D01*
X118552250Y-88217919D01*
X118573074Y-88212703D01*
X118594309Y-88209553D01*
X118615750Y-88208500D01*
X119128250Y-88208500D01*
X119149691Y-88209553D01*
X119149691Y-88209553D01*
G37*
D21*
X118872000Y-88646000D03*
D18*
G36*
X119149691Y-86634553D02*
X119170926Y-86637703D01*
X119191750Y-86642919D01*
X119211962Y-86650151D01*
X119231368Y-86659330D01*
X119249781Y-86670366D01*
X119267024Y-86683154D01*
X119282930Y-86697570D01*
X119297346Y-86713476D01*
X119310134Y-86730719D01*
X119321170Y-86749132D01*
X119330349Y-86768538D01*
X119337581Y-86788750D01*
X119342797Y-86809574D01*
X119345947Y-86830809D01*
X119347000Y-86852250D01*
X119347000Y-87289750D01*
X119345947Y-87311191D01*
X119342797Y-87332426D01*
X119337581Y-87353250D01*
X119330349Y-87373462D01*
X119321170Y-87392868D01*
X119310134Y-87411281D01*
X119297346Y-87428524D01*
X119282930Y-87444430D01*
X119267024Y-87458846D01*
X119249781Y-87471634D01*
X119231368Y-87482670D01*
X119211962Y-87491849D01*
X119191750Y-87499081D01*
X119170926Y-87504297D01*
X119149691Y-87507447D01*
X119128250Y-87508500D01*
X118615750Y-87508500D01*
X118594309Y-87507447D01*
X118573074Y-87504297D01*
X118552250Y-87499081D01*
X118532038Y-87491849D01*
X118512632Y-87482670D01*
X118494219Y-87471634D01*
X118476976Y-87458846D01*
X118461070Y-87444430D01*
X118446654Y-87428524D01*
X118433866Y-87411281D01*
X118422830Y-87392868D01*
X118413651Y-87373462D01*
X118406419Y-87353250D01*
X118401203Y-87332426D01*
X118398053Y-87311191D01*
X118397000Y-87289750D01*
X118397000Y-86852250D01*
X118398053Y-86830809D01*
X118401203Y-86809574D01*
X118406419Y-86788750D01*
X118413651Y-86768538D01*
X118422830Y-86749132D01*
X118433866Y-86730719D01*
X118446654Y-86713476D01*
X118461070Y-86697570D01*
X118476976Y-86683154D01*
X118494219Y-86670366D01*
X118512632Y-86659330D01*
X118532038Y-86650151D01*
X118552250Y-86642919D01*
X118573074Y-86637703D01*
X118594309Y-86634553D01*
X118615750Y-86633500D01*
X119128250Y-86633500D01*
X119149691Y-86634553D01*
X119149691Y-86634553D01*
G37*
D21*
X118872000Y-87071000D03*
G04 #@! TD*
M02*
