M48
;DRILL file {KiCad 5.0.0-fee4fd1~66~ubuntu16.04.1} date Tue Aug 14 17:57:12 2018
;FORMAT={-:-/ absolute / inch / decimal}
FMAT,2
INCH,TZ
T1C0.0157
T2C0.0394
T3C0.0433
T4C0.0472
%
G90
G05
M72
T1
X3.92Y-4.11
X3.96Y-3.76
X3.99Y-2.74
X3.99Y-3.96
X4.12Y-4.09
X4.15Y-3.94
X4.2Y-4.28
X4.21Y-2.49
X4.28Y-3.98
X4.32Y-4.16
X4.32Y-4.34
X4.33Y-2.63
X4.43Y-2.5
X4.43Y-4.09
X4.5Y-4.34
X4.54Y-2.64
X4.6Y-4.2
X4.66Y-2.75
X4.7Y-2.49
X4.72Y-4.09
X4.73Y-3.41
X4.75Y-4.34
X4.84Y-2.64
X4.85Y-4.18
X4.91Y-2.76
X4.94Y-2.49
X4.94Y-2.96
X4.94Y-3.87
X4.95Y-3.41
X4.96Y-3.92
X4.97Y-2.91
X4.97Y-4.09
X4.97Y-4.34
X5.Y-2.96
X5.Y-3.87
X5.01Y-3.27
X5.01Y-3.55
X5.01Y-3.92
X5.02Y-2.91
X5.05Y-3.87
X5.06Y-2.96
X5.06Y-3.92
X5.07Y-2.91
X5.09Y-2.64
X5.1Y-4.23
X5.16Y-2.78
X5.16Y-4.04
X5.17Y-4.34
X5.18Y-3.34
X5.18Y-3.41
X5.18Y-3.48
X5.19Y-2.49
X5.19Y-3.2
X5.19Y-3.28
X5.19Y-3.54
X5.19Y-3.62
X5.2161Y-3.2421
X5.2161Y-3.5779
X5.22Y-2.78
X5.22Y-3.37
X5.22Y-3.45
X5.22Y-4.04
X5.24Y-3.2
X5.24Y-3.28
X5.24Y-3.54
X5.24Y-3.62
X5.27Y-3.34
X5.27Y-3.41
X5.27Y-3.48
X5.29Y-2.63
X5.3Y-3.2
X5.3Y-3.28
X5.3Y-3.54
X5.3Y-3.62
X5.31Y-3.37
X5.31Y-3.45
X5.32Y-2.78
X5.32Y-4.04
X5.3239Y-3.2421
X5.3239Y-3.5779
X5.34Y-3.795
X5.345Y-3.03
X5.35Y-3.2
X5.35Y-3.28
X5.35Y-3.34
X5.35Y-3.41
X5.35Y-3.48
X5.35Y-3.54
X5.35Y-3.62
X5.37Y-4.33
X5.38Y-2.78
X5.38Y-4.04
X5.44Y-2.49
X5.44Y-3.79
X5.46Y-3.04
X5.46Y-3.84
X5.47Y-3.75
X5.47Y-4.21
X5.48Y-2.99
X5.48Y-3.89
X5.49Y-3.08
X5.49Y-3.79
X5.51Y-2.75
X5.51Y-2.95
X5.51Y-3.04
X5.51Y-3.84
X5.52Y-3.75
X5.53Y-2.99
X5.5303Y-3.2781
X5.5303Y-3.5419
X5.54Y-3.08
X5.57Y-2.63
X5.59Y-3.29
X5.59Y-3.53
X5.6Y-4.33
X5.61Y-3.22
X5.61Y-3.6
X5.68Y-4.21
X5.71Y-2.49
X5.77Y-3.2
X5.77Y-3.63
X5.82Y-4.38
X5.83Y-3.47
X5.91Y-2.63
X5.99Y-4.21
X6.Y-2.48
X6.05Y-4.33
X6.11Y-2.63
X6.14Y-2.41
X6.36Y-2.67
T2
X6.3Y-2.94
X6.3Y-3.04
X6.3Y-3.14
X6.3Y-3.24
X6.3Y-3.34
X6.3Y-3.44
X6.3Y-3.54
X6.3Y-3.64
X6.3Y-3.74
X6.3Y-3.84
X4.24Y-2.75
X4.34Y-2.75
X4.44Y-2.75
X4.54Y-2.75
T3
X4.Y-2.88
X4.Y-3.03
X4.Y-3.18
X4.Y-3.33
X4.Y-3.48
X4.Y-3.63
T4
X5.81Y-3.9547
X5.81Y-4.25
X5.81Y-2.55
X5.81Y-2.8453
T0
M30
