G04 #@! TF.GenerationSoftware,KiCad,Pcbnew,5.1.5-52549c5~84~ubuntu18.04.1*
G04 #@! TF.CreationDate,2020-03-09T10:29:23-07:00*
G04 #@! TF.ProjectId,wifistepper,77696669-7374-4657-9070-65722e6b6963,rev?*
G04 #@! TF.SameCoordinates,Original*
G04 #@! TF.FileFunction,Copper,L4,Bot*
G04 #@! TF.FilePolarity,Positive*
%FSLAX46Y46*%
G04 Gerber Fmt 4.6, Leading zero omitted, Abs format (unit mm)*
G04 Created by KiCad (PCBNEW 5.1.5-52549c5~84~ubuntu18.04.1) date 2020-03-09 10:29:23*
%MOMM*%
%LPD*%
G04 APERTURE LIST*
%ADD10C,0.100000*%
%ADD11R,3.500000X3.500000*%
%ADD12R,2.600000X2.600000*%
%ADD13C,2.600000*%
%ADD14R,1.700000X1.700000*%
%ADD15O,1.700000X1.700000*%
%ADD16C,2.400000*%
%ADD17R,2.400000X2.400000*%
%ADD18C,0.800000*%
%ADD19C,0.400000*%
%ADD20C,0.200000*%
%ADD21C,0.250000*%
G04 APERTURE END LIST*
G04 #@! TA.AperFunction,SMDPad,CuDef*
D10*
G36*
X55373602Y-68042000D02*
G01*
X55373602Y-68017466D01*
X55378412Y-67968635D01*
X55387984Y-67920510D01*
X55402228Y-67873555D01*
X55421005Y-67828222D01*
X55444136Y-67784949D01*
X55471396Y-67744150D01*
X55502524Y-67706221D01*
X55537221Y-67671524D01*
X55575150Y-67640396D01*
X55615949Y-67613136D01*
X55659222Y-67590005D01*
X55704555Y-67571228D01*
X55751510Y-67556984D01*
X55799635Y-67547412D01*
X55848466Y-67542602D01*
X55873000Y-67542602D01*
X55873000Y-67542000D01*
X70873000Y-67542000D01*
X70873000Y-67542602D01*
X70897534Y-67542602D01*
X70946365Y-67547412D01*
X70994490Y-67556984D01*
X71041445Y-67571228D01*
X71086778Y-67590005D01*
X71130051Y-67613136D01*
X71170850Y-67640396D01*
X71208779Y-67671524D01*
X71243476Y-67706221D01*
X71274604Y-67744150D01*
X71301864Y-67784949D01*
X71324995Y-67828222D01*
X71343772Y-67873555D01*
X71358016Y-67920510D01*
X71367588Y-67968635D01*
X71372398Y-68017466D01*
X71372398Y-68042000D01*
X71373000Y-68042000D01*
X71373000Y-68542000D01*
X55373000Y-68542000D01*
X55373000Y-68042000D01*
X55373602Y-68042000D01*
G37*
G04 #@! TD.AperFunction*
G04 #@! TA.AperFunction,SMDPad,CuDef*
G36*
X71373000Y-68842000D02*
G01*
X71373000Y-69342000D01*
X71372398Y-69342000D01*
X71372398Y-69366534D01*
X71367588Y-69415365D01*
X71358016Y-69463490D01*
X71343772Y-69510445D01*
X71324995Y-69555778D01*
X71301864Y-69599051D01*
X71274604Y-69639850D01*
X71243476Y-69677779D01*
X71208779Y-69712476D01*
X71170850Y-69743604D01*
X71130051Y-69770864D01*
X71086778Y-69793995D01*
X71041445Y-69812772D01*
X70994490Y-69827016D01*
X70946365Y-69836588D01*
X70897534Y-69841398D01*
X70873000Y-69841398D01*
X70873000Y-69842000D01*
X55873000Y-69842000D01*
X55873000Y-69841398D01*
X55848466Y-69841398D01*
X55799635Y-69836588D01*
X55751510Y-69827016D01*
X55704555Y-69812772D01*
X55659222Y-69793995D01*
X55615949Y-69770864D01*
X55575150Y-69743604D01*
X55537221Y-69712476D01*
X55502524Y-69677779D01*
X55471396Y-69639850D01*
X55444136Y-69599051D01*
X55421005Y-69555778D01*
X55402228Y-69510445D01*
X55387984Y-69463490D01*
X55378412Y-69415365D01*
X55373602Y-69366534D01*
X55373602Y-69342000D01*
X55373000Y-69342000D01*
X55373000Y-68842000D01*
X71373000Y-68842000D01*
G37*
G04 #@! TD.AperFunction*
G04 #@! TA.AperFunction,SMDPad,CuDef*
G36*
X71118398Y-111521000D02*
G01*
X71118398Y-111545534D01*
X71113588Y-111594365D01*
X71104016Y-111642490D01*
X71089772Y-111689445D01*
X71070995Y-111734778D01*
X71047864Y-111778051D01*
X71020604Y-111818850D01*
X70989476Y-111856779D01*
X70954779Y-111891476D01*
X70916850Y-111922604D01*
X70876051Y-111949864D01*
X70832778Y-111972995D01*
X70787445Y-111991772D01*
X70740490Y-112006016D01*
X70692365Y-112015588D01*
X70643534Y-112020398D01*
X70619000Y-112020398D01*
X70619000Y-112021000D01*
X55619000Y-112021000D01*
X55619000Y-112020398D01*
X55594466Y-112020398D01*
X55545635Y-112015588D01*
X55497510Y-112006016D01*
X55450555Y-111991772D01*
X55405222Y-111972995D01*
X55361949Y-111949864D01*
X55321150Y-111922604D01*
X55283221Y-111891476D01*
X55248524Y-111856779D01*
X55217396Y-111818850D01*
X55190136Y-111778051D01*
X55167005Y-111734778D01*
X55148228Y-111689445D01*
X55133984Y-111642490D01*
X55124412Y-111594365D01*
X55119602Y-111545534D01*
X55119602Y-111521000D01*
X55119000Y-111521000D01*
X55119000Y-111021000D01*
X71119000Y-111021000D01*
X71119000Y-111521000D01*
X71118398Y-111521000D01*
G37*
G04 #@! TD.AperFunction*
G04 #@! TA.AperFunction,SMDPad,CuDef*
G36*
X55119000Y-110721000D02*
G01*
X55119000Y-110221000D01*
X55119602Y-110221000D01*
X55119602Y-110196466D01*
X55124412Y-110147635D01*
X55133984Y-110099510D01*
X55148228Y-110052555D01*
X55167005Y-110007222D01*
X55190136Y-109963949D01*
X55217396Y-109923150D01*
X55248524Y-109885221D01*
X55283221Y-109850524D01*
X55321150Y-109819396D01*
X55361949Y-109792136D01*
X55405222Y-109769005D01*
X55450555Y-109750228D01*
X55497510Y-109735984D01*
X55545635Y-109726412D01*
X55594466Y-109721602D01*
X55619000Y-109721602D01*
X55619000Y-109721000D01*
X70619000Y-109721000D01*
X70619000Y-109721602D01*
X70643534Y-109721602D01*
X70692365Y-109726412D01*
X70740490Y-109735984D01*
X70787445Y-109750228D01*
X70832778Y-109769005D01*
X70876051Y-109792136D01*
X70916850Y-109819396D01*
X70954779Y-109850524D01*
X70989476Y-109885221D01*
X71020604Y-109923150D01*
X71047864Y-109963949D01*
X71070995Y-110007222D01*
X71089772Y-110052555D01*
X71104016Y-110099510D01*
X71113588Y-110147635D01*
X71118398Y-110196466D01*
X71118398Y-110221000D01*
X71119000Y-110221000D01*
X71119000Y-110721000D01*
X55119000Y-110721000D01*
G37*
G04 #@! TD.AperFunction*
D11*
X47592500Y-105918000D03*
G04 #@! TA.AperFunction,ComponentPad*
D10*
G36*
X42416013Y-104171611D02*
G01*
X42488818Y-104182411D01*
X42560214Y-104200295D01*
X42629513Y-104225090D01*
X42696048Y-104256559D01*
X42759178Y-104294398D01*
X42818295Y-104338242D01*
X42872830Y-104387670D01*
X42922258Y-104442205D01*
X42966102Y-104501322D01*
X43003941Y-104564452D01*
X43035410Y-104630987D01*
X43060205Y-104700286D01*
X43078089Y-104771682D01*
X43088889Y-104844487D01*
X43092500Y-104918000D01*
X43092500Y-106918000D01*
X43088889Y-106991513D01*
X43078089Y-107064318D01*
X43060205Y-107135714D01*
X43035410Y-107205013D01*
X43003941Y-107271548D01*
X42966102Y-107334678D01*
X42922258Y-107393795D01*
X42872830Y-107448330D01*
X42818295Y-107497758D01*
X42759178Y-107541602D01*
X42696048Y-107579441D01*
X42629513Y-107610910D01*
X42560214Y-107635705D01*
X42488818Y-107653589D01*
X42416013Y-107664389D01*
X42342500Y-107668000D01*
X40842500Y-107668000D01*
X40768987Y-107664389D01*
X40696182Y-107653589D01*
X40624786Y-107635705D01*
X40555487Y-107610910D01*
X40488952Y-107579441D01*
X40425822Y-107541602D01*
X40366705Y-107497758D01*
X40312170Y-107448330D01*
X40262742Y-107393795D01*
X40218898Y-107334678D01*
X40181059Y-107271548D01*
X40149590Y-107205013D01*
X40124795Y-107135714D01*
X40106911Y-107064318D01*
X40096111Y-106991513D01*
X40092500Y-106918000D01*
X40092500Y-104918000D01*
X40096111Y-104844487D01*
X40106911Y-104771682D01*
X40124795Y-104700286D01*
X40149590Y-104630987D01*
X40181059Y-104564452D01*
X40218898Y-104501322D01*
X40262742Y-104442205D01*
X40312170Y-104387670D01*
X40366705Y-104338242D01*
X40425822Y-104294398D01*
X40488952Y-104256559D01*
X40555487Y-104225090D01*
X40624786Y-104200295D01*
X40696182Y-104182411D01*
X40768987Y-104171611D01*
X40842500Y-104168000D01*
X42342500Y-104168000D01*
X42416013Y-104171611D01*
G37*
G04 #@! TD.AperFunction*
G04 #@! TA.AperFunction,ComponentPad*
G36*
X45553265Y-108872213D02*
G01*
X45638204Y-108884813D01*
X45721499Y-108905677D01*
X45802348Y-108934605D01*
X45879972Y-108971319D01*
X45953624Y-109015464D01*
X46022594Y-109066616D01*
X46086218Y-109124282D01*
X46143884Y-109187906D01*
X46195036Y-109256876D01*
X46239181Y-109330528D01*
X46275895Y-109408152D01*
X46304823Y-109489001D01*
X46325687Y-109572296D01*
X46338287Y-109657235D01*
X46342500Y-109743000D01*
X46342500Y-111493000D01*
X46338287Y-111578765D01*
X46325687Y-111663704D01*
X46304823Y-111746999D01*
X46275895Y-111827848D01*
X46239181Y-111905472D01*
X46195036Y-111979124D01*
X46143884Y-112048094D01*
X46086218Y-112111718D01*
X46022594Y-112169384D01*
X45953624Y-112220536D01*
X45879972Y-112264681D01*
X45802348Y-112301395D01*
X45721499Y-112330323D01*
X45638204Y-112351187D01*
X45553265Y-112363787D01*
X45467500Y-112368000D01*
X43717500Y-112368000D01*
X43631735Y-112363787D01*
X43546796Y-112351187D01*
X43463501Y-112330323D01*
X43382652Y-112301395D01*
X43305028Y-112264681D01*
X43231376Y-112220536D01*
X43162406Y-112169384D01*
X43098782Y-112111718D01*
X43041116Y-112048094D01*
X42989964Y-111979124D01*
X42945819Y-111905472D01*
X42909105Y-111827848D01*
X42880177Y-111746999D01*
X42859313Y-111663704D01*
X42846713Y-111578765D01*
X42842500Y-111493000D01*
X42842500Y-109743000D01*
X42846713Y-109657235D01*
X42859313Y-109572296D01*
X42880177Y-109489001D01*
X42909105Y-109408152D01*
X42945819Y-109330528D01*
X42989964Y-109256876D01*
X43041116Y-109187906D01*
X43098782Y-109124282D01*
X43162406Y-109066616D01*
X43231376Y-109015464D01*
X43305028Y-108971319D01*
X43382652Y-108934605D01*
X43463501Y-108905677D01*
X43546796Y-108884813D01*
X43631735Y-108872213D01*
X43717500Y-108868000D01*
X45467500Y-108868000D01*
X45553265Y-108872213D01*
G37*
G04 #@! TD.AperFunction*
D12*
X37846000Y-97263000D03*
D13*
X37846000Y-92263000D03*
X37846000Y-87263000D03*
X37846000Y-82263000D03*
X37846000Y-77263000D03*
X37846000Y-72263000D03*
D14*
X78740000Y-92837000D03*
D15*
X81280000Y-92837000D03*
D14*
X78740000Y-116840000D03*
D15*
X81280000Y-116840000D03*
X83820000Y-116840000D03*
X86360000Y-116840000D03*
X88900000Y-116840000D03*
X91440000Y-116840000D03*
X93980000Y-116840000D03*
X96520000Y-116840000D03*
X99060000Y-116840000D03*
X101600000Y-116840000D03*
D16*
X78533000Y-105537000D03*
D17*
X73533000Y-105537000D03*
X73723500Y-74358500D03*
D16*
X78723500Y-74358500D03*
D14*
X78740000Y-63119000D03*
D15*
X81280000Y-63119000D03*
X83820000Y-63119000D03*
X86360000Y-63119000D03*
X88900000Y-63119000D03*
X91440000Y-63119000D03*
X93980000Y-63119000D03*
X96520000Y-63119000D03*
X99060000Y-63119000D03*
X101600000Y-63119000D03*
D18*
X84836000Y-106680000D03*
X85852000Y-106680000D03*
X86868000Y-106680000D03*
X104648000Y-96964500D03*
X104711500Y-99631500D03*
X104711500Y-102298500D03*
X85217000Y-111125000D03*
X89789000Y-96329500D03*
X93853000Y-106934000D03*
X81826418Y-87236618D03*
X90297000Y-111125000D03*
X79311500Y-89408000D03*
X78422500Y-110363000D03*
X96012000Y-69088000D03*
X103568500Y-66357500D03*
X49022000Y-101092000D03*
X100393500Y-68326000D03*
X65405000Y-91249500D03*
X99187000Y-81788000D03*
X97536000Y-81788000D03*
X97536000Y-83439000D03*
X97536000Y-80137000D03*
X95885000Y-81851500D03*
X99187000Y-83439000D03*
X99187000Y-80137000D03*
X95885000Y-80137000D03*
X95885000Y-83439000D03*
X61976000Y-90678000D03*
X64389000Y-90678000D03*
X64389000Y-89027000D03*
X61976000Y-89027000D03*
X63246000Y-89789000D03*
X65405000Y-89789000D03*
X60960000Y-89789000D03*
X63246000Y-91313000D03*
X63246000Y-88201500D03*
X60960000Y-91313000D03*
X65405000Y-88201500D03*
X60960000Y-88201500D03*
X87947500Y-97129600D03*
X70358000Y-86677500D03*
X70358000Y-92837000D03*
X87376000Y-104394000D03*
X87947500Y-99123500D03*
X87947500Y-101346000D03*
X85534500Y-95377000D03*
X81534000Y-106362500D03*
X44704000Y-64516000D03*
X52832000Y-64516000D03*
X55626000Y-64516000D03*
X50165000Y-64516000D03*
X63754000Y-64516000D03*
X58293000Y-64516000D03*
X41910000Y-64516000D03*
X66548000Y-64516000D03*
X72009000Y-64516000D03*
X47371000Y-64516000D03*
X61087000Y-64516000D03*
X74676000Y-64516000D03*
X69215000Y-64516000D03*
X54229000Y-66167000D03*
X62484000Y-66167000D03*
X70612000Y-66167000D03*
X40640000Y-66167000D03*
X46101000Y-66167000D03*
X43307000Y-66167000D03*
X59690000Y-66167000D03*
X65151000Y-66167000D03*
X73406000Y-66167000D03*
X67945000Y-66167000D03*
X48768000Y-66167000D03*
X57023000Y-66167000D03*
X51562000Y-66167000D03*
X61722000Y-113792000D03*
X72644000Y-113792000D03*
X69977000Y-113792000D03*
X45339000Y-113792000D03*
X48133000Y-113792000D03*
X67183000Y-113792000D03*
X42672000Y-113792000D03*
X50800000Y-113792000D03*
X56261000Y-113792000D03*
X53594000Y-113792000D03*
X64516000Y-113792000D03*
X59055000Y-113792000D03*
X68580000Y-115443000D03*
X63119000Y-115443000D03*
X71247000Y-115443000D03*
X49403000Y-115443000D03*
X65786000Y-115443000D03*
X60325000Y-115443000D03*
X54864000Y-115443000D03*
X57658000Y-115443000D03*
X46736000Y-115443000D03*
X41275000Y-115443000D03*
X43942000Y-115443000D03*
X52197000Y-115443000D03*
X74930000Y-113665000D03*
X73914000Y-115443000D03*
X75501500Y-111823500D03*
X73088500Y-111950500D03*
X35433000Y-101219000D03*
X35433000Y-104013000D03*
X35433000Y-106934000D03*
X35433000Y-110109000D03*
X37147500Y-108458000D03*
X37020500Y-105473500D03*
X37084000Y-102552500D03*
X37465000Y-111506000D03*
X39052500Y-110172500D03*
X40894000Y-111887000D03*
X35433000Y-112395000D03*
X47815500Y-111760000D03*
X41910000Y-67818000D03*
X44704000Y-67818000D03*
X38989000Y-67945000D03*
X47498000Y-67945000D03*
X44767500Y-71120000D03*
X43053000Y-69786500D03*
X42037000Y-71628000D03*
X35306000Y-67818000D03*
X74676000Y-67691000D03*
X72771000Y-68580000D03*
X75882500Y-66103500D03*
X102870000Y-91503500D03*
X104965500Y-95059500D03*
X90106500Y-106934000D03*
X92075000Y-73152000D03*
X94297500Y-98615500D03*
X96900998Y-101409500D03*
X96583500Y-91313000D03*
X104457500Y-62674500D03*
X109982000Y-68072000D03*
X105473500Y-68008500D03*
X104330500Y-116903500D03*
X104394000Y-111125000D03*
X110045500Y-112014000D03*
X86931500Y-87947500D03*
X84772500Y-89916000D03*
X88709500Y-91122500D03*
X85280500Y-91567000D03*
X86931500Y-89852500D03*
X86931500Y-92519500D03*
X88900000Y-88963500D03*
X88836500Y-86169500D03*
X85534500Y-93853000D03*
X83629500Y-92900500D03*
X81089500Y-71183500D03*
X81534000Y-68643500D03*
X81978500Y-74612500D03*
X81915000Y-77343000D03*
X82232500Y-80137000D03*
X110109000Y-93281500D03*
X110109000Y-103441500D03*
X101092000Y-110998000D03*
X101155500Y-114363500D03*
X106489500Y-109728000D03*
X110172500Y-98107500D03*
X110172500Y-95758000D03*
X110172500Y-101028500D03*
X110045500Y-106489500D03*
X110045500Y-109029500D03*
X107696000Y-111252000D03*
X81724500Y-109156500D03*
X80899000Y-114554000D03*
X82359500Y-112966500D03*
X85090000Y-112839500D03*
X83883500Y-114681000D03*
X81534000Y-65976500D03*
X84836000Y-79946500D03*
X82232500Y-82613500D03*
X77978000Y-89027000D03*
X38989000Y-101155500D03*
X41402000Y-102933500D03*
X39751000Y-102679500D03*
X49911000Y-111760000D03*
X80899000Y-111442500D03*
X74612500Y-70104000D03*
X72707500Y-71310500D03*
X74676000Y-108331000D03*
X75692000Y-109156500D03*
X78676500Y-113220500D03*
X78613000Y-69977000D03*
X78613000Y-67056000D03*
X75819000Y-68834000D03*
X43561000Y-72580500D03*
X40767000Y-73025000D03*
X40322500Y-69786500D03*
X38608000Y-106934000D03*
X38608000Y-104140000D03*
X35242500Y-73025000D03*
X35242500Y-70358000D03*
X46101000Y-69596000D03*
X46418500Y-89789000D03*
X104203500Y-113347500D03*
X102425500Y-112458500D03*
X96075500Y-67500500D03*
X88328500Y-76263500D03*
X83375500Y-67310000D03*
X55054500Y-90551000D03*
X87249000Y-95313500D03*
X40132000Y-108648500D03*
X37211000Y-69024500D03*
X49911000Y-103124000D03*
X52133500Y-104394000D03*
X68834000Y-100330000D03*
X69977000Y-102616000D03*
X73342500Y-99700000D03*
X71755000Y-100901500D03*
X73660000Y-102171500D03*
X73977500Y-79883000D03*
X70675500Y-80899000D03*
X70358000Y-76835000D03*
X68834000Y-79248000D03*
X70866000Y-104711500D03*
X71120000Y-74549000D03*
X46799500Y-74739500D03*
X42481500Y-75247500D03*
X40195500Y-75120500D03*
X40703500Y-78676500D03*
X43116500Y-78359000D03*
X41084500Y-76898500D03*
X52514500Y-75247500D03*
X44831000Y-74993500D03*
X47498000Y-76390500D03*
X51562000Y-76644500D03*
X50863500Y-75057000D03*
X71818500Y-78676500D03*
X73787000Y-77343000D03*
X72263000Y-82359500D03*
X71882000Y-97409000D03*
X70294500Y-98806000D03*
X43180000Y-101219000D03*
X45656500Y-101473000D03*
X47561500Y-101727000D03*
X45720000Y-103251000D03*
X48006000Y-103060500D03*
X47434500Y-108712000D03*
X48895000Y-74930000D03*
X51879500Y-106045000D03*
X51625500Y-103060500D03*
X50546000Y-104838500D03*
X49593500Y-108712000D03*
X50673000Y-107188000D03*
X51943000Y-108267500D03*
X53403500Y-103060500D03*
X43434000Y-76644500D03*
X45529500Y-76644500D03*
X45339000Y-78168500D03*
X49657000Y-76327000D03*
X49022000Y-77787500D03*
X53721000Y-76898500D03*
X90170000Y-78867000D03*
X86931498Y-79629000D03*
X100647500Y-95250000D03*
X91757500Y-94615000D03*
X61849000Y-85471000D03*
X62484000Y-86487000D03*
X61341000Y-86487000D03*
X62484000Y-84582000D03*
X61341000Y-84582000D03*
X55308500Y-86042500D03*
X56515001Y-86438990D03*
X64643000Y-85471000D03*
X65151000Y-86487000D03*
X64008000Y-86487000D03*
X65151000Y-84582000D03*
X64008000Y-84582000D03*
X69850000Y-85788500D03*
X61849000Y-94107000D03*
X62484000Y-93091000D03*
X61341000Y-93091000D03*
X62484000Y-94996000D03*
X61341000Y-94996000D03*
X56515000Y-93726000D03*
X55689500Y-94551500D03*
X64643000Y-94107000D03*
X65151000Y-94996000D03*
X64008000Y-94996000D03*
X65151000Y-93091000D03*
X64008000Y-93091000D03*
X69850000Y-93726000D03*
X87902240Y-81470500D03*
X90170000Y-83947000D03*
X94170500Y-93789500D03*
X98043998Y-93281500D03*
X98806000Y-94043500D03*
X94932500Y-94549990D03*
X97102247Y-92945160D03*
X93219510Y-93345000D03*
X90932000Y-78105000D03*
X91249500Y-84010500D03*
X91694000Y-84963000D03*
X92136990Y-77914500D03*
X94107000Y-69024500D03*
X100012500Y-69850000D03*
X98996500Y-73279000D03*
X97091502Y-73279000D03*
X93027500Y-68961000D03*
X90932000Y-82677000D03*
X89725500Y-80327500D03*
X100363950Y-67153454D03*
X58039000Y-70739000D03*
X59372500Y-70739000D03*
X60706000Y-70739000D03*
X62039500Y-70739000D03*
X63373000Y-70739000D03*
X64706500Y-70739000D03*
X66040000Y-70739000D03*
X67373500Y-70739000D03*
X68707000Y-70739000D03*
X58737500Y-71501000D03*
X60071000Y-71501000D03*
X61404500Y-71501000D03*
X62738000Y-71501000D03*
X64071500Y-71501000D03*
X65405000Y-71501000D03*
X66738500Y-71501000D03*
X68072000Y-71501000D03*
X71437500Y-86677500D03*
X66167000Y-79692500D03*
X65405000Y-78930500D03*
X57340500Y-71501000D03*
X56642000Y-70739000D03*
X55943500Y-71501000D03*
X55626000Y-108013500D03*
X61023500Y-108013500D03*
X59690000Y-108013500D03*
X58356500Y-108013500D03*
X68389500Y-108775500D03*
X67056000Y-108775500D03*
X65722500Y-108775500D03*
X64389000Y-108775500D03*
X63055500Y-108775500D03*
X61722000Y-108775500D03*
X60388500Y-108775500D03*
X59055000Y-108775500D03*
X57721500Y-108775500D03*
X67691000Y-108013500D03*
X66357500Y-108013500D03*
X65024000Y-108013500D03*
X63690500Y-108013500D03*
X62357000Y-108013500D03*
X71437500Y-92837000D03*
X66103500Y-100139500D03*
X65405000Y-100838000D03*
X57023000Y-108013500D03*
X56324500Y-108775500D03*
X96710502Y-113792000D03*
D19*
X70358000Y-86677500D02*
X70358000Y-87820500D01*
X70358000Y-92837000D02*
X70358000Y-91567000D01*
D20*
X89408000Y-79629000D02*
X87497183Y-79629000D01*
X87497183Y-79629000D02*
X86931498Y-79629000D01*
X90170000Y-78867000D02*
X89408000Y-79629000D01*
X100081815Y-95250000D02*
X100647500Y-95250000D01*
X92392500Y-95250000D02*
X100081815Y-95250000D01*
X91757500Y-94615000D02*
X92392500Y-95250000D01*
X90170000Y-83738260D02*
X90170000Y-83947000D01*
X87902240Y-81470500D02*
X90170000Y-83738260D01*
X97535998Y-93789500D02*
X97643999Y-93681499D01*
X97643999Y-93681499D02*
X98043998Y-93281500D01*
X94170500Y-93789500D02*
X97535998Y-93789500D01*
X98806000Y-94043500D02*
X98299510Y-94549990D01*
X95498185Y-94549990D02*
X94932500Y-94549990D01*
X98299510Y-94549990D02*
X95498185Y-94549990D01*
X97102247Y-92945160D02*
X93619350Y-92945160D01*
X93619350Y-92945160D02*
X93219510Y-93345000D01*
X91649499Y-78822499D02*
X91649499Y-83610501D01*
X90932000Y-78105000D02*
X91649499Y-78822499D01*
X91649499Y-83610501D02*
X91249500Y-84010500D01*
X92136990Y-78480185D02*
X92136990Y-77914500D01*
X91694000Y-84963000D02*
X92136990Y-84520010D01*
X92136990Y-84520010D02*
X92136990Y-78480185D01*
X100012500Y-69850000D02*
X94932500Y-69850000D01*
X94932500Y-69850000D02*
X94107000Y-69024500D01*
X98996500Y-73279000D02*
X97091502Y-73279000D01*
X90932000Y-81534000D02*
X89725500Y-80327500D01*
X90932000Y-82677000D02*
X90932000Y-81534000D01*
X93027500Y-68961000D02*
X93726000Y-68262500D01*
X99963951Y-67553453D02*
X100363950Y-67153454D01*
X93726000Y-68262500D02*
X99254904Y-68262500D01*
X99254904Y-68262500D02*
X99963951Y-67553453D01*
D19*
X66566999Y-80092499D02*
X66167000Y-79692500D01*
X71437500Y-84963000D02*
X66566999Y-80092499D01*
X71437500Y-86677500D02*
X71437500Y-84963000D01*
X66167000Y-79692500D02*
X65405000Y-78930500D01*
X71437500Y-92837000D02*
X71437500Y-94805500D01*
X66503499Y-99739501D02*
X66103500Y-100139500D01*
X71437500Y-94805500D02*
X66503499Y-99739501D01*
X66103500Y-100139500D02*
X65405000Y-100838000D01*
D20*
X93980000Y-116840000D02*
X96710502Y-114109498D01*
X96710502Y-114109498D02*
X96710502Y-113792000D01*
D21*
G36*
X69660861Y-92625525D02*
G01*
X69633000Y-92765594D01*
X69633000Y-92908406D01*
X69660861Y-93048475D01*
X69715513Y-93180416D01*
X69794856Y-93299161D01*
X69895839Y-93400144D01*
X70014584Y-93479487D01*
X70146525Y-93534139D01*
X70286594Y-93562000D01*
X70429406Y-93562000D01*
X70569475Y-93534139D01*
X70701416Y-93479487D01*
X70820161Y-93400144D01*
X70897750Y-93322555D01*
X70912500Y-93337305D01*
X70912501Y-94588037D01*
X66150508Y-99350031D01*
X66150502Y-99350036D01*
X66086038Y-99414500D01*
X66032094Y-99414500D01*
X65892025Y-99442361D01*
X65760084Y-99497013D01*
X65641339Y-99576356D01*
X65540356Y-99677339D01*
X65461013Y-99796084D01*
X65406361Y-99928025D01*
X65378500Y-100068094D01*
X65378500Y-100113000D01*
X65333594Y-100113000D01*
X65193525Y-100140861D01*
X65061584Y-100195513D01*
X64942839Y-100274856D01*
X64841856Y-100375839D01*
X64762513Y-100494584D01*
X64707861Y-100626525D01*
X64680000Y-100766594D01*
X64680000Y-100909406D01*
X64707861Y-101049475D01*
X64762513Y-101181416D01*
X64841856Y-101300161D01*
X64942578Y-101400883D01*
X64009921Y-102312344D01*
X63899531Y-102349552D01*
X49516725Y-100561420D01*
X49484161Y-100528856D01*
X49365416Y-100449513D01*
X49233475Y-100394861D01*
X49093406Y-100367000D01*
X48950594Y-100367000D01*
X48810525Y-100394861D01*
X48678584Y-100449513D01*
X48668861Y-100456010D01*
X40540712Y-99445483D01*
X40533016Y-99444767D01*
X40508341Y-99443239D01*
X40500615Y-99443000D01*
X35530865Y-99443000D01*
X35460250Y-99413750D01*
X35431000Y-99343135D01*
X35431000Y-95157365D01*
X35460250Y-95086750D01*
X35530865Y-95057500D01*
X40625955Y-95057500D01*
X40640614Y-95058285D01*
X61249328Y-97270877D01*
X61273832Y-97271092D01*
X61295806Y-97267120D01*
X61437156Y-97228262D01*
X61460033Y-97219482D01*
X61479022Y-97207733D01*
X63368000Y-95791000D01*
X63386068Y-95774447D01*
X63404803Y-95746902D01*
X63484803Y-95586902D01*
X63493561Y-95564016D01*
X63498000Y-95531000D01*
X63498000Y-92680865D01*
X63527250Y-92610250D01*
X63597865Y-92581000D01*
X69679304Y-92581000D01*
X69660861Y-92625525D01*
G37*
X69660861Y-92625525D02*
X69633000Y-92765594D01*
X69633000Y-92908406D01*
X69660861Y-93048475D01*
X69715513Y-93180416D01*
X69794856Y-93299161D01*
X69895839Y-93400144D01*
X70014584Y-93479487D01*
X70146525Y-93534139D01*
X70286594Y-93562000D01*
X70429406Y-93562000D01*
X70569475Y-93534139D01*
X70701416Y-93479487D01*
X70820161Y-93400144D01*
X70897750Y-93322555D01*
X70912500Y-93337305D01*
X70912501Y-94588037D01*
X66150508Y-99350031D01*
X66150502Y-99350036D01*
X66086038Y-99414500D01*
X66032094Y-99414500D01*
X65892025Y-99442361D01*
X65760084Y-99497013D01*
X65641339Y-99576356D01*
X65540356Y-99677339D01*
X65461013Y-99796084D01*
X65406361Y-99928025D01*
X65378500Y-100068094D01*
X65378500Y-100113000D01*
X65333594Y-100113000D01*
X65193525Y-100140861D01*
X65061584Y-100195513D01*
X64942839Y-100274856D01*
X64841856Y-100375839D01*
X64762513Y-100494584D01*
X64707861Y-100626525D01*
X64680000Y-100766594D01*
X64680000Y-100909406D01*
X64707861Y-101049475D01*
X64762513Y-101181416D01*
X64841856Y-101300161D01*
X64942578Y-101400883D01*
X64009921Y-102312344D01*
X63899531Y-102349552D01*
X49516725Y-100561420D01*
X49484161Y-100528856D01*
X49365416Y-100449513D01*
X49233475Y-100394861D01*
X49093406Y-100367000D01*
X48950594Y-100367000D01*
X48810525Y-100394861D01*
X48678584Y-100449513D01*
X48668861Y-100456010D01*
X40540712Y-99445483D01*
X40533016Y-99444767D01*
X40508341Y-99443239D01*
X40500615Y-99443000D01*
X35530865Y-99443000D01*
X35460250Y-99413750D01*
X35431000Y-99343135D01*
X35431000Y-95157365D01*
X35460250Y-95086750D01*
X35530865Y-95057500D01*
X40625955Y-95057500D01*
X40640614Y-95058285D01*
X61249328Y-97270877D01*
X61273832Y-97271092D01*
X61295806Y-97267120D01*
X61437156Y-97228262D01*
X61460033Y-97219482D01*
X61479022Y-97207733D01*
X63368000Y-95791000D01*
X63386068Y-95774447D01*
X63404803Y-95746902D01*
X63484803Y-95586902D01*
X63493561Y-95564016D01*
X63498000Y-95531000D01*
X63498000Y-92680865D01*
X63527250Y-92610250D01*
X63597865Y-92581000D01*
X69679304Y-92581000D01*
X69660861Y-92625525D01*
G36*
X64010586Y-77516267D02*
G01*
X64933728Y-78376467D01*
X64841856Y-78468339D01*
X64762513Y-78587084D01*
X64707861Y-78719025D01*
X64680000Y-78859094D01*
X64680000Y-79001906D01*
X64707861Y-79141975D01*
X64762513Y-79273916D01*
X64841856Y-79392661D01*
X64942839Y-79493644D01*
X65061584Y-79572987D01*
X65193525Y-79627639D01*
X65333594Y-79655500D01*
X65387538Y-79655500D01*
X65442000Y-79709962D01*
X65442000Y-79763906D01*
X65469861Y-79903975D01*
X65524513Y-80035916D01*
X65603856Y-80154661D01*
X65704839Y-80255644D01*
X65823584Y-80334987D01*
X65955525Y-80389639D01*
X66095594Y-80417500D01*
X66149538Y-80417500D01*
X66214002Y-80481964D01*
X66214008Y-80481969D01*
X70912501Y-85180463D01*
X70912500Y-86177195D01*
X70897750Y-86191945D01*
X70820161Y-86114356D01*
X70701416Y-86035013D01*
X70569475Y-85980361D01*
X70429406Y-85952500D01*
X70286594Y-85952500D01*
X70146525Y-85980361D01*
X70014584Y-86035013D01*
X69895839Y-86114356D01*
X69794856Y-86215339D01*
X69715513Y-86334084D01*
X69660861Y-86466025D01*
X69633000Y-86606094D01*
X69633000Y-86748906D01*
X69660861Y-86888975D01*
X69705607Y-86997000D01*
X63597865Y-86997000D01*
X63527250Y-86967750D01*
X63498000Y-86897135D01*
X63498000Y-83925206D01*
X63495598Y-83900820D01*
X63483628Y-83867012D01*
X63396934Y-83702204D01*
X63383455Y-83681740D01*
X63357122Y-83657393D01*
X61472556Y-82361754D01*
X61451100Y-82349917D01*
X61432567Y-82343620D01*
X61298515Y-82309507D01*
X61274290Y-82305820D01*
X61254722Y-82306320D01*
X40640598Y-84456259D01*
X40626356Y-84457000D01*
X35530865Y-84457000D01*
X35460250Y-84427750D01*
X35431000Y-84357135D01*
X35431000Y-80298365D01*
X35460250Y-80227750D01*
X35530865Y-80198500D01*
X40628355Y-80198500D01*
X40635624Y-80198288D01*
X40658835Y-80196936D01*
X40666073Y-80196303D01*
X63903304Y-77481084D01*
X64010586Y-77516267D01*
G37*
X64010586Y-77516267D02*
X64933728Y-78376467D01*
X64841856Y-78468339D01*
X64762513Y-78587084D01*
X64707861Y-78719025D01*
X64680000Y-78859094D01*
X64680000Y-79001906D01*
X64707861Y-79141975D01*
X64762513Y-79273916D01*
X64841856Y-79392661D01*
X64942839Y-79493644D01*
X65061584Y-79572987D01*
X65193525Y-79627639D01*
X65333594Y-79655500D01*
X65387538Y-79655500D01*
X65442000Y-79709962D01*
X65442000Y-79763906D01*
X65469861Y-79903975D01*
X65524513Y-80035916D01*
X65603856Y-80154661D01*
X65704839Y-80255644D01*
X65823584Y-80334987D01*
X65955525Y-80389639D01*
X66095594Y-80417500D01*
X66149538Y-80417500D01*
X66214002Y-80481964D01*
X66214008Y-80481969D01*
X70912501Y-85180463D01*
X70912500Y-86177195D01*
X70897750Y-86191945D01*
X70820161Y-86114356D01*
X70701416Y-86035013D01*
X70569475Y-85980361D01*
X70429406Y-85952500D01*
X70286594Y-85952500D01*
X70146525Y-85980361D01*
X70014584Y-86035013D01*
X69895839Y-86114356D01*
X69794856Y-86215339D01*
X69715513Y-86334084D01*
X69660861Y-86466025D01*
X69633000Y-86606094D01*
X69633000Y-86748906D01*
X69660861Y-86888975D01*
X69705607Y-86997000D01*
X63597865Y-86997000D01*
X63527250Y-86967750D01*
X63498000Y-86897135D01*
X63498000Y-83925206D01*
X63495598Y-83900820D01*
X63483628Y-83867012D01*
X63396934Y-83702204D01*
X63383455Y-83681740D01*
X63357122Y-83657393D01*
X61472556Y-82361754D01*
X61451100Y-82349917D01*
X61432567Y-82343620D01*
X61298515Y-82309507D01*
X61274290Y-82305820D01*
X61254722Y-82306320D01*
X40640598Y-84456259D01*
X40626356Y-84457000D01*
X35530865Y-84457000D01*
X35460250Y-84427750D01*
X35431000Y-84357135D01*
X35431000Y-80298365D01*
X35460250Y-80227750D01*
X35530865Y-80198500D01*
X40628355Y-80198500D01*
X40635624Y-80198288D01*
X40658835Y-80196936D01*
X40666073Y-80196303D01*
X63903304Y-77481084D01*
X64010586Y-77516267D01*
G36*
X40640713Y-90105601D02*
G01*
X60550618Y-92641895D01*
X60558502Y-92642646D01*
X60583776Y-92644249D01*
X60591688Y-92644500D01*
X62894135Y-92644500D01*
X62964750Y-92673750D01*
X62994000Y-92744365D01*
X62994000Y-95437992D01*
X62940394Y-95545205D01*
X61348726Y-96738956D01*
X61252350Y-96765136D01*
X40665338Y-94428573D01*
X40658302Y-94427976D01*
X40635748Y-94426700D01*
X40628687Y-94426500D01*
X35530865Y-94426500D01*
X35460250Y-94397250D01*
X35431000Y-94326635D01*
X35431000Y-90204365D01*
X35460250Y-90133750D01*
X35530865Y-90104500D01*
X40623357Y-90104500D01*
X40640713Y-90105601D01*
G37*
X40640713Y-90105601D02*
X60550618Y-92641895D01*
X60558502Y-92642646D01*
X60583776Y-92644249D01*
X60591688Y-92644500D01*
X62894135Y-92644500D01*
X62964750Y-92673750D01*
X62994000Y-92744365D01*
X62994000Y-95437992D01*
X62940394Y-95545205D01*
X61348726Y-96738956D01*
X61252350Y-96765136D01*
X40665338Y-94428573D01*
X40658302Y-94427976D01*
X40635748Y-94426700D01*
X40628687Y-94426500D01*
X35530865Y-94426500D01*
X35460250Y-94397250D01*
X35431000Y-94326635D01*
X35431000Y-90204365D01*
X35460250Y-90133750D01*
X35530865Y-90104500D01*
X40623357Y-90104500D01*
X40640713Y-90105601D01*
G36*
X61286187Y-82898336D02*
G01*
X62936208Y-84036281D01*
X62994000Y-84146342D01*
X62994000Y-86897135D01*
X62964750Y-86967750D01*
X62894135Y-86997000D01*
X60591096Y-86997000D01*
X60583549Y-86997228D01*
X60559445Y-86998686D01*
X60551927Y-86999369D01*
X40704190Y-89408998D01*
X40687626Y-89410000D01*
X35530865Y-89410000D01*
X35460250Y-89380750D01*
X35431000Y-89310135D01*
X35431000Y-85187865D01*
X35460250Y-85117250D01*
X35530865Y-85088000D01*
X40692729Y-85088000D01*
X40699452Y-85087819D01*
X40720932Y-85086662D01*
X40727634Y-85086120D01*
X61194723Y-82875169D01*
X61286187Y-82898336D01*
G37*
X61286187Y-82898336D02*
X62936208Y-84036281D01*
X62994000Y-84146342D01*
X62994000Y-86897135D01*
X62964750Y-86967750D01*
X62894135Y-86997000D01*
X60591096Y-86997000D01*
X60583549Y-86997228D01*
X60559445Y-86998686D01*
X60551927Y-86999369D01*
X40704190Y-89408998D01*
X40687626Y-89410000D01*
X35530865Y-89410000D01*
X35460250Y-89380750D01*
X35431000Y-89310135D01*
X35431000Y-85187865D01*
X35460250Y-85117250D01*
X35530865Y-85088000D01*
X40692729Y-85088000D01*
X40699452Y-85087819D01*
X40720932Y-85086662D01*
X40727634Y-85086120D01*
X61194723Y-82875169D01*
X61286187Y-82898336D01*
G36*
X71219750Y-68988250D02*
G01*
X71249000Y-69058865D01*
X71249000Y-71847635D01*
X71219750Y-71918250D01*
X71149135Y-71947500D01*
X54419207Y-71947500D01*
X54348592Y-71918250D01*
X54329642Y-71872500D01*
X54358891Y-71801885D01*
X55719309Y-70441467D01*
X55734855Y-70422525D01*
X55746406Y-70400914D01*
X55804985Y-70259492D01*
X55812098Y-70236043D01*
X55814500Y-70211657D01*
X55814500Y-69058865D01*
X55843750Y-68988250D01*
X55914365Y-68959000D01*
X71149135Y-68959000D01*
X71219750Y-68988250D01*
G37*
X71219750Y-68988250D02*
X71249000Y-69058865D01*
X71249000Y-71847635D01*
X71219750Y-71918250D01*
X71149135Y-71947500D01*
X54419207Y-71947500D01*
X54348592Y-71918250D01*
X54329642Y-71872500D01*
X54358891Y-71801885D01*
X55719309Y-70441467D01*
X55734855Y-70422525D01*
X55746406Y-70400914D01*
X55804985Y-70259492D01*
X55812098Y-70236043D01*
X55814500Y-70211657D01*
X55814500Y-69058865D01*
X55843750Y-68988250D01*
X55914365Y-68959000D01*
X71149135Y-68959000D01*
X71219750Y-68988250D01*
G36*
X72079420Y-72714420D02*
G01*
X72001317Y-72809589D01*
X71943281Y-72918166D01*
X71907543Y-73035979D01*
X71895476Y-73158500D01*
X71898500Y-73327250D01*
X72054750Y-73483500D01*
X72848500Y-73483500D01*
X72848500Y-73463500D01*
X74598500Y-73463500D01*
X74598500Y-73483500D01*
X74618500Y-73483500D01*
X74618500Y-75233500D01*
X74598500Y-75233500D01*
X74598500Y-76027250D01*
X74754750Y-76183500D01*
X74923500Y-76186524D01*
X74995500Y-76179433D01*
X74995500Y-81352148D01*
X71947658Y-84156162D01*
X64221916Y-76681663D01*
X64202719Y-76666433D01*
X64180920Y-76655240D01*
X64157357Y-76648516D01*
X64132934Y-76646517D01*
X64120120Y-76647389D01*
X40823035Y-79440500D01*
X35431000Y-79440500D01*
X35431000Y-78976224D01*
X37370213Y-78976224D01*
X37539905Y-79172941D01*
X37918398Y-79195958D01*
X38152095Y-79172941D01*
X38321787Y-78976224D01*
X37846000Y-78500437D01*
X37370213Y-78976224D01*
X35431000Y-78976224D01*
X35431000Y-77335398D01*
X35913042Y-77335398D01*
X35936059Y-77569095D01*
X36132776Y-77738787D01*
X36608563Y-77263000D01*
X39083437Y-77263000D01*
X39559224Y-77738787D01*
X39755941Y-77569095D01*
X39778958Y-77190602D01*
X39755941Y-76956905D01*
X39559224Y-76787213D01*
X39083437Y-77263000D01*
X36608563Y-77263000D01*
X36132776Y-76787213D01*
X35936059Y-76956905D01*
X35913042Y-77335398D01*
X35431000Y-77335398D01*
X35431000Y-75549776D01*
X37370213Y-75549776D01*
X37846000Y-76025563D01*
X38313063Y-75558500D01*
X71895476Y-75558500D01*
X71907543Y-75681021D01*
X71943281Y-75798834D01*
X72001317Y-75907411D01*
X72079420Y-76002580D01*
X72174589Y-76080683D01*
X72283166Y-76138719D01*
X72400979Y-76174457D01*
X72523500Y-76186524D01*
X72692250Y-76183500D01*
X72848500Y-76027250D01*
X72848500Y-75233500D01*
X72054750Y-75233500D01*
X71898500Y-75389750D01*
X71895476Y-75558500D01*
X38313063Y-75558500D01*
X38321787Y-75549776D01*
X38152095Y-75353059D01*
X37773602Y-75330042D01*
X37539905Y-75353059D01*
X37370213Y-75549776D01*
X35431000Y-75549776D01*
X35431000Y-74483500D01*
X41338500Y-74483500D01*
X41356447Y-74482205D01*
X53603021Y-72705500D01*
X72090289Y-72705500D01*
X72079420Y-72714420D01*
G37*
X72079420Y-72714420D02*
X72001317Y-72809589D01*
X71943281Y-72918166D01*
X71907543Y-73035979D01*
X71895476Y-73158500D01*
X71898500Y-73327250D01*
X72054750Y-73483500D01*
X72848500Y-73483500D01*
X72848500Y-73463500D01*
X74598500Y-73463500D01*
X74598500Y-73483500D01*
X74618500Y-73483500D01*
X74618500Y-75233500D01*
X74598500Y-75233500D01*
X74598500Y-76027250D01*
X74754750Y-76183500D01*
X74923500Y-76186524D01*
X74995500Y-76179433D01*
X74995500Y-81352148D01*
X71947658Y-84156162D01*
X64221916Y-76681663D01*
X64202719Y-76666433D01*
X64180920Y-76655240D01*
X64157357Y-76648516D01*
X64132934Y-76646517D01*
X64120120Y-76647389D01*
X40823035Y-79440500D01*
X35431000Y-79440500D01*
X35431000Y-78976224D01*
X37370213Y-78976224D01*
X37539905Y-79172941D01*
X37918398Y-79195958D01*
X38152095Y-79172941D01*
X38321787Y-78976224D01*
X37846000Y-78500437D01*
X37370213Y-78976224D01*
X35431000Y-78976224D01*
X35431000Y-77335398D01*
X35913042Y-77335398D01*
X35936059Y-77569095D01*
X36132776Y-77738787D01*
X36608563Y-77263000D01*
X39083437Y-77263000D01*
X39559224Y-77738787D01*
X39755941Y-77569095D01*
X39778958Y-77190602D01*
X39755941Y-76956905D01*
X39559224Y-76787213D01*
X39083437Y-77263000D01*
X36608563Y-77263000D01*
X36132776Y-76787213D01*
X35936059Y-76956905D01*
X35913042Y-77335398D01*
X35431000Y-77335398D01*
X35431000Y-75549776D01*
X37370213Y-75549776D01*
X37846000Y-76025563D01*
X38313063Y-75558500D01*
X71895476Y-75558500D01*
X71907543Y-75681021D01*
X71943281Y-75798834D01*
X72001317Y-75907411D01*
X72079420Y-76002580D01*
X72174589Y-76080683D01*
X72283166Y-76138719D01*
X72400979Y-76174457D01*
X72523500Y-76186524D01*
X72692250Y-76183500D01*
X72848500Y-76027250D01*
X72848500Y-75233500D01*
X72054750Y-75233500D01*
X71898500Y-75389750D01*
X71895476Y-75558500D01*
X38313063Y-75558500D01*
X38321787Y-75549776D01*
X38152095Y-75353059D01*
X37773602Y-75330042D01*
X37539905Y-75353059D01*
X37370213Y-75549776D01*
X35431000Y-75549776D01*
X35431000Y-74483500D01*
X41338500Y-74483500D01*
X41356447Y-74482205D01*
X53603021Y-72705500D01*
X72090289Y-72705500D01*
X72079420Y-72714420D01*
G36*
X70965750Y-107596250D02*
G01*
X70995000Y-107666865D01*
X70995000Y-110460791D01*
X70965741Y-110531414D01*
X70895108Y-110560651D01*
X55088836Y-110555572D01*
X55018239Y-110526310D01*
X54989000Y-110455705D01*
X54989000Y-107666865D01*
X55018250Y-107596250D01*
X55088865Y-107567000D01*
X70895135Y-107567000D01*
X70965750Y-107596250D01*
G37*
X70965750Y-107596250D02*
X70995000Y-107666865D01*
X70995000Y-110460791D01*
X70965741Y-110531414D01*
X70895108Y-110560651D01*
X55088836Y-110555572D01*
X55018239Y-110526310D01*
X54989000Y-110455705D01*
X54989000Y-107666865D01*
X55018250Y-107596250D01*
X55088865Y-107567000D01*
X70895135Y-107567000D01*
X70965750Y-107596250D01*
G36*
X71887207Y-95685983D02*
G01*
X74765451Y-98564227D01*
X74805000Y-98659707D01*
X74805000Y-103716067D01*
X74733000Y-103708976D01*
X74564250Y-103712000D01*
X74408000Y-103868250D01*
X74408000Y-104662000D01*
X74428000Y-104662000D01*
X74428000Y-106412000D01*
X74408000Y-106412000D01*
X74408000Y-106432000D01*
X72658000Y-106432000D01*
X72658000Y-106412000D01*
X71864250Y-106412000D01*
X71708000Y-106568250D01*
X71704976Y-106737000D01*
X71717043Y-106859521D01*
X71740243Y-106936000D01*
X54556000Y-106936000D01*
X54531614Y-106938402D01*
X54508164Y-106945515D01*
X54366743Y-107004094D01*
X54345132Y-107015646D01*
X54326190Y-107031191D01*
X54310645Y-107050133D01*
X54299094Y-107071743D01*
X54240515Y-107213164D01*
X54233402Y-107236613D01*
X54231000Y-107261000D01*
X54231000Y-109376135D01*
X54201750Y-109446750D01*
X54131135Y-109476000D01*
X46688350Y-109476000D01*
X46624025Y-109263952D01*
X46508345Y-109047529D01*
X46352666Y-108857834D01*
X46162971Y-108702155D01*
X45946548Y-108586475D01*
X45711717Y-108515239D01*
X45467500Y-108491186D01*
X44956000Y-108491186D01*
X44956000Y-107668000D01*
X45214476Y-107668000D01*
X45226543Y-107790521D01*
X45262281Y-107908334D01*
X45320317Y-108016911D01*
X45398420Y-108112080D01*
X45493589Y-108190183D01*
X45602166Y-108248219D01*
X45719979Y-108283957D01*
X45842500Y-108296024D01*
X46561250Y-108293000D01*
X46717500Y-108136750D01*
X46717500Y-106793000D01*
X48467500Y-106793000D01*
X48467500Y-108136750D01*
X48623750Y-108293000D01*
X49342500Y-108296024D01*
X49465021Y-108283957D01*
X49582834Y-108248219D01*
X49691411Y-108190183D01*
X49786580Y-108112080D01*
X49864683Y-108016911D01*
X49922719Y-107908334D01*
X49958457Y-107790521D01*
X49970524Y-107668000D01*
X49967500Y-106949250D01*
X49811250Y-106793000D01*
X48467500Y-106793000D01*
X46717500Y-106793000D01*
X45373750Y-106793000D01*
X45217500Y-106949250D01*
X45214476Y-107668000D01*
X44956000Y-107668000D01*
X44956000Y-104168000D01*
X45214476Y-104168000D01*
X45217500Y-104886750D01*
X45373750Y-105043000D01*
X46717500Y-105043000D01*
X46717500Y-103699250D01*
X48467500Y-103699250D01*
X48467500Y-105043000D01*
X49811250Y-105043000D01*
X49967500Y-104886750D01*
X49969812Y-104337000D01*
X71704976Y-104337000D01*
X71708000Y-104505750D01*
X71864250Y-104662000D01*
X72658000Y-104662000D01*
X72658000Y-103868250D01*
X72501750Y-103712000D01*
X72333000Y-103708976D01*
X72210479Y-103721043D01*
X72092666Y-103756781D01*
X71984089Y-103814817D01*
X71888920Y-103892920D01*
X71810817Y-103988089D01*
X71752781Y-104096666D01*
X71717043Y-104214479D01*
X71704976Y-104337000D01*
X49969812Y-104337000D01*
X49970524Y-104168000D01*
X49958457Y-104045479D01*
X49922719Y-103927666D01*
X49864683Y-103819089D01*
X49786580Y-103723920D01*
X49691411Y-103645817D01*
X49582834Y-103587781D01*
X49465021Y-103552043D01*
X49342500Y-103539976D01*
X48623750Y-103543000D01*
X48467500Y-103699250D01*
X46717500Y-103699250D01*
X46561250Y-103543000D01*
X45842500Y-103539976D01*
X45719979Y-103552043D01*
X45602166Y-103587781D01*
X45493589Y-103645817D01*
X45398420Y-103723920D01*
X45320317Y-103819089D01*
X45262281Y-103927666D01*
X45226543Y-104045479D01*
X45214476Y-104168000D01*
X44956000Y-104168000D01*
X44956000Y-104037799D01*
X44953598Y-104013413D01*
X44945351Y-103987313D01*
X44880102Y-103839522D01*
X44868056Y-103818184D01*
X44849970Y-103797639D01*
X41081325Y-100361522D01*
X41049080Y-100287461D01*
X41070611Y-100240658D01*
X41147829Y-100216952D01*
X48247000Y-101094807D01*
X48247000Y-101168331D01*
X48276783Y-101318059D01*
X48335204Y-101459100D01*
X48420018Y-101586034D01*
X48527966Y-101693982D01*
X48654900Y-101778796D01*
X48795941Y-101837217D01*
X48945669Y-101867000D01*
X49098331Y-101867000D01*
X49248059Y-101837217D01*
X49389100Y-101778796D01*
X49516034Y-101693982D01*
X49623982Y-101586034D01*
X49708796Y-101459100D01*
X49767217Y-101318059D01*
X49774064Y-101283637D01*
X64024283Y-103045761D01*
X64048780Y-103046370D01*
X64079526Y-103040166D01*
X64243706Y-102984863D01*
X64266049Y-102974802D01*
X64291075Y-102955894D01*
X65748557Y-101534548D01*
X65772100Y-101524796D01*
X65899034Y-101439982D01*
X66006982Y-101332034D01*
X66091796Y-101205100D01*
X66095466Y-101196240D01*
X66483989Y-100817350D01*
X66597534Y-100741482D01*
X66705482Y-100633534D01*
X66767210Y-100541151D01*
X71746719Y-95685101D01*
X71817143Y-95656704D01*
X71887207Y-95685983D01*
G37*
X71887207Y-95685983D02*
X74765451Y-98564227D01*
X74805000Y-98659707D01*
X74805000Y-103716067D01*
X74733000Y-103708976D01*
X74564250Y-103712000D01*
X74408000Y-103868250D01*
X74408000Y-104662000D01*
X74428000Y-104662000D01*
X74428000Y-106412000D01*
X74408000Y-106412000D01*
X74408000Y-106432000D01*
X72658000Y-106432000D01*
X72658000Y-106412000D01*
X71864250Y-106412000D01*
X71708000Y-106568250D01*
X71704976Y-106737000D01*
X71717043Y-106859521D01*
X71740243Y-106936000D01*
X54556000Y-106936000D01*
X54531614Y-106938402D01*
X54508164Y-106945515D01*
X54366743Y-107004094D01*
X54345132Y-107015646D01*
X54326190Y-107031191D01*
X54310645Y-107050133D01*
X54299094Y-107071743D01*
X54240515Y-107213164D01*
X54233402Y-107236613D01*
X54231000Y-107261000D01*
X54231000Y-109376135D01*
X54201750Y-109446750D01*
X54131135Y-109476000D01*
X46688350Y-109476000D01*
X46624025Y-109263952D01*
X46508345Y-109047529D01*
X46352666Y-108857834D01*
X46162971Y-108702155D01*
X45946548Y-108586475D01*
X45711717Y-108515239D01*
X45467500Y-108491186D01*
X44956000Y-108491186D01*
X44956000Y-107668000D01*
X45214476Y-107668000D01*
X45226543Y-107790521D01*
X45262281Y-107908334D01*
X45320317Y-108016911D01*
X45398420Y-108112080D01*
X45493589Y-108190183D01*
X45602166Y-108248219D01*
X45719979Y-108283957D01*
X45842500Y-108296024D01*
X46561250Y-108293000D01*
X46717500Y-108136750D01*
X46717500Y-106793000D01*
X48467500Y-106793000D01*
X48467500Y-108136750D01*
X48623750Y-108293000D01*
X49342500Y-108296024D01*
X49465021Y-108283957D01*
X49582834Y-108248219D01*
X49691411Y-108190183D01*
X49786580Y-108112080D01*
X49864683Y-108016911D01*
X49922719Y-107908334D01*
X49958457Y-107790521D01*
X49970524Y-107668000D01*
X49967500Y-106949250D01*
X49811250Y-106793000D01*
X48467500Y-106793000D01*
X46717500Y-106793000D01*
X45373750Y-106793000D01*
X45217500Y-106949250D01*
X45214476Y-107668000D01*
X44956000Y-107668000D01*
X44956000Y-104168000D01*
X45214476Y-104168000D01*
X45217500Y-104886750D01*
X45373750Y-105043000D01*
X46717500Y-105043000D01*
X46717500Y-103699250D01*
X48467500Y-103699250D01*
X48467500Y-105043000D01*
X49811250Y-105043000D01*
X49967500Y-104886750D01*
X49969812Y-104337000D01*
X71704976Y-104337000D01*
X71708000Y-104505750D01*
X71864250Y-104662000D01*
X72658000Y-104662000D01*
X72658000Y-103868250D01*
X72501750Y-103712000D01*
X72333000Y-103708976D01*
X72210479Y-103721043D01*
X72092666Y-103756781D01*
X71984089Y-103814817D01*
X71888920Y-103892920D01*
X71810817Y-103988089D01*
X71752781Y-104096666D01*
X71717043Y-104214479D01*
X71704976Y-104337000D01*
X49969812Y-104337000D01*
X49970524Y-104168000D01*
X49958457Y-104045479D01*
X49922719Y-103927666D01*
X49864683Y-103819089D01*
X49786580Y-103723920D01*
X49691411Y-103645817D01*
X49582834Y-103587781D01*
X49465021Y-103552043D01*
X49342500Y-103539976D01*
X48623750Y-103543000D01*
X48467500Y-103699250D01*
X46717500Y-103699250D01*
X46561250Y-103543000D01*
X45842500Y-103539976D01*
X45719979Y-103552043D01*
X45602166Y-103587781D01*
X45493589Y-103645817D01*
X45398420Y-103723920D01*
X45320317Y-103819089D01*
X45262281Y-103927666D01*
X45226543Y-104045479D01*
X45214476Y-104168000D01*
X44956000Y-104168000D01*
X44956000Y-104037799D01*
X44953598Y-104013413D01*
X44945351Y-103987313D01*
X44880102Y-103839522D01*
X44868056Y-103818184D01*
X44849970Y-103797639D01*
X41081325Y-100361522D01*
X41049080Y-100287461D01*
X41070611Y-100240658D01*
X41147829Y-100216952D01*
X48247000Y-101094807D01*
X48247000Y-101168331D01*
X48276783Y-101318059D01*
X48335204Y-101459100D01*
X48420018Y-101586034D01*
X48527966Y-101693982D01*
X48654900Y-101778796D01*
X48795941Y-101837217D01*
X48945669Y-101867000D01*
X49098331Y-101867000D01*
X49248059Y-101837217D01*
X49389100Y-101778796D01*
X49516034Y-101693982D01*
X49623982Y-101586034D01*
X49708796Y-101459100D01*
X49767217Y-101318059D01*
X49774064Y-101283637D01*
X64024283Y-103045761D01*
X64048780Y-103046370D01*
X64079526Y-103040166D01*
X64243706Y-102984863D01*
X64266049Y-102974802D01*
X64291075Y-102955894D01*
X65748557Y-101534548D01*
X65772100Y-101524796D01*
X65899034Y-101439982D01*
X66006982Y-101332034D01*
X66091796Y-101205100D01*
X66095466Y-101196240D01*
X66483989Y-100817350D01*
X66597534Y-100741482D01*
X66705482Y-100633534D01*
X66767210Y-100541151D01*
X71746719Y-95685101D01*
X71817143Y-95656704D01*
X71887207Y-95685983D01*
G36*
X77274043Y-62146479D02*
G01*
X77261976Y-62269000D01*
X77261976Y-63969000D01*
X77274043Y-64091521D01*
X77309781Y-64209334D01*
X77367817Y-64317911D01*
X77445920Y-64413080D01*
X77541089Y-64491183D01*
X77649666Y-64549219D01*
X77767479Y-64584957D01*
X77890000Y-64597024D01*
X79590000Y-64597024D01*
X79712521Y-64584957D01*
X79830334Y-64549219D01*
X79938911Y-64491183D01*
X80034080Y-64413080D01*
X80112183Y-64317911D01*
X80170219Y-64209334D01*
X80199379Y-64113205D01*
X80325777Y-64243795D01*
X80362982Y-64274293D01*
X80555000Y-64220579D01*
X80555000Y-63844000D01*
X80430000Y-63844000D01*
X80430000Y-62394000D01*
X80555000Y-62394000D01*
X80555000Y-62269000D01*
X82005000Y-62269000D01*
X82005000Y-62394000D01*
X82130000Y-62394000D01*
X82130000Y-63844000D01*
X82005000Y-63844000D01*
X82005000Y-64220579D01*
X82197018Y-64274293D01*
X82234223Y-64243795D01*
X82435325Y-64036023D01*
X82429412Y-63994002D01*
X82630690Y-63994002D01*
X82674293Y-64059258D01*
X82879742Y-64264707D01*
X83121325Y-64426128D01*
X83389758Y-64537317D01*
X83674725Y-64594000D01*
X83965275Y-64594000D01*
X84250242Y-64537317D01*
X84518675Y-64426128D01*
X84760258Y-64264707D01*
X84965707Y-64059258D01*
X85090000Y-63873241D01*
X85214293Y-64059258D01*
X85419742Y-64264707D01*
X85661325Y-64426128D01*
X85929758Y-64537317D01*
X86214725Y-64594000D01*
X86505275Y-64594000D01*
X86790242Y-64537317D01*
X87058675Y-64426128D01*
X87300258Y-64264707D01*
X87505707Y-64059258D01*
X87630000Y-63873241D01*
X87754293Y-64059258D01*
X87959742Y-64264707D01*
X88201325Y-64426128D01*
X88469758Y-64537317D01*
X88754725Y-64594000D01*
X89045275Y-64594000D01*
X89330242Y-64537317D01*
X89598675Y-64426128D01*
X89840258Y-64264707D01*
X90045707Y-64059258D01*
X90170000Y-63873241D01*
X90294293Y-64059258D01*
X90499742Y-64264707D01*
X90741325Y-64426128D01*
X91009758Y-64537317D01*
X91294725Y-64594000D01*
X91585275Y-64594000D01*
X91870242Y-64537317D01*
X92138675Y-64426128D01*
X92380258Y-64264707D01*
X92585707Y-64059258D01*
X92710000Y-63873241D01*
X92834293Y-64059258D01*
X93039742Y-64264707D01*
X93281325Y-64426128D01*
X93549758Y-64537317D01*
X93834725Y-64594000D01*
X94125275Y-64594000D01*
X94410242Y-64537317D01*
X94678675Y-64426128D01*
X94920258Y-64264707D01*
X95125707Y-64059258D01*
X95250000Y-63873241D01*
X95374293Y-64059258D01*
X95579742Y-64264707D01*
X95821325Y-64426128D01*
X96089758Y-64537317D01*
X96374725Y-64594000D01*
X96665275Y-64594000D01*
X96950242Y-64537317D01*
X97218675Y-64426128D01*
X97460258Y-64264707D01*
X97665707Y-64059258D01*
X97790000Y-63873241D01*
X97914293Y-64059258D01*
X98119742Y-64264707D01*
X98361325Y-64426128D01*
X98629758Y-64537317D01*
X98914725Y-64594000D01*
X99205275Y-64594000D01*
X99490242Y-64537317D01*
X99758675Y-64426128D01*
X100000258Y-64264707D01*
X100205707Y-64059258D01*
X100330000Y-63873241D01*
X100454293Y-64059258D01*
X100659742Y-64264707D01*
X100901325Y-64426128D01*
X101169758Y-64537317D01*
X101454725Y-64594000D01*
X101745275Y-64594000D01*
X102030242Y-64537317D01*
X102298675Y-64426128D01*
X102540258Y-64264707D01*
X102745707Y-64059258D01*
X102907128Y-63817675D01*
X103018317Y-63549242D01*
X103075000Y-63264275D01*
X103075000Y-62973725D01*
X103018317Y-62688758D01*
X102907128Y-62420325D01*
X102745707Y-62178742D01*
X102607965Y-62041000D01*
X109184051Y-62041000D01*
X110679000Y-63535950D01*
X110679000Y-69090000D01*
X104095843Y-69090000D01*
X104071457Y-69092402D01*
X104048008Y-69099515D01*
X103906586Y-69158094D01*
X103884975Y-69169645D01*
X103866033Y-69185191D01*
X103475191Y-69576033D01*
X103459645Y-69594975D01*
X103448094Y-69616586D01*
X103389515Y-69758008D01*
X103382402Y-69781457D01*
X103380000Y-69805843D01*
X103380000Y-91484157D01*
X103382402Y-91508543D01*
X103389515Y-91531992D01*
X103448094Y-91673414D01*
X103459645Y-91695025D01*
X103475191Y-91713967D01*
X103866033Y-92104809D01*
X103884975Y-92120355D01*
X103906586Y-92131906D01*
X104048008Y-92190485D01*
X104071457Y-92197598D01*
X104095843Y-92200000D01*
X110679001Y-92200000D01*
X110679001Y-116423049D01*
X109184051Y-117918000D01*
X102607965Y-117918000D01*
X102745707Y-117780258D01*
X102907128Y-117538675D01*
X103018317Y-117270242D01*
X103075000Y-116985275D01*
X103075000Y-116694725D01*
X103018317Y-116409758D01*
X102907128Y-116141325D01*
X102745707Y-115899742D01*
X102540258Y-115694293D01*
X102298675Y-115532872D01*
X102030242Y-115421683D01*
X101745275Y-115365000D01*
X101454725Y-115365000D01*
X101169758Y-115421683D01*
X100901325Y-115532872D01*
X100659742Y-115694293D01*
X100454293Y-115899742D01*
X100330000Y-116085759D01*
X100205707Y-115899742D01*
X100000258Y-115694293D01*
X99758675Y-115532872D01*
X99490242Y-115421683D01*
X99205275Y-115365000D01*
X98914725Y-115365000D01*
X98629758Y-115421683D01*
X98361325Y-115532872D01*
X98119742Y-115694293D01*
X97914293Y-115899742D01*
X97790000Y-116085759D01*
X97665707Y-115899742D01*
X97460258Y-115694293D01*
X97218675Y-115532872D01*
X96950242Y-115421683D01*
X96665275Y-115365000D01*
X96480305Y-115365000D01*
X97064448Y-114780857D01*
X105519500Y-114780857D01*
X105519500Y-115219143D01*
X105605005Y-115649009D01*
X105772730Y-116053933D01*
X106016230Y-116418355D01*
X106326145Y-116728270D01*
X106690567Y-116971770D01*
X107095491Y-117139495D01*
X107525357Y-117225000D01*
X107963643Y-117225000D01*
X108393509Y-117139495D01*
X108798433Y-116971770D01*
X109162855Y-116728270D01*
X109472770Y-116418355D01*
X109716270Y-116053933D01*
X109883995Y-115649009D01*
X109969500Y-115219143D01*
X109969500Y-114780857D01*
X109883995Y-114350991D01*
X109716270Y-113946067D01*
X109472770Y-113581645D01*
X109162855Y-113271730D01*
X108798433Y-113028230D01*
X108393509Y-112860505D01*
X107963643Y-112775000D01*
X107525357Y-112775000D01*
X107095491Y-112860505D01*
X106690567Y-113028230D01*
X106326145Y-113271730D01*
X106016230Y-113581645D01*
X105772730Y-113946067D01*
X105605005Y-114350991D01*
X105519500Y-114780857D01*
X97064448Y-114780857D01*
X97108856Y-114736449D01*
X97196022Y-114700344D01*
X97363902Y-114588170D01*
X97506672Y-114445400D01*
X97618846Y-114277520D01*
X97696112Y-114090982D01*
X97735502Y-113892954D01*
X97735502Y-113691046D01*
X97696112Y-113493018D01*
X97618846Y-113306480D01*
X97506672Y-113138600D01*
X97363902Y-112995830D01*
X97196022Y-112883656D01*
X97009484Y-112806390D01*
X96811456Y-112767000D01*
X96609548Y-112767000D01*
X96411520Y-112806390D01*
X96224982Y-112883656D01*
X96057102Y-112995830D01*
X95914332Y-113138600D01*
X95802158Y-113306480D01*
X95724892Y-113493018D01*
X95685502Y-113691046D01*
X95685502Y-113892954D01*
X95721378Y-114073317D01*
X94379189Y-115415506D01*
X94125275Y-115365000D01*
X93834725Y-115365000D01*
X93549758Y-115421683D01*
X93281325Y-115532872D01*
X93039742Y-115694293D01*
X92834293Y-115899742D01*
X92710000Y-116085759D01*
X92585707Y-115899742D01*
X92380258Y-115694293D01*
X92138675Y-115532872D01*
X91870242Y-115421683D01*
X91585275Y-115365000D01*
X91294725Y-115365000D01*
X91009758Y-115421683D01*
X90741325Y-115532872D01*
X90499742Y-115694293D01*
X90294293Y-115899742D01*
X90170000Y-116085759D01*
X90045707Y-115899742D01*
X89840258Y-115694293D01*
X89598675Y-115532872D01*
X89330242Y-115421683D01*
X89045275Y-115365000D01*
X88754725Y-115365000D01*
X88469758Y-115421683D01*
X88201325Y-115532872D01*
X87959742Y-115694293D01*
X87754293Y-115899742D01*
X87630000Y-116085759D01*
X87505707Y-115899742D01*
X87300258Y-115694293D01*
X87058675Y-115532872D01*
X86790242Y-115421683D01*
X86505275Y-115365000D01*
X86214725Y-115365000D01*
X85929758Y-115421683D01*
X85661325Y-115532872D01*
X85419742Y-115694293D01*
X85214293Y-115899742D01*
X85090000Y-116085759D01*
X84965707Y-115899742D01*
X84760258Y-115694293D01*
X84518675Y-115532872D01*
X84250242Y-115421683D01*
X83965275Y-115365000D01*
X83674725Y-115365000D01*
X83389758Y-115421683D01*
X83121325Y-115532872D01*
X82879742Y-115694293D01*
X82674293Y-115899742D01*
X82630690Y-115964998D01*
X82429412Y-115964998D01*
X82435325Y-115922977D01*
X82234223Y-115715205D01*
X82197018Y-115684707D01*
X82005000Y-115738421D01*
X82005000Y-116115000D01*
X82130000Y-116115000D01*
X82130000Y-117565000D01*
X82005000Y-117565000D01*
X82005000Y-117690000D01*
X80555000Y-117690000D01*
X80555000Y-117565000D01*
X80430000Y-117565000D01*
X80430000Y-116115000D01*
X80555000Y-116115000D01*
X80555000Y-115738421D01*
X80362982Y-115684707D01*
X80325777Y-115715205D01*
X80199379Y-115845795D01*
X80170219Y-115749666D01*
X80112183Y-115641089D01*
X80034080Y-115545920D01*
X79938911Y-115467817D01*
X79830334Y-115409781D01*
X79712521Y-115374043D01*
X79590000Y-115361976D01*
X77890000Y-115361976D01*
X77767479Y-115374043D01*
X77649666Y-115409781D01*
X77541089Y-115467817D01*
X77445920Y-115545920D01*
X77367817Y-115641089D01*
X77309781Y-115749666D01*
X77274043Y-115867479D01*
X77261976Y-115990000D01*
X77261976Y-117690000D01*
X77274043Y-117812521D01*
X77306040Y-117918000D01*
X35976950Y-117918000D01*
X34482000Y-116423051D01*
X34482000Y-114780857D01*
X35188000Y-114780857D01*
X35188000Y-115219143D01*
X35273505Y-115649009D01*
X35441230Y-116053933D01*
X35684730Y-116418355D01*
X35994645Y-116728270D01*
X36359067Y-116971770D01*
X36763991Y-117139495D01*
X37193857Y-117225000D01*
X37632143Y-117225000D01*
X38062009Y-117139495D01*
X38466933Y-116971770D01*
X38831355Y-116728270D01*
X39141270Y-116418355D01*
X39384770Y-116053933D01*
X39552495Y-115649009D01*
X39638000Y-115219143D01*
X39638000Y-114780857D01*
X39552495Y-114350991D01*
X39384770Y-113946067D01*
X39141270Y-113581645D01*
X38831355Y-113271730D01*
X38466933Y-113028230D01*
X38062009Y-112860505D01*
X37632143Y-112775000D01*
X37193857Y-112775000D01*
X36763991Y-112860505D01*
X36359067Y-113028230D01*
X35994645Y-113271730D01*
X35684730Y-113581645D01*
X35441230Y-113946067D01*
X35273505Y-114350991D01*
X35188000Y-114780857D01*
X34482000Y-114780857D01*
X34482000Y-107668000D01*
X39464476Y-107668000D01*
X39476543Y-107790521D01*
X39512281Y-107908334D01*
X39570317Y-108016911D01*
X39648420Y-108112080D01*
X39743589Y-108190183D01*
X39852166Y-108248219D01*
X39969979Y-108283957D01*
X40092500Y-108296024D01*
X40561250Y-108293000D01*
X40717500Y-108136750D01*
X40717500Y-106793000D01*
X42467500Y-106793000D01*
X42467500Y-108136750D01*
X42623750Y-108293000D01*
X43092500Y-108296024D01*
X43215021Y-108283957D01*
X43332834Y-108248219D01*
X43441411Y-108190183D01*
X43536580Y-108112080D01*
X43614683Y-108016911D01*
X43672719Y-107908334D01*
X43708457Y-107790521D01*
X43720524Y-107668000D01*
X43717500Y-106949250D01*
X43561250Y-106793000D01*
X42467500Y-106793000D01*
X40717500Y-106793000D01*
X39623750Y-106793000D01*
X39467500Y-106949250D01*
X39464476Y-107668000D01*
X34482000Y-107668000D01*
X34482000Y-104168000D01*
X39464476Y-104168000D01*
X39467500Y-104886750D01*
X39623750Y-105043000D01*
X40717500Y-105043000D01*
X40717500Y-103699250D01*
X40561250Y-103543000D01*
X40092500Y-103539976D01*
X39969979Y-103552043D01*
X39852166Y-103587781D01*
X39743589Y-103645817D01*
X39648420Y-103723920D01*
X39570317Y-103819089D01*
X39512281Y-103927666D01*
X39476543Y-104045479D01*
X39464476Y-104168000D01*
X34482000Y-104168000D01*
X34482000Y-100264500D01*
X39774671Y-100264500D01*
X39867428Y-100301333D01*
X43379523Y-103612737D01*
X43332834Y-103587781D01*
X43215021Y-103552043D01*
X43092500Y-103539976D01*
X42623750Y-103543000D01*
X42467500Y-103699250D01*
X42467500Y-105043000D01*
X43561250Y-105043000D01*
X43717500Y-104886750D01*
X43720524Y-104168000D01*
X43708457Y-104045479D01*
X43672719Y-103927666D01*
X43631246Y-103850076D01*
X44155665Y-104344528D01*
X44198000Y-104442629D01*
X44198000Y-108239976D01*
X43717500Y-108239976D01*
X43424275Y-108268856D01*
X43142318Y-108354387D01*
X42882465Y-108493281D01*
X42654702Y-108680202D01*
X42467781Y-108907965D01*
X42328887Y-109167818D01*
X42243356Y-109449775D01*
X42214476Y-109743000D01*
X42214476Y-111493000D01*
X42243356Y-111786225D01*
X42328887Y-112068182D01*
X42467781Y-112328035D01*
X42654702Y-112555798D01*
X42882465Y-112742719D01*
X43142318Y-112881613D01*
X43424275Y-112967144D01*
X43717500Y-112996024D01*
X45467500Y-112996024D01*
X45760725Y-112967144D01*
X46042682Y-112881613D01*
X46302535Y-112742719D01*
X46530298Y-112555798D01*
X46717219Y-112328035D01*
X46856113Y-112068182D01*
X46941644Y-111786225D01*
X46970524Y-111493000D01*
X46970524Y-110234000D01*
X54131135Y-110234000D01*
X54201750Y-110263250D01*
X54231000Y-110333865D01*
X54231000Y-112258500D01*
X54233402Y-112282886D01*
X54240515Y-112306336D01*
X54299094Y-112447757D01*
X54310646Y-112469368D01*
X54326191Y-112488310D01*
X54345133Y-112503855D01*
X54366743Y-112515406D01*
X54508164Y-112573985D01*
X54531613Y-112581098D01*
X54556000Y-112583500D01*
X55489500Y-112583500D01*
X55513886Y-112581098D01*
X55537336Y-112573985D01*
X55678757Y-112515406D01*
X55700368Y-112503854D01*
X55719310Y-112488309D01*
X55734855Y-112469367D01*
X55746406Y-112447757D01*
X55804985Y-112306336D01*
X55812098Y-112282887D01*
X55814500Y-112258500D01*
X55814500Y-111921365D01*
X55843750Y-111850750D01*
X55914365Y-111821500D01*
X57750635Y-111821500D01*
X57821250Y-111850750D01*
X57850500Y-111921365D01*
X57850500Y-112258500D01*
X57852902Y-112282886D01*
X57860015Y-112306336D01*
X57918594Y-112447757D01*
X57930146Y-112469368D01*
X57945691Y-112488310D01*
X57964633Y-112503855D01*
X57986243Y-112515406D01*
X58127664Y-112573985D01*
X58151113Y-112581098D01*
X58175500Y-112583500D01*
X59426500Y-112583500D01*
X59450886Y-112581098D01*
X59474336Y-112573985D01*
X59615757Y-112515406D01*
X59637368Y-112503854D01*
X59656310Y-112488309D01*
X59671855Y-112469367D01*
X59683406Y-112447757D01*
X59741985Y-112306336D01*
X59749098Y-112282887D01*
X59751500Y-112258500D01*
X59751500Y-111921365D01*
X59780750Y-111850750D01*
X59851365Y-111821500D01*
X61878135Y-111821500D01*
X61948750Y-111850750D01*
X61978000Y-111921365D01*
X61978000Y-112258500D01*
X61980402Y-112282886D01*
X61987515Y-112306336D01*
X62046094Y-112447757D01*
X62057646Y-112469368D01*
X62073191Y-112488310D01*
X62092133Y-112503855D01*
X62113743Y-112515406D01*
X62255164Y-112573985D01*
X62278613Y-112581098D01*
X62303000Y-112583500D01*
X63935000Y-112583500D01*
X63959386Y-112581098D01*
X63982836Y-112573985D01*
X64124257Y-112515406D01*
X64145868Y-112503854D01*
X64164810Y-112488309D01*
X64180355Y-112469367D01*
X64191906Y-112447757D01*
X64250485Y-112306336D01*
X64257598Y-112282887D01*
X64260000Y-112258500D01*
X64260000Y-111921365D01*
X64289250Y-111850750D01*
X64359865Y-111821500D01*
X66259635Y-111821500D01*
X66330250Y-111850750D01*
X66359500Y-111921365D01*
X66359500Y-112258500D01*
X66361902Y-112282886D01*
X66369015Y-112306336D01*
X66427594Y-112447757D01*
X66439146Y-112469368D01*
X66454691Y-112488310D01*
X66473633Y-112503855D01*
X66495243Y-112515406D01*
X66636664Y-112573985D01*
X66660113Y-112581098D01*
X66684500Y-112583500D01*
X67999000Y-112583500D01*
X68023386Y-112581098D01*
X68046836Y-112573985D01*
X68188257Y-112515406D01*
X68209868Y-112503854D01*
X68228810Y-112488309D01*
X68244355Y-112469367D01*
X68255906Y-112447757D01*
X68314485Y-112306336D01*
X68321598Y-112282887D01*
X68324000Y-112258500D01*
X68324000Y-111921365D01*
X68353250Y-111850750D01*
X68423865Y-111821500D01*
X70450635Y-111821500D01*
X70521250Y-111850750D01*
X70550500Y-111921365D01*
X70550500Y-112258500D01*
X70552902Y-112282886D01*
X70560015Y-112306336D01*
X70618594Y-112447757D01*
X70630146Y-112469368D01*
X70645691Y-112488310D01*
X70664633Y-112503855D01*
X70686243Y-112515406D01*
X70827664Y-112573985D01*
X70851113Y-112581098D01*
X70875500Y-112583500D01*
X71428000Y-112583500D01*
X71452386Y-112581098D01*
X71475836Y-112573985D01*
X71617257Y-112515406D01*
X71638868Y-112503854D01*
X71657810Y-112488309D01*
X71673355Y-112469367D01*
X71684906Y-112447757D01*
X71743485Y-112306336D01*
X71750598Y-112282887D01*
X71753000Y-112258500D01*
X71753000Y-110262046D01*
X77397500Y-110262046D01*
X77397500Y-110463954D01*
X77436890Y-110661982D01*
X77514156Y-110848520D01*
X77626330Y-111016400D01*
X77769100Y-111159170D01*
X77936980Y-111271344D01*
X78123518Y-111348610D01*
X78321546Y-111388000D01*
X78523454Y-111388000D01*
X78721482Y-111348610D01*
X78908020Y-111271344D01*
X79075900Y-111159170D01*
X79211024Y-111024046D01*
X84192000Y-111024046D01*
X84192000Y-111225954D01*
X84231390Y-111423982D01*
X84308656Y-111610520D01*
X84420830Y-111778400D01*
X84563600Y-111921170D01*
X84731480Y-112033344D01*
X84918018Y-112110610D01*
X85116046Y-112150000D01*
X85317954Y-112150000D01*
X85515982Y-112110610D01*
X85702520Y-112033344D01*
X85870400Y-111921170D01*
X86013170Y-111778400D01*
X86125344Y-111610520D01*
X86202610Y-111423982D01*
X86242000Y-111225954D01*
X86242000Y-111024046D01*
X89272000Y-111024046D01*
X89272000Y-111225954D01*
X89311390Y-111423982D01*
X89388656Y-111610520D01*
X89500830Y-111778400D01*
X89643600Y-111921170D01*
X89811480Y-112033344D01*
X89998018Y-112110610D01*
X90196046Y-112150000D01*
X90397954Y-112150000D01*
X90595982Y-112110610D01*
X90782520Y-112033344D01*
X90950400Y-111921170D01*
X91093170Y-111778400D01*
X91205344Y-111610520D01*
X91282610Y-111423982D01*
X91322000Y-111225954D01*
X91322000Y-111024046D01*
X91282610Y-110826018D01*
X91205344Y-110639480D01*
X91093170Y-110471600D01*
X90950400Y-110328830D01*
X90782520Y-110216656D01*
X90595982Y-110139390D01*
X90397954Y-110100000D01*
X90196046Y-110100000D01*
X89998018Y-110139390D01*
X89811480Y-110216656D01*
X89643600Y-110328830D01*
X89500830Y-110471600D01*
X89388656Y-110639480D01*
X89311390Y-110826018D01*
X89272000Y-111024046D01*
X86242000Y-111024046D01*
X86202610Y-110826018D01*
X86125344Y-110639480D01*
X86013170Y-110471600D01*
X85870400Y-110328830D01*
X85702520Y-110216656D01*
X85515982Y-110139390D01*
X85317954Y-110100000D01*
X85116046Y-110100000D01*
X84918018Y-110139390D01*
X84731480Y-110216656D01*
X84563600Y-110328830D01*
X84420830Y-110471600D01*
X84308656Y-110639480D01*
X84231390Y-110826018D01*
X84192000Y-111024046D01*
X79211024Y-111024046D01*
X79218670Y-111016400D01*
X79330844Y-110848520D01*
X79408110Y-110661982D01*
X79447500Y-110463954D01*
X79447500Y-110262046D01*
X79408110Y-110064018D01*
X79330844Y-109877480D01*
X79218670Y-109709600D01*
X79075900Y-109566830D01*
X78908020Y-109454656D01*
X78721482Y-109377390D01*
X78523454Y-109338000D01*
X78321546Y-109338000D01*
X78123518Y-109377390D01*
X77936980Y-109454656D01*
X77769100Y-109566830D01*
X77626330Y-109709600D01*
X77514156Y-109877480D01*
X77436890Y-110064018D01*
X77397500Y-110262046D01*
X71753000Y-110262046D01*
X71753000Y-107793865D01*
X71782250Y-107723250D01*
X71852865Y-107694000D01*
X75238000Y-107694000D01*
X75262386Y-107691598D01*
X75285836Y-107684485D01*
X75427257Y-107625906D01*
X75448868Y-107614354D01*
X75467810Y-107598809D01*
X75483355Y-107579867D01*
X75494906Y-107558257D01*
X75553485Y-107416836D01*
X75560598Y-107393387D01*
X75563000Y-107369000D01*
X75563000Y-107167807D01*
X78139629Y-107167807D01*
X78293606Y-107355137D01*
X78652908Y-107366905D01*
X78772394Y-107355137D01*
X78926371Y-107167807D01*
X78533000Y-106774437D01*
X78139629Y-107167807D01*
X75563000Y-107167807D01*
X75563000Y-106579046D01*
X83811000Y-106579046D01*
X83811000Y-106780954D01*
X83850390Y-106978982D01*
X83927656Y-107165520D01*
X84039830Y-107333400D01*
X84182600Y-107476170D01*
X84350480Y-107588344D01*
X84537018Y-107665610D01*
X84735046Y-107705000D01*
X84936954Y-107705000D01*
X85134982Y-107665610D01*
X85321520Y-107588344D01*
X85344000Y-107573323D01*
X85366480Y-107588344D01*
X85553018Y-107665610D01*
X85751046Y-107705000D01*
X85952954Y-107705000D01*
X86150982Y-107665610D01*
X86337520Y-107588344D01*
X86360000Y-107573323D01*
X86382480Y-107588344D01*
X86569018Y-107665610D01*
X86767046Y-107705000D01*
X86968954Y-107705000D01*
X87166982Y-107665610D01*
X87353520Y-107588344D01*
X87521400Y-107476170D01*
X87664170Y-107333400D01*
X87776344Y-107165520D01*
X87853610Y-106978982D01*
X87882638Y-106833046D01*
X92828000Y-106833046D01*
X92828000Y-107034954D01*
X92867390Y-107232982D01*
X92944656Y-107419520D01*
X93056830Y-107587400D01*
X93199600Y-107730170D01*
X93367480Y-107842344D01*
X93554018Y-107919610D01*
X93752046Y-107959000D01*
X93953954Y-107959000D01*
X94151982Y-107919610D01*
X94338520Y-107842344D01*
X94506400Y-107730170D01*
X94649170Y-107587400D01*
X94761344Y-107419520D01*
X94838610Y-107232982D01*
X94878000Y-107034954D01*
X94878000Y-106833046D01*
X94838610Y-106635018D01*
X94761344Y-106448480D01*
X94649170Y-106280600D01*
X94506400Y-106137830D01*
X94338520Y-106025656D01*
X94151982Y-105948390D01*
X93953954Y-105909000D01*
X93752046Y-105909000D01*
X93554018Y-105948390D01*
X93367480Y-106025656D01*
X93199600Y-106137830D01*
X93056830Y-106280600D01*
X92944656Y-106448480D01*
X92867390Y-106635018D01*
X92828000Y-106833046D01*
X87882638Y-106833046D01*
X87893000Y-106780954D01*
X87893000Y-106579046D01*
X87853610Y-106381018D01*
X87776344Y-106194480D01*
X87664170Y-106026600D01*
X87521400Y-105883830D01*
X87353520Y-105771656D01*
X87166982Y-105694390D01*
X86968954Y-105655000D01*
X86767046Y-105655000D01*
X86569018Y-105694390D01*
X86382480Y-105771656D01*
X86360000Y-105786677D01*
X86337520Y-105771656D01*
X86150982Y-105694390D01*
X85952954Y-105655000D01*
X85751046Y-105655000D01*
X85553018Y-105694390D01*
X85366480Y-105771656D01*
X85344000Y-105786677D01*
X85321520Y-105771656D01*
X85134982Y-105694390D01*
X84936954Y-105655000D01*
X84735046Y-105655000D01*
X84537018Y-105694390D01*
X84350480Y-105771656D01*
X84182600Y-105883830D01*
X84039830Y-106026600D01*
X83927656Y-106194480D01*
X83850390Y-106381018D01*
X83811000Y-106579046D01*
X75563000Y-106579046D01*
X75563000Y-105656908D01*
X76703095Y-105656908D01*
X76714863Y-105776394D01*
X76902193Y-105930371D01*
X77295563Y-105537000D01*
X79770437Y-105537000D01*
X80163807Y-105930371D01*
X80351137Y-105776394D01*
X80362905Y-105417092D01*
X80351137Y-105297606D01*
X80163807Y-105143629D01*
X79770437Y-105537000D01*
X77295563Y-105537000D01*
X76902193Y-105143629D01*
X76714863Y-105297606D01*
X76703095Y-105656908D01*
X75563000Y-105656908D01*
X75563000Y-103906193D01*
X78139629Y-103906193D01*
X78533000Y-104299563D01*
X78926371Y-103906193D01*
X78772394Y-103718863D01*
X78413092Y-103707095D01*
X78293606Y-103718863D01*
X78139629Y-103906193D01*
X75563000Y-103906193D01*
X75563000Y-102197546D01*
X103686500Y-102197546D01*
X103686500Y-102399454D01*
X103725890Y-102597482D01*
X103803156Y-102784020D01*
X103915330Y-102951900D01*
X104058100Y-103094670D01*
X104225980Y-103206844D01*
X104412518Y-103284110D01*
X104610546Y-103323500D01*
X104812454Y-103323500D01*
X105010482Y-103284110D01*
X105197020Y-103206844D01*
X105364900Y-103094670D01*
X105507670Y-102951900D01*
X105619844Y-102784020D01*
X105697110Y-102597482D01*
X105736500Y-102399454D01*
X105736500Y-102197546D01*
X105697110Y-101999518D01*
X105619844Y-101812980D01*
X105507670Y-101645100D01*
X105364900Y-101502330D01*
X105197020Y-101390156D01*
X105010482Y-101312890D01*
X104812454Y-101273500D01*
X104610546Y-101273500D01*
X104412518Y-101312890D01*
X104225980Y-101390156D01*
X104058100Y-101502330D01*
X103915330Y-101645100D01*
X103803156Y-101812980D01*
X103725890Y-101999518D01*
X103686500Y-102197546D01*
X75563000Y-102197546D01*
X75563000Y-99530546D01*
X103686500Y-99530546D01*
X103686500Y-99732454D01*
X103725890Y-99930482D01*
X103803156Y-100117020D01*
X103915330Y-100284900D01*
X104058100Y-100427670D01*
X104225980Y-100539844D01*
X104412518Y-100617110D01*
X104610546Y-100656500D01*
X104812454Y-100656500D01*
X105010482Y-100617110D01*
X105197020Y-100539844D01*
X105364900Y-100427670D01*
X105507670Y-100284900D01*
X105619844Y-100117020D01*
X105697110Y-99930482D01*
X105736500Y-99732454D01*
X105736500Y-99530546D01*
X105697110Y-99332518D01*
X105619844Y-99145980D01*
X105507670Y-98978100D01*
X105364900Y-98835330D01*
X105197020Y-98723156D01*
X105010482Y-98645890D01*
X104812454Y-98606500D01*
X104610546Y-98606500D01*
X104412518Y-98645890D01*
X104225980Y-98723156D01*
X104058100Y-98835330D01*
X103915330Y-98978100D01*
X103803156Y-99145980D01*
X103725890Y-99332518D01*
X103686500Y-99530546D01*
X75563000Y-99530546D01*
X75563000Y-98380843D01*
X75560598Y-98356457D01*
X75553485Y-98333008D01*
X75494906Y-98191586D01*
X75483355Y-98169975D01*
X75467809Y-98151033D01*
X73545322Y-96228546D01*
X88764000Y-96228546D01*
X88764000Y-96430454D01*
X88803390Y-96628482D01*
X88880656Y-96815020D01*
X88992830Y-96982900D01*
X89135600Y-97125670D01*
X89303480Y-97237844D01*
X89490018Y-97315110D01*
X89688046Y-97354500D01*
X89889954Y-97354500D01*
X90087982Y-97315110D01*
X90274520Y-97237844D01*
X90442400Y-97125670D01*
X90585170Y-96982900D01*
X90664919Y-96863546D01*
X103623000Y-96863546D01*
X103623000Y-97065454D01*
X103662390Y-97263482D01*
X103739656Y-97450020D01*
X103851830Y-97617900D01*
X103994600Y-97760670D01*
X104162480Y-97872844D01*
X104349018Y-97950110D01*
X104547046Y-97989500D01*
X104748954Y-97989500D01*
X104946982Y-97950110D01*
X105133520Y-97872844D01*
X105301400Y-97760670D01*
X105444170Y-97617900D01*
X105556344Y-97450020D01*
X105633610Y-97263482D01*
X105673000Y-97065454D01*
X105673000Y-96863546D01*
X105633610Y-96665518D01*
X105556344Y-96478980D01*
X105444170Y-96311100D01*
X105301400Y-96168330D01*
X105133520Y-96056156D01*
X104946982Y-95978890D01*
X104748954Y-95939500D01*
X104547046Y-95939500D01*
X104349018Y-95978890D01*
X104162480Y-96056156D01*
X103994600Y-96168330D01*
X103851830Y-96311100D01*
X103739656Y-96478980D01*
X103662390Y-96665518D01*
X103623000Y-96863546D01*
X90664919Y-96863546D01*
X90697344Y-96815020D01*
X90774610Y-96628482D01*
X90814000Y-96430454D01*
X90814000Y-96228546D01*
X90774610Y-96030518D01*
X90697344Y-95843980D01*
X90585170Y-95676100D01*
X90442400Y-95533330D01*
X90274520Y-95421156D01*
X90087982Y-95343890D01*
X89889954Y-95304500D01*
X89688046Y-95304500D01*
X89490018Y-95343890D01*
X89303480Y-95421156D01*
X89135600Y-95533330D01*
X88992830Y-95676100D01*
X88880656Y-95843980D01*
X88803390Y-96030518D01*
X88764000Y-96228546D01*
X73545322Y-96228546D01*
X72300549Y-94983773D01*
X72261000Y-94888293D01*
X72261000Y-94861249D01*
X72262500Y-94846021D01*
X72262500Y-94846014D01*
X72266490Y-94805501D01*
X72262500Y-94764988D01*
X72262500Y-94514046D01*
X90732500Y-94514046D01*
X90732500Y-94715954D01*
X90771890Y-94913982D01*
X90849156Y-95100520D01*
X90961330Y-95268400D01*
X91104100Y-95411170D01*
X91271980Y-95523344D01*
X91458518Y-95600610D01*
X91656546Y-95640000D01*
X91757195Y-95640000D01*
X91854672Y-95737477D01*
X91877368Y-95765132D01*
X91905023Y-95787828D01*
X91905025Y-95787830D01*
X91969178Y-95840479D01*
X91987763Y-95855731D01*
X92113712Y-95923053D01*
X92250375Y-95964509D01*
X92356893Y-95975000D01*
X92356900Y-95975000D01*
X92392500Y-95978506D01*
X92428100Y-95975000D01*
X99922930Y-95975000D01*
X99994100Y-96046170D01*
X100161980Y-96158344D01*
X100348518Y-96235610D01*
X100546546Y-96275000D01*
X100748454Y-96275000D01*
X100946482Y-96235610D01*
X101133020Y-96158344D01*
X101300900Y-96046170D01*
X101443670Y-95903400D01*
X101555844Y-95735520D01*
X101633110Y-95548982D01*
X101672500Y-95350954D01*
X101672500Y-95149046D01*
X101633110Y-94951018D01*
X101555844Y-94764480D01*
X101443670Y-94596600D01*
X101300900Y-94453830D01*
X101133020Y-94341656D01*
X100946482Y-94264390D01*
X100748454Y-94225000D01*
X100546546Y-94225000D01*
X100348518Y-94264390D01*
X100161980Y-94341656D01*
X99994100Y-94453830D01*
X99922930Y-94525000D01*
X99716009Y-94525000D01*
X99791610Y-94342482D01*
X99831000Y-94144454D01*
X99831000Y-93942546D01*
X99791610Y-93744518D01*
X99714344Y-93557980D01*
X99602170Y-93390100D01*
X99459400Y-93247330D01*
X99291520Y-93135156D01*
X99104982Y-93057890D01*
X99042113Y-93045385D01*
X99029608Y-92982518D01*
X98952342Y-92795980D01*
X98840168Y-92628100D01*
X98697398Y-92485330D01*
X98529518Y-92373156D01*
X98342980Y-92295890D01*
X98144952Y-92256500D01*
X97943044Y-92256500D01*
X97876411Y-92269754D01*
X97755647Y-92148990D01*
X97587767Y-92036816D01*
X97401229Y-91959550D01*
X97203201Y-91920160D01*
X97001293Y-91920160D01*
X96803265Y-91959550D01*
X96616727Y-92036816D01*
X96448847Y-92148990D01*
X96377677Y-92220160D01*
X93654946Y-92220160D01*
X93619349Y-92216654D01*
X93583752Y-92220160D01*
X93583743Y-92220160D01*
X93477225Y-92230651D01*
X93340562Y-92272107D01*
X93250962Y-92320000D01*
X93118556Y-92320000D01*
X92920528Y-92359390D01*
X92733990Y-92436656D01*
X92566110Y-92548830D01*
X92423340Y-92691600D01*
X92311166Y-92859480D01*
X92233900Y-93046018D01*
X92194510Y-93244046D01*
X92194510Y-93445954D01*
X92233900Y-93643982D01*
X92266305Y-93722214D01*
X92243020Y-93706656D01*
X92056482Y-93629390D01*
X91858454Y-93590000D01*
X91656546Y-93590000D01*
X91458518Y-93629390D01*
X91271980Y-93706656D01*
X91104100Y-93818830D01*
X90961330Y-93961600D01*
X90849156Y-94129480D01*
X90771890Y-94316018D01*
X90732500Y-94514046D01*
X72262500Y-94514046D01*
X72262500Y-93447253D01*
X72345844Y-93322520D01*
X72423110Y-93135982D01*
X72462500Y-92937954D01*
X72462500Y-92736046D01*
X72423110Y-92538018D01*
X72345844Y-92351480D01*
X72261000Y-92224502D01*
X72261000Y-92084500D01*
X72258598Y-92060114D01*
X72251485Y-92036664D01*
X72230914Y-91987000D01*
X77261976Y-91987000D01*
X77261976Y-93687000D01*
X77274043Y-93809521D01*
X77309781Y-93927334D01*
X77367817Y-94035911D01*
X77445920Y-94131080D01*
X77541089Y-94209183D01*
X77649666Y-94267219D01*
X77767479Y-94302957D01*
X77890000Y-94315024D01*
X79590000Y-94315024D01*
X79712521Y-94302957D01*
X79830334Y-94267219D01*
X79938911Y-94209183D01*
X80034080Y-94131080D01*
X80112183Y-94035911D01*
X80170219Y-93927334D01*
X80199379Y-93831205D01*
X80325777Y-93961795D01*
X80362982Y-93992293D01*
X80555000Y-93938579D01*
X80555000Y-93562000D01*
X82005000Y-93562000D01*
X82005000Y-93938579D01*
X82197018Y-93992293D01*
X82234223Y-93961795D01*
X82435325Y-93754023D01*
X82408305Y-93562000D01*
X82005000Y-93562000D01*
X80555000Y-93562000D01*
X80430000Y-93562000D01*
X80430000Y-92112000D01*
X80555000Y-92112000D01*
X80555000Y-91735421D01*
X82005000Y-91735421D01*
X82005000Y-92112000D01*
X82408305Y-92112000D01*
X82435325Y-91919977D01*
X82234223Y-91712205D01*
X82197018Y-91681707D01*
X82005000Y-91735421D01*
X80555000Y-91735421D01*
X80362982Y-91681707D01*
X80325777Y-91712205D01*
X80199379Y-91842795D01*
X80170219Y-91746666D01*
X80112183Y-91638089D01*
X80034080Y-91542920D01*
X79938911Y-91464817D01*
X79830334Y-91406781D01*
X79712521Y-91371043D01*
X79590000Y-91358976D01*
X77890000Y-91358976D01*
X77767479Y-91371043D01*
X77649666Y-91406781D01*
X77541089Y-91464817D01*
X77445920Y-91542920D01*
X77367817Y-91638089D01*
X77309781Y-91746666D01*
X77274043Y-91864479D01*
X77261976Y-91987000D01*
X72230914Y-91987000D01*
X72192906Y-91895243D01*
X72181354Y-91873632D01*
X72165809Y-91854690D01*
X72146867Y-91839145D01*
X72125257Y-91827594D01*
X71983836Y-91769015D01*
X71960387Y-91761902D01*
X71936000Y-91759500D01*
X60341205Y-91759500D01*
X60324296Y-91758456D01*
X46187471Y-90006992D01*
X46124287Y-89973683D01*
X46099000Y-89906883D01*
X46099000Y-89671222D01*
X46124305Y-89604404D01*
X46187522Y-89571110D01*
X48328326Y-89307046D01*
X78286500Y-89307046D01*
X78286500Y-89508954D01*
X78325890Y-89706982D01*
X78403156Y-89893520D01*
X78515330Y-90061400D01*
X78658100Y-90204170D01*
X78825980Y-90316344D01*
X79012518Y-90393610D01*
X79210546Y-90433000D01*
X79412454Y-90433000D01*
X79610482Y-90393610D01*
X79797020Y-90316344D01*
X79964900Y-90204170D01*
X80107670Y-90061400D01*
X80219844Y-89893520D01*
X80297110Y-89706982D01*
X80336500Y-89508954D01*
X80336500Y-89307046D01*
X80297110Y-89109018D01*
X80219844Y-88922480D01*
X80107670Y-88754600D01*
X79964900Y-88611830D01*
X79797020Y-88499656D01*
X79610482Y-88422390D01*
X79412454Y-88383000D01*
X79210546Y-88383000D01*
X79012518Y-88422390D01*
X78825980Y-88499656D01*
X78658100Y-88611830D01*
X78515330Y-88754600D01*
X78403156Y-88922480D01*
X78325890Y-89109018D01*
X78286500Y-89307046D01*
X48328326Y-89307046D01*
X60387800Y-87819534D01*
X60404626Y-87818500D01*
X71936000Y-87818500D01*
X71960386Y-87816098D01*
X71983836Y-87808985D01*
X72125257Y-87750406D01*
X72146868Y-87738854D01*
X72165810Y-87723309D01*
X72181355Y-87704367D01*
X72192906Y-87682757D01*
X72251485Y-87541336D01*
X72258598Y-87517887D01*
X72261000Y-87493500D01*
X72261000Y-87289998D01*
X72345844Y-87163020D01*
X72357175Y-87135664D01*
X80801418Y-87135664D01*
X80801418Y-87337572D01*
X80840808Y-87535600D01*
X80918074Y-87722138D01*
X81030248Y-87890018D01*
X81173018Y-88032788D01*
X81340898Y-88144962D01*
X81527436Y-88222228D01*
X81725464Y-88261618D01*
X81927372Y-88261618D01*
X82125400Y-88222228D01*
X82311938Y-88144962D01*
X82479818Y-88032788D01*
X82622588Y-87890018D01*
X82734762Y-87722138D01*
X82812028Y-87535600D01*
X82851418Y-87337572D01*
X82851418Y-87135664D01*
X82812028Y-86937636D01*
X82734762Y-86751098D01*
X82622588Y-86583218D01*
X82479818Y-86440448D01*
X82311938Y-86328274D01*
X82125400Y-86251008D01*
X81927372Y-86211618D01*
X81725464Y-86211618D01*
X81527436Y-86251008D01*
X81340898Y-86328274D01*
X81173018Y-86440448D01*
X81030248Y-86583218D01*
X80918074Y-86751098D01*
X80840808Y-86937636D01*
X80801418Y-87135664D01*
X72357175Y-87135664D01*
X72423110Y-86976482D01*
X72462500Y-86778454D01*
X72462500Y-86576546D01*
X72423110Y-86378518D01*
X72345844Y-86191980D01*
X72262500Y-86067247D01*
X72262500Y-85003521D01*
X72266491Y-84963000D01*
X72264515Y-84942940D01*
X72305093Y-84851212D01*
X75647119Y-81813007D01*
X75663548Y-81794825D01*
X75677349Y-81771083D01*
X75742814Y-81623095D01*
X75750483Y-81599822D01*
X75753500Y-81572526D01*
X75753500Y-79528046D01*
X85906498Y-79528046D01*
X85906498Y-79729954D01*
X85945888Y-79927982D01*
X86023154Y-80114520D01*
X86135328Y-80282400D01*
X86278098Y-80425170D01*
X86445978Y-80537344D01*
X86632516Y-80614610D01*
X86830544Y-80654000D01*
X87032452Y-80654000D01*
X87230480Y-80614610D01*
X87417018Y-80537344D01*
X87584898Y-80425170D01*
X87656068Y-80354000D01*
X88700500Y-80354000D01*
X88700500Y-80428454D01*
X88739890Y-80626482D01*
X88817156Y-80813020D01*
X88929330Y-80980900D01*
X89072100Y-81123670D01*
X89239980Y-81235844D01*
X89426518Y-81313110D01*
X89624546Y-81352500D01*
X89725196Y-81352500D01*
X90207001Y-81834306D01*
X90207001Y-81952429D01*
X90135830Y-82023600D01*
X90023656Y-82191480D01*
X89946390Y-82378018D01*
X89927920Y-82470875D01*
X88927240Y-81470196D01*
X88927240Y-81369546D01*
X88887850Y-81171518D01*
X88810584Y-80984980D01*
X88698410Y-80817100D01*
X88555640Y-80674330D01*
X88387760Y-80562156D01*
X88201222Y-80484890D01*
X88003194Y-80445500D01*
X87801286Y-80445500D01*
X87603258Y-80484890D01*
X87416720Y-80562156D01*
X87248840Y-80674330D01*
X87106070Y-80817100D01*
X86993896Y-80984980D01*
X86916630Y-81171518D01*
X86877240Y-81369546D01*
X86877240Y-81571454D01*
X86916630Y-81769482D01*
X86993896Y-81956020D01*
X87106070Y-82123900D01*
X87248840Y-82266670D01*
X87416720Y-82378844D01*
X87603258Y-82456110D01*
X87801286Y-82495500D01*
X87901936Y-82495500D01*
X89162832Y-83756397D01*
X89145000Y-83846046D01*
X89145000Y-84047954D01*
X89184390Y-84245982D01*
X89261656Y-84432520D01*
X89373830Y-84600400D01*
X89516600Y-84743170D01*
X89684480Y-84855344D01*
X89871018Y-84932610D01*
X90069046Y-84972000D01*
X90270954Y-84972000D01*
X90468982Y-84932610D01*
X90655520Y-84855344D01*
X90662233Y-84850859D01*
X90670170Y-84856162D01*
X90669000Y-84862046D01*
X90669000Y-85063954D01*
X90708390Y-85261982D01*
X90785656Y-85448520D01*
X90897830Y-85616400D01*
X91040600Y-85759170D01*
X91208480Y-85871344D01*
X91395018Y-85948610D01*
X91593046Y-85988000D01*
X91794954Y-85988000D01*
X91992982Y-85948610D01*
X92179520Y-85871344D01*
X92347400Y-85759170D01*
X92490170Y-85616400D01*
X92602344Y-85448520D01*
X92679610Y-85261982D01*
X92719000Y-85063954D01*
X92719000Y-84953651D01*
X92742721Y-84924747D01*
X92766114Y-84880982D01*
X92810043Y-84798798D01*
X92851499Y-84662135D01*
X92861990Y-84555617D01*
X92861990Y-84555608D01*
X92865496Y-84520011D01*
X92861990Y-84484414D01*
X92861990Y-78639070D01*
X92933160Y-78567900D01*
X93045334Y-78400020D01*
X93122600Y-78213482D01*
X93161990Y-78015454D01*
X93161990Y-77813546D01*
X93122600Y-77615518D01*
X93045334Y-77428980D01*
X92933160Y-77261100D01*
X92790390Y-77118330D01*
X92622510Y-77006156D01*
X92435972Y-76928890D01*
X92237944Y-76889500D01*
X92036036Y-76889500D01*
X91838008Y-76928890D01*
X91651470Y-77006156D01*
X91483590Y-77118330D01*
X91408854Y-77193066D01*
X91230982Y-77119390D01*
X91032954Y-77080000D01*
X90831046Y-77080000D01*
X90633018Y-77119390D01*
X90446480Y-77196656D01*
X90278600Y-77308830D01*
X90135830Y-77451600D01*
X90023656Y-77619480D01*
X89946390Y-77806018D01*
X89933885Y-77868885D01*
X89871018Y-77881390D01*
X89684480Y-77958656D01*
X89516600Y-78070830D01*
X89373830Y-78213600D01*
X89261656Y-78381480D01*
X89184390Y-78568018D01*
X89145000Y-78766046D01*
X89145000Y-78866696D01*
X89107696Y-78904000D01*
X87656068Y-78904000D01*
X87584898Y-78832830D01*
X87417018Y-78720656D01*
X87230480Y-78643390D01*
X87032452Y-78604000D01*
X86830544Y-78604000D01*
X86632516Y-78643390D01*
X86445978Y-78720656D01*
X86278098Y-78832830D01*
X86135328Y-78975600D01*
X86023154Y-79143480D01*
X85945888Y-79330018D01*
X85906498Y-79528046D01*
X75753500Y-79528046D01*
X75753500Y-75989307D01*
X78330129Y-75989307D01*
X78484106Y-76176637D01*
X78843408Y-76188405D01*
X78962894Y-76176637D01*
X79116871Y-75989307D01*
X78723500Y-75595937D01*
X78330129Y-75989307D01*
X75753500Y-75989307D01*
X75753500Y-74478408D01*
X76893595Y-74478408D01*
X76905363Y-74597894D01*
X77092693Y-74751871D01*
X77486063Y-74358500D01*
X79960937Y-74358500D01*
X80354307Y-74751871D01*
X80541637Y-74597894D01*
X80553405Y-74238592D01*
X80541637Y-74119106D01*
X80354307Y-73965129D01*
X79960937Y-74358500D01*
X77486063Y-74358500D01*
X77092693Y-73965129D01*
X76905363Y-74119106D01*
X76893595Y-74478408D01*
X75753500Y-74478408D01*
X75753500Y-73178046D01*
X96066502Y-73178046D01*
X96066502Y-73379954D01*
X96105892Y-73577982D01*
X96183158Y-73764520D01*
X96295332Y-73932400D01*
X96438102Y-74075170D01*
X96605982Y-74187344D01*
X96792520Y-74264610D01*
X96990548Y-74304000D01*
X97192456Y-74304000D01*
X97390484Y-74264610D01*
X97577022Y-74187344D01*
X97744902Y-74075170D01*
X97816072Y-74004000D01*
X98271930Y-74004000D01*
X98343100Y-74075170D01*
X98510980Y-74187344D01*
X98697518Y-74264610D01*
X98895546Y-74304000D01*
X99097454Y-74304000D01*
X99295482Y-74264610D01*
X99482020Y-74187344D01*
X99649900Y-74075170D01*
X99792670Y-73932400D01*
X99904844Y-73764520D01*
X99982110Y-73577982D01*
X100021500Y-73379954D01*
X100021500Y-73178046D01*
X99982110Y-72980018D01*
X99904844Y-72793480D01*
X99792670Y-72625600D01*
X99649900Y-72482830D01*
X99482020Y-72370656D01*
X99295482Y-72293390D01*
X99097454Y-72254000D01*
X98895546Y-72254000D01*
X98697518Y-72293390D01*
X98510980Y-72370656D01*
X98343100Y-72482830D01*
X98271930Y-72554000D01*
X97816072Y-72554000D01*
X97744902Y-72482830D01*
X97577022Y-72370656D01*
X97390484Y-72293390D01*
X97192456Y-72254000D01*
X96990548Y-72254000D01*
X96792520Y-72293390D01*
X96605982Y-72370656D01*
X96438102Y-72482830D01*
X96295332Y-72625600D01*
X96183158Y-72793480D01*
X96105892Y-72980018D01*
X96066502Y-73178046D01*
X75753500Y-73178046D01*
X75753500Y-72727693D01*
X78330129Y-72727693D01*
X78723500Y-73121063D01*
X79116871Y-72727693D01*
X78962894Y-72540363D01*
X78603592Y-72528595D01*
X78484106Y-72540363D01*
X78330129Y-72727693D01*
X75753500Y-72727693D01*
X75753500Y-72272500D01*
X75751098Y-72248114D01*
X75743985Y-72224664D01*
X75685406Y-72083243D01*
X75673854Y-72061632D01*
X75658309Y-72042690D01*
X75639367Y-72027145D01*
X75617757Y-72015594D01*
X75476336Y-71957015D01*
X75452887Y-71949902D01*
X75428500Y-71947500D01*
X72233865Y-71947500D01*
X72163250Y-71918250D01*
X72134000Y-71847635D01*
X72134000Y-68860046D01*
X92002500Y-68860046D01*
X92002500Y-69061954D01*
X92041890Y-69259982D01*
X92119156Y-69446520D01*
X92231330Y-69614400D01*
X92374100Y-69757170D01*
X92541980Y-69869344D01*
X92728518Y-69946610D01*
X92926546Y-69986000D01*
X93128454Y-69986000D01*
X93326482Y-69946610D01*
X93513020Y-69869344D01*
X93519733Y-69864859D01*
X93621480Y-69932844D01*
X93808018Y-70010110D01*
X94006046Y-70049500D01*
X94106695Y-70049500D01*
X94394672Y-70337477D01*
X94417368Y-70365132D01*
X94445023Y-70387828D01*
X94445025Y-70387830D01*
X94460695Y-70400690D01*
X94527763Y-70455731D01*
X94653712Y-70523053D01*
X94790375Y-70564509D01*
X94896893Y-70575000D01*
X94896902Y-70575000D01*
X94932499Y-70578506D01*
X94968096Y-70575000D01*
X99287930Y-70575000D01*
X99359100Y-70646170D01*
X99526980Y-70758344D01*
X99713518Y-70835610D01*
X99911546Y-70875000D01*
X100113454Y-70875000D01*
X100311482Y-70835610D01*
X100498020Y-70758344D01*
X100665900Y-70646170D01*
X100808670Y-70503400D01*
X100920844Y-70335520D01*
X100998110Y-70148982D01*
X101037500Y-69950954D01*
X101037500Y-69749046D01*
X100998110Y-69551018D01*
X100920844Y-69364480D01*
X100808670Y-69196600D01*
X100665900Y-69053830D01*
X100498020Y-68941656D01*
X100311482Y-68864390D01*
X100113454Y-68825000D01*
X99911546Y-68825000D01*
X99713518Y-68864390D01*
X99526980Y-68941656D01*
X99359100Y-69053830D01*
X99287930Y-69125000D01*
X97037000Y-69125000D01*
X97037000Y-68987500D01*
X99219307Y-68987500D01*
X99254904Y-68991006D01*
X99290501Y-68987500D01*
X99290511Y-68987500D01*
X99397029Y-68977009D01*
X99533692Y-68935553D01*
X99659641Y-68868231D01*
X99770036Y-68777632D01*
X99792736Y-68749972D01*
X100364255Y-68178454D01*
X100464904Y-68178454D01*
X100662932Y-68139064D01*
X100849470Y-68061798D01*
X101017350Y-67949624D01*
X101160120Y-67806854D01*
X101272294Y-67638974D01*
X101349560Y-67452436D01*
X101388950Y-67254408D01*
X101388950Y-67052500D01*
X101349560Y-66854472D01*
X101272294Y-66667934D01*
X101160120Y-66500054D01*
X101017350Y-66357284D01*
X100866586Y-66256546D01*
X102543500Y-66256546D01*
X102543500Y-66458454D01*
X102582890Y-66656482D01*
X102660156Y-66843020D01*
X102772330Y-67010900D01*
X102915100Y-67153670D01*
X103082980Y-67265844D01*
X103269518Y-67343110D01*
X103467546Y-67382500D01*
X103669454Y-67382500D01*
X103867482Y-67343110D01*
X104054020Y-67265844D01*
X104221900Y-67153670D01*
X104364670Y-67010900D01*
X104476844Y-66843020D01*
X104554110Y-66656482D01*
X104593500Y-66458454D01*
X104593500Y-66256546D01*
X104554110Y-66058518D01*
X104476844Y-65871980D01*
X104364670Y-65704100D01*
X104221900Y-65561330D01*
X104054020Y-65449156D01*
X103867482Y-65371890D01*
X103669454Y-65332500D01*
X103467546Y-65332500D01*
X103269518Y-65371890D01*
X103082980Y-65449156D01*
X102915100Y-65561330D01*
X102772330Y-65704100D01*
X102660156Y-65871980D01*
X102582890Y-66058518D01*
X102543500Y-66256546D01*
X100866586Y-66256546D01*
X100849470Y-66245110D01*
X100662932Y-66167844D01*
X100464904Y-66128454D01*
X100262996Y-66128454D01*
X100064968Y-66167844D01*
X99878430Y-66245110D01*
X99710550Y-66357284D01*
X99567780Y-66500054D01*
X99455606Y-66667934D01*
X99378340Y-66854472D01*
X99338950Y-67052500D01*
X99338950Y-67153149D01*
X98954600Y-67537500D01*
X93761596Y-67537500D01*
X93725999Y-67533994D01*
X93690402Y-67537500D01*
X93690393Y-67537500D01*
X93583875Y-67547991D01*
X93447212Y-67589447D01*
X93321263Y-67656769D01*
X93238525Y-67724670D01*
X93238523Y-67724672D01*
X93210868Y-67747368D01*
X93188172Y-67775023D01*
X93027195Y-67936000D01*
X92926546Y-67936000D01*
X92728518Y-67975390D01*
X92541980Y-68052656D01*
X92374100Y-68164830D01*
X92231330Y-68307600D01*
X92119156Y-68475480D01*
X92041890Y-68662018D01*
X92002500Y-68860046D01*
X72134000Y-68860046D01*
X72134000Y-67383000D01*
X72131598Y-67358614D01*
X72124485Y-67335164D01*
X72065906Y-67193743D01*
X72054354Y-67172132D01*
X72038809Y-67153190D01*
X72019867Y-67137645D01*
X71998257Y-67126094D01*
X71856836Y-67067515D01*
X71833387Y-67060402D01*
X71809000Y-67058000D01*
X71002500Y-67058000D01*
X70978114Y-67060402D01*
X70954664Y-67067515D01*
X70813243Y-67126094D01*
X70791632Y-67137646D01*
X70772690Y-67153191D01*
X70757145Y-67172133D01*
X70745594Y-67193743D01*
X70687015Y-67335164D01*
X70679902Y-67358613D01*
X70677500Y-67383000D01*
X70677500Y-67593135D01*
X70648250Y-67663750D01*
X70577635Y-67693000D01*
X68614365Y-67693000D01*
X68543750Y-67663750D01*
X68514500Y-67593135D01*
X68514500Y-67383000D01*
X68512098Y-67358614D01*
X68504985Y-67335164D01*
X68446406Y-67193743D01*
X68434854Y-67172132D01*
X68419309Y-67153190D01*
X68400367Y-67137645D01*
X68378757Y-67126094D01*
X68237336Y-67067515D01*
X68213887Y-67060402D01*
X68189500Y-67058000D01*
X66875000Y-67058000D01*
X66850614Y-67060402D01*
X66827164Y-67067515D01*
X66685743Y-67126094D01*
X66664132Y-67137646D01*
X66645190Y-67153191D01*
X66629645Y-67172133D01*
X66618094Y-67193743D01*
X66559515Y-67335164D01*
X66552402Y-67358613D01*
X66550000Y-67383000D01*
X66550000Y-67656635D01*
X66520750Y-67727250D01*
X66450135Y-67756500D01*
X64550365Y-67756500D01*
X64479750Y-67727250D01*
X64450500Y-67656635D01*
X64450500Y-67383000D01*
X64448098Y-67358614D01*
X64440985Y-67335164D01*
X64382406Y-67193743D01*
X64370854Y-67172132D01*
X64355309Y-67153190D01*
X64336367Y-67137645D01*
X64314757Y-67126094D01*
X64173336Y-67067515D01*
X64149887Y-67060402D01*
X64125500Y-67058000D01*
X62684000Y-67058000D01*
X62659614Y-67060402D01*
X62636164Y-67067515D01*
X62494743Y-67126094D01*
X62473132Y-67137646D01*
X62454190Y-67153191D01*
X62438645Y-67172133D01*
X62427094Y-67193743D01*
X62368515Y-67335164D01*
X62361402Y-67358613D01*
X62359000Y-67383000D01*
X62359000Y-67656635D01*
X62329750Y-67727250D01*
X62259135Y-67756500D01*
X60422865Y-67756500D01*
X60352250Y-67727250D01*
X60323000Y-67656635D01*
X60323000Y-67383000D01*
X60320598Y-67358614D01*
X60313485Y-67335164D01*
X60254906Y-67193743D01*
X60243354Y-67172132D01*
X60227809Y-67153190D01*
X60208867Y-67137645D01*
X60187257Y-67126094D01*
X60045836Y-67067515D01*
X60022387Y-67060402D01*
X59998000Y-67058000D01*
X58556500Y-67058000D01*
X58532114Y-67060402D01*
X58508664Y-67067515D01*
X58367243Y-67126094D01*
X58345632Y-67137646D01*
X58326690Y-67153191D01*
X58311145Y-67172133D01*
X58299594Y-67193743D01*
X58241015Y-67335164D01*
X58233902Y-67358613D01*
X58231500Y-67383000D01*
X58231500Y-67720135D01*
X58202250Y-67790750D01*
X58131635Y-67820000D01*
X56104865Y-67820000D01*
X56034250Y-67790750D01*
X56005000Y-67720135D01*
X56005000Y-67383000D01*
X56002598Y-67358614D01*
X55995485Y-67335164D01*
X55936906Y-67193743D01*
X55925354Y-67172132D01*
X55909809Y-67153190D01*
X55890867Y-67137645D01*
X55869257Y-67126094D01*
X55727836Y-67067515D01*
X55704387Y-67060402D01*
X55680000Y-67058000D01*
X55000500Y-67058000D01*
X54976114Y-67060402D01*
X54952664Y-67067515D01*
X54811243Y-67126094D01*
X54789632Y-67137646D01*
X54770690Y-67153191D01*
X54755145Y-67172133D01*
X54743594Y-67193743D01*
X54685015Y-67335164D01*
X54677902Y-67358613D01*
X54675500Y-67383000D01*
X54675500Y-70313793D01*
X54635951Y-70409273D01*
X53121916Y-71923308D01*
X53045950Y-71961611D01*
X41275811Y-73723985D01*
X41255463Y-73725500D01*
X38071063Y-73725500D01*
X37846000Y-73500437D01*
X37620937Y-73725500D01*
X34482000Y-73725500D01*
X34482000Y-72335398D01*
X35913042Y-72335398D01*
X35936059Y-72569095D01*
X36132776Y-72738787D01*
X36608563Y-72263000D01*
X39083437Y-72263000D01*
X39559224Y-72738787D01*
X39755941Y-72569095D01*
X39778958Y-72190602D01*
X39755941Y-71956905D01*
X39559224Y-71787213D01*
X39083437Y-72263000D01*
X36608563Y-72263000D01*
X36132776Y-71787213D01*
X35936059Y-71956905D01*
X35913042Y-72335398D01*
X34482000Y-72335398D01*
X34482000Y-70549776D01*
X37370213Y-70549776D01*
X37846000Y-71025563D01*
X38321787Y-70549776D01*
X38152095Y-70353059D01*
X37773602Y-70330042D01*
X37539905Y-70353059D01*
X37370213Y-70549776D01*
X34482000Y-70549776D01*
X34482000Y-64780857D01*
X35188000Y-64780857D01*
X35188000Y-65219143D01*
X35273505Y-65649009D01*
X35441230Y-66053933D01*
X35684730Y-66418355D01*
X35994645Y-66728270D01*
X36359067Y-66971770D01*
X36763991Y-67139495D01*
X37193857Y-67225000D01*
X37632143Y-67225000D01*
X38062009Y-67139495D01*
X38466933Y-66971770D01*
X38831355Y-66728270D01*
X39141270Y-66418355D01*
X39384770Y-66053933D01*
X39552495Y-65649009D01*
X39638000Y-65219143D01*
X39638000Y-64780857D01*
X105519500Y-64780857D01*
X105519500Y-65219143D01*
X105605005Y-65649009D01*
X105772730Y-66053933D01*
X106016230Y-66418355D01*
X106326145Y-66728270D01*
X106690567Y-66971770D01*
X107095491Y-67139495D01*
X107525357Y-67225000D01*
X107963643Y-67225000D01*
X108393509Y-67139495D01*
X108798433Y-66971770D01*
X109162855Y-66728270D01*
X109472770Y-66418355D01*
X109716270Y-66053933D01*
X109883995Y-65649009D01*
X109969500Y-65219143D01*
X109969500Y-64780857D01*
X109883995Y-64350991D01*
X109716270Y-63946067D01*
X109472770Y-63581645D01*
X109162855Y-63271730D01*
X108798433Y-63028230D01*
X108393509Y-62860505D01*
X107963643Y-62775000D01*
X107525357Y-62775000D01*
X107095491Y-62860505D01*
X106690567Y-63028230D01*
X106326145Y-63271730D01*
X106016230Y-63581645D01*
X105772730Y-63946067D01*
X105605005Y-64350991D01*
X105519500Y-64780857D01*
X39638000Y-64780857D01*
X39552495Y-64350991D01*
X39384770Y-63946067D01*
X39141270Y-63581645D01*
X38831355Y-63271730D01*
X38466933Y-63028230D01*
X38062009Y-62860505D01*
X37632143Y-62775000D01*
X37193857Y-62775000D01*
X36763991Y-62860505D01*
X36359067Y-63028230D01*
X35994645Y-63271730D01*
X35684730Y-63581645D01*
X35441230Y-63946067D01*
X35273505Y-64350991D01*
X35188000Y-64780857D01*
X34482000Y-64780857D01*
X34482000Y-63535949D01*
X35976950Y-62041000D01*
X77306040Y-62041000D01*
X77274043Y-62146479D01*
G37*
X77274043Y-62146479D02*
X77261976Y-62269000D01*
X77261976Y-63969000D01*
X77274043Y-64091521D01*
X77309781Y-64209334D01*
X77367817Y-64317911D01*
X77445920Y-64413080D01*
X77541089Y-64491183D01*
X77649666Y-64549219D01*
X77767479Y-64584957D01*
X77890000Y-64597024D01*
X79590000Y-64597024D01*
X79712521Y-64584957D01*
X79830334Y-64549219D01*
X79938911Y-64491183D01*
X80034080Y-64413080D01*
X80112183Y-64317911D01*
X80170219Y-64209334D01*
X80199379Y-64113205D01*
X80325777Y-64243795D01*
X80362982Y-64274293D01*
X80555000Y-64220579D01*
X80555000Y-63844000D01*
X80430000Y-63844000D01*
X80430000Y-62394000D01*
X80555000Y-62394000D01*
X80555000Y-62269000D01*
X82005000Y-62269000D01*
X82005000Y-62394000D01*
X82130000Y-62394000D01*
X82130000Y-63844000D01*
X82005000Y-63844000D01*
X82005000Y-64220579D01*
X82197018Y-64274293D01*
X82234223Y-64243795D01*
X82435325Y-64036023D01*
X82429412Y-63994002D01*
X82630690Y-63994002D01*
X82674293Y-64059258D01*
X82879742Y-64264707D01*
X83121325Y-64426128D01*
X83389758Y-64537317D01*
X83674725Y-64594000D01*
X83965275Y-64594000D01*
X84250242Y-64537317D01*
X84518675Y-64426128D01*
X84760258Y-64264707D01*
X84965707Y-64059258D01*
X85090000Y-63873241D01*
X85214293Y-64059258D01*
X85419742Y-64264707D01*
X85661325Y-64426128D01*
X85929758Y-64537317D01*
X86214725Y-64594000D01*
X86505275Y-64594000D01*
X86790242Y-64537317D01*
X87058675Y-64426128D01*
X87300258Y-64264707D01*
X87505707Y-64059258D01*
X87630000Y-63873241D01*
X87754293Y-64059258D01*
X87959742Y-64264707D01*
X88201325Y-64426128D01*
X88469758Y-64537317D01*
X88754725Y-64594000D01*
X89045275Y-64594000D01*
X89330242Y-64537317D01*
X89598675Y-64426128D01*
X89840258Y-64264707D01*
X90045707Y-64059258D01*
X90170000Y-63873241D01*
X90294293Y-64059258D01*
X90499742Y-64264707D01*
X90741325Y-64426128D01*
X91009758Y-64537317D01*
X91294725Y-64594000D01*
X91585275Y-64594000D01*
X91870242Y-64537317D01*
X92138675Y-64426128D01*
X92380258Y-64264707D01*
X92585707Y-64059258D01*
X92710000Y-63873241D01*
X92834293Y-64059258D01*
X93039742Y-64264707D01*
X93281325Y-64426128D01*
X93549758Y-64537317D01*
X93834725Y-64594000D01*
X94125275Y-64594000D01*
X94410242Y-64537317D01*
X94678675Y-64426128D01*
X94920258Y-64264707D01*
X95125707Y-64059258D01*
X95250000Y-63873241D01*
X95374293Y-64059258D01*
X95579742Y-64264707D01*
X95821325Y-64426128D01*
X96089758Y-64537317D01*
X96374725Y-64594000D01*
X96665275Y-64594000D01*
X96950242Y-64537317D01*
X97218675Y-64426128D01*
X97460258Y-64264707D01*
X97665707Y-64059258D01*
X97790000Y-63873241D01*
X97914293Y-64059258D01*
X98119742Y-64264707D01*
X98361325Y-64426128D01*
X98629758Y-64537317D01*
X98914725Y-64594000D01*
X99205275Y-64594000D01*
X99490242Y-64537317D01*
X99758675Y-64426128D01*
X100000258Y-64264707D01*
X100205707Y-64059258D01*
X100330000Y-63873241D01*
X100454293Y-64059258D01*
X100659742Y-64264707D01*
X100901325Y-64426128D01*
X101169758Y-64537317D01*
X101454725Y-64594000D01*
X101745275Y-64594000D01*
X102030242Y-64537317D01*
X102298675Y-64426128D01*
X102540258Y-64264707D01*
X102745707Y-64059258D01*
X102907128Y-63817675D01*
X103018317Y-63549242D01*
X103075000Y-63264275D01*
X103075000Y-62973725D01*
X103018317Y-62688758D01*
X102907128Y-62420325D01*
X102745707Y-62178742D01*
X102607965Y-62041000D01*
X109184051Y-62041000D01*
X110679000Y-63535950D01*
X110679000Y-69090000D01*
X104095843Y-69090000D01*
X104071457Y-69092402D01*
X104048008Y-69099515D01*
X103906586Y-69158094D01*
X103884975Y-69169645D01*
X103866033Y-69185191D01*
X103475191Y-69576033D01*
X103459645Y-69594975D01*
X103448094Y-69616586D01*
X103389515Y-69758008D01*
X103382402Y-69781457D01*
X103380000Y-69805843D01*
X103380000Y-91484157D01*
X103382402Y-91508543D01*
X103389515Y-91531992D01*
X103448094Y-91673414D01*
X103459645Y-91695025D01*
X103475191Y-91713967D01*
X103866033Y-92104809D01*
X103884975Y-92120355D01*
X103906586Y-92131906D01*
X104048008Y-92190485D01*
X104071457Y-92197598D01*
X104095843Y-92200000D01*
X110679001Y-92200000D01*
X110679001Y-116423049D01*
X109184051Y-117918000D01*
X102607965Y-117918000D01*
X102745707Y-117780258D01*
X102907128Y-117538675D01*
X103018317Y-117270242D01*
X103075000Y-116985275D01*
X103075000Y-116694725D01*
X103018317Y-116409758D01*
X102907128Y-116141325D01*
X102745707Y-115899742D01*
X102540258Y-115694293D01*
X102298675Y-115532872D01*
X102030242Y-115421683D01*
X101745275Y-115365000D01*
X101454725Y-115365000D01*
X101169758Y-115421683D01*
X100901325Y-115532872D01*
X100659742Y-115694293D01*
X100454293Y-115899742D01*
X100330000Y-116085759D01*
X100205707Y-115899742D01*
X100000258Y-115694293D01*
X99758675Y-115532872D01*
X99490242Y-115421683D01*
X99205275Y-115365000D01*
X98914725Y-115365000D01*
X98629758Y-115421683D01*
X98361325Y-115532872D01*
X98119742Y-115694293D01*
X97914293Y-115899742D01*
X97790000Y-116085759D01*
X97665707Y-115899742D01*
X97460258Y-115694293D01*
X97218675Y-115532872D01*
X96950242Y-115421683D01*
X96665275Y-115365000D01*
X96480305Y-115365000D01*
X97064448Y-114780857D01*
X105519500Y-114780857D01*
X105519500Y-115219143D01*
X105605005Y-115649009D01*
X105772730Y-116053933D01*
X106016230Y-116418355D01*
X106326145Y-116728270D01*
X106690567Y-116971770D01*
X107095491Y-117139495D01*
X107525357Y-117225000D01*
X107963643Y-117225000D01*
X108393509Y-117139495D01*
X108798433Y-116971770D01*
X109162855Y-116728270D01*
X109472770Y-116418355D01*
X109716270Y-116053933D01*
X109883995Y-115649009D01*
X109969500Y-115219143D01*
X109969500Y-114780857D01*
X109883995Y-114350991D01*
X109716270Y-113946067D01*
X109472770Y-113581645D01*
X109162855Y-113271730D01*
X108798433Y-113028230D01*
X108393509Y-112860505D01*
X107963643Y-112775000D01*
X107525357Y-112775000D01*
X107095491Y-112860505D01*
X106690567Y-113028230D01*
X106326145Y-113271730D01*
X106016230Y-113581645D01*
X105772730Y-113946067D01*
X105605005Y-114350991D01*
X105519500Y-114780857D01*
X97064448Y-114780857D01*
X97108856Y-114736449D01*
X97196022Y-114700344D01*
X97363902Y-114588170D01*
X97506672Y-114445400D01*
X97618846Y-114277520D01*
X97696112Y-114090982D01*
X97735502Y-113892954D01*
X97735502Y-113691046D01*
X97696112Y-113493018D01*
X97618846Y-113306480D01*
X97506672Y-113138600D01*
X97363902Y-112995830D01*
X97196022Y-112883656D01*
X97009484Y-112806390D01*
X96811456Y-112767000D01*
X96609548Y-112767000D01*
X96411520Y-112806390D01*
X96224982Y-112883656D01*
X96057102Y-112995830D01*
X95914332Y-113138600D01*
X95802158Y-113306480D01*
X95724892Y-113493018D01*
X95685502Y-113691046D01*
X95685502Y-113892954D01*
X95721378Y-114073317D01*
X94379189Y-115415506D01*
X94125275Y-115365000D01*
X93834725Y-115365000D01*
X93549758Y-115421683D01*
X93281325Y-115532872D01*
X93039742Y-115694293D01*
X92834293Y-115899742D01*
X92710000Y-116085759D01*
X92585707Y-115899742D01*
X92380258Y-115694293D01*
X92138675Y-115532872D01*
X91870242Y-115421683D01*
X91585275Y-115365000D01*
X91294725Y-115365000D01*
X91009758Y-115421683D01*
X90741325Y-115532872D01*
X90499742Y-115694293D01*
X90294293Y-115899742D01*
X90170000Y-116085759D01*
X90045707Y-115899742D01*
X89840258Y-115694293D01*
X89598675Y-115532872D01*
X89330242Y-115421683D01*
X89045275Y-115365000D01*
X88754725Y-115365000D01*
X88469758Y-115421683D01*
X88201325Y-115532872D01*
X87959742Y-115694293D01*
X87754293Y-115899742D01*
X87630000Y-116085759D01*
X87505707Y-115899742D01*
X87300258Y-115694293D01*
X87058675Y-115532872D01*
X86790242Y-115421683D01*
X86505275Y-115365000D01*
X86214725Y-115365000D01*
X85929758Y-115421683D01*
X85661325Y-115532872D01*
X85419742Y-115694293D01*
X85214293Y-115899742D01*
X85090000Y-116085759D01*
X84965707Y-115899742D01*
X84760258Y-115694293D01*
X84518675Y-115532872D01*
X84250242Y-115421683D01*
X83965275Y-115365000D01*
X83674725Y-115365000D01*
X83389758Y-115421683D01*
X83121325Y-115532872D01*
X82879742Y-115694293D01*
X82674293Y-115899742D01*
X82630690Y-115964998D01*
X82429412Y-115964998D01*
X82435325Y-115922977D01*
X82234223Y-115715205D01*
X82197018Y-115684707D01*
X82005000Y-115738421D01*
X82005000Y-116115000D01*
X82130000Y-116115000D01*
X82130000Y-117565000D01*
X82005000Y-117565000D01*
X82005000Y-117690000D01*
X80555000Y-117690000D01*
X80555000Y-117565000D01*
X80430000Y-117565000D01*
X80430000Y-116115000D01*
X80555000Y-116115000D01*
X80555000Y-115738421D01*
X80362982Y-115684707D01*
X80325777Y-115715205D01*
X80199379Y-115845795D01*
X80170219Y-115749666D01*
X80112183Y-115641089D01*
X80034080Y-115545920D01*
X79938911Y-115467817D01*
X79830334Y-115409781D01*
X79712521Y-115374043D01*
X79590000Y-115361976D01*
X77890000Y-115361976D01*
X77767479Y-115374043D01*
X77649666Y-115409781D01*
X77541089Y-115467817D01*
X77445920Y-115545920D01*
X77367817Y-115641089D01*
X77309781Y-115749666D01*
X77274043Y-115867479D01*
X77261976Y-115990000D01*
X77261976Y-117690000D01*
X77274043Y-117812521D01*
X77306040Y-117918000D01*
X35976950Y-117918000D01*
X34482000Y-116423051D01*
X34482000Y-114780857D01*
X35188000Y-114780857D01*
X35188000Y-115219143D01*
X35273505Y-115649009D01*
X35441230Y-116053933D01*
X35684730Y-116418355D01*
X35994645Y-116728270D01*
X36359067Y-116971770D01*
X36763991Y-117139495D01*
X37193857Y-117225000D01*
X37632143Y-117225000D01*
X38062009Y-117139495D01*
X38466933Y-116971770D01*
X38831355Y-116728270D01*
X39141270Y-116418355D01*
X39384770Y-116053933D01*
X39552495Y-115649009D01*
X39638000Y-115219143D01*
X39638000Y-114780857D01*
X39552495Y-114350991D01*
X39384770Y-113946067D01*
X39141270Y-113581645D01*
X38831355Y-113271730D01*
X38466933Y-113028230D01*
X38062009Y-112860505D01*
X37632143Y-112775000D01*
X37193857Y-112775000D01*
X36763991Y-112860505D01*
X36359067Y-113028230D01*
X35994645Y-113271730D01*
X35684730Y-113581645D01*
X35441230Y-113946067D01*
X35273505Y-114350991D01*
X35188000Y-114780857D01*
X34482000Y-114780857D01*
X34482000Y-107668000D01*
X39464476Y-107668000D01*
X39476543Y-107790521D01*
X39512281Y-107908334D01*
X39570317Y-108016911D01*
X39648420Y-108112080D01*
X39743589Y-108190183D01*
X39852166Y-108248219D01*
X39969979Y-108283957D01*
X40092500Y-108296024D01*
X40561250Y-108293000D01*
X40717500Y-108136750D01*
X40717500Y-106793000D01*
X42467500Y-106793000D01*
X42467500Y-108136750D01*
X42623750Y-108293000D01*
X43092500Y-108296024D01*
X43215021Y-108283957D01*
X43332834Y-108248219D01*
X43441411Y-108190183D01*
X43536580Y-108112080D01*
X43614683Y-108016911D01*
X43672719Y-107908334D01*
X43708457Y-107790521D01*
X43720524Y-107668000D01*
X43717500Y-106949250D01*
X43561250Y-106793000D01*
X42467500Y-106793000D01*
X40717500Y-106793000D01*
X39623750Y-106793000D01*
X39467500Y-106949250D01*
X39464476Y-107668000D01*
X34482000Y-107668000D01*
X34482000Y-104168000D01*
X39464476Y-104168000D01*
X39467500Y-104886750D01*
X39623750Y-105043000D01*
X40717500Y-105043000D01*
X40717500Y-103699250D01*
X40561250Y-103543000D01*
X40092500Y-103539976D01*
X39969979Y-103552043D01*
X39852166Y-103587781D01*
X39743589Y-103645817D01*
X39648420Y-103723920D01*
X39570317Y-103819089D01*
X39512281Y-103927666D01*
X39476543Y-104045479D01*
X39464476Y-104168000D01*
X34482000Y-104168000D01*
X34482000Y-100264500D01*
X39774671Y-100264500D01*
X39867428Y-100301333D01*
X43379523Y-103612737D01*
X43332834Y-103587781D01*
X43215021Y-103552043D01*
X43092500Y-103539976D01*
X42623750Y-103543000D01*
X42467500Y-103699250D01*
X42467500Y-105043000D01*
X43561250Y-105043000D01*
X43717500Y-104886750D01*
X43720524Y-104168000D01*
X43708457Y-104045479D01*
X43672719Y-103927666D01*
X43631246Y-103850076D01*
X44155665Y-104344528D01*
X44198000Y-104442629D01*
X44198000Y-108239976D01*
X43717500Y-108239976D01*
X43424275Y-108268856D01*
X43142318Y-108354387D01*
X42882465Y-108493281D01*
X42654702Y-108680202D01*
X42467781Y-108907965D01*
X42328887Y-109167818D01*
X42243356Y-109449775D01*
X42214476Y-109743000D01*
X42214476Y-111493000D01*
X42243356Y-111786225D01*
X42328887Y-112068182D01*
X42467781Y-112328035D01*
X42654702Y-112555798D01*
X42882465Y-112742719D01*
X43142318Y-112881613D01*
X43424275Y-112967144D01*
X43717500Y-112996024D01*
X45467500Y-112996024D01*
X45760725Y-112967144D01*
X46042682Y-112881613D01*
X46302535Y-112742719D01*
X46530298Y-112555798D01*
X46717219Y-112328035D01*
X46856113Y-112068182D01*
X46941644Y-111786225D01*
X46970524Y-111493000D01*
X46970524Y-110234000D01*
X54131135Y-110234000D01*
X54201750Y-110263250D01*
X54231000Y-110333865D01*
X54231000Y-112258500D01*
X54233402Y-112282886D01*
X54240515Y-112306336D01*
X54299094Y-112447757D01*
X54310646Y-112469368D01*
X54326191Y-112488310D01*
X54345133Y-112503855D01*
X54366743Y-112515406D01*
X54508164Y-112573985D01*
X54531613Y-112581098D01*
X54556000Y-112583500D01*
X55489500Y-112583500D01*
X55513886Y-112581098D01*
X55537336Y-112573985D01*
X55678757Y-112515406D01*
X55700368Y-112503854D01*
X55719310Y-112488309D01*
X55734855Y-112469367D01*
X55746406Y-112447757D01*
X55804985Y-112306336D01*
X55812098Y-112282887D01*
X55814500Y-112258500D01*
X55814500Y-111921365D01*
X55843750Y-111850750D01*
X55914365Y-111821500D01*
X57750635Y-111821500D01*
X57821250Y-111850750D01*
X57850500Y-111921365D01*
X57850500Y-112258500D01*
X57852902Y-112282886D01*
X57860015Y-112306336D01*
X57918594Y-112447757D01*
X57930146Y-112469368D01*
X57945691Y-112488310D01*
X57964633Y-112503855D01*
X57986243Y-112515406D01*
X58127664Y-112573985D01*
X58151113Y-112581098D01*
X58175500Y-112583500D01*
X59426500Y-112583500D01*
X59450886Y-112581098D01*
X59474336Y-112573985D01*
X59615757Y-112515406D01*
X59637368Y-112503854D01*
X59656310Y-112488309D01*
X59671855Y-112469367D01*
X59683406Y-112447757D01*
X59741985Y-112306336D01*
X59749098Y-112282887D01*
X59751500Y-112258500D01*
X59751500Y-111921365D01*
X59780750Y-111850750D01*
X59851365Y-111821500D01*
X61878135Y-111821500D01*
X61948750Y-111850750D01*
X61978000Y-111921365D01*
X61978000Y-112258500D01*
X61980402Y-112282886D01*
X61987515Y-112306336D01*
X62046094Y-112447757D01*
X62057646Y-112469368D01*
X62073191Y-112488310D01*
X62092133Y-112503855D01*
X62113743Y-112515406D01*
X62255164Y-112573985D01*
X62278613Y-112581098D01*
X62303000Y-112583500D01*
X63935000Y-112583500D01*
X63959386Y-112581098D01*
X63982836Y-112573985D01*
X64124257Y-112515406D01*
X64145868Y-112503854D01*
X64164810Y-112488309D01*
X64180355Y-112469367D01*
X64191906Y-112447757D01*
X64250485Y-112306336D01*
X64257598Y-112282887D01*
X64260000Y-112258500D01*
X64260000Y-111921365D01*
X64289250Y-111850750D01*
X64359865Y-111821500D01*
X66259635Y-111821500D01*
X66330250Y-111850750D01*
X66359500Y-111921365D01*
X66359500Y-112258500D01*
X66361902Y-112282886D01*
X66369015Y-112306336D01*
X66427594Y-112447757D01*
X66439146Y-112469368D01*
X66454691Y-112488310D01*
X66473633Y-112503855D01*
X66495243Y-112515406D01*
X66636664Y-112573985D01*
X66660113Y-112581098D01*
X66684500Y-112583500D01*
X67999000Y-112583500D01*
X68023386Y-112581098D01*
X68046836Y-112573985D01*
X68188257Y-112515406D01*
X68209868Y-112503854D01*
X68228810Y-112488309D01*
X68244355Y-112469367D01*
X68255906Y-112447757D01*
X68314485Y-112306336D01*
X68321598Y-112282887D01*
X68324000Y-112258500D01*
X68324000Y-111921365D01*
X68353250Y-111850750D01*
X68423865Y-111821500D01*
X70450635Y-111821500D01*
X70521250Y-111850750D01*
X70550500Y-111921365D01*
X70550500Y-112258500D01*
X70552902Y-112282886D01*
X70560015Y-112306336D01*
X70618594Y-112447757D01*
X70630146Y-112469368D01*
X70645691Y-112488310D01*
X70664633Y-112503855D01*
X70686243Y-112515406D01*
X70827664Y-112573985D01*
X70851113Y-112581098D01*
X70875500Y-112583500D01*
X71428000Y-112583500D01*
X71452386Y-112581098D01*
X71475836Y-112573985D01*
X71617257Y-112515406D01*
X71638868Y-112503854D01*
X71657810Y-112488309D01*
X71673355Y-112469367D01*
X71684906Y-112447757D01*
X71743485Y-112306336D01*
X71750598Y-112282887D01*
X71753000Y-112258500D01*
X71753000Y-110262046D01*
X77397500Y-110262046D01*
X77397500Y-110463954D01*
X77436890Y-110661982D01*
X77514156Y-110848520D01*
X77626330Y-111016400D01*
X77769100Y-111159170D01*
X77936980Y-111271344D01*
X78123518Y-111348610D01*
X78321546Y-111388000D01*
X78523454Y-111388000D01*
X78721482Y-111348610D01*
X78908020Y-111271344D01*
X79075900Y-111159170D01*
X79211024Y-111024046D01*
X84192000Y-111024046D01*
X84192000Y-111225954D01*
X84231390Y-111423982D01*
X84308656Y-111610520D01*
X84420830Y-111778400D01*
X84563600Y-111921170D01*
X84731480Y-112033344D01*
X84918018Y-112110610D01*
X85116046Y-112150000D01*
X85317954Y-112150000D01*
X85515982Y-112110610D01*
X85702520Y-112033344D01*
X85870400Y-111921170D01*
X86013170Y-111778400D01*
X86125344Y-111610520D01*
X86202610Y-111423982D01*
X86242000Y-111225954D01*
X86242000Y-111024046D01*
X89272000Y-111024046D01*
X89272000Y-111225954D01*
X89311390Y-111423982D01*
X89388656Y-111610520D01*
X89500830Y-111778400D01*
X89643600Y-111921170D01*
X89811480Y-112033344D01*
X89998018Y-112110610D01*
X90196046Y-112150000D01*
X90397954Y-112150000D01*
X90595982Y-112110610D01*
X90782520Y-112033344D01*
X90950400Y-111921170D01*
X91093170Y-111778400D01*
X91205344Y-111610520D01*
X91282610Y-111423982D01*
X91322000Y-111225954D01*
X91322000Y-111024046D01*
X91282610Y-110826018D01*
X91205344Y-110639480D01*
X91093170Y-110471600D01*
X90950400Y-110328830D01*
X90782520Y-110216656D01*
X90595982Y-110139390D01*
X90397954Y-110100000D01*
X90196046Y-110100000D01*
X89998018Y-110139390D01*
X89811480Y-110216656D01*
X89643600Y-110328830D01*
X89500830Y-110471600D01*
X89388656Y-110639480D01*
X89311390Y-110826018D01*
X89272000Y-111024046D01*
X86242000Y-111024046D01*
X86202610Y-110826018D01*
X86125344Y-110639480D01*
X86013170Y-110471600D01*
X85870400Y-110328830D01*
X85702520Y-110216656D01*
X85515982Y-110139390D01*
X85317954Y-110100000D01*
X85116046Y-110100000D01*
X84918018Y-110139390D01*
X84731480Y-110216656D01*
X84563600Y-110328830D01*
X84420830Y-110471600D01*
X84308656Y-110639480D01*
X84231390Y-110826018D01*
X84192000Y-111024046D01*
X79211024Y-111024046D01*
X79218670Y-111016400D01*
X79330844Y-110848520D01*
X79408110Y-110661982D01*
X79447500Y-110463954D01*
X79447500Y-110262046D01*
X79408110Y-110064018D01*
X79330844Y-109877480D01*
X79218670Y-109709600D01*
X79075900Y-109566830D01*
X78908020Y-109454656D01*
X78721482Y-109377390D01*
X78523454Y-109338000D01*
X78321546Y-109338000D01*
X78123518Y-109377390D01*
X77936980Y-109454656D01*
X77769100Y-109566830D01*
X77626330Y-109709600D01*
X77514156Y-109877480D01*
X77436890Y-110064018D01*
X77397500Y-110262046D01*
X71753000Y-110262046D01*
X71753000Y-107793865D01*
X71782250Y-107723250D01*
X71852865Y-107694000D01*
X75238000Y-107694000D01*
X75262386Y-107691598D01*
X75285836Y-107684485D01*
X75427257Y-107625906D01*
X75448868Y-107614354D01*
X75467810Y-107598809D01*
X75483355Y-107579867D01*
X75494906Y-107558257D01*
X75553485Y-107416836D01*
X75560598Y-107393387D01*
X75563000Y-107369000D01*
X75563000Y-107167807D01*
X78139629Y-107167807D01*
X78293606Y-107355137D01*
X78652908Y-107366905D01*
X78772394Y-107355137D01*
X78926371Y-107167807D01*
X78533000Y-106774437D01*
X78139629Y-107167807D01*
X75563000Y-107167807D01*
X75563000Y-106579046D01*
X83811000Y-106579046D01*
X83811000Y-106780954D01*
X83850390Y-106978982D01*
X83927656Y-107165520D01*
X84039830Y-107333400D01*
X84182600Y-107476170D01*
X84350480Y-107588344D01*
X84537018Y-107665610D01*
X84735046Y-107705000D01*
X84936954Y-107705000D01*
X85134982Y-107665610D01*
X85321520Y-107588344D01*
X85344000Y-107573323D01*
X85366480Y-107588344D01*
X85553018Y-107665610D01*
X85751046Y-107705000D01*
X85952954Y-107705000D01*
X86150982Y-107665610D01*
X86337520Y-107588344D01*
X86360000Y-107573323D01*
X86382480Y-107588344D01*
X86569018Y-107665610D01*
X86767046Y-107705000D01*
X86968954Y-107705000D01*
X87166982Y-107665610D01*
X87353520Y-107588344D01*
X87521400Y-107476170D01*
X87664170Y-107333400D01*
X87776344Y-107165520D01*
X87853610Y-106978982D01*
X87882638Y-106833046D01*
X92828000Y-106833046D01*
X92828000Y-107034954D01*
X92867390Y-107232982D01*
X92944656Y-107419520D01*
X93056830Y-107587400D01*
X93199600Y-107730170D01*
X93367480Y-107842344D01*
X93554018Y-107919610D01*
X93752046Y-107959000D01*
X93953954Y-107959000D01*
X94151982Y-107919610D01*
X94338520Y-107842344D01*
X94506400Y-107730170D01*
X94649170Y-107587400D01*
X94761344Y-107419520D01*
X94838610Y-107232982D01*
X94878000Y-107034954D01*
X94878000Y-106833046D01*
X94838610Y-106635018D01*
X94761344Y-106448480D01*
X94649170Y-106280600D01*
X94506400Y-106137830D01*
X94338520Y-106025656D01*
X94151982Y-105948390D01*
X93953954Y-105909000D01*
X93752046Y-105909000D01*
X93554018Y-105948390D01*
X93367480Y-106025656D01*
X93199600Y-106137830D01*
X93056830Y-106280600D01*
X92944656Y-106448480D01*
X92867390Y-106635018D01*
X92828000Y-106833046D01*
X87882638Y-106833046D01*
X87893000Y-106780954D01*
X87893000Y-106579046D01*
X87853610Y-106381018D01*
X87776344Y-106194480D01*
X87664170Y-106026600D01*
X87521400Y-105883830D01*
X87353520Y-105771656D01*
X87166982Y-105694390D01*
X86968954Y-105655000D01*
X86767046Y-105655000D01*
X86569018Y-105694390D01*
X86382480Y-105771656D01*
X86360000Y-105786677D01*
X86337520Y-105771656D01*
X86150982Y-105694390D01*
X85952954Y-105655000D01*
X85751046Y-105655000D01*
X85553018Y-105694390D01*
X85366480Y-105771656D01*
X85344000Y-105786677D01*
X85321520Y-105771656D01*
X85134982Y-105694390D01*
X84936954Y-105655000D01*
X84735046Y-105655000D01*
X84537018Y-105694390D01*
X84350480Y-105771656D01*
X84182600Y-105883830D01*
X84039830Y-106026600D01*
X83927656Y-106194480D01*
X83850390Y-106381018D01*
X83811000Y-106579046D01*
X75563000Y-106579046D01*
X75563000Y-105656908D01*
X76703095Y-105656908D01*
X76714863Y-105776394D01*
X76902193Y-105930371D01*
X77295563Y-105537000D01*
X79770437Y-105537000D01*
X80163807Y-105930371D01*
X80351137Y-105776394D01*
X80362905Y-105417092D01*
X80351137Y-105297606D01*
X80163807Y-105143629D01*
X79770437Y-105537000D01*
X77295563Y-105537000D01*
X76902193Y-105143629D01*
X76714863Y-105297606D01*
X76703095Y-105656908D01*
X75563000Y-105656908D01*
X75563000Y-103906193D01*
X78139629Y-103906193D01*
X78533000Y-104299563D01*
X78926371Y-103906193D01*
X78772394Y-103718863D01*
X78413092Y-103707095D01*
X78293606Y-103718863D01*
X78139629Y-103906193D01*
X75563000Y-103906193D01*
X75563000Y-102197546D01*
X103686500Y-102197546D01*
X103686500Y-102399454D01*
X103725890Y-102597482D01*
X103803156Y-102784020D01*
X103915330Y-102951900D01*
X104058100Y-103094670D01*
X104225980Y-103206844D01*
X104412518Y-103284110D01*
X104610546Y-103323500D01*
X104812454Y-103323500D01*
X105010482Y-103284110D01*
X105197020Y-103206844D01*
X105364900Y-103094670D01*
X105507670Y-102951900D01*
X105619844Y-102784020D01*
X105697110Y-102597482D01*
X105736500Y-102399454D01*
X105736500Y-102197546D01*
X105697110Y-101999518D01*
X105619844Y-101812980D01*
X105507670Y-101645100D01*
X105364900Y-101502330D01*
X105197020Y-101390156D01*
X105010482Y-101312890D01*
X104812454Y-101273500D01*
X104610546Y-101273500D01*
X104412518Y-101312890D01*
X104225980Y-101390156D01*
X104058100Y-101502330D01*
X103915330Y-101645100D01*
X103803156Y-101812980D01*
X103725890Y-101999518D01*
X103686500Y-102197546D01*
X75563000Y-102197546D01*
X75563000Y-99530546D01*
X103686500Y-99530546D01*
X103686500Y-99732454D01*
X103725890Y-99930482D01*
X103803156Y-100117020D01*
X103915330Y-100284900D01*
X104058100Y-100427670D01*
X104225980Y-100539844D01*
X104412518Y-100617110D01*
X104610546Y-100656500D01*
X104812454Y-100656500D01*
X105010482Y-100617110D01*
X105197020Y-100539844D01*
X105364900Y-100427670D01*
X105507670Y-100284900D01*
X105619844Y-100117020D01*
X105697110Y-99930482D01*
X105736500Y-99732454D01*
X105736500Y-99530546D01*
X105697110Y-99332518D01*
X105619844Y-99145980D01*
X105507670Y-98978100D01*
X105364900Y-98835330D01*
X105197020Y-98723156D01*
X105010482Y-98645890D01*
X104812454Y-98606500D01*
X104610546Y-98606500D01*
X104412518Y-98645890D01*
X104225980Y-98723156D01*
X104058100Y-98835330D01*
X103915330Y-98978100D01*
X103803156Y-99145980D01*
X103725890Y-99332518D01*
X103686500Y-99530546D01*
X75563000Y-99530546D01*
X75563000Y-98380843D01*
X75560598Y-98356457D01*
X75553485Y-98333008D01*
X75494906Y-98191586D01*
X75483355Y-98169975D01*
X75467809Y-98151033D01*
X73545322Y-96228546D01*
X88764000Y-96228546D01*
X88764000Y-96430454D01*
X88803390Y-96628482D01*
X88880656Y-96815020D01*
X88992830Y-96982900D01*
X89135600Y-97125670D01*
X89303480Y-97237844D01*
X89490018Y-97315110D01*
X89688046Y-97354500D01*
X89889954Y-97354500D01*
X90087982Y-97315110D01*
X90274520Y-97237844D01*
X90442400Y-97125670D01*
X90585170Y-96982900D01*
X90664919Y-96863546D01*
X103623000Y-96863546D01*
X103623000Y-97065454D01*
X103662390Y-97263482D01*
X103739656Y-97450020D01*
X103851830Y-97617900D01*
X103994600Y-97760670D01*
X104162480Y-97872844D01*
X104349018Y-97950110D01*
X104547046Y-97989500D01*
X104748954Y-97989500D01*
X104946982Y-97950110D01*
X105133520Y-97872844D01*
X105301400Y-97760670D01*
X105444170Y-97617900D01*
X105556344Y-97450020D01*
X105633610Y-97263482D01*
X105673000Y-97065454D01*
X105673000Y-96863546D01*
X105633610Y-96665518D01*
X105556344Y-96478980D01*
X105444170Y-96311100D01*
X105301400Y-96168330D01*
X105133520Y-96056156D01*
X104946982Y-95978890D01*
X104748954Y-95939500D01*
X104547046Y-95939500D01*
X104349018Y-95978890D01*
X104162480Y-96056156D01*
X103994600Y-96168330D01*
X103851830Y-96311100D01*
X103739656Y-96478980D01*
X103662390Y-96665518D01*
X103623000Y-96863546D01*
X90664919Y-96863546D01*
X90697344Y-96815020D01*
X90774610Y-96628482D01*
X90814000Y-96430454D01*
X90814000Y-96228546D01*
X90774610Y-96030518D01*
X90697344Y-95843980D01*
X90585170Y-95676100D01*
X90442400Y-95533330D01*
X90274520Y-95421156D01*
X90087982Y-95343890D01*
X89889954Y-95304500D01*
X89688046Y-95304500D01*
X89490018Y-95343890D01*
X89303480Y-95421156D01*
X89135600Y-95533330D01*
X88992830Y-95676100D01*
X88880656Y-95843980D01*
X88803390Y-96030518D01*
X88764000Y-96228546D01*
X73545322Y-96228546D01*
X72300549Y-94983773D01*
X72261000Y-94888293D01*
X72261000Y-94861249D01*
X72262500Y-94846021D01*
X72262500Y-94846014D01*
X72266490Y-94805501D01*
X72262500Y-94764988D01*
X72262500Y-94514046D01*
X90732500Y-94514046D01*
X90732500Y-94715954D01*
X90771890Y-94913982D01*
X90849156Y-95100520D01*
X90961330Y-95268400D01*
X91104100Y-95411170D01*
X91271980Y-95523344D01*
X91458518Y-95600610D01*
X91656546Y-95640000D01*
X91757195Y-95640000D01*
X91854672Y-95737477D01*
X91877368Y-95765132D01*
X91905023Y-95787828D01*
X91905025Y-95787830D01*
X91969178Y-95840479D01*
X91987763Y-95855731D01*
X92113712Y-95923053D01*
X92250375Y-95964509D01*
X92356893Y-95975000D01*
X92356900Y-95975000D01*
X92392500Y-95978506D01*
X92428100Y-95975000D01*
X99922930Y-95975000D01*
X99994100Y-96046170D01*
X100161980Y-96158344D01*
X100348518Y-96235610D01*
X100546546Y-96275000D01*
X100748454Y-96275000D01*
X100946482Y-96235610D01*
X101133020Y-96158344D01*
X101300900Y-96046170D01*
X101443670Y-95903400D01*
X101555844Y-95735520D01*
X101633110Y-95548982D01*
X101672500Y-95350954D01*
X101672500Y-95149046D01*
X101633110Y-94951018D01*
X101555844Y-94764480D01*
X101443670Y-94596600D01*
X101300900Y-94453830D01*
X101133020Y-94341656D01*
X100946482Y-94264390D01*
X100748454Y-94225000D01*
X100546546Y-94225000D01*
X100348518Y-94264390D01*
X100161980Y-94341656D01*
X99994100Y-94453830D01*
X99922930Y-94525000D01*
X99716009Y-94525000D01*
X99791610Y-94342482D01*
X99831000Y-94144454D01*
X99831000Y-93942546D01*
X99791610Y-93744518D01*
X99714344Y-93557980D01*
X99602170Y-93390100D01*
X99459400Y-93247330D01*
X99291520Y-93135156D01*
X99104982Y-93057890D01*
X99042113Y-93045385D01*
X99029608Y-92982518D01*
X98952342Y-92795980D01*
X98840168Y-92628100D01*
X98697398Y-92485330D01*
X98529518Y-92373156D01*
X98342980Y-92295890D01*
X98144952Y-92256500D01*
X97943044Y-92256500D01*
X97876411Y-92269754D01*
X97755647Y-92148990D01*
X97587767Y-92036816D01*
X97401229Y-91959550D01*
X97203201Y-91920160D01*
X97001293Y-91920160D01*
X96803265Y-91959550D01*
X96616727Y-92036816D01*
X96448847Y-92148990D01*
X96377677Y-92220160D01*
X93654946Y-92220160D01*
X93619349Y-92216654D01*
X93583752Y-92220160D01*
X93583743Y-92220160D01*
X93477225Y-92230651D01*
X93340562Y-92272107D01*
X93250962Y-92320000D01*
X93118556Y-92320000D01*
X92920528Y-92359390D01*
X92733990Y-92436656D01*
X92566110Y-92548830D01*
X92423340Y-92691600D01*
X92311166Y-92859480D01*
X92233900Y-93046018D01*
X92194510Y-93244046D01*
X92194510Y-93445954D01*
X92233900Y-93643982D01*
X92266305Y-93722214D01*
X92243020Y-93706656D01*
X92056482Y-93629390D01*
X91858454Y-93590000D01*
X91656546Y-93590000D01*
X91458518Y-93629390D01*
X91271980Y-93706656D01*
X91104100Y-93818830D01*
X90961330Y-93961600D01*
X90849156Y-94129480D01*
X90771890Y-94316018D01*
X90732500Y-94514046D01*
X72262500Y-94514046D01*
X72262500Y-93447253D01*
X72345844Y-93322520D01*
X72423110Y-93135982D01*
X72462500Y-92937954D01*
X72462500Y-92736046D01*
X72423110Y-92538018D01*
X72345844Y-92351480D01*
X72261000Y-92224502D01*
X72261000Y-92084500D01*
X72258598Y-92060114D01*
X72251485Y-92036664D01*
X72230914Y-91987000D01*
X77261976Y-91987000D01*
X77261976Y-93687000D01*
X77274043Y-93809521D01*
X77309781Y-93927334D01*
X77367817Y-94035911D01*
X77445920Y-94131080D01*
X77541089Y-94209183D01*
X77649666Y-94267219D01*
X77767479Y-94302957D01*
X77890000Y-94315024D01*
X79590000Y-94315024D01*
X79712521Y-94302957D01*
X79830334Y-94267219D01*
X79938911Y-94209183D01*
X80034080Y-94131080D01*
X80112183Y-94035911D01*
X80170219Y-93927334D01*
X80199379Y-93831205D01*
X80325777Y-93961795D01*
X80362982Y-93992293D01*
X80555000Y-93938579D01*
X80555000Y-93562000D01*
X82005000Y-93562000D01*
X82005000Y-93938579D01*
X82197018Y-93992293D01*
X82234223Y-93961795D01*
X82435325Y-93754023D01*
X82408305Y-93562000D01*
X82005000Y-93562000D01*
X80555000Y-93562000D01*
X80430000Y-93562000D01*
X80430000Y-92112000D01*
X80555000Y-92112000D01*
X80555000Y-91735421D01*
X82005000Y-91735421D01*
X82005000Y-92112000D01*
X82408305Y-92112000D01*
X82435325Y-91919977D01*
X82234223Y-91712205D01*
X82197018Y-91681707D01*
X82005000Y-91735421D01*
X80555000Y-91735421D01*
X80362982Y-91681707D01*
X80325777Y-91712205D01*
X80199379Y-91842795D01*
X80170219Y-91746666D01*
X80112183Y-91638089D01*
X80034080Y-91542920D01*
X79938911Y-91464817D01*
X79830334Y-91406781D01*
X79712521Y-91371043D01*
X79590000Y-91358976D01*
X77890000Y-91358976D01*
X77767479Y-91371043D01*
X77649666Y-91406781D01*
X77541089Y-91464817D01*
X77445920Y-91542920D01*
X77367817Y-91638089D01*
X77309781Y-91746666D01*
X77274043Y-91864479D01*
X77261976Y-91987000D01*
X72230914Y-91987000D01*
X72192906Y-91895243D01*
X72181354Y-91873632D01*
X72165809Y-91854690D01*
X72146867Y-91839145D01*
X72125257Y-91827594D01*
X71983836Y-91769015D01*
X71960387Y-91761902D01*
X71936000Y-91759500D01*
X60341205Y-91759500D01*
X60324296Y-91758456D01*
X46187471Y-90006992D01*
X46124287Y-89973683D01*
X46099000Y-89906883D01*
X46099000Y-89671222D01*
X46124305Y-89604404D01*
X46187522Y-89571110D01*
X48328326Y-89307046D01*
X78286500Y-89307046D01*
X78286500Y-89508954D01*
X78325890Y-89706982D01*
X78403156Y-89893520D01*
X78515330Y-90061400D01*
X78658100Y-90204170D01*
X78825980Y-90316344D01*
X79012518Y-90393610D01*
X79210546Y-90433000D01*
X79412454Y-90433000D01*
X79610482Y-90393610D01*
X79797020Y-90316344D01*
X79964900Y-90204170D01*
X80107670Y-90061400D01*
X80219844Y-89893520D01*
X80297110Y-89706982D01*
X80336500Y-89508954D01*
X80336500Y-89307046D01*
X80297110Y-89109018D01*
X80219844Y-88922480D01*
X80107670Y-88754600D01*
X79964900Y-88611830D01*
X79797020Y-88499656D01*
X79610482Y-88422390D01*
X79412454Y-88383000D01*
X79210546Y-88383000D01*
X79012518Y-88422390D01*
X78825980Y-88499656D01*
X78658100Y-88611830D01*
X78515330Y-88754600D01*
X78403156Y-88922480D01*
X78325890Y-89109018D01*
X78286500Y-89307046D01*
X48328326Y-89307046D01*
X60387800Y-87819534D01*
X60404626Y-87818500D01*
X71936000Y-87818500D01*
X71960386Y-87816098D01*
X71983836Y-87808985D01*
X72125257Y-87750406D01*
X72146868Y-87738854D01*
X72165810Y-87723309D01*
X72181355Y-87704367D01*
X72192906Y-87682757D01*
X72251485Y-87541336D01*
X72258598Y-87517887D01*
X72261000Y-87493500D01*
X72261000Y-87289998D01*
X72345844Y-87163020D01*
X72357175Y-87135664D01*
X80801418Y-87135664D01*
X80801418Y-87337572D01*
X80840808Y-87535600D01*
X80918074Y-87722138D01*
X81030248Y-87890018D01*
X81173018Y-88032788D01*
X81340898Y-88144962D01*
X81527436Y-88222228D01*
X81725464Y-88261618D01*
X81927372Y-88261618D01*
X82125400Y-88222228D01*
X82311938Y-88144962D01*
X82479818Y-88032788D01*
X82622588Y-87890018D01*
X82734762Y-87722138D01*
X82812028Y-87535600D01*
X82851418Y-87337572D01*
X82851418Y-87135664D01*
X82812028Y-86937636D01*
X82734762Y-86751098D01*
X82622588Y-86583218D01*
X82479818Y-86440448D01*
X82311938Y-86328274D01*
X82125400Y-86251008D01*
X81927372Y-86211618D01*
X81725464Y-86211618D01*
X81527436Y-86251008D01*
X81340898Y-86328274D01*
X81173018Y-86440448D01*
X81030248Y-86583218D01*
X80918074Y-86751098D01*
X80840808Y-86937636D01*
X80801418Y-87135664D01*
X72357175Y-87135664D01*
X72423110Y-86976482D01*
X72462500Y-86778454D01*
X72462500Y-86576546D01*
X72423110Y-86378518D01*
X72345844Y-86191980D01*
X72262500Y-86067247D01*
X72262500Y-85003521D01*
X72266491Y-84963000D01*
X72264515Y-84942940D01*
X72305093Y-84851212D01*
X75647119Y-81813007D01*
X75663548Y-81794825D01*
X75677349Y-81771083D01*
X75742814Y-81623095D01*
X75750483Y-81599822D01*
X75753500Y-81572526D01*
X75753500Y-79528046D01*
X85906498Y-79528046D01*
X85906498Y-79729954D01*
X85945888Y-79927982D01*
X86023154Y-80114520D01*
X86135328Y-80282400D01*
X86278098Y-80425170D01*
X86445978Y-80537344D01*
X86632516Y-80614610D01*
X86830544Y-80654000D01*
X87032452Y-80654000D01*
X87230480Y-80614610D01*
X87417018Y-80537344D01*
X87584898Y-80425170D01*
X87656068Y-80354000D01*
X88700500Y-80354000D01*
X88700500Y-80428454D01*
X88739890Y-80626482D01*
X88817156Y-80813020D01*
X88929330Y-80980900D01*
X89072100Y-81123670D01*
X89239980Y-81235844D01*
X89426518Y-81313110D01*
X89624546Y-81352500D01*
X89725196Y-81352500D01*
X90207001Y-81834306D01*
X90207001Y-81952429D01*
X90135830Y-82023600D01*
X90023656Y-82191480D01*
X89946390Y-82378018D01*
X89927920Y-82470875D01*
X88927240Y-81470196D01*
X88927240Y-81369546D01*
X88887850Y-81171518D01*
X88810584Y-80984980D01*
X88698410Y-80817100D01*
X88555640Y-80674330D01*
X88387760Y-80562156D01*
X88201222Y-80484890D01*
X88003194Y-80445500D01*
X87801286Y-80445500D01*
X87603258Y-80484890D01*
X87416720Y-80562156D01*
X87248840Y-80674330D01*
X87106070Y-80817100D01*
X86993896Y-80984980D01*
X86916630Y-81171518D01*
X86877240Y-81369546D01*
X86877240Y-81571454D01*
X86916630Y-81769482D01*
X86993896Y-81956020D01*
X87106070Y-82123900D01*
X87248840Y-82266670D01*
X87416720Y-82378844D01*
X87603258Y-82456110D01*
X87801286Y-82495500D01*
X87901936Y-82495500D01*
X89162832Y-83756397D01*
X89145000Y-83846046D01*
X89145000Y-84047954D01*
X89184390Y-84245982D01*
X89261656Y-84432520D01*
X89373830Y-84600400D01*
X89516600Y-84743170D01*
X89684480Y-84855344D01*
X89871018Y-84932610D01*
X90069046Y-84972000D01*
X90270954Y-84972000D01*
X90468982Y-84932610D01*
X90655520Y-84855344D01*
X90662233Y-84850859D01*
X90670170Y-84856162D01*
X90669000Y-84862046D01*
X90669000Y-85063954D01*
X90708390Y-85261982D01*
X90785656Y-85448520D01*
X90897830Y-85616400D01*
X91040600Y-85759170D01*
X91208480Y-85871344D01*
X91395018Y-85948610D01*
X91593046Y-85988000D01*
X91794954Y-85988000D01*
X91992982Y-85948610D01*
X92179520Y-85871344D01*
X92347400Y-85759170D01*
X92490170Y-85616400D01*
X92602344Y-85448520D01*
X92679610Y-85261982D01*
X92719000Y-85063954D01*
X92719000Y-84953651D01*
X92742721Y-84924747D01*
X92766114Y-84880982D01*
X92810043Y-84798798D01*
X92851499Y-84662135D01*
X92861990Y-84555617D01*
X92861990Y-84555608D01*
X92865496Y-84520011D01*
X92861990Y-84484414D01*
X92861990Y-78639070D01*
X92933160Y-78567900D01*
X93045334Y-78400020D01*
X93122600Y-78213482D01*
X93161990Y-78015454D01*
X93161990Y-77813546D01*
X93122600Y-77615518D01*
X93045334Y-77428980D01*
X92933160Y-77261100D01*
X92790390Y-77118330D01*
X92622510Y-77006156D01*
X92435972Y-76928890D01*
X92237944Y-76889500D01*
X92036036Y-76889500D01*
X91838008Y-76928890D01*
X91651470Y-77006156D01*
X91483590Y-77118330D01*
X91408854Y-77193066D01*
X91230982Y-77119390D01*
X91032954Y-77080000D01*
X90831046Y-77080000D01*
X90633018Y-77119390D01*
X90446480Y-77196656D01*
X90278600Y-77308830D01*
X90135830Y-77451600D01*
X90023656Y-77619480D01*
X89946390Y-77806018D01*
X89933885Y-77868885D01*
X89871018Y-77881390D01*
X89684480Y-77958656D01*
X89516600Y-78070830D01*
X89373830Y-78213600D01*
X89261656Y-78381480D01*
X89184390Y-78568018D01*
X89145000Y-78766046D01*
X89145000Y-78866696D01*
X89107696Y-78904000D01*
X87656068Y-78904000D01*
X87584898Y-78832830D01*
X87417018Y-78720656D01*
X87230480Y-78643390D01*
X87032452Y-78604000D01*
X86830544Y-78604000D01*
X86632516Y-78643390D01*
X86445978Y-78720656D01*
X86278098Y-78832830D01*
X86135328Y-78975600D01*
X86023154Y-79143480D01*
X85945888Y-79330018D01*
X85906498Y-79528046D01*
X75753500Y-79528046D01*
X75753500Y-75989307D01*
X78330129Y-75989307D01*
X78484106Y-76176637D01*
X78843408Y-76188405D01*
X78962894Y-76176637D01*
X79116871Y-75989307D01*
X78723500Y-75595937D01*
X78330129Y-75989307D01*
X75753500Y-75989307D01*
X75753500Y-74478408D01*
X76893595Y-74478408D01*
X76905363Y-74597894D01*
X77092693Y-74751871D01*
X77486063Y-74358500D01*
X79960937Y-74358500D01*
X80354307Y-74751871D01*
X80541637Y-74597894D01*
X80553405Y-74238592D01*
X80541637Y-74119106D01*
X80354307Y-73965129D01*
X79960937Y-74358500D01*
X77486063Y-74358500D01*
X77092693Y-73965129D01*
X76905363Y-74119106D01*
X76893595Y-74478408D01*
X75753500Y-74478408D01*
X75753500Y-73178046D01*
X96066502Y-73178046D01*
X96066502Y-73379954D01*
X96105892Y-73577982D01*
X96183158Y-73764520D01*
X96295332Y-73932400D01*
X96438102Y-74075170D01*
X96605982Y-74187344D01*
X96792520Y-74264610D01*
X96990548Y-74304000D01*
X97192456Y-74304000D01*
X97390484Y-74264610D01*
X97577022Y-74187344D01*
X97744902Y-74075170D01*
X97816072Y-74004000D01*
X98271930Y-74004000D01*
X98343100Y-74075170D01*
X98510980Y-74187344D01*
X98697518Y-74264610D01*
X98895546Y-74304000D01*
X99097454Y-74304000D01*
X99295482Y-74264610D01*
X99482020Y-74187344D01*
X99649900Y-74075170D01*
X99792670Y-73932400D01*
X99904844Y-73764520D01*
X99982110Y-73577982D01*
X100021500Y-73379954D01*
X100021500Y-73178046D01*
X99982110Y-72980018D01*
X99904844Y-72793480D01*
X99792670Y-72625600D01*
X99649900Y-72482830D01*
X99482020Y-72370656D01*
X99295482Y-72293390D01*
X99097454Y-72254000D01*
X98895546Y-72254000D01*
X98697518Y-72293390D01*
X98510980Y-72370656D01*
X98343100Y-72482830D01*
X98271930Y-72554000D01*
X97816072Y-72554000D01*
X97744902Y-72482830D01*
X97577022Y-72370656D01*
X97390484Y-72293390D01*
X97192456Y-72254000D01*
X96990548Y-72254000D01*
X96792520Y-72293390D01*
X96605982Y-72370656D01*
X96438102Y-72482830D01*
X96295332Y-72625600D01*
X96183158Y-72793480D01*
X96105892Y-72980018D01*
X96066502Y-73178046D01*
X75753500Y-73178046D01*
X75753500Y-72727693D01*
X78330129Y-72727693D01*
X78723500Y-73121063D01*
X79116871Y-72727693D01*
X78962894Y-72540363D01*
X78603592Y-72528595D01*
X78484106Y-72540363D01*
X78330129Y-72727693D01*
X75753500Y-72727693D01*
X75753500Y-72272500D01*
X75751098Y-72248114D01*
X75743985Y-72224664D01*
X75685406Y-72083243D01*
X75673854Y-72061632D01*
X75658309Y-72042690D01*
X75639367Y-72027145D01*
X75617757Y-72015594D01*
X75476336Y-71957015D01*
X75452887Y-71949902D01*
X75428500Y-71947500D01*
X72233865Y-71947500D01*
X72163250Y-71918250D01*
X72134000Y-71847635D01*
X72134000Y-68860046D01*
X92002500Y-68860046D01*
X92002500Y-69061954D01*
X92041890Y-69259982D01*
X92119156Y-69446520D01*
X92231330Y-69614400D01*
X92374100Y-69757170D01*
X92541980Y-69869344D01*
X92728518Y-69946610D01*
X92926546Y-69986000D01*
X93128454Y-69986000D01*
X93326482Y-69946610D01*
X93513020Y-69869344D01*
X93519733Y-69864859D01*
X93621480Y-69932844D01*
X93808018Y-70010110D01*
X94006046Y-70049500D01*
X94106695Y-70049500D01*
X94394672Y-70337477D01*
X94417368Y-70365132D01*
X94445023Y-70387828D01*
X94445025Y-70387830D01*
X94460695Y-70400690D01*
X94527763Y-70455731D01*
X94653712Y-70523053D01*
X94790375Y-70564509D01*
X94896893Y-70575000D01*
X94896902Y-70575000D01*
X94932499Y-70578506D01*
X94968096Y-70575000D01*
X99287930Y-70575000D01*
X99359100Y-70646170D01*
X99526980Y-70758344D01*
X99713518Y-70835610D01*
X99911546Y-70875000D01*
X100113454Y-70875000D01*
X100311482Y-70835610D01*
X100498020Y-70758344D01*
X100665900Y-70646170D01*
X100808670Y-70503400D01*
X100920844Y-70335520D01*
X100998110Y-70148982D01*
X101037500Y-69950954D01*
X101037500Y-69749046D01*
X100998110Y-69551018D01*
X100920844Y-69364480D01*
X100808670Y-69196600D01*
X100665900Y-69053830D01*
X100498020Y-68941656D01*
X100311482Y-68864390D01*
X100113454Y-68825000D01*
X99911546Y-68825000D01*
X99713518Y-68864390D01*
X99526980Y-68941656D01*
X99359100Y-69053830D01*
X99287930Y-69125000D01*
X97037000Y-69125000D01*
X97037000Y-68987500D01*
X99219307Y-68987500D01*
X99254904Y-68991006D01*
X99290501Y-68987500D01*
X99290511Y-68987500D01*
X99397029Y-68977009D01*
X99533692Y-68935553D01*
X99659641Y-68868231D01*
X99770036Y-68777632D01*
X99792736Y-68749972D01*
X100364255Y-68178454D01*
X100464904Y-68178454D01*
X100662932Y-68139064D01*
X100849470Y-68061798D01*
X101017350Y-67949624D01*
X101160120Y-67806854D01*
X101272294Y-67638974D01*
X101349560Y-67452436D01*
X101388950Y-67254408D01*
X101388950Y-67052500D01*
X101349560Y-66854472D01*
X101272294Y-66667934D01*
X101160120Y-66500054D01*
X101017350Y-66357284D01*
X100866586Y-66256546D01*
X102543500Y-66256546D01*
X102543500Y-66458454D01*
X102582890Y-66656482D01*
X102660156Y-66843020D01*
X102772330Y-67010900D01*
X102915100Y-67153670D01*
X103082980Y-67265844D01*
X103269518Y-67343110D01*
X103467546Y-67382500D01*
X103669454Y-67382500D01*
X103867482Y-67343110D01*
X104054020Y-67265844D01*
X104221900Y-67153670D01*
X104364670Y-67010900D01*
X104476844Y-66843020D01*
X104554110Y-66656482D01*
X104593500Y-66458454D01*
X104593500Y-66256546D01*
X104554110Y-66058518D01*
X104476844Y-65871980D01*
X104364670Y-65704100D01*
X104221900Y-65561330D01*
X104054020Y-65449156D01*
X103867482Y-65371890D01*
X103669454Y-65332500D01*
X103467546Y-65332500D01*
X103269518Y-65371890D01*
X103082980Y-65449156D01*
X102915100Y-65561330D01*
X102772330Y-65704100D01*
X102660156Y-65871980D01*
X102582890Y-66058518D01*
X102543500Y-66256546D01*
X100866586Y-66256546D01*
X100849470Y-66245110D01*
X100662932Y-66167844D01*
X100464904Y-66128454D01*
X100262996Y-66128454D01*
X100064968Y-66167844D01*
X99878430Y-66245110D01*
X99710550Y-66357284D01*
X99567780Y-66500054D01*
X99455606Y-66667934D01*
X99378340Y-66854472D01*
X99338950Y-67052500D01*
X99338950Y-67153149D01*
X98954600Y-67537500D01*
X93761596Y-67537500D01*
X93725999Y-67533994D01*
X93690402Y-67537500D01*
X93690393Y-67537500D01*
X93583875Y-67547991D01*
X93447212Y-67589447D01*
X93321263Y-67656769D01*
X93238525Y-67724670D01*
X93238523Y-67724672D01*
X93210868Y-67747368D01*
X93188172Y-67775023D01*
X93027195Y-67936000D01*
X92926546Y-67936000D01*
X92728518Y-67975390D01*
X92541980Y-68052656D01*
X92374100Y-68164830D01*
X92231330Y-68307600D01*
X92119156Y-68475480D01*
X92041890Y-68662018D01*
X92002500Y-68860046D01*
X72134000Y-68860046D01*
X72134000Y-67383000D01*
X72131598Y-67358614D01*
X72124485Y-67335164D01*
X72065906Y-67193743D01*
X72054354Y-67172132D01*
X72038809Y-67153190D01*
X72019867Y-67137645D01*
X71998257Y-67126094D01*
X71856836Y-67067515D01*
X71833387Y-67060402D01*
X71809000Y-67058000D01*
X71002500Y-67058000D01*
X70978114Y-67060402D01*
X70954664Y-67067515D01*
X70813243Y-67126094D01*
X70791632Y-67137646D01*
X70772690Y-67153191D01*
X70757145Y-67172133D01*
X70745594Y-67193743D01*
X70687015Y-67335164D01*
X70679902Y-67358613D01*
X70677500Y-67383000D01*
X70677500Y-67593135D01*
X70648250Y-67663750D01*
X70577635Y-67693000D01*
X68614365Y-67693000D01*
X68543750Y-67663750D01*
X68514500Y-67593135D01*
X68514500Y-67383000D01*
X68512098Y-67358614D01*
X68504985Y-67335164D01*
X68446406Y-67193743D01*
X68434854Y-67172132D01*
X68419309Y-67153190D01*
X68400367Y-67137645D01*
X68378757Y-67126094D01*
X68237336Y-67067515D01*
X68213887Y-67060402D01*
X68189500Y-67058000D01*
X66875000Y-67058000D01*
X66850614Y-67060402D01*
X66827164Y-67067515D01*
X66685743Y-67126094D01*
X66664132Y-67137646D01*
X66645190Y-67153191D01*
X66629645Y-67172133D01*
X66618094Y-67193743D01*
X66559515Y-67335164D01*
X66552402Y-67358613D01*
X66550000Y-67383000D01*
X66550000Y-67656635D01*
X66520750Y-67727250D01*
X66450135Y-67756500D01*
X64550365Y-67756500D01*
X64479750Y-67727250D01*
X64450500Y-67656635D01*
X64450500Y-67383000D01*
X64448098Y-67358614D01*
X64440985Y-67335164D01*
X64382406Y-67193743D01*
X64370854Y-67172132D01*
X64355309Y-67153190D01*
X64336367Y-67137645D01*
X64314757Y-67126094D01*
X64173336Y-67067515D01*
X64149887Y-67060402D01*
X64125500Y-67058000D01*
X62684000Y-67058000D01*
X62659614Y-67060402D01*
X62636164Y-67067515D01*
X62494743Y-67126094D01*
X62473132Y-67137646D01*
X62454190Y-67153191D01*
X62438645Y-67172133D01*
X62427094Y-67193743D01*
X62368515Y-67335164D01*
X62361402Y-67358613D01*
X62359000Y-67383000D01*
X62359000Y-67656635D01*
X62329750Y-67727250D01*
X62259135Y-67756500D01*
X60422865Y-67756500D01*
X60352250Y-67727250D01*
X60323000Y-67656635D01*
X60323000Y-67383000D01*
X60320598Y-67358614D01*
X60313485Y-67335164D01*
X60254906Y-67193743D01*
X60243354Y-67172132D01*
X60227809Y-67153190D01*
X60208867Y-67137645D01*
X60187257Y-67126094D01*
X60045836Y-67067515D01*
X60022387Y-67060402D01*
X59998000Y-67058000D01*
X58556500Y-67058000D01*
X58532114Y-67060402D01*
X58508664Y-67067515D01*
X58367243Y-67126094D01*
X58345632Y-67137646D01*
X58326690Y-67153191D01*
X58311145Y-67172133D01*
X58299594Y-67193743D01*
X58241015Y-67335164D01*
X58233902Y-67358613D01*
X58231500Y-67383000D01*
X58231500Y-67720135D01*
X58202250Y-67790750D01*
X58131635Y-67820000D01*
X56104865Y-67820000D01*
X56034250Y-67790750D01*
X56005000Y-67720135D01*
X56005000Y-67383000D01*
X56002598Y-67358614D01*
X55995485Y-67335164D01*
X55936906Y-67193743D01*
X55925354Y-67172132D01*
X55909809Y-67153190D01*
X55890867Y-67137645D01*
X55869257Y-67126094D01*
X55727836Y-67067515D01*
X55704387Y-67060402D01*
X55680000Y-67058000D01*
X55000500Y-67058000D01*
X54976114Y-67060402D01*
X54952664Y-67067515D01*
X54811243Y-67126094D01*
X54789632Y-67137646D01*
X54770690Y-67153191D01*
X54755145Y-67172133D01*
X54743594Y-67193743D01*
X54685015Y-67335164D01*
X54677902Y-67358613D01*
X54675500Y-67383000D01*
X54675500Y-70313793D01*
X54635951Y-70409273D01*
X53121916Y-71923308D01*
X53045950Y-71961611D01*
X41275811Y-73723985D01*
X41255463Y-73725500D01*
X38071063Y-73725500D01*
X37846000Y-73500437D01*
X37620937Y-73725500D01*
X34482000Y-73725500D01*
X34482000Y-72335398D01*
X35913042Y-72335398D01*
X35936059Y-72569095D01*
X36132776Y-72738787D01*
X36608563Y-72263000D01*
X39083437Y-72263000D01*
X39559224Y-72738787D01*
X39755941Y-72569095D01*
X39778958Y-72190602D01*
X39755941Y-71956905D01*
X39559224Y-71787213D01*
X39083437Y-72263000D01*
X36608563Y-72263000D01*
X36132776Y-71787213D01*
X35936059Y-71956905D01*
X35913042Y-72335398D01*
X34482000Y-72335398D01*
X34482000Y-70549776D01*
X37370213Y-70549776D01*
X37846000Y-71025563D01*
X38321787Y-70549776D01*
X38152095Y-70353059D01*
X37773602Y-70330042D01*
X37539905Y-70353059D01*
X37370213Y-70549776D01*
X34482000Y-70549776D01*
X34482000Y-64780857D01*
X35188000Y-64780857D01*
X35188000Y-65219143D01*
X35273505Y-65649009D01*
X35441230Y-66053933D01*
X35684730Y-66418355D01*
X35994645Y-66728270D01*
X36359067Y-66971770D01*
X36763991Y-67139495D01*
X37193857Y-67225000D01*
X37632143Y-67225000D01*
X38062009Y-67139495D01*
X38466933Y-66971770D01*
X38831355Y-66728270D01*
X39141270Y-66418355D01*
X39384770Y-66053933D01*
X39552495Y-65649009D01*
X39638000Y-65219143D01*
X39638000Y-64780857D01*
X105519500Y-64780857D01*
X105519500Y-65219143D01*
X105605005Y-65649009D01*
X105772730Y-66053933D01*
X106016230Y-66418355D01*
X106326145Y-66728270D01*
X106690567Y-66971770D01*
X107095491Y-67139495D01*
X107525357Y-67225000D01*
X107963643Y-67225000D01*
X108393509Y-67139495D01*
X108798433Y-66971770D01*
X109162855Y-66728270D01*
X109472770Y-66418355D01*
X109716270Y-66053933D01*
X109883995Y-65649009D01*
X109969500Y-65219143D01*
X109969500Y-64780857D01*
X109883995Y-64350991D01*
X109716270Y-63946067D01*
X109472770Y-63581645D01*
X109162855Y-63271730D01*
X108798433Y-63028230D01*
X108393509Y-62860505D01*
X107963643Y-62775000D01*
X107525357Y-62775000D01*
X107095491Y-62860505D01*
X106690567Y-63028230D01*
X106326145Y-63271730D01*
X106016230Y-63581645D01*
X105772730Y-63946067D01*
X105605005Y-64350991D01*
X105519500Y-64780857D01*
X39638000Y-64780857D01*
X39552495Y-64350991D01*
X39384770Y-63946067D01*
X39141270Y-63581645D01*
X38831355Y-63271730D01*
X38466933Y-63028230D01*
X38062009Y-62860505D01*
X37632143Y-62775000D01*
X37193857Y-62775000D01*
X36763991Y-62860505D01*
X36359067Y-63028230D01*
X35994645Y-63271730D01*
X35684730Y-63581645D01*
X35441230Y-63946067D01*
X35273505Y-64350991D01*
X35188000Y-64780857D01*
X34482000Y-64780857D01*
X34482000Y-63535949D01*
X35976950Y-62041000D01*
X77306040Y-62041000D01*
X77274043Y-62146479D01*
M02*
