G04 #@! TF.GenerationSoftware,KiCad,Pcbnew,5.1.5-52549c5~84~ubuntu18.04.1*
G04 #@! TF.CreationDate,2020-03-09T10:29:23-07:00*
G04 #@! TF.ProjectId,wifistepper,77696669-7374-4657-9070-65722e6b6963,rev?*
G04 #@! TF.SameCoordinates,Original*
G04 #@! TF.FileFunction,Legend,Top*
G04 #@! TF.FilePolarity,Positive*
%FSLAX46Y46*%
G04 Gerber Fmt 4.6, Leading zero omitted, Abs format (unit mm)*
G04 Created by KiCad (PCBNEW 5.1.5-52549c5~84~ubuntu18.04.1) date 2020-03-09 10:29:23*
%MOMM*%
%LPD*%
G04 APERTURE LIST*
%ADD10C,0.300000*%
%ADD11C,0.350000*%
%ADD12C,0.250000*%
%ADD13C,0.200000*%
%ADD14C,0.400000*%
%ADD15C,0.100000*%
%ADD16C,0.120000*%
%ADD17C,0.150000*%
G04 APERTURE END LIST*
D10*
X44017500Y-73278857D02*
X43946071Y-73421714D01*
X43946071Y-73636000D01*
X44017500Y-73850285D01*
X44160357Y-73993142D01*
X44303214Y-74064571D01*
X44588928Y-74136000D01*
X44803214Y-74136000D01*
X45088928Y-74064571D01*
X45231785Y-73993142D01*
X45374642Y-73850285D01*
X45446071Y-73636000D01*
X45446071Y-73493142D01*
X45374642Y-73278857D01*
X45303214Y-73207428D01*
X44803214Y-73207428D01*
X44803214Y-73493142D01*
X45446071Y-72564571D02*
X43946071Y-72564571D01*
X45446071Y-71707428D01*
X43946071Y-71707428D01*
X45446071Y-70993142D02*
X43946071Y-70993142D01*
X43946071Y-70636000D01*
X44017500Y-70421714D01*
X44160357Y-70278857D01*
X44303214Y-70207428D01*
X44588928Y-70136000D01*
X44803214Y-70136000D01*
X45088928Y-70207428D01*
X45231785Y-70278857D01*
X45374642Y-70421714D01*
X45446071Y-70636000D01*
X45446071Y-70993142D01*
D11*
X97325285Y-97643071D02*
X97325285Y-96143071D01*
X97896714Y-96143071D01*
X98039571Y-96214500D01*
X98111000Y-96285928D01*
X98182428Y-96428785D01*
X98182428Y-96643071D01*
X98111000Y-96785928D01*
X98039571Y-96857357D01*
X97896714Y-96928785D01*
X97325285Y-96928785D01*
X99111000Y-96143071D02*
X99396714Y-96143071D01*
X99539571Y-96214500D01*
X99682428Y-96357357D01*
X99753857Y-96643071D01*
X99753857Y-97143071D01*
X99682428Y-97428785D01*
X99539571Y-97571642D01*
X99396714Y-97643071D01*
X99111000Y-97643071D01*
X98968142Y-97571642D01*
X98825285Y-97428785D01*
X98753857Y-97143071D01*
X98753857Y-96643071D01*
X98825285Y-96357357D01*
X98968142Y-96214500D01*
X99111000Y-96143071D01*
X100253857Y-96143071D02*
X100611000Y-97643071D01*
X100896714Y-96571642D01*
X101182428Y-97643071D01*
X101539571Y-96143071D01*
X102111000Y-96857357D02*
X102611000Y-96857357D01*
X102825285Y-97643071D02*
X102111000Y-97643071D01*
X102111000Y-96143071D01*
X102825285Y-96143071D01*
X104325285Y-97643071D02*
X103825285Y-96928785D01*
X103468142Y-97643071D02*
X103468142Y-96143071D01*
X104039571Y-96143071D01*
X104182428Y-96214500D01*
X104253857Y-96285928D01*
X104325285Y-96428785D01*
X104325285Y-96643071D01*
X104253857Y-96785928D01*
X104182428Y-96857357D01*
X104039571Y-96928785D01*
X103468142Y-96928785D01*
D12*
X44323047Y-79255928D02*
X45084952Y-79255928D01*
X44704000Y-79636880D02*
X44704000Y-78874976D01*
D10*
X44009571Y-78477857D02*
X45509571Y-77977857D01*
X44009571Y-77477857D01*
X45509571Y-76977857D02*
X44009571Y-76977857D01*
X45509571Y-76263571D02*
X44009571Y-76263571D01*
X45509571Y-75406428D01*
X44009571Y-75406428D01*
D13*
X46037500Y-74993500D02*
X43561000Y-74993500D01*
X43561000Y-79946500D02*
X43561000Y-74993500D01*
X46037500Y-79946500D02*
X46037500Y-74993500D01*
X43561000Y-79946500D02*
X46037500Y-79946500D01*
X104409408Y-73342500D02*
G75*
G03X104409408Y-73342500I-269408J0D01*
G01*
X83374800Y-93742857D02*
X83303371Y-93885714D01*
X83303371Y-94100000D01*
X83374800Y-94314285D01*
X83517657Y-94457142D01*
X83660514Y-94528571D01*
X83946228Y-94600000D01*
X84160514Y-94600000D01*
X84446228Y-94528571D01*
X84589085Y-94457142D01*
X84731942Y-94314285D01*
X84803371Y-94100000D01*
X84803371Y-93957142D01*
X84731942Y-93742857D01*
X84660514Y-93671428D01*
X84160514Y-93671428D01*
X84160514Y-93957142D01*
X84803371Y-93028571D02*
X83303371Y-93028571D01*
X84803371Y-92171428D01*
X83303371Y-92171428D01*
X84803371Y-91457142D02*
X83303371Y-91457142D01*
X83303371Y-91100000D01*
X83374800Y-90885714D01*
X83517657Y-90742857D01*
X83660514Y-90671428D01*
X83946228Y-90600000D01*
X84160514Y-90600000D01*
X84446228Y-90671428D01*
X84589085Y-90742857D01*
X84731942Y-90885714D01*
X84803371Y-91100000D01*
X84803371Y-91457142D01*
X75188071Y-94492557D02*
X76688071Y-93992557D01*
X75188071Y-93492557D01*
X76688071Y-92992557D02*
X75188071Y-92992557D01*
X76688071Y-92278271D02*
X75188071Y-92278271D01*
X76688071Y-91421128D01*
X75188071Y-91421128D01*
D12*
X46287285Y-114558071D02*
X46644428Y-116058071D01*
X46930142Y-114986642D01*
X47215857Y-116058071D01*
X47573000Y-114558071D01*
X48073000Y-115986642D02*
X48287285Y-116058071D01*
X48644428Y-116058071D01*
X48787285Y-115986642D01*
X48858714Y-115915214D01*
X48930142Y-115772357D01*
X48930142Y-115629500D01*
X48858714Y-115486642D01*
X48787285Y-115415214D01*
X48644428Y-115343785D01*
X48358714Y-115272357D01*
X48215857Y-115200928D01*
X48144428Y-115129500D01*
X48073000Y-114986642D01*
X48073000Y-114843785D01*
X48144428Y-114700928D01*
X48215857Y-114629500D01*
X48358714Y-114558071D01*
X48715857Y-114558071D01*
X48930142Y-114629500D01*
X49430142Y-114558071D02*
X50430142Y-116058071D01*
X50430142Y-114558071D02*
X49430142Y-116058071D01*
X51787285Y-116058071D02*
X50930142Y-116058071D01*
X51358714Y-116058071D02*
X51358714Y-114558071D01*
X51215857Y-114772357D01*
X51073000Y-114915214D01*
X50930142Y-114986642D01*
X52715857Y-114558071D02*
X52858714Y-114558071D01*
X53001571Y-114629500D01*
X53073000Y-114700928D01*
X53144428Y-114843785D01*
X53215857Y-115129500D01*
X53215857Y-115486642D01*
X53144428Y-115772357D01*
X53073000Y-115915214D01*
X53001571Y-115986642D01*
X52858714Y-116058071D01*
X52715857Y-116058071D01*
X52573000Y-115986642D01*
X52501571Y-115915214D01*
X52430142Y-115772357D01*
X52358714Y-115486642D01*
X52358714Y-115129500D01*
X52430142Y-114843785D01*
X52501571Y-114700928D01*
X52573000Y-114629500D01*
X52715857Y-114558071D01*
X54144428Y-114558071D02*
X54287285Y-114558071D01*
X54430142Y-114629500D01*
X54501571Y-114700928D01*
X54573000Y-114843785D01*
X54644428Y-115129500D01*
X54644428Y-115486642D01*
X54573000Y-115772357D01*
X54501571Y-115915214D01*
X54430142Y-115986642D01*
X54287285Y-116058071D01*
X54144428Y-116058071D01*
X54001571Y-115986642D01*
X53930142Y-115915214D01*
X53858714Y-115772357D01*
X53787285Y-115486642D01*
X53787285Y-115129500D01*
X53858714Y-114843785D01*
X53930142Y-114700928D01*
X54001571Y-114629500D01*
X54144428Y-114558071D01*
X57287285Y-116058071D02*
X56787285Y-115343785D01*
X56430142Y-116058071D02*
X56430142Y-114558071D01*
X57001571Y-114558071D01*
X57144428Y-114629500D01*
X57215857Y-114700928D01*
X57287285Y-114843785D01*
X57287285Y-115058071D01*
X57215857Y-115200928D01*
X57144428Y-115272357D01*
X57001571Y-115343785D01*
X56430142Y-115343785D01*
X58501571Y-115986642D02*
X58358714Y-116058071D01*
X58073000Y-116058071D01*
X57930142Y-115986642D01*
X57858714Y-115843785D01*
X57858714Y-115272357D01*
X57930142Y-115129500D01*
X58073000Y-115058071D01*
X58358714Y-115058071D01*
X58501571Y-115129500D01*
X58573000Y-115272357D01*
X58573000Y-115415214D01*
X57858714Y-115558071D01*
X59073000Y-115058071D02*
X59430142Y-116058071D01*
X59787285Y-115058071D01*
X61501571Y-116058071D02*
X61501571Y-114558071D01*
X61858714Y-114558071D01*
X62073000Y-114629500D01*
X62215857Y-114772357D01*
X62287285Y-114915214D01*
X62358714Y-115200928D01*
X62358714Y-115415214D01*
X62287285Y-115700928D01*
X62215857Y-115843785D01*
X62073000Y-115986642D01*
X61858714Y-116058071D01*
X61501571Y-116058071D01*
X62858714Y-114558071D02*
X63787285Y-114558071D01*
X63287285Y-115129500D01*
X63501571Y-115129500D01*
X63644428Y-115200928D01*
X63715857Y-115272357D01*
X63787285Y-115415214D01*
X63787285Y-115772357D01*
X63715857Y-115915214D01*
X63644428Y-115986642D01*
X63501571Y-116058071D01*
X63073000Y-116058071D01*
X62930142Y-115986642D01*
X62858714Y-115915214D01*
D13*
X47387000Y-75294452D02*
X47291761Y-75246833D01*
X47244142Y-75199214D01*
X47196523Y-75103976D01*
X47196523Y-75056357D01*
X47244142Y-74961119D01*
X47291761Y-74913500D01*
X47387000Y-74865880D01*
X47577476Y-74865880D01*
X47672714Y-74913500D01*
X47720333Y-74961119D01*
X47767952Y-75056357D01*
X47767952Y-75103976D01*
X47720333Y-75199214D01*
X47672714Y-75246833D01*
X47577476Y-75294452D01*
X47387000Y-75294452D01*
X47291761Y-75342071D01*
X47244142Y-75389690D01*
X47196523Y-75484928D01*
X47196523Y-75675404D01*
X47244142Y-75770642D01*
X47291761Y-75818261D01*
X47387000Y-75865880D01*
X47577476Y-75865880D01*
X47672714Y-75818261D01*
X47720333Y-75770642D01*
X47767952Y-75675404D01*
X47767952Y-75484928D01*
X47720333Y-75389690D01*
X47672714Y-75342071D01*
X47577476Y-75294452D01*
X48387000Y-74865880D02*
X48482238Y-74865880D01*
X48577476Y-74913500D01*
X48625095Y-74961119D01*
X48672714Y-75056357D01*
X48720333Y-75246833D01*
X48720333Y-75484928D01*
X48672714Y-75675404D01*
X48625095Y-75770642D01*
X48577476Y-75818261D01*
X48482238Y-75865880D01*
X48387000Y-75865880D01*
X48291761Y-75818261D01*
X48244142Y-75770642D01*
X48196523Y-75675404D01*
X48148904Y-75484928D01*
X48148904Y-75246833D01*
X48196523Y-75056357D01*
X48244142Y-74961119D01*
X48291761Y-74913500D01*
X48387000Y-74865880D01*
X49006047Y-74865880D02*
X49339380Y-75865880D01*
X49672714Y-74865880D01*
X47148904Y-77565880D02*
X47148904Y-76565880D01*
X47482238Y-77280166D01*
X47815571Y-76565880D01*
X47815571Y-77565880D01*
X48244142Y-77280166D02*
X48720333Y-77280166D01*
X48148904Y-77565880D02*
X48482238Y-76565880D01*
X48815571Y-77565880D01*
X49053666Y-76565880D02*
X49720333Y-77565880D01*
X49720333Y-76565880D02*
X49053666Y-77565880D01*
X50768333Y-101980380D02*
X50292142Y-101980380D01*
X50244523Y-102456571D01*
X50292142Y-102408952D01*
X50387380Y-102361333D01*
X50625476Y-102361333D01*
X50720714Y-102408952D01*
X50768333Y-102456571D01*
X50815952Y-102551809D01*
X50815952Y-102789904D01*
X50768333Y-102885142D01*
X50720714Y-102932761D01*
X50625476Y-102980380D01*
X50387380Y-102980380D01*
X50292142Y-102932761D01*
X50244523Y-102885142D01*
X51435000Y-101980380D02*
X51530238Y-101980380D01*
X51625476Y-102028000D01*
X51673095Y-102075619D01*
X51720714Y-102170857D01*
X51768333Y-102361333D01*
X51768333Y-102599428D01*
X51720714Y-102789904D01*
X51673095Y-102885142D01*
X51625476Y-102932761D01*
X51530238Y-102980380D01*
X51435000Y-102980380D01*
X51339761Y-102932761D01*
X51292142Y-102885142D01*
X51244523Y-102789904D01*
X51196904Y-102599428D01*
X51196904Y-102361333D01*
X51244523Y-102170857D01*
X51292142Y-102075619D01*
X51339761Y-102028000D01*
X51435000Y-101980380D01*
X52054047Y-101980380D02*
X52387380Y-102980380D01*
X52720714Y-101980380D01*
X50196904Y-104680380D02*
X50196904Y-103680380D01*
X50530238Y-104394666D01*
X50863571Y-103680380D01*
X50863571Y-104680380D01*
X51292142Y-104394666D02*
X51768333Y-104394666D01*
X51196904Y-104680380D02*
X51530238Y-103680380D01*
X51863571Y-104680380D01*
X52101666Y-103680380D02*
X52768333Y-104680380D01*
X52768333Y-103680380D02*
X52101666Y-104680380D01*
D10*
X103802928Y-111105071D02*
X103302928Y-110390785D01*
X102945785Y-111105071D02*
X102945785Y-109605071D01*
X103517214Y-109605071D01*
X103660071Y-109676500D01*
X103731500Y-109747928D01*
X103802928Y-109890785D01*
X103802928Y-110105071D01*
X103731500Y-110247928D01*
X103660071Y-110319357D01*
X103517214Y-110390785D01*
X102945785Y-110390785D01*
X104445785Y-110319357D02*
X104945785Y-110319357D01*
X105160071Y-111105071D02*
X104445785Y-111105071D01*
X104445785Y-109605071D01*
X105160071Y-109605071D01*
X105731500Y-111033642D02*
X105945785Y-111105071D01*
X106302928Y-111105071D01*
X106445785Y-111033642D01*
X106517214Y-110962214D01*
X106588642Y-110819357D01*
X106588642Y-110676500D01*
X106517214Y-110533642D01*
X106445785Y-110462214D01*
X106302928Y-110390785D01*
X106017214Y-110319357D01*
X105874357Y-110247928D01*
X105802928Y-110176500D01*
X105731500Y-110033642D01*
X105731500Y-109890785D01*
X105802928Y-109747928D01*
X105874357Y-109676500D01*
X106017214Y-109605071D01*
X106374357Y-109605071D01*
X106588642Y-109676500D01*
X107231500Y-110319357D02*
X107731500Y-110319357D01*
X107945785Y-111105071D02*
X107231500Y-111105071D01*
X107231500Y-109605071D01*
X107945785Y-109605071D01*
X108374357Y-109605071D02*
X109231500Y-109605071D01*
X108802928Y-111105071D02*
X108802928Y-109605071D01*
D13*
X80896500Y-94837500D02*
X80896500Y-98266500D01*
X78356500Y-94837500D02*
X80896500Y-94837500D01*
X78356500Y-98266500D02*
X78356500Y-94837500D01*
X80896500Y-98266500D02*
X78356500Y-98266500D01*
D11*
X100333214Y-101477071D02*
X100690357Y-102977071D01*
X100976071Y-101905642D01*
X101261785Y-102977071D01*
X101618928Y-101477071D01*
X102190357Y-102977071D02*
X102190357Y-101477071D01*
X103404642Y-102191357D02*
X102904642Y-102191357D01*
X102904642Y-102977071D02*
X102904642Y-101477071D01*
X103618928Y-101477071D01*
X104190357Y-102977071D02*
X104190357Y-101477071D01*
X100118928Y-99524357D02*
X99618928Y-99524357D01*
X99618928Y-100310071D02*
X99618928Y-98810071D01*
X100333214Y-98810071D01*
X101618928Y-100310071D02*
X100904642Y-100310071D01*
X100904642Y-98810071D01*
X102047500Y-99881500D02*
X102761785Y-99881500D01*
X101904642Y-100310071D02*
X102404642Y-98810071D01*
X102904642Y-100310071D01*
X104190357Y-98881500D02*
X104047500Y-98810071D01*
X103833214Y-98810071D01*
X103618928Y-98881500D01*
X103476071Y-99024357D01*
X103404642Y-99167214D01*
X103333214Y-99452928D01*
X103333214Y-99667214D01*
X103404642Y-99952928D01*
X103476071Y-100095785D01*
X103618928Y-100238642D01*
X103833214Y-100310071D01*
X103976071Y-100310071D01*
X104190357Y-100238642D01*
X104261785Y-100167214D01*
X104261785Y-99667214D01*
X103976071Y-99667214D01*
D14*
X42836714Y-63547761D02*
X43312904Y-65547761D01*
X43693857Y-64119190D01*
X44074809Y-65547761D01*
X44551000Y-63547761D01*
X45312904Y-65547761D02*
X45312904Y-64214428D01*
X45312904Y-63547761D02*
X45217666Y-63643000D01*
X45312904Y-63738238D01*
X45408142Y-63643000D01*
X45312904Y-63547761D01*
X45312904Y-63738238D01*
X46265285Y-64785857D02*
X47789095Y-64785857D01*
X49408142Y-64500142D02*
X48741476Y-64500142D01*
X48741476Y-65547761D02*
X48741476Y-63547761D01*
X49693857Y-63547761D01*
X50455761Y-65547761D02*
X50455761Y-64214428D01*
X50455761Y-63547761D02*
X50360523Y-63643000D01*
X50455761Y-63738238D01*
X50551000Y-63643000D01*
X50455761Y-63547761D01*
X50455761Y-63738238D01*
X52836714Y-65452523D02*
X53122428Y-65547761D01*
X53598619Y-65547761D01*
X53789095Y-65452523D01*
X53884333Y-65357285D01*
X53979571Y-65166809D01*
X53979571Y-64976333D01*
X53884333Y-64785857D01*
X53789095Y-64690619D01*
X53598619Y-64595380D01*
X53217666Y-64500142D01*
X53027190Y-64404904D01*
X52931952Y-64309666D01*
X52836714Y-64119190D01*
X52836714Y-63928714D01*
X52931952Y-63738238D01*
X53027190Y-63643000D01*
X53217666Y-63547761D01*
X53693857Y-63547761D01*
X53979571Y-63643000D01*
X54551000Y-64214428D02*
X55312904Y-64214428D01*
X54836714Y-63547761D02*
X54836714Y-65262047D01*
X54931952Y-65452523D01*
X55122428Y-65547761D01*
X55312904Y-65547761D01*
X56741476Y-65452523D02*
X56551000Y-65547761D01*
X56170047Y-65547761D01*
X55979571Y-65452523D01*
X55884333Y-65262047D01*
X55884333Y-64500142D01*
X55979571Y-64309666D01*
X56170047Y-64214428D01*
X56551000Y-64214428D01*
X56741476Y-64309666D01*
X56836714Y-64500142D01*
X56836714Y-64690619D01*
X55884333Y-64881095D01*
X57693857Y-64214428D02*
X57693857Y-66214428D01*
X57693857Y-64309666D02*
X57884333Y-64214428D01*
X58265285Y-64214428D01*
X58455761Y-64309666D01*
X58551000Y-64404904D01*
X58646238Y-64595380D01*
X58646238Y-65166809D01*
X58551000Y-65357285D01*
X58455761Y-65452523D01*
X58265285Y-65547761D01*
X57884333Y-65547761D01*
X57693857Y-65452523D01*
X59503380Y-64214428D02*
X59503380Y-66214428D01*
X59503380Y-64309666D02*
X59693857Y-64214428D01*
X60074809Y-64214428D01*
X60265285Y-64309666D01*
X60360523Y-64404904D01*
X60455761Y-64595380D01*
X60455761Y-65166809D01*
X60360523Y-65357285D01*
X60265285Y-65452523D01*
X60074809Y-65547761D01*
X59693857Y-65547761D01*
X59503380Y-65452523D01*
X62074809Y-65452523D02*
X61884333Y-65547761D01*
X61503380Y-65547761D01*
X61312904Y-65452523D01*
X61217666Y-65262047D01*
X61217666Y-64500142D01*
X61312904Y-64309666D01*
X61503380Y-64214428D01*
X61884333Y-64214428D01*
X62074809Y-64309666D01*
X62170047Y-64500142D01*
X62170047Y-64690619D01*
X61217666Y-64881095D01*
X63027190Y-65547761D02*
X63027190Y-64214428D01*
X63027190Y-64595380D02*
X63122428Y-64404904D01*
X63217666Y-64309666D01*
X63408142Y-64214428D01*
X63598619Y-64214428D01*
D12*
X43691714Y-82666000D02*
X44406000Y-82666000D01*
X43548857Y-83094571D02*
X44048857Y-81594571D01*
X44548857Y-83094571D01*
X45048857Y-82523142D02*
X46191714Y-82523142D01*
X43691714Y-87666000D02*
X44406000Y-87666000D01*
X43548857Y-88094571D02*
X44048857Y-86594571D01*
X44548857Y-88094571D01*
X45048857Y-87523142D02*
X46191714Y-87523142D01*
X45620285Y-88094571D02*
X45620285Y-86951714D01*
X44263142Y-92308857D02*
X44477428Y-92380285D01*
X44548857Y-92451714D01*
X44620285Y-92594571D01*
X44620285Y-92808857D01*
X44548857Y-92951714D01*
X44477428Y-93023142D01*
X44334571Y-93094571D01*
X43763142Y-93094571D01*
X43763142Y-91594571D01*
X44263142Y-91594571D01*
X44406000Y-91666000D01*
X44477428Y-91737428D01*
X44548857Y-91880285D01*
X44548857Y-92023142D01*
X44477428Y-92166000D01*
X44406000Y-92237428D01*
X44263142Y-92308857D01*
X43763142Y-92308857D01*
X45263142Y-92523142D02*
X46406000Y-92523142D01*
X45834571Y-93094571D02*
X45834571Y-91951714D01*
X44263142Y-97308857D02*
X44477428Y-97380285D01*
X44548857Y-97451714D01*
X44620285Y-97594571D01*
X44620285Y-97808857D01*
X44548857Y-97951714D01*
X44477428Y-98023142D01*
X44334571Y-98094571D01*
X43763142Y-98094571D01*
X43763142Y-96594571D01*
X44263142Y-96594571D01*
X44406000Y-96666000D01*
X44477428Y-96737428D01*
X44548857Y-96880285D01*
X44548857Y-97023142D01*
X44477428Y-97166000D01*
X44406000Y-97237428D01*
X44263142Y-97308857D01*
X43763142Y-97308857D01*
X45263142Y-97523142D02*
X46406000Y-97523142D01*
D13*
X78055690Y-68638071D02*
X78055690Y-67709500D01*
X78646166Y-68209500D01*
X78646166Y-67995214D01*
X78719976Y-67852357D01*
X78793785Y-67780928D01*
X78941404Y-67709500D01*
X79310452Y-67709500D01*
X79458071Y-67780928D01*
X79531880Y-67852357D01*
X79605690Y-67995214D01*
X79605690Y-68423785D01*
X79531880Y-68566642D01*
X79458071Y-68638071D01*
X78055690Y-67280928D02*
X79605690Y-66780928D01*
X78055690Y-66280928D01*
X78055690Y-65923785D02*
X78055690Y-64995214D01*
X78646166Y-65495214D01*
X78646166Y-65280928D01*
X78719976Y-65138071D01*
X78793785Y-65066642D01*
X78941404Y-64995214D01*
X79310452Y-64995214D01*
X79458071Y-65066642D01*
X79531880Y-65138071D01*
X79605690Y-65280928D01*
X79605690Y-65709500D01*
X79531880Y-65852357D01*
X79458071Y-65923785D01*
X80654500Y-68138071D02*
X80580690Y-68280928D01*
X80580690Y-68495214D01*
X80654500Y-68709500D01*
X80802119Y-68852357D01*
X80949738Y-68923785D01*
X81244976Y-68995214D01*
X81466404Y-68995214D01*
X81761642Y-68923785D01*
X81909261Y-68852357D01*
X82056880Y-68709500D01*
X82130690Y-68495214D01*
X82130690Y-68352357D01*
X82056880Y-68138071D01*
X81983071Y-68066642D01*
X81466404Y-68066642D01*
X81466404Y-68352357D01*
X82130690Y-67423785D02*
X80580690Y-67423785D01*
X82130690Y-66566642D01*
X80580690Y-66566642D01*
X82130690Y-65852357D02*
X80580690Y-65852357D01*
X80580690Y-65495214D01*
X80654500Y-65280928D01*
X80802119Y-65138071D01*
X80949738Y-65066642D01*
X81244976Y-64995214D01*
X81466404Y-64995214D01*
X81761642Y-65066642D01*
X81909261Y-65138071D01*
X82056880Y-65280928D01*
X82130690Y-65495214D01*
X82130690Y-65852357D01*
X84581880Y-67566642D02*
X84655690Y-67352357D01*
X84655690Y-66995214D01*
X84581880Y-66852357D01*
X84508071Y-66780928D01*
X84360452Y-66709500D01*
X84212833Y-66709500D01*
X84065214Y-66780928D01*
X83991404Y-66852357D01*
X83917595Y-66995214D01*
X83843785Y-67280928D01*
X83769976Y-67423785D01*
X83696166Y-67495214D01*
X83548547Y-67566642D01*
X83400928Y-67566642D01*
X83253309Y-67495214D01*
X83179500Y-67423785D01*
X83105690Y-67280928D01*
X83105690Y-66923785D01*
X83179500Y-66709500D01*
X83105690Y-66209500D02*
X84655690Y-65852357D01*
X83548547Y-65566642D01*
X84655690Y-65280928D01*
X83105690Y-64923785D01*
X87106880Y-69852357D02*
X87180690Y-69638071D01*
X87180690Y-69280928D01*
X87106880Y-69138071D01*
X87033071Y-69066642D01*
X86885452Y-68995214D01*
X86737833Y-68995214D01*
X86590214Y-69066642D01*
X86516404Y-69138071D01*
X86442595Y-69280928D01*
X86368785Y-69566642D01*
X86294976Y-69709500D01*
X86221166Y-69780928D01*
X86073547Y-69852357D01*
X85925928Y-69852357D01*
X85778309Y-69780928D01*
X85704500Y-69709500D01*
X85630690Y-69566642D01*
X85630690Y-69209500D01*
X85704500Y-68995214D01*
X85630690Y-68566642D02*
X85630690Y-67709500D01*
X87180690Y-68138071D02*
X85630690Y-68138071D01*
X86368785Y-67209500D02*
X86368785Y-66709500D01*
X87180690Y-66495214D02*
X87180690Y-67209500D01*
X85630690Y-67209500D01*
X85630690Y-66495214D01*
X87180690Y-65852357D02*
X85630690Y-65852357D01*
X85630690Y-65280928D01*
X85704500Y-65138071D01*
X85778309Y-65066642D01*
X85925928Y-64995214D01*
X86147357Y-64995214D01*
X86294976Y-65066642D01*
X86368785Y-65138071D01*
X86442595Y-65280928D01*
X86442595Y-65852357D01*
X88893785Y-69138071D02*
X88893785Y-69638071D01*
X89705690Y-69638071D02*
X88155690Y-69638071D01*
X88155690Y-68923785D01*
X89705690Y-67638071D02*
X89705690Y-68352357D01*
X88155690Y-68352357D01*
X89262833Y-67209500D02*
X89262833Y-66495214D01*
X89705690Y-67352357D02*
X88155690Y-66852357D01*
X89705690Y-66352357D01*
X88229500Y-65066642D02*
X88155690Y-65209500D01*
X88155690Y-65423785D01*
X88229500Y-65638071D01*
X88377119Y-65780928D01*
X88524738Y-65852357D01*
X88819976Y-65923785D01*
X89041404Y-65923785D01*
X89336642Y-65852357D01*
X89484261Y-65780928D01*
X89631880Y-65638071D01*
X89705690Y-65423785D01*
X89705690Y-65280928D01*
X89631880Y-65066642D01*
X89558071Y-64995214D01*
X89041404Y-64995214D01*
X89041404Y-65280928D01*
X91418785Y-69638071D02*
X91492595Y-69423785D01*
X91566404Y-69352357D01*
X91714023Y-69280928D01*
X91935452Y-69280928D01*
X92083071Y-69352357D01*
X92156880Y-69423785D01*
X92230690Y-69566642D01*
X92230690Y-70138071D01*
X90680690Y-70138071D01*
X90680690Y-69638071D01*
X90754500Y-69495214D01*
X90828309Y-69423785D01*
X90975928Y-69352357D01*
X91123547Y-69352357D01*
X91271166Y-69423785D01*
X91344976Y-69495214D01*
X91418785Y-69638071D01*
X91418785Y-70138071D01*
X90680690Y-68638071D02*
X91935452Y-68638071D01*
X92083071Y-68566642D01*
X92156880Y-68495214D01*
X92230690Y-68352357D01*
X92230690Y-68066642D01*
X92156880Y-67923785D01*
X92083071Y-67852357D01*
X91935452Y-67780928D01*
X90680690Y-67780928D01*
X92156880Y-67138071D02*
X92230690Y-66923785D01*
X92230690Y-66566642D01*
X92156880Y-66423785D01*
X92083071Y-66352357D01*
X91935452Y-66280928D01*
X91787833Y-66280928D01*
X91640214Y-66352357D01*
X91566404Y-66423785D01*
X91492595Y-66566642D01*
X91418785Y-66852357D01*
X91344976Y-66995214D01*
X91271166Y-67066642D01*
X91123547Y-67138071D01*
X90975928Y-67138071D01*
X90828309Y-67066642D01*
X90754500Y-66995214D01*
X90680690Y-66852357D01*
X90680690Y-66495214D01*
X90754500Y-66280928D01*
X91492595Y-65352357D02*
X92230690Y-65352357D01*
X90680690Y-65852357D02*
X91492595Y-65352357D01*
X90680690Y-64852357D01*
X78085690Y-114908214D02*
X78085690Y-113979642D01*
X78676166Y-114479642D01*
X78676166Y-114265357D01*
X78749976Y-114122500D01*
X78823785Y-114051071D01*
X78971404Y-113979642D01*
X79340452Y-113979642D01*
X79488071Y-114051071D01*
X79561880Y-114122500D01*
X79635690Y-114265357D01*
X79635690Y-114693928D01*
X79561880Y-114836785D01*
X79488071Y-114908214D01*
X78085690Y-113551071D02*
X79635690Y-113051071D01*
X78085690Y-112551071D01*
X78085690Y-112193928D02*
X78085690Y-111265357D01*
X78676166Y-111765357D01*
X78676166Y-111551071D01*
X78749976Y-111408214D01*
X78823785Y-111336785D01*
X78971404Y-111265357D01*
X79340452Y-111265357D01*
X79488071Y-111336785D01*
X79561880Y-111408214D01*
X79635690Y-111551071D01*
X79635690Y-111979642D01*
X79561880Y-112122500D01*
X79488071Y-112193928D01*
X80684500Y-113979642D02*
X80610690Y-114122500D01*
X80610690Y-114336785D01*
X80684500Y-114551071D01*
X80832119Y-114693928D01*
X80979738Y-114765357D01*
X81274976Y-114836785D01*
X81496404Y-114836785D01*
X81791642Y-114765357D01*
X81939261Y-114693928D01*
X82086880Y-114551071D01*
X82160690Y-114336785D01*
X82160690Y-114193928D01*
X82086880Y-113979642D01*
X82013071Y-113908214D01*
X81496404Y-113908214D01*
X81496404Y-114193928D01*
X82160690Y-113265357D02*
X80610690Y-113265357D01*
X82160690Y-112408214D01*
X80610690Y-112408214D01*
X82160690Y-111693928D02*
X80610690Y-111693928D01*
X80610690Y-111336785D01*
X80684500Y-111122500D01*
X80832119Y-110979642D01*
X80979738Y-110908214D01*
X81274976Y-110836785D01*
X81496404Y-110836785D01*
X81791642Y-110908214D01*
X81939261Y-110979642D01*
X82086880Y-111122500D01*
X82160690Y-111336785D01*
X82160690Y-111693928D01*
X84611880Y-114836785D02*
X84685690Y-114622500D01*
X84685690Y-114265357D01*
X84611880Y-114122500D01*
X84538071Y-114051071D01*
X84390452Y-113979642D01*
X84242833Y-113979642D01*
X84095214Y-114051071D01*
X84021404Y-114122500D01*
X83947595Y-114265357D01*
X83873785Y-114551071D01*
X83799976Y-114693928D01*
X83726166Y-114765357D01*
X83578547Y-114836785D01*
X83430928Y-114836785D01*
X83283309Y-114765357D01*
X83209500Y-114693928D01*
X83135690Y-114551071D01*
X83135690Y-114193928D01*
X83209500Y-113979642D01*
X84685690Y-113336785D02*
X83135690Y-113336785D01*
X83135690Y-112979642D01*
X83209500Y-112765357D01*
X83357119Y-112622500D01*
X83504738Y-112551071D01*
X83799976Y-112479642D01*
X84021404Y-112479642D01*
X84316642Y-112551071D01*
X84464261Y-112622500D01*
X84611880Y-112765357D01*
X84685690Y-112979642D01*
X84685690Y-113336785D01*
X84242833Y-111908214D02*
X84242833Y-111193928D01*
X84685690Y-112051071D02*
X83135690Y-111551071D01*
X84685690Y-111051071D01*
X87136880Y-114836785D02*
X87210690Y-114622500D01*
X87210690Y-114265357D01*
X87136880Y-114122500D01*
X87063071Y-114051071D01*
X86915452Y-113979642D01*
X86767833Y-113979642D01*
X86620214Y-114051071D01*
X86546404Y-114122500D01*
X86472595Y-114265357D01*
X86398785Y-114551071D01*
X86324976Y-114693928D01*
X86251166Y-114765357D01*
X86103547Y-114836785D01*
X85955928Y-114836785D01*
X85808309Y-114765357D01*
X85734500Y-114693928D01*
X85660690Y-114551071D01*
X85660690Y-114193928D01*
X85734500Y-113979642D01*
X87063071Y-112479642D02*
X87136880Y-112551071D01*
X87210690Y-112765357D01*
X87210690Y-112908214D01*
X87136880Y-113122500D01*
X86989261Y-113265357D01*
X86841642Y-113336785D01*
X86546404Y-113408214D01*
X86324976Y-113408214D01*
X86029738Y-113336785D01*
X85882119Y-113265357D01*
X85734500Y-113122500D01*
X85660690Y-112908214D01*
X85660690Y-112765357D01*
X85734500Y-112551071D01*
X85808309Y-112479642D01*
X87210690Y-111122500D02*
X87210690Y-111836785D01*
X85660690Y-111836785D01*
X89735690Y-113908214D02*
X88997595Y-114408214D01*
X89735690Y-114765357D02*
X88185690Y-114765357D01*
X88185690Y-114193928D01*
X88259500Y-114051071D01*
X88333309Y-113979642D01*
X88480928Y-113908214D01*
X88702357Y-113908214D01*
X88849976Y-113979642D01*
X88923785Y-114051071D01*
X88997595Y-114193928D01*
X88997595Y-114765357D01*
X89661880Y-113336785D02*
X89735690Y-113122500D01*
X89735690Y-112765357D01*
X89661880Y-112622500D01*
X89588071Y-112551071D01*
X89440452Y-112479642D01*
X89292833Y-112479642D01*
X89145214Y-112551071D01*
X89071404Y-112622500D01*
X88997595Y-112765357D01*
X88923785Y-113051071D01*
X88849976Y-113193928D01*
X88776166Y-113265357D01*
X88628547Y-113336785D01*
X88480928Y-113336785D01*
X88333309Y-113265357D01*
X88259500Y-113193928D01*
X88185690Y-113051071D01*
X88185690Y-112693928D01*
X88259500Y-112479642D01*
X88185690Y-112051071D02*
X88185690Y-111193928D01*
X89735690Y-111622500D02*
X88185690Y-111622500D01*
X91817833Y-114836785D02*
X91817833Y-114122500D01*
X92260690Y-114979642D02*
X90710690Y-114479642D01*
X92260690Y-113979642D01*
X92260690Y-113479642D02*
X90710690Y-113479642D01*
X90710690Y-113122500D01*
X90784500Y-112908214D01*
X90932119Y-112765357D01*
X91079738Y-112693928D01*
X91374976Y-112622500D01*
X91596404Y-112622500D01*
X91891642Y-112693928D01*
X92039261Y-112765357D01*
X92186880Y-112908214D01*
X92260690Y-113122500D01*
X92260690Y-113479642D01*
X92113071Y-111122500D02*
X92186880Y-111193928D01*
X92260690Y-111408214D01*
X92260690Y-111551071D01*
X92186880Y-111765357D01*
X92039261Y-111908214D01*
X91891642Y-111979642D01*
X91596404Y-112051071D01*
X91374976Y-112051071D01*
X91079738Y-111979642D01*
X90932119Y-111908214D01*
X90784500Y-111765357D01*
X90710690Y-111551071D01*
X90710690Y-111408214D01*
X90784500Y-111193928D01*
X90858309Y-111122500D01*
X93309500Y-113979642D02*
X93235690Y-114122500D01*
X93235690Y-114336785D01*
X93309500Y-114551071D01*
X93457119Y-114693928D01*
X93604738Y-114765357D01*
X93899976Y-114836785D01*
X94121404Y-114836785D01*
X94416642Y-114765357D01*
X94564261Y-114693928D01*
X94711880Y-114551071D01*
X94785690Y-114336785D01*
X94785690Y-114193928D01*
X94711880Y-113979642D01*
X94638071Y-113908214D01*
X94121404Y-113908214D01*
X94121404Y-114193928D01*
X94785690Y-113265357D02*
X93235690Y-113265357D01*
X93235690Y-112693928D01*
X93309500Y-112551071D01*
X93383309Y-112479642D01*
X93530928Y-112408214D01*
X93752357Y-112408214D01*
X93899976Y-112479642D01*
X93973785Y-112551071D01*
X94047595Y-112693928D01*
X94047595Y-113265357D01*
X94785690Y-111765357D02*
X93235690Y-111765357D01*
X93235690Y-110765357D02*
X93235690Y-110479642D01*
X93309500Y-110336785D01*
X93457119Y-110193928D01*
X93752357Y-110122500D01*
X94269023Y-110122500D01*
X94564261Y-110193928D01*
X94711880Y-110336785D01*
X94785690Y-110479642D01*
X94785690Y-110765357D01*
X94711880Y-110908214D01*
X94564261Y-111051071D01*
X94269023Y-111122500D01*
X93752357Y-111122500D01*
X93457119Y-111051071D01*
X93309500Y-110908214D01*
X93235690Y-110765357D01*
X96498785Y-114265357D02*
X96572595Y-114051071D01*
X96646404Y-113979642D01*
X96794023Y-113908214D01*
X97015452Y-113908214D01*
X97163071Y-113979642D01*
X97236880Y-114051071D01*
X97310690Y-114193928D01*
X97310690Y-114765357D01*
X95760690Y-114765357D01*
X95760690Y-114265357D01*
X95834500Y-114122500D01*
X95908309Y-114051071D01*
X96055928Y-113979642D01*
X96203547Y-113979642D01*
X96351166Y-114051071D01*
X96424976Y-114122500D01*
X96498785Y-114265357D01*
X96498785Y-114765357D01*
X95760690Y-112979642D02*
X95760690Y-112693928D01*
X95834500Y-112551071D01*
X95982119Y-112408214D01*
X96277357Y-112336785D01*
X96794023Y-112336785D01*
X97089261Y-112408214D01*
X97236880Y-112551071D01*
X97310690Y-112693928D01*
X97310690Y-112979642D01*
X97236880Y-113122500D01*
X97089261Y-113265357D01*
X96794023Y-113336785D01*
X96277357Y-113336785D01*
X95982119Y-113265357D01*
X95834500Y-113122500D01*
X95760690Y-112979642D01*
X95760690Y-111408214D02*
X95760690Y-111122500D01*
X95834500Y-110979642D01*
X95982119Y-110836785D01*
X96277357Y-110765357D01*
X96794023Y-110765357D01*
X97089261Y-110836785D01*
X97236880Y-110979642D01*
X97310690Y-111122500D01*
X97310690Y-111408214D01*
X97236880Y-111551071D01*
X97089261Y-111693928D01*
X96794023Y-111765357D01*
X96277357Y-111765357D01*
X95982119Y-111693928D01*
X95834500Y-111551071D01*
X95760690Y-111408214D01*
X95760690Y-110336785D02*
X95760690Y-109479642D01*
X97310690Y-109908214D02*
X95760690Y-109908214D01*
X99835690Y-113908214D02*
X99097595Y-114408214D01*
X99835690Y-114765357D02*
X98285690Y-114765357D01*
X98285690Y-114193928D01*
X98359500Y-114051071D01*
X98433309Y-113979642D01*
X98580928Y-113908214D01*
X98802357Y-113908214D01*
X98949976Y-113979642D01*
X99023785Y-114051071D01*
X99097595Y-114193928D01*
X99097595Y-114765357D01*
X98285690Y-113408214D02*
X99835690Y-112408214D01*
X98285690Y-112408214D02*
X99835690Y-113408214D01*
X100810690Y-114979642D02*
X100810690Y-114122500D01*
X102360690Y-114551071D02*
X100810690Y-114551071D01*
X100810690Y-113765357D02*
X102360690Y-112765357D01*
X100810690Y-112765357D02*
X102360690Y-113765357D01*
D15*
X68746000Y-96789000D02*
X57746000Y-96789000D01*
X57746000Y-96789000D02*
X57746000Y-82789000D01*
X57746000Y-82789000D02*
X68746000Y-82789000D01*
X68746000Y-82789000D02*
X68746000Y-96789000D01*
X69496000Y-97289000D02*
G75*
G03X69496000Y-97289000I-250000J0D01*
G01*
D16*
X82700000Y-99550000D02*
X84700000Y-99550000D01*
X84700000Y-99550000D02*
X84700000Y-96550000D01*
X82700000Y-99550000D02*
X82700000Y-96550000D01*
X107058779Y-92898500D02*
X106733221Y-92898500D01*
X107058779Y-93918500D02*
X106733221Y-93918500D01*
X52288064Y-99462000D02*
X51083936Y-99462000D01*
X52288064Y-97642000D02*
X51083936Y-97642000D01*
X53542000Y-91102922D02*
X53542000Y-91620078D01*
X52122000Y-91102922D02*
X52122000Y-91620078D01*
X48820000Y-86316078D02*
X48820000Y-85798922D01*
X50240000Y-86316078D02*
X50240000Y-85798922D01*
X52407078Y-96722000D02*
X51889922Y-96722000D01*
X52407078Y-95302000D02*
X51889922Y-95302000D01*
X48067500Y-82476221D02*
X48067500Y-82801779D01*
X49087500Y-82476221D02*
X49087500Y-82801779D01*
X75253922Y-97365000D02*
X75771078Y-97365000D01*
X75253922Y-98785000D02*
X75771078Y-98785000D01*
X75227922Y-84530000D02*
X75745078Y-84530000D01*
X75227922Y-83110000D02*
X75745078Y-83110000D01*
X46788000Y-72790578D02*
X46788000Y-72273422D01*
X48208000Y-72790578D02*
X48208000Y-72273422D01*
X51169500Y-110373422D02*
X51169500Y-110890578D01*
X52589500Y-110373422D02*
X52589500Y-110890578D01*
X52461279Y-94490000D02*
X52135721Y-94490000D01*
X52461279Y-93470000D02*
X52135721Y-93470000D01*
X50240000Y-90126078D02*
X50240000Y-89608922D01*
X48820000Y-90126078D02*
X48820000Y-89608922D01*
X78166500Y-83500279D02*
X78166500Y-83174721D01*
X79186500Y-83500279D02*
X79186500Y-83174721D01*
X102889578Y-67044500D02*
X102372422Y-67044500D01*
X102889578Y-68464500D02*
X102372422Y-68464500D01*
X103451779Y-70106000D02*
X103126221Y-70106000D01*
X103451779Y-69086000D02*
X103126221Y-69086000D01*
X97851279Y-68010500D02*
X97525721Y-68010500D01*
X97851279Y-66990500D02*
X97525721Y-66990500D01*
X82992500Y-109082721D02*
X82992500Y-109408279D01*
X84012500Y-109082721D02*
X84012500Y-109408279D01*
X89110078Y-102160000D02*
X88592922Y-102160000D01*
X89110078Y-103580000D02*
X88592922Y-103580000D01*
X91810721Y-107444000D02*
X92136279Y-107444000D01*
X91810721Y-106424000D02*
X92136279Y-106424000D01*
X53211000Y-87686000D02*
X53211000Y-86756000D01*
X53211000Y-84526000D02*
X53211000Y-85456000D01*
X53211000Y-84526000D02*
X51051000Y-84526000D01*
X53211000Y-87686000D02*
X51751000Y-87686000D01*
X50022000Y-92110000D02*
X48022000Y-92110000D01*
X48022000Y-92110000D02*
X48022000Y-96010000D01*
X50022000Y-92110000D02*
X50022000Y-96010000D01*
X105792000Y-97924500D02*
X108477000Y-97924500D01*
X108477000Y-97924500D02*
X108477000Y-96004500D01*
X108477000Y-96004500D02*
X105792000Y-96004500D01*
X105822000Y-103258500D02*
X108507000Y-103258500D01*
X108507000Y-103258500D02*
X108507000Y-101338500D01*
X108507000Y-101338500D02*
X105822000Y-101338500D01*
X108507000Y-98671500D02*
X105822000Y-98671500D01*
X108507000Y-100591500D02*
X108507000Y-98671500D01*
X105822000Y-100591500D02*
X108507000Y-100591500D01*
X48692500Y-102168000D02*
X48692500Y-101118000D01*
X47642500Y-101118000D02*
X48692500Y-101118000D01*
X42592500Y-110518000D02*
X33792500Y-110518000D01*
X33792500Y-110518000D02*
X33792500Y-101318000D01*
X48492500Y-107818000D02*
X48492500Y-110518000D01*
X48492500Y-110518000D02*
X46592500Y-110518000D01*
X33792500Y-101318000D02*
X48492500Y-101318000D01*
X48492500Y-101318000D02*
X48492500Y-103918000D01*
X90551700Y-101622700D02*
X85451700Y-101622700D01*
X90551700Y-96522700D02*
X85451700Y-96522700D01*
X79753779Y-87759000D02*
X79428221Y-87759000D01*
X79753779Y-86739000D02*
X79428221Y-86739000D01*
X89473500Y-93977779D02*
X89473500Y-93652221D01*
X88453500Y-93977779D02*
X88453500Y-93652221D01*
X91124500Y-93977779D02*
X91124500Y-93652221D01*
X90104500Y-93977779D02*
X90104500Y-93652221D01*
X107071279Y-95569500D02*
X106745721Y-95569500D01*
X107071279Y-94549500D02*
X106745721Y-94549500D01*
X79817500Y-83500279D02*
X79817500Y-83174721D01*
X80837500Y-83500279D02*
X80837500Y-83174721D01*
X97851279Y-68578000D02*
X97525721Y-68578000D01*
X97851279Y-69598000D02*
X97525721Y-69598000D01*
X85727000Y-109408279D02*
X85727000Y-109082721D01*
X84707000Y-109408279D02*
X84707000Y-109082721D01*
X89787000Y-109408279D02*
X89787000Y-109082721D01*
X90807000Y-109408279D02*
X90807000Y-109082721D01*
D17*
X91186000Y-71691500D02*
X105186000Y-71691500D01*
X105186000Y-71691500D02*
X105186000Y-89691500D01*
X105186000Y-89691500D02*
X91186000Y-89691500D01*
X91186000Y-89691500D02*
X91186000Y-71691500D01*
D16*
X84252000Y-105929000D02*
X85552000Y-105929000D01*
X83652000Y-103629000D02*
X85552000Y-103629000D01*
D17*
X97960000Y-105889500D02*
X97960000Y-105839500D01*
X93810000Y-105889500D02*
X93810000Y-105744500D01*
X93810000Y-100739500D02*
X93810000Y-100884500D01*
X97960000Y-100739500D02*
X97960000Y-100884500D01*
X97960000Y-105889500D02*
X93810000Y-105889500D01*
X97960000Y-100739500D02*
X93810000Y-100739500D01*
X97960000Y-105839500D02*
X99360000Y-105839500D01*
D16*
X40026000Y-97263000D02*
G75*
G03X40026000Y-97263000I-2180000J0D01*
G01*
X40026000Y-92263000D02*
G75*
G03X40026000Y-92263000I-2180000J0D01*
G01*
X40026000Y-87263000D02*
G75*
G03X40026000Y-87263000I-2180000J0D01*
G01*
X40026000Y-82263000D02*
G75*
G03X40026000Y-82263000I-2180000J0D01*
G01*
X40026000Y-77263000D02*
G75*
G03X40026000Y-77263000I-2180000J0D01*
G01*
X40026000Y-72263000D02*
G75*
G03X40026000Y-72263000I-2180000J0D01*
G01*
X42446000Y-99823000D02*
X42446000Y-69703000D01*
X41346000Y-99823000D02*
X41346000Y-69703000D01*
X33786000Y-99823000D02*
X33786000Y-69703000D01*
X42906000Y-99823000D02*
X42906000Y-69703000D01*
X33786000Y-99823000D02*
X42906000Y-99823000D01*
X33786000Y-69703000D02*
X42906000Y-69703000D01*
X36458000Y-95609000D02*
X36565000Y-95716000D01*
X39393000Y-98545000D02*
X39500000Y-98651000D01*
X36192000Y-95875000D02*
X36299000Y-95982000D01*
X39127000Y-98811000D02*
X39234000Y-98917000D01*
X36458000Y-90609000D02*
X36854000Y-91004000D01*
X39120000Y-93270000D02*
X39500000Y-93650000D01*
X36192000Y-90875000D02*
X36572000Y-91255000D01*
X38838000Y-93521000D02*
X39234000Y-93916000D01*
X36458000Y-85609000D02*
X36854000Y-86004000D01*
X39120000Y-88270000D02*
X39500000Y-88650000D01*
X36192000Y-85875000D02*
X36572000Y-86255000D01*
X38838000Y-88521000D02*
X39234000Y-88916000D01*
X36458000Y-80609000D02*
X36854000Y-81004000D01*
X39120000Y-83270000D02*
X39500000Y-83650000D01*
X36192000Y-80875000D02*
X36572000Y-81255000D01*
X38838000Y-83521000D02*
X39234000Y-83916000D01*
X36458000Y-75609000D02*
X36854000Y-76004000D01*
X39120000Y-78270000D02*
X39500000Y-78650000D01*
X36192000Y-75875000D02*
X36572000Y-76255000D01*
X38838000Y-78521000D02*
X39234000Y-78916000D01*
X36458000Y-70609000D02*
X36854000Y-71004000D01*
X39120000Y-73270000D02*
X39500000Y-73650000D01*
X36192000Y-70875000D02*
X36572000Y-71255000D01*
X38838000Y-73521000D02*
X39234000Y-73916000D01*
X42506000Y-100063000D02*
X43146000Y-100063000D01*
X43146000Y-100063000D02*
X43146000Y-99663000D01*
X57599000Y-68411936D02*
X57599000Y-72516064D01*
X61019000Y-68411936D02*
X61019000Y-72516064D01*
X61663000Y-68411936D02*
X61663000Y-72516064D01*
X65083000Y-68411936D02*
X65083000Y-72516064D01*
X69147000Y-68411936D02*
X69147000Y-72516064D01*
X65727000Y-68411936D02*
X65727000Y-72516064D01*
X57332300Y-111178764D02*
X57332300Y-107074636D01*
X60752300Y-111178764D02*
X60752300Y-107074636D01*
X64816300Y-111178764D02*
X64816300Y-107074636D01*
X61396300Y-111178764D02*
X61396300Y-107074636D01*
X65460300Y-111178764D02*
X65460300Y-107074636D01*
X68880300Y-111178764D02*
X68880300Y-107074636D01*
X75491221Y-88453500D02*
X75816779Y-88453500D01*
X75491221Y-89473500D02*
X75816779Y-89473500D01*
X82610000Y-94167000D02*
X82610000Y-91507000D01*
X80010000Y-94167000D02*
X82610000Y-94167000D01*
X80010000Y-91507000D02*
X82610000Y-91507000D01*
X80010000Y-94167000D02*
X80010000Y-91507000D01*
X78740000Y-94167000D02*
X77410000Y-94167000D01*
X77410000Y-94167000D02*
X77410000Y-92837000D01*
X102930000Y-118170000D02*
X102930000Y-115510000D01*
X80010000Y-118170000D02*
X102930000Y-118170000D01*
X80010000Y-115510000D02*
X102930000Y-115510000D01*
X80010000Y-118170000D02*
X80010000Y-115510000D01*
X78740000Y-118170000D02*
X77410000Y-118170000D01*
X77410000Y-118170000D02*
X77410000Y-116840000D01*
X80600000Y-95850000D02*
X80600000Y-97250000D01*
X79900000Y-97950000D02*
X79300000Y-97950000D01*
X78600000Y-97250000D02*
X78600000Y-95850000D01*
X79300000Y-95150000D02*
X79900000Y-95150000D01*
X79900000Y-95150000D02*
G75*
G02X80600000Y-95850000I0J-700000D01*
G01*
X78600000Y-95850000D02*
G75*
G02X79300000Y-95150000I700000J0D01*
G01*
X79300000Y-97950000D02*
G75*
G02X78600000Y-97250000I0J700000D01*
G01*
X80600000Y-97250000D02*
G75*
G02X79900000Y-97950000I-700000J0D01*
G01*
X47436500Y-79313721D02*
X47436500Y-79639279D01*
X46416500Y-79313721D02*
X46416500Y-79639279D01*
X46416500Y-82476221D02*
X46416500Y-82801779D01*
X47436500Y-82476221D02*
X47436500Y-82801779D01*
X95438500Y-96847779D02*
X95438500Y-96522221D01*
X96458500Y-96847779D02*
X96458500Y-96522221D01*
X93787500Y-96522221D02*
X93787500Y-96847779D01*
X94807500Y-96522221D02*
X94807500Y-96847779D01*
X100631000Y-94408500D02*
G75*
G02X99931000Y-93708500I0J700000D01*
G01*
X99931000Y-93108500D02*
G75*
G02X100631000Y-92408500I700000J0D01*
G01*
X102031000Y-92408500D02*
G75*
G02X102731000Y-93108500I0J-700000D01*
G01*
X102731000Y-93708500D02*
G75*
G02X102031000Y-94408500I-700000J0D01*
G01*
X102731000Y-93108500D02*
X102731000Y-93708500D01*
X100631000Y-92408500D02*
X102031000Y-92408500D01*
X99931000Y-93708500D02*
X99931000Y-93108500D01*
X102031000Y-94408500D02*
X100631000Y-94408500D01*
X50836500Y-83813500D02*
X51136500Y-84113500D01*
X50536500Y-84113500D02*
X51136500Y-84113500D01*
X50836500Y-83813500D02*
X50536500Y-84113500D01*
X49986500Y-82913500D02*
X49986500Y-82313500D01*
X53436500Y-83613500D02*
X50636500Y-83613500D01*
X54086500Y-82313500D02*
X54086500Y-82913500D01*
X50636500Y-81613500D02*
X53436500Y-81613500D01*
X53386500Y-81613500D02*
G75*
G02X54086500Y-82313500I0J-700000D01*
G01*
X54086500Y-82913500D02*
G75*
G02X53386500Y-83613500I-700000J0D01*
G01*
X50686500Y-83613500D02*
G75*
G02X49986500Y-82913500I0J700000D01*
G01*
X49986500Y-82313500D02*
G75*
G02X50686500Y-81613500I700000J0D01*
G01*
X97525721Y-65403000D02*
X97851279Y-65403000D01*
X97525721Y-66423000D02*
X97851279Y-66423000D01*
X92708000Y-66474221D02*
X92708000Y-66799779D01*
X93728000Y-66474221D02*
X93728000Y-66799779D01*
X95379000Y-66486721D02*
X95379000Y-66812279D01*
X94359000Y-66486721D02*
X94359000Y-66812279D01*
X53535000Y-68390436D02*
X53535000Y-72494564D01*
X56955000Y-68390436D02*
X56955000Y-72494564D01*
X53281000Y-111166064D02*
X53281000Y-107061936D01*
X56701000Y-111166064D02*
X56701000Y-107061936D01*
X84076000Y-71574779D02*
X84076000Y-71249221D01*
X83056000Y-71574779D02*
X83056000Y-71249221D01*
X88330500Y-74538721D02*
X88330500Y-74864279D01*
X87310500Y-74538721D02*
X87310500Y-74864279D01*
X91565000Y-109408279D02*
X91565000Y-109082721D01*
X92585000Y-109408279D02*
X92585000Y-109082721D01*
X98046000Y-108658779D02*
X98046000Y-108333221D01*
X97026000Y-108658779D02*
X97026000Y-108333221D01*
X99760500Y-108646279D02*
X99760500Y-108320721D01*
X98740500Y-108646279D02*
X98740500Y-108320721D01*
X100455000Y-108646279D02*
X100455000Y-108320721D01*
X101475000Y-108646279D02*
X101475000Y-108320721D01*
X85092000Y-74538721D02*
X85092000Y-74864279D01*
X84072000Y-74538721D02*
X84072000Y-74864279D01*
X85723000Y-74538721D02*
X85723000Y-74864279D01*
X86743000Y-74538721D02*
X86743000Y-74864279D01*
X69840918Y-101337000D02*
X69840918Y-102587000D01*
X69215918Y-101962000D02*
X70465918Y-101962000D01*
X82394000Y-105220000D02*
X82394000Y-105854000D01*
X82354000Y-104780000D02*
X82354000Y-106294000D01*
X82314000Y-104509000D02*
X82314000Y-106565000D01*
X82274000Y-104296000D02*
X82274000Y-106778000D01*
X82234000Y-104115000D02*
X82234000Y-106959000D01*
X82194000Y-103954000D02*
X82194000Y-107120000D01*
X82154000Y-103809000D02*
X82154000Y-107265000D01*
X82114000Y-103676000D02*
X82114000Y-107398000D01*
X82074000Y-103553000D02*
X82074000Y-107521000D01*
X82034000Y-103437000D02*
X82034000Y-107637000D01*
X81994000Y-103328000D02*
X81994000Y-107746000D01*
X81954000Y-103225000D02*
X81954000Y-107849000D01*
X81914000Y-103127000D02*
X81914000Y-107947000D01*
X81874000Y-103033000D02*
X81874000Y-108041000D01*
X81834000Y-102943000D02*
X81834000Y-108131000D01*
X81794000Y-102856000D02*
X81794000Y-108218000D01*
X81754000Y-102773000D02*
X81754000Y-108301000D01*
X81714000Y-102693000D02*
X81714000Y-108381000D01*
X81674000Y-102616000D02*
X81674000Y-108458000D01*
X81634000Y-102541000D02*
X81634000Y-108533000D01*
X81594000Y-102468000D02*
X81594000Y-108606000D01*
X81554000Y-102397000D02*
X81554000Y-108677000D01*
X81514000Y-102329000D02*
X81514000Y-108745000D01*
X81474000Y-102262000D02*
X81474000Y-108812000D01*
X81434000Y-102198000D02*
X81434000Y-108876000D01*
X81394000Y-102135000D02*
X81394000Y-108939000D01*
X81354000Y-102073000D02*
X81354000Y-109001000D01*
X81314000Y-102013000D02*
X81314000Y-109061000D01*
X81274000Y-101954000D02*
X81274000Y-109120000D01*
X81234000Y-101897000D02*
X81234000Y-109177000D01*
X81194000Y-101841000D02*
X81194000Y-109233000D01*
X81154000Y-101787000D02*
X81154000Y-109287000D01*
X81114000Y-101733000D02*
X81114000Y-109341000D01*
X81074000Y-101681000D02*
X81074000Y-109393000D01*
X81034000Y-101630000D02*
X81034000Y-109444000D01*
X80994000Y-101580000D02*
X80994000Y-109494000D01*
X80954000Y-101530000D02*
X80954000Y-109544000D01*
X80914000Y-101482000D02*
X80914000Y-109592000D01*
X80874000Y-101435000D02*
X80874000Y-109639000D01*
X80834000Y-101389000D02*
X80834000Y-109685000D01*
X80794000Y-101343000D02*
X80794000Y-109731000D01*
X80754000Y-101299000D02*
X80754000Y-109775000D01*
X80714000Y-101255000D02*
X80714000Y-109819000D01*
X80674000Y-101212000D02*
X80674000Y-109862000D01*
X80634000Y-101170000D02*
X80634000Y-109904000D01*
X80594000Y-101129000D02*
X80594000Y-109945000D01*
X80554000Y-101088000D02*
X80554000Y-109986000D01*
X80514000Y-101048000D02*
X80514000Y-110026000D01*
X80474000Y-101009000D02*
X80474000Y-110065000D01*
X80434000Y-100970000D02*
X80434000Y-110104000D01*
X80394000Y-100932000D02*
X80394000Y-110142000D01*
X80354000Y-100895000D02*
X80354000Y-110179000D01*
X80314000Y-100859000D02*
X80314000Y-110215000D01*
X80274000Y-100823000D02*
X80274000Y-110251000D01*
X80234000Y-100787000D02*
X80234000Y-110287000D01*
X80194000Y-100752000D02*
X80194000Y-110322000D01*
X80154000Y-100718000D02*
X80154000Y-110356000D01*
X80114000Y-100685000D02*
X80114000Y-110389000D01*
X80074000Y-100652000D02*
X80074000Y-110422000D01*
X80034000Y-100619000D02*
X80034000Y-110455000D01*
X79994000Y-100587000D02*
X79994000Y-110487000D01*
X79954000Y-106977000D02*
X79954000Y-110519000D01*
X79954000Y-100555000D02*
X79954000Y-104097000D01*
X79914000Y-106977000D02*
X79914000Y-110549000D01*
X79914000Y-100525000D02*
X79914000Y-104097000D01*
X79874000Y-106977000D02*
X79874000Y-110580000D01*
X79874000Y-100494000D02*
X79874000Y-104097000D01*
X79834000Y-106977000D02*
X79834000Y-110610000D01*
X79834000Y-100464000D02*
X79834000Y-104097000D01*
X79794000Y-106977000D02*
X79794000Y-110639000D01*
X79794000Y-100435000D02*
X79794000Y-104097000D01*
X79754000Y-106977000D02*
X79754000Y-110668000D01*
X79754000Y-100406000D02*
X79754000Y-104097000D01*
X79714000Y-106977000D02*
X79714000Y-110697000D01*
X79714000Y-100377000D02*
X79714000Y-104097000D01*
X79674000Y-106977000D02*
X79674000Y-110725000D01*
X79674000Y-100349000D02*
X79674000Y-104097000D01*
X79634000Y-106977000D02*
X79634000Y-110753000D01*
X79634000Y-100321000D02*
X79634000Y-104097000D01*
X79594000Y-106977000D02*
X79594000Y-110780000D01*
X79594000Y-100294000D02*
X79594000Y-104097000D01*
X79554000Y-106977000D02*
X79554000Y-110807000D01*
X79554000Y-100267000D02*
X79554000Y-104097000D01*
X79514000Y-106977000D02*
X79514000Y-110833000D01*
X79514000Y-100241000D02*
X79514000Y-104097000D01*
X79474000Y-106977000D02*
X79474000Y-110859000D01*
X79474000Y-100215000D02*
X79474000Y-104097000D01*
X79434000Y-106977000D02*
X79434000Y-110884000D01*
X79434000Y-100190000D02*
X79434000Y-104097000D01*
X79394000Y-106977000D02*
X79394000Y-110909000D01*
X79394000Y-100165000D02*
X79394000Y-104097000D01*
X79354000Y-106977000D02*
X79354000Y-110934000D01*
X79354000Y-100140000D02*
X79354000Y-104097000D01*
X79314000Y-106977000D02*
X79314000Y-110958000D01*
X79314000Y-100116000D02*
X79314000Y-104097000D01*
X79274000Y-106977000D02*
X79274000Y-110982000D01*
X79274000Y-100092000D02*
X79274000Y-104097000D01*
X79234000Y-106977000D02*
X79234000Y-111005000D01*
X79234000Y-100069000D02*
X79234000Y-104097000D01*
X79194000Y-106977000D02*
X79194000Y-111028000D01*
X79194000Y-100046000D02*
X79194000Y-104097000D01*
X79154000Y-106977000D02*
X79154000Y-111051000D01*
X79154000Y-100023000D02*
X79154000Y-104097000D01*
X79114000Y-106977000D02*
X79114000Y-111073000D01*
X79114000Y-100001000D02*
X79114000Y-104097000D01*
X79074000Y-106977000D02*
X79074000Y-111095000D01*
X79074000Y-99979000D02*
X79074000Y-104097000D01*
X79034000Y-106977000D02*
X79034000Y-111117000D01*
X79034000Y-99957000D02*
X79034000Y-104097000D01*
X78994000Y-106977000D02*
X78994000Y-111138000D01*
X78994000Y-99936000D02*
X78994000Y-104097000D01*
X78954000Y-106977000D02*
X78954000Y-111159000D01*
X78954000Y-99915000D02*
X78954000Y-104097000D01*
X78914000Y-106977000D02*
X78914000Y-111179000D01*
X78914000Y-99895000D02*
X78914000Y-104097000D01*
X78874000Y-106977000D02*
X78874000Y-111199000D01*
X78874000Y-99875000D02*
X78874000Y-104097000D01*
X78834000Y-106977000D02*
X78834000Y-111219000D01*
X78834000Y-99855000D02*
X78834000Y-104097000D01*
X78794000Y-106977000D02*
X78794000Y-111239000D01*
X78794000Y-99835000D02*
X78794000Y-104097000D01*
X78754000Y-106977000D02*
X78754000Y-111258000D01*
X78754000Y-99816000D02*
X78754000Y-104097000D01*
X78714000Y-106977000D02*
X78714000Y-111276000D01*
X78714000Y-99798000D02*
X78714000Y-104097000D01*
X78674000Y-106977000D02*
X78674000Y-111295000D01*
X78674000Y-99779000D02*
X78674000Y-104097000D01*
X78634000Y-106977000D02*
X78634000Y-111313000D01*
X78634000Y-99761000D02*
X78634000Y-104097000D01*
X78594000Y-106977000D02*
X78594000Y-111330000D01*
X78594000Y-99744000D02*
X78594000Y-104097000D01*
X78554000Y-106977000D02*
X78554000Y-111348000D01*
X78554000Y-99726000D02*
X78554000Y-104097000D01*
X78514000Y-106977000D02*
X78514000Y-111365000D01*
X78514000Y-99709000D02*
X78514000Y-104097000D01*
X78474000Y-106977000D02*
X78474000Y-111382000D01*
X78474000Y-99692000D02*
X78474000Y-104097000D01*
X78434000Y-106977000D02*
X78434000Y-111398000D01*
X78434000Y-99676000D02*
X78434000Y-104097000D01*
X78394000Y-106977000D02*
X78394000Y-111414000D01*
X78394000Y-99660000D02*
X78394000Y-104097000D01*
X78354000Y-106977000D02*
X78354000Y-111430000D01*
X78354000Y-99644000D02*
X78354000Y-104097000D01*
X78314000Y-106977000D02*
X78314000Y-111445000D01*
X78314000Y-99629000D02*
X78314000Y-104097000D01*
X78274000Y-106977000D02*
X78274000Y-111461000D01*
X78274000Y-99613000D02*
X78274000Y-104097000D01*
X78234000Y-106977000D02*
X78234000Y-111476000D01*
X78234000Y-99598000D02*
X78234000Y-104097000D01*
X78194000Y-106977000D02*
X78194000Y-111490000D01*
X78194000Y-99584000D02*
X78194000Y-104097000D01*
X78154000Y-106977000D02*
X78154000Y-111504000D01*
X78154000Y-99570000D02*
X78154000Y-104097000D01*
X78114000Y-106977000D02*
X78114000Y-111518000D01*
X78114000Y-99556000D02*
X78114000Y-104097000D01*
X78074000Y-106977000D02*
X78074000Y-111532000D01*
X78074000Y-99542000D02*
X78074000Y-104097000D01*
X78034000Y-106977000D02*
X78034000Y-111545000D01*
X78034000Y-99529000D02*
X78034000Y-104097000D01*
X77994000Y-106977000D02*
X77994000Y-111558000D01*
X77994000Y-99516000D02*
X77994000Y-104097000D01*
X77954000Y-106977000D02*
X77954000Y-111571000D01*
X77954000Y-99503000D02*
X77954000Y-104097000D01*
X77914000Y-106977000D02*
X77914000Y-111584000D01*
X77914000Y-99490000D02*
X77914000Y-104097000D01*
X77874000Y-106977000D02*
X77874000Y-111596000D01*
X77874000Y-99478000D02*
X77874000Y-104097000D01*
X77834000Y-106977000D02*
X77834000Y-111608000D01*
X77834000Y-99466000D02*
X77834000Y-104097000D01*
X77794000Y-106977000D02*
X77794000Y-111620000D01*
X77794000Y-99454000D02*
X77794000Y-104097000D01*
X77754000Y-106977000D02*
X77754000Y-111631000D01*
X77754000Y-99443000D02*
X77754000Y-104097000D01*
X77714000Y-106977000D02*
X77714000Y-111642000D01*
X77714000Y-99432000D02*
X77714000Y-104097000D01*
X77674000Y-106977000D02*
X77674000Y-111653000D01*
X77674000Y-99421000D02*
X77674000Y-104097000D01*
X77634000Y-106977000D02*
X77634000Y-111663000D01*
X77634000Y-99411000D02*
X77634000Y-104097000D01*
X77594000Y-106977000D02*
X77594000Y-111674000D01*
X77594000Y-99400000D02*
X77594000Y-104097000D01*
X77554000Y-106977000D02*
X77554000Y-111683000D01*
X77554000Y-99391000D02*
X77554000Y-104097000D01*
X77514000Y-106977000D02*
X77514000Y-111693000D01*
X77514000Y-99381000D02*
X77514000Y-104097000D01*
X77474000Y-106977000D02*
X77474000Y-111703000D01*
X77474000Y-99371000D02*
X77474000Y-104097000D01*
X77434000Y-106977000D02*
X77434000Y-111712000D01*
X77434000Y-99362000D02*
X77434000Y-104097000D01*
X77394000Y-106977000D02*
X77394000Y-111721000D01*
X77394000Y-99353000D02*
X77394000Y-104097000D01*
X77354000Y-106977000D02*
X77354000Y-111729000D01*
X77354000Y-99345000D02*
X77354000Y-104097000D01*
X77314000Y-106977000D02*
X77314000Y-111738000D01*
X77314000Y-99336000D02*
X77314000Y-104097000D01*
X77274000Y-106977000D02*
X77274000Y-111746000D01*
X77274000Y-99328000D02*
X77274000Y-104097000D01*
X77234000Y-106977000D02*
X77234000Y-111753000D01*
X77234000Y-99321000D02*
X77234000Y-104097000D01*
X77194000Y-106977000D02*
X77194000Y-111761000D01*
X77194000Y-99313000D02*
X77194000Y-104097000D01*
X77154000Y-106977000D02*
X77154000Y-111768000D01*
X77154000Y-99306000D02*
X77154000Y-104097000D01*
X77114000Y-106977000D02*
X77114000Y-111775000D01*
X77114000Y-99299000D02*
X77114000Y-104097000D01*
X77074000Y-99292000D02*
X77074000Y-111782000D01*
X77034000Y-99285000D02*
X77034000Y-111789000D01*
X76994000Y-99279000D02*
X76994000Y-111795000D01*
X76954000Y-99273000D02*
X76954000Y-111801000D01*
X76914000Y-99268000D02*
X76914000Y-111806000D01*
X76874000Y-99262000D02*
X76874000Y-111812000D01*
X76834000Y-99257000D02*
X76834000Y-111817000D01*
X76794000Y-99252000D02*
X76794000Y-111822000D01*
X76754000Y-99247000D02*
X76754000Y-111827000D01*
X76713000Y-99243000D02*
X76713000Y-111831000D01*
X76673000Y-99239000D02*
X76673000Y-111835000D01*
X76633000Y-99235000D02*
X76633000Y-111839000D01*
X76593000Y-99231000D02*
X76593000Y-111843000D01*
X76553000Y-99228000D02*
X76553000Y-111846000D01*
X76513000Y-99225000D02*
X76513000Y-111849000D01*
X76473000Y-99222000D02*
X76473000Y-111852000D01*
X76433000Y-99219000D02*
X76433000Y-111855000D01*
X76393000Y-99217000D02*
X76393000Y-111857000D01*
X76353000Y-99215000D02*
X76353000Y-111859000D01*
X76313000Y-99213000D02*
X76313000Y-111861000D01*
X76273000Y-99211000D02*
X76273000Y-111863000D01*
X76233000Y-99210000D02*
X76233000Y-111864000D01*
X76193000Y-99209000D02*
X76193000Y-111865000D01*
X76153000Y-99208000D02*
X76153000Y-111866000D01*
X76113000Y-99207000D02*
X76113000Y-111867000D01*
X76073000Y-99207000D02*
X76073000Y-111867000D01*
X76033000Y-99207000D02*
X76033000Y-111867000D01*
X82403000Y-105537000D02*
G75*
G03X82403000Y-105537000I-6370000J0D01*
G01*
X82593500Y-74358500D02*
G75*
G03X82593500Y-74358500I-6370000J0D01*
G01*
X76223500Y-68028500D02*
X76223500Y-80688500D01*
X76263500Y-68028500D02*
X76263500Y-80688500D01*
X76303500Y-68028500D02*
X76303500Y-80688500D01*
X76343500Y-68029500D02*
X76343500Y-80687500D01*
X76383500Y-68030500D02*
X76383500Y-80686500D01*
X76423500Y-68031500D02*
X76423500Y-80685500D01*
X76463500Y-68032500D02*
X76463500Y-80684500D01*
X76503500Y-68034500D02*
X76503500Y-80682500D01*
X76543500Y-68036500D02*
X76543500Y-80680500D01*
X76583500Y-68038500D02*
X76583500Y-80678500D01*
X76623500Y-68040500D02*
X76623500Y-80676500D01*
X76663500Y-68043500D02*
X76663500Y-80673500D01*
X76703500Y-68046500D02*
X76703500Y-80670500D01*
X76743500Y-68049500D02*
X76743500Y-80667500D01*
X76783500Y-68052500D02*
X76783500Y-80664500D01*
X76823500Y-68056500D02*
X76823500Y-80660500D01*
X76863500Y-68060500D02*
X76863500Y-80656500D01*
X76903500Y-68064500D02*
X76903500Y-80652500D01*
X76944500Y-68068500D02*
X76944500Y-80648500D01*
X76984500Y-68073500D02*
X76984500Y-80643500D01*
X77024500Y-68078500D02*
X77024500Y-80638500D01*
X77064500Y-68083500D02*
X77064500Y-80633500D01*
X77104500Y-68089500D02*
X77104500Y-80627500D01*
X77144500Y-68094500D02*
X77144500Y-80622500D01*
X77184500Y-68100500D02*
X77184500Y-80616500D01*
X77224500Y-68106500D02*
X77224500Y-80610500D01*
X77264500Y-68113500D02*
X77264500Y-80603500D01*
X77304500Y-68120500D02*
X77304500Y-72918500D01*
X77304500Y-75798500D02*
X77304500Y-80596500D01*
X77344500Y-68127500D02*
X77344500Y-72918500D01*
X77344500Y-75798500D02*
X77344500Y-80589500D01*
X77384500Y-68134500D02*
X77384500Y-72918500D01*
X77384500Y-75798500D02*
X77384500Y-80582500D01*
X77424500Y-68142500D02*
X77424500Y-72918500D01*
X77424500Y-75798500D02*
X77424500Y-80574500D01*
X77464500Y-68149500D02*
X77464500Y-72918500D01*
X77464500Y-75798500D02*
X77464500Y-80567500D01*
X77504500Y-68157500D02*
X77504500Y-72918500D01*
X77504500Y-75798500D02*
X77504500Y-80559500D01*
X77544500Y-68166500D02*
X77544500Y-72918500D01*
X77544500Y-75798500D02*
X77544500Y-80550500D01*
X77584500Y-68174500D02*
X77584500Y-72918500D01*
X77584500Y-75798500D02*
X77584500Y-80542500D01*
X77624500Y-68183500D02*
X77624500Y-72918500D01*
X77624500Y-75798500D02*
X77624500Y-80533500D01*
X77664500Y-68192500D02*
X77664500Y-72918500D01*
X77664500Y-75798500D02*
X77664500Y-80524500D01*
X77704500Y-68202500D02*
X77704500Y-72918500D01*
X77704500Y-75798500D02*
X77704500Y-80514500D01*
X77744500Y-68212500D02*
X77744500Y-72918500D01*
X77744500Y-75798500D02*
X77744500Y-80504500D01*
X77784500Y-68221500D02*
X77784500Y-72918500D01*
X77784500Y-75798500D02*
X77784500Y-80495500D01*
X77824500Y-68232500D02*
X77824500Y-72918500D01*
X77824500Y-75798500D02*
X77824500Y-80484500D01*
X77864500Y-68242500D02*
X77864500Y-72918500D01*
X77864500Y-75798500D02*
X77864500Y-80474500D01*
X77904500Y-68253500D02*
X77904500Y-72918500D01*
X77904500Y-75798500D02*
X77904500Y-80463500D01*
X77944500Y-68264500D02*
X77944500Y-72918500D01*
X77944500Y-75798500D02*
X77944500Y-80452500D01*
X77984500Y-68275500D02*
X77984500Y-72918500D01*
X77984500Y-75798500D02*
X77984500Y-80441500D01*
X78024500Y-68287500D02*
X78024500Y-72918500D01*
X78024500Y-75798500D02*
X78024500Y-80429500D01*
X78064500Y-68299500D02*
X78064500Y-72918500D01*
X78064500Y-75798500D02*
X78064500Y-80417500D01*
X78104500Y-68311500D02*
X78104500Y-72918500D01*
X78104500Y-75798500D02*
X78104500Y-80405500D01*
X78144500Y-68324500D02*
X78144500Y-72918500D01*
X78144500Y-75798500D02*
X78144500Y-80392500D01*
X78184500Y-68337500D02*
X78184500Y-72918500D01*
X78184500Y-75798500D02*
X78184500Y-80379500D01*
X78224500Y-68350500D02*
X78224500Y-72918500D01*
X78224500Y-75798500D02*
X78224500Y-80366500D01*
X78264500Y-68363500D02*
X78264500Y-72918500D01*
X78264500Y-75798500D02*
X78264500Y-80353500D01*
X78304500Y-68377500D02*
X78304500Y-72918500D01*
X78304500Y-75798500D02*
X78304500Y-80339500D01*
X78344500Y-68391500D02*
X78344500Y-72918500D01*
X78344500Y-75798500D02*
X78344500Y-80325500D01*
X78384500Y-68405500D02*
X78384500Y-72918500D01*
X78384500Y-75798500D02*
X78384500Y-80311500D01*
X78424500Y-68419500D02*
X78424500Y-72918500D01*
X78424500Y-75798500D02*
X78424500Y-80297500D01*
X78464500Y-68434500D02*
X78464500Y-72918500D01*
X78464500Y-75798500D02*
X78464500Y-80282500D01*
X78504500Y-68450500D02*
X78504500Y-72918500D01*
X78504500Y-75798500D02*
X78504500Y-80266500D01*
X78544500Y-68465500D02*
X78544500Y-72918500D01*
X78544500Y-75798500D02*
X78544500Y-80251500D01*
X78584500Y-68481500D02*
X78584500Y-72918500D01*
X78584500Y-75798500D02*
X78584500Y-80235500D01*
X78624500Y-68497500D02*
X78624500Y-72918500D01*
X78624500Y-75798500D02*
X78624500Y-80219500D01*
X78664500Y-68513500D02*
X78664500Y-72918500D01*
X78664500Y-75798500D02*
X78664500Y-80203500D01*
X78704500Y-68530500D02*
X78704500Y-72918500D01*
X78704500Y-75798500D02*
X78704500Y-80186500D01*
X78744500Y-68547500D02*
X78744500Y-72918500D01*
X78744500Y-75798500D02*
X78744500Y-80169500D01*
X78784500Y-68565500D02*
X78784500Y-72918500D01*
X78784500Y-75798500D02*
X78784500Y-80151500D01*
X78824500Y-68582500D02*
X78824500Y-72918500D01*
X78824500Y-75798500D02*
X78824500Y-80134500D01*
X78864500Y-68600500D02*
X78864500Y-72918500D01*
X78864500Y-75798500D02*
X78864500Y-80116500D01*
X78904500Y-68619500D02*
X78904500Y-72918500D01*
X78904500Y-75798500D02*
X78904500Y-80097500D01*
X78944500Y-68637500D02*
X78944500Y-72918500D01*
X78944500Y-75798500D02*
X78944500Y-80079500D01*
X78984500Y-68656500D02*
X78984500Y-72918500D01*
X78984500Y-75798500D02*
X78984500Y-80060500D01*
X79024500Y-68676500D02*
X79024500Y-72918500D01*
X79024500Y-75798500D02*
X79024500Y-80040500D01*
X79064500Y-68696500D02*
X79064500Y-72918500D01*
X79064500Y-75798500D02*
X79064500Y-80020500D01*
X79104500Y-68716500D02*
X79104500Y-72918500D01*
X79104500Y-75798500D02*
X79104500Y-80000500D01*
X79144500Y-68736500D02*
X79144500Y-72918500D01*
X79144500Y-75798500D02*
X79144500Y-79980500D01*
X79184500Y-68757500D02*
X79184500Y-72918500D01*
X79184500Y-75798500D02*
X79184500Y-79959500D01*
X79224500Y-68778500D02*
X79224500Y-72918500D01*
X79224500Y-75798500D02*
X79224500Y-79938500D01*
X79264500Y-68800500D02*
X79264500Y-72918500D01*
X79264500Y-75798500D02*
X79264500Y-79916500D01*
X79304500Y-68822500D02*
X79304500Y-72918500D01*
X79304500Y-75798500D02*
X79304500Y-79894500D01*
X79344500Y-68844500D02*
X79344500Y-72918500D01*
X79344500Y-75798500D02*
X79344500Y-79872500D01*
X79384500Y-68867500D02*
X79384500Y-72918500D01*
X79384500Y-75798500D02*
X79384500Y-79849500D01*
X79424500Y-68890500D02*
X79424500Y-72918500D01*
X79424500Y-75798500D02*
X79424500Y-79826500D01*
X79464500Y-68913500D02*
X79464500Y-72918500D01*
X79464500Y-75798500D02*
X79464500Y-79803500D01*
X79504500Y-68937500D02*
X79504500Y-72918500D01*
X79504500Y-75798500D02*
X79504500Y-79779500D01*
X79544500Y-68961500D02*
X79544500Y-72918500D01*
X79544500Y-75798500D02*
X79544500Y-79755500D01*
X79584500Y-68986500D02*
X79584500Y-72918500D01*
X79584500Y-75798500D02*
X79584500Y-79730500D01*
X79624500Y-69011500D02*
X79624500Y-72918500D01*
X79624500Y-75798500D02*
X79624500Y-79705500D01*
X79664500Y-69036500D02*
X79664500Y-72918500D01*
X79664500Y-75798500D02*
X79664500Y-79680500D01*
X79704500Y-69062500D02*
X79704500Y-72918500D01*
X79704500Y-75798500D02*
X79704500Y-79654500D01*
X79744500Y-69088500D02*
X79744500Y-72918500D01*
X79744500Y-75798500D02*
X79744500Y-79628500D01*
X79784500Y-69115500D02*
X79784500Y-72918500D01*
X79784500Y-75798500D02*
X79784500Y-79601500D01*
X79824500Y-69142500D02*
X79824500Y-72918500D01*
X79824500Y-75798500D02*
X79824500Y-79574500D01*
X79864500Y-69170500D02*
X79864500Y-72918500D01*
X79864500Y-75798500D02*
X79864500Y-79546500D01*
X79904500Y-69198500D02*
X79904500Y-72918500D01*
X79904500Y-75798500D02*
X79904500Y-79518500D01*
X79944500Y-69227500D02*
X79944500Y-72918500D01*
X79944500Y-75798500D02*
X79944500Y-79489500D01*
X79984500Y-69256500D02*
X79984500Y-72918500D01*
X79984500Y-75798500D02*
X79984500Y-79460500D01*
X80024500Y-69285500D02*
X80024500Y-72918500D01*
X80024500Y-75798500D02*
X80024500Y-79431500D01*
X80064500Y-69315500D02*
X80064500Y-72918500D01*
X80064500Y-75798500D02*
X80064500Y-79401500D01*
X80104500Y-69346500D02*
X80104500Y-72918500D01*
X80104500Y-75798500D02*
X80104500Y-79370500D01*
X80144500Y-69376500D02*
X80144500Y-72918500D01*
X80144500Y-75798500D02*
X80144500Y-79340500D01*
X80184500Y-69408500D02*
X80184500Y-79308500D01*
X80224500Y-69440500D02*
X80224500Y-79276500D01*
X80264500Y-69473500D02*
X80264500Y-79243500D01*
X80304500Y-69506500D02*
X80304500Y-79210500D01*
X80344500Y-69539500D02*
X80344500Y-79177500D01*
X80384500Y-69573500D02*
X80384500Y-79143500D01*
X80424500Y-69608500D02*
X80424500Y-79108500D01*
X80464500Y-69644500D02*
X80464500Y-79072500D01*
X80504500Y-69680500D02*
X80504500Y-79036500D01*
X80544500Y-69716500D02*
X80544500Y-79000500D01*
X80584500Y-69753500D02*
X80584500Y-78963500D01*
X80624500Y-69791500D02*
X80624500Y-78925500D01*
X80664500Y-69830500D02*
X80664500Y-78886500D01*
X80704500Y-69869500D02*
X80704500Y-78847500D01*
X80744500Y-69909500D02*
X80744500Y-78807500D01*
X80784500Y-69950500D02*
X80784500Y-78766500D01*
X80824500Y-69991500D02*
X80824500Y-78725500D01*
X80864500Y-70033500D02*
X80864500Y-78683500D01*
X80904500Y-70076500D02*
X80904500Y-78640500D01*
X80944500Y-70120500D02*
X80944500Y-78596500D01*
X80984500Y-70164500D02*
X80984500Y-78552500D01*
X81024500Y-70210500D02*
X81024500Y-78506500D01*
X81064500Y-70256500D02*
X81064500Y-78460500D01*
X81104500Y-70303500D02*
X81104500Y-78413500D01*
X81144500Y-70351500D02*
X81144500Y-78365500D01*
X81184500Y-70401500D02*
X81184500Y-78315500D01*
X81224500Y-70451500D02*
X81224500Y-78265500D01*
X81264500Y-70502500D02*
X81264500Y-78214500D01*
X81304500Y-70554500D02*
X81304500Y-78162500D01*
X81344500Y-70608500D02*
X81344500Y-78108500D01*
X81384500Y-70662500D02*
X81384500Y-78054500D01*
X81424500Y-70718500D02*
X81424500Y-77998500D01*
X81464500Y-70775500D02*
X81464500Y-77941500D01*
X81504500Y-70834500D02*
X81504500Y-77882500D01*
X81544500Y-70894500D02*
X81544500Y-77822500D01*
X81584500Y-70956500D02*
X81584500Y-77760500D01*
X81624500Y-71019500D02*
X81624500Y-77697500D01*
X81664500Y-71083500D02*
X81664500Y-77633500D01*
X81704500Y-71150500D02*
X81704500Y-77566500D01*
X81744500Y-71218500D02*
X81744500Y-77498500D01*
X81784500Y-71289500D02*
X81784500Y-77427500D01*
X81824500Y-71362500D02*
X81824500Y-77354500D01*
X81864500Y-71437500D02*
X81864500Y-77279500D01*
X81904500Y-71514500D02*
X81904500Y-77202500D01*
X81944500Y-71594500D02*
X81944500Y-77122500D01*
X81984500Y-71677500D02*
X81984500Y-77039500D01*
X82024500Y-71764500D02*
X82024500Y-76952500D01*
X82064500Y-71854500D02*
X82064500Y-76862500D01*
X82104500Y-71948500D02*
X82104500Y-76768500D01*
X82144500Y-72046500D02*
X82144500Y-76670500D01*
X82184500Y-72149500D02*
X82184500Y-76567500D01*
X82224500Y-72258500D02*
X82224500Y-76458500D01*
X82264500Y-72374500D02*
X82264500Y-76342500D01*
X82304500Y-72497500D02*
X82304500Y-76219500D01*
X82344500Y-72630500D02*
X82344500Y-76086500D01*
X82384500Y-72775500D02*
X82384500Y-75941500D01*
X82424500Y-72936500D02*
X82424500Y-75780500D01*
X82464500Y-73117500D02*
X82464500Y-75599500D01*
X82504500Y-73330500D02*
X82504500Y-75386500D01*
X82544500Y-73601500D02*
X82544500Y-75115500D01*
X82584500Y-74041500D02*
X82584500Y-74675500D01*
X69406418Y-70783500D02*
X70656418Y-70783500D01*
X70031418Y-70158500D02*
X70031418Y-71408500D01*
X84410000Y-101229422D02*
X84410000Y-101746578D01*
X82990000Y-101229422D02*
X82990000Y-101746578D01*
X87595000Y-78660500D02*
X87595000Y-76660500D01*
X87595000Y-76660500D02*
X83695000Y-76660500D01*
X87595000Y-78660500D02*
X83695000Y-78660500D01*
X87187721Y-71689500D02*
X87513279Y-71689500D01*
X87187721Y-72709500D02*
X87513279Y-72709500D01*
X87187721Y-71122000D02*
X87513279Y-71122000D01*
X87187721Y-70102000D02*
X87513279Y-70102000D01*
X86358000Y-109408279D02*
X86358000Y-109082721D01*
X87378000Y-109408279D02*
X87378000Y-109082721D01*
X89156000Y-109408279D02*
X89156000Y-109082721D01*
X88136000Y-109408279D02*
X88136000Y-109082721D01*
X97081221Y-98931000D02*
X97406779Y-98931000D01*
X97081221Y-99951000D02*
X97406779Y-99951000D01*
X49468248Y-78982500D02*
X49990752Y-78982500D01*
X49468248Y-80402500D02*
X49990752Y-80402500D01*
X48777000Y-74162000D02*
X53077000Y-74162000D01*
X53077000Y-74162000D02*
X53077000Y-68462000D01*
X48777000Y-74162000D02*
X48777000Y-68462000D01*
X102930000Y-64449000D02*
X102930000Y-61789000D01*
X80010000Y-64449000D02*
X102930000Y-64449000D01*
X80010000Y-61789000D02*
X102930000Y-61789000D01*
X80010000Y-64449000D02*
X80010000Y-61789000D01*
X78740000Y-64449000D02*
X77410000Y-64449000D01*
X77410000Y-64449000D02*
X77410000Y-63119000D01*
X101343779Y-66423000D02*
X101018221Y-66423000D01*
X101343779Y-65403000D02*
X101018221Y-65403000D01*
X82310000Y-100062779D02*
X82310000Y-99737221D01*
X81290000Y-100062779D02*
X81290000Y-99737221D01*
X82310000Y-96237221D02*
X82310000Y-96562779D01*
X81290000Y-96237221D02*
X81290000Y-96562779D01*
X76602064Y-96810000D02*
X75397936Y-96810000D01*
X76602064Y-94990000D02*
X75397936Y-94990000D01*
D17*
X78766666Y-98552380D02*
X78766666Y-99266666D01*
X78719047Y-99409523D01*
X78623809Y-99504761D01*
X78480952Y-99552380D01*
X78385714Y-99552380D01*
X79242857Y-99552380D02*
X79242857Y-98552380D01*
X79623809Y-98552380D01*
X79719047Y-98600000D01*
X79766666Y-98647619D01*
X79814285Y-98742857D01*
X79814285Y-98885714D01*
X79766666Y-98980952D01*
X79719047Y-99028571D01*
X79623809Y-99076190D01*
X79242857Y-99076190D01*
X80433333Y-98552380D02*
X80528571Y-98552380D01*
X80623809Y-98600000D01*
X80671428Y-98647619D01*
X80719047Y-98742857D01*
X80766666Y-98933333D01*
X80766666Y-99171428D01*
X80719047Y-99361904D01*
X80671428Y-99457142D01*
X80623809Y-99504761D01*
X80528571Y-99552380D01*
X80433333Y-99552380D01*
X80338095Y-99504761D01*
X80290476Y-99457142D01*
X80242857Y-99361904D01*
X80195238Y-99171428D01*
X80195238Y-98933333D01*
X80242857Y-98742857D01*
X80290476Y-98647619D01*
X80338095Y-98600000D01*
X80433333Y-98552380D01*
X103084380Y-94305333D02*
X103798666Y-94305333D01*
X103941523Y-94352952D01*
X104036761Y-94448190D01*
X104084380Y-94591047D01*
X104084380Y-94686285D01*
X104084380Y-93829142D02*
X103084380Y-93829142D01*
X103084380Y-93448190D01*
X103132000Y-93352952D01*
X103179619Y-93305333D01*
X103274857Y-93257714D01*
X103417714Y-93257714D01*
X103512952Y-93305333D01*
X103560571Y-93352952D01*
X103608190Y-93448190D01*
X103608190Y-93829142D01*
X103084380Y-92924380D02*
X103084380Y-92305333D01*
X103465333Y-92638666D01*
X103465333Y-92495809D01*
X103512952Y-92400571D01*
X103560571Y-92352952D01*
X103655809Y-92305333D01*
X103893904Y-92305333D01*
X103989142Y-92352952D01*
X104036761Y-92400571D01*
X104084380Y-92495809D01*
X104084380Y-92781523D01*
X104036761Y-92876761D01*
X103989142Y-92924380D01*
X54503380Y-83510333D02*
X55217666Y-83510333D01*
X55360523Y-83557952D01*
X55455761Y-83653190D01*
X55503380Y-83796047D01*
X55503380Y-83891285D01*
X55503380Y-83034142D02*
X54503380Y-83034142D01*
X54503380Y-82653190D01*
X54551000Y-82557952D01*
X54598619Y-82510333D01*
X54693857Y-82462714D01*
X54836714Y-82462714D01*
X54931952Y-82510333D01*
X54979571Y-82557952D01*
X55027190Y-82653190D01*
X55027190Y-83034142D01*
X54836714Y-81605571D02*
X55503380Y-81605571D01*
X54455761Y-81843666D02*
X55170047Y-82081761D01*
X55170047Y-81462714D01*
X52839880Y-79859166D02*
X52363690Y-80192500D01*
X52839880Y-80430595D02*
X51839880Y-80430595D01*
X51839880Y-80049642D01*
X51887500Y-79954404D01*
X51935119Y-79906785D01*
X52030357Y-79859166D01*
X52173214Y-79859166D01*
X52268452Y-79906785D01*
X52316071Y-79954404D01*
X52363690Y-80049642D01*
X52363690Y-80430595D01*
X52839880Y-78906785D02*
X52839880Y-79478214D01*
X52839880Y-79192500D02*
X51839880Y-79192500D01*
X51982738Y-79287738D01*
X52077976Y-79382976D01*
X52125595Y-79478214D01*
M02*
