M48
;DRILL file {KiCad 5.0.1-33cea8e~68~ubuntu16.04.1} date Sun 28 Oct 2018 05:52:43 PM PDT
;FORMAT={-:-/ absolute / inch / decimal}
FMAT,2
INCH,TZ
T1C0.0157
T2C0.0394
T3C0.0512
%
G90
G05
M72
T1
X1.3775Y-3.3375
X1.3775Y-3.535
X1.38Y-3.73
X1.3825Y-2.8825
X1.39Y-2.67
X1.395Y-3.985
X1.395Y-4.095
X1.395Y-4.21
X1.395Y-4.335
X1.395Y-4.425
X1.455Y-2.735
X1.475Y-4.04
X1.475Y-4.15
X1.475Y-4.265
X1.475Y-4.39
X1.535Y-2.675
X1.55Y-3.985
X1.55Y-4.095
X1.55Y-4.21
X1.55Y-4.335
X1.565Y-4.615
X1.5825Y-2.9575
X1.585Y-2.75
X1.6Y-2.475
X1.6Y-2.605
X1.6025Y-3.0975
X1.61Y-4.405
X1.6225Y-3.01
X1.625Y-4.545
X1.635Y-2.83
X1.64Y-4.28
X1.65Y-2.54
X1.65Y-2.67
X1.675Y-4.615
X1.6775Y-3.0525
X1.68Y-4.48
X1.7Y-2.75
X1.705Y-2.475
X1.705Y-2.605
X1.7075Y-2.955
X1.73Y-4.545
X1.74Y-2.83
X1.76Y-2.54
X1.76Y-2.67
X1.76Y-3.0875
X1.7625Y-3.0025
X1.78Y-4.615
X1.785Y-4.48
X1.81Y-2.745
X1.814Y-3.535
X1.815Y-2.475
X1.815Y-2.605
X1.8325Y-2.9575
X1.8375Y-3.0375
X1.84Y-4.545
X1.86Y-2.825
X1.865Y-2.54
X1.87Y-2.675
X1.87Y-4.4
X1.886Y-3.535
X1.89Y-4.615
X1.895Y-2.9975
X1.895Y-4.48
X1.9175Y-3.0625
X1.92Y-2.475
X1.92Y-2.605
X1.92Y-2.745
X1.92Y-3.985
X1.945Y-4.545
X1.955Y-2.82
X1.9675Y-2.9525
X1.97Y-2.675
X1.97Y-4.4
X1.975Y-2.54
X1.995Y-4.615
X1.9975Y-3.015
X2.Y-4.48
X2.03Y-2.475
X2.03Y-2.605
X2.03Y-2.745
X2.0325Y-4.025
X2.055Y-2.82
X2.055Y-4.545
X2.075Y-2.675
X2.075Y-3.045
X2.08Y-2.54
X2.08Y-4.0825
X2.0825Y-4.1975
X2.0875Y-2.96
X2.105Y-4.0325
X2.105Y-4.615
X2.11Y-4.13
X2.11Y-4.48
X2.12Y-2.745
X2.12Y-4.2525
X2.13Y-4.3375
X2.135Y-2.475
X2.135Y-2.605
X2.1425Y-4.175
X2.145Y-2.9925
X2.15Y-2.82
X2.15Y-3.5775
X2.15Y-4.0725
X2.16Y-4.545
X2.1775Y-3.3875
X2.19Y-2.54
X2.19Y-3.555
X2.19Y-4.12
X2.1925Y-3.7225
X2.2Y-4.2
X2.21Y-4.0475
X2.21Y-4.615
X2.215Y-4.48
X2.22Y-3.0225
X2.225Y-3.69
X2.225Y-3.4031
X2.245Y-2.475
X2.245Y-2.605
X2.27Y-4.545
X2.2725Y-4.2825
X2.285Y-2.785
X2.295Y-2.54
X2.2975Y-4.2525
X2.3125Y-2.815
X2.32Y-4.615
X2.325Y-4.2825
X2.325Y-4.48
X2.3375Y-2.785
X2.35Y-2.475
X2.35Y-2.605
X2.35Y-4.2525
X2.365Y-2.815
X2.375Y-4.545
X2.3775Y-4.2825
X2.39Y-2.785
X2.4Y-3.4725
X2.4Y-3.535
X2.4Y-3.595
X2.4025Y-4.2525
X2.405Y-2.54
X2.415Y-3.33
X2.415Y-3.405
X2.415Y-3.665
X2.415Y-3.74
X2.4175Y-2.815
X2.425Y-4.615
X2.43Y-4.2825
X2.43Y-4.48
X2.435Y-3.365
X2.435Y-3.705
X2.44Y-3.505
X2.44Y-3.57
X2.4425Y-2.785
X2.455Y-4.2525
X2.46Y-2.475
X2.46Y-2.605
X2.46Y-3.33
X2.46Y-3.405
X2.46Y-3.665
X2.46Y-3.74
X2.47Y-2.815
X2.4825Y-4.2825
X2.485Y-4.545
X2.49Y-3.4725
X2.49Y-3.535
X2.49Y-3.595
X2.495Y-2.785
X2.5075Y-4.2525
X2.51Y-2.54
X2.52Y-3.33
X2.52Y-3.405
X2.52Y-3.665
X2.52Y-3.74
X2.5225Y-2.815
X2.535Y-3.505
X2.535Y-3.57
X2.535Y-4.2825
X2.535Y-4.615
X2.54Y-4.48
X2.545Y-3.365
X2.545Y-3.705
X2.5475Y-2.785
X2.56Y-4.2525
X2.565Y-2.475
X2.565Y-2.605
X2.565Y-3.33
X2.565Y-3.405
X2.565Y-3.665
X2.565Y-3.74
X2.575Y-2.815
X2.575Y-3.4725
X2.575Y-3.535
X2.575Y-3.5925
X2.5875Y-4.2825
X2.59Y-4.545
X2.6Y-2.785
X2.6025Y-3.9425
X2.605Y-3.1375
X2.6125Y-4.2525
X2.62Y-2.54
X2.6275Y-2.815
X2.64Y-4.2825
X2.64Y-4.615
X2.645Y-4.48
X2.6525Y-2.785
X2.665Y-4.2525
X2.675Y-2.475
X2.675Y-2.605
X2.68Y-2.815
X2.6925Y-4.2825
X2.6975Y-3.1475
X2.7Y-4.545
X2.705Y-2.785
X2.705Y-3.92
X2.725Y-2.54
X2.73Y-3.975
X2.7375Y-3.09
X2.75Y-3.3775
X2.75Y-3.69
X2.75Y-4.615
X2.755Y-4.48
X2.765Y-3.8625
X2.7675Y-3.1675
X2.7675Y-4.055
X2.77Y-3.025
X2.77Y-3.4125
X2.77Y-3.655
X2.77Y-4.1725
X2.78Y-2.475
X2.78Y-2.605
X2.7875Y-2.8425
X2.7875Y-2.9275
X2.7875Y-3.925
X2.79Y-3.995
X2.79Y-4.1125
X2.795Y-4.23
X2.7975Y-3.2275
X2.805Y-4.545
X2.8075Y-3.1075
X2.8125Y-3.4125
X2.8125Y-3.655
X2.8275Y-3.805
X2.835Y-2.54
X2.835Y-3.04
X2.8375Y-3.275
X2.8425Y-2.8575
X2.8425Y-3.8625
X2.8425Y-4.0525
X2.845Y-3.1675
X2.85Y-4.26
X2.855Y-3.98
X2.855Y-4.615
X2.86Y-4.48
X2.8625Y-3.915
X2.865Y-2.71
X2.8675Y-2.8
X2.885Y-3.0975
X2.885Y-3.225
X2.89Y-2.475
X2.89Y-2.605
X2.89Y-4.0825
X2.9075Y-3.875
X2.91Y-3.0275
X2.91Y-4.0225
X2.91Y-4.545
X2.9125Y-4.26
X2.915Y-4.405
X2.9175Y-3.1625
X2.9175Y-3.9375
X2.9225Y-2.845
X2.94Y-2.54
X2.94Y-2.675
X2.96Y-4.475
X2.965Y-4.61
X2.995Y-2.475
X2.995Y-2.605
X3.005Y-3.95
X3.005Y-4.07
X3.005Y-4.28
X3.02Y-4.525
X3.025Y-2.695
X3.025Y-3.015
X3.025Y-3.11
X3.025Y-4.405
X3.04Y-2.775
X3.04Y-3.23
X3.04Y-4.01
X3.062Y-3.502
X3.065Y-4.2425
X3.075Y-2.84
X3.0775Y-3.95
X3.08Y-4.0725
X3.085Y-3.055
X3.085Y-3.16
X3.115Y-4.01
X3.1175Y-4.2825
X3.125Y-2.785
X3.135Y-2.995
X3.1425Y-4.225
X3.145Y-2.885
X3.145Y-3.105
X3.15Y-4.0725
X3.15Y-4.155
X3.1525Y-3.95
X3.222Y-3.264
X3.222Y-3.464
X3.222Y-3.608
X3.2225Y-2.8725
X3.2674Y-2.9725
X3.2724Y-3.348
X3.325Y-3.7675
X3.326Y-3.516
X3.3295Y-4.0115
X3.33Y-3.338
X3.33Y-3.442
X3.3625Y-4.193
X3.375Y-2.865
X3.375Y-2.8175
X3.375Y-4.445
X3.394Y-3.422
X3.41Y-3.765
X3.44Y-4.11
X3.4475Y-2.96
X3.4475Y-3.051
X3.4475Y-3.142
X3.4475Y-3.233
X3.4475Y-3.324
X3.45Y-4.5
X3.456Y-3.406
X3.458Y-3.486
X3.4581Y-3.5387
X3.4625Y-3.824
X3.4625Y-3.9025
X3.4625Y-3.99
X3.465Y-4.39
X3.505Y-2.9075
X3.505Y-3.025
X3.505Y-3.1425
X3.505Y-3.26
X3.505Y-3.368
X3.515Y-4.4475
X3.5326Y-3.5125
X3.5425Y-4.335
X3.5775Y-4.395
X3.5825Y-2.835
X3.5836Y-3.5004
X3.613Y-3.847
X3.6325Y-4.4425
X3.6475Y-4.3325
X3.665Y-2.665
X3.6675Y-2.595
X3.7Y-4.4724
X3.7025Y-3.85
X3.705Y-4.3975
X3.7375Y-3.8875
X3.775Y-4.3325
X3.7825Y-3.155
X3.7825Y-3.2225
X3.7825Y-3.285
X3.7875Y-2.7575
X3.815Y-4.39
X3.825Y-3.6025
X3.84Y-4.265
X3.8475Y-3.155
X3.8475Y-3.22
X3.8475Y-3.285
X3.85Y-2.46
X3.8675Y-4.47
X3.89Y-4.3325
X3.91Y-2.52
X3.9125Y-3.155
X3.9125Y-3.22
X3.9125Y-3.285
X3.917Y-4.4595
X3.96Y-2.46
X3.9775Y-3.88
X4.011Y-3.85
X4.02Y-3.725
X4.02Y-4.58
X4.025Y-2.52
X4.035Y-4.4875
X4.065Y-3.63
X4.085Y-2.46
X4.11Y-4.4075
X4.11Y-4.605
X4.12Y-2.535
X4.12Y-4.4875
X4.1525Y-2.6525
X4.18Y-4.065
X4.18Y-4.195
X4.18Y-4.3325
X4.2525Y-4.1375
X4.2525Y-4.3875
X4.255Y-4.2625
X4.26Y-3.9975
X4.2625Y-3.755
X4.265Y-3.87
X4.33Y-3.9375
X4.3325Y-2.6525
X4.3325Y-4.0775
X4.3325Y-4.33
X4.335Y-3.7
X4.335Y-3.8075
X4.335Y-4.2075
T2
X3.1Y-4.6
X3.2Y-4.6
X3.3Y-4.6
X3.4Y-4.6
X3.5Y-4.6
X3.6Y-4.6
X3.7Y-4.6
X3.8Y-4.6
X3.9Y-4.6
X3.1Y-2.485
X3.2Y-2.485
X3.3Y-2.485
X3.4Y-2.485
X3.5Y-2.485
X3.6Y-2.485
X2.8675Y-2.9275
X3.0644Y-2.9275
X2.8675Y-4.155
X3.0644Y-4.155
X3.03Y-3.646
X3.13Y-3.646
T3
X1.49Y-2.845
X1.49Y-3.0419
X1.49Y-3.2387
X1.49Y-3.4356
X1.49Y-3.6324
X1.49Y-3.8293
T2
X1.6375Y-4.1306G85X1.6375Y-4.2094
G05
X1.7162Y-4.355G85X1.795Y-4.355
G05
X1.8737Y-4.1306G85X1.8737Y-4.2094
G05
T0
M30
