G04 #@! TF.GenerationSoftware,KiCad,Pcbnew,5.0.1-33cea8e~68~ubuntu16.04.1*
G04 #@! TF.CreationDate,2018-10-28T17:52:41-07:00*
G04 #@! TF.ProjectId,wifistepper,77696669737465707065722E6B696361,rev?*
G04 #@! TF.SameCoordinates,Original*
G04 #@! TF.FileFunction,Soldermask,Bot*
G04 #@! TF.FilePolarity,Negative*
%FSLAX46Y46*%
G04 Gerber Fmt 4.6, Leading zero omitted, Abs format (unit mm)*
G04 Created by KiCad (PCBNEW 5.0.1-33cea8e~68~ubuntu16.04.1) date Sun 28 Oct 2018 05:52:41 PM PDT*
%MOMM*%
%LPD*%
G01*
G04 APERTURE LIST*
%ADD10C,0.100000*%
G04 APERTURE END LIST*
D10*
G36*
X99188707Y-115797596D02*
X99265836Y-115805193D01*
X99397787Y-115845220D01*
X99463763Y-115865233D01*
X99646172Y-115962733D01*
X99806054Y-116093946D01*
X99937267Y-116253828D01*
X100034767Y-116436237D01*
X100034767Y-116436238D01*
X100094807Y-116634164D01*
X100115080Y-116840000D01*
X100094807Y-117045836D01*
X100054780Y-117177787D01*
X100034767Y-117243763D01*
X99937267Y-117426172D01*
X99806054Y-117586054D01*
X99646172Y-117717267D01*
X99463763Y-117814767D01*
X99397787Y-117834780D01*
X99265836Y-117874807D01*
X99188707Y-117882404D01*
X99111580Y-117890000D01*
X99008420Y-117890000D01*
X98931293Y-117882404D01*
X98854164Y-117874807D01*
X98722213Y-117834780D01*
X98656237Y-117814767D01*
X98473828Y-117717267D01*
X98313946Y-117586054D01*
X98182733Y-117426172D01*
X98085233Y-117243763D01*
X98065220Y-117177787D01*
X98025193Y-117045836D01*
X98004920Y-116840000D01*
X98025193Y-116634164D01*
X98085233Y-116436238D01*
X98085233Y-116436237D01*
X98182733Y-116253828D01*
X98313946Y-116093946D01*
X98473828Y-115962733D01*
X98656237Y-115865233D01*
X98722213Y-115845220D01*
X98854164Y-115805193D01*
X98931293Y-115797596D01*
X99008420Y-115790000D01*
X99111580Y-115790000D01*
X99188707Y-115797596D01*
X99188707Y-115797596D01*
G37*
G36*
X79790000Y-117890000D02*
X77690000Y-117890000D01*
X77690000Y-115790000D01*
X79790000Y-115790000D01*
X79790000Y-117890000D01*
X79790000Y-117890000D01*
G37*
G36*
X81408707Y-115797596D02*
X81485836Y-115805193D01*
X81617787Y-115845220D01*
X81683763Y-115865233D01*
X81866172Y-115962733D01*
X82026054Y-116093946D01*
X82157267Y-116253828D01*
X82254767Y-116436237D01*
X82254767Y-116436238D01*
X82314807Y-116634164D01*
X82335080Y-116840000D01*
X82314807Y-117045836D01*
X82274780Y-117177787D01*
X82254767Y-117243763D01*
X82157267Y-117426172D01*
X82026054Y-117586054D01*
X81866172Y-117717267D01*
X81683763Y-117814767D01*
X81617787Y-117834780D01*
X81485836Y-117874807D01*
X81408707Y-117882404D01*
X81331580Y-117890000D01*
X81228420Y-117890000D01*
X81151293Y-117882404D01*
X81074164Y-117874807D01*
X80942213Y-117834780D01*
X80876237Y-117814767D01*
X80693828Y-117717267D01*
X80533946Y-117586054D01*
X80402733Y-117426172D01*
X80305233Y-117243763D01*
X80285220Y-117177787D01*
X80245193Y-117045836D01*
X80224920Y-116840000D01*
X80245193Y-116634164D01*
X80305233Y-116436238D01*
X80305233Y-116436237D01*
X80402733Y-116253828D01*
X80533946Y-116093946D01*
X80693828Y-115962733D01*
X80876237Y-115865233D01*
X80942213Y-115845220D01*
X81074164Y-115805193D01*
X81151293Y-115797596D01*
X81228420Y-115790000D01*
X81331580Y-115790000D01*
X81408707Y-115797596D01*
X81408707Y-115797596D01*
G37*
G36*
X83948707Y-115797596D02*
X84025836Y-115805193D01*
X84157787Y-115845220D01*
X84223763Y-115865233D01*
X84406172Y-115962733D01*
X84566054Y-116093946D01*
X84697267Y-116253828D01*
X84794767Y-116436237D01*
X84794767Y-116436238D01*
X84854807Y-116634164D01*
X84875080Y-116840000D01*
X84854807Y-117045836D01*
X84814780Y-117177787D01*
X84794767Y-117243763D01*
X84697267Y-117426172D01*
X84566054Y-117586054D01*
X84406172Y-117717267D01*
X84223763Y-117814767D01*
X84157787Y-117834780D01*
X84025836Y-117874807D01*
X83948707Y-117882404D01*
X83871580Y-117890000D01*
X83768420Y-117890000D01*
X83691293Y-117882404D01*
X83614164Y-117874807D01*
X83482213Y-117834780D01*
X83416237Y-117814767D01*
X83233828Y-117717267D01*
X83073946Y-117586054D01*
X82942733Y-117426172D01*
X82845233Y-117243763D01*
X82825220Y-117177787D01*
X82785193Y-117045836D01*
X82764920Y-116840000D01*
X82785193Y-116634164D01*
X82845233Y-116436238D01*
X82845233Y-116436237D01*
X82942733Y-116253828D01*
X83073946Y-116093946D01*
X83233828Y-115962733D01*
X83416237Y-115865233D01*
X83482213Y-115845220D01*
X83614164Y-115805193D01*
X83691293Y-115797596D01*
X83768420Y-115790000D01*
X83871580Y-115790000D01*
X83948707Y-115797596D01*
X83948707Y-115797596D01*
G37*
G36*
X86488707Y-115797596D02*
X86565836Y-115805193D01*
X86697787Y-115845220D01*
X86763763Y-115865233D01*
X86946172Y-115962733D01*
X87106054Y-116093946D01*
X87237267Y-116253828D01*
X87334767Y-116436237D01*
X87334767Y-116436238D01*
X87394807Y-116634164D01*
X87415080Y-116840000D01*
X87394807Y-117045836D01*
X87354780Y-117177787D01*
X87334767Y-117243763D01*
X87237267Y-117426172D01*
X87106054Y-117586054D01*
X86946172Y-117717267D01*
X86763763Y-117814767D01*
X86697787Y-117834780D01*
X86565836Y-117874807D01*
X86488707Y-117882404D01*
X86411580Y-117890000D01*
X86308420Y-117890000D01*
X86231293Y-117882404D01*
X86154164Y-117874807D01*
X86022213Y-117834780D01*
X85956237Y-117814767D01*
X85773828Y-117717267D01*
X85613946Y-117586054D01*
X85482733Y-117426172D01*
X85385233Y-117243763D01*
X85365220Y-117177787D01*
X85325193Y-117045836D01*
X85304920Y-116840000D01*
X85325193Y-116634164D01*
X85385233Y-116436238D01*
X85385233Y-116436237D01*
X85482733Y-116253828D01*
X85613946Y-116093946D01*
X85773828Y-115962733D01*
X85956237Y-115865233D01*
X86022213Y-115845220D01*
X86154164Y-115805193D01*
X86231293Y-115797596D01*
X86308420Y-115790000D01*
X86411580Y-115790000D01*
X86488707Y-115797596D01*
X86488707Y-115797596D01*
G37*
G36*
X89028707Y-115797596D02*
X89105836Y-115805193D01*
X89237787Y-115845220D01*
X89303763Y-115865233D01*
X89486172Y-115962733D01*
X89646054Y-116093946D01*
X89777267Y-116253828D01*
X89874767Y-116436237D01*
X89874767Y-116436238D01*
X89934807Y-116634164D01*
X89955080Y-116840000D01*
X89934807Y-117045836D01*
X89894780Y-117177787D01*
X89874767Y-117243763D01*
X89777267Y-117426172D01*
X89646054Y-117586054D01*
X89486172Y-117717267D01*
X89303763Y-117814767D01*
X89237787Y-117834780D01*
X89105836Y-117874807D01*
X89028707Y-117882404D01*
X88951580Y-117890000D01*
X88848420Y-117890000D01*
X88771293Y-117882404D01*
X88694164Y-117874807D01*
X88562213Y-117834780D01*
X88496237Y-117814767D01*
X88313828Y-117717267D01*
X88153946Y-117586054D01*
X88022733Y-117426172D01*
X87925233Y-117243763D01*
X87905220Y-117177787D01*
X87865193Y-117045836D01*
X87844920Y-116840000D01*
X87865193Y-116634164D01*
X87925233Y-116436238D01*
X87925233Y-116436237D01*
X88022733Y-116253828D01*
X88153946Y-116093946D01*
X88313828Y-115962733D01*
X88496237Y-115865233D01*
X88562213Y-115845220D01*
X88694164Y-115805193D01*
X88771293Y-115797596D01*
X88848420Y-115790000D01*
X88951580Y-115790000D01*
X89028707Y-115797596D01*
X89028707Y-115797596D01*
G37*
G36*
X91568707Y-115797596D02*
X91645836Y-115805193D01*
X91777787Y-115845220D01*
X91843763Y-115865233D01*
X92026172Y-115962733D01*
X92186054Y-116093946D01*
X92317267Y-116253828D01*
X92414767Y-116436237D01*
X92414767Y-116436238D01*
X92474807Y-116634164D01*
X92495080Y-116840000D01*
X92474807Y-117045836D01*
X92434780Y-117177787D01*
X92414767Y-117243763D01*
X92317267Y-117426172D01*
X92186054Y-117586054D01*
X92026172Y-117717267D01*
X91843763Y-117814767D01*
X91777787Y-117834780D01*
X91645836Y-117874807D01*
X91568707Y-117882404D01*
X91491580Y-117890000D01*
X91388420Y-117890000D01*
X91311293Y-117882404D01*
X91234164Y-117874807D01*
X91102213Y-117834780D01*
X91036237Y-117814767D01*
X90853828Y-117717267D01*
X90693946Y-117586054D01*
X90562733Y-117426172D01*
X90465233Y-117243763D01*
X90445220Y-117177787D01*
X90405193Y-117045836D01*
X90384920Y-116840000D01*
X90405193Y-116634164D01*
X90465233Y-116436238D01*
X90465233Y-116436237D01*
X90562733Y-116253828D01*
X90693946Y-116093946D01*
X90853828Y-115962733D01*
X91036237Y-115865233D01*
X91102213Y-115845220D01*
X91234164Y-115805193D01*
X91311293Y-115797596D01*
X91388420Y-115790000D01*
X91491580Y-115790000D01*
X91568707Y-115797596D01*
X91568707Y-115797596D01*
G37*
G36*
X94108707Y-115797596D02*
X94185836Y-115805193D01*
X94317787Y-115845220D01*
X94383763Y-115865233D01*
X94566172Y-115962733D01*
X94726054Y-116093946D01*
X94857267Y-116253828D01*
X94954767Y-116436237D01*
X94954767Y-116436238D01*
X95014807Y-116634164D01*
X95035080Y-116840000D01*
X95014807Y-117045836D01*
X94974780Y-117177787D01*
X94954767Y-117243763D01*
X94857267Y-117426172D01*
X94726054Y-117586054D01*
X94566172Y-117717267D01*
X94383763Y-117814767D01*
X94317787Y-117834780D01*
X94185836Y-117874807D01*
X94108707Y-117882404D01*
X94031580Y-117890000D01*
X93928420Y-117890000D01*
X93851293Y-117882404D01*
X93774164Y-117874807D01*
X93642213Y-117834780D01*
X93576237Y-117814767D01*
X93393828Y-117717267D01*
X93233946Y-117586054D01*
X93102733Y-117426172D01*
X93005233Y-117243763D01*
X92985220Y-117177787D01*
X92945193Y-117045836D01*
X92924920Y-116840000D01*
X92945193Y-116634164D01*
X93005233Y-116436238D01*
X93005233Y-116436237D01*
X93102733Y-116253828D01*
X93233946Y-116093946D01*
X93393828Y-115962733D01*
X93576237Y-115865233D01*
X93642213Y-115845220D01*
X93774164Y-115805193D01*
X93851293Y-115797596D01*
X93928420Y-115790000D01*
X94031580Y-115790000D01*
X94108707Y-115797596D01*
X94108707Y-115797596D01*
G37*
G36*
X96648707Y-115797596D02*
X96725836Y-115805193D01*
X96857787Y-115845220D01*
X96923763Y-115865233D01*
X97106172Y-115962733D01*
X97266054Y-116093946D01*
X97397267Y-116253828D01*
X97494767Y-116436237D01*
X97494767Y-116436238D01*
X97554807Y-116634164D01*
X97575080Y-116840000D01*
X97554807Y-117045836D01*
X97514780Y-117177787D01*
X97494767Y-117243763D01*
X97397267Y-117426172D01*
X97266054Y-117586054D01*
X97106172Y-117717267D01*
X96923763Y-117814767D01*
X96857787Y-117834780D01*
X96725836Y-117874807D01*
X96648707Y-117882404D01*
X96571580Y-117890000D01*
X96468420Y-117890000D01*
X96391293Y-117882404D01*
X96314164Y-117874807D01*
X96182213Y-117834780D01*
X96116237Y-117814767D01*
X95933828Y-117717267D01*
X95773946Y-117586054D01*
X95642733Y-117426172D01*
X95545233Y-117243763D01*
X95525220Y-117177787D01*
X95485193Y-117045836D01*
X95464920Y-116840000D01*
X95485193Y-116634164D01*
X95545233Y-116436238D01*
X95545233Y-116436237D01*
X95642733Y-116253828D01*
X95773946Y-116093946D01*
X95933828Y-115962733D01*
X96116237Y-115865233D01*
X96182213Y-115845220D01*
X96314164Y-115805193D01*
X96391293Y-115797596D01*
X96468420Y-115790000D01*
X96571580Y-115790000D01*
X96648707Y-115797596D01*
X96648707Y-115797596D01*
G37*
G36*
X108153622Y-113246115D02*
X108269541Y-113269173D01*
X108597120Y-113404861D01*
X108888011Y-113599228D01*
X108891936Y-113601851D01*
X109142649Y-113852564D01*
X109339640Y-114147382D01*
X109475327Y-114474960D01*
X109544500Y-114822714D01*
X109544500Y-115177286D01*
X109475327Y-115525040D01*
X109339640Y-115852618D01*
X109142649Y-116147436D01*
X108891936Y-116398149D01*
X108891933Y-116398151D01*
X108597120Y-116595139D01*
X108269541Y-116730827D01*
X108153622Y-116753885D01*
X107921786Y-116800000D01*
X107567214Y-116800000D01*
X107335378Y-116753885D01*
X107219459Y-116730827D01*
X106891880Y-116595139D01*
X106597067Y-116398151D01*
X106597064Y-116398149D01*
X106346351Y-116147436D01*
X106149360Y-115852618D01*
X106013673Y-115525040D01*
X105944500Y-115177286D01*
X105944500Y-114822714D01*
X106013673Y-114474960D01*
X106149360Y-114147382D01*
X106346351Y-113852564D01*
X106597064Y-113601851D01*
X106600989Y-113599228D01*
X106891880Y-113404861D01*
X107219459Y-113269173D01*
X107335378Y-113246115D01*
X107567214Y-113200000D01*
X107921786Y-113200000D01*
X108153622Y-113246115D01*
X108153622Y-113246115D01*
G37*
G36*
X37822122Y-113246115D02*
X37938041Y-113269173D01*
X38265620Y-113404861D01*
X38556511Y-113599228D01*
X38560436Y-113601851D01*
X38811149Y-113852564D01*
X39008140Y-114147382D01*
X39143827Y-114474960D01*
X39213000Y-114822714D01*
X39213000Y-115177286D01*
X39143827Y-115525040D01*
X39008140Y-115852618D01*
X38811149Y-116147436D01*
X38560436Y-116398149D01*
X38560433Y-116398151D01*
X38265620Y-116595139D01*
X37938041Y-116730827D01*
X37822122Y-116753885D01*
X37590286Y-116800000D01*
X37235714Y-116800000D01*
X37003878Y-116753885D01*
X36887959Y-116730827D01*
X36560380Y-116595139D01*
X36265567Y-116398151D01*
X36265564Y-116398149D01*
X36014851Y-116147436D01*
X35817860Y-115852618D01*
X35682173Y-115525040D01*
X35613000Y-115177286D01*
X35613000Y-114822714D01*
X35682173Y-114474960D01*
X35817860Y-114147382D01*
X36014851Y-113852564D01*
X36265564Y-113601851D01*
X36269489Y-113599228D01*
X36560380Y-113404861D01*
X36887959Y-113269173D01*
X37003878Y-113246115D01*
X37235714Y-113200000D01*
X37590286Y-113200000D01*
X37822122Y-113246115D01*
X37822122Y-113246115D01*
G37*
G36*
X45807898Y-108686126D02*
X45978972Y-108738021D01*
X46136621Y-108822286D01*
X46274807Y-108935693D01*
X46388214Y-109073879D01*
X46472479Y-109231528D01*
X46524374Y-109402602D01*
X46542500Y-109586640D01*
X46542500Y-111649360D01*
X46524374Y-111833398D01*
X46472479Y-112004472D01*
X46388214Y-112162121D01*
X46274807Y-112300307D01*
X46136621Y-112413714D01*
X45978972Y-112497979D01*
X45807898Y-112549874D01*
X45623860Y-112568000D01*
X43561140Y-112568000D01*
X43377102Y-112549874D01*
X43206028Y-112497979D01*
X43048379Y-112413714D01*
X42910193Y-112300307D01*
X42796786Y-112162121D01*
X42712521Y-112004472D01*
X42660626Y-111833398D01*
X42642500Y-111649360D01*
X42642500Y-109586640D01*
X42660626Y-109402602D01*
X42712521Y-109231528D01*
X42796786Y-109073879D01*
X42910193Y-108935693D01*
X43048379Y-108822286D01*
X43206028Y-108738021D01*
X43377102Y-108686126D01*
X43561140Y-108668000D01*
X45623860Y-108668000D01*
X45807898Y-108686126D01*
X45807898Y-108686126D01*
G37*
G36*
X70631197Y-109521233D02*
X70643449Y-109521835D01*
X70661869Y-109521835D01*
X70713358Y-109526906D01*
X70797443Y-109543632D01*
X70831168Y-109553862D01*
X70841048Y-109556859D01*
X70841050Y-109556860D01*
X70846955Y-109558651D01*
X70926164Y-109591460D01*
X70971787Y-109615846D01*
X71043082Y-109663484D01*
X71083076Y-109696306D01*
X71143694Y-109756924D01*
X71176516Y-109796918D01*
X71224154Y-109868213D01*
X71248540Y-109913836D01*
X71281349Y-109993045D01*
X71296368Y-110042557D01*
X71313094Y-110126642D01*
X71318165Y-110178131D01*
X71318165Y-110196551D01*
X71318767Y-110208803D01*
X71320573Y-110227140D01*
X71320573Y-110714860D01*
X71316107Y-110760203D01*
X71304668Y-110797913D01*
X71297097Y-110812078D01*
X71287720Y-110834717D01*
X71282940Y-110858750D01*
X71282940Y-110883255D01*
X71287721Y-110907288D01*
X71297097Y-110929922D01*
X71304668Y-110944087D01*
X71316107Y-110981797D01*
X71320573Y-111027140D01*
X71320573Y-111514860D01*
X71318767Y-111533197D01*
X71318165Y-111545449D01*
X71318165Y-111563869D01*
X71313094Y-111615358D01*
X71296368Y-111699443D01*
X71281349Y-111748955D01*
X71248540Y-111828164D01*
X71224154Y-111873787D01*
X71176516Y-111945082D01*
X71143694Y-111985076D01*
X71083076Y-112045694D01*
X71043082Y-112078516D01*
X70971787Y-112126154D01*
X70926164Y-112150540D01*
X70846955Y-112183349D01*
X70841050Y-112185140D01*
X70841048Y-112185141D01*
X70831168Y-112188138D01*
X70797443Y-112198368D01*
X70713358Y-112215094D01*
X70661869Y-112220165D01*
X70643449Y-112220165D01*
X70631197Y-112220767D01*
X70612860Y-112222573D01*
X55625140Y-112222573D01*
X55606803Y-112220767D01*
X55594551Y-112220165D01*
X55576131Y-112220165D01*
X55524642Y-112215094D01*
X55440557Y-112198368D01*
X55406832Y-112188138D01*
X55396952Y-112185141D01*
X55396950Y-112185140D01*
X55391045Y-112183349D01*
X55311836Y-112150540D01*
X55266213Y-112126154D01*
X55194918Y-112078516D01*
X55154924Y-112045694D01*
X55094306Y-111985076D01*
X55061484Y-111945082D01*
X55013846Y-111873787D01*
X54989460Y-111828164D01*
X54956651Y-111748955D01*
X54941632Y-111699443D01*
X54924906Y-111615358D01*
X54919835Y-111563869D01*
X54919835Y-111545449D01*
X54919233Y-111533197D01*
X54917427Y-111514860D01*
X54917427Y-111027140D01*
X54921893Y-110981797D01*
X54933332Y-110944087D01*
X54940903Y-110929922D01*
X54950280Y-110907283D01*
X54955060Y-110883250D01*
X54955060Y-110858745D01*
X54950279Y-110834712D01*
X54940903Y-110812078D01*
X54933332Y-110797913D01*
X54921893Y-110760203D01*
X54917427Y-110714860D01*
X54917427Y-110227140D01*
X54919233Y-110208803D01*
X54919835Y-110196551D01*
X54919835Y-110178131D01*
X54924906Y-110126642D01*
X54941632Y-110042557D01*
X54956651Y-109993045D01*
X54989460Y-109913836D01*
X55013846Y-109868213D01*
X55061484Y-109796918D01*
X55094306Y-109756924D01*
X55154924Y-109696306D01*
X55194918Y-109663484D01*
X55266213Y-109615846D01*
X55311836Y-109591460D01*
X55391045Y-109558651D01*
X55396950Y-109556860D01*
X55396952Y-109556859D01*
X55406832Y-109553862D01*
X55440557Y-109543632D01*
X55524642Y-109526906D01*
X55576131Y-109521835D01*
X55594551Y-109521835D01*
X55606803Y-109521233D01*
X55625140Y-109519427D01*
X70612860Y-109519427D01*
X70631197Y-109521233D01*
X70631197Y-109521233D01*
G37*
G36*
X42658517Y-103983724D02*
X42806130Y-104028503D01*
X42942177Y-104101222D01*
X43061419Y-104199081D01*
X43159278Y-104318323D01*
X43231997Y-104454370D01*
X43276776Y-104601983D01*
X43292500Y-104761640D01*
X43292500Y-107074360D01*
X43276776Y-107234017D01*
X43231997Y-107381630D01*
X43159278Y-107517677D01*
X43061419Y-107636919D01*
X42942177Y-107734778D01*
X42806130Y-107807497D01*
X42658517Y-107852276D01*
X42498860Y-107868000D01*
X40686140Y-107868000D01*
X40526483Y-107852276D01*
X40378870Y-107807497D01*
X40242823Y-107734778D01*
X40123581Y-107636919D01*
X40025722Y-107517677D01*
X39953003Y-107381630D01*
X39908224Y-107234017D01*
X39892500Y-107074360D01*
X39892500Y-104761640D01*
X39908224Y-104601983D01*
X39953003Y-104454370D01*
X40025722Y-104318323D01*
X40123581Y-104199081D01*
X40242823Y-104101222D01*
X40378870Y-104028503D01*
X40526483Y-103983724D01*
X40686140Y-103968000D01*
X42498860Y-103968000D01*
X42658517Y-103983724D01*
X42658517Y-103983724D01*
G37*
G36*
X49542500Y-107868000D02*
X45642500Y-107868000D01*
X45642500Y-103968000D01*
X49542500Y-103968000D01*
X49542500Y-107868000D01*
X49542500Y-107868000D01*
G37*
G36*
X74034500Y-106737000D02*
X71634500Y-106737000D01*
X71634500Y-104337000D01*
X74034500Y-104337000D01*
X74034500Y-106737000D01*
X74034500Y-106737000D01*
G37*
G36*
X78184526Y-104383115D02*
X78402912Y-104473573D01*
X78599458Y-104604901D01*
X78766599Y-104772042D01*
X78897927Y-104968588D01*
X78988385Y-105186974D01*
X79034500Y-105418809D01*
X79034500Y-105655191D01*
X78988385Y-105887026D01*
X78897927Y-106105412D01*
X78766599Y-106301958D01*
X78599458Y-106469099D01*
X78402912Y-106600427D01*
X78184526Y-106690885D01*
X77952691Y-106737000D01*
X77716309Y-106737000D01*
X77484474Y-106690885D01*
X77266088Y-106600427D01*
X77069542Y-106469099D01*
X76902401Y-106301958D01*
X76771073Y-106105412D01*
X76680615Y-105887026D01*
X76634500Y-105655191D01*
X76634500Y-105418809D01*
X76680615Y-105186974D01*
X76771073Y-104968588D01*
X76902401Y-104772042D01*
X77069542Y-104604901D01*
X77266088Y-104473573D01*
X77484474Y-104383115D01*
X77716309Y-104337000D01*
X77952691Y-104337000D01*
X78184526Y-104383115D01*
X78184526Y-104383115D01*
G37*
G36*
X39346000Y-98763000D02*
X36346000Y-98763000D01*
X36346000Y-95763000D01*
X39346000Y-95763000D01*
X39346000Y-98763000D01*
X39346000Y-98763000D01*
G37*
G36*
X38186935Y-90801429D02*
X38283534Y-90820644D01*
X38556517Y-90933717D01*
X38798920Y-91095687D01*
X38802197Y-91097876D01*
X39011124Y-91306803D01*
X39175284Y-91552485D01*
X39288356Y-91825467D01*
X39346000Y-92115261D01*
X39346000Y-92410739D01*
X39288356Y-92700533D01*
X39175284Y-92973515D01*
X39011124Y-93219197D01*
X38802197Y-93428124D01*
X38802194Y-93428126D01*
X38556517Y-93592283D01*
X38283534Y-93705356D01*
X38186935Y-93724571D01*
X37993739Y-93763000D01*
X37698261Y-93763000D01*
X37505065Y-93724571D01*
X37408466Y-93705356D01*
X37135483Y-93592283D01*
X36889806Y-93428126D01*
X36889803Y-93428124D01*
X36680876Y-93219197D01*
X36516716Y-92973515D01*
X36403644Y-92700533D01*
X36346000Y-92410739D01*
X36346000Y-92115261D01*
X36403644Y-91825467D01*
X36516716Y-91552485D01*
X36680876Y-91306803D01*
X36889803Y-91097876D01*
X36893080Y-91095687D01*
X37135483Y-90933717D01*
X37408466Y-90820644D01*
X37505065Y-90801429D01*
X37698261Y-90763000D01*
X37993739Y-90763000D01*
X38186935Y-90801429D01*
X38186935Y-90801429D01*
G37*
G36*
X79630707Y-91565997D02*
X79707836Y-91573593D01*
X79839787Y-91613620D01*
X79905763Y-91633633D01*
X80088172Y-91731133D01*
X80248054Y-91862346D01*
X80379267Y-92022228D01*
X80476767Y-92204637D01*
X80476767Y-92204638D01*
X80536807Y-92402564D01*
X80557080Y-92608400D01*
X80536807Y-92814236D01*
X80496780Y-92946187D01*
X80476767Y-93012163D01*
X80379267Y-93194572D01*
X80248054Y-93354454D01*
X80088172Y-93485667D01*
X79905763Y-93583167D01*
X79839787Y-93603180D01*
X79707836Y-93643207D01*
X79630707Y-93650804D01*
X79553580Y-93658400D01*
X79450420Y-93658400D01*
X79373293Y-93650804D01*
X79296164Y-93643207D01*
X79164213Y-93603180D01*
X79098237Y-93583167D01*
X78915828Y-93485667D01*
X78755946Y-93354454D01*
X78624733Y-93194572D01*
X78527233Y-93012163D01*
X78507220Y-92946187D01*
X78467193Y-92814236D01*
X78446920Y-92608400D01*
X78467193Y-92402564D01*
X78527233Y-92204638D01*
X78527233Y-92204637D01*
X78624733Y-92022228D01*
X78755946Y-91862346D01*
X78915828Y-91731133D01*
X79098237Y-91633633D01*
X79164213Y-91613620D01*
X79296164Y-91573593D01*
X79373293Y-91565997D01*
X79450420Y-91558400D01*
X79553580Y-91558400D01*
X79630707Y-91565997D01*
X79630707Y-91565997D01*
G37*
G36*
X78012000Y-93658400D02*
X75912000Y-93658400D01*
X75912000Y-91558400D01*
X78012000Y-91558400D01*
X78012000Y-93658400D01*
X78012000Y-93658400D01*
G37*
G36*
X38186935Y-85801429D02*
X38283534Y-85820644D01*
X38556517Y-85933717D01*
X38798920Y-86095687D01*
X38802197Y-86097876D01*
X39011124Y-86306803D01*
X39175284Y-86552485D01*
X39288356Y-86825467D01*
X39346000Y-87115261D01*
X39346000Y-87410739D01*
X39288356Y-87700533D01*
X39175284Y-87973515D01*
X39011124Y-88219197D01*
X38802197Y-88428124D01*
X38802194Y-88428126D01*
X38556517Y-88592283D01*
X38283534Y-88705356D01*
X38186935Y-88724571D01*
X37993739Y-88763000D01*
X37698261Y-88763000D01*
X37505065Y-88724571D01*
X37408466Y-88705356D01*
X37135483Y-88592283D01*
X36889806Y-88428126D01*
X36889803Y-88428124D01*
X36680876Y-88219197D01*
X36516716Y-87973515D01*
X36403644Y-87700533D01*
X36346000Y-87410739D01*
X36346000Y-87115261D01*
X36403644Y-86825467D01*
X36516716Y-86552485D01*
X36680876Y-86306803D01*
X36889803Y-86097876D01*
X36893080Y-86095687D01*
X37135483Y-85933717D01*
X37408466Y-85820644D01*
X37505065Y-85801429D01*
X37698261Y-85763000D01*
X37993739Y-85763000D01*
X38186935Y-85801429D01*
X38186935Y-85801429D01*
G37*
G36*
X38186935Y-80801429D02*
X38283534Y-80820644D01*
X38556517Y-80933717D01*
X38798920Y-81095687D01*
X38802197Y-81097876D01*
X39011124Y-81306803D01*
X39175284Y-81552485D01*
X39288356Y-81825467D01*
X39346000Y-82115261D01*
X39346000Y-82410739D01*
X39288356Y-82700533D01*
X39175284Y-82973515D01*
X39011124Y-83219197D01*
X38802197Y-83428124D01*
X38802194Y-83428126D01*
X38556517Y-83592283D01*
X38283534Y-83705356D01*
X38186935Y-83724571D01*
X37993739Y-83763000D01*
X37698261Y-83763000D01*
X37505065Y-83724571D01*
X37408466Y-83705356D01*
X37135483Y-83592283D01*
X36889806Y-83428126D01*
X36889803Y-83428124D01*
X36680876Y-83219197D01*
X36516716Y-82973515D01*
X36403644Y-82700533D01*
X36346000Y-82410739D01*
X36346000Y-82115261D01*
X36403644Y-81825467D01*
X36516716Y-81552485D01*
X36680876Y-81306803D01*
X36889803Y-81097876D01*
X36893080Y-81095687D01*
X37135483Y-80933717D01*
X37408466Y-80820644D01*
X37505065Y-80801429D01*
X37698261Y-80763000D01*
X37993739Y-80763000D01*
X38186935Y-80801429D01*
X38186935Y-80801429D01*
G37*
G36*
X38186935Y-75801429D02*
X38283534Y-75820644D01*
X38556517Y-75933717D01*
X38798920Y-76095687D01*
X38802197Y-76097876D01*
X39011124Y-76306803D01*
X39175284Y-76552485D01*
X39288356Y-76825467D01*
X39346000Y-77115261D01*
X39346000Y-77410739D01*
X39288356Y-77700533D01*
X39175284Y-77973515D01*
X39011124Y-78219197D01*
X38802197Y-78428124D01*
X38802194Y-78428126D01*
X38556517Y-78592283D01*
X38283534Y-78705356D01*
X38186935Y-78724571D01*
X37993739Y-78763000D01*
X37698261Y-78763000D01*
X37505065Y-78724571D01*
X37408466Y-78705356D01*
X37135483Y-78592283D01*
X36889806Y-78428126D01*
X36889803Y-78428124D01*
X36680876Y-78219197D01*
X36516716Y-77973515D01*
X36403644Y-77700533D01*
X36346000Y-77410739D01*
X36346000Y-77115261D01*
X36403644Y-76825467D01*
X36516716Y-76552485D01*
X36680876Y-76306803D01*
X36889803Y-76097876D01*
X36893080Y-76095687D01*
X37135483Y-75933717D01*
X37408466Y-75820644D01*
X37505065Y-75801429D01*
X37698261Y-75763000D01*
X37993739Y-75763000D01*
X38186935Y-75801429D01*
X38186935Y-75801429D01*
G37*
G36*
X78184526Y-73204615D02*
X78402912Y-73295073D01*
X78599458Y-73426401D01*
X78766599Y-73593542D01*
X78897927Y-73790088D01*
X78988385Y-74008474D01*
X79034500Y-74240309D01*
X79034500Y-74476691D01*
X78988385Y-74708526D01*
X78897927Y-74926912D01*
X78766599Y-75123458D01*
X78599458Y-75290599D01*
X78402912Y-75421927D01*
X78184526Y-75512385D01*
X77952691Y-75558500D01*
X77716309Y-75558500D01*
X77484474Y-75512385D01*
X77266088Y-75421927D01*
X77069542Y-75290599D01*
X76902401Y-75123458D01*
X76771073Y-74926912D01*
X76680615Y-74708526D01*
X76634500Y-74476691D01*
X76634500Y-74240309D01*
X76680615Y-74008474D01*
X76771073Y-73790088D01*
X76902401Y-73593542D01*
X77069542Y-73426401D01*
X77266088Y-73295073D01*
X77484474Y-73204615D01*
X77716309Y-73158500D01*
X77952691Y-73158500D01*
X78184526Y-73204615D01*
X78184526Y-73204615D01*
G37*
G36*
X74034500Y-75558500D02*
X71634500Y-75558500D01*
X71634500Y-73158500D01*
X74034500Y-73158500D01*
X74034500Y-75558500D01*
X74034500Y-75558500D01*
G37*
G36*
X38186935Y-70801429D02*
X38283534Y-70820644D01*
X38556517Y-70933717D01*
X38798920Y-71095687D01*
X38802197Y-71097876D01*
X39011124Y-71306803D01*
X39175284Y-71552485D01*
X39288356Y-71825467D01*
X39346000Y-72115261D01*
X39346000Y-72410739D01*
X39288356Y-72700533D01*
X39175284Y-72973515D01*
X39011124Y-73219197D01*
X38802197Y-73428124D01*
X38802194Y-73428126D01*
X38556517Y-73592283D01*
X38556516Y-73592284D01*
X38556515Y-73592284D01*
X38476560Y-73625402D01*
X38283534Y-73705356D01*
X38186935Y-73724571D01*
X37993739Y-73763000D01*
X37698261Y-73763000D01*
X37505065Y-73724571D01*
X37408466Y-73705356D01*
X37215440Y-73625402D01*
X37135485Y-73592284D01*
X37135484Y-73592284D01*
X37135483Y-73592283D01*
X36889806Y-73428126D01*
X36889803Y-73428124D01*
X36680876Y-73219197D01*
X36516716Y-72973515D01*
X36403644Y-72700533D01*
X36346000Y-72410739D01*
X36346000Y-72115261D01*
X36403644Y-71825467D01*
X36516716Y-71552485D01*
X36680876Y-71306803D01*
X36889803Y-71097876D01*
X36893080Y-71095687D01*
X37135483Y-70933717D01*
X37408466Y-70820644D01*
X37505065Y-70801429D01*
X37698261Y-70763000D01*
X37993739Y-70763000D01*
X38186935Y-70801429D01*
X38186935Y-70801429D01*
G37*
G36*
X70885197Y-67342233D02*
X70897449Y-67342835D01*
X70915869Y-67342835D01*
X70967358Y-67347906D01*
X71051443Y-67364632D01*
X71085168Y-67374862D01*
X71095048Y-67377859D01*
X71095050Y-67377860D01*
X71100955Y-67379651D01*
X71180164Y-67412460D01*
X71225787Y-67436846D01*
X71297082Y-67484484D01*
X71337076Y-67517306D01*
X71397694Y-67577924D01*
X71430516Y-67617918D01*
X71478154Y-67689213D01*
X71502540Y-67734836D01*
X71535349Y-67814045D01*
X71550368Y-67863557D01*
X71567094Y-67947642D01*
X71572165Y-67999131D01*
X71572165Y-68017551D01*
X71572767Y-68029803D01*
X71574573Y-68048140D01*
X71574573Y-68535860D01*
X71570107Y-68581203D01*
X71558668Y-68618913D01*
X71551097Y-68633078D01*
X71541720Y-68655717D01*
X71536940Y-68679750D01*
X71536940Y-68704255D01*
X71541721Y-68728288D01*
X71551097Y-68750922D01*
X71558668Y-68765087D01*
X71570107Y-68802797D01*
X71574573Y-68848140D01*
X71574573Y-69335860D01*
X71572767Y-69354197D01*
X71572165Y-69366449D01*
X71572165Y-69384869D01*
X71567094Y-69436358D01*
X71550368Y-69520443D01*
X71535349Y-69569955D01*
X71502540Y-69649164D01*
X71478154Y-69694787D01*
X71430516Y-69766082D01*
X71397694Y-69806076D01*
X71337076Y-69866694D01*
X71297082Y-69899516D01*
X71225787Y-69947154D01*
X71180164Y-69971540D01*
X71100955Y-70004349D01*
X71095050Y-70006140D01*
X71095048Y-70006141D01*
X71085168Y-70009138D01*
X71051443Y-70019368D01*
X70967358Y-70036094D01*
X70915869Y-70041165D01*
X70897449Y-70041165D01*
X70885197Y-70041767D01*
X70866860Y-70043573D01*
X55879140Y-70043573D01*
X55860803Y-70041767D01*
X55848551Y-70041165D01*
X55830131Y-70041165D01*
X55778642Y-70036094D01*
X55694557Y-70019368D01*
X55660832Y-70009138D01*
X55650952Y-70006141D01*
X55650950Y-70006140D01*
X55645045Y-70004349D01*
X55565836Y-69971540D01*
X55520213Y-69947154D01*
X55448918Y-69899516D01*
X55408924Y-69866694D01*
X55348306Y-69806076D01*
X55315484Y-69766082D01*
X55267846Y-69694787D01*
X55243460Y-69649164D01*
X55210651Y-69569955D01*
X55195632Y-69520443D01*
X55178906Y-69436358D01*
X55173835Y-69384869D01*
X55173835Y-69366449D01*
X55173233Y-69354197D01*
X55171427Y-69335860D01*
X55171427Y-68848140D01*
X55175893Y-68802797D01*
X55187332Y-68765087D01*
X55194903Y-68750922D01*
X55204280Y-68728283D01*
X55209060Y-68704250D01*
X55209060Y-68679745D01*
X55204279Y-68655712D01*
X55194903Y-68633078D01*
X55187332Y-68618913D01*
X55175893Y-68581203D01*
X55171427Y-68535860D01*
X55171427Y-68048140D01*
X55173233Y-68029803D01*
X55173835Y-68017551D01*
X55173835Y-67999131D01*
X55178906Y-67947642D01*
X55195632Y-67863557D01*
X55210651Y-67814045D01*
X55243460Y-67734836D01*
X55267846Y-67689213D01*
X55315484Y-67617918D01*
X55348306Y-67577924D01*
X55408924Y-67517306D01*
X55448918Y-67484484D01*
X55520213Y-67436846D01*
X55565836Y-67412460D01*
X55645045Y-67379651D01*
X55650950Y-67377860D01*
X55650952Y-67377859D01*
X55660832Y-67374862D01*
X55694557Y-67364632D01*
X55778642Y-67347906D01*
X55830131Y-67342835D01*
X55848551Y-67342835D01*
X55860803Y-67342233D01*
X55879140Y-67340427D01*
X70866860Y-67340427D01*
X70885197Y-67342233D01*
X70885197Y-67342233D01*
G37*
G36*
X108153622Y-63246115D02*
X108269541Y-63269173D01*
X108597120Y-63404861D01*
X108888011Y-63599228D01*
X108891936Y-63601851D01*
X109142649Y-63852564D01*
X109339640Y-64147382D01*
X109475327Y-64474960D01*
X109544500Y-64822714D01*
X109544500Y-65177286D01*
X109475327Y-65525040D01*
X109339640Y-65852618D01*
X109142649Y-66147436D01*
X108891936Y-66398149D01*
X108891933Y-66398151D01*
X108597120Y-66595139D01*
X108269541Y-66730827D01*
X108153622Y-66753885D01*
X107921786Y-66800000D01*
X107567214Y-66800000D01*
X107335378Y-66753885D01*
X107219459Y-66730827D01*
X106891880Y-66595139D01*
X106597067Y-66398151D01*
X106597064Y-66398149D01*
X106346351Y-66147436D01*
X106149360Y-65852618D01*
X106013673Y-65525040D01*
X105944500Y-65177286D01*
X105944500Y-64822714D01*
X106013673Y-64474960D01*
X106149360Y-64147382D01*
X106346351Y-63852564D01*
X106597064Y-63601851D01*
X106600989Y-63599228D01*
X106891880Y-63404861D01*
X107219459Y-63269173D01*
X107335378Y-63246115D01*
X107567214Y-63200000D01*
X107921786Y-63200000D01*
X108153622Y-63246115D01*
X108153622Y-63246115D01*
G37*
G36*
X37822122Y-63246115D02*
X37938041Y-63269173D01*
X38265620Y-63404861D01*
X38556511Y-63599228D01*
X38560436Y-63601851D01*
X38811149Y-63852564D01*
X39008140Y-64147382D01*
X39143827Y-64474960D01*
X39213000Y-64822714D01*
X39213000Y-65177286D01*
X39143827Y-65525040D01*
X39008140Y-65852618D01*
X38811149Y-66147436D01*
X38560436Y-66398149D01*
X38560433Y-66398151D01*
X38265620Y-66595139D01*
X37938041Y-66730827D01*
X37822122Y-66753885D01*
X37590286Y-66800000D01*
X37235714Y-66800000D01*
X37003878Y-66753885D01*
X36887959Y-66730827D01*
X36560380Y-66595139D01*
X36265567Y-66398151D01*
X36265564Y-66398149D01*
X36014851Y-66147436D01*
X35817860Y-65852618D01*
X35682173Y-65525040D01*
X35613000Y-65177286D01*
X35613000Y-64822714D01*
X35682173Y-64474960D01*
X35817860Y-64147382D01*
X36014851Y-63852564D01*
X36265564Y-63601851D01*
X36269489Y-63599228D01*
X36560380Y-63404861D01*
X36887959Y-63269173D01*
X37003878Y-63246115D01*
X37235714Y-63200000D01*
X37590286Y-63200000D01*
X37822122Y-63246115D01*
X37822122Y-63246115D01*
G37*
G36*
X89028707Y-62076596D02*
X89105836Y-62084193D01*
X89237787Y-62124220D01*
X89303763Y-62144233D01*
X89486172Y-62241733D01*
X89646054Y-62372946D01*
X89777267Y-62532828D01*
X89874767Y-62715237D01*
X89874767Y-62715238D01*
X89934807Y-62913164D01*
X89955080Y-63119000D01*
X89934807Y-63324836D01*
X89910532Y-63404860D01*
X89874767Y-63522763D01*
X89777267Y-63705172D01*
X89646054Y-63865054D01*
X89486172Y-63996267D01*
X89303763Y-64093767D01*
X89237787Y-64113780D01*
X89105836Y-64153807D01*
X89028707Y-64161403D01*
X88951580Y-64169000D01*
X88848420Y-64169000D01*
X88771293Y-64161403D01*
X88694164Y-64153807D01*
X88562213Y-64113780D01*
X88496237Y-64093767D01*
X88313828Y-63996267D01*
X88153946Y-63865054D01*
X88022733Y-63705172D01*
X87925233Y-63522763D01*
X87889468Y-63404860D01*
X87865193Y-63324836D01*
X87844920Y-63119000D01*
X87865193Y-62913164D01*
X87925233Y-62715238D01*
X87925233Y-62715237D01*
X88022733Y-62532828D01*
X88153946Y-62372946D01*
X88313828Y-62241733D01*
X88496237Y-62144233D01*
X88562213Y-62124220D01*
X88694164Y-62084193D01*
X88771293Y-62076596D01*
X88848420Y-62069000D01*
X88951580Y-62069000D01*
X89028707Y-62076596D01*
X89028707Y-62076596D01*
G37*
G36*
X79790000Y-64169000D02*
X77690000Y-64169000D01*
X77690000Y-62069000D01*
X79790000Y-62069000D01*
X79790000Y-64169000D01*
X79790000Y-64169000D01*
G37*
G36*
X81408707Y-62076596D02*
X81485836Y-62084193D01*
X81617787Y-62124220D01*
X81683763Y-62144233D01*
X81866172Y-62241733D01*
X82026054Y-62372946D01*
X82157267Y-62532828D01*
X82254767Y-62715237D01*
X82254767Y-62715238D01*
X82314807Y-62913164D01*
X82335080Y-63119000D01*
X82314807Y-63324836D01*
X82290532Y-63404860D01*
X82254767Y-63522763D01*
X82157267Y-63705172D01*
X82026054Y-63865054D01*
X81866172Y-63996267D01*
X81683763Y-64093767D01*
X81617787Y-64113780D01*
X81485836Y-64153807D01*
X81408707Y-64161403D01*
X81331580Y-64169000D01*
X81228420Y-64169000D01*
X81151293Y-64161403D01*
X81074164Y-64153807D01*
X80942213Y-64113780D01*
X80876237Y-64093767D01*
X80693828Y-63996267D01*
X80533946Y-63865054D01*
X80402733Y-63705172D01*
X80305233Y-63522763D01*
X80269468Y-63404860D01*
X80245193Y-63324836D01*
X80224920Y-63119000D01*
X80245193Y-62913164D01*
X80305233Y-62715238D01*
X80305233Y-62715237D01*
X80402733Y-62532828D01*
X80533946Y-62372946D01*
X80693828Y-62241733D01*
X80876237Y-62144233D01*
X80942213Y-62124220D01*
X81074164Y-62084193D01*
X81151293Y-62076596D01*
X81228420Y-62069000D01*
X81331580Y-62069000D01*
X81408707Y-62076596D01*
X81408707Y-62076596D01*
G37*
G36*
X83948707Y-62076596D02*
X84025836Y-62084193D01*
X84157787Y-62124220D01*
X84223763Y-62144233D01*
X84406172Y-62241733D01*
X84566054Y-62372946D01*
X84697267Y-62532828D01*
X84794767Y-62715237D01*
X84794767Y-62715238D01*
X84854807Y-62913164D01*
X84875080Y-63119000D01*
X84854807Y-63324836D01*
X84830532Y-63404860D01*
X84794767Y-63522763D01*
X84697267Y-63705172D01*
X84566054Y-63865054D01*
X84406172Y-63996267D01*
X84223763Y-64093767D01*
X84157787Y-64113780D01*
X84025836Y-64153807D01*
X83948707Y-64161403D01*
X83871580Y-64169000D01*
X83768420Y-64169000D01*
X83691293Y-64161403D01*
X83614164Y-64153807D01*
X83482213Y-64113780D01*
X83416237Y-64093767D01*
X83233828Y-63996267D01*
X83073946Y-63865054D01*
X82942733Y-63705172D01*
X82845233Y-63522763D01*
X82809468Y-63404860D01*
X82785193Y-63324836D01*
X82764920Y-63119000D01*
X82785193Y-62913164D01*
X82845233Y-62715238D01*
X82845233Y-62715237D01*
X82942733Y-62532828D01*
X83073946Y-62372946D01*
X83233828Y-62241733D01*
X83416237Y-62144233D01*
X83482213Y-62124220D01*
X83614164Y-62084193D01*
X83691293Y-62076596D01*
X83768420Y-62069000D01*
X83871580Y-62069000D01*
X83948707Y-62076596D01*
X83948707Y-62076596D01*
G37*
G36*
X86488707Y-62076596D02*
X86565836Y-62084193D01*
X86697787Y-62124220D01*
X86763763Y-62144233D01*
X86946172Y-62241733D01*
X87106054Y-62372946D01*
X87237267Y-62532828D01*
X87334767Y-62715237D01*
X87334767Y-62715238D01*
X87394807Y-62913164D01*
X87415080Y-63119000D01*
X87394807Y-63324836D01*
X87370532Y-63404860D01*
X87334767Y-63522763D01*
X87237267Y-63705172D01*
X87106054Y-63865054D01*
X86946172Y-63996267D01*
X86763763Y-64093767D01*
X86697787Y-64113780D01*
X86565836Y-64153807D01*
X86488707Y-64161403D01*
X86411580Y-64169000D01*
X86308420Y-64169000D01*
X86231293Y-64161403D01*
X86154164Y-64153807D01*
X86022213Y-64113780D01*
X85956237Y-64093767D01*
X85773828Y-63996267D01*
X85613946Y-63865054D01*
X85482733Y-63705172D01*
X85385233Y-63522763D01*
X85349468Y-63404860D01*
X85325193Y-63324836D01*
X85304920Y-63119000D01*
X85325193Y-62913164D01*
X85385233Y-62715238D01*
X85385233Y-62715237D01*
X85482733Y-62532828D01*
X85613946Y-62372946D01*
X85773828Y-62241733D01*
X85956237Y-62144233D01*
X86022213Y-62124220D01*
X86154164Y-62084193D01*
X86231293Y-62076596D01*
X86308420Y-62069000D01*
X86411580Y-62069000D01*
X86488707Y-62076596D01*
X86488707Y-62076596D01*
G37*
G36*
X91568707Y-62076596D02*
X91645836Y-62084193D01*
X91777787Y-62124220D01*
X91843763Y-62144233D01*
X92026172Y-62241733D01*
X92186054Y-62372946D01*
X92317267Y-62532828D01*
X92414767Y-62715237D01*
X92414767Y-62715238D01*
X92474807Y-62913164D01*
X92495080Y-63119000D01*
X92474807Y-63324836D01*
X92450532Y-63404860D01*
X92414767Y-63522763D01*
X92317267Y-63705172D01*
X92186054Y-63865054D01*
X92026172Y-63996267D01*
X91843763Y-64093767D01*
X91777787Y-64113780D01*
X91645836Y-64153807D01*
X91568707Y-64161403D01*
X91491580Y-64169000D01*
X91388420Y-64169000D01*
X91311293Y-64161403D01*
X91234164Y-64153807D01*
X91102213Y-64113780D01*
X91036237Y-64093767D01*
X90853828Y-63996267D01*
X90693946Y-63865054D01*
X90562733Y-63705172D01*
X90465233Y-63522763D01*
X90429468Y-63404860D01*
X90405193Y-63324836D01*
X90384920Y-63119000D01*
X90405193Y-62913164D01*
X90465233Y-62715238D01*
X90465233Y-62715237D01*
X90562733Y-62532828D01*
X90693946Y-62372946D01*
X90853828Y-62241733D01*
X91036237Y-62144233D01*
X91102213Y-62124220D01*
X91234164Y-62084193D01*
X91311293Y-62076596D01*
X91388420Y-62069000D01*
X91491580Y-62069000D01*
X91568707Y-62076596D01*
X91568707Y-62076596D01*
G37*
M02*
