M48
; DRILL file {KiCad 5.1.5-52549c5~84~ubuntu18.04.1} date Mon 09 Mar 2020 10:29:26 PDT
; FORMAT={-:-/ absolute / inch / decimal}
; #@! TF.CreationDate,2020-03-09T10:29:26-07:00
; #@! TF.GenerationSoftware,Kicad,Pcbnew,5.1.5-52549c5~84~ubuntu18.04.1
; #@! TF.FileFunction,Plated,1,4,PTH
FMAT,2
INCH
T1C0.0157
T2C0.0394
T3C0.0472
T4C0.0512
%
G90
G05
T1
X1.3875Y-2.77
X1.3875Y-2.875
X1.39Y-2.67
X1.395Y-3.985
X1.395Y-4.095
X1.395Y-4.21
X1.395Y-4.335
X1.395Y-4.425
X1.4575Y-4.1525
X1.46Y-4.0375
X1.4625Y-4.27
X1.465Y-2.7175
X1.475Y-4.39
X1.52Y-4.1
X1.52Y-4.21
X1.535Y-2.675
X1.535Y-3.9825
X1.5375Y-4.3375
X1.565Y-4.0425
X1.58Y-4.2775
X1.5825Y-2.9575
X1.5875Y-2.7475
X1.6Y-2.605
X1.6025Y-3.0975
X1.605Y-2.875
X1.61Y-4.405
X1.6175Y-3.0275
X1.625Y-4.545
X1.63Y-4.0525
X1.65Y-2.54
X1.65Y-2.67
X1.655Y-2.82
X1.6725Y-2.9625
X1.68Y-4.48
X1.695Y-2.7475
X1.6975Y-3.085
X1.7Y-3.985
X1.705Y-2.605
X1.71Y-3.0175
X1.715Y-2.8575
X1.73Y-4.545
X1.76Y-2.54
X1.76Y-2.67
X1.7625Y-2.8
X1.765Y-2.9525
X1.785Y-3.0775
X1.785Y-4.48
X1.7925Y-3.0175
X1.7975Y-3.995
X1.8Y-4.065
X1.815Y-2.605
X1.815Y-2.74
X1.8275Y-3.535
X1.84Y-4.545
X1.8425Y-2.9425
X1.865Y-2.54
X1.8675Y-4.28
X1.87Y-2.675
X1.87Y-3.0075
X1.8725Y-4.005
X1.8825Y-4.4
X1.89Y-4.0575
X1.895Y-4.48
X1.92Y-2.605
X1.925Y-2.95
X1.93Y-3.0625
X1.93Y-3.98
X1.945Y-4.545
X1.9525Y-4.28
X1.955Y-3.005
X1.965Y-4.06
X1.965Y-4.4
X1.975Y-2.54
X1.99Y-4.1275
X1.995Y-4.22
X2.0Y-4.48
X2.0025Y-2.955
X2.03Y-2.605
X2.03Y-3.0175
X2.0325Y-4.0575
X2.0425Y-4.175
X2.045Y-4.2625
X2.0525Y-4.11
X2.055Y-4.545
X2.0675Y-2.9625
X2.08Y-2.54
X2.1025Y-4.0575
X2.11Y-4.48
X2.115Y-3.0275
X2.135Y-2.605
X2.16Y-4.545
X2.1675Y-3.565
X2.1775Y-3.3875
X2.19Y-2.54
X2.19Y-4.2525
X2.1925Y-3.7225
X2.2025Y-2.815
X2.215Y-4.48
X2.2175Y-4.2825
X2.225Y-3.69
X2.225Y-3.4031
X2.23Y-2.785
X2.245Y-2.605
X2.245Y-4.2525
X2.2575Y-2.815
X2.27Y-4.545
X2.2725Y-4.2825
X2.285Y-2.785
X2.295Y-2.54
X2.2975Y-4.2525
X2.3125Y-2.815
X2.325Y-4.2825
X2.325Y-4.48
X2.3375Y-2.785
X2.35Y-2.605
X2.35Y-4.2525
X2.365Y-2.815
X2.375Y-4.545
X2.3775Y-4.2825
X2.39Y-2.785
X2.4Y-3.4725
X2.4Y-3.535
X2.4Y-3.595
X2.4025Y-4.2525
X2.405Y-2.54
X2.415Y-3.33
X2.415Y-3.405
X2.415Y-3.665
X2.415Y-3.74
X2.4175Y-2.815
X2.43Y-4.2825
X2.43Y-4.48
X2.435Y-3.365
X2.435Y-3.705
X2.44Y-3.505
X2.44Y-3.57
X2.4425Y-2.785
X2.455Y-4.2525
X2.46Y-2.605
X2.46Y-3.33
X2.46Y-3.405
X2.46Y-3.665
X2.46Y-3.74
X2.47Y-2.815
X2.4825Y-4.2825
X2.485Y-4.545
X2.49Y-3.4725
X2.49Y-3.535
X2.49Y-3.595
X2.495Y-2.785
X2.5075Y-4.2525
X2.51Y-2.54
X2.52Y-3.33
X2.52Y-3.405
X2.52Y-3.665
X2.52Y-3.74
X2.5225Y-2.815
X2.535Y-3.505
X2.535Y-3.57
X2.535Y-4.2825
X2.54Y-4.48
X2.545Y-3.365
X2.545Y-3.705
X2.5475Y-2.785
X2.56Y-4.2525
X2.565Y-2.605
X2.565Y-3.33
X2.565Y-3.405
X2.565Y-3.665
X2.565Y-3.74
X2.575Y-2.815
X2.575Y-3.1075
X2.575Y-3.4725
X2.575Y-3.535
X2.575Y-3.5925
X2.575Y-3.97
X2.5875Y-4.2825
X2.59Y-4.545
X2.6Y-2.785
X2.6025Y-3.9425
X2.605Y-3.1375
X2.6125Y-4.2525
X2.62Y-2.54
X2.6275Y-2.815
X2.64Y-4.2825
X2.645Y-4.48
X2.6525Y-2.785
X2.665Y-4.2525
X2.675Y-2.605
X2.68Y-2.815
X2.6925Y-4.2825
X2.7Y-4.545
X2.705Y-2.785
X2.71Y-3.12
X2.71Y-3.95
X2.725Y-2.54
X2.75Y-3.3775
X2.75Y-3.69
X2.755Y-4.04
X2.755Y-4.48
X2.7675Y-3.89
X2.77Y-3.025
X2.77Y-3.4125
X2.77Y-3.655
X2.78Y-2.605
X2.7825Y-3.185
X2.79Y-4.1225
X2.8Y-2.935
X2.805Y-4.545
X2.8125Y-3.4125
X2.8125Y-3.655
X2.825Y-3.9725
X2.8275Y-3.0975
X2.83Y-3.835
X2.835Y-2.54
X2.845Y-3.2425
X2.86Y-4.48
X2.8625Y-2.8075
X2.865Y-2.7
X2.8775Y-4.4075
X2.8875Y-3.9252
X2.89Y-2.605
X2.9Y-4.0225
X2.905Y-3.045
X2.91Y-4.545
X2.9125Y-3.145
X2.9375Y-2.76
X2.94Y-2.54
X2.94Y-2.665
X2.94Y-4.265
X2.95Y-4.475
X2.9725Y-4.4025
X2.98Y-4.2975
X2.985Y-2.71
X2.9875Y-2.6025
X3.07Y-3.505
X3.0875Y-4.345
X3.095Y-2.64
X3.095Y-2.755
X3.0975Y-4.4575
X3.1225Y-3.52
X3.185Y-4.3875
X3.185Y-4.51
X3.1925Y-2.8025
X3.21Y-2.5975
X3.21Y-2.7025
X3.21Y-4.1875
X3.2175Y-4.2975
X3.2215Y-3.4345
X3.225Y-3.045
X3.2275Y-2.9375
X3.2375Y-3.155
X3.2375Y-3.2525
X3.2425Y-4.4475
X3.2825Y-2.65
X3.2925Y-3.6575
X3.3025Y-4.515
X3.3375Y-3.54
X3.34Y-3.1475
X3.34Y-4.2
X3.35Y-4.4425
X3.355Y-4.375
X3.3575Y-3.605
X3.3675Y-3.695
X3.3675Y-3.755
X3.38Y-4.2
X3.42Y-4.2
X3.4225Y-3.135
X3.4225Y-3.4625
X3.4225Y-3.5375
X3.4225Y-3.6425
X3.435Y-3.7525
X3.44Y-4.11
X3.4607Y-3.2075
X3.4625Y-3.824
X3.4625Y-3.9025
X3.4625Y-3.99
X3.4775Y-3.0025
X3.4925Y-3.5875
X3.4975Y-3.3925
X3.5Y-3.5025
X3.5325Y-3.1625
X3.535Y-3.7925
X3.5475Y-4.21
X3.55Y-3.105
X3.55Y-3.305
X3.555Y-4.375
X3.58Y-3.075
X3.58Y-3.255
X3.5925Y-3.3075
X3.61Y-3.345
X3.6125Y-3.725
X3.625Y-2.88
X3.6274Y-3.0675
X3.6625Y-2.715
X3.6701Y-3.675
X3.695Y-4.21
X3.705Y-2.7175
X3.7075Y-3.6925
X3.7125Y-3.8825
X3.7375Y-3.7224
X3.775Y-3.155
X3.775Y-3.2225
X3.775Y-3.285
X3.78Y-2.72
X3.7825Y-2.6575
X3.8025Y-3.595
X3.8075Y-4.48
X3.815Y-3.9925
X3.8225Y-2.885
X3.8229Y-3.6593
X3.84Y-3.155
X3.84Y-3.22
X3.84Y-3.285
X3.86Y-3.6725
X3.89Y-3.7025
X3.8975Y-2.885
X3.905Y-3.155
X3.905Y-3.22
X3.905Y-3.285
X3.9375Y-2.75
X3.9513Y-2.6438
X3.9525Y-2.69
X3.9625Y-3.75
X3.98Y-4.37
X3.9825Y-4.5025
X4.0325Y-4.4275
X4.05Y-3.6025
X4.0775Y-2.6125
X4.1025Y-4.4625
X4.1075Y-4.6025
X4.11Y-4.375
X4.1125Y-2.4675
X4.12Y-3.8175
X4.1225Y-3.9225
X4.1225Y-4.0275
X4.1325Y-3.7425
X4.1525Y-2.6775
X4.1925Y-4.32
X4.24Y-4.38
X4.33Y-2.68
X4.3325Y-4.1925
X4.3325Y-4.2925
X4.3325Y-4.41
X4.335Y-3.6725
X4.335Y-4.0725
X4.3375Y-3.77
X4.3375Y-3.8625
X4.3375Y-3.9775
T2
X3.1Y-3.655
X3.2Y-3.655
X3.1Y-2.485
X3.2Y-2.485
X3.3Y-2.485
X3.4Y-2.485
X3.5Y-2.485
X3.6Y-2.485
X3.7Y-2.485
X3.8Y-2.485
X3.9Y-2.485
X4.0Y-2.485
X3.1Y-4.6
X3.2Y-4.6
X3.3Y-4.6
X3.4Y-4.6
X3.5Y-4.6
X3.6Y-4.6
X3.7Y-4.6
X3.8Y-4.6
X3.9Y-4.6
X4.0Y-4.6
T3
X2.895Y-4.155
X3.0919Y-4.155
X2.9025Y-2.9275
X3.0994Y-2.9275
T4
X1.49Y-2.845
X1.49Y-3.0419
X1.49Y-3.2387
X1.49Y-3.4356
X1.49Y-3.6324
X1.49Y-3.8293
T2
G00X1.6375Y-4.1306
M15
G01X1.6375Y-4.2094
M16
G05
G00X1.7162Y-4.355
M15
G01X1.795Y-4.355
M16
G05
G00X1.8737Y-4.1306
M15
G01X1.8737Y-4.2094
M16
G05
T0
M30
