G04 #@! TF.GenerationSoftware,KiCad,Pcbnew,5.0.1-33cea8e~68~ubuntu16.04.1*
G04 #@! TF.CreationDate,2018-10-28T17:52:41-07:00*
G04 #@! TF.ProjectId,wifistepper,77696669737465707065722E6B696361,rev?*
G04 #@! TF.SameCoordinates,Original*
G04 #@! TF.FileFunction,Paste,Top*
G04 #@! TF.FilePolarity,Positive*
%FSLAX46Y46*%
G04 Gerber Fmt 4.6, Leading zero omitted, Abs format (unit mm)*
G04 Created by KiCad (PCBNEW 5.0.1-33cea8e~68~ubuntu16.04.1) date Sun 28 Oct 2018 05:52:41 PM PDT*
%MOMM*%
%LPD*%
G01*
G04 APERTURE LIST*
%ADD10C,0.100000*%
%ADD11C,1.100000*%
%ADD12C,0.500000*%
%ADD13C,2.140000*%
%ADD14R,0.800000X0.200000*%
%ADD15R,0.200000X0.800000*%
%ADD16R,1.160000X1.200000*%
%ADD17R,2.300000X3.010000*%
%ADD18R,5.500000X4.680000*%
%ADD19C,0.875000*%
%ADD20C,1.250000*%
%ADD21C,0.975000*%
%ADD22R,0.900000X0.800000*%
%ADD23R,1.200000X0.900000*%
%ADD24R,1.500000X4.200000*%
%ADD25R,0.900000X1.700000*%
%ADD26R,4.300000X4.300000*%
%ADD27R,0.850000X0.300000*%
%ADD28R,0.600000X1.550000*%
%ADD29C,1.150000*%
%ADD30C,1.350000*%
G04 APERTURE END LIST*
D10*
G04 #@! TO.C,D0*
G36*
X56139455Y-111465324D02*
X56166150Y-111469284D01*
X56192328Y-111475841D01*
X56217738Y-111484933D01*
X56242134Y-111496472D01*
X56265282Y-111510346D01*
X56286958Y-111526422D01*
X56306954Y-111544546D01*
X56325078Y-111564542D01*
X56341154Y-111586218D01*
X56355028Y-111609366D01*
X56366567Y-111633762D01*
X56375659Y-111659172D01*
X56382216Y-111685350D01*
X56386176Y-111712045D01*
X56387500Y-111739000D01*
X56387500Y-112289000D01*
X56386176Y-112315955D01*
X56382216Y-112342650D01*
X56375659Y-112368828D01*
X56366567Y-112394238D01*
X56355028Y-112418634D01*
X56341154Y-112441782D01*
X56325078Y-112463458D01*
X56306954Y-112483454D01*
X56286958Y-112501578D01*
X56265282Y-112517654D01*
X56242134Y-112531528D01*
X56217738Y-112543067D01*
X56192328Y-112552159D01*
X56166150Y-112558716D01*
X56139455Y-112562676D01*
X56112500Y-112564000D01*
X55012500Y-112564000D01*
X54985545Y-112562676D01*
X54958850Y-112558716D01*
X54932672Y-112552159D01*
X54907262Y-112543067D01*
X54882866Y-112531528D01*
X54859718Y-112517654D01*
X54838042Y-112501578D01*
X54818046Y-112483454D01*
X54799922Y-112463458D01*
X54783846Y-112441782D01*
X54769972Y-112418634D01*
X54758433Y-112394238D01*
X54749341Y-112368828D01*
X54742784Y-112342650D01*
X54738824Y-112315955D01*
X54737500Y-112289000D01*
X54737500Y-111739000D01*
X54738824Y-111712045D01*
X54742784Y-111685350D01*
X54749341Y-111659172D01*
X54758433Y-111633762D01*
X54769972Y-111609366D01*
X54783846Y-111586218D01*
X54799922Y-111564542D01*
X54818046Y-111544546D01*
X54838042Y-111526422D01*
X54859718Y-111510346D01*
X54882866Y-111496472D01*
X54907262Y-111484933D01*
X54932672Y-111475841D01*
X54958850Y-111469284D01*
X54985545Y-111465324D01*
X55012500Y-111464000D01*
X56112500Y-111464000D01*
X56139455Y-111465324D01*
X56139455Y-111465324D01*
G37*
D11*
X55562500Y-112014000D03*
D10*
G36*
X56139455Y-107865324D02*
X56166150Y-107869284D01*
X56192328Y-107875841D01*
X56217738Y-107884933D01*
X56242134Y-107896472D01*
X56265282Y-107910346D01*
X56286958Y-107926422D01*
X56306954Y-107944546D01*
X56325078Y-107964542D01*
X56341154Y-107986218D01*
X56355028Y-108009366D01*
X56366567Y-108033762D01*
X56375659Y-108059172D01*
X56382216Y-108085350D01*
X56386176Y-108112045D01*
X56387500Y-108139000D01*
X56387500Y-108689000D01*
X56386176Y-108715955D01*
X56382216Y-108742650D01*
X56375659Y-108768828D01*
X56366567Y-108794238D01*
X56355028Y-108818634D01*
X56341154Y-108841782D01*
X56325078Y-108863458D01*
X56306954Y-108883454D01*
X56286958Y-108901578D01*
X56265282Y-108917654D01*
X56242134Y-108931528D01*
X56217738Y-108943067D01*
X56192328Y-108952159D01*
X56166150Y-108958716D01*
X56139455Y-108962676D01*
X56112500Y-108964000D01*
X55012500Y-108964000D01*
X54985545Y-108962676D01*
X54958850Y-108958716D01*
X54932672Y-108952159D01*
X54907262Y-108943067D01*
X54882866Y-108931528D01*
X54859718Y-108917654D01*
X54838042Y-108901578D01*
X54818046Y-108883454D01*
X54799922Y-108863458D01*
X54783846Y-108841782D01*
X54769972Y-108818634D01*
X54758433Y-108794238D01*
X54749341Y-108768828D01*
X54742784Y-108742650D01*
X54738824Y-108715955D01*
X54737500Y-108689000D01*
X54737500Y-108139000D01*
X54738824Y-108112045D01*
X54742784Y-108085350D01*
X54749341Y-108059172D01*
X54758433Y-108033762D01*
X54769972Y-108009366D01*
X54783846Y-107986218D01*
X54799922Y-107964542D01*
X54818046Y-107944546D01*
X54838042Y-107926422D01*
X54859718Y-107910346D01*
X54882866Y-107896472D01*
X54907262Y-107884933D01*
X54932672Y-107875841D01*
X54958850Y-107869284D01*
X54985545Y-107865324D01*
X55012500Y-107864000D01*
X56112500Y-107864000D01*
X56139455Y-107865324D01*
X56139455Y-107865324D01*
G37*
D11*
X55562500Y-108414000D03*
G04 #@! TD*
D12*
G04 #@! TO.C,SW1*
X100525000Y-105664000D03*
D10*
G36*
X100075000Y-105114000D02*
X100275000Y-105114000D01*
X100275000Y-105314000D01*
X100775000Y-105314000D01*
X100775000Y-106014000D01*
X100275000Y-106014000D01*
X100275000Y-106214000D01*
X100075000Y-106214000D01*
X100075000Y-105114000D01*
X100075000Y-105114000D01*
G37*
D12*
X104775000Y-105664000D03*
D10*
G36*
X105025000Y-106014000D02*
X104525000Y-106014000D01*
X104525000Y-105314000D01*
X105025000Y-105314000D01*
X105025000Y-105114000D01*
X105225000Y-105114000D01*
X105225000Y-106214000D01*
X105025000Y-106214000D01*
X105025000Y-106014000D01*
X105025000Y-106014000D01*
G37*
D12*
X100525000Y-109164000D03*
D10*
G36*
X100075000Y-108614000D02*
X100275000Y-108614000D01*
X100275000Y-108814000D01*
X100775000Y-108814000D01*
X100775000Y-109514000D01*
X100275000Y-109514000D01*
X100275000Y-109714000D01*
X100075000Y-109714000D01*
X100075000Y-108614000D01*
X100075000Y-108614000D01*
G37*
D12*
X104775000Y-109164000D03*
D10*
G36*
X105025000Y-109514000D02*
X104525000Y-109514000D01*
X104525000Y-108814000D01*
X105025000Y-108814000D01*
X105025000Y-108614000D01*
X105225000Y-108614000D01*
X105225000Y-109714000D01*
X105025000Y-109714000D01*
X105025000Y-109514000D01*
X105025000Y-109514000D01*
G37*
G04 #@! TD*
D13*
G04 #@! TO.C,U2*
X67336000Y-95044000D03*
D10*
G36*
X66826000Y-96469000D02*
X66266000Y-96469000D01*
X66266000Y-93619000D01*
X68406000Y-93619000D01*
X68406000Y-94019000D01*
X69136000Y-94019000D01*
X69136000Y-96189000D01*
X68406000Y-96189000D01*
X68406000Y-96469000D01*
X68266000Y-96469000D01*
X68266000Y-97189000D01*
X66826000Y-97189000D01*
X66826000Y-96469000D01*
X66826000Y-96469000D01*
G37*
D13*
X59156000Y-95044000D03*
D10*
G36*
X58226000Y-96469000D02*
X58086000Y-96469000D01*
X58086000Y-96189000D01*
X57356000Y-96189000D01*
X57356000Y-94019000D01*
X58086000Y-94019000D01*
X58086000Y-93619000D01*
X60226000Y-93619000D01*
X60226000Y-96469000D01*
X59666000Y-96469000D01*
X59666000Y-97189000D01*
X58226000Y-97189000D01*
X58226000Y-96469000D01*
X58226000Y-96469000D01*
G37*
D13*
X59156000Y-84534000D03*
D10*
G36*
X58086000Y-85559000D02*
X57356000Y-85559000D01*
X57356000Y-83389000D01*
X58086000Y-83389000D01*
X58086000Y-83109000D01*
X58226000Y-83109000D01*
X58226000Y-82389000D01*
X59666000Y-82389000D01*
X59666000Y-83109000D01*
X60226000Y-83109000D01*
X60226000Y-85959000D01*
X58086000Y-85959000D01*
X58086000Y-85559000D01*
X58086000Y-85559000D01*
G37*
D13*
X67336000Y-84534000D03*
D10*
G36*
X66266000Y-83109000D02*
X66826000Y-83109000D01*
X66826000Y-82389000D01*
X68266000Y-82389000D01*
X68266000Y-83109000D01*
X68406000Y-83109000D01*
X68406000Y-83389000D01*
X69136000Y-83389000D01*
X69136000Y-85559000D01*
X68406000Y-85559000D01*
X68406000Y-85959000D01*
X66266000Y-85959000D01*
X66266000Y-83109000D01*
X66266000Y-83109000D01*
G37*
D14*
X57746000Y-93039000D03*
X57746000Y-92439000D03*
X57746000Y-92039000D03*
X57746000Y-91639000D03*
X57746000Y-90909000D03*
X57746000Y-90189000D03*
X57746000Y-86539000D03*
X57746000Y-87139000D03*
X57746000Y-87869000D03*
X57746000Y-88269000D03*
X57746000Y-88989000D03*
X57746000Y-89789000D03*
X57746000Y-89389000D03*
X68746000Y-93039000D03*
X68746000Y-92439000D03*
X68746000Y-91999000D03*
X68746000Y-91599000D03*
X68746000Y-91199000D03*
X68746000Y-90799000D03*
X68746000Y-90399000D03*
X68746000Y-89999000D03*
X68746000Y-86539000D03*
X68746000Y-87139000D03*
X68746000Y-87579000D03*
X68746000Y-87979000D03*
X68746000Y-88379000D03*
X68746000Y-88779000D03*
X68746000Y-89179000D03*
X68746000Y-89579000D03*
D15*
X65756000Y-96789000D03*
X60736000Y-96789000D03*
X62936000Y-96789000D03*
X63556000Y-96789000D03*
X65756000Y-82789000D03*
X60736000Y-82789000D03*
X62936000Y-82789000D03*
X63556000Y-82789000D03*
D16*
X61836000Y-82989000D03*
X64656000Y-82989000D03*
X61836000Y-96589000D03*
X64656000Y-96589000D03*
D17*
X61876000Y-85524000D03*
X64616000Y-85524000D03*
X61876000Y-94054000D03*
X64616000Y-94054000D03*
D18*
X63166000Y-89789000D03*
G04 #@! TD*
D10*
G04 #@! TO.C,R10*
G36*
X106894191Y-92654553D02*
X106915426Y-92657703D01*
X106936250Y-92662919D01*
X106956462Y-92670151D01*
X106975868Y-92679330D01*
X106994281Y-92690366D01*
X107011524Y-92703154D01*
X107027430Y-92717570D01*
X107041846Y-92733476D01*
X107054634Y-92750719D01*
X107065670Y-92769132D01*
X107074849Y-92788538D01*
X107082081Y-92808750D01*
X107087297Y-92829574D01*
X107090447Y-92850809D01*
X107091500Y-92872250D01*
X107091500Y-93309750D01*
X107090447Y-93331191D01*
X107087297Y-93352426D01*
X107082081Y-93373250D01*
X107074849Y-93393462D01*
X107065670Y-93412868D01*
X107054634Y-93431281D01*
X107041846Y-93448524D01*
X107027430Y-93464430D01*
X107011524Y-93478846D01*
X106994281Y-93491634D01*
X106975868Y-93502670D01*
X106956462Y-93511849D01*
X106936250Y-93519081D01*
X106915426Y-93524297D01*
X106894191Y-93527447D01*
X106872750Y-93528500D01*
X106360250Y-93528500D01*
X106338809Y-93527447D01*
X106317574Y-93524297D01*
X106296750Y-93519081D01*
X106276538Y-93511849D01*
X106257132Y-93502670D01*
X106238719Y-93491634D01*
X106221476Y-93478846D01*
X106205570Y-93464430D01*
X106191154Y-93448524D01*
X106178366Y-93431281D01*
X106167330Y-93412868D01*
X106158151Y-93393462D01*
X106150919Y-93373250D01*
X106145703Y-93352426D01*
X106142553Y-93331191D01*
X106141500Y-93309750D01*
X106141500Y-92872250D01*
X106142553Y-92850809D01*
X106145703Y-92829574D01*
X106150919Y-92808750D01*
X106158151Y-92788538D01*
X106167330Y-92769132D01*
X106178366Y-92750719D01*
X106191154Y-92733476D01*
X106205570Y-92717570D01*
X106221476Y-92703154D01*
X106238719Y-92690366D01*
X106257132Y-92679330D01*
X106276538Y-92670151D01*
X106296750Y-92662919D01*
X106317574Y-92657703D01*
X106338809Y-92654553D01*
X106360250Y-92653500D01*
X106872750Y-92653500D01*
X106894191Y-92654553D01*
X106894191Y-92654553D01*
G37*
D19*
X106616500Y-93091000D03*
D10*
G36*
X106894191Y-94229553D02*
X106915426Y-94232703D01*
X106936250Y-94237919D01*
X106956462Y-94245151D01*
X106975868Y-94254330D01*
X106994281Y-94265366D01*
X107011524Y-94278154D01*
X107027430Y-94292570D01*
X107041846Y-94308476D01*
X107054634Y-94325719D01*
X107065670Y-94344132D01*
X107074849Y-94363538D01*
X107082081Y-94383750D01*
X107087297Y-94404574D01*
X107090447Y-94425809D01*
X107091500Y-94447250D01*
X107091500Y-94884750D01*
X107090447Y-94906191D01*
X107087297Y-94927426D01*
X107082081Y-94948250D01*
X107074849Y-94968462D01*
X107065670Y-94987868D01*
X107054634Y-95006281D01*
X107041846Y-95023524D01*
X107027430Y-95039430D01*
X107011524Y-95053846D01*
X106994281Y-95066634D01*
X106975868Y-95077670D01*
X106956462Y-95086849D01*
X106936250Y-95094081D01*
X106915426Y-95099297D01*
X106894191Y-95102447D01*
X106872750Y-95103500D01*
X106360250Y-95103500D01*
X106338809Y-95102447D01*
X106317574Y-95099297D01*
X106296750Y-95094081D01*
X106276538Y-95086849D01*
X106257132Y-95077670D01*
X106238719Y-95066634D01*
X106221476Y-95053846D01*
X106205570Y-95039430D01*
X106191154Y-95023524D01*
X106178366Y-95006281D01*
X106167330Y-94987868D01*
X106158151Y-94968462D01*
X106150919Y-94948250D01*
X106145703Y-94927426D01*
X106142553Y-94906191D01*
X106141500Y-94884750D01*
X106141500Y-94447250D01*
X106142553Y-94425809D01*
X106145703Y-94404574D01*
X106150919Y-94383750D01*
X106158151Y-94363538D01*
X106167330Y-94344132D01*
X106178366Y-94325719D01*
X106191154Y-94308476D01*
X106205570Y-94292570D01*
X106221476Y-94278154D01*
X106238719Y-94265366D01*
X106257132Y-94254330D01*
X106276538Y-94245151D01*
X106296750Y-94237919D01*
X106317574Y-94232703D01*
X106338809Y-94229553D01*
X106360250Y-94228500D01*
X106872750Y-94228500D01*
X106894191Y-94229553D01*
X106894191Y-94229553D01*
G37*
D19*
X106616500Y-94666000D03*
G04 #@! TD*
D10*
G04 #@! TO.C,C1*
G36*
X53485504Y-97678204D02*
X53509773Y-97681804D01*
X53533571Y-97687765D01*
X53556671Y-97696030D01*
X53578849Y-97706520D01*
X53599893Y-97719133D01*
X53619598Y-97733747D01*
X53637777Y-97750223D01*
X53654253Y-97768402D01*
X53668867Y-97788107D01*
X53681480Y-97809151D01*
X53691970Y-97831329D01*
X53700235Y-97854429D01*
X53706196Y-97878227D01*
X53709796Y-97902496D01*
X53711000Y-97927000D01*
X53711000Y-99177000D01*
X53709796Y-99201504D01*
X53706196Y-99225773D01*
X53700235Y-99249571D01*
X53691970Y-99272671D01*
X53681480Y-99294849D01*
X53668867Y-99315893D01*
X53654253Y-99335598D01*
X53637777Y-99353777D01*
X53619598Y-99370253D01*
X53599893Y-99384867D01*
X53578849Y-99397480D01*
X53556671Y-99407970D01*
X53533571Y-99416235D01*
X53509773Y-99422196D01*
X53485504Y-99425796D01*
X53461000Y-99427000D01*
X52711000Y-99427000D01*
X52686496Y-99425796D01*
X52662227Y-99422196D01*
X52638429Y-99416235D01*
X52615329Y-99407970D01*
X52593151Y-99397480D01*
X52572107Y-99384867D01*
X52552402Y-99370253D01*
X52534223Y-99353777D01*
X52517747Y-99335598D01*
X52503133Y-99315893D01*
X52490520Y-99294849D01*
X52480030Y-99272671D01*
X52471765Y-99249571D01*
X52465804Y-99225773D01*
X52462204Y-99201504D01*
X52461000Y-99177000D01*
X52461000Y-97927000D01*
X52462204Y-97902496D01*
X52465804Y-97878227D01*
X52471765Y-97854429D01*
X52480030Y-97831329D01*
X52490520Y-97809151D01*
X52503133Y-97788107D01*
X52517747Y-97768402D01*
X52534223Y-97750223D01*
X52552402Y-97733747D01*
X52572107Y-97719133D01*
X52593151Y-97706520D01*
X52615329Y-97696030D01*
X52638429Y-97687765D01*
X52662227Y-97681804D01*
X52686496Y-97678204D01*
X52711000Y-97677000D01*
X53461000Y-97677000D01*
X53485504Y-97678204D01*
X53485504Y-97678204D01*
G37*
D20*
X53086000Y-98552000D03*
D10*
G36*
X50685504Y-97678204D02*
X50709773Y-97681804D01*
X50733571Y-97687765D01*
X50756671Y-97696030D01*
X50778849Y-97706520D01*
X50799893Y-97719133D01*
X50819598Y-97733747D01*
X50837777Y-97750223D01*
X50854253Y-97768402D01*
X50868867Y-97788107D01*
X50881480Y-97809151D01*
X50891970Y-97831329D01*
X50900235Y-97854429D01*
X50906196Y-97878227D01*
X50909796Y-97902496D01*
X50911000Y-97927000D01*
X50911000Y-99177000D01*
X50909796Y-99201504D01*
X50906196Y-99225773D01*
X50900235Y-99249571D01*
X50891970Y-99272671D01*
X50881480Y-99294849D01*
X50868867Y-99315893D01*
X50854253Y-99335598D01*
X50837777Y-99353777D01*
X50819598Y-99370253D01*
X50799893Y-99384867D01*
X50778849Y-99397480D01*
X50756671Y-99407970D01*
X50733571Y-99416235D01*
X50709773Y-99422196D01*
X50685504Y-99425796D01*
X50661000Y-99427000D01*
X49911000Y-99427000D01*
X49886496Y-99425796D01*
X49862227Y-99422196D01*
X49838429Y-99416235D01*
X49815329Y-99407970D01*
X49793151Y-99397480D01*
X49772107Y-99384867D01*
X49752402Y-99370253D01*
X49734223Y-99353777D01*
X49717747Y-99335598D01*
X49703133Y-99315893D01*
X49690520Y-99294849D01*
X49680030Y-99272671D01*
X49671765Y-99249571D01*
X49665804Y-99225773D01*
X49662204Y-99201504D01*
X49661000Y-99177000D01*
X49661000Y-97927000D01*
X49662204Y-97902496D01*
X49665804Y-97878227D01*
X49671765Y-97854429D01*
X49680030Y-97831329D01*
X49690520Y-97809151D01*
X49703133Y-97788107D01*
X49717747Y-97768402D01*
X49734223Y-97750223D01*
X49752402Y-97733747D01*
X49772107Y-97719133D01*
X49793151Y-97706520D01*
X49815329Y-97696030D01*
X49838429Y-97687765D01*
X49862227Y-97681804D01*
X49886496Y-97678204D01*
X49911000Y-97677000D01*
X50661000Y-97677000D01*
X50685504Y-97678204D01*
X50685504Y-97678204D01*
G37*
D20*
X50286000Y-98552000D03*
G04 #@! TD*
D10*
G04 #@! TO.C,C2*
G36*
X53312142Y-89937674D02*
X53335803Y-89941184D01*
X53359007Y-89946996D01*
X53381529Y-89955054D01*
X53403153Y-89965282D01*
X53423670Y-89977579D01*
X53442883Y-89991829D01*
X53460607Y-90007893D01*
X53476671Y-90025617D01*
X53490921Y-90044830D01*
X53503218Y-90065347D01*
X53513446Y-90086971D01*
X53521504Y-90109493D01*
X53527316Y-90132697D01*
X53530826Y-90156358D01*
X53532000Y-90180250D01*
X53532000Y-90667750D01*
X53530826Y-90691642D01*
X53527316Y-90715303D01*
X53521504Y-90738507D01*
X53513446Y-90761029D01*
X53503218Y-90782653D01*
X53490921Y-90803170D01*
X53476671Y-90822383D01*
X53460607Y-90840107D01*
X53442883Y-90856171D01*
X53423670Y-90870421D01*
X53403153Y-90882718D01*
X53381529Y-90892946D01*
X53359007Y-90901004D01*
X53335803Y-90906816D01*
X53312142Y-90910326D01*
X53288250Y-90911500D01*
X52375750Y-90911500D01*
X52351858Y-90910326D01*
X52328197Y-90906816D01*
X52304993Y-90901004D01*
X52282471Y-90892946D01*
X52260847Y-90882718D01*
X52240330Y-90870421D01*
X52221117Y-90856171D01*
X52203393Y-90840107D01*
X52187329Y-90822383D01*
X52173079Y-90803170D01*
X52160782Y-90782653D01*
X52150554Y-90761029D01*
X52142496Y-90738507D01*
X52136684Y-90715303D01*
X52133174Y-90691642D01*
X52132000Y-90667750D01*
X52132000Y-90180250D01*
X52133174Y-90156358D01*
X52136684Y-90132697D01*
X52142496Y-90109493D01*
X52150554Y-90086971D01*
X52160782Y-90065347D01*
X52173079Y-90044830D01*
X52187329Y-90025617D01*
X52203393Y-90007893D01*
X52221117Y-89991829D01*
X52240330Y-89977579D01*
X52260847Y-89965282D01*
X52282471Y-89955054D01*
X52304993Y-89946996D01*
X52328197Y-89941184D01*
X52351858Y-89937674D01*
X52375750Y-89936500D01*
X53288250Y-89936500D01*
X53312142Y-89937674D01*
X53312142Y-89937674D01*
G37*
D21*
X52832000Y-90424000D03*
D10*
G36*
X53312142Y-91812674D02*
X53335803Y-91816184D01*
X53359007Y-91821996D01*
X53381529Y-91830054D01*
X53403153Y-91840282D01*
X53423670Y-91852579D01*
X53442883Y-91866829D01*
X53460607Y-91882893D01*
X53476671Y-91900617D01*
X53490921Y-91919830D01*
X53503218Y-91940347D01*
X53513446Y-91961971D01*
X53521504Y-91984493D01*
X53527316Y-92007697D01*
X53530826Y-92031358D01*
X53532000Y-92055250D01*
X53532000Y-92542750D01*
X53530826Y-92566642D01*
X53527316Y-92590303D01*
X53521504Y-92613507D01*
X53513446Y-92636029D01*
X53503218Y-92657653D01*
X53490921Y-92678170D01*
X53476671Y-92697383D01*
X53460607Y-92715107D01*
X53442883Y-92731171D01*
X53423670Y-92745421D01*
X53403153Y-92757718D01*
X53381529Y-92767946D01*
X53359007Y-92776004D01*
X53335803Y-92781816D01*
X53312142Y-92785326D01*
X53288250Y-92786500D01*
X52375750Y-92786500D01*
X52351858Y-92785326D01*
X52328197Y-92781816D01*
X52304993Y-92776004D01*
X52282471Y-92767946D01*
X52260847Y-92757718D01*
X52240330Y-92745421D01*
X52221117Y-92731171D01*
X52203393Y-92715107D01*
X52187329Y-92697383D01*
X52173079Y-92678170D01*
X52160782Y-92657653D01*
X52150554Y-92636029D01*
X52142496Y-92613507D01*
X52136684Y-92590303D01*
X52133174Y-92566642D01*
X52132000Y-92542750D01*
X52132000Y-92055250D01*
X52133174Y-92031358D01*
X52136684Y-92007697D01*
X52142496Y-91984493D01*
X52150554Y-91961971D01*
X52160782Y-91940347D01*
X52173079Y-91919830D01*
X52187329Y-91900617D01*
X52203393Y-91882893D01*
X52221117Y-91866829D01*
X52240330Y-91852579D01*
X52260847Y-91840282D01*
X52282471Y-91830054D01*
X52304993Y-91821996D01*
X52328197Y-91816184D01*
X52351858Y-91812674D01*
X52375750Y-91811500D01*
X53288250Y-91811500D01*
X53312142Y-91812674D01*
X53312142Y-91812674D01*
G37*
D21*
X52832000Y-92299000D03*
G04 #@! TD*
D10*
G04 #@! TO.C,C3*
G36*
X50010142Y-86508674D02*
X50033803Y-86512184D01*
X50057007Y-86517996D01*
X50079529Y-86526054D01*
X50101153Y-86536282D01*
X50121670Y-86548579D01*
X50140883Y-86562829D01*
X50158607Y-86578893D01*
X50174671Y-86596617D01*
X50188921Y-86615830D01*
X50201218Y-86636347D01*
X50211446Y-86657971D01*
X50219504Y-86680493D01*
X50225316Y-86703697D01*
X50228826Y-86727358D01*
X50230000Y-86751250D01*
X50230000Y-87238750D01*
X50228826Y-87262642D01*
X50225316Y-87286303D01*
X50219504Y-87309507D01*
X50211446Y-87332029D01*
X50201218Y-87353653D01*
X50188921Y-87374170D01*
X50174671Y-87393383D01*
X50158607Y-87411107D01*
X50140883Y-87427171D01*
X50121670Y-87441421D01*
X50101153Y-87453718D01*
X50079529Y-87463946D01*
X50057007Y-87472004D01*
X50033803Y-87477816D01*
X50010142Y-87481326D01*
X49986250Y-87482500D01*
X49073750Y-87482500D01*
X49049858Y-87481326D01*
X49026197Y-87477816D01*
X49002993Y-87472004D01*
X48980471Y-87463946D01*
X48958847Y-87453718D01*
X48938330Y-87441421D01*
X48919117Y-87427171D01*
X48901393Y-87411107D01*
X48885329Y-87393383D01*
X48871079Y-87374170D01*
X48858782Y-87353653D01*
X48848554Y-87332029D01*
X48840496Y-87309507D01*
X48834684Y-87286303D01*
X48831174Y-87262642D01*
X48830000Y-87238750D01*
X48830000Y-86751250D01*
X48831174Y-86727358D01*
X48834684Y-86703697D01*
X48840496Y-86680493D01*
X48848554Y-86657971D01*
X48858782Y-86636347D01*
X48871079Y-86615830D01*
X48885329Y-86596617D01*
X48901393Y-86578893D01*
X48919117Y-86562829D01*
X48938330Y-86548579D01*
X48958847Y-86536282D01*
X48980471Y-86526054D01*
X49002993Y-86517996D01*
X49026197Y-86512184D01*
X49049858Y-86508674D01*
X49073750Y-86507500D01*
X49986250Y-86507500D01*
X50010142Y-86508674D01*
X50010142Y-86508674D01*
G37*
D21*
X49530000Y-86995000D03*
D10*
G36*
X50010142Y-84633674D02*
X50033803Y-84637184D01*
X50057007Y-84642996D01*
X50079529Y-84651054D01*
X50101153Y-84661282D01*
X50121670Y-84673579D01*
X50140883Y-84687829D01*
X50158607Y-84703893D01*
X50174671Y-84721617D01*
X50188921Y-84740830D01*
X50201218Y-84761347D01*
X50211446Y-84782971D01*
X50219504Y-84805493D01*
X50225316Y-84828697D01*
X50228826Y-84852358D01*
X50230000Y-84876250D01*
X50230000Y-85363750D01*
X50228826Y-85387642D01*
X50225316Y-85411303D01*
X50219504Y-85434507D01*
X50211446Y-85457029D01*
X50201218Y-85478653D01*
X50188921Y-85499170D01*
X50174671Y-85518383D01*
X50158607Y-85536107D01*
X50140883Y-85552171D01*
X50121670Y-85566421D01*
X50101153Y-85578718D01*
X50079529Y-85588946D01*
X50057007Y-85597004D01*
X50033803Y-85602816D01*
X50010142Y-85606326D01*
X49986250Y-85607500D01*
X49073750Y-85607500D01*
X49049858Y-85606326D01*
X49026197Y-85602816D01*
X49002993Y-85597004D01*
X48980471Y-85588946D01*
X48958847Y-85578718D01*
X48938330Y-85566421D01*
X48919117Y-85552171D01*
X48901393Y-85536107D01*
X48885329Y-85518383D01*
X48871079Y-85499170D01*
X48858782Y-85478653D01*
X48848554Y-85457029D01*
X48840496Y-85434507D01*
X48834684Y-85411303D01*
X48831174Y-85387642D01*
X48830000Y-85363750D01*
X48830000Y-84876250D01*
X48831174Y-84852358D01*
X48834684Y-84828697D01*
X48840496Y-84805493D01*
X48848554Y-84782971D01*
X48858782Y-84761347D01*
X48871079Y-84740830D01*
X48885329Y-84721617D01*
X48901393Y-84703893D01*
X48919117Y-84687829D01*
X48938330Y-84673579D01*
X48958847Y-84661282D01*
X48980471Y-84651054D01*
X49002993Y-84642996D01*
X49026197Y-84637184D01*
X49049858Y-84633674D01*
X49073750Y-84632500D01*
X49986250Y-84632500D01*
X50010142Y-84633674D01*
X50010142Y-84633674D01*
G37*
D21*
X49530000Y-85120000D03*
G04 #@! TD*
D10*
G04 #@! TO.C,C4*
G36*
X53353642Y-95313174D02*
X53377303Y-95316684D01*
X53400507Y-95322496D01*
X53423029Y-95330554D01*
X53444653Y-95340782D01*
X53465170Y-95353079D01*
X53484383Y-95367329D01*
X53502107Y-95383393D01*
X53518171Y-95401117D01*
X53532421Y-95420330D01*
X53544718Y-95440847D01*
X53554946Y-95462471D01*
X53563004Y-95484993D01*
X53568816Y-95508197D01*
X53572326Y-95531858D01*
X53573500Y-95555750D01*
X53573500Y-96468250D01*
X53572326Y-96492142D01*
X53568816Y-96515803D01*
X53563004Y-96539007D01*
X53554946Y-96561529D01*
X53544718Y-96583153D01*
X53532421Y-96603670D01*
X53518171Y-96622883D01*
X53502107Y-96640607D01*
X53484383Y-96656671D01*
X53465170Y-96670921D01*
X53444653Y-96683218D01*
X53423029Y-96693446D01*
X53400507Y-96701504D01*
X53377303Y-96707316D01*
X53353642Y-96710826D01*
X53329750Y-96712000D01*
X52842250Y-96712000D01*
X52818358Y-96710826D01*
X52794697Y-96707316D01*
X52771493Y-96701504D01*
X52748971Y-96693446D01*
X52727347Y-96683218D01*
X52706830Y-96670921D01*
X52687617Y-96656671D01*
X52669893Y-96640607D01*
X52653829Y-96622883D01*
X52639579Y-96603670D01*
X52627282Y-96583153D01*
X52617054Y-96561529D01*
X52608996Y-96539007D01*
X52603184Y-96515803D01*
X52599674Y-96492142D01*
X52598500Y-96468250D01*
X52598500Y-95555750D01*
X52599674Y-95531858D01*
X52603184Y-95508197D01*
X52608996Y-95484993D01*
X52617054Y-95462471D01*
X52627282Y-95440847D01*
X52639579Y-95420330D01*
X52653829Y-95401117D01*
X52669893Y-95383393D01*
X52687617Y-95367329D01*
X52706830Y-95353079D01*
X52727347Y-95340782D01*
X52748971Y-95330554D01*
X52771493Y-95322496D01*
X52794697Y-95316684D01*
X52818358Y-95313174D01*
X52842250Y-95312000D01*
X53329750Y-95312000D01*
X53353642Y-95313174D01*
X53353642Y-95313174D01*
G37*
D21*
X53086000Y-96012000D03*
D10*
G36*
X51478642Y-95313174D02*
X51502303Y-95316684D01*
X51525507Y-95322496D01*
X51548029Y-95330554D01*
X51569653Y-95340782D01*
X51590170Y-95353079D01*
X51609383Y-95367329D01*
X51627107Y-95383393D01*
X51643171Y-95401117D01*
X51657421Y-95420330D01*
X51669718Y-95440847D01*
X51679946Y-95462471D01*
X51688004Y-95484993D01*
X51693816Y-95508197D01*
X51697326Y-95531858D01*
X51698500Y-95555750D01*
X51698500Y-96468250D01*
X51697326Y-96492142D01*
X51693816Y-96515803D01*
X51688004Y-96539007D01*
X51679946Y-96561529D01*
X51669718Y-96583153D01*
X51657421Y-96603670D01*
X51643171Y-96622883D01*
X51627107Y-96640607D01*
X51609383Y-96656671D01*
X51590170Y-96670921D01*
X51569653Y-96683218D01*
X51548029Y-96693446D01*
X51525507Y-96701504D01*
X51502303Y-96707316D01*
X51478642Y-96710826D01*
X51454750Y-96712000D01*
X50967250Y-96712000D01*
X50943358Y-96710826D01*
X50919697Y-96707316D01*
X50896493Y-96701504D01*
X50873971Y-96693446D01*
X50852347Y-96683218D01*
X50831830Y-96670921D01*
X50812617Y-96656671D01*
X50794893Y-96640607D01*
X50778829Y-96622883D01*
X50764579Y-96603670D01*
X50752282Y-96583153D01*
X50742054Y-96561529D01*
X50733996Y-96539007D01*
X50728184Y-96515803D01*
X50724674Y-96492142D01*
X50723500Y-96468250D01*
X50723500Y-95555750D01*
X50724674Y-95531858D01*
X50728184Y-95508197D01*
X50733996Y-95484993D01*
X50742054Y-95462471D01*
X50752282Y-95440847D01*
X50764579Y-95420330D01*
X50778829Y-95401117D01*
X50794893Y-95383393D01*
X50812617Y-95367329D01*
X50831830Y-95353079D01*
X50852347Y-95340782D01*
X50873971Y-95330554D01*
X50896493Y-95322496D01*
X50919697Y-95316684D01*
X50943358Y-95313174D01*
X50967250Y-95312000D01*
X51454750Y-95312000D01*
X51478642Y-95313174D01*
X51478642Y-95313174D01*
G37*
D21*
X51211000Y-96012000D03*
G04 #@! TD*
D10*
G04 #@! TO.C,C5*
G36*
X49553691Y-81351553D02*
X49574926Y-81354703D01*
X49595750Y-81359919D01*
X49615962Y-81367151D01*
X49635368Y-81376330D01*
X49653781Y-81387366D01*
X49671024Y-81400154D01*
X49686930Y-81414570D01*
X49701346Y-81430476D01*
X49714134Y-81447719D01*
X49725170Y-81466132D01*
X49734349Y-81485538D01*
X49741581Y-81505750D01*
X49746797Y-81526574D01*
X49749947Y-81547809D01*
X49751000Y-81569250D01*
X49751000Y-82006750D01*
X49749947Y-82028191D01*
X49746797Y-82049426D01*
X49741581Y-82070250D01*
X49734349Y-82090462D01*
X49725170Y-82109868D01*
X49714134Y-82128281D01*
X49701346Y-82145524D01*
X49686930Y-82161430D01*
X49671024Y-82175846D01*
X49653781Y-82188634D01*
X49635368Y-82199670D01*
X49615962Y-82208849D01*
X49595750Y-82216081D01*
X49574926Y-82221297D01*
X49553691Y-82224447D01*
X49532250Y-82225500D01*
X49019750Y-82225500D01*
X48998309Y-82224447D01*
X48977074Y-82221297D01*
X48956250Y-82216081D01*
X48936038Y-82208849D01*
X48916632Y-82199670D01*
X48898219Y-82188634D01*
X48880976Y-82175846D01*
X48865070Y-82161430D01*
X48850654Y-82145524D01*
X48837866Y-82128281D01*
X48826830Y-82109868D01*
X48817651Y-82090462D01*
X48810419Y-82070250D01*
X48805203Y-82049426D01*
X48802053Y-82028191D01*
X48801000Y-82006750D01*
X48801000Y-81569250D01*
X48802053Y-81547809D01*
X48805203Y-81526574D01*
X48810419Y-81505750D01*
X48817651Y-81485538D01*
X48826830Y-81466132D01*
X48837866Y-81447719D01*
X48850654Y-81430476D01*
X48865070Y-81414570D01*
X48880976Y-81400154D01*
X48898219Y-81387366D01*
X48916632Y-81376330D01*
X48936038Y-81367151D01*
X48956250Y-81359919D01*
X48977074Y-81354703D01*
X48998309Y-81351553D01*
X49019750Y-81350500D01*
X49532250Y-81350500D01*
X49553691Y-81351553D01*
X49553691Y-81351553D01*
G37*
D19*
X49276000Y-81788000D03*
D10*
G36*
X49553691Y-82926553D02*
X49574926Y-82929703D01*
X49595750Y-82934919D01*
X49615962Y-82942151D01*
X49635368Y-82951330D01*
X49653781Y-82962366D01*
X49671024Y-82975154D01*
X49686930Y-82989570D01*
X49701346Y-83005476D01*
X49714134Y-83022719D01*
X49725170Y-83041132D01*
X49734349Y-83060538D01*
X49741581Y-83080750D01*
X49746797Y-83101574D01*
X49749947Y-83122809D01*
X49751000Y-83144250D01*
X49751000Y-83581750D01*
X49749947Y-83603191D01*
X49746797Y-83624426D01*
X49741581Y-83645250D01*
X49734349Y-83665462D01*
X49725170Y-83684868D01*
X49714134Y-83703281D01*
X49701346Y-83720524D01*
X49686930Y-83736430D01*
X49671024Y-83750846D01*
X49653781Y-83763634D01*
X49635368Y-83774670D01*
X49615962Y-83783849D01*
X49595750Y-83791081D01*
X49574926Y-83796297D01*
X49553691Y-83799447D01*
X49532250Y-83800500D01*
X49019750Y-83800500D01*
X48998309Y-83799447D01*
X48977074Y-83796297D01*
X48956250Y-83791081D01*
X48936038Y-83783849D01*
X48916632Y-83774670D01*
X48898219Y-83763634D01*
X48880976Y-83750846D01*
X48865070Y-83736430D01*
X48850654Y-83720524D01*
X48837866Y-83703281D01*
X48826830Y-83684868D01*
X48817651Y-83665462D01*
X48810419Y-83645250D01*
X48805203Y-83624426D01*
X48802053Y-83603191D01*
X48801000Y-83581750D01*
X48801000Y-83144250D01*
X48802053Y-83122809D01*
X48805203Y-83101574D01*
X48810419Y-83080750D01*
X48817651Y-83060538D01*
X48826830Y-83041132D01*
X48837866Y-83022719D01*
X48850654Y-83005476D01*
X48865070Y-82989570D01*
X48880976Y-82975154D01*
X48898219Y-82962366D01*
X48916632Y-82951330D01*
X48936038Y-82942151D01*
X48956250Y-82934919D01*
X48977074Y-82929703D01*
X48998309Y-82926553D01*
X49019750Y-82925500D01*
X49532250Y-82925500D01*
X49553691Y-82926553D01*
X49553691Y-82926553D01*
G37*
D19*
X49276000Y-83363000D03*
G04 #@! TD*
D10*
G04 #@! TO.C,C6*
G36*
X74577642Y-94995674D02*
X74601303Y-94999184D01*
X74624507Y-95004996D01*
X74647029Y-95013054D01*
X74668653Y-95023282D01*
X74689170Y-95035579D01*
X74708383Y-95049829D01*
X74726107Y-95065893D01*
X74742171Y-95083617D01*
X74756421Y-95102830D01*
X74768718Y-95123347D01*
X74778946Y-95144971D01*
X74787004Y-95167493D01*
X74792816Y-95190697D01*
X74796326Y-95214358D01*
X74797500Y-95238250D01*
X74797500Y-96150750D01*
X74796326Y-96174642D01*
X74792816Y-96198303D01*
X74787004Y-96221507D01*
X74778946Y-96244029D01*
X74768718Y-96265653D01*
X74756421Y-96286170D01*
X74742171Y-96305383D01*
X74726107Y-96323107D01*
X74708383Y-96339171D01*
X74689170Y-96353421D01*
X74668653Y-96365718D01*
X74647029Y-96375946D01*
X74624507Y-96384004D01*
X74601303Y-96389816D01*
X74577642Y-96393326D01*
X74553750Y-96394500D01*
X74066250Y-96394500D01*
X74042358Y-96393326D01*
X74018697Y-96389816D01*
X73995493Y-96384004D01*
X73972971Y-96375946D01*
X73951347Y-96365718D01*
X73930830Y-96353421D01*
X73911617Y-96339171D01*
X73893893Y-96323107D01*
X73877829Y-96305383D01*
X73863579Y-96286170D01*
X73851282Y-96265653D01*
X73841054Y-96244029D01*
X73832996Y-96221507D01*
X73827184Y-96198303D01*
X73823674Y-96174642D01*
X73822500Y-96150750D01*
X73822500Y-95238250D01*
X73823674Y-95214358D01*
X73827184Y-95190697D01*
X73832996Y-95167493D01*
X73841054Y-95144971D01*
X73851282Y-95123347D01*
X73863579Y-95102830D01*
X73877829Y-95083617D01*
X73893893Y-95065893D01*
X73911617Y-95049829D01*
X73930830Y-95035579D01*
X73951347Y-95023282D01*
X73972971Y-95013054D01*
X73995493Y-95004996D01*
X74018697Y-94999184D01*
X74042358Y-94995674D01*
X74066250Y-94994500D01*
X74553750Y-94994500D01*
X74577642Y-94995674D01*
X74577642Y-94995674D01*
G37*
D21*
X74310000Y-95694500D03*
D10*
G36*
X76452642Y-94995674D02*
X76476303Y-94999184D01*
X76499507Y-95004996D01*
X76522029Y-95013054D01*
X76543653Y-95023282D01*
X76564170Y-95035579D01*
X76583383Y-95049829D01*
X76601107Y-95065893D01*
X76617171Y-95083617D01*
X76631421Y-95102830D01*
X76643718Y-95123347D01*
X76653946Y-95144971D01*
X76662004Y-95167493D01*
X76667816Y-95190697D01*
X76671326Y-95214358D01*
X76672500Y-95238250D01*
X76672500Y-96150750D01*
X76671326Y-96174642D01*
X76667816Y-96198303D01*
X76662004Y-96221507D01*
X76653946Y-96244029D01*
X76643718Y-96265653D01*
X76631421Y-96286170D01*
X76617171Y-96305383D01*
X76601107Y-96323107D01*
X76583383Y-96339171D01*
X76564170Y-96353421D01*
X76543653Y-96365718D01*
X76522029Y-96375946D01*
X76499507Y-96384004D01*
X76476303Y-96389816D01*
X76452642Y-96393326D01*
X76428750Y-96394500D01*
X75941250Y-96394500D01*
X75917358Y-96393326D01*
X75893697Y-96389816D01*
X75870493Y-96384004D01*
X75847971Y-96375946D01*
X75826347Y-96365718D01*
X75805830Y-96353421D01*
X75786617Y-96339171D01*
X75768893Y-96323107D01*
X75752829Y-96305383D01*
X75738579Y-96286170D01*
X75726282Y-96265653D01*
X75716054Y-96244029D01*
X75707996Y-96221507D01*
X75702184Y-96198303D01*
X75698674Y-96174642D01*
X75697500Y-96150750D01*
X75697500Y-95238250D01*
X75698674Y-95214358D01*
X75702184Y-95190697D01*
X75707996Y-95167493D01*
X75716054Y-95144971D01*
X75726282Y-95123347D01*
X75738579Y-95102830D01*
X75752829Y-95083617D01*
X75768893Y-95065893D01*
X75786617Y-95049829D01*
X75805830Y-95035579D01*
X75826347Y-95023282D01*
X75847971Y-95013054D01*
X75870493Y-95004996D01*
X75893697Y-94999184D01*
X75917358Y-94995674D01*
X75941250Y-94994500D01*
X76428750Y-94994500D01*
X76452642Y-94995674D01*
X76452642Y-94995674D01*
G37*
D21*
X76185000Y-95694500D03*
G04 #@! TD*
D10*
G04 #@! TO.C,C7*
G36*
X76691642Y-83121174D02*
X76715303Y-83124684D01*
X76738507Y-83130496D01*
X76761029Y-83138554D01*
X76782653Y-83148782D01*
X76803170Y-83161079D01*
X76822383Y-83175329D01*
X76840107Y-83191393D01*
X76856171Y-83209117D01*
X76870421Y-83228330D01*
X76882718Y-83248847D01*
X76892946Y-83270471D01*
X76901004Y-83292993D01*
X76906816Y-83316197D01*
X76910326Y-83339858D01*
X76911500Y-83363750D01*
X76911500Y-84276250D01*
X76910326Y-84300142D01*
X76906816Y-84323803D01*
X76901004Y-84347007D01*
X76892946Y-84369529D01*
X76882718Y-84391153D01*
X76870421Y-84411670D01*
X76856171Y-84430883D01*
X76840107Y-84448607D01*
X76822383Y-84464671D01*
X76803170Y-84478921D01*
X76782653Y-84491218D01*
X76761029Y-84501446D01*
X76738507Y-84509504D01*
X76715303Y-84515316D01*
X76691642Y-84518826D01*
X76667750Y-84520000D01*
X76180250Y-84520000D01*
X76156358Y-84518826D01*
X76132697Y-84515316D01*
X76109493Y-84509504D01*
X76086971Y-84501446D01*
X76065347Y-84491218D01*
X76044830Y-84478921D01*
X76025617Y-84464671D01*
X76007893Y-84448607D01*
X75991829Y-84430883D01*
X75977579Y-84411670D01*
X75965282Y-84391153D01*
X75955054Y-84369529D01*
X75946996Y-84347007D01*
X75941184Y-84323803D01*
X75937674Y-84300142D01*
X75936500Y-84276250D01*
X75936500Y-83363750D01*
X75937674Y-83339858D01*
X75941184Y-83316197D01*
X75946996Y-83292993D01*
X75955054Y-83270471D01*
X75965282Y-83248847D01*
X75977579Y-83228330D01*
X75991829Y-83209117D01*
X76007893Y-83191393D01*
X76025617Y-83175329D01*
X76044830Y-83161079D01*
X76065347Y-83148782D01*
X76086971Y-83138554D01*
X76109493Y-83130496D01*
X76132697Y-83124684D01*
X76156358Y-83121174D01*
X76180250Y-83120000D01*
X76667750Y-83120000D01*
X76691642Y-83121174D01*
X76691642Y-83121174D01*
G37*
D21*
X76424000Y-83820000D03*
D10*
G36*
X74816642Y-83121174D02*
X74840303Y-83124684D01*
X74863507Y-83130496D01*
X74886029Y-83138554D01*
X74907653Y-83148782D01*
X74928170Y-83161079D01*
X74947383Y-83175329D01*
X74965107Y-83191393D01*
X74981171Y-83209117D01*
X74995421Y-83228330D01*
X75007718Y-83248847D01*
X75017946Y-83270471D01*
X75026004Y-83292993D01*
X75031816Y-83316197D01*
X75035326Y-83339858D01*
X75036500Y-83363750D01*
X75036500Y-84276250D01*
X75035326Y-84300142D01*
X75031816Y-84323803D01*
X75026004Y-84347007D01*
X75017946Y-84369529D01*
X75007718Y-84391153D01*
X74995421Y-84411670D01*
X74981171Y-84430883D01*
X74965107Y-84448607D01*
X74947383Y-84464671D01*
X74928170Y-84478921D01*
X74907653Y-84491218D01*
X74886029Y-84501446D01*
X74863507Y-84509504D01*
X74840303Y-84515316D01*
X74816642Y-84518826D01*
X74792750Y-84520000D01*
X74305250Y-84520000D01*
X74281358Y-84518826D01*
X74257697Y-84515316D01*
X74234493Y-84509504D01*
X74211971Y-84501446D01*
X74190347Y-84491218D01*
X74169830Y-84478921D01*
X74150617Y-84464671D01*
X74132893Y-84448607D01*
X74116829Y-84430883D01*
X74102579Y-84411670D01*
X74090282Y-84391153D01*
X74080054Y-84369529D01*
X74071996Y-84347007D01*
X74066184Y-84323803D01*
X74062674Y-84300142D01*
X74061500Y-84276250D01*
X74061500Y-83363750D01*
X74062674Y-83339858D01*
X74066184Y-83316197D01*
X74071996Y-83292993D01*
X74080054Y-83270471D01*
X74090282Y-83248847D01*
X74102579Y-83228330D01*
X74116829Y-83209117D01*
X74132893Y-83191393D01*
X74150617Y-83175329D01*
X74169830Y-83161079D01*
X74190347Y-83148782D01*
X74211971Y-83138554D01*
X74234493Y-83130496D01*
X74257697Y-83124684D01*
X74281358Y-83121174D01*
X74305250Y-83120000D01*
X74792750Y-83120000D01*
X74816642Y-83121174D01*
X74816642Y-83121174D01*
G37*
D21*
X74549000Y-83820000D03*
G04 #@! TD*
D10*
G04 #@! TO.C,C8*
G36*
X56296642Y-74540674D02*
X56320303Y-74544184D01*
X56343507Y-74549996D01*
X56366029Y-74558054D01*
X56387653Y-74568282D01*
X56408170Y-74580579D01*
X56427383Y-74594829D01*
X56445107Y-74610893D01*
X56461171Y-74628617D01*
X56475421Y-74647830D01*
X56487718Y-74668347D01*
X56497946Y-74689971D01*
X56506004Y-74712493D01*
X56511816Y-74735697D01*
X56515326Y-74759358D01*
X56516500Y-74783250D01*
X56516500Y-75270750D01*
X56515326Y-75294642D01*
X56511816Y-75318303D01*
X56506004Y-75341507D01*
X56497946Y-75364029D01*
X56487718Y-75385653D01*
X56475421Y-75406170D01*
X56461171Y-75425383D01*
X56445107Y-75443107D01*
X56427383Y-75459171D01*
X56408170Y-75473421D01*
X56387653Y-75485718D01*
X56366029Y-75495946D01*
X56343507Y-75504004D01*
X56320303Y-75509816D01*
X56296642Y-75513326D01*
X56272750Y-75514500D01*
X55360250Y-75514500D01*
X55336358Y-75513326D01*
X55312697Y-75509816D01*
X55289493Y-75504004D01*
X55266971Y-75495946D01*
X55245347Y-75485718D01*
X55224830Y-75473421D01*
X55205617Y-75459171D01*
X55187893Y-75443107D01*
X55171829Y-75425383D01*
X55157579Y-75406170D01*
X55145282Y-75385653D01*
X55135054Y-75364029D01*
X55126996Y-75341507D01*
X55121184Y-75318303D01*
X55117674Y-75294642D01*
X55116500Y-75270750D01*
X55116500Y-74783250D01*
X55117674Y-74759358D01*
X55121184Y-74735697D01*
X55126996Y-74712493D01*
X55135054Y-74689971D01*
X55145282Y-74668347D01*
X55157579Y-74647830D01*
X55171829Y-74628617D01*
X55187893Y-74610893D01*
X55205617Y-74594829D01*
X55224830Y-74580579D01*
X55245347Y-74568282D01*
X55266971Y-74558054D01*
X55289493Y-74549996D01*
X55312697Y-74544184D01*
X55336358Y-74540674D01*
X55360250Y-74539500D01*
X56272750Y-74539500D01*
X56296642Y-74540674D01*
X56296642Y-74540674D01*
G37*
D21*
X55816500Y-75027000D03*
D10*
G36*
X56296642Y-72665674D02*
X56320303Y-72669184D01*
X56343507Y-72674996D01*
X56366029Y-72683054D01*
X56387653Y-72693282D01*
X56408170Y-72705579D01*
X56427383Y-72719829D01*
X56445107Y-72735893D01*
X56461171Y-72753617D01*
X56475421Y-72772830D01*
X56487718Y-72793347D01*
X56497946Y-72814971D01*
X56506004Y-72837493D01*
X56511816Y-72860697D01*
X56515326Y-72884358D01*
X56516500Y-72908250D01*
X56516500Y-73395750D01*
X56515326Y-73419642D01*
X56511816Y-73443303D01*
X56506004Y-73466507D01*
X56497946Y-73489029D01*
X56487718Y-73510653D01*
X56475421Y-73531170D01*
X56461171Y-73550383D01*
X56445107Y-73568107D01*
X56427383Y-73584171D01*
X56408170Y-73598421D01*
X56387653Y-73610718D01*
X56366029Y-73620946D01*
X56343507Y-73629004D01*
X56320303Y-73634816D01*
X56296642Y-73638326D01*
X56272750Y-73639500D01*
X55360250Y-73639500D01*
X55336358Y-73638326D01*
X55312697Y-73634816D01*
X55289493Y-73629004D01*
X55266971Y-73620946D01*
X55245347Y-73610718D01*
X55224830Y-73598421D01*
X55205617Y-73584171D01*
X55187893Y-73568107D01*
X55171829Y-73550383D01*
X55157579Y-73531170D01*
X55145282Y-73510653D01*
X55135054Y-73489029D01*
X55126996Y-73466507D01*
X55121184Y-73443303D01*
X55117674Y-73419642D01*
X55116500Y-73395750D01*
X55116500Y-72908250D01*
X55117674Y-72884358D01*
X55121184Y-72860697D01*
X55126996Y-72837493D01*
X55135054Y-72814971D01*
X55145282Y-72793347D01*
X55157579Y-72772830D01*
X55171829Y-72753617D01*
X55187893Y-72735893D01*
X55205617Y-72719829D01*
X55224830Y-72705579D01*
X55245347Y-72693282D01*
X55266971Y-72683054D01*
X55289493Y-72674996D01*
X55312697Y-72669184D01*
X55336358Y-72665674D01*
X55360250Y-72664500D01*
X56272750Y-72664500D01*
X56296642Y-72665674D01*
X56296642Y-72665674D01*
G37*
D21*
X55816500Y-73152000D03*
G04 #@! TD*
D10*
G04 #@! TO.C,C9*
G36*
X52867642Y-111180174D02*
X52891303Y-111183684D01*
X52914507Y-111189496D01*
X52937029Y-111197554D01*
X52958653Y-111207782D01*
X52979170Y-111220079D01*
X52998383Y-111234329D01*
X53016107Y-111250393D01*
X53032171Y-111268117D01*
X53046421Y-111287330D01*
X53058718Y-111307847D01*
X53068946Y-111329471D01*
X53077004Y-111351993D01*
X53082816Y-111375197D01*
X53086326Y-111398858D01*
X53087500Y-111422750D01*
X53087500Y-111910250D01*
X53086326Y-111934142D01*
X53082816Y-111957803D01*
X53077004Y-111981007D01*
X53068946Y-112003529D01*
X53058718Y-112025153D01*
X53046421Y-112045670D01*
X53032171Y-112064883D01*
X53016107Y-112082607D01*
X52998383Y-112098671D01*
X52979170Y-112112921D01*
X52958653Y-112125218D01*
X52937029Y-112135446D01*
X52914507Y-112143504D01*
X52891303Y-112149316D01*
X52867642Y-112152826D01*
X52843750Y-112154000D01*
X51931250Y-112154000D01*
X51907358Y-112152826D01*
X51883697Y-112149316D01*
X51860493Y-112143504D01*
X51837971Y-112135446D01*
X51816347Y-112125218D01*
X51795830Y-112112921D01*
X51776617Y-112098671D01*
X51758893Y-112082607D01*
X51742829Y-112064883D01*
X51728579Y-112045670D01*
X51716282Y-112025153D01*
X51706054Y-112003529D01*
X51697996Y-111981007D01*
X51692184Y-111957803D01*
X51688674Y-111934142D01*
X51687500Y-111910250D01*
X51687500Y-111422750D01*
X51688674Y-111398858D01*
X51692184Y-111375197D01*
X51697996Y-111351993D01*
X51706054Y-111329471D01*
X51716282Y-111307847D01*
X51728579Y-111287330D01*
X51742829Y-111268117D01*
X51758893Y-111250393D01*
X51776617Y-111234329D01*
X51795830Y-111220079D01*
X51816347Y-111207782D01*
X51837971Y-111197554D01*
X51860493Y-111189496D01*
X51883697Y-111183684D01*
X51907358Y-111180174D01*
X51931250Y-111179000D01*
X52843750Y-111179000D01*
X52867642Y-111180174D01*
X52867642Y-111180174D01*
G37*
D21*
X52387500Y-111666500D03*
D10*
G36*
X52867642Y-109305174D02*
X52891303Y-109308684D01*
X52914507Y-109314496D01*
X52937029Y-109322554D01*
X52958653Y-109332782D01*
X52979170Y-109345079D01*
X52998383Y-109359329D01*
X53016107Y-109375393D01*
X53032171Y-109393117D01*
X53046421Y-109412330D01*
X53058718Y-109432847D01*
X53068946Y-109454471D01*
X53077004Y-109476993D01*
X53082816Y-109500197D01*
X53086326Y-109523858D01*
X53087500Y-109547750D01*
X53087500Y-110035250D01*
X53086326Y-110059142D01*
X53082816Y-110082803D01*
X53077004Y-110106007D01*
X53068946Y-110128529D01*
X53058718Y-110150153D01*
X53046421Y-110170670D01*
X53032171Y-110189883D01*
X53016107Y-110207607D01*
X52998383Y-110223671D01*
X52979170Y-110237921D01*
X52958653Y-110250218D01*
X52937029Y-110260446D01*
X52914507Y-110268504D01*
X52891303Y-110274316D01*
X52867642Y-110277826D01*
X52843750Y-110279000D01*
X51931250Y-110279000D01*
X51907358Y-110277826D01*
X51883697Y-110274316D01*
X51860493Y-110268504D01*
X51837971Y-110260446D01*
X51816347Y-110250218D01*
X51795830Y-110237921D01*
X51776617Y-110223671D01*
X51758893Y-110207607D01*
X51742829Y-110189883D01*
X51728579Y-110170670D01*
X51716282Y-110150153D01*
X51706054Y-110128529D01*
X51697996Y-110106007D01*
X51692184Y-110082803D01*
X51688674Y-110059142D01*
X51687500Y-110035250D01*
X51687500Y-109547750D01*
X51688674Y-109523858D01*
X51692184Y-109500197D01*
X51697996Y-109476993D01*
X51706054Y-109454471D01*
X51716282Y-109432847D01*
X51728579Y-109412330D01*
X51742829Y-109393117D01*
X51758893Y-109375393D01*
X51776617Y-109359329D01*
X51795830Y-109345079D01*
X51816347Y-109332782D01*
X51837971Y-109322554D01*
X51860493Y-109314496D01*
X51883697Y-109308684D01*
X51907358Y-109305174D01*
X51931250Y-109304000D01*
X52843750Y-109304000D01*
X52867642Y-109305174D01*
X52867642Y-109305174D01*
G37*
D21*
X52387500Y-109791500D03*
G04 #@! TD*
D10*
G04 #@! TO.C,C12*
G36*
X53326191Y-93506053D02*
X53347426Y-93509203D01*
X53368250Y-93514419D01*
X53388462Y-93521651D01*
X53407868Y-93530830D01*
X53426281Y-93541866D01*
X53443524Y-93554654D01*
X53459430Y-93569070D01*
X53473846Y-93584976D01*
X53486634Y-93602219D01*
X53497670Y-93620632D01*
X53506849Y-93640038D01*
X53514081Y-93660250D01*
X53519297Y-93681074D01*
X53522447Y-93702309D01*
X53523500Y-93723750D01*
X53523500Y-94236250D01*
X53522447Y-94257691D01*
X53519297Y-94278926D01*
X53514081Y-94299750D01*
X53506849Y-94319962D01*
X53497670Y-94339368D01*
X53486634Y-94357781D01*
X53473846Y-94375024D01*
X53459430Y-94390930D01*
X53443524Y-94405346D01*
X53426281Y-94418134D01*
X53407868Y-94429170D01*
X53388462Y-94438349D01*
X53368250Y-94445581D01*
X53347426Y-94450797D01*
X53326191Y-94453947D01*
X53304750Y-94455000D01*
X52867250Y-94455000D01*
X52845809Y-94453947D01*
X52824574Y-94450797D01*
X52803750Y-94445581D01*
X52783538Y-94438349D01*
X52764132Y-94429170D01*
X52745719Y-94418134D01*
X52728476Y-94405346D01*
X52712570Y-94390930D01*
X52698154Y-94375024D01*
X52685366Y-94357781D01*
X52674330Y-94339368D01*
X52665151Y-94319962D01*
X52657919Y-94299750D01*
X52652703Y-94278926D01*
X52649553Y-94257691D01*
X52648500Y-94236250D01*
X52648500Y-93723750D01*
X52649553Y-93702309D01*
X52652703Y-93681074D01*
X52657919Y-93660250D01*
X52665151Y-93640038D01*
X52674330Y-93620632D01*
X52685366Y-93602219D01*
X52698154Y-93584976D01*
X52712570Y-93569070D01*
X52728476Y-93554654D01*
X52745719Y-93541866D01*
X52764132Y-93530830D01*
X52783538Y-93521651D01*
X52803750Y-93514419D01*
X52824574Y-93509203D01*
X52845809Y-93506053D01*
X52867250Y-93505000D01*
X53304750Y-93505000D01*
X53326191Y-93506053D01*
X53326191Y-93506053D01*
G37*
D19*
X53086000Y-93980000D03*
D10*
G36*
X51751191Y-93506053D02*
X51772426Y-93509203D01*
X51793250Y-93514419D01*
X51813462Y-93521651D01*
X51832868Y-93530830D01*
X51851281Y-93541866D01*
X51868524Y-93554654D01*
X51884430Y-93569070D01*
X51898846Y-93584976D01*
X51911634Y-93602219D01*
X51922670Y-93620632D01*
X51931849Y-93640038D01*
X51939081Y-93660250D01*
X51944297Y-93681074D01*
X51947447Y-93702309D01*
X51948500Y-93723750D01*
X51948500Y-94236250D01*
X51947447Y-94257691D01*
X51944297Y-94278926D01*
X51939081Y-94299750D01*
X51931849Y-94319962D01*
X51922670Y-94339368D01*
X51911634Y-94357781D01*
X51898846Y-94375024D01*
X51884430Y-94390930D01*
X51868524Y-94405346D01*
X51851281Y-94418134D01*
X51832868Y-94429170D01*
X51813462Y-94438349D01*
X51793250Y-94445581D01*
X51772426Y-94450797D01*
X51751191Y-94453947D01*
X51729750Y-94455000D01*
X51292250Y-94455000D01*
X51270809Y-94453947D01*
X51249574Y-94450797D01*
X51228750Y-94445581D01*
X51208538Y-94438349D01*
X51189132Y-94429170D01*
X51170719Y-94418134D01*
X51153476Y-94405346D01*
X51137570Y-94390930D01*
X51123154Y-94375024D01*
X51110366Y-94357781D01*
X51099330Y-94339368D01*
X51090151Y-94319962D01*
X51082919Y-94299750D01*
X51077703Y-94278926D01*
X51074553Y-94257691D01*
X51073500Y-94236250D01*
X51073500Y-93723750D01*
X51074553Y-93702309D01*
X51077703Y-93681074D01*
X51082919Y-93660250D01*
X51090151Y-93640038D01*
X51099330Y-93620632D01*
X51110366Y-93602219D01*
X51123154Y-93584976D01*
X51137570Y-93569070D01*
X51153476Y-93554654D01*
X51170719Y-93541866D01*
X51189132Y-93530830D01*
X51208538Y-93521651D01*
X51228750Y-93514419D01*
X51249574Y-93509203D01*
X51270809Y-93506053D01*
X51292250Y-93505000D01*
X51729750Y-93505000D01*
X51751191Y-93506053D01*
X51751191Y-93506053D01*
G37*
D19*
X51511000Y-93980000D03*
G04 #@! TD*
D10*
G04 #@! TO.C,C13*
G36*
X50010142Y-88443674D02*
X50033803Y-88447184D01*
X50057007Y-88452996D01*
X50079529Y-88461054D01*
X50101153Y-88471282D01*
X50121670Y-88483579D01*
X50140883Y-88497829D01*
X50158607Y-88513893D01*
X50174671Y-88531617D01*
X50188921Y-88550830D01*
X50201218Y-88571347D01*
X50211446Y-88592971D01*
X50219504Y-88615493D01*
X50225316Y-88638697D01*
X50228826Y-88662358D01*
X50230000Y-88686250D01*
X50230000Y-89173750D01*
X50228826Y-89197642D01*
X50225316Y-89221303D01*
X50219504Y-89244507D01*
X50211446Y-89267029D01*
X50201218Y-89288653D01*
X50188921Y-89309170D01*
X50174671Y-89328383D01*
X50158607Y-89346107D01*
X50140883Y-89362171D01*
X50121670Y-89376421D01*
X50101153Y-89388718D01*
X50079529Y-89398946D01*
X50057007Y-89407004D01*
X50033803Y-89412816D01*
X50010142Y-89416326D01*
X49986250Y-89417500D01*
X49073750Y-89417500D01*
X49049858Y-89416326D01*
X49026197Y-89412816D01*
X49002993Y-89407004D01*
X48980471Y-89398946D01*
X48958847Y-89388718D01*
X48938330Y-89376421D01*
X48919117Y-89362171D01*
X48901393Y-89346107D01*
X48885329Y-89328383D01*
X48871079Y-89309170D01*
X48858782Y-89288653D01*
X48848554Y-89267029D01*
X48840496Y-89244507D01*
X48834684Y-89221303D01*
X48831174Y-89197642D01*
X48830000Y-89173750D01*
X48830000Y-88686250D01*
X48831174Y-88662358D01*
X48834684Y-88638697D01*
X48840496Y-88615493D01*
X48848554Y-88592971D01*
X48858782Y-88571347D01*
X48871079Y-88550830D01*
X48885329Y-88531617D01*
X48901393Y-88513893D01*
X48919117Y-88497829D01*
X48938330Y-88483579D01*
X48958847Y-88471282D01*
X48980471Y-88461054D01*
X49002993Y-88452996D01*
X49026197Y-88447184D01*
X49049858Y-88443674D01*
X49073750Y-88442500D01*
X49986250Y-88442500D01*
X50010142Y-88443674D01*
X50010142Y-88443674D01*
G37*
D21*
X49530000Y-88930000D03*
D10*
G36*
X50010142Y-90318674D02*
X50033803Y-90322184D01*
X50057007Y-90327996D01*
X50079529Y-90336054D01*
X50101153Y-90346282D01*
X50121670Y-90358579D01*
X50140883Y-90372829D01*
X50158607Y-90388893D01*
X50174671Y-90406617D01*
X50188921Y-90425830D01*
X50201218Y-90446347D01*
X50211446Y-90467971D01*
X50219504Y-90490493D01*
X50225316Y-90513697D01*
X50228826Y-90537358D01*
X50230000Y-90561250D01*
X50230000Y-91048750D01*
X50228826Y-91072642D01*
X50225316Y-91096303D01*
X50219504Y-91119507D01*
X50211446Y-91142029D01*
X50201218Y-91163653D01*
X50188921Y-91184170D01*
X50174671Y-91203383D01*
X50158607Y-91221107D01*
X50140883Y-91237171D01*
X50121670Y-91251421D01*
X50101153Y-91263718D01*
X50079529Y-91273946D01*
X50057007Y-91282004D01*
X50033803Y-91287816D01*
X50010142Y-91291326D01*
X49986250Y-91292500D01*
X49073750Y-91292500D01*
X49049858Y-91291326D01*
X49026197Y-91287816D01*
X49002993Y-91282004D01*
X48980471Y-91273946D01*
X48958847Y-91263718D01*
X48938330Y-91251421D01*
X48919117Y-91237171D01*
X48901393Y-91221107D01*
X48885329Y-91203383D01*
X48871079Y-91184170D01*
X48858782Y-91163653D01*
X48848554Y-91142029D01*
X48840496Y-91119507D01*
X48834684Y-91096303D01*
X48831174Y-91072642D01*
X48830000Y-91048750D01*
X48830000Y-90561250D01*
X48831174Y-90537358D01*
X48834684Y-90513697D01*
X48840496Y-90490493D01*
X48848554Y-90467971D01*
X48858782Y-90446347D01*
X48871079Y-90425830D01*
X48885329Y-90406617D01*
X48901393Y-90388893D01*
X48919117Y-90372829D01*
X48938330Y-90358579D01*
X48958847Y-90346282D01*
X48980471Y-90336054D01*
X49002993Y-90327996D01*
X49026197Y-90322184D01*
X49049858Y-90318674D01*
X49073750Y-90317500D01*
X49986250Y-90317500D01*
X50010142Y-90318674D01*
X50010142Y-90318674D01*
G37*
D21*
X49530000Y-90805000D03*
G04 #@! TD*
D10*
G04 #@! TO.C,C14*
G36*
X80414691Y-83688553D02*
X80435926Y-83691703D01*
X80456750Y-83696919D01*
X80476962Y-83704151D01*
X80496368Y-83713330D01*
X80514781Y-83724366D01*
X80532024Y-83737154D01*
X80547930Y-83751570D01*
X80562346Y-83767476D01*
X80575134Y-83784719D01*
X80586170Y-83803132D01*
X80595349Y-83822538D01*
X80602581Y-83842750D01*
X80607797Y-83863574D01*
X80610947Y-83884809D01*
X80612000Y-83906250D01*
X80612000Y-84343750D01*
X80610947Y-84365191D01*
X80607797Y-84386426D01*
X80602581Y-84407250D01*
X80595349Y-84427462D01*
X80586170Y-84446868D01*
X80575134Y-84465281D01*
X80562346Y-84482524D01*
X80547930Y-84498430D01*
X80532024Y-84512846D01*
X80514781Y-84525634D01*
X80496368Y-84536670D01*
X80476962Y-84545849D01*
X80456750Y-84553081D01*
X80435926Y-84558297D01*
X80414691Y-84561447D01*
X80393250Y-84562500D01*
X79880750Y-84562500D01*
X79859309Y-84561447D01*
X79838074Y-84558297D01*
X79817250Y-84553081D01*
X79797038Y-84545849D01*
X79777632Y-84536670D01*
X79759219Y-84525634D01*
X79741976Y-84512846D01*
X79726070Y-84498430D01*
X79711654Y-84482524D01*
X79698866Y-84465281D01*
X79687830Y-84446868D01*
X79678651Y-84427462D01*
X79671419Y-84407250D01*
X79666203Y-84386426D01*
X79663053Y-84365191D01*
X79662000Y-84343750D01*
X79662000Y-83906250D01*
X79663053Y-83884809D01*
X79666203Y-83863574D01*
X79671419Y-83842750D01*
X79678651Y-83822538D01*
X79687830Y-83803132D01*
X79698866Y-83784719D01*
X79711654Y-83767476D01*
X79726070Y-83751570D01*
X79741976Y-83737154D01*
X79759219Y-83724366D01*
X79777632Y-83713330D01*
X79797038Y-83704151D01*
X79817250Y-83696919D01*
X79838074Y-83691703D01*
X79859309Y-83688553D01*
X79880750Y-83687500D01*
X80393250Y-83687500D01*
X80414691Y-83688553D01*
X80414691Y-83688553D01*
G37*
D19*
X80137000Y-84125000D03*
D10*
G36*
X80414691Y-82113553D02*
X80435926Y-82116703D01*
X80456750Y-82121919D01*
X80476962Y-82129151D01*
X80496368Y-82138330D01*
X80514781Y-82149366D01*
X80532024Y-82162154D01*
X80547930Y-82176570D01*
X80562346Y-82192476D01*
X80575134Y-82209719D01*
X80586170Y-82228132D01*
X80595349Y-82247538D01*
X80602581Y-82267750D01*
X80607797Y-82288574D01*
X80610947Y-82309809D01*
X80612000Y-82331250D01*
X80612000Y-82768750D01*
X80610947Y-82790191D01*
X80607797Y-82811426D01*
X80602581Y-82832250D01*
X80595349Y-82852462D01*
X80586170Y-82871868D01*
X80575134Y-82890281D01*
X80562346Y-82907524D01*
X80547930Y-82923430D01*
X80532024Y-82937846D01*
X80514781Y-82950634D01*
X80496368Y-82961670D01*
X80476962Y-82970849D01*
X80456750Y-82978081D01*
X80435926Y-82983297D01*
X80414691Y-82986447D01*
X80393250Y-82987500D01*
X79880750Y-82987500D01*
X79859309Y-82986447D01*
X79838074Y-82983297D01*
X79817250Y-82978081D01*
X79797038Y-82970849D01*
X79777632Y-82961670D01*
X79759219Y-82950634D01*
X79741976Y-82937846D01*
X79726070Y-82923430D01*
X79711654Y-82907524D01*
X79698866Y-82890281D01*
X79687830Y-82871868D01*
X79678651Y-82852462D01*
X79671419Y-82832250D01*
X79666203Y-82811426D01*
X79663053Y-82790191D01*
X79662000Y-82768750D01*
X79662000Y-82331250D01*
X79663053Y-82309809D01*
X79666203Y-82288574D01*
X79671419Y-82267750D01*
X79678651Y-82247538D01*
X79687830Y-82228132D01*
X79698866Y-82209719D01*
X79711654Y-82192476D01*
X79726070Y-82176570D01*
X79741976Y-82162154D01*
X79759219Y-82149366D01*
X79777632Y-82138330D01*
X79797038Y-82129151D01*
X79817250Y-82121919D01*
X79838074Y-82116703D01*
X79859309Y-82113553D01*
X79880750Y-82112500D01*
X80393250Y-82112500D01*
X80414691Y-82113553D01*
X80414691Y-82113553D01*
G37*
D19*
X80137000Y-82550000D03*
G04 #@! TD*
D10*
G04 #@! TO.C,C15*
G36*
X101445142Y-65075674D02*
X101468803Y-65079184D01*
X101492007Y-65084996D01*
X101514529Y-65093054D01*
X101536153Y-65103282D01*
X101556670Y-65115579D01*
X101575883Y-65129829D01*
X101593607Y-65145893D01*
X101609671Y-65163617D01*
X101623921Y-65182830D01*
X101636218Y-65203347D01*
X101646446Y-65224971D01*
X101654504Y-65247493D01*
X101660316Y-65270697D01*
X101663826Y-65294358D01*
X101665000Y-65318250D01*
X101665000Y-65805750D01*
X101663826Y-65829642D01*
X101660316Y-65853303D01*
X101654504Y-65876507D01*
X101646446Y-65899029D01*
X101636218Y-65920653D01*
X101623921Y-65941170D01*
X101609671Y-65960383D01*
X101593607Y-65978107D01*
X101575883Y-65994171D01*
X101556670Y-66008421D01*
X101536153Y-66020718D01*
X101514529Y-66030946D01*
X101492007Y-66039004D01*
X101468803Y-66044816D01*
X101445142Y-66048326D01*
X101421250Y-66049500D01*
X100508750Y-66049500D01*
X100484858Y-66048326D01*
X100461197Y-66044816D01*
X100437993Y-66039004D01*
X100415471Y-66030946D01*
X100393847Y-66020718D01*
X100373330Y-66008421D01*
X100354117Y-65994171D01*
X100336393Y-65978107D01*
X100320329Y-65960383D01*
X100306079Y-65941170D01*
X100293782Y-65920653D01*
X100283554Y-65899029D01*
X100275496Y-65876507D01*
X100269684Y-65853303D01*
X100266174Y-65829642D01*
X100265000Y-65805750D01*
X100265000Y-65318250D01*
X100266174Y-65294358D01*
X100269684Y-65270697D01*
X100275496Y-65247493D01*
X100283554Y-65224971D01*
X100293782Y-65203347D01*
X100306079Y-65182830D01*
X100320329Y-65163617D01*
X100336393Y-65145893D01*
X100354117Y-65129829D01*
X100373330Y-65115579D01*
X100393847Y-65103282D01*
X100415471Y-65093054D01*
X100437993Y-65084996D01*
X100461197Y-65079184D01*
X100484858Y-65075674D01*
X100508750Y-65074500D01*
X101421250Y-65074500D01*
X101445142Y-65075674D01*
X101445142Y-65075674D01*
G37*
D21*
X100965000Y-65562000D03*
D10*
G36*
X101445142Y-66950674D02*
X101468803Y-66954184D01*
X101492007Y-66959996D01*
X101514529Y-66968054D01*
X101536153Y-66978282D01*
X101556670Y-66990579D01*
X101575883Y-67004829D01*
X101593607Y-67020893D01*
X101609671Y-67038617D01*
X101623921Y-67057830D01*
X101636218Y-67078347D01*
X101646446Y-67099971D01*
X101654504Y-67122493D01*
X101660316Y-67145697D01*
X101663826Y-67169358D01*
X101665000Y-67193250D01*
X101665000Y-67680750D01*
X101663826Y-67704642D01*
X101660316Y-67728303D01*
X101654504Y-67751507D01*
X101646446Y-67774029D01*
X101636218Y-67795653D01*
X101623921Y-67816170D01*
X101609671Y-67835383D01*
X101593607Y-67853107D01*
X101575883Y-67869171D01*
X101556670Y-67883421D01*
X101536153Y-67895718D01*
X101514529Y-67905946D01*
X101492007Y-67914004D01*
X101468803Y-67919816D01*
X101445142Y-67923326D01*
X101421250Y-67924500D01*
X100508750Y-67924500D01*
X100484858Y-67923326D01*
X100461197Y-67919816D01*
X100437993Y-67914004D01*
X100415471Y-67905946D01*
X100393847Y-67895718D01*
X100373330Y-67883421D01*
X100354117Y-67869171D01*
X100336393Y-67853107D01*
X100320329Y-67835383D01*
X100306079Y-67816170D01*
X100293782Y-67795653D01*
X100283554Y-67774029D01*
X100275496Y-67751507D01*
X100269684Y-67728303D01*
X100266174Y-67704642D01*
X100265000Y-67680750D01*
X100265000Y-67193250D01*
X100266174Y-67169358D01*
X100269684Y-67145697D01*
X100275496Y-67122493D01*
X100283554Y-67099971D01*
X100293782Y-67078347D01*
X100306079Y-67057830D01*
X100320329Y-67038617D01*
X100336393Y-67020893D01*
X100354117Y-67004829D01*
X100373330Y-66990579D01*
X100393847Y-66978282D01*
X100415471Y-66968054D01*
X100437993Y-66959996D01*
X100461197Y-66954184D01*
X100484858Y-66950674D01*
X100508750Y-66949500D01*
X101421250Y-66949500D01*
X101445142Y-66950674D01*
X101445142Y-66950674D01*
G37*
D21*
X100965000Y-67437000D03*
G04 #@! TD*
D10*
G04 #@! TO.C,C16*
G36*
X103274691Y-67000553D02*
X103295926Y-67003703D01*
X103316750Y-67008919D01*
X103336962Y-67016151D01*
X103356368Y-67025330D01*
X103374781Y-67036366D01*
X103392024Y-67049154D01*
X103407930Y-67063570D01*
X103422346Y-67079476D01*
X103435134Y-67096719D01*
X103446170Y-67115132D01*
X103455349Y-67134538D01*
X103462581Y-67154750D01*
X103467797Y-67175574D01*
X103470947Y-67196809D01*
X103472000Y-67218250D01*
X103472000Y-67655750D01*
X103470947Y-67677191D01*
X103467797Y-67698426D01*
X103462581Y-67719250D01*
X103455349Y-67739462D01*
X103446170Y-67758868D01*
X103435134Y-67777281D01*
X103422346Y-67794524D01*
X103407930Y-67810430D01*
X103392024Y-67824846D01*
X103374781Y-67837634D01*
X103356368Y-67848670D01*
X103336962Y-67857849D01*
X103316750Y-67865081D01*
X103295926Y-67870297D01*
X103274691Y-67873447D01*
X103253250Y-67874500D01*
X102740750Y-67874500D01*
X102719309Y-67873447D01*
X102698074Y-67870297D01*
X102677250Y-67865081D01*
X102657038Y-67857849D01*
X102637632Y-67848670D01*
X102619219Y-67837634D01*
X102601976Y-67824846D01*
X102586070Y-67810430D01*
X102571654Y-67794524D01*
X102558866Y-67777281D01*
X102547830Y-67758868D01*
X102538651Y-67739462D01*
X102531419Y-67719250D01*
X102526203Y-67698426D01*
X102523053Y-67677191D01*
X102522000Y-67655750D01*
X102522000Y-67218250D01*
X102523053Y-67196809D01*
X102526203Y-67175574D01*
X102531419Y-67154750D01*
X102538651Y-67134538D01*
X102547830Y-67115132D01*
X102558866Y-67096719D01*
X102571654Y-67079476D01*
X102586070Y-67063570D01*
X102601976Y-67049154D01*
X102619219Y-67036366D01*
X102637632Y-67025330D01*
X102657038Y-67016151D01*
X102677250Y-67008919D01*
X102698074Y-67003703D01*
X102719309Y-67000553D01*
X102740750Y-66999500D01*
X103253250Y-66999500D01*
X103274691Y-67000553D01*
X103274691Y-67000553D01*
G37*
D19*
X102997000Y-67437000D03*
D10*
G36*
X103274691Y-65425553D02*
X103295926Y-65428703D01*
X103316750Y-65433919D01*
X103336962Y-65441151D01*
X103356368Y-65450330D01*
X103374781Y-65461366D01*
X103392024Y-65474154D01*
X103407930Y-65488570D01*
X103422346Y-65504476D01*
X103435134Y-65521719D01*
X103446170Y-65540132D01*
X103455349Y-65559538D01*
X103462581Y-65579750D01*
X103467797Y-65600574D01*
X103470947Y-65621809D01*
X103472000Y-65643250D01*
X103472000Y-66080750D01*
X103470947Y-66102191D01*
X103467797Y-66123426D01*
X103462581Y-66144250D01*
X103455349Y-66164462D01*
X103446170Y-66183868D01*
X103435134Y-66202281D01*
X103422346Y-66219524D01*
X103407930Y-66235430D01*
X103392024Y-66249846D01*
X103374781Y-66262634D01*
X103356368Y-66273670D01*
X103336962Y-66282849D01*
X103316750Y-66290081D01*
X103295926Y-66295297D01*
X103274691Y-66298447D01*
X103253250Y-66299500D01*
X102740750Y-66299500D01*
X102719309Y-66298447D01*
X102698074Y-66295297D01*
X102677250Y-66290081D01*
X102657038Y-66282849D01*
X102637632Y-66273670D01*
X102619219Y-66262634D01*
X102601976Y-66249846D01*
X102586070Y-66235430D01*
X102571654Y-66219524D01*
X102558866Y-66202281D01*
X102547830Y-66183868D01*
X102538651Y-66164462D01*
X102531419Y-66144250D01*
X102526203Y-66123426D01*
X102523053Y-66102191D01*
X102522000Y-66080750D01*
X102522000Y-65643250D01*
X102523053Y-65621809D01*
X102526203Y-65600574D01*
X102531419Y-65579750D01*
X102538651Y-65559538D01*
X102547830Y-65540132D01*
X102558866Y-65521719D01*
X102571654Y-65504476D01*
X102586070Y-65488570D01*
X102601976Y-65474154D01*
X102619219Y-65461366D01*
X102637632Y-65450330D01*
X102657038Y-65441151D01*
X102677250Y-65433919D01*
X102698074Y-65428703D01*
X102719309Y-65425553D01*
X102740750Y-65424500D01*
X103253250Y-65424500D01*
X103274691Y-65425553D01*
X103274691Y-65425553D01*
G37*
D19*
X102997000Y-65862000D03*
G04 #@! TD*
D10*
G04 #@! TO.C,C17*
G36*
X96416691Y-67026053D02*
X96437926Y-67029203D01*
X96458750Y-67034419D01*
X96478962Y-67041651D01*
X96498368Y-67050830D01*
X96516781Y-67061866D01*
X96534024Y-67074654D01*
X96549930Y-67089070D01*
X96564346Y-67104976D01*
X96577134Y-67122219D01*
X96588170Y-67140632D01*
X96597349Y-67160038D01*
X96604581Y-67180250D01*
X96609797Y-67201074D01*
X96612947Y-67222309D01*
X96614000Y-67243750D01*
X96614000Y-67681250D01*
X96612947Y-67702691D01*
X96609797Y-67723926D01*
X96604581Y-67744750D01*
X96597349Y-67764962D01*
X96588170Y-67784368D01*
X96577134Y-67802781D01*
X96564346Y-67820024D01*
X96549930Y-67835930D01*
X96534024Y-67850346D01*
X96516781Y-67863134D01*
X96498368Y-67874170D01*
X96478962Y-67883349D01*
X96458750Y-67890581D01*
X96437926Y-67895797D01*
X96416691Y-67898947D01*
X96395250Y-67900000D01*
X95882750Y-67900000D01*
X95861309Y-67898947D01*
X95840074Y-67895797D01*
X95819250Y-67890581D01*
X95799038Y-67883349D01*
X95779632Y-67874170D01*
X95761219Y-67863134D01*
X95743976Y-67850346D01*
X95728070Y-67835930D01*
X95713654Y-67820024D01*
X95700866Y-67802781D01*
X95689830Y-67784368D01*
X95680651Y-67764962D01*
X95673419Y-67744750D01*
X95668203Y-67723926D01*
X95665053Y-67702691D01*
X95664000Y-67681250D01*
X95664000Y-67243750D01*
X95665053Y-67222309D01*
X95668203Y-67201074D01*
X95673419Y-67180250D01*
X95680651Y-67160038D01*
X95689830Y-67140632D01*
X95700866Y-67122219D01*
X95713654Y-67104976D01*
X95728070Y-67089070D01*
X95743976Y-67074654D01*
X95761219Y-67061866D01*
X95779632Y-67050830D01*
X95799038Y-67041651D01*
X95819250Y-67034419D01*
X95840074Y-67029203D01*
X95861309Y-67026053D01*
X95882750Y-67025000D01*
X96395250Y-67025000D01*
X96416691Y-67026053D01*
X96416691Y-67026053D01*
G37*
D19*
X96139000Y-67462500D03*
D10*
G36*
X96416691Y-65451053D02*
X96437926Y-65454203D01*
X96458750Y-65459419D01*
X96478962Y-65466651D01*
X96498368Y-65475830D01*
X96516781Y-65486866D01*
X96534024Y-65499654D01*
X96549930Y-65514070D01*
X96564346Y-65529976D01*
X96577134Y-65547219D01*
X96588170Y-65565632D01*
X96597349Y-65585038D01*
X96604581Y-65605250D01*
X96609797Y-65626074D01*
X96612947Y-65647309D01*
X96614000Y-65668750D01*
X96614000Y-66106250D01*
X96612947Y-66127691D01*
X96609797Y-66148926D01*
X96604581Y-66169750D01*
X96597349Y-66189962D01*
X96588170Y-66209368D01*
X96577134Y-66227781D01*
X96564346Y-66245024D01*
X96549930Y-66260930D01*
X96534024Y-66275346D01*
X96516781Y-66288134D01*
X96498368Y-66299170D01*
X96478962Y-66308349D01*
X96458750Y-66315581D01*
X96437926Y-66320797D01*
X96416691Y-66323947D01*
X96395250Y-66325000D01*
X95882750Y-66325000D01*
X95861309Y-66323947D01*
X95840074Y-66320797D01*
X95819250Y-66315581D01*
X95799038Y-66308349D01*
X95779632Y-66299170D01*
X95761219Y-66288134D01*
X95743976Y-66275346D01*
X95728070Y-66260930D01*
X95713654Y-66245024D01*
X95700866Y-66227781D01*
X95689830Y-66209368D01*
X95680651Y-66189962D01*
X95673419Y-66169750D01*
X95668203Y-66148926D01*
X95665053Y-66127691D01*
X95664000Y-66106250D01*
X95664000Y-65668750D01*
X95665053Y-65647309D01*
X95668203Y-65626074D01*
X95673419Y-65605250D01*
X95680651Y-65585038D01*
X95689830Y-65565632D01*
X95700866Y-65547219D01*
X95713654Y-65529976D01*
X95728070Y-65514070D01*
X95743976Y-65499654D01*
X95761219Y-65486866D01*
X95779632Y-65475830D01*
X95799038Y-65466651D01*
X95819250Y-65459419D01*
X95840074Y-65454203D01*
X95861309Y-65451053D01*
X95882750Y-65450000D01*
X96395250Y-65450000D01*
X96416691Y-65451053D01*
X96416691Y-65451053D01*
G37*
D19*
X96139000Y-65887500D03*
G04 #@! TD*
D10*
G04 #@! TO.C,C18*
G36*
X79961004Y-95007204D02*
X79985273Y-95010804D01*
X80009071Y-95016765D01*
X80032171Y-95025030D01*
X80054349Y-95035520D01*
X80075393Y-95048133D01*
X80095098Y-95062747D01*
X80113277Y-95079223D01*
X80129753Y-95097402D01*
X80144367Y-95117107D01*
X80156980Y-95138151D01*
X80167470Y-95160329D01*
X80175735Y-95183429D01*
X80181696Y-95207227D01*
X80185296Y-95231496D01*
X80186500Y-95256000D01*
X80186500Y-96006000D01*
X80185296Y-96030504D01*
X80181696Y-96054773D01*
X80175735Y-96078571D01*
X80167470Y-96101671D01*
X80156980Y-96123849D01*
X80144367Y-96144893D01*
X80129753Y-96164598D01*
X80113277Y-96182777D01*
X80095098Y-96199253D01*
X80075393Y-96213867D01*
X80054349Y-96226480D01*
X80032171Y-96236970D01*
X80009071Y-96245235D01*
X79985273Y-96251196D01*
X79961004Y-96254796D01*
X79936500Y-96256000D01*
X78686500Y-96256000D01*
X78661996Y-96254796D01*
X78637727Y-96251196D01*
X78613929Y-96245235D01*
X78590829Y-96236970D01*
X78568651Y-96226480D01*
X78547607Y-96213867D01*
X78527902Y-96199253D01*
X78509723Y-96182777D01*
X78493247Y-96164598D01*
X78478633Y-96144893D01*
X78466020Y-96123849D01*
X78455530Y-96101671D01*
X78447265Y-96078571D01*
X78441304Y-96054773D01*
X78437704Y-96030504D01*
X78436500Y-96006000D01*
X78436500Y-95256000D01*
X78437704Y-95231496D01*
X78441304Y-95207227D01*
X78447265Y-95183429D01*
X78455530Y-95160329D01*
X78466020Y-95138151D01*
X78478633Y-95117107D01*
X78493247Y-95097402D01*
X78509723Y-95079223D01*
X78527902Y-95062747D01*
X78547607Y-95048133D01*
X78568651Y-95035520D01*
X78590829Y-95025030D01*
X78613929Y-95016765D01*
X78637727Y-95010804D01*
X78661996Y-95007204D01*
X78686500Y-95006000D01*
X79936500Y-95006000D01*
X79961004Y-95007204D01*
X79961004Y-95007204D01*
G37*
D20*
X79311500Y-95631000D03*
D10*
G36*
X79961004Y-97807204D02*
X79985273Y-97810804D01*
X80009071Y-97816765D01*
X80032171Y-97825030D01*
X80054349Y-97835520D01*
X80075393Y-97848133D01*
X80095098Y-97862747D01*
X80113277Y-97879223D01*
X80129753Y-97897402D01*
X80144367Y-97917107D01*
X80156980Y-97938151D01*
X80167470Y-97960329D01*
X80175735Y-97983429D01*
X80181696Y-98007227D01*
X80185296Y-98031496D01*
X80186500Y-98056000D01*
X80186500Y-98806000D01*
X80185296Y-98830504D01*
X80181696Y-98854773D01*
X80175735Y-98878571D01*
X80167470Y-98901671D01*
X80156980Y-98923849D01*
X80144367Y-98944893D01*
X80129753Y-98964598D01*
X80113277Y-98982777D01*
X80095098Y-98999253D01*
X80075393Y-99013867D01*
X80054349Y-99026480D01*
X80032171Y-99036970D01*
X80009071Y-99045235D01*
X79985273Y-99051196D01*
X79961004Y-99054796D01*
X79936500Y-99056000D01*
X78686500Y-99056000D01*
X78661996Y-99054796D01*
X78637727Y-99051196D01*
X78613929Y-99045235D01*
X78590829Y-99036970D01*
X78568651Y-99026480D01*
X78547607Y-99013867D01*
X78527902Y-98999253D01*
X78509723Y-98982777D01*
X78493247Y-98964598D01*
X78478633Y-98944893D01*
X78466020Y-98923849D01*
X78455530Y-98901671D01*
X78447265Y-98878571D01*
X78441304Y-98854773D01*
X78437704Y-98830504D01*
X78436500Y-98806000D01*
X78436500Y-98056000D01*
X78437704Y-98031496D01*
X78441304Y-98007227D01*
X78447265Y-97983429D01*
X78455530Y-97960329D01*
X78466020Y-97938151D01*
X78478633Y-97917107D01*
X78493247Y-97897402D01*
X78509723Y-97879223D01*
X78527902Y-97862747D01*
X78547607Y-97848133D01*
X78568651Y-97835520D01*
X78590829Y-97825030D01*
X78613929Y-97816765D01*
X78637727Y-97810804D01*
X78661996Y-97807204D01*
X78686500Y-97806000D01*
X79936500Y-97806000D01*
X79961004Y-97807204D01*
X79961004Y-97807204D01*
G37*
D20*
X79311500Y-98431000D03*
G04 #@! TD*
D10*
G04 #@! TO.C,C19*
G36*
X82192691Y-106167553D02*
X82213926Y-106170703D01*
X82234750Y-106175919D01*
X82254962Y-106183151D01*
X82274368Y-106192330D01*
X82292781Y-106203366D01*
X82310024Y-106216154D01*
X82325930Y-106230570D01*
X82340346Y-106246476D01*
X82353134Y-106263719D01*
X82364170Y-106282132D01*
X82373349Y-106301538D01*
X82380581Y-106321750D01*
X82385797Y-106342574D01*
X82388947Y-106363809D01*
X82390000Y-106385250D01*
X82390000Y-106822750D01*
X82388947Y-106844191D01*
X82385797Y-106865426D01*
X82380581Y-106886250D01*
X82373349Y-106906462D01*
X82364170Y-106925868D01*
X82353134Y-106944281D01*
X82340346Y-106961524D01*
X82325930Y-106977430D01*
X82310024Y-106991846D01*
X82292781Y-107004634D01*
X82274368Y-107015670D01*
X82254962Y-107024849D01*
X82234750Y-107032081D01*
X82213926Y-107037297D01*
X82192691Y-107040447D01*
X82171250Y-107041500D01*
X81658750Y-107041500D01*
X81637309Y-107040447D01*
X81616074Y-107037297D01*
X81595250Y-107032081D01*
X81575038Y-107024849D01*
X81555632Y-107015670D01*
X81537219Y-107004634D01*
X81519976Y-106991846D01*
X81504070Y-106977430D01*
X81489654Y-106961524D01*
X81476866Y-106944281D01*
X81465830Y-106925868D01*
X81456651Y-106906462D01*
X81449419Y-106886250D01*
X81444203Y-106865426D01*
X81441053Y-106844191D01*
X81440000Y-106822750D01*
X81440000Y-106385250D01*
X81441053Y-106363809D01*
X81444203Y-106342574D01*
X81449419Y-106321750D01*
X81456651Y-106301538D01*
X81465830Y-106282132D01*
X81476866Y-106263719D01*
X81489654Y-106246476D01*
X81504070Y-106230570D01*
X81519976Y-106216154D01*
X81537219Y-106203366D01*
X81555632Y-106192330D01*
X81575038Y-106183151D01*
X81595250Y-106175919D01*
X81616074Y-106170703D01*
X81637309Y-106167553D01*
X81658750Y-106166500D01*
X82171250Y-106166500D01*
X82192691Y-106167553D01*
X82192691Y-106167553D01*
G37*
D19*
X81915000Y-106604000D03*
D10*
G36*
X82192691Y-104592553D02*
X82213926Y-104595703D01*
X82234750Y-104600919D01*
X82254962Y-104608151D01*
X82274368Y-104617330D01*
X82292781Y-104628366D01*
X82310024Y-104641154D01*
X82325930Y-104655570D01*
X82340346Y-104671476D01*
X82353134Y-104688719D01*
X82364170Y-104707132D01*
X82373349Y-104726538D01*
X82380581Y-104746750D01*
X82385797Y-104767574D01*
X82388947Y-104788809D01*
X82390000Y-104810250D01*
X82390000Y-105247750D01*
X82388947Y-105269191D01*
X82385797Y-105290426D01*
X82380581Y-105311250D01*
X82373349Y-105331462D01*
X82364170Y-105350868D01*
X82353134Y-105369281D01*
X82340346Y-105386524D01*
X82325930Y-105402430D01*
X82310024Y-105416846D01*
X82292781Y-105429634D01*
X82274368Y-105440670D01*
X82254962Y-105449849D01*
X82234750Y-105457081D01*
X82213926Y-105462297D01*
X82192691Y-105465447D01*
X82171250Y-105466500D01*
X81658750Y-105466500D01*
X81637309Y-105465447D01*
X81616074Y-105462297D01*
X81595250Y-105457081D01*
X81575038Y-105449849D01*
X81555632Y-105440670D01*
X81537219Y-105429634D01*
X81519976Y-105416846D01*
X81504070Y-105402430D01*
X81489654Y-105386524D01*
X81476866Y-105369281D01*
X81465830Y-105350868D01*
X81456651Y-105331462D01*
X81449419Y-105311250D01*
X81444203Y-105290426D01*
X81441053Y-105269191D01*
X81440000Y-105247750D01*
X81440000Y-104810250D01*
X81441053Y-104788809D01*
X81444203Y-104767574D01*
X81449419Y-104746750D01*
X81456651Y-104726538D01*
X81465830Y-104707132D01*
X81476866Y-104688719D01*
X81489654Y-104671476D01*
X81504070Y-104655570D01*
X81519976Y-104641154D01*
X81537219Y-104628366D01*
X81555632Y-104617330D01*
X81575038Y-104608151D01*
X81595250Y-104600919D01*
X81616074Y-104595703D01*
X81637309Y-104592553D01*
X81658750Y-104591500D01*
X82171250Y-104591500D01*
X82192691Y-104592553D01*
X82192691Y-104592553D01*
G37*
D19*
X81915000Y-105029000D03*
G04 #@! TD*
D10*
G04 #@! TO.C,C20*
G36*
X88181642Y-102171174D02*
X88205303Y-102174684D01*
X88228507Y-102180496D01*
X88251029Y-102188554D01*
X88272653Y-102198782D01*
X88293170Y-102211079D01*
X88312383Y-102225329D01*
X88330107Y-102241393D01*
X88346171Y-102259117D01*
X88360421Y-102278330D01*
X88372718Y-102298847D01*
X88382946Y-102320471D01*
X88391004Y-102342993D01*
X88396816Y-102366197D01*
X88400326Y-102389858D01*
X88401500Y-102413750D01*
X88401500Y-103326250D01*
X88400326Y-103350142D01*
X88396816Y-103373803D01*
X88391004Y-103397007D01*
X88382946Y-103419529D01*
X88372718Y-103441153D01*
X88360421Y-103461670D01*
X88346171Y-103480883D01*
X88330107Y-103498607D01*
X88312383Y-103514671D01*
X88293170Y-103528921D01*
X88272653Y-103541218D01*
X88251029Y-103551446D01*
X88228507Y-103559504D01*
X88205303Y-103565316D01*
X88181642Y-103568826D01*
X88157750Y-103570000D01*
X87670250Y-103570000D01*
X87646358Y-103568826D01*
X87622697Y-103565316D01*
X87599493Y-103559504D01*
X87576971Y-103551446D01*
X87555347Y-103541218D01*
X87534830Y-103528921D01*
X87515617Y-103514671D01*
X87497893Y-103498607D01*
X87481829Y-103480883D01*
X87467579Y-103461670D01*
X87455282Y-103441153D01*
X87445054Y-103419529D01*
X87436996Y-103397007D01*
X87431184Y-103373803D01*
X87427674Y-103350142D01*
X87426500Y-103326250D01*
X87426500Y-102413750D01*
X87427674Y-102389858D01*
X87431184Y-102366197D01*
X87436996Y-102342993D01*
X87445054Y-102320471D01*
X87455282Y-102298847D01*
X87467579Y-102278330D01*
X87481829Y-102259117D01*
X87497893Y-102241393D01*
X87515617Y-102225329D01*
X87534830Y-102211079D01*
X87555347Y-102198782D01*
X87576971Y-102188554D01*
X87599493Y-102180496D01*
X87622697Y-102174684D01*
X87646358Y-102171174D01*
X87670250Y-102170000D01*
X88157750Y-102170000D01*
X88181642Y-102171174D01*
X88181642Y-102171174D01*
G37*
D21*
X87914000Y-102870000D03*
D10*
G36*
X90056642Y-102171174D02*
X90080303Y-102174684D01*
X90103507Y-102180496D01*
X90126029Y-102188554D01*
X90147653Y-102198782D01*
X90168170Y-102211079D01*
X90187383Y-102225329D01*
X90205107Y-102241393D01*
X90221171Y-102259117D01*
X90235421Y-102278330D01*
X90247718Y-102298847D01*
X90257946Y-102320471D01*
X90266004Y-102342993D01*
X90271816Y-102366197D01*
X90275326Y-102389858D01*
X90276500Y-102413750D01*
X90276500Y-103326250D01*
X90275326Y-103350142D01*
X90271816Y-103373803D01*
X90266004Y-103397007D01*
X90257946Y-103419529D01*
X90247718Y-103441153D01*
X90235421Y-103461670D01*
X90221171Y-103480883D01*
X90205107Y-103498607D01*
X90187383Y-103514671D01*
X90168170Y-103528921D01*
X90147653Y-103541218D01*
X90126029Y-103551446D01*
X90103507Y-103559504D01*
X90080303Y-103565316D01*
X90056642Y-103568826D01*
X90032750Y-103570000D01*
X89545250Y-103570000D01*
X89521358Y-103568826D01*
X89497697Y-103565316D01*
X89474493Y-103559504D01*
X89451971Y-103551446D01*
X89430347Y-103541218D01*
X89409830Y-103528921D01*
X89390617Y-103514671D01*
X89372893Y-103498607D01*
X89356829Y-103480883D01*
X89342579Y-103461670D01*
X89330282Y-103441153D01*
X89320054Y-103419529D01*
X89311996Y-103397007D01*
X89306184Y-103373803D01*
X89302674Y-103350142D01*
X89301500Y-103326250D01*
X89301500Y-102413750D01*
X89302674Y-102389858D01*
X89306184Y-102366197D01*
X89311996Y-102342993D01*
X89320054Y-102320471D01*
X89330282Y-102298847D01*
X89342579Y-102278330D01*
X89356829Y-102259117D01*
X89372893Y-102241393D01*
X89390617Y-102225329D01*
X89409830Y-102211079D01*
X89430347Y-102198782D01*
X89451971Y-102188554D01*
X89474493Y-102180496D01*
X89497697Y-102174684D01*
X89521358Y-102171174D01*
X89545250Y-102170000D01*
X90032750Y-102170000D01*
X90056642Y-102171174D01*
X90056642Y-102171174D01*
G37*
D21*
X89789000Y-102870000D03*
G04 #@! TD*
D10*
G04 #@! TO.C,C21*
G36*
X92098691Y-100008053D02*
X92119926Y-100011203D01*
X92140750Y-100016419D01*
X92160962Y-100023651D01*
X92180368Y-100032830D01*
X92198781Y-100043866D01*
X92216024Y-100056654D01*
X92231930Y-100071070D01*
X92246346Y-100086976D01*
X92259134Y-100104219D01*
X92270170Y-100122632D01*
X92279349Y-100142038D01*
X92286581Y-100162250D01*
X92291797Y-100183074D01*
X92294947Y-100204309D01*
X92296000Y-100225750D01*
X92296000Y-100663250D01*
X92294947Y-100684691D01*
X92291797Y-100705926D01*
X92286581Y-100726750D01*
X92279349Y-100746962D01*
X92270170Y-100766368D01*
X92259134Y-100784781D01*
X92246346Y-100802024D01*
X92231930Y-100817930D01*
X92216024Y-100832346D01*
X92198781Y-100845134D01*
X92180368Y-100856170D01*
X92160962Y-100865349D01*
X92140750Y-100872581D01*
X92119926Y-100877797D01*
X92098691Y-100880947D01*
X92077250Y-100882000D01*
X91564750Y-100882000D01*
X91543309Y-100880947D01*
X91522074Y-100877797D01*
X91501250Y-100872581D01*
X91481038Y-100865349D01*
X91461632Y-100856170D01*
X91443219Y-100845134D01*
X91425976Y-100832346D01*
X91410070Y-100817930D01*
X91395654Y-100802024D01*
X91382866Y-100784781D01*
X91371830Y-100766368D01*
X91362651Y-100746962D01*
X91355419Y-100726750D01*
X91350203Y-100705926D01*
X91347053Y-100684691D01*
X91346000Y-100663250D01*
X91346000Y-100225750D01*
X91347053Y-100204309D01*
X91350203Y-100183074D01*
X91355419Y-100162250D01*
X91362651Y-100142038D01*
X91371830Y-100122632D01*
X91382866Y-100104219D01*
X91395654Y-100086976D01*
X91410070Y-100071070D01*
X91425976Y-100056654D01*
X91443219Y-100043866D01*
X91461632Y-100032830D01*
X91481038Y-100023651D01*
X91501250Y-100016419D01*
X91522074Y-100011203D01*
X91543309Y-100008053D01*
X91564750Y-100007000D01*
X92077250Y-100007000D01*
X92098691Y-100008053D01*
X92098691Y-100008053D01*
G37*
D19*
X91821000Y-100444500D03*
D10*
G36*
X92098691Y-98433053D02*
X92119926Y-98436203D01*
X92140750Y-98441419D01*
X92160962Y-98448651D01*
X92180368Y-98457830D01*
X92198781Y-98468866D01*
X92216024Y-98481654D01*
X92231930Y-98496070D01*
X92246346Y-98511976D01*
X92259134Y-98529219D01*
X92270170Y-98547632D01*
X92279349Y-98567038D01*
X92286581Y-98587250D01*
X92291797Y-98608074D01*
X92294947Y-98629309D01*
X92296000Y-98650750D01*
X92296000Y-99088250D01*
X92294947Y-99109691D01*
X92291797Y-99130926D01*
X92286581Y-99151750D01*
X92279349Y-99171962D01*
X92270170Y-99191368D01*
X92259134Y-99209781D01*
X92246346Y-99227024D01*
X92231930Y-99242930D01*
X92216024Y-99257346D01*
X92198781Y-99270134D01*
X92180368Y-99281170D01*
X92160962Y-99290349D01*
X92140750Y-99297581D01*
X92119926Y-99302797D01*
X92098691Y-99305947D01*
X92077250Y-99307000D01*
X91564750Y-99307000D01*
X91543309Y-99305947D01*
X91522074Y-99302797D01*
X91501250Y-99297581D01*
X91481038Y-99290349D01*
X91461632Y-99281170D01*
X91443219Y-99270134D01*
X91425976Y-99257346D01*
X91410070Y-99242930D01*
X91395654Y-99227024D01*
X91382866Y-99209781D01*
X91371830Y-99191368D01*
X91362651Y-99171962D01*
X91355419Y-99151750D01*
X91350203Y-99130926D01*
X91347053Y-99109691D01*
X91346000Y-99088250D01*
X91346000Y-98650750D01*
X91347053Y-98629309D01*
X91350203Y-98608074D01*
X91355419Y-98587250D01*
X91362651Y-98567038D01*
X91371830Y-98547632D01*
X91382866Y-98529219D01*
X91395654Y-98511976D01*
X91410070Y-98496070D01*
X91425976Y-98481654D01*
X91443219Y-98468866D01*
X91461632Y-98457830D01*
X91481038Y-98448651D01*
X91501250Y-98441419D01*
X91522074Y-98436203D01*
X91543309Y-98433053D01*
X91564750Y-98432000D01*
X92077250Y-98432000D01*
X92098691Y-98433053D01*
X92098691Y-98433053D01*
G37*
D19*
X91821000Y-98869500D03*
G04 #@! TD*
D22*
G04 #@! TO.C,D1*
X51451000Y-85156000D03*
X51451000Y-87056000D03*
X53451000Y-86106000D03*
G04 #@! TD*
D23*
G04 #@! TO.C,D2*
X48768000Y-92710000D03*
X48768000Y-96010000D03*
G04 #@! TD*
D10*
G04 #@! TO.C,D3*
G36*
X105266642Y-95821174D02*
X105290303Y-95824684D01*
X105313507Y-95830496D01*
X105336029Y-95838554D01*
X105357653Y-95848782D01*
X105378170Y-95861079D01*
X105397383Y-95875329D01*
X105415107Y-95891393D01*
X105431171Y-95909117D01*
X105445421Y-95928330D01*
X105457718Y-95948847D01*
X105467946Y-95970471D01*
X105476004Y-95992993D01*
X105481816Y-96016197D01*
X105485326Y-96039858D01*
X105486500Y-96063750D01*
X105486500Y-96976250D01*
X105485326Y-97000142D01*
X105481816Y-97023803D01*
X105476004Y-97047007D01*
X105467946Y-97069529D01*
X105457718Y-97091153D01*
X105445421Y-97111670D01*
X105431171Y-97130883D01*
X105415107Y-97148607D01*
X105397383Y-97164671D01*
X105378170Y-97178921D01*
X105357653Y-97191218D01*
X105336029Y-97201446D01*
X105313507Y-97209504D01*
X105290303Y-97215316D01*
X105266642Y-97218826D01*
X105242750Y-97220000D01*
X104755250Y-97220000D01*
X104731358Y-97218826D01*
X104707697Y-97215316D01*
X104684493Y-97209504D01*
X104661971Y-97201446D01*
X104640347Y-97191218D01*
X104619830Y-97178921D01*
X104600617Y-97164671D01*
X104582893Y-97148607D01*
X104566829Y-97130883D01*
X104552579Y-97111670D01*
X104540282Y-97091153D01*
X104530054Y-97069529D01*
X104521996Y-97047007D01*
X104516184Y-97023803D01*
X104512674Y-97000142D01*
X104511500Y-96976250D01*
X104511500Y-96063750D01*
X104512674Y-96039858D01*
X104516184Y-96016197D01*
X104521996Y-95992993D01*
X104530054Y-95970471D01*
X104540282Y-95948847D01*
X104552579Y-95928330D01*
X104566829Y-95909117D01*
X104582893Y-95891393D01*
X104600617Y-95875329D01*
X104619830Y-95861079D01*
X104640347Y-95848782D01*
X104661971Y-95838554D01*
X104684493Y-95830496D01*
X104707697Y-95824684D01*
X104731358Y-95821174D01*
X104755250Y-95820000D01*
X105242750Y-95820000D01*
X105266642Y-95821174D01*
X105266642Y-95821174D01*
G37*
D21*
X104999000Y-96520000D03*
D10*
G36*
X103391642Y-95821174D02*
X103415303Y-95824684D01*
X103438507Y-95830496D01*
X103461029Y-95838554D01*
X103482653Y-95848782D01*
X103503170Y-95861079D01*
X103522383Y-95875329D01*
X103540107Y-95891393D01*
X103556171Y-95909117D01*
X103570421Y-95928330D01*
X103582718Y-95948847D01*
X103592946Y-95970471D01*
X103601004Y-95992993D01*
X103606816Y-96016197D01*
X103610326Y-96039858D01*
X103611500Y-96063750D01*
X103611500Y-96976250D01*
X103610326Y-97000142D01*
X103606816Y-97023803D01*
X103601004Y-97047007D01*
X103592946Y-97069529D01*
X103582718Y-97091153D01*
X103570421Y-97111670D01*
X103556171Y-97130883D01*
X103540107Y-97148607D01*
X103522383Y-97164671D01*
X103503170Y-97178921D01*
X103482653Y-97191218D01*
X103461029Y-97201446D01*
X103438507Y-97209504D01*
X103415303Y-97215316D01*
X103391642Y-97218826D01*
X103367750Y-97220000D01*
X102880250Y-97220000D01*
X102856358Y-97218826D01*
X102832697Y-97215316D01*
X102809493Y-97209504D01*
X102786971Y-97201446D01*
X102765347Y-97191218D01*
X102744830Y-97178921D01*
X102725617Y-97164671D01*
X102707893Y-97148607D01*
X102691829Y-97130883D01*
X102677579Y-97111670D01*
X102665282Y-97091153D01*
X102655054Y-97069529D01*
X102646996Y-97047007D01*
X102641184Y-97023803D01*
X102637674Y-97000142D01*
X102636500Y-96976250D01*
X102636500Y-96063750D01*
X102637674Y-96039858D01*
X102641184Y-96016197D01*
X102646996Y-95992993D01*
X102655054Y-95970471D01*
X102665282Y-95948847D01*
X102677579Y-95928330D01*
X102691829Y-95909117D01*
X102707893Y-95891393D01*
X102725617Y-95875329D01*
X102744830Y-95861079D01*
X102765347Y-95848782D01*
X102786971Y-95838554D01*
X102809493Y-95830496D01*
X102832697Y-95824684D01*
X102856358Y-95821174D01*
X102880250Y-95820000D01*
X103367750Y-95820000D01*
X103391642Y-95821174D01*
X103391642Y-95821174D01*
G37*
D21*
X103124000Y-96520000D03*
G04 #@! TD*
D10*
G04 #@! TO.C,D4*
G36*
X105296642Y-101155174D02*
X105320303Y-101158684D01*
X105343507Y-101164496D01*
X105366029Y-101172554D01*
X105387653Y-101182782D01*
X105408170Y-101195079D01*
X105427383Y-101209329D01*
X105445107Y-101225393D01*
X105461171Y-101243117D01*
X105475421Y-101262330D01*
X105487718Y-101282847D01*
X105497946Y-101304471D01*
X105506004Y-101326993D01*
X105511816Y-101350197D01*
X105515326Y-101373858D01*
X105516500Y-101397750D01*
X105516500Y-102310250D01*
X105515326Y-102334142D01*
X105511816Y-102357803D01*
X105506004Y-102381007D01*
X105497946Y-102403529D01*
X105487718Y-102425153D01*
X105475421Y-102445670D01*
X105461171Y-102464883D01*
X105445107Y-102482607D01*
X105427383Y-102498671D01*
X105408170Y-102512921D01*
X105387653Y-102525218D01*
X105366029Y-102535446D01*
X105343507Y-102543504D01*
X105320303Y-102549316D01*
X105296642Y-102552826D01*
X105272750Y-102554000D01*
X104785250Y-102554000D01*
X104761358Y-102552826D01*
X104737697Y-102549316D01*
X104714493Y-102543504D01*
X104691971Y-102535446D01*
X104670347Y-102525218D01*
X104649830Y-102512921D01*
X104630617Y-102498671D01*
X104612893Y-102482607D01*
X104596829Y-102464883D01*
X104582579Y-102445670D01*
X104570282Y-102425153D01*
X104560054Y-102403529D01*
X104551996Y-102381007D01*
X104546184Y-102357803D01*
X104542674Y-102334142D01*
X104541500Y-102310250D01*
X104541500Y-101397750D01*
X104542674Y-101373858D01*
X104546184Y-101350197D01*
X104551996Y-101326993D01*
X104560054Y-101304471D01*
X104570282Y-101282847D01*
X104582579Y-101262330D01*
X104596829Y-101243117D01*
X104612893Y-101225393D01*
X104630617Y-101209329D01*
X104649830Y-101195079D01*
X104670347Y-101182782D01*
X104691971Y-101172554D01*
X104714493Y-101164496D01*
X104737697Y-101158684D01*
X104761358Y-101155174D01*
X104785250Y-101154000D01*
X105272750Y-101154000D01*
X105296642Y-101155174D01*
X105296642Y-101155174D01*
G37*
D21*
X105029000Y-101854000D03*
D10*
G36*
X103421642Y-101155174D02*
X103445303Y-101158684D01*
X103468507Y-101164496D01*
X103491029Y-101172554D01*
X103512653Y-101182782D01*
X103533170Y-101195079D01*
X103552383Y-101209329D01*
X103570107Y-101225393D01*
X103586171Y-101243117D01*
X103600421Y-101262330D01*
X103612718Y-101282847D01*
X103622946Y-101304471D01*
X103631004Y-101326993D01*
X103636816Y-101350197D01*
X103640326Y-101373858D01*
X103641500Y-101397750D01*
X103641500Y-102310250D01*
X103640326Y-102334142D01*
X103636816Y-102357803D01*
X103631004Y-102381007D01*
X103622946Y-102403529D01*
X103612718Y-102425153D01*
X103600421Y-102445670D01*
X103586171Y-102464883D01*
X103570107Y-102482607D01*
X103552383Y-102498671D01*
X103533170Y-102512921D01*
X103512653Y-102525218D01*
X103491029Y-102535446D01*
X103468507Y-102543504D01*
X103445303Y-102549316D01*
X103421642Y-102552826D01*
X103397750Y-102554000D01*
X102910250Y-102554000D01*
X102886358Y-102552826D01*
X102862697Y-102549316D01*
X102839493Y-102543504D01*
X102816971Y-102535446D01*
X102795347Y-102525218D01*
X102774830Y-102512921D01*
X102755617Y-102498671D01*
X102737893Y-102482607D01*
X102721829Y-102464883D01*
X102707579Y-102445670D01*
X102695282Y-102425153D01*
X102685054Y-102403529D01*
X102676996Y-102381007D01*
X102671184Y-102357803D01*
X102667674Y-102334142D01*
X102666500Y-102310250D01*
X102666500Y-101397750D01*
X102667674Y-101373858D01*
X102671184Y-101350197D01*
X102676996Y-101326993D01*
X102685054Y-101304471D01*
X102695282Y-101282847D01*
X102707579Y-101262330D01*
X102721829Y-101243117D01*
X102737893Y-101225393D01*
X102755617Y-101209329D01*
X102774830Y-101195079D01*
X102795347Y-101182782D01*
X102816971Y-101172554D01*
X102839493Y-101164496D01*
X102862697Y-101158684D01*
X102886358Y-101155174D01*
X102910250Y-101154000D01*
X103397750Y-101154000D01*
X103421642Y-101155174D01*
X103421642Y-101155174D01*
G37*
D21*
X103154000Y-101854000D03*
G04 #@! TD*
D10*
G04 #@! TO.C,D5*
G36*
X103421642Y-98488174D02*
X103445303Y-98491684D01*
X103468507Y-98497496D01*
X103491029Y-98505554D01*
X103512653Y-98515782D01*
X103533170Y-98528079D01*
X103552383Y-98542329D01*
X103570107Y-98558393D01*
X103586171Y-98576117D01*
X103600421Y-98595330D01*
X103612718Y-98615847D01*
X103622946Y-98637471D01*
X103631004Y-98659993D01*
X103636816Y-98683197D01*
X103640326Y-98706858D01*
X103641500Y-98730750D01*
X103641500Y-99643250D01*
X103640326Y-99667142D01*
X103636816Y-99690803D01*
X103631004Y-99714007D01*
X103622946Y-99736529D01*
X103612718Y-99758153D01*
X103600421Y-99778670D01*
X103586171Y-99797883D01*
X103570107Y-99815607D01*
X103552383Y-99831671D01*
X103533170Y-99845921D01*
X103512653Y-99858218D01*
X103491029Y-99868446D01*
X103468507Y-99876504D01*
X103445303Y-99882316D01*
X103421642Y-99885826D01*
X103397750Y-99887000D01*
X102910250Y-99887000D01*
X102886358Y-99885826D01*
X102862697Y-99882316D01*
X102839493Y-99876504D01*
X102816971Y-99868446D01*
X102795347Y-99858218D01*
X102774830Y-99845921D01*
X102755617Y-99831671D01*
X102737893Y-99815607D01*
X102721829Y-99797883D01*
X102707579Y-99778670D01*
X102695282Y-99758153D01*
X102685054Y-99736529D01*
X102676996Y-99714007D01*
X102671184Y-99690803D01*
X102667674Y-99667142D01*
X102666500Y-99643250D01*
X102666500Y-98730750D01*
X102667674Y-98706858D01*
X102671184Y-98683197D01*
X102676996Y-98659993D01*
X102685054Y-98637471D01*
X102695282Y-98615847D01*
X102707579Y-98595330D01*
X102721829Y-98576117D01*
X102737893Y-98558393D01*
X102755617Y-98542329D01*
X102774830Y-98528079D01*
X102795347Y-98515782D01*
X102816971Y-98505554D01*
X102839493Y-98497496D01*
X102862697Y-98491684D01*
X102886358Y-98488174D01*
X102910250Y-98487000D01*
X103397750Y-98487000D01*
X103421642Y-98488174D01*
X103421642Y-98488174D01*
G37*
D21*
X103154000Y-99187000D03*
D10*
G36*
X105296642Y-98488174D02*
X105320303Y-98491684D01*
X105343507Y-98497496D01*
X105366029Y-98505554D01*
X105387653Y-98515782D01*
X105408170Y-98528079D01*
X105427383Y-98542329D01*
X105445107Y-98558393D01*
X105461171Y-98576117D01*
X105475421Y-98595330D01*
X105487718Y-98615847D01*
X105497946Y-98637471D01*
X105506004Y-98659993D01*
X105511816Y-98683197D01*
X105515326Y-98706858D01*
X105516500Y-98730750D01*
X105516500Y-99643250D01*
X105515326Y-99667142D01*
X105511816Y-99690803D01*
X105506004Y-99714007D01*
X105497946Y-99736529D01*
X105487718Y-99758153D01*
X105475421Y-99778670D01*
X105461171Y-99797883D01*
X105445107Y-99815607D01*
X105427383Y-99831671D01*
X105408170Y-99845921D01*
X105387653Y-99858218D01*
X105366029Y-99868446D01*
X105343507Y-99876504D01*
X105320303Y-99882316D01*
X105296642Y-99885826D01*
X105272750Y-99887000D01*
X104785250Y-99887000D01*
X104761358Y-99885826D01*
X104737697Y-99882316D01*
X104714493Y-99876504D01*
X104691971Y-99868446D01*
X104670347Y-99858218D01*
X104649830Y-99845921D01*
X104630617Y-99831671D01*
X104612893Y-99815607D01*
X104596829Y-99797883D01*
X104582579Y-99778670D01*
X104570282Y-99758153D01*
X104560054Y-99736529D01*
X104551996Y-99714007D01*
X104546184Y-99690803D01*
X104542674Y-99667142D01*
X104541500Y-99643250D01*
X104541500Y-98730750D01*
X104542674Y-98706858D01*
X104546184Y-98683197D01*
X104551996Y-98659993D01*
X104560054Y-98637471D01*
X104570282Y-98615847D01*
X104582579Y-98595330D01*
X104596829Y-98576117D01*
X104612893Y-98558393D01*
X104630617Y-98542329D01*
X104649830Y-98528079D01*
X104670347Y-98515782D01*
X104691971Y-98505554D01*
X104714493Y-98497496D01*
X104737697Y-98491684D01*
X104761358Y-98488174D01*
X104785250Y-98487000D01*
X105272750Y-98487000D01*
X105296642Y-98488174D01*
X105296642Y-98488174D01*
G37*
D21*
X105029000Y-99187000D03*
G04 #@! TD*
D24*
G04 #@! TO.C,L1*
X89801700Y-99072700D03*
X86201700Y-99072700D03*
G04 #@! TD*
D10*
G04 #@! TO.C,R1*
G36*
X53109691Y-81351553D02*
X53130926Y-81354703D01*
X53151750Y-81359919D01*
X53171962Y-81367151D01*
X53191368Y-81376330D01*
X53209781Y-81387366D01*
X53227024Y-81400154D01*
X53242930Y-81414570D01*
X53257346Y-81430476D01*
X53270134Y-81447719D01*
X53281170Y-81466132D01*
X53290349Y-81485538D01*
X53297581Y-81505750D01*
X53302797Y-81526574D01*
X53305947Y-81547809D01*
X53307000Y-81569250D01*
X53307000Y-82006750D01*
X53305947Y-82028191D01*
X53302797Y-82049426D01*
X53297581Y-82070250D01*
X53290349Y-82090462D01*
X53281170Y-82109868D01*
X53270134Y-82128281D01*
X53257346Y-82145524D01*
X53242930Y-82161430D01*
X53227024Y-82175846D01*
X53209781Y-82188634D01*
X53191368Y-82199670D01*
X53171962Y-82208849D01*
X53151750Y-82216081D01*
X53130926Y-82221297D01*
X53109691Y-82224447D01*
X53088250Y-82225500D01*
X52575750Y-82225500D01*
X52554309Y-82224447D01*
X52533074Y-82221297D01*
X52512250Y-82216081D01*
X52492038Y-82208849D01*
X52472632Y-82199670D01*
X52454219Y-82188634D01*
X52436976Y-82175846D01*
X52421070Y-82161430D01*
X52406654Y-82145524D01*
X52393866Y-82128281D01*
X52382830Y-82109868D01*
X52373651Y-82090462D01*
X52366419Y-82070250D01*
X52361203Y-82049426D01*
X52358053Y-82028191D01*
X52357000Y-82006750D01*
X52357000Y-81569250D01*
X52358053Y-81547809D01*
X52361203Y-81526574D01*
X52366419Y-81505750D01*
X52373651Y-81485538D01*
X52382830Y-81466132D01*
X52393866Y-81447719D01*
X52406654Y-81430476D01*
X52421070Y-81414570D01*
X52436976Y-81400154D01*
X52454219Y-81387366D01*
X52472632Y-81376330D01*
X52492038Y-81367151D01*
X52512250Y-81359919D01*
X52533074Y-81354703D01*
X52554309Y-81351553D01*
X52575750Y-81350500D01*
X53088250Y-81350500D01*
X53109691Y-81351553D01*
X53109691Y-81351553D01*
G37*
D19*
X52832000Y-81788000D03*
D10*
G36*
X53109691Y-82926553D02*
X53130926Y-82929703D01*
X53151750Y-82934919D01*
X53171962Y-82942151D01*
X53191368Y-82951330D01*
X53209781Y-82962366D01*
X53227024Y-82975154D01*
X53242930Y-82989570D01*
X53257346Y-83005476D01*
X53270134Y-83022719D01*
X53281170Y-83041132D01*
X53290349Y-83060538D01*
X53297581Y-83080750D01*
X53302797Y-83101574D01*
X53305947Y-83122809D01*
X53307000Y-83144250D01*
X53307000Y-83581750D01*
X53305947Y-83603191D01*
X53302797Y-83624426D01*
X53297581Y-83645250D01*
X53290349Y-83665462D01*
X53281170Y-83684868D01*
X53270134Y-83703281D01*
X53257346Y-83720524D01*
X53242930Y-83736430D01*
X53227024Y-83750846D01*
X53209781Y-83763634D01*
X53191368Y-83774670D01*
X53171962Y-83783849D01*
X53151750Y-83791081D01*
X53130926Y-83796297D01*
X53109691Y-83799447D01*
X53088250Y-83800500D01*
X52575750Y-83800500D01*
X52554309Y-83799447D01*
X52533074Y-83796297D01*
X52512250Y-83791081D01*
X52492038Y-83783849D01*
X52472632Y-83774670D01*
X52454219Y-83763634D01*
X52436976Y-83750846D01*
X52421070Y-83736430D01*
X52406654Y-83720524D01*
X52393866Y-83703281D01*
X52382830Y-83684868D01*
X52373651Y-83665462D01*
X52366419Y-83645250D01*
X52361203Y-83624426D01*
X52358053Y-83603191D01*
X52357000Y-83581750D01*
X52357000Y-83144250D01*
X52358053Y-83122809D01*
X52361203Y-83101574D01*
X52366419Y-83080750D01*
X52373651Y-83060538D01*
X52382830Y-83041132D01*
X52393866Y-83022719D01*
X52406654Y-83005476D01*
X52421070Y-82989570D01*
X52436976Y-82975154D01*
X52454219Y-82962366D01*
X52472632Y-82951330D01*
X52492038Y-82942151D01*
X52512250Y-82934919D01*
X52533074Y-82929703D01*
X52554309Y-82926553D01*
X52575750Y-82925500D01*
X53088250Y-82925500D01*
X53109691Y-82926553D01*
X53109691Y-82926553D01*
G37*
D19*
X52832000Y-83363000D03*
G04 #@! TD*
D10*
G04 #@! TO.C,R2*
G36*
X51331691Y-82926553D02*
X51352926Y-82929703D01*
X51373750Y-82934919D01*
X51393962Y-82942151D01*
X51413368Y-82951330D01*
X51431781Y-82962366D01*
X51449024Y-82975154D01*
X51464930Y-82989570D01*
X51479346Y-83005476D01*
X51492134Y-83022719D01*
X51503170Y-83041132D01*
X51512349Y-83060538D01*
X51519581Y-83080750D01*
X51524797Y-83101574D01*
X51527947Y-83122809D01*
X51529000Y-83144250D01*
X51529000Y-83581750D01*
X51527947Y-83603191D01*
X51524797Y-83624426D01*
X51519581Y-83645250D01*
X51512349Y-83665462D01*
X51503170Y-83684868D01*
X51492134Y-83703281D01*
X51479346Y-83720524D01*
X51464930Y-83736430D01*
X51449024Y-83750846D01*
X51431781Y-83763634D01*
X51413368Y-83774670D01*
X51393962Y-83783849D01*
X51373750Y-83791081D01*
X51352926Y-83796297D01*
X51331691Y-83799447D01*
X51310250Y-83800500D01*
X50797750Y-83800500D01*
X50776309Y-83799447D01*
X50755074Y-83796297D01*
X50734250Y-83791081D01*
X50714038Y-83783849D01*
X50694632Y-83774670D01*
X50676219Y-83763634D01*
X50658976Y-83750846D01*
X50643070Y-83736430D01*
X50628654Y-83720524D01*
X50615866Y-83703281D01*
X50604830Y-83684868D01*
X50595651Y-83665462D01*
X50588419Y-83645250D01*
X50583203Y-83624426D01*
X50580053Y-83603191D01*
X50579000Y-83581750D01*
X50579000Y-83144250D01*
X50580053Y-83122809D01*
X50583203Y-83101574D01*
X50588419Y-83080750D01*
X50595651Y-83060538D01*
X50604830Y-83041132D01*
X50615866Y-83022719D01*
X50628654Y-83005476D01*
X50643070Y-82989570D01*
X50658976Y-82975154D01*
X50676219Y-82962366D01*
X50694632Y-82951330D01*
X50714038Y-82942151D01*
X50734250Y-82934919D01*
X50755074Y-82929703D01*
X50776309Y-82926553D01*
X50797750Y-82925500D01*
X51310250Y-82925500D01*
X51331691Y-82926553D01*
X51331691Y-82926553D01*
G37*
D19*
X51054000Y-83363000D03*
D10*
G36*
X51331691Y-81351553D02*
X51352926Y-81354703D01*
X51373750Y-81359919D01*
X51393962Y-81367151D01*
X51413368Y-81376330D01*
X51431781Y-81387366D01*
X51449024Y-81400154D01*
X51464930Y-81414570D01*
X51479346Y-81430476D01*
X51492134Y-81447719D01*
X51503170Y-81466132D01*
X51512349Y-81485538D01*
X51519581Y-81505750D01*
X51524797Y-81526574D01*
X51527947Y-81547809D01*
X51529000Y-81569250D01*
X51529000Y-82006750D01*
X51527947Y-82028191D01*
X51524797Y-82049426D01*
X51519581Y-82070250D01*
X51512349Y-82090462D01*
X51503170Y-82109868D01*
X51492134Y-82128281D01*
X51479346Y-82145524D01*
X51464930Y-82161430D01*
X51449024Y-82175846D01*
X51431781Y-82188634D01*
X51413368Y-82199670D01*
X51393962Y-82208849D01*
X51373750Y-82216081D01*
X51352926Y-82221297D01*
X51331691Y-82224447D01*
X51310250Y-82225500D01*
X50797750Y-82225500D01*
X50776309Y-82224447D01*
X50755074Y-82221297D01*
X50734250Y-82216081D01*
X50714038Y-82208849D01*
X50694632Y-82199670D01*
X50676219Y-82188634D01*
X50658976Y-82175846D01*
X50643070Y-82161430D01*
X50628654Y-82145524D01*
X50615866Y-82128281D01*
X50604830Y-82109868D01*
X50595651Y-82090462D01*
X50588419Y-82070250D01*
X50583203Y-82049426D01*
X50580053Y-82028191D01*
X50579000Y-82006750D01*
X50579000Y-81569250D01*
X50580053Y-81547809D01*
X50583203Y-81526574D01*
X50588419Y-81505750D01*
X50595651Y-81485538D01*
X50604830Y-81466132D01*
X50615866Y-81447719D01*
X50628654Y-81430476D01*
X50643070Y-81414570D01*
X50658976Y-81400154D01*
X50676219Y-81387366D01*
X50694632Y-81376330D01*
X50714038Y-81367151D01*
X50734250Y-81359919D01*
X50755074Y-81354703D01*
X50776309Y-81351553D01*
X50797750Y-81350500D01*
X51310250Y-81350500D01*
X51331691Y-81351553D01*
X51331691Y-81351553D01*
G37*
D19*
X51054000Y-81788000D03*
G04 #@! TD*
D10*
G04 #@! TO.C,R7*
G36*
X96201391Y-63229253D02*
X96222626Y-63232403D01*
X96243450Y-63237619D01*
X96263662Y-63244851D01*
X96283068Y-63254030D01*
X96301481Y-63265066D01*
X96318724Y-63277854D01*
X96334630Y-63292270D01*
X96349046Y-63308176D01*
X96361834Y-63325419D01*
X96372870Y-63343832D01*
X96382049Y-63363238D01*
X96389281Y-63383450D01*
X96394497Y-63404274D01*
X96397647Y-63425509D01*
X96398700Y-63446950D01*
X96398700Y-63959450D01*
X96397647Y-63980891D01*
X96394497Y-64002126D01*
X96389281Y-64022950D01*
X96382049Y-64043162D01*
X96372870Y-64062568D01*
X96361834Y-64080981D01*
X96349046Y-64098224D01*
X96334630Y-64114130D01*
X96318724Y-64128546D01*
X96301481Y-64141334D01*
X96283068Y-64152370D01*
X96263662Y-64161549D01*
X96243450Y-64168781D01*
X96222626Y-64173997D01*
X96201391Y-64177147D01*
X96179950Y-64178200D01*
X95742450Y-64178200D01*
X95721009Y-64177147D01*
X95699774Y-64173997D01*
X95678950Y-64168781D01*
X95658738Y-64161549D01*
X95639332Y-64152370D01*
X95620919Y-64141334D01*
X95603676Y-64128546D01*
X95587770Y-64114130D01*
X95573354Y-64098224D01*
X95560566Y-64080981D01*
X95549530Y-64062568D01*
X95540351Y-64043162D01*
X95533119Y-64022950D01*
X95527903Y-64002126D01*
X95524753Y-63980891D01*
X95523700Y-63959450D01*
X95523700Y-63446950D01*
X95524753Y-63425509D01*
X95527903Y-63404274D01*
X95533119Y-63383450D01*
X95540351Y-63363238D01*
X95549530Y-63343832D01*
X95560566Y-63325419D01*
X95573354Y-63308176D01*
X95587770Y-63292270D01*
X95603676Y-63277854D01*
X95620919Y-63265066D01*
X95639332Y-63254030D01*
X95658738Y-63244851D01*
X95678950Y-63237619D01*
X95699774Y-63232403D01*
X95721009Y-63229253D01*
X95742450Y-63228200D01*
X96179950Y-63228200D01*
X96201391Y-63229253D01*
X96201391Y-63229253D01*
G37*
D19*
X95961200Y-63703200D03*
D10*
G36*
X94626391Y-63229253D02*
X94647626Y-63232403D01*
X94668450Y-63237619D01*
X94688662Y-63244851D01*
X94708068Y-63254030D01*
X94726481Y-63265066D01*
X94743724Y-63277854D01*
X94759630Y-63292270D01*
X94774046Y-63308176D01*
X94786834Y-63325419D01*
X94797870Y-63343832D01*
X94807049Y-63363238D01*
X94814281Y-63383450D01*
X94819497Y-63404274D01*
X94822647Y-63425509D01*
X94823700Y-63446950D01*
X94823700Y-63959450D01*
X94822647Y-63980891D01*
X94819497Y-64002126D01*
X94814281Y-64022950D01*
X94807049Y-64043162D01*
X94797870Y-64062568D01*
X94786834Y-64080981D01*
X94774046Y-64098224D01*
X94759630Y-64114130D01*
X94743724Y-64128546D01*
X94726481Y-64141334D01*
X94708068Y-64152370D01*
X94688662Y-64161549D01*
X94668450Y-64168781D01*
X94647626Y-64173997D01*
X94626391Y-64177147D01*
X94604950Y-64178200D01*
X94167450Y-64178200D01*
X94146009Y-64177147D01*
X94124774Y-64173997D01*
X94103950Y-64168781D01*
X94083738Y-64161549D01*
X94064332Y-64152370D01*
X94045919Y-64141334D01*
X94028676Y-64128546D01*
X94012770Y-64114130D01*
X93998354Y-64098224D01*
X93985566Y-64080981D01*
X93974530Y-64062568D01*
X93965351Y-64043162D01*
X93958119Y-64022950D01*
X93952903Y-64002126D01*
X93949753Y-63980891D01*
X93948700Y-63959450D01*
X93948700Y-63446950D01*
X93949753Y-63425509D01*
X93952903Y-63404274D01*
X93958119Y-63383450D01*
X93965351Y-63363238D01*
X93974530Y-63343832D01*
X93985566Y-63325419D01*
X93998354Y-63308176D01*
X94012770Y-63292270D01*
X94028676Y-63277854D01*
X94045919Y-63265066D01*
X94064332Y-63254030D01*
X94083738Y-63244851D01*
X94103950Y-63237619D01*
X94124774Y-63232403D01*
X94146009Y-63229253D01*
X94167450Y-63228200D01*
X94604950Y-63228200D01*
X94626391Y-63229253D01*
X94626391Y-63229253D01*
G37*
D19*
X94386200Y-63703200D03*
G04 #@! TD*
D10*
G04 #@! TO.C,R8*
G36*
X85177191Y-92019553D02*
X85198426Y-92022703D01*
X85219250Y-92027919D01*
X85239462Y-92035151D01*
X85258868Y-92044330D01*
X85277281Y-92055366D01*
X85294524Y-92068154D01*
X85310430Y-92082570D01*
X85324846Y-92098476D01*
X85337634Y-92115719D01*
X85348670Y-92134132D01*
X85357849Y-92153538D01*
X85365081Y-92173750D01*
X85370297Y-92194574D01*
X85373447Y-92215809D01*
X85374500Y-92237250D01*
X85374500Y-92674750D01*
X85373447Y-92696191D01*
X85370297Y-92717426D01*
X85365081Y-92738250D01*
X85357849Y-92758462D01*
X85348670Y-92777868D01*
X85337634Y-92796281D01*
X85324846Y-92813524D01*
X85310430Y-92829430D01*
X85294524Y-92843846D01*
X85277281Y-92856634D01*
X85258868Y-92867670D01*
X85239462Y-92876849D01*
X85219250Y-92884081D01*
X85198426Y-92889297D01*
X85177191Y-92892447D01*
X85155750Y-92893500D01*
X84643250Y-92893500D01*
X84621809Y-92892447D01*
X84600574Y-92889297D01*
X84579750Y-92884081D01*
X84559538Y-92876849D01*
X84540132Y-92867670D01*
X84521719Y-92856634D01*
X84504476Y-92843846D01*
X84488570Y-92829430D01*
X84474154Y-92813524D01*
X84461366Y-92796281D01*
X84450330Y-92777868D01*
X84441151Y-92758462D01*
X84433919Y-92738250D01*
X84428703Y-92717426D01*
X84425553Y-92696191D01*
X84424500Y-92674750D01*
X84424500Y-92237250D01*
X84425553Y-92215809D01*
X84428703Y-92194574D01*
X84433919Y-92173750D01*
X84441151Y-92153538D01*
X84450330Y-92134132D01*
X84461366Y-92115719D01*
X84474154Y-92098476D01*
X84488570Y-92082570D01*
X84504476Y-92068154D01*
X84521719Y-92055366D01*
X84540132Y-92044330D01*
X84559538Y-92035151D01*
X84579750Y-92027919D01*
X84600574Y-92022703D01*
X84621809Y-92019553D01*
X84643250Y-92018500D01*
X85155750Y-92018500D01*
X85177191Y-92019553D01*
X85177191Y-92019553D01*
G37*
D19*
X84899500Y-92456000D03*
D10*
G36*
X85177191Y-93594553D02*
X85198426Y-93597703D01*
X85219250Y-93602919D01*
X85239462Y-93610151D01*
X85258868Y-93619330D01*
X85277281Y-93630366D01*
X85294524Y-93643154D01*
X85310430Y-93657570D01*
X85324846Y-93673476D01*
X85337634Y-93690719D01*
X85348670Y-93709132D01*
X85357849Y-93728538D01*
X85365081Y-93748750D01*
X85370297Y-93769574D01*
X85373447Y-93790809D01*
X85374500Y-93812250D01*
X85374500Y-94249750D01*
X85373447Y-94271191D01*
X85370297Y-94292426D01*
X85365081Y-94313250D01*
X85357849Y-94333462D01*
X85348670Y-94352868D01*
X85337634Y-94371281D01*
X85324846Y-94388524D01*
X85310430Y-94404430D01*
X85294524Y-94418846D01*
X85277281Y-94431634D01*
X85258868Y-94442670D01*
X85239462Y-94451849D01*
X85219250Y-94459081D01*
X85198426Y-94464297D01*
X85177191Y-94467447D01*
X85155750Y-94468500D01*
X84643250Y-94468500D01*
X84621809Y-94467447D01*
X84600574Y-94464297D01*
X84579750Y-94459081D01*
X84559538Y-94451849D01*
X84540132Y-94442670D01*
X84521719Y-94431634D01*
X84504476Y-94418846D01*
X84488570Y-94404430D01*
X84474154Y-94388524D01*
X84461366Y-94371281D01*
X84450330Y-94352868D01*
X84441151Y-94333462D01*
X84433919Y-94313250D01*
X84428703Y-94292426D01*
X84425553Y-94271191D01*
X84424500Y-94249750D01*
X84424500Y-93812250D01*
X84425553Y-93790809D01*
X84428703Y-93769574D01*
X84433919Y-93748750D01*
X84441151Y-93728538D01*
X84450330Y-93709132D01*
X84461366Y-93690719D01*
X84474154Y-93673476D01*
X84488570Y-93657570D01*
X84504476Y-93643154D01*
X84521719Y-93630366D01*
X84540132Y-93619330D01*
X84559538Y-93610151D01*
X84579750Y-93602919D01*
X84600574Y-93597703D01*
X84621809Y-93594553D01*
X84643250Y-93593500D01*
X85155750Y-93593500D01*
X85177191Y-93594553D01*
X85177191Y-93594553D01*
G37*
D19*
X84899500Y-94031000D03*
G04 #@! TD*
D10*
G04 #@! TO.C,R9*
G36*
X86854191Y-91982053D02*
X86875426Y-91985203D01*
X86896250Y-91990419D01*
X86916462Y-91997651D01*
X86935868Y-92006830D01*
X86954281Y-92017866D01*
X86971524Y-92030654D01*
X86987430Y-92045070D01*
X87001846Y-92060976D01*
X87014634Y-92078219D01*
X87025670Y-92096632D01*
X87034849Y-92116038D01*
X87042081Y-92136250D01*
X87047297Y-92157074D01*
X87050447Y-92178309D01*
X87051500Y-92199750D01*
X87051500Y-92712250D01*
X87050447Y-92733691D01*
X87047297Y-92754926D01*
X87042081Y-92775750D01*
X87034849Y-92795962D01*
X87025670Y-92815368D01*
X87014634Y-92833781D01*
X87001846Y-92851024D01*
X86987430Y-92866930D01*
X86971524Y-92881346D01*
X86954281Y-92894134D01*
X86935868Y-92905170D01*
X86916462Y-92914349D01*
X86896250Y-92921581D01*
X86875426Y-92926797D01*
X86854191Y-92929947D01*
X86832750Y-92931000D01*
X86395250Y-92931000D01*
X86373809Y-92929947D01*
X86352574Y-92926797D01*
X86331750Y-92921581D01*
X86311538Y-92914349D01*
X86292132Y-92905170D01*
X86273719Y-92894134D01*
X86256476Y-92881346D01*
X86240570Y-92866930D01*
X86226154Y-92851024D01*
X86213366Y-92833781D01*
X86202330Y-92815368D01*
X86193151Y-92795962D01*
X86185919Y-92775750D01*
X86180703Y-92754926D01*
X86177553Y-92733691D01*
X86176500Y-92712250D01*
X86176500Y-92199750D01*
X86177553Y-92178309D01*
X86180703Y-92157074D01*
X86185919Y-92136250D01*
X86193151Y-92116038D01*
X86202330Y-92096632D01*
X86213366Y-92078219D01*
X86226154Y-92060976D01*
X86240570Y-92045070D01*
X86256476Y-92030654D01*
X86273719Y-92017866D01*
X86292132Y-92006830D01*
X86311538Y-91997651D01*
X86331750Y-91990419D01*
X86352574Y-91985203D01*
X86373809Y-91982053D01*
X86395250Y-91981000D01*
X86832750Y-91981000D01*
X86854191Y-91982053D01*
X86854191Y-91982053D01*
G37*
D19*
X86614000Y-92456000D03*
D10*
G36*
X88429191Y-91982053D02*
X88450426Y-91985203D01*
X88471250Y-91990419D01*
X88491462Y-91997651D01*
X88510868Y-92006830D01*
X88529281Y-92017866D01*
X88546524Y-92030654D01*
X88562430Y-92045070D01*
X88576846Y-92060976D01*
X88589634Y-92078219D01*
X88600670Y-92096632D01*
X88609849Y-92116038D01*
X88617081Y-92136250D01*
X88622297Y-92157074D01*
X88625447Y-92178309D01*
X88626500Y-92199750D01*
X88626500Y-92712250D01*
X88625447Y-92733691D01*
X88622297Y-92754926D01*
X88617081Y-92775750D01*
X88609849Y-92795962D01*
X88600670Y-92815368D01*
X88589634Y-92833781D01*
X88576846Y-92851024D01*
X88562430Y-92866930D01*
X88546524Y-92881346D01*
X88529281Y-92894134D01*
X88510868Y-92905170D01*
X88491462Y-92914349D01*
X88471250Y-92921581D01*
X88450426Y-92926797D01*
X88429191Y-92929947D01*
X88407750Y-92931000D01*
X87970250Y-92931000D01*
X87948809Y-92929947D01*
X87927574Y-92926797D01*
X87906750Y-92921581D01*
X87886538Y-92914349D01*
X87867132Y-92905170D01*
X87848719Y-92894134D01*
X87831476Y-92881346D01*
X87815570Y-92866930D01*
X87801154Y-92851024D01*
X87788366Y-92833781D01*
X87777330Y-92815368D01*
X87768151Y-92795962D01*
X87760919Y-92775750D01*
X87755703Y-92754926D01*
X87752553Y-92733691D01*
X87751500Y-92712250D01*
X87751500Y-92199750D01*
X87752553Y-92178309D01*
X87755703Y-92157074D01*
X87760919Y-92136250D01*
X87768151Y-92116038D01*
X87777330Y-92096632D01*
X87788366Y-92078219D01*
X87801154Y-92060976D01*
X87815570Y-92045070D01*
X87831476Y-92030654D01*
X87848719Y-92017866D01*
X87867132Y-92006830D01*
X87886538Y-91997651D01*
X87906750Y-91990419D01*
X87927574Y-91985203D01*
X87948809Y-91982053D01*
X87970250Y-91981000D01*
X88407750Y-91981000D01*
X88429191Y-91982053D01*
X88429191Y-91982053D01*
G37*
D19*
X88189000Y-92456000D03*
G04 #@! TD*
D10*
G04 #@! TO.C,R11*
G36*
X105205691Y-94141053D02*
X105226926Y-94144203D01*
X105247750Y-94149419D01*
X105267962Y-94156651D01*
X105287368Y-94165830D01*
X105305781Y-94176866D01*
X105323024Y-94189654D01*
X105338930Y-94204070D01*
X105353346Y-94219976D01*
X105366134Y-94237219D01*
X105377170Y-94255632D01*
X105386349Y-94275038D01*
X105393581Y-94295250D01*
X105398797Y-94316074D01*
X105401947Y-94337309D01*
X105403000Y-94358750D01*
X105403000Y-94871250D01*
X105401947Y-94892691D01*
X105398797Y-94913926D01*
X105393581Y-94934750D01*
X105386349Y-94954962D01*
X105377170Y-94974368D01*
X105366134Y-94992781D01*
X105353346Y-95010024D01*
X105338930Y-95025930D01*
X105323024Y-95040346D01*
X105305781Y-95053134D01*
X105287368Y-95064170D01*
X105267962Y-95073349D01*
X105247750Y-95080581D01*
X105226926Y-95085797D01*
X105205691Y-95088947D01*
X105184250Y-95090000D01*
X104746750Y-95090000D01*
X104725309Y-95088947D01*
X104704074Y-95085797D01*
X104683250Y-95080581D01*
X104663038Y-95073349D01*
X104643632Y-95064170D01*
X104625219Y-95053134D01*
X104607976Y-95040346D01*
X104592070Y-95025930D01*
X104577654Y-95010024D01*
X104564866Y-94992781D01*
X104553830Y-94974368D01*
X104544651Y-94954962D01*
X104537419Y-94934750D01*
X104532203Y-94913926D01*
X104529053Y-94892691D01*
X104528000Y-94871250D01*
X104528000Y-94358750D01*
X104529053Y-94337309D01*
X104532203Y-94316074D01*
X104537419Y-94295250D01*
X104544651Y-94275038D01*
X104553830Y-94255632D01*
X104564866Y-94237219D01*
X104577654Y-94219976D01*
X104592070Y-94204070D01*
X104607976Y-94189654D01*
X104625219Y-94176866D01*
X104643632Y-94165830D01*
X104663038Y-94156651D01*
X104683250Y-94149419D01*
X104704074Y-94144203D01*
X104725309Y-94141053D01*
X104746750Y-94140000D01*
X105184250Y-94140000D01*
X105205691Y-94141053D01*
X105205691Y-94141053D01*
G37*
D19*
X104965500Y-94615000D03*
D10*
G36*
X103630691Y-94141053D02*
X103651926Y-94144203D01*
X103672750Y-94149419D01*
X103692962Y-94156651D01*
X103712368Y-94165830D01*
X103730781Y-94176866D01*
X103748024Y-94189654D01*
X103763930Y-94204070D01*
X103778346Y-94219976D01*
X103791134Y-94237219D01*
X103802170Y-94255632D01*
X103811349Y-94275038D01*
X103818581Y-94295250D01*
X103823797Y-94316074D01*
X103826947Y-94337309D01*
X103828000Y-94358750D01*
X103828000Y-94871250D01*
X103826947Y-94892691D01*
X103823797Y-94913926D01*
X103818581Y-94934750D01*
X103811349Y-94954962D01*
X103802170Y-94974368D01*
X103791134Y-94992781D01*
X103778346Y-95010024D01*
X103763930Y-95025930D01*
X103748024Y-95040346D01*
X103730781Y-95053134D01*
X103712368Y-95064170D01*
X103692962Y-95073349D01*
X103672750Y-95080581D01*
X103651926Y-95085797D01*
X103630691Y-95088947D01*
X103609250Y-95090000D01*
X103171750Y-95090000D01*
X103150309Y-95088947D01*
X103129074Y-95085797D01*
X103108250Y-95080581D01*
X103088038Y-95073349D01*
X103068632Y-95064170D01*
X103050219Y-95053134D01*
X103032976Y-95040346D01*
X103017070Y-95025930D01*
X103002654Y-95010024D01*
X102989866Y-94992781D01*
X102978830Y-94974368D01*
X102969651Y-94954962D01*
X102962419Y-94934750D01*
X102957203Y-94913926D01*
X102954053Y-94892691D01*
X102953000Y-94871250D01*
X102953000Y-94358750D01*
X102954053Y-94337309D01*
X102957203Y-94316074D01*
X102962419Y-94295250D01*
X102969651Y-94275038D01*
X102978830Y-94255632D01*
X102989866Y-94237219D01*
X103002654Y-94219976D01*
X103017070Y-94204070D01*
X103032976Y-94189654D01*
X103050219Y-94176866D01*
X103068632Y-94165830D01*
X103088038Y-94156651D01*
X103108250Y-94149419D01*
X103129074Y-94144203D01*
X103150309Y-94141053D01*
X103171750Y-94140000D01*
X103609250Y-94140000D01*
X103630691Y-94141053D01*
X103630691Y-94141053D01*
G37*
D19*
X103390500Y-94615000D03*
G04 #@! TD*
D10*
G04 #@! TO.C,R12*
G36*
X94702191Y-67051553D02*
X94723426Y-67054703D01*
X94744250Y-67059919D01*
X94764462Y-67067151D01*
X94783868Y-67076330D01*
X94802281Y-67087366D01*
X94819524Y-67100154D01*
X94835430Y-67114570D01*
X94849846Y-67130476D01*
X94862634Y-67147719D01*
X94873670Y-67166132D01*
X94882849Y-67185538D01*
X94890081Y-67205750D01*
X94895297Y-67226574D01*
X94898447Y-67247809D01*
X94899500Y-67269250D01*
X94899500Y-67706750D01*
X94898447Y-67728191D01*
X94895297Y-67749426D01*
X94890081Y-67770250D01*
X94882849Y-67790462D01*
X94873670Y-67809868D01*
X94862634Y-67828281D01*
X94849846Y-67845524D01*
X94835430Y-67861430D01*
X94819524Y-67875846D01*
X94802281Y-67888634D01*
X94783868Y-67899670D01*
X94764462Y-67908849D01*
X94744250Y-67916081D01*
X94723426Y-67921297D01*
X94702191Y-67924447D01*
X94680750Y-67925500D01*
X94168250Y-67925500D01*
X94146809Y-67924447D01*
X94125574Y-67921297D01*
X94104750Y-67916081D01*
X94084538Y-67908849D01*
X94065132Y-67899670D01*
X94046719Y-67888634D01*
X94029476Y-67875846D01*
X94013570Y-67861430D01*
X93999154Y-67845524D01*
X93986366Y-67828281D01*
X93975330Y-67809868D01*
X93966151Y-67790462D01*
X93958919Y-67770250D01*
X93953703Y-67749426D01*
X93950553Y-67728191D01*
X93949500Y-67706750D01*
X93949500Y-67269250D01*
X93950553Y-67247809D01*
X93953703Y-67226574D01*
X93958919Y-67205750D01*
X93966151Y-67185538D01*
X93975330Y-67166132D01*
X93986366Y-67147719D01*
X93999154Y-67130476D01*
X94013570Y-67114570D01*
X94029476Y-67100154D01*
X94046719Y-67087366D01*
X94065132Y-67076330D01*
X94084538Y-67067151D01*
X94104750Y-67059919D01*
X94125574Y-67054703D01*
X94146809Y-67051553D01*
X94168250Y-67050500D01*
X94680750Y-67050500D01*
X94702191Y-67051553D01*
X94702191Y-67051553D01*
G37*
D19*
X94424500Y-67488000D03*
D10*
G36*
X94702191Y-65476553D02*
X94723426Y-65479703D01*
X94744250Y-65484919D01*
X94764462Y-65492151D01*
X94783868Y-65501330D01*
X94802281Y-65512366D01*
X94819524Y-65525154D01*
X94835430Y-65539570D01*
X94849846Y-65555476D01*
X94862634Y-65572719D01*
X94873670Y-65591132D01*
X94882849Y-65610538D01*
X94890081Y-65630750D01*
X94895297Y-65651574D01*
X94898447Y-65672809D01*
X94899500Y-65694250D01*
X94899500Y-66131750D01*
X94898447Y-66153191D01*
X94895297Y-66174426D01*
X94890081Y-66195250D01*
X94882849Y-66215462D01*
X94873670Y-66234868D01*
X94862634Y-66253281D01*
X94849846Y-66270524D01*
X94835430Y-66286430D01*
X94819524Y-66300846D01*
X94802281Y-66313634D01*
X94783868Y-66324670D01*
X94764462Y-66333849D01*
X94744250Y-66341081D01*
X94723426Y-66346297D01*
X94702191Y-66349447D01*
X94680750Y-66350500D01*
X94168250Y-66350500D01*
X94146809Y-66349447D01*
X94125574Y-66346297D01*
X94104750Y-66341081D01*
X94084538Y-66333849D01*
X94065132Y-66324670D01*
X94046719Y-66313634D01*
X94029476Y-66300846D01*
X94013570Y-66286430D01*
X93999154Y-66270524D01*
X93986366Y-66253281D01*
X93975330Y-66234868D01*
X93966151Y-66215462D01*
X93958919Y-66195250D01*
X93953703Y-66174426D01*
X93950553Y-66153191D01*
X93949500Y-66131750D01*
X93949500Y-65694250D01*
X93950553Y-65672809D01*
X93953703Y-65651574D01*
X93958919Y-65630750D01*
X93966151Y-65610538D01*
X93975330Y-65591132D01*
X93986366Y-65572719D01*
X93999154Y-65555476D01*
X94013570Y-65539570D01*
X94029476Y-65525154D01*
X94046719Y-65512366D01*
X94065132Y-65501330D01*
X94084538Y-65492151D01*
X94104750Y-65484919D01*
X94125574Y-65479703D01*
X94146809Y-65476553D01*
X94168250Y-65475500D01*
X94680750Y-65475500D01*
X94702191Y-65476553D01*
X94702191Y-65476553D01*
G37*
D19*
X94424500Y-65913000D03*
G04 #@! TD*
D10*
G04 #@! TO.C,R13*
G36*
X98194691Y-65476553D02*
X98215926Y-65479703D01*
X98236750Y-65484919D01*
X98256962Y-65492151D01*
X98276368Y-65501330D01*
X98294781Y-65512366D01*
X98312024Y-65525154D01*
X98327930Y-65539570D01*
X98342346Y-65555476D01*
X98355134Y-65572719D01*
X98366170Y-65591132D01*
X98375349Y-65610538D01*
X98382581Y-65630750D01*
X98387797Y-65651574D01*
X98390947Y-65672809D01*
X98392000Y-65694250D01*
X98392000Y-66131750D01*
X98390947Y-66153191D01*
X98387797Y-66174426D01*
X98382581Y-66195250D01*
X98375349Y-66215462D01*
X98366170Y-66234868D01*
X98355134Y-66253281D01*
X98342346Y-66270524D01*
X98327930Y-66286430D01*
X98312024Y-66300846D01*
X98294781Y-66313634D01*
X98276368Y-66324670D01*
X98256962Y-66333849D01*
X98236750Y-66341081D01*
X98215926Y-66346297D01*
X98194691Y-66349447D01*
X98173250Y-66350500D01*
X97660750Y-66350500D01*
X97639309Y-66349447D01*
X97618074Y-66346297D01*
X97597250Y-66341081D01*
X97577038Y-66333849D01*
X97557632Y-66324670D01*
X97539219Y-66313634D01*
X97521976Y-66300846D01*
X97506070Y-66286430D01*
X97491654Y-66270524D01*
X97478866Y-66253281D01*
X97467830Y-66234868D01*
X97458651Y-66215462D01*
X97451419Y-66195250D01*
X97446203Y-66174426D01*
X97443053Y-66153191D01*
X97442000Y-66131750D01*
X97442000Y-65694250D01*
X97443053Y-65672809D01*
X97446203Y-65651574D01*
X97451419Y-65630750D01*
X97458651Y-65610538D01*
X97467830Y-65591132D01*
X97478866Y-65572719D01*
X97491654Y-65555476D01*
X97506070Y-65539570D01*
X97521976Y-65525154D01*
X97539219Y-65512366D01*
X97557632Y-65501330D01*
X97577038Y-65492151D01*
X97597250Y-65484919D01*
X97618074Y-65479703D01*
X97639309Y-65476553D01*
X97660750Y-65475500D01*
X98173250Y-65475500D01*
X98194691Y-65476553D01*
X98194691Y-65476553D01*
G37*
D19*
X97917000Y-65913000D03*
D10*
G36*
X98194691Y-67051553D02*
X98215926Y-67054703D01*
X98236750Y-67059919D01*
X98256962Y-67067151D01*
X98276368Y-67076330D01*
X98294781Y-67087366D01*
X98312024Y-67100154D01*
X98327930Y-67114570D01*
X98342346Y-67130476D01*
X98355134Y-67147719D01*
X98366170Y-67166132D01*
X98375349Y-67185538D01*
X98382581Y-67205750D01*
X98387797Y-67226574D01*
X98390947Y-67247809D01*
X98392000Y-67269250D01*
X98392000Y-67706750D01*
X98390947Y-67728191D01*
X98387797Y-67749426D01*
X98382581Y-67770250D01*
X98375349Y-67790462D01*
X98366170Y-67809868D01*
X98355134Y-67828281D01*
X98342346Y-67845524D01*
X98327930Y-67861430D01*
X98312024Y-67875846D01*
X98294781Y-67888634D01*
X98276368Y-67899670D01*
X98256962Y-67908849D01*
X98236750Y-67916081D01*
X98215926Y-67921297D01*
X98194691Y-67924447D01*
X98173250Y-67925500D01*
X97660750Y-67925500D01*
X97639309Y-67924447D01*
X97618074Y-67921297D01*
X97597250Y-67916081D01*
X97577038Y-67908849D01*
X97557632Y-67899670D01*
X97539219Y-67888634D01*
X97521976Y-67875846D01*
X97506070Y-67861430D01*
X97491654Y-67845524D01*
X97478866Y-67828281D01*
X97467830Y-67809868D01*
X97458651Y-67790462D01*
X97451419Y-67770250D01*
X97446203Y-67749426D01*
X97443053Y-67728191D01*
X97442000Y-67706750D01*
X97442000Y-67269250D01*
X97443053Y-67247809D01*
X97446203Y-67226574D01*
X97451419Y-67205750D01*
X97458651Y-67185538D01*
X97467830Y-67166132D01*
X97478866Y-67147719D01*
X97491654Y-67130476D01*
X97506070Y-67114570D01*
X97521976Y-67100154D01*
X97539219Y-67087366D01*
X97557632Y-67076330D01*
X97577038Y-67067151D01*
X97597250Y-67059919D01*
X97618074Y-67054703D01*
X97639309Y-67051553D01*
X97660750Y-67050500D01*
X98173250Y-67050500D01*
X98194691Y-67051553D01*
X98194691Y-67051553D01*
G37*
D19*
X97917000Y-67488000D03*
G04 #@! TD*
D10*
G04 #@! TO.C,R14*
G36*
X88759191Y-107158553D02*
X88780426Y-107161703D01*
X88801250Y-107166919D01*
X88821462Y-107174151D01*
X88840868Y-107183330D01*
X88859281Y-107194366D01*
X88876524Y-107207154D01*
X88892430Y-107221570D01*
X88906846Y-107237476D01*
X88919634Y-107254719D01*
X88930670Y-107273132D01*
X88939849Y-107292538D01*
X88947081Y-107312750D01*
X88952297Y-107333574D01*
X88955447Y-107354809D01*
X88956500Y-107376250D01*
X88956500Y-107888750D01*
X88955447Y-107910191D01*
X88952297Y-107931426D01*
X88947081Y-107952250D01*
X88939849Y-107972462D01*
X88930670Y-107991868D01*
X88919634Y-108010281D01*
X88906846Y-108027524D01*
X88892430Y-108043430D01*
X88876524Y-108057846D01*
X88859281Y-108070634D01*
X88840868Y-108081670D01*
X88821462Y-108090849D01*
X88801250Y-108098081D01*
X88780426Y-108103297D01*
X88759191Y-108106447D01*
X88737750Y-108107500D01*
X88300250Y-108107500D01*
X88278809Y-108106447D01*
X88257574Y-108103297D01*
X88236750Y-108098081D01*
X88216538Y-108090849D01*
X88197132Y-108081670D01*
X88178719Y-108070634D01*
X88161476Y-108057846D01*
X88145570Y-108043430D01*
X88131154Y-108027524D01*
X88118366Y-108010281D01*
X88107330Y-107991868D01*
X88098151Y-107972462D01*
X88090919Y-107952250D01*
X88085703Y-107931426D01*
X88082553Y-107910191D01*
X88081500Y-107888750D01*
X88081500Y-107376250D01*
X88082553Y-107354809D01*
X88085703Y-107333574D01*
X88090919Y-107312750D01*
X88098151Y-107292538D01*
X88107330Y-107273132D01*
X88118366Y-107254719D01*
X88131154Y-107237476D01*
X88145570Y-107221570D01*
X88161476Y-107207154D01*
X88178719Y-107194366D01*
X88197132Y-107183330D01*
X88216538Y-107174151D01*
X88236750Y-107166919D01*
X88257574Y-107161703D01*
X88278809Y-107158553D01*
X88300250Y-107157500D01*
X88737750Y-107157500D01*
X88759191Y-107158553D01*
X88759191Y-107158553D01*
G37*
D19*
X88519000Y-107632500D03*
D10*
G36*
X87184191Y-107158553D02*
X87205426Y-107161703D01*
X87226250Y-107166919D01*
X87246462Y-107174151D01*
X87265868Y-107183330D01*
X87284281Y-107194366D01*
X87301524Y-107207154D01*
X87317430Y-107221570D01*
X87331846Y-107237476D01*
X87344634Y-107254719D01*
X87355670Y-107273132D01*
X87364849Y-107292538D01*
X87372081Y-107312750D01*
X87377297Y-107333574D01*
X87380447Y-107354809D01*
X87381500Y-107376250D01*
X87381500Y-107888750D01*
X87380447Y-107910191D01*
X87377297Y-107931426D01*
X87372081Y-107952250D01*
X87364849Y-107972462D01*
X87355670Y-107991868D01*
X87344634Y-108010281D01*
X87331846Y-108027524D01*
X87317430Y-108043430D01*
X87301524Y-108057846D01*
X87284281Y-108070634D01*
X87265868Y-108081670D01*
X87246462Y-108090849D01*
X87226250Y-108098081D01*
X87205426Y-108103297D01*
X87184191Y-108106447D01*
X87162750Y-108107500D01*
X86725250Y-108107500D01*
X86703809Y-108106447D01*
X86682574Y-108103297D01*
X86661750Y-108098081D01*
X86641538Y-108090849D01*
X86622132Y-108081670D01*
X86603719Y-108070634D01*
X86586476Y-108057846D01*
X86570570Y-108043430D01*
X86556154Y-108027524D01*
X86543366Y-108010281D01*
X86532330Y-107991868D01*
X86523151Y-107972462D01*
X86515919Y-107952250D01*
X86510703Y-107931426D01*
X86507553Y-107910191D01*
X86506500Y-107888750D01*
X86506500Y-107376250D01*
X86507553Y-107354809D01*
X86510703Y-107333574D01*
X86515919Y-107312750D01*
X86523151Y-107292538D01*
X86532330Y-107273132D01*
X86543366Y-107254719D01*
X86556154Y-107237476D01*
X86570570Y-107221570D01*
X86586476Y-107207154D01*
X86603719Y-107194366D01*
X86622132Y-107183330D01*
X86641538Y-107174151D01*
X86661750Y-107166919D01*
X86682574Y-107161703D01*
X86703809Y-107158553D01*
X86725250Y-107157500D01*
X87162750Y-107157500D01*
X87184191Y-107158553D01*
X87184191Y-107158553D01*
G37*
D19*
X86944000Y-107632500D03*
G04 #@! TD*
D10*
G04 #@! TO.C,R15*
G36*
X85342691Y-109000053D02*
X85363926Y-109003203D01*
X85384750Y-109008419D01*
X85404962Y-109015651D01*
X85424368Y-109024830D01*
X85442781Y-109035866D01*
X85460024Y-109048654D01*
X85475930Y-109063070D01*
X85490346Y-109078976D01*
X85503134Y-109096219D01*
X85514170Y-109114632D01*
X85523349Y-109134038D01*
X85530581Y-109154250D01*
X85535797Y-109175074D01*
X85538947Y-109196309D01*
X85540000Y-109217750D01*
X85540000Y-109730250D01*
X85538947Y-109751691D01*
X85535797Y-109772926D01*
X85530581Y-109793750D01*
X85523349Y-109813962D01*
X85514170Y-109833368D01*
X85503134Y-109851781D01*
X85490346Y-109869024D01*
X85475930Y-109884930D01*
X85460024Y-109899346D01*
X85442781Y-109912134D01*
X85424368Y-109923170D01*
X85404962Y-109932349D01*
X85384750Y-109939581D01*
X85363926Y-109944797D01*
X85342691Y-109947947D01*
X85321250Y-109949000D01*
X84883750Y-109949000D01*
X84862309Y-109947947D01*
X84841074Y-109944797D01*
X84820250Y-109939581D01*
X84800038Y-109932349D01*
X84780632Y-109923170D01*
X84762219Y-109912134D01*
X84744976Y-109899346D01*
X84729070Y-109884930D01*
X84714654Y-109869024D01*
X84701866Y-109851781D01*
X84690830Y-109833368D01*
X84681651Y-109813962D01*
X84674419Y-109793750D01*
X84669203Y-109772926D01*
X84666053Y-109751691D01*
X84665000Y-109730250D01*
X84665000Y-109217750D01*
X84666053Y-109196309D01*
X84669203Y-109175074D01*
X84674419Y-109154250D01*
X84681651Y-109134038D01*
X84690830Y-109114632D01*
X84701866Y-109096219D01*
X84714654Y-109078976D01*
X84729070Y-109063070D01*
X84744976Y-109048654D01*
X84762219Y-109035866D01*
X84780632Y-109024830D01*
X84800038Y-109015651D01*
X84820250Y-109008419D01*
X84841074Y-109003203D01*
X84862309Y-109000053D01*
X84883750Y-108999000D01*
X85321250Y-108999000D01*
X85342691Y-109000053D01*
X85342691Y-109000053D01*
G37*
D19*
X85102500Y-109474000D03*
D10*
G36*
X86917691Y-109000053D02*
X86938926Y-109003203D01*
X86959750Y-109008419D01*
X86979962Y-109015651D01*
X86999368Y-109024830D01*
X87017781Y-109035866D01*
X87035024Y-109048654D01*
X87050930Y-109063070D01*
X87065346Y-109078976D01*
X87078134Y-109096219D01*
X87089170Y-109114632D01*
X87098349Y-109134038D01*
X87105581Y-109154250D01*
X87110797Y-109175074D01*
X87113947Y-109196309D01*
X87115000Y-109217750D01*
X87115000Y-109730250D01*
X87113947Y-109751691D01*
X87110797Y-109772926D01*
X87105581Y-109793750D01*
X87098349Y-109813962D01*
X87089170Y-109833368D01*
X87078134Y-109851781D01*
X87065346Y-109869024D01*
X87050930Y-109884930D01*
X87035024Y-109899346D01*
X87017781Y-109912134D01*
X86999368Y-109923170D01*
X86979962Y-109932349D01*
X86959750Y-109939581D01*
X86938926Y-109944797D01*
X86917691Y-109947947D01*
X86896250Y-109949000D01*
X86458750Y-109949000D01*
X86437309Y-109947947D01*
X86416074Y-109944797D01*
X86395250Y-109939581D01*
X86375038Y-109932349D01*
X86355632Y-109923170D01*
X86337219Y-109912134D01*
X86319976Y-109899346D01*
X86304070Y-109884930D01*
X86289654Y-109869024D01*
X86276866Y-109851781D01*
X86265830Y-109833368D01*
X86256651Y-109813962D01*
X86249419Y-109793750D01*
X86244203Y-109772926D01*
X86241053Y-109751691D01*
X86240000Y-109730250D01*
X86240000Y-109217750D01*
X86241053Y-109196309D01*
X86244203Y-109175074D01*
X86249419Y-109154250D01*
X86256651Y-109134038D01*
X86265830Y-109114632D01*
X86276866Y-109096219D01*
X86289654Y-109078976D01*
X86304070Y-109063070D01*
X86319976Y-109048654D01*
X86337219Y-109035866D01*
X86355632Y-109024830D01*
X86375038Y-109015651D01*
X86395250Y-109008419D01*
X86416074Y-109003203D01*
X86437309Y-109000053D01*
X86458750Y-108999000D01*
X86896250Y-108999000D01*
X86917691Y-109000053D01*
X86917691Y-109000053D01*
G37*
D19*
X86677500Y-109474000D03*
G04 #@! TD*
D25*
G04 #@! TO.C,U1*
X104298000Y-71691500D03*
X102798000Y-71691500D03*
X101298000Y-71691500D03*
X99798000Y-71691500D03*
X98298000Y-71691500D03*
X96798000Y-71691500D03*
X95298000Y-71691500D03*
X93798000Y-71691500D03*
X92298000Y-71691500D03*
X92298000Y-89691500D03*
X93798000Y-89691500D03*
X95298000Y-89691500D03*
X96798000Y-89691500D03*
X98298000Y-89691500D03*
X99798000Y-89691500D03*
X101298000Y-89691500D03*
X102798000Y-89691500D03*
X104298000Y-89691500D03*
D26*
X97718000Y-81811500D03*
G04 #@! TD*
D27*
G04 #@! TO.C,U3*
X83952000Y-104029000D03*
X83952000Y-104529000D03*
X83952000Y-105029000D03*
X83952000Y-105529000D03*
X85852000Y-105529000D03*
X85852000Y-105029000D03*
X85852000Y-104529000D03*
X85852000Y-104029000D03*
G04 #@! TD*
D28*
G04 #@! TO.C,U4*
X91821000Y-108270000D03*
X93091000Y-108270000D03*
X94361000Y-108270000D03*
X95631000Y-108270000D03*
X95631000Y-102870000D03*
X94361000Y-102870000D03*
X93091000Y-102870000D03*
X91821000Y-102870000D03*
G04 #@! TD*
D10*
G04 #@! TO.C,R0*
G36*
X83532505Y-99883204D02*
X83556773Y-99886804D01*
X83580572Y-99892765D01*
X83603671Y-99901030D01*
X83625850Y-99911520D01*
X83646893Y-99924132D01*
X83666599Y-99938747D01*
X83684777Y-99955223D01*
X83701253Y-99973401D01*
X83715868Y-99993107D01*
X83728480Y-100014150D01*
X83738970Y-100036329D01*
X83747235Y-100059428D01*
X83753196Y-100083227D01*
X83756796Y-100107495D01*
X83758000Y-100131999D01*
X83758000Y-100782001D01*
X83756796Y-100806505D01*
X83753196Y-100830773D01*
X83747235Y-100854572D01*
X83738970Y-100877671D01*
X83728480Y-100899850D01*
X83715868Y-100920893D01*
X83701253Y-100940599D01*
X83684777Y-100958777D01*
X83666599Y-100975253D01*
X83646893Y-100989868D01*
X83625850Y-101002480D01*
X83603671Y-101012970D01*
X83580572Y-101021235D01*
X83556773Y-101027196D01*
X83532505Y-101030796D01*
X83508001Y-101032000D01*
X82607999Y-101032000D01*
X82583495Y-101030796D01*
X82559227Y-101027196D01*
X82535428Y-101021235D01*
X82512329Y-101012970D01*
X82490150Y-101002480D01*
X82469107Y-100989868D01*
X82449401Y-100975253D01*
X82431223Y-100958777D01*
X82414747Y-100940599D01*
X82400132Y-100920893D01*
X82387520Y-100899850D01*
X82377030Y-100877671D01*
X82368765Y-100854572D01*
X82362804Y-100830773D01*
X82359204Y-100806505D01*
X82358000Y-100782001D01*
X82358000Y-100131999D01*
X82359204Y-100107495D01*
X82362804Y-100083227D01*
X82368765Y-100059428D01*
X82377030Y-100036329D01*
X82387520Y-100014150D01*
X82400132Y-99993107D01*
X82414747Y-99973401D01*
X82431223Y-99955223D01*
X82449401Y-99938747D01*
X82469107Y-99924132D01*
X82490150Y-99911520D01*
X82512329Y-99901030D01*
X82535428Y-99892765D01*
X82559227Y-99886804D01*
X82583495Y-99883204D01*
X82607999Y-99882000D01*
X83508001Y-99882000D01*
X83532505Y-99883204D01*
X83532505Y-99883204D01*
G37*
D29*
X83058000Y-100457000D03*
D10*
G36*
X83532505Y-97833204D02*
X83556773Y-97836804D01*
X83580572Y-97842765D01*
X83603671Y-97851030D01*
X83625850Y-97861520D01*
X83646893Y-97874132D01*
X83666599Y-97888747D01*
X83684777Y-97905223D01*
X83701253Y-97923401D01*
X83715868Y-97943107D01*
X83728480Y-97964150D01*
X83738970Y-97986329D01*
X83747235Y-98009428D01*
X83753196Y-98033227D01*
X83756796Y-98057495D01*
X83758000Y-98081999D01*
X83758000Y-98732001D01*
X83756796Y-98756505D01*
X83753196Y-98780773D01*
X83747235Y-98804572D01*
X83738970Y-98827671D01*
X83728480Y-98849850D01*
X83715868Y-98870893D01*
X83701253Y-98890599D01*
X83684777Y-98908777D01*
X83666599Y-98925253D01*
X83646893Y-98939868D01*
X83625850Y-98952480D01*
X83603671Y-98962970D01*
X83580572Y-98971235D01*
X83556773Y-98977196D01*
X83532505Y-98980796D01*
X83508001Y-98982000D01*
X82607999Y-98982000D01*
X82583495Y-98980796D01*
X82559227Y-98977196D01*
X82535428Y-98971235D01*
X82512329Y-98962970D01*
X82490150Y-98952480D01*
X82469107Y-98939868D01*
X82449401Y-98925253D01*
X82431223Y-98908777D01*
X82414747Y-98890599D01*
X82400132Y-98870893D01*
X82387520Y-98849850D01*
X82377030Y-98827671D01*
X82368765Y-98804572D01*
X82362804Y-98780773D01*
X82359204Y-98756505D01*
X82358000Y-98732001D01*
X82358000Y-98081999D01*
X82359204Y-98057495D01*
X82362804Y-98033227D01*
X82368765Y-98009428D01*
X82377030Y-97986329D01*
X82387520Y-97964150D01*
X82400132Y-97943107D01*
X82414747Y-97923401D01*
X82431223Y-97905223D01*
X82449401Y-97888747D01*
X82469107Y-97874132D01*
X82490150Y-97861520D01*
X82512329Y-97851030D01*
X82535428Y-97842765D01*
X82559227Y-97836804D01*
X82583495Y-97833204D01*
X82607999Y-97832000D01*
X83508001Y-97832000D01*
X83532505Y-97833204D01*
X83532505Y-97833204D01*
G37*
D29*
X83058000Y-98407000D03*
G04 #@! TD*
D10*
G04 #@! TO.C,RS1*
G36*
X60758505Y-74214204D02*
X60782773Y-74217804D01*
X60806572Y-74223765D01*
X60829671Y-74232030D01*
X60851850Y-74242520D01*
X60872893Y-74255132D01*
X60892599Y-74269747D01*
X60910777Y-74286223D01*
X60927253Y-74304401D01*
X60941868Y-74324107D01*
X60954480Y-74345150D01*
X60964970Y-74367329D01*
X60973235Y-74390428D01*
X60979196Y-74414227D01*
X60982796Y-74438495D01*
X60984000Y-74462999D01*
X60984000Y-75313001D01*
X60982796Y-75337505D01*
X60979196Y-75361773D01*
X60973235Y-75385572D01*
X60964970Y-75408671D01*
X60954480Y-75430850D01*
X60941868Y-75451893D01*
X60927253Y-75471599D01*
X60910777Y-75489777D01*
X60892599Y-75506253D01*
X60872893Y-75520868D01*
X60851850Y-75533480D01*
X60829671Y-75543970D01*
X60806572Y-75552235D01*
X60782773Y-75558196D01*
X60758505Y-75561796D01*
X60734001Y-75563000D01*
X57883999Y-75563000D01*
X57859495Y-75561796D01*
X57835227Y-75558196D01*
X57811428Y-75552235D01*
X57788329Y-75543970D01*
X57766150Y-75533480D01*
X57745107Y-75520868D01*
X57725401Y-75506253D01*
X57707223Y-75489777D01*
X57690747Y-75471599D01*
X57676132Y-75451893D01*
X57663520Y-75430850D01*
X57653030Y-75408671D01*
X57644765Y-75385572D01*
X57638804Y-75361773D01*
X57635204Y-75337505D01*
X57634000Y-75313001D01*
X57634000Y-74462999D01*
X57635204Y-74438495D01*
X57638804Y-74414227D01*
X57644765Y-74390428D01*
X57653030Y-74367329D01*
X57663520Y-74345150D01*
X57676132Y-74324107D01*
X57690747Y-74304401D01*
X57707223Y-74286223D01*
X57725401Y-74269747D01*
X57745107Y-74255132D01*
X57766150Y-74242520D01*
X57788329Y-74232030D01*
X57811428Y-74223765D01*
X57835227Y-74217804D01*
X57859495Y-74214204D01*
X57883999Y-74213000D01*
X60734001Y-74213000D01*
X60758505Y-74214204D01*
X60758505Y-74214204D01*
G37*
D30*
X59309000Y-74888000D03*
D10*
G36*
X60758505Y-68414204D02*
X60782773Y-68417804D01*
X60806572Y-68423765D01*
X60829671Y-68432030D01*
X60851850Y-68442520D01*
X60872893Y-68455132D01*
X60892599Y-68469747D01*
X60910777Y-68486223D01*
X60927253Y-68504401D01*
X60941868Y-68524107D01*
X60954480Y-68545150D01*
X60964970Y-68567329D01*
X60973235Y-68590428D01*
X60979196Y-68614227D01*
X60982796Y-68638495D01*
X60984000Y-68662999D01*
X60984000Y-69513001D01*
X60982796Y-69537505D01*
X60979196Y-69561773D01*
X60973235Y-69585572D01*
X60964970Y-69608671D01*
X60954480Y-69630850D01*
X60941868Y-69651893D01*
X60927253Y-69671599D01*
X60910777Y-69689777D01*
X60892599Y-69706253D01*
X60872893Y-69720868D01*
X60851850Y-69733480D01*
X60829671Y-69743970D01*
X60806572Y-69752235D01*
X60782773Y-69758196D01*
X60758505Y-69761796D01*
X60734001Y-69763000D01*
X57883999Y-69763000D01*
X57859495Y-69761796D01*
X57835227Y-69758196D01*
X57811428Y-69752235D01*
X57788329Y-69743970D01*
X57766150Y-69733480D01*
X57745107Y-69720868D01*
X57725401Y-69706253D01*
X57707223Y-69689777D01*
X57690747Y-69671599D01*
X57676132Y-69651893D01*
X57663520Y-69630850D01*
X57653030Y-69608671D01*
X57644765Y-69585572D01*
X57638804Y-69561773D01*
X57635204Y-69537505D01*
X57634000Y-69513001D01*
X57634000Y-68662999D01*
X57635204Y-68638495D01*
X57638804Y-68614227D01*
X57644765Y-68590428D01*
X57653030Y-68567329D01*
X57663520Y-68545150D01*
X57676132Y-68524107D01*
X57690747Y-68504401D01*
X57707223Y-68486223D01*
X57725401Y-68469747D01*
X57745107Y-68455132D01*
X57766150Y-68442520D01*
X57788329Y-68432030D01*
X57811428Y-68423765D01*
X57835227Y-68417804D01*
X57859495Y-68414204D01*
X57883999Y-68413000D01*
X60734001Y-68413000D01*
X60758505Y-68414204D01*
X60758505Y-68414204D01*
G37*
D30*
X59309000Y-69088000D03*
G04 #@! TD*
D10*
G04 #@! TO.C,RS2*
G36*
X64822505Y-74214204D02*
X64846773Y-74217804D01*
X64870572Y-74223765D01*
X64893671Y-74232030D01*
X64915850Y-74242520D01*
X64936893Y-74255132D01*
X64956599Y-74269747D01*
X64974777Y-74286223D01*
X64991253Y-74304401D01*
X65005868Y-74324107D01*
X65018480Y-74345150D01*
X65028970Y-74367329D01*
X65037235Y-74390428D01*
X65043196Y-74414227D01*
X65046796Y-74438495D01*
X65048000Y-74462999D01*
X65048000Y-75313001D01*
X65046796Y-75337505D01*
X65043196Y-75361773D01*
X65037235Y-75385572D01*
X65028970Y-75408671D01*
X65018480Y-75430850D01*
X65005868Y-75451893D01*
X64991253Y-75471599D01*
X64974777Y-75489777D01*
X64956599Y-75506253D01*
X64936893Y-75520868D01*
X64915850Y-75533480D01*
X64893671Y-75543970D01*
X64870572Y-75552235D01*
X64846773Y-75558196D01*
X64822505Y-75561796D01*
X64798001Y-75563000D01*
X61947999Y-75563000D01*
X61923495Y-75561796D01*
X61899227Y-75558196D01*
X61875428Y-75552235D01*
X61852329Y-75543970D01*
X61830150Y-75533480D01*
X61809107Y-75520868D01*
X61789401Y-75506253D01*
X61771223Y-75489777D01*
X61754747Y-75471599D01*
X61740132Y-75451893D01*
X61727520Y-75430850D01*
X61717030Y-75408671D01*
X61708765Y-75385572D01*
X61702804Y-75361773D01*
X61699204Y-75337505D01*
X61698000Y-75313001D01*
X61698000Y-74462999D01*
X61699204Y-74438495D01*
X61702804Y-74414227D01*
X61708765Y-74390428D01*
X61717030Y-74367329D01*
X61727520Y-74345150D01*
X61740132Y-74324107D01*
X61754747Y-74304401D01*
X61771223Y-74286223D01*
X61789401Y-74269747D01*
X61809107Y-74255132D01*
X61830150Y-74242520D01*
X61852329Y-74232030D01*
X61875428Y-74223765D01*
X61899227Y-74217804D01*
X61923495Y-74214204D01*
X61947999Y-74213000D01*
X64798001Y-74213000D01*
X64822505Y-74214204D01*
X64822505Y-74214204D01*
G37*
D30*
X63373000Y-74888000D03*
D10*
G36*
X64822505Y-68414204D02*
X64846773Y-68417804D01*
X64870572Y-68423765D01*
X64893671Y-68432030D01*
X64915850Y-68442520D01*
X64936893Y-68455132D01*
X64956599Y-68469747D01*
X64974777Y-68486223D01*
X64991253Y-68504401D01*
X65005868Y-68524107D01*
X65018480Y-68545150D01*
X65028970Y-68567329D01*
X65037235Y-68590428D01*
X65043196Y-68614227D01*
X65046796Y-68638495D01*
X65048000Y-68662999D01*
X65048000Y-69513001D01*
X65046796Y-69537505D01*
X65043196Y-69561773D01*
X65037235Y-69585572D01*
X65028970Y-69608671D01*
X65018480Y-69630850D01*
X65005868Y-69651893D01*
X64991253Y-69671599D01*
X64974777Y-69689777D01*
X64956599Y-69706253D01*
X64936893Y-69720868D01*
X64915850Y-69733480D01*
X64893671Y-69743970D01*
X64870572Y-69752235D01*
X64846773Y-69758196D01*
X64822505Y-69761796D01*
X64798001Y-69763000D01*
X61947999Y-69763000D01*
X61923495Y-69761796D01*
X61899227Y-69758196D01*
X61875428Y-69752235D01*
X61852329Y-69743970D01*
X61830150Y-69733480D01*
X61809107Y-69720868D01*
X61789401Y-69706253D01*
X61771223Y-69689777D01*
X61754747Y-69671599D01*
X61740132Y-69651893D01*
X61727520Y-69630850D01*
X61717030Y-69608671D01*
X61708765Y-69585572D01*
X61702804Y-69561773D01*
X61699204Y-69537505D01*
X61698000Y-69513001D01*
X61698000Y-68662999D01*
X61699204Y-68638495D01*
X61702804Y-68614227D01*
X61708765Y-68590428D01*
X61717030Y-68567329D01*
X61727520Y-68545150D01*
X61740132Y-68524107D01*
X61754747Y-68504401D01*
X61771223Y-68486223D01*
X61789401Y-68469747D01*
X61809107Y-68455132D01*
X61830150Y-68442520D01*
X61852329Y-68432030D01*
X61875428Y-68423765D01*
X61899227Y-68417804D01*
X61923495Y-68414204D01*
X61947999Y-68413000D01*
X64798001Y-68413000D01*
X64822505Y-68414204D01*
X64822505Y-68414204D01*
G37*
D30*
X63373000Y-69088000D03*
G04 #@! TD*
D10*
G04 #@! TO.C,RS3*
G36*
X68886505Y-68414204D02*
X68910773Y-68417804D01*
X68934572Y-68423765D01*
X68957671Y-68432030D01*
X68979850Y-68442520D01*
X69000893Y-68455132D01*
X69020599Y-68469747D01*
X69038777Y-68486223D01*
X69055253Y-68504401D01*
X69069868Y-68524107D01*
X69082480Y-68545150D01*
X69092970Y-68567329D01*
X69101235Y-68590428D01*
X69107196Y-68614227D01*
X69110796Y-68638495D01*
X69112000Y-68662999D01*
X69112000Y-69513001D01*
X69110796Y-69537505D01*
X69107196Y-69561773D01*
X69101235Y-69585572D01*
X69092970Y-69608671D01*
X69082480Y-69630850D01*
X69069868Y-69651893D01*
X69055253Y-69671599D01*
X69038777Y-69689777D01*
X69020599Y-69706253D01*
X69000893Y-69720868D01*
X68979850Y-69733480D01*
X68957671Y-69743970D01*
X68934572Y-69752235D01*
X68910773Y-69758196D01*
X68886505Y-69761796D01*
X68862001Y-69763000D01*
X66011999Y-69763000D01*
X65987495Y-69761796D01*
X65963227Y-69758196D01*
X65939428Y-69752235D01*
X65916329Y-69743970D01*
X65894150Y-69733480D01*
X65873107Y-69720868D01*
X65853401Y-69706253D01*
X65835223Y-69689777D01*
X65818747Y-69671599D01*
X65804132Y-69651893D01*
X65791520Y-69630850D01*
X65781030Y-69608671D01*
X65772765Y-69585572D01*
X65766804Y-69561773D01*
X65763204Y-69537505D01*
X65762000Y-69513001D01*
X65762000Y-68662999D01*
X65763204Y-68638495D01*
X65766804Y-68614227D01*
X65772765Y-68590428D01*
X65781030Y-68567329D01*
X65791520Y-68545150D01*
X65804132Y-68524107D01*
X65818747Y-68504401D01*
X65835223Y-68486223D01*
X65853401Y-68469747D01*
X65873107Y-68455132D01*
X65894150Y-68442520D01*
X65916329Y-68432030D01*
X65939428Y-68423765D01*
X65963227Y-68417804D01*
X65987495Y-68414204D01*
X66011999Y-68413000D01*
X68862001Y-68413000D01*
X68886505Y-68414204D01*
X68886505Y-68414204D01*
G37*
D30*
X67437000Y-69088000D03*
D10*
G36*
X68886505Y-74214204D02*
X68910773Y-74217804D01*
X68934572Y-74223765D01*
X68957671Y-74232030D01*
X68979850Y-74242520D01*
X69000893Y-74255132D01*
X69020599Y-74269747D01*
X69038777Y-74286223D01*
X69055253Y-74304401D01*
X69069868Y-74324107D01*
X69082480Y-74345150D01*
X69092970Y-74367329D01*
X69101235Y-74390428D01*
X69107196Y-74414227D01*
X69110796Y-74438495D01*
X69112000Y-74462999D01*
X69112000Y-75313001D01*
X69110796Y-75337505D01*
X69107196Y-75361773D01*
X69101235Y-75385572D01*
X69092970Y-75408671D01*
X69082480Y-75430850D01*
X69069868Y-75451893D01*
X69055253Y-75471599D01*
X69038777Y-75489777D01*
X69020599Y-75506253D01*
X69000893Y-75520868D01*
X68979850Y-75533480D01*
X68957671Y-75543970D01*
X68934572Y-75552235D01*
X68910773Y-75558196D01*
X68886505Y-75561796D01*
X68862001Y-75563000D01*
X66011999Y-75563000D01*
X65987495Y-75561796D01*
X65963227Y-75558196D01*
X65939428Y-75552235D01*
X65916329Y-75543970D01*
X65894150Y-75533480D01*
X65873107Y-75520868D01*
X65853401Y-75506253D01*
X65835223Y-75489777D01*
X65818747Y-75471599D01*
X65804132Y-75451893D01*
X65791520Y-75430850D01*
X65781030Y-75408671D01*
X65772765Y-75385572D01*
X65766804Y-75361773D01*
X65763204Y-75337505D01*
X65762000Y-75313001D01*
X65762000Y-74462999D01*
X65763204Y-74438495D01*
X65766804Y-74414227D01*
X65772765Y-74390428D01*
X65781030Y-74367329D01*
X65791520Y-74345150D01*
X65804132Y-74324107D01*
X65818747Y-74304401D01*
X65835223Y-74286223D01*
X65853401Y-74269747D01*
X65873107Y-74255132D01*
X65894150Y-74242520D01*
X65916329Y-74232030D01*
X65939428Y-74223765D01*
X65963227Y-74217804D01*
X65987495Y-74214204D01*
X66011999Y-74213000D01*
X68862001Y-74213000D01*
X68886505Y-74214204D01*
X68886505Y-74214204D01*
G37*
D30*
X67437000Y-74888000D03*
G04 #@! TD*
D10*
G04 #@! TO.C,RS4*
G36*
X60491805Y-111352904D02*
X60516073Y-111356504D01*
X60539872Y-111362465D01*
X60562971Y-111370730D01*
X60585150Y-111381220D01*
X60606193Y-111393832D01*
X60625899Y-111408447D01*
X60644077Y-111424923D01*
X60660553Y-111443101D01*
X60675168Y-111462807D01*
X60687780Y-111483850D01*
X60698270Y-111506029D01*
X60706535Y-111529128D01*
X60712496Y-111552927D01*
X60716096Y-111577195D01*
X60717300Y-111601699D01*
X60717300Y-112451701D01*
X60716096Y-112476205D01*
X60712496Y-112500473D01*
X60706535Y-112524272D01*
X60698270Y-112547371D01*
X60687780Y-112569550D01*
X60675168Y-112590593D01*
X60660553Y-112610299D01*
X60644077Y-112628477D01*
X60625899Y-112644953D01*
X60606193Y-112659568D01*
X60585150Y-112672180D01*
X60562971Y-112682670D01*
X60539872Y-112690935D01*
X60516073Y-112696896D01*
X60491805Y-112700496D01*
X60467301Y-112701700D01*
X57617299Y-112701700D01*
X57592795Y-112700496D01*
X57568527Y-112696896D01*
X57544728Y-112690935D01*
X57521629Y-112682670D01*
X57499450Y-112672180D01*
X57478407Y-112659568D01*
X57458701Y-112644953D01*
X57440523Y-112628477D01*
X57424047Y-112610299D01*
X57409432Y-112590593D01*
X57396820Y-112569550D01*
X57386330Y-112547371D01*
X57378065Y-112524272D01*
X57372104Y-112500473D01*
X57368504Y-112476205D01*
X57367300Y-112451701D01*
X57367300Y-111601699D01*
X57368504Y-111577195D01*
X57372104Y-111552927D01*
X57378065Y-111529128D01*
X57386330Y-111506029D01*
X57396820Y-111483850D01*
X57409432Y-111462807D01*
X57424047Y-111443101D01*
X57440523Y-111424923D01*
X57458701Y-111408447D01*
X57478407Y-111393832D01*
X57499450Y-111381220D01*
X57521629Y-111370730D01*
X57544728Y-111362465D01*
X57568527Y-111356504D01*
X57592795Y-111352904D01*
X57617299Y-111351700D01*
X60467301Y-111351700D01*
X60491805Y-111352904D01*
X60491805Y-111352904D01*
G37*
D30*
X59042300Y-112026700D03*
D10*
G36*
X60491805Y-105552904D02*
X60516073Y-105556504D01*
X60539872Y-105562465D01*
X60562971Y-105570730D01*
X60585150Y-105581220D01*
X60606193Y-105593832D01*
X60625899Y-105608447D01*
X60644077Y-105624923D01*
X60660553Y-105643101D01*
X60675168Y-105662807D01*
X60687780Y-105683850D01*
X60698270Y-105706029D01*
X60706535Y-105729128D01*
X60712496Y-105752927D01*
X60716096Y-105777195D01*
X60717300Y-105801699D01*
X60717300Y-106651701D01*
X60716096Y-106676205D01*
X60712496Y-106700473D01*
X60706535Y-106724272D01*
X60698270Y-106747371D01*
X60687780Y-106769550D01*
X60675168Y-106790593D01*
X60660553Y-106810299D01*
X60644077Y-106828477D01*
X60625899Y-106844953D01*
X60606193Y-106859568D01*
X60585150Y-106872180D01*
X60562971Y-106882670D01*
X60539872Y-106890935D01*
X60516073Y-106896896D01*
X60491805Y-106900496D01*
X60467301Y-106901700D01*
X57617299Y-106901700D01*
X57592795Y-106900496D01*
X57568527Y-106896896D01*
X57544728Y-106890935D01*
X57521629Y-106882670D01*
X57499450Y-106872180D01*
X57478407Y-106859568D01*
X57458701Y-106844953D01*
X57440523Y-106828477D01*
X57424047Y-106810299D01*
X57409432Y-106790593D01*
X57396820Y-106769550D01*
X57386330Y-106747371D01*
X57378065Y-106724272D01*
X57372104Y-106700473D01*
X57368504Y-106676205D01*
X57367300Y-106651701D01*
X57367300Y-105801699D01*
X57368504Y-105777195D01*
X57372104Y-105752927D01*
X57378065Y-105729128D01*
X57386330Y-105706029D01*
X57396820Y-105683850D01*
X57409432Y-105662807D01*
X57424047Y-105643101D01*
X57440523Y-105624923D01*
X57458701Y-105608447D01*
X57478407Y-105593832D01*
X57499450Y-105581220D01*
X57521629Y-105570730D01*
X57544728Y-105562465D01*
X57568527Y-105556504D01*
X57592795Y-105552904D01*
X57617299Y-105551700D01*
X60467301Y-105551700D01*
X60491805Y-105552904D01*
X60491805Y-105552904D01*
G37*
D30*
X59042300Y-106226700D03*
G04 #@! TD*
D10*
G04 #@! TO.C,RS5*
G36*
X64555805Y-105552904D02*
X64580073Y-105556504D01*
X64603872Y-105562465D01*
X64626971Y-105570730D01*
X64649150Y-105581220D01*
X64670193Y-105593832D01*
X64689899Y-105608447D01*
X64708077Y-105624923D01*
X64724553Y-105643101D01*
X64739168Y-105662807D01*
X64751780Y-105683850D01*
X64762270Y-105706029D01*
X64770535Y-105729128D01*
X64776496Y-105752927D01*
X64780096Y-105777195D01*
X64781300Y-105801699D01*
X64781300Y-106651701D01*
X64780096Y-106676205D01*
X64776496Y-106700473D01*
X64770535Y-106724272D01*
X64762270Y-106747371D01*
X64751780Y-106769550D01*
X64739168Y-106790593D01*
X64724553Y-106810299D01*
X64708077Y-106828477D01*
X64689899Y-106844953D01*
X64670193Y-106859568D01*
X64649150Y-106872180D01*
X64626971Y-106882670D01*
X64603872Y-106890935D01*
X64580073Y-106896896D01*
X64555805Y-106900496D01*
X64531301Y-106901700D01*
X61681299Y-106901700D01*
X61656795Y-106900496D01*
X61632527Y-106896896D01*
X61608728Y-106890935D01*
X61585629Y-106882670D01*
X61563450Y-106872180D01*
X61542407Y-106859568D01*
X61522701Y-106844953D01*
X61504523Y-106828477D01*
X61488047Y-106810299D01*
X61473432Y-106790593D01*
X61460820Y-106769550D01*
X61450330Y-106747371D01*
X61442065Y-106724272D01*
X61436104Y-106700473D01*
X61432504Y-106676205D01*
X61431300Y-106651701D01*
X61431300Y-105801699D01*
X61432504Y-105777195D01*
X61436104Y-105752927D01*
X61442065Y-105729128D01*
X61450330Y-105706029D01*
X61460820Y-105683850D01*
X61473432Y-105662807D01*
X61488047Y-105643101D01*
X61504523Y-105624923D01*
X61522701Y-105608447D01*
X61542407Y-105593832D01*
X61563450Y-105581220D01*
X61585629Y-105570730D01*
X61608728Y-105562465D01*
X61632527Y-105556504D01*
X61656795Y-105552904D01*
X61681299Y-105551700D01*
X64531301Y-105551700D01*
X64555805Y-105552904D01*
X64555805Y-105552904D01*
G37*
D30*
X63106300Y-106226700D03*
D10*
G36*
X64555805Y-111352904D02*
X64580073Y-111356504D01*
X64603872Y-111362465D01*
X64626971Y-111370730D01*
X64649150Y-111381220D01*
X64670193Y-111393832D01*
X64689899Y-111408447D01*
X64708077Y-111424923D01*
X64724553Y-111443101D01*
X64739168Y-111462807D01*
X64751780Y-111483850D01*
X64762270Y-111506029D01*
X64770535Y-111529128D01*
X64776496Y-111552927D01*
X64780096Y-111577195D01*
X64781300Y-111601699D01*
X64781300Y-112451701D01*
X64780096Y-112476205D01*
X64776496Y-112500473D01*
X64770535Y-112524272D01*
X64762270Y-112547371D01*
X64751780Y-112569550D01*
X64739168Y-112590593D01*
X64724553Y-112610299D01*
X64708077Y-112628477D01*
X64689899Y-112644953D01*
X64670193Y-112659568D01*
X64649150Y-112672180D01*
X64626971Y-112682670D01*
X64603872Y-112690935D01*
X64580073Y-112696896D01*
X64555805Y-112700496D01*
X64531301Y-112701700D01*
X61681299Y-112701700D01*
X61656795Y-112700496D01*
X61632527Y-112696896D01*
X61608728Y-112690935D01*
X61585629Y-112682670D01*
X61563450Y-112672180D01*
X61542407Y-112659568D01*
X61522701Y-112644953D01*
X61504523Y-112628477D01*
X61488047Y-112610299D01*
X61473432Y-112590593D01*
X61460820Y-112569550D01*
X61450330Y-112547371D01*
X61442065Y-112524272D01*
X61436104Y-112500473D01*
X61432504Y-112476205D01*
X61431300Y-112451701D01*
X61431300Y-111601699D01*
X61432504Y-111577195D01*
X61436104Y-111552927D01*
X61442065Y-111529128D01*
X61450330Y-111506029D01*
X61460820Y-111483850D01*
X61473432Y-111462807D01*
X61488047Y-111443101D01*
X61504523Y-111424923D01*
X61522701Y-111408447D01*
X61542407Y-111393832D01*
X61563450Y-111381220D01*
X61585629Y-111370730D01*
X61608728Y-111362465D01*
X61632527Y-111356504D01*
X61656795Y-111352904D01*
X61681299Y-111351700D01*
X64531301Y-111351700D01*
X64555805Y-111352904D01*
X64555805Y-111352904D01*
G37*
D30*
X63106300Y-112026700D03*
G04 #@! TD*
D10*
G04 #@! TO.C,RS6*
G36*
X68619805Y-111352904D02*
X68644073Y-111356504D01*
X68667872Y-111362465D01*
X68690971Y-111370730D01*
X68713150Y-111381220D01*
X68734193Y-111393832D01*
X68753899Y-111408447D01*
X68772077Y-111424923D01*
X68788553Y-111443101D01*
X68803168Y-111462807D01*
X68815780Y-111483850D01*
X68826270Y-111506029D01*
X68834535Y-111529128D01*
X68840496Y-111552927D01*
X68844096Y-111577195D01*
X68845300Y-111601699D01*
X68845300Y-112451701D01*
X68844096Y-112476205D01*
X68840496Y-112500473D01*
X68834535Y-112524272D01*
X68826270Y-112547371D01*
X68815780Y-112569550D01*
X68803168Y-112590593D01*
X68788553Y-112610299D01*
X68772077Y-112628477D01*
X68753899Y-112644953D01*
X68734193Y-112659568D01*
X68713150Y-112672180D01*
X68690971Y-112682670D01*
X68667872Y-112690935D01*
X68644073Y-112696896D01*
X68619805Y-112700496D01*
X68595301Y-112701700D01*
X65745299Y-112701700D01*
X65720795Y-112700496D01*
X65696527Y-112696896D01*
X65672728Y-112690935D01*
X65649629Y-112682670D01*
X65627450Y-112672180D01*
X65606407Y-112659568D01*
X65586701Y-112644953D01*
X65568523Y-112628477D01*
X65552047Y-112610299D01*
X65537432Y-112590593D01*
X65524820Y-112569550D01*
X65514330Y-112547371D01*
X65506065Y-112524272D01*
X65500104Y-112500473D01*
X65496504Y-112476205D01*
X65495300Y-112451701D01*
X65495300Y-111601699D01*
X65496504Y-111577195D01*
X65500104Y-111552927D01*
X65506065Y-111529128D01*
X65514330Y-111506029D01*
X65524820Y-111483850D01*
X65537432Y-111462807D01*
X65552047Y-111443101D01*
X65568523Y-111424923D01*
X65586701Y-111408447D01*
X65606407Y-111393832D01*
X65627450Y-111381220D01*
X65649629Y-111370730D01*
X65672728Y-111362465D01*
X65696527Y-111356504D01*
X65720795Y-111352904D01*
X65745299Y-111351700D01*
X68595301Y-111351700D01*
X68619805Y-111352904D01*
X68619805Y-111352904D01*
G37*
D30*
X67170300Y-112026700D03*
D10*
G36*
X68619805Y-105552904D02*
X68644073Y-105556504D01*
X68667872Y-105562465D01*
X68690971Y-105570730D01*
X68713150Y-105581220D01*
X68734193Y-105593832D01*
X68753899Y-105608447D01*
X68772077Y-105624923D01*
X68788553Y-105643101D01*
X68803168Y-105662807D01*
X68815780Y-105683850D01*
X68826270Y-105706029D01*
X68834535Y-105729128D01*
X68840496Y-105752927D01*
X68844096Y-105777195D01*
X68845300Y-105801699D01*
X68845300Y-106651701D01*
X68844096Y-106676205D01*
X68840496Y-106700473D01*
X68834535Y-106724272D01*
X68826270Y-106747371D01*
X68815780Y-106769550D01*
X68803168Y-106790593D01*
X68788553Y-106810299D01*
X68772077Y-106828477D01*
X68753899Y-106844953D01*
X68734193Y-106859568D01*
X68713150Y-106872180D01*
X68690971Y-106882670D01*
X68667872Y-106890935D01*
X68644073Y-106896896D01*
X68619805Y-106900496D01*
X68595301Y-106901700D01*
X65745299Y-106901700D01*
X65720795Y-106900496D01*
X65696527Y-106896896D01*
X65672728Y-106890935D01*
X65649629Y-106882670D01*
X65627450Y-106872180D01*
X65606407Y-106859568D01*
X65586701Y-106844953D01*
X65568523Y-106828477D01*
X65552047Y-106810299D01*
X65537432Y-106790593D01*
X65524820Y-106769550D01*
X65514330Y-106747371D01*
X65506065Y-106724272D01*
X65500104Y-106700473D01*
X65496504Y-106676205D01*
X65495300Y-106651701D01*
X65495300Y-105801699D01*
X65496504Y-105777195D01*
X65500104Y-105752927D01*
X65506065Y-105729128D01*
X65514330Y-105706029D01*
X65524820Y-105683850D01*
X65537432Y-105662807D01*
X65552047Y-105643101D01*
X65568523Y-105624923D01*
X65586701Y-105608447D01*
X65606407Y-105593832D01*
X65627450Y-105581220D01*
X65649629Y-105570730D01*
X65672728Y-105562465D01*
X65696527Y-105556504D01*
X65720795Y-105552904D01*
X65745299Y-105551700D01*
X68595301Y-105551700D01*
X68619805Y-105552904D01*
X68619805Y-105552904D01*
G37*
D30*
X67170300Y-106226700D03*
G04 #@! TD*
D10*
G04 #@! TO.C,C22*
G36*
X75119391Y-88476853D02*
X75140626Y-88480003D01*
X75161450Y-88485219D01*
X75181662Y-88492451D01*
X75201068Y-88501630D01*
X75219481Y-88512666D01*
X75236724Y-88525454D01*
X75252630Y-88539870D01*
X75267046Y-88555776D01*
X75279834Y-88573019D01*
X75290870Y-88591432D01*
X75300049Y-88610838D01*
X75307281Y-88631050D01*
X75312497Y-88651874D01*
X75315647Y-88673109D01*
X75316700Y-88694550D01*
X75316700Y-89207050D01*
X75315647Y-89228491D01*
X75312497Y-89249726D01*
X75307281Y-89270550D01*
X75300049Y-89290762D01*
X75290870Y-89310168D01*
X75279834Y-89328581D01*
X75267046Y-89345824D01*
X75252630Y-89361730D01*
X75236724Y-89376146D01*
X75219481Y-89388934D01*
X75201068Y-89399970D01*
X75181662Y-89409149D01*
X75161450Y-89416381D01*
X75140626Y-89421597D01*
X75119391Y-89424747D01*
X75097950Y-89425800D01*
X74660450Y-89425800D01*
X74639009Y-89424747D01*
X74617774Y-89421597D01*
X74596950Y-89416381D01*
X74576738Y-89409149D01*
X74557332Y-89399970D01*
X74538919Y-89388934D01*
X74521676Y-89376146D01*
X74505770Y-89361730D01*
X74491354Y-89345824D01*
X74478566Y-89328581D01*
X74467530Y-89310168D01*
X74458351Y-89290762D01*
X74451119Y-89270550D01*
X74445903Y-89249726D01*
X74442753Y-89228491D01*
X74441700Y-89207050D01*
X74441700Y-88694550D01*
X74442753Y-88673109D01*
X74445903Y-88651874D01*
X74451119Y-88631050D01*
X74458351Y-88610838D01*
X74467530Y-88591432D01*
X74478566Y-88573019D01*
X74491354Y-88555776D01*
X74505770Y-88539870D01*
X74521676Y-88525454D01*
X74538919Y-88512666D01*
X74557332Y-88501630D01*
X74576738Y-88492451D01*
X74596950Y-88485219D01*
X74617774Y-88480003D01*
X74639009Y-88476853D01*
X74660450Y-88475800D01*
X75097950Y-88475800D01*
X75119391Y-88476853D01*
X75119391Y-88476853D01*
G37*
D19*
X74879200Y-88950800D03*
D10*
G36*
X76694391Y-88476853D02*
X76715626Y-88480003D01*
X76736450Y-88485219D01*
X76756662Y-88492451D01*
X76776068Y-88501630D01*
X76794481Y-88512666D01*
X76811724Y-88525454D01*
X76827630Y-88539870D01*
X76842046Y-88555776D01*
X76854834Y-88573019D01*
X76865870Y-88591432D01*
X76875049Y-88610838D01*
X76882281Y-88631050D01*
X76887497Y-88651874D01*
X76890647Y-88673109D01*
X76891700Y-88694550D01*
X76891700Y-89207050D01*
X76890647Y-89228491D01*
X76887497Y-89249726D01*
X76882281Y-89270550D01*
X76875049Y-89290762D01*
X76865870Y-89310168D01*
X76854834Y-89328581D01*
X76842046Y-89345824D01*
X76827630Y-89361730D01*
X76811724Y-89376146D01*
X76794481Y-89388934D01*
X76776068Y-89399970D01*
X76756662Y-89409149D01*
X76736450Y-89416381D01*
X76715626Y-89421597D01*
X76694391Y-89424747D01*
X76672950Y-89425800D01*
X76235450Y-89425800D01*
X76214009Y-89424747D01*
X76192774Y-89421597D01*
X76171950Y-89416381D01*
X76151738Y-89409149D01*
X76132332Y-89399970D01*
X76113919Y-89388934D01*
X76096676Y-89376146D01*
X76080770Y-89361730D01*
X76066354Y-89345824D01*
X76053566Y-89328581D01*
X76042530Y-89310168D01*
X76033351Y-89290762D01*
X76026119Y-89270550D01*
X76020903Y-89249726D01*
X76017753Y-89228491D01*
X76016700Y-89207050D01*
X76016700Y-88694550D01*
X76017753Y-88673109D01*
X76020903Y-88651874D01*
X76026119Y-88631050D01*
X76033351Y-88610838D01*
X76042530Y-88591432D01*
X76053566Y-88573019D01*
X76066354Y-88555776D01*
X76080770Y-88539870D01*
X76096676Y-88525454D01*
X76113919Y-88512666D01*
X76132332Y-88501630D01*
X76151738Y-88492451D01*
X76171950Y-88485219D01*
X76192774Y-88480003D01*
X76214009Y-88476853D01*
X76235450Y-88475800D01*
X76672950Y-88475800D01*
X76694391Y-88476853D01*
X76694391Y-88476853D01*
G37*
D19*
X76454200Y-88950800D03*
G04 #@! TD*
M02*
