G04 #@! TF.GenerationSoftware,KiCad,Pcbnew,5.0.1-33cea8e~68~ubuntu16.04.1*
G04 #@! TF.CreationDate,2018-10-28T17:52:41-07:00*
G04 #@! TF.ProjectId,wifistepper,77696669737465707065722E6B696361,rev?*
G04 #@! TF.SameCoordinates,Original*
G04 #@! TF.FileFunction,Legend,Bot*
G04 #@! TF.FilePolarity,Positive*
%FSLAX46Y46*%
G04 Gerber Fmt 4.6, Leading zero omitted, Abs format (unit mm)*
G04 Created by KiCad (PCBNEW 5.0.1-33cea8e~68~ubuntu16.04.1) date Sun 28 Oct 2018 05:52:41 PM PDT*
%MOMM*%
%LPD*%
G01*
G04 APERTURE LIST*
%ADD10C,0.200000*%
G04 APERTURE END LIST*
D10*
X70160285Y-113607809D02*
X70046000Y-113645904D01*
X69855523Y-113645904D01*
X69779333Y-113607809D01*
X69741238Y-113569714D01*
X69703142Y-113493523D01*
X69703142Y-113417333D01*
X69741238Y-113341142D01*
X69779333Y-113303047D01*
X69855523Y-113264952D01*
X70007904Y-113226857D01*
X70084095Y-113188761D01*
X70122190Y-113150666D01*
X70160285Y-113074476D01*
X70160285Y-112998285D01*
X70122190Y-112922095D01*
X70084095Y-112884000D01*
X70007904Y-112845904D01*
X69817428Y-112845904D01*
X69703142Y-112884000D01*
X69360285Y-113645904D02*
X69360285Y-112845904D01*
X69017428Y-113645904D02*
X69017428Y-113226857D01*
X69055523Y-113150666D01*
X69131714Y-113112571D01*
X69246000Y-113112571D01*
X69322190Y-113150666D01*
X69360285Y-113188761D01*
X68522190Y-113645904D02*
X68598380Y-113607809D01*
X68636476Y-113569714D01*
X68674571Y-113493523D01*
X68674571Y-113264952D01*
X68636476Y-113188761D01*
X68598380Y-113150666D01*
X68522190Y-113112571D01*
X68407904Y-113112571D01*
X68331714Y-113150666D01*
X68293619Y-113188761D01*
X68255523Y-113264952D01*
X68255523Y-113493523D01*
X68293619Y-113569714D01*
X68331714Y-113607809D01*
X68407904Y-113645904D01*
X68522190Y-113645904D01*
X67912666Y-113645904D02*
X67912666Y-113112571D01*
X67912666Y-113264952D02*
X67874571Y-113188761D01*
X67836476Y-113150666D01*
X67760285Y-113112571D01*
X67684095Y-113112571D01*
X67531714Y-113112571D02*
X67226952Y-113112571D01*
X67417428Y-112845904D02*
X67417428Y-113531619D01*
X67379333Y-113607809D01*
X67303142Y-113645904D01*
X67226952Y-113645904D01*
X66465047Y-113112571D02*
X66160285Y-113112571D01*
X66350761Y-113645904D02*
X66350761Y-112960190D01*
X66312666Y-112884000D01*
X66236476Y-112845904D01*
X66160285Y-112845904D01*
X65779333Y-113645904D02*
X65855523Y-113607809D01*
X65893619Y-113569714D01*
X65931714Y-113493523D01*
X65931714Y-113264952D01*
X65893619Y-113188761D01*
X65855523Y-113150666D01*
X65779333Y-113112571D01*
X65665047Y-113112571D01*
X65588857Y-113150666D01*
X65550761Y-113188761D01*
X65512666Y-113264952D01*
X65512666Y-113493523D01*
X65550761Y-113569714D01*
X65588857Y-113607809D01*
X65665047Y-113645904D01*
X65779333Y-113645904D01*
X65169809Y-113645904D02*
X65169809Y-113112571D01*
X65169809Y-113264952D02*
X65131714Y-113188761D01*
X65093619Y-113150666D01*
X65017428Y-113112571D01*
X64941238Y-113112571D01*
X64179333Y-112845904D02*
X63912666Y-113645904D01*
X63646000Y-112845904D01*
X63265047Y-113645904D02*
X63341238Y-113607809D01*
X63379333Y-113569714D01*
X63417428Y-113493523D01*
X63417428Y-113264952D01*
X63379333Y-113188761D01*
X63341238Y-113150666D01*
X63265047Y-113112571D01*
X63150761Y-113112571D01*
X63074571Y-113150666D01*
X63036476Y-113188761D01*
X62998380Y-113264952D01*
X62998380Y-113493523D01*
X63036476Y-113569714D01*
X63074571Y-113607809D01*
X63150761Y-113645904D01*
X63265047Y-113645904D01*
X62541238Y-113645904D02*
X62617428Y-113607809D01*
X62655523Y-113531619D01*
X62655523Y-112845904D01*
X62350761Y-113112571D02*
X62046000Y-113112571D01*
X62236476Y-112845904D02*
X62236476Y-113531619D01*
X62198380Y-113607809D01*
X62122190Y-113645904D01*
X62046000Y-113645904D01*
X61436476Y-113645904D02*
X61436476Y-113226857D01*
X61474571Y-113150666D01*
X61550761Y-113112571D01*
X61703142Y-113112571D01*
X61779333Y-113150666D01*
X61436476Y-113607809D02*
X61512666Y-113645904D01*
X61703142Y-113645904D01*
X61779333Y-113607809D01*
X61817428Y-113531619D01*
X61817428Y-113455428D01*
X61779333Y-113379238D01*
X61703142Y-113341142D01*
X61512666Y-113341142D01*
X61436476Y-113303047D01*
X60712666Y-113112571D02*
X60712666Y-113760190D01*
X60750761Y-113836380D01*
X60788857Y-113874476D01*
X60865047Y-113912571D01*
X60979333Y-113912571D01*
X61055523Y-113874476D01*
X60712666Y-113607809D02*
X60788857Y-113645904D01*
X60941238Y-113645904D01*
X61017428Y-113607809D01*
X61055523Y-113569714D01*
X61093619Y-113493523D01*
X61093619Y-113264952D01*
X61055523Y-113188761D01*
X61017428Y-113150666D01*
X60941238Y-113112571D01*
X60788857Y-113112571D01*
X60712666Y-113150666D01*
X60026952Y-113607809D02*
X60103142Y-113645904D01*
X60255523Y-113645904D01*
X60331714Y-113607809D01*
X60369809Y-113531619D01*
X60369809Y-113226857D01*
X60331714Y-113150666D01*
X60255523Y-113112571D01*
X60103142Y-113112571D01*
X60026952Y-113150666D01*
X59988857Y-113226857D01*
X59988857Y-113303047D01*
X60369809Y-113379238D01*
X59036476Y-113645904D02*
X59036476Y-112845904D01*
X58769809Y-113417333D01*
X58503142Y-112845904D01*
X58503142Y-113645904D01*
X58007904Y-113645904D02*
X58084095Y-113607809D01*
X58122190Y-113569714D01*
X58160285Y-113493523D01*
X58160285Y-113264952D01*
X58122190Y-113188761D01*
X58084095Y-113150666D01*
X58007904Y-113112571D01*
X57893619Y-113112571D01*
X57817428Y-113150666D01*
X57779333Y-113188761D01*
X57741238Y-113264952D01*
X57741238Y-113493523D01*
X57779333Y-113569714D01*
X57817428Y-113607809D01*
X57893619Y-113645904D01*
X58007904Y-113645904D01*
X57055523Y-113645904D02*
X57055523Y-112845904D01*
X57055523Y-113607809D02*
X57131714Y-113645904D01*
X57284095Y-113645904D01*
X57360285Y-113607809D01*
X57398380Y-113569714D01*
X57436476Y-113493523D01*
X57436476Y-113264952D01*
X57398380Y-113188761D01*
X57360285Y-113150666D01*
X57284095Y-113112571D01*
X57131714Y-113112571D01*
X57055523Y-113150666D01*
X56369809Y-113607809D02*
X56446000Y-113645904D01*
X56598380Y-113645904D01*
X56674571Y-113607809D01*
X56712666Y-113531619D01*
X56712666Y-113226857D01*
X56674571Y-113150666D01*
X56598380Y-113112571D01*
X56446000Y-113112571D01*
X56369809Y-113150666D01*
X56331714Y-113226857D01*
X56331714Y-113303047D01*
X56712666Y-113379238D01*
X70160285Y-66617809D02*
X70046000Y-66655904D01*
X69855523Y-66655904D01*
X69779333Y-66617809D01*
X69741238Y-66579714D01*
X69703142Y-66503523D01*
X69703142Y-66427333D01*
X69741238Y-66351142D01*
X69779333Y-66313047D01*
X69855523Y-66274952D01*
X70007904Y-66236857D01*
X70084095Y-66198761D01*
X70122190Y-66160666D01*
X70160285Y-66084476D01*
X70160285Y-66008285D01*
X70122190Y-65932095D01*
X70084095Y-65894000D01*
X70007904Y-65855904D01*
X69817428Y-65855904D01*
X69703142Y-65894000D01*
X69360285Y-66655904D02*
X69360285Y-65855904D01*
X69017428Y-66655904D02*
X69017428Y-66236857D01*
X69055523Y-66160666D01*
X69131714Y-66122571D01*
X69246000Y-66122571D01*
X69322190Y-66160666D01*
X69360285Y-66198761D01*
X68522190Y-66655904D02*
X68598380Y-66617809D01*
X68636476Y-66579714D01*
X68674571Y-66503523D01*
X68674571Y-66274952D01*
X68636476Y-66198761D01*
X68598380Y-66160666D01*
X68522190Y-66122571D01*
X68407904Y-66122571D01*
X68331714Y-66160666D01*
X68293619Y-66198761D01*
X68255523Y-66274952D01*
X68255523Y-66503523D01*
X68293619Y-66579714D01*
X68331714Y-66617809D01*
X68407904Y-66655904D01*
X68522190Y-66655904D01*
X67912666Y-66655904D02*
X67912666Y-66122571D01*
X67912666Y-66274952D02*
X67874571Y-66198761D01*
X67836476Y-66160666D01*
X67760285Y-66122571D01*
X67684095Y-66122571D01*
X67531714Y-66122571D02*
X67226952Y-66122571D01*
X67417428Y-65855904D02*
X67417428Y-66541619D01*
X67379333Y-66617809D01*
X67303142Y-66655904D01*
X67226952Y-66655904D01*
X66465047Y-66122571D02*
X66160285Y-66122571D01*
X66350761Y-66655904D02*
X66350761Y-65970190D01*
X66312666Y-65894000D01*
X66236476Y-65855904D01*
X66160285Y-65855904D01*
X65779333Y-66655904D02*
X65855523Y-66617809D01*
X65893619Y-66579714D01*
X65931714Y-66503523D01*
X65931714Y-66274952D01*
X65893619Y-66198761D01*
X65855523Y-66160666D01*
X65779333Y-66122571D01*
X65665047Y-66122571D01*
X65588857Y-66160666D01*
X65550761Y-66198761D01*
X65512666Y-66274952D01*
X65512666Y-66503523D01*
X65550761Y-66579714D01*
X65588857Y-66617809D01*
X65665047Y-66655904D01*
X65779333Y-66655904D01*
X65169809Y-66655904D02*
X65169809Y-66122571D01*
X65169809Y-66274952D02*
X65131714Y-66198761D01*
X65093619Y-66160666D01*
X65017428Y-66122571D01*
X64941238Y-66122571D01*
X64179333Y-65855904D02*
X63912666Y-66655904D01*
X63646000Y-65855904D01*
X63265047Y-66655904D02*
X63341238Y-66617809D01*
X63379333Y-66579714D01*
X63417428Y-66503523D01*
X63417428Y-66274952D01*
X63379333Y-66198761D01*
X63341238Y-66160666D01*
X63265047Y-66122571D01*
X63150761Y-66122571D01*
X63074571Y-66160666D01*
X63036476Y-66198761D01*
X62998380Y-66274952D01*
X62998380Y-66503523D01*
X63036476Y-66579714D01*
X63074571Y-66617809D01*
X63150761Y-66655904D01*
X63265047Y-66655904D01*
X62541238Y-66655904D02*
X62617428Y-66617809D01*
X62655523Y-66541619D01*
X62655523Y-65855904D01*
X62350761Y-66122571D02*
X62046000Y-66122571D01*
X62236476Y-65855904D02*
X62236476Y-66541619D01*
X62198380Y-66617809D01*
X62122190Y-66655904D01*
X62046000Y-66655904D01*
X61436476Y-66655904D02*
X61436476Y-66236857D01*
X61474571Y-66160666D01*
X61550761Y-66122571D01*
X61703142Y-66122571D01*
X61779333Y-66160666D01*
X61436476Y-66617809D02*
X61512666Y-66655904D01*
X61703142Y-66655904D01*
X61779333Y-66617809D01*
X61817428Y-66541619D01*
X61817428Y-66465428D01*
X61779333Y-66389238D01*
X61703142Y-66351142D01*
X61512666Y-66351142D01*
X61436476Y-66313047D01*
X60712666Y-66122571D02*
X60712666Y-66770190D01*
X60750761Y-66846380D01*
X60788857Y-66884476D01*
X60865047Y-66922571D01*
X60979333Y-66922571D01*
X61055523Y-66884476D01*
X60712666Y-66617809D02*
X60788857Y-66655904D01*
X60941238Y-66655904D01*
X61017428Y-66617809D01*
X61055523Y-66579714D01*
X61093619Y-66503523D01*
X61093619Y-66274952D01*
X61055523Y-66198761D01*
X61017428Y-66160666D01*
X60941238Y-66122571D01*
X60788857Y-66122571D01*
X60712666Y-66160666D01*
X60026952Y-66617809D02*
X60103142Y-66655904D01*
X60255523Y-66655904D01*
X60331714Y-66617809D01*
X60369809Y-66541619D01*
X60369809Y-66236857D01*
X60331714Y-66160666D01*
X60255523Y-66122571D01*
X60103142Y-66122571D01*
X60026952Y-66160666D01*
X59988857Y-66236857D01*
X59988857Y-66313047D01*
X60369809Y-66389238D01*
X59036476Y-66655904D02*
X59036476Y-65855904D01*
X58769809Y-66427333D01*
X58503142Y-65855904D01*
X58503142Y-66655904D01*
X58007904Y-66655904D02*
X58084095Y-66617809D01*
X58122190Y-66579714D01*
X58160285Y-66503523D01*
X58160285Y-66274952D01*
X58122190Y-66198761D01*
X58084095Y-66160666D01*
X58007904Y-66122571D01*
X57893619Y-66122571D01*
X57817428Y-66160666D01*
X57779333Y-66198761D01*
X57741238Y-66274952D01*
X57741238Y-66503523D01*
X57779333Y-66579714D01*
X57817428Y-66617809D01*
X57893619Y-66655904D01*
X58007904Y-66655904D01*
X57055523Y-66655904D02*
X57055523Y-65855904D01*
X57055523Y-66617809D02*
X57131714Y-66655904D01*
X57284095Y-66655904D01*
X57360285Y-66617809D01*
X57398380Y-66579714D01*
X57436476Y-66503523D01*
X57436476Y-66274952D01*
X57398380Y-66198761D01*
X57360285Y-66160666D01*
X57284095Y-66122571D01*
X57131714Y-66122571D01*
X57055523Y-66160666D01*
X56369809Y-66617809D02*
X56446000Y-66655904D01*
X56598380Y-66655904D01*
X56674571Y-66617809D01*
X56712666Y-66541619D01*
X56712666Y-66236857D01*
X56674571Y-66160666D01*
X56598380Y-66122571D01*
X56446000Y-66122571D01*
X56369809Y-66160666D01*
X56331714Y-66236857D01*
X56331714Y-66313047D01*
X56712666Y-66389238D01*
X71628000Y-112522000D02*
X54610000Y-112522000D01*
X54610000Y-109220000D02*
X71628000Y-109220000D01*
X71628000Y-109220000D02*
X71628000Y-112522000D01*
X54610000Y-112522000D02*
X54610000Y-109220000D01*
X54864000Y-70358000D02*
X54864000Y-67056000D01*
X71882000Y-70358000D02*
X54864000Y-70358000D01*
X71882000Y-67056000D02*
X71882000Y-70358000D01*
X54864000Y-67056000D02*
X71882000Y-67056000D01*
M02*
